<?xml version="1.0" standalone="no"?>
<!DOCTYPE svg PUBLIC "-//W3C//DTD SVG 1.1//EN" "http://www.w3.org/Graphics/SVG/1.1/DTD/svg11.dtd" >
<svg xmlns="http://www.w3.org/2000/svg" xmlns:xlink="http://www.w3.org/1999/xlink" version="1.1">
<metadata>
Created by FontForge 20170731 at Mon Jul 25 17:59:15 2022
 By Aleksey,,,
(c) 2011-2017, Copyright by Lineto GmbH. All rights reserved.
</metadata>
<defs>
<font id="RiformaLL-Regular" horiz-adv-x="1658" >
  <font-face 
    font-family="Riforma LL"
    font-weight="400"
    font-stretch="normal"
    units-per-em="2048"
    panose-1="2 11 5 4 2 1 1 2 1 2"
    ascent="1495"
    descent="-553"
    x-height="1065"
    cap-height="1434"
    bbox="-891 -522 2654 2017"
    underline-thickness="81"
    underline-position="-285"
    unicode-range="U+000D-1F310"
  />
<missing-glyph horiz-adv-x="1392" 
d="M174 0v1434h1045v-1434h-1045zM256 82h881v1270h-881v-1270z" />
    <glyph glyph-name="f_f" unicode="ff" horiz-adv-x="1425" 
d="M928 1065v113q0 256 276 256h197v-160h-184q-54 0 -73.5 -21t-19.5 -75v-113h277v-164h-277v-901h-196v901h-449v-901h-196v901h-256v164h256v113q0 256 276 256h166v-160h-154q-53 0 -72.5 -20.5t-19.5 -75.5v-113h449z" />
    <glyph glyph-name="f_f_i" unicode="ffi" horiz-adv-x="1918" 
d="M1124 901v-901h-196v901h-449v-901h-196v901h-256v164h256v113q0 256 276 256h166v-160h-154q-53 0 -72.5 -20.5t-19.5 -75.5v-113h449v113q0 256 276 256h166v-160h-153q-54 0 -73.5 -21t-19.5 -75v-113h645v-1065h-196v901h-449zM1573 1434h196v-205h-196v205z" />
    <glyph glyph-name="f_f_l" unicode="ffl" horiz-adv-x="1918" 
d="M1124 901v-901h-196v901h-449v-901h-196v901h-256v164h256v113q0 256 276 256h166v-160h-154q-53 0 -72.5 -20.5t-19.5 -75.5v-113h449v113q0 256 276 256h166v-160h-153q-54 0 -73.5 -21t-19.5 -75v-113h449v369h196v-1434h-196v901h-449z" />
    <glyph glyph-name="f_i" unicode="fi" horiz-adv-x="1273" 
d="M1124 1065v-1065h-196v901h-449v-901h-196v901h-256v164h256v113q0 256 276 256h166v-160h-154q-53 0 -72.5 -20.5t-19.5 -75.5v-113h645zM928 1434h196v-205h-196v205z" />
    <glyph glyph-name="f_l" unicode="fl" horiz-adv-x="1273" 
d="M928 1065v369h196v-1434h-196v901h-449v-901h-196v901h-256v164h256v113q0 256 276 256h166v-160h-154q-53 0 -72.5 -20.5t-19.5 -75.5v-113h449z" />
    <glyph glyph-name=".notdef" horiz-adv-x="1392" 
d="M174 0v1434h1045v-1434h-1045zM256 82h881v1270h-881v-1270z" />
    <glyph glyph-name=".null" horiz-adv-x="0" 
 />
    <glyph glyph-name="nonmarkingreturn" horiz-adv-x="682" 
 />
    <glyph glyph-name="CR" unicode="&#xd;" horiz-adv-x="495" 
 />
    <glyph glyph-name="space" unicode=" " horiz-adv-x="495" 
 />
    <glyph glyph-name="exclam" unicode="!" horiz-adv-x="536" 
d="M145 276h246v-276h-246v276zM330 451h-123l-41 460v523h205v-523z" />
    <glyph glyph-name="quotedbl" unicode="&#x22;" horiz-adv-x="806" 
d="M139 1434h205v-420l-205 -205v625zM498 1434h204v-420l-204 -205v625z" />
    <glyph glyph-name="numbersign" unicode="#" horiz-adv-x="1601" 
d="M877 389h-314l-98 -389h-197l99 389h-308l41 164h308l81 328h-309l41 163h309l97 390h196l-96 -390h313l97 390h196l-96 -390h305l-41 -163h-305l-82 -328h307l-41 -164h-307l-98 -389h-197zM604 553h314l81 328h-313z" />
    <glyph glyph-name="dollar" unicode="$" horiz-adv-x="1245" 
d="M541 -29q-112 8 -200.5 41.5t-145.5 85t-89 115t-38 135.5h202q6 -83 72 -139t199 -72v527q-74 16 -132.5 35.5t-119 53t-100.5 76t-65.5 105.5t-25.5 141q0 155 114.5 260t328.5 125v178h164v-178q191 -19 299.5 -115t121.5 -229h-202q-12 63 -66 112.5t-153 65.5v-469
q79 -14 141 -32.5t127 -52.5t107.5 -79t70 -114.5t27.5 -157.5q0 -175 -122.5 -286.5t-350.5 -131.5v-176h-164v176zM977 379q0 117 -64.5 171.5t-207.5 84.5v-498q137 17 204.5 79.5t67.5 162.5zM299 1085q0 -95 57.5 -145.5t184.5 -81.5v438q-126 -19 -184 -77.5
t-58 -133.5z" />
    <glyph glyph-name="percent" unicode="%" horiz-adv-x="1880" 
d="M225 1014q0 -307 185 -307q184 0 184 307t-184 307q-185 0 -185 -307zM748 1014q0 -225 -93 -333t-245 -108t-245 108t-93 333t93 332.5t245 107.5t245 -107.5t93 -332.5zM1251 1434h172l-798 -1434h-172zM1286 420q0 -307 184 -307q185 0 185 307t-185 307
q-184 0 -184 -307zM1808 420q0 -225 -93 -332.5t-245 -107.5t-244.5 107.5t-92.5 332.5t92.5 332.5t244.5 107.5t245 -107.5t93 -332.5z" />
    <glyph glyph-name="ampersand" unicode="&#x26;" horiz-adv-x="1507" 
d="M1483 0h-266l-160 160q-180 -191 -465 -191q-234 0 -373 121t-139 309q0 146 72.5 247.5t244.5 172.5q-153 153 -153 318q0 139 98.5 233t280.5 94q92 0 164.5 -27.5t116 -73t65.5 -101t22 -115.5q0 -130 -63.5 -219t-210.5 -162l327 -328l183 258h225l-276 -389z
M285 399q0 -119 80.5 -187.5t226.5 -68.5q110 0 188 36t148 110l-398 397q-137 -57 -191 -121t-54 -166zM623 1300q-89 0 -137 -45.5t-48 -117.5q0 -51 36 -106.5t114 -135.5q120 53 169.5 109.5t49.5 132.5q0 69 -45.5 116t-138.5 47z" />
    <glyph glyph-name="quotesingle" unicode="'" horiz-adv-x="448" 
d="M139 1434h205v-420l-205 -205v625z" />
    <glyph glyph-name="parenleft" unicode="(" horiz-adv-x="598" 
d="M80 532q0 136 33.5 249.5t150.5 398.5l103 254h163l-102 -308q-91 -267 -117 -371.5t-26 -222.5t26 -221.5t117 -371.5l102 -308h-163l-103 254q-117 285 -150.5 398t-33.5 249z" />
    <glyph glyph-name="parenright" unicode=")" horiz-adv-x="600" 
d="M518 532q0 -136 -33.5 -249t-150.5 -398l-103 -254h-163l102 308q91 268 117 371.5t26 221.5t-26 222.5t-117 371.5l-102 308h163l103 -254q117 -285 150.5 -398.5t33.5 -249.5z" />
    <glyph glyph-name="asterisk" unicode="*" horiz-adv-x="1024" 
d="M471 1112v322h82v-322l227 227l58 -57l-228 -227h322v-82h-322l228 -228l-58 -57l-227 227v-321h-82v321l-227 -227l-58 57l228 228h-322v82h322l-228 227l58 57z" />
    <glyph glyph-name="plus" unicode="+" horiz-adv-x="1179" 
d="M68 799h440v450h164v-450h440v-164h-440v-451h-164v451h-440v164z" />
    <glyph glyph-name="comma" unicode="," horiz-adv-x="507" 
d="M131 276h246v-276l-164 -276h-92l112 276h-102v276z" />
    <glyph glyph-name="hyphen" unicode="-" horiz-adv-x="811" 
d="M129 614h553v-163h-553v163z" />
    <glyph glyph-name="period" unicode="." horiz-adv-x="507" 
d="M131 276h246v-276h-246v276z" />
    <glyph glyph-name="slash" unicode="/" horiz-adv-x="1132" 
d="M870 1434h220l-830 -1434h-219z" />
    <glyph glyph-name="zero" unicode="0" horiz-adv-x="1331" 
d="M307 717q0 -285 96 -429.5t263 -144.5t262.5 144.5t95.5 429.5t-95.5 429t-262.5 144t-263 -144t-96 -429zM1229 717q0 -158 -29.5 -285t-80.5 -212.5t-123 -142.5t-154 -82.5t-176 -25.5t-176 25.5t-154 82.5t-123.5 142.5t-81 212.5t-29.5 285t29.5 285t81 212
t123.5 142t154 82.5t176 25.5q118 0 217 -41.5t178 -128t123.5 -234t44.5 -343.5z" />
    <glyph glyph-name="one" unicode="1" horiz-adv-x="856" 
d="M467 0v1188l-317 -328v256l317 318h205v-1434h-205z" />
    <glyph glyph-name="two" unicode="2" horiz-adv-x="1140" 
d="M90 1085q17 181 145 280t326 99q208 0 334.5 -110.5t126.5 -288.5q0 -134 -50.5 -235t-178.5 -226l-447 -430h707v-174h-963v174l563 563q88 88 126 160.5t38 157.5q0 105 -65.5 170t-190.5 65q-118 0 -188 -53t-76 -152h-207z" />
    <glyph glyph-name="three" unicode="3" horiz-adv-x="1175" 
d="M453 850h112q117 0 186.5 58t69.5 157q0 102 -67.5 163.5t-188.5 61.5q-115 0 -179 -52.5t-73 -121.5h-209q18 152 142 250t319 98q207 0 334 -109t127 -280q0 -188 -174 -297q117 -51 171 -147.5t54 -220.5q0 -193 -142.5 -317t-369.5 -124q-115 0 -208 30t-153.5 83
t-96 120t-44.5 146h207q13 -95 85.5 -155t209.5 -60q146 0 226.5 81t80.5 196q0 127 -73.5 196.5t-223.5 69.5h-122v174z" />
    <glyph glyph-name="four" unicode="4" horiz-adv-x="1212" 
d="M725 1434h215v-973h205v-174h-205v-287h-205v287h-696v174zM735 461v266q0 281 13 451h-9q-105 -183 -278 -424l-207 -293h481z" />
    <glyph glyph-name="five" unicode="5" horiz-adv-x="1193" 
d="M119 645l51 789h850v-174h-655l-27 -379q103 123 313 123q116 0 205.5 -39.5t144.5 -109.5t83 -161.5t28 -201.5q0 -230 -138 -376.5t-384 -146.5q-196 0 -329 105t-163 274h211q18 -90 93 -147.5t188 -57.5q107 0 180.5 50t105 126.5t31.5 172.5q0 159 -72 253.5
t-225 94.5q-108 0 -183 -51.5t-105 -143.5h-203z" />
    <glyph glyph-name="six" unicode="6" horiz-adv-x="1232" 
d="M647 1464q169 0 286.5 -83t153.5 -224h-223q-54 133 -217 133q-157 0 -238.5 -126t-89.5 -355q52 76 144.5 125t214.5 49q217 0 344 -139t127 -352q0 -223 -143.5 -373t-358.5 -150q-122 0 -217.5 41.5t-155.5 110.5t-99 167t-55 203t-16 226q0 162 28 290t77 212.5
t118.5 140.5t148.5 80t171 24zM647 143q93 0 162.5 49.5t102 124.5t32.5 164q0 90 -30.5 162.5t-99.5 119t-167 46.5q-141 0 -224 -95.5t-83 -232.5q0 -89 33 -164t104.5 -124.5t169.5 -49.5z" />
    <glyph glyph-name="seven" unicode="7" horiz-adv-x="1038" 
d="M354 0h-217l643 1260h-745v174h962v-174z" />
    <glyph glyph-name="eight" unicode="8" horiz-adv-x="1236" 
d="M618 -31q-143 0 -262 53.5t-189.5 152.5t-70.5 224q0 139 69.5 234t176.5 135q-91 47 -143 130t-52 177q0 174 133.5 281.5t337.5 107.5t338 -107.5t134 -281.5q0 -94 -52 -177t-143 -130q107 -40 176.5 -135t69.5 -234q0 -190 -149 -310t-374 -120zM618 676
q-147 0 -232 -77.5t-85 -188.5q0 -120 84 -198.5t233 -78.5t233.5 78.5t84.5 198.5q0 111 -85 188.5t-233 77.5zM618 1300q-130 0 -203 -63t-73 -172q0 -100 76.5 -162.5t199.5 -62.5t200 62.5t77 162.5q0 109 -73.5 172t-203.5 63z" />
    <glyph glyph-name="nine" unicode="9" horiz-adv-x="1232" 
d="M586 -31q-169 0 -287 83t-154 224h224q54 -133 217 -133q157 0 238 126t89 356q-52 -76 -144 -125t-214 -49q-144 0 -252.5 68t-163.5 181t-55 252q0 222 143 367t359 145q542 0 542 -747q0 -162 -28 -290t-77 -213t-118.5 -140.5t-148 -80t-170.5 -24.5zM586 1290
q-140 0 -218.5 -94.5t-78.5 -232.5q0 -90 30.5 -164.5t99.5 -124t167 -49.5q94 0 165.5 49t106.5 125t35 164q0 89 -33 162t-104 119t-170 46z" />
    <glyph glyph-name="colon" unicode=":" horiz-adv-x="507" 
d="M131 276h246v-276h-246v276zM131 1065h246v-277h-246v277z" />
    <glyph glyph-name="semicolon" unicode=";" horiz-adv-x="520" 
d="M139 1065h246v-277h-246v277zM139 276h246v-276l-164 -276h-92l113 276h-103v276z" />
    <glyph glyph-name="less" unicode="&#x3c;" horiz-adv-x="1110" 
d="M967 1229v-185l-727 -327l727 -328v-184l-901 430v164z" />
    <glyph glyph-name="equal" unicode="=" horiz-adv-x="1171" 
d="M135 1014h901v-164h-901v164zM135 584h901v-164h-901v164z" />
    <glyph glyph-name="greater" unicode="&#x3e;" horiz-adv-x="1110" 
d="M1044 799v-164l-901 -430v184l727 328l-727 327v185z" />
    <glyph glyph-name="question" unicode="?" horiz-adv-x="1019" 
d="M346 276h246v-276h-246v276zM59 1116q8 155 129 251.5t312 96.5q105 0 189.5 -30.5t138.5 -82.5t83 -120t29 -146q0 -73 -21 -132t-54.5 -98t-73.5 -73.5t-80.5 -66.5t-74 -66.5t-54.5 -85t-21 -112.5h-184q0 79 19.5 143t51.5 106.5t70 79t76 67.5t70 63.5t51.5 76.5
t19.5 98q0 36 -13 70.5t-39 65.5t-73.5 50t-109.5 19q-113 0 -170 -51t-66 -123h-205z" />
    <glyph glyph-name="at" unicode="@" horiz-adv-x="1882" 
d="M926 236q124 0 190 86t66 210q0 59 -16 111.5t-46.5 94.5t-80.5 66.5t-113 24.5q-119 0 -187.5 -84.5t-68.5 -212.5t68.5 -212t187.5 -84zM926 -317q-232 0 -425 113.5t-304 308.5t-111 427q0 173 65.5 330t178.5 271t271 181.5t335 67.5q237 0 432 -111t306.5 -303.5
t111.5 -424.5q0 -118 -28 -208t-75.5 -141.5t-104 -76.5t-120.5 -25q-79 0 -142 38t-93 106q-48 -70 -133.5 -112t-184.5 -42q-180 0 -300 126t-120 324t120.5 324.5t299.5 126.5q164 0 277 -113v82h184v-573q0 -74 25.5 -103.5t76.5 -29.5q69 0 111.5 83t42.5 214
q0 187 -87.5 344t-245.5 249.5t-353 92.5q-146 0 -275 -56t-218.5 -150.5t-141 -222t-51.5 -268.5t51.5 -268.5t141 -222t218.5 -150t275 -55.5q144 0 287 49v-153q-137 -49 -297 -49z" />
    <glyph glyph-name="A" unicode="A" horiz-adv-x="1396" 
d="M1036 338h-676l-133 -338h-215l584 1434h205l583 -1434h-215zM694 1208q-84 -249 -133 -366l-131 -330h537l-131 330q-54 129 -134 366h-8z" />
    <glyph glyph-name="B" unicode="B" horiz-adv-x="1443" 
d="M184 0v1434h676q195 0 312.5 -101.5t117.5 -277.5q0 -203 -174 -297q225 -98 225 -359q0 -183 -121 -291t-319 -108h-717zM891 174q129 0 187.5 64t58.5 172t-63 176.5t-193 68.5h-492v-481h502zM840 829q121 0 183 56.5t62 158.5q0 103 -57.5 159.5t-177.5 56.5h-461
v-431h451z" />
    <glyph glyph-name="C" unicode="C" horiz-adv-x="1464" 
d="M1403 379q-64 -189 -219 -299.5t-385 -110.5q-211 0 -373 97t-248 266.5t-86 384.5q0 214 86 383.5t248 266.5t373 97q222 0 372 -100.5t222 -278.5h-224q-108 205 -370 205q-99 0 -182 -31.5t-141 -85.5t-99 -127t-60.5 -156t-19.5 -173q0 -113 31.5 -214.5t92 -182.5
t158.5 -129t220 -48q288 0 383 236h221z" />
    <glyph glyph-name="D" unicode="D" horiz-adv-x="1478" 
d="M1382 717q0 -340 -183 -528.5t-513 -188.5h-502v1434h502q329 0 512.5 -189.5t183.5 -527.5zM389 174h277q250 0 381 143t131 400t-131 400t-381 143h-277v-1086z" />
    <glyph glyph-name="E" unicode="E" horiz-adv-x="1302" 
d="M184 1434h1004v-174h-799v-431h758v-174h-758v-481h799v-174h-1004v1434z" />
    <glyph glyph-name="F" unicode="F" horiz-adv-x="1261" 
d="M184 1434h1004v-174h-799v-451h758v-174h-758v-635h-205v1434z" />
    <glyph glyph-name="G" unicode="G" horiz-adv-x="1540" 
d="M799 1290q-99 0 -182 -31.5t-141 -85.5t-99 -127t-60.5 -156t-19.5 -173q0 -113 31.5 -214.5t92 -182.5t158.5 -129t220 -48q114 0 200 39.5t134.5 105t72 140.5t23.5 156h-451v174h645v-758h-153l-21 174q-62 -89 -173 -147t-277 -58q-211 0 -373 97t-248 266.5
t-86 384.5q0 214 86 383.5t248 266.5t373 97q222 0 372 -100.5t222 -278.5h-224q-108 205 -370 205z" />
    <glyph glyph-name="H" unicode="H" horiz-adv-x="1536" 
d="M1352 0h-205v655h-758v-655h-205v1434h205v-605h758v605h205v-1434z" />
    <glyph glyph-name="I" unicode="I" horiz-adv-x="573" 
d="M184 0v1434h205v-1434h-205z" />
    <glyph glyph-name="J" unicode="J" horiz-adv-x="952" 
d="M322 174q142 0 199 66t57 211v983h204v-983q0 -451 -460 -451h-273v174h273z" />
    <glyph glyph-name="K" unicode="K" horiz-adv-x="1300" 
d="M184 0v1434h205v-635l625 635h256l-697 -697l738 -737h-277l-645 666v-666h-205z" />
    <glyph glyph-name="L" unicode="L" horiz-adv-x="1177" 
d="M184 1434h205v-1260h758v-174h-963v1434z" />
    <glyph glyph-name="M" unicode="M" horiz-adv-x="1822" 
d="M911 399q85 200 183 389l319 646h225v-1434h-204v686q0 256 16 410h-8q-10 -24 -41 -96.5t-44 -103t-38.5 -85t-50.5 -104.5l-357 -707l-356 707q-25 50 -50.5 104.5t-38.5 85t-44 103t-41 96.5h-8q16 -154 16 -410v-686h-205v1434h226l319 -646q144 -301 182 -389z" />
    <glyph glyph-name="N" unicode="N" horiz-adv-x="1556" 
d="M664 711q-175 247 -277 426h-8q10 -131 10 -451v-686h-205v1434h215l494 -711q169 -240 276 -426h9q-11 144 -11 451v686h205v-1434h-215z" />
    <glyph glyph-name="O" unicode="O" horiz-adv-x="1597" 
d="M92 717q0 213 88.5 383t250 267t368.5 97t368.5 -97t249.5 -267t88 -383q0 -160 -51.5 -298.5t-143.5 -237.5t-224 -155.5t-287 -56.5q-207 0 -368.5 96.5t-250 267t-88.5 384.5zM297 717q0 -112 33 -214.5t94.5 -183t158.5 -128.5t216 -48t216 48t158 128.5t94 183
t33 214.5t-33 214t-94 182.5t-158 128.5t-216 48t-216 -48t-158.5 -128.5t-94.5 -182.5t-33 -214z" />
    <glyph glyph-name="P" unicode="P" horiz-adv-x="1386" 
d="M389 614v-614h-205v1434h686q217 0 339 -109t122 -301t-122 -301t-339 -109h-481zM870 788q127 0 191.5 62t64.5 174t-64.5 174t-191.5 62h-481v-472h481z" />
    <glyph glyph-name="Q" unicode="Q" horiz-adv-x="1613" 
d="M92 717q0 213 88.5 383t250 267t368.5 97t368.5 -97t249.5 -267t88 -383q0 -316 -184 -522l195 -195h-246l-80 80q-168 -111 -391 -111q-207 0 -368.5 96.5t-250 267t-88.5 384.5zM297 717q0 -112 33 -214.5t94.5 -183t158.5 -128.5t216 -48q141 0 258 70l-330 330h246
l211 -211q116 151 116 385q0 112 -33 214t-94 182.5t-158 128.5t-216 48t-216 -48t-158.5 -128.5t-94.5 -182.5t-33 -214z" />
    <glyph glyph-name="R" unicode="R" horiz-adv-x="1423" 
d="M870 788q127 0 191.5 62t64.5 174t-64.5 174t-191.5 62h-481v-472h481zM768 614l614 -614h-276l-604 614h-113v-614h-205v1434h686q217 0 339 -109t122 -301t-122 -301t-339 -109h-102z" />
    <glyph glyph-name="S" unicode="S" horiz-adv-x="1320" 
d="M664 1464q112 0 203.5 -23.5t151 -61t101.5 -88.5t61.5 -102t24.5 -104h-209q-8 95 -89.5 156.5t-243.5 61.5q-180 0 -267.5 -64t-87.5 -164q0 -110 75.5 -166t221.5 -78l164 -24q88 -14 156.5 -33.5t128 -52.5t98.5 -77t61.5 -107t22.5 -142q0 -190 -150.5 -308
t-422.5 -118q-140 0 -251.5 32.5t-182 89t-108.5 130t-42 158.5h205q6 -120 102 -184t277 -64q176 0 273 67.5t97 180.5q0 49 -15 85t-37.5 58.5t-65.5 40t-82.5 26.5t-104.5 21l-164 27q-454 69 -454 424q0 84 34.5 156.5t101 128t173.5 87t244 31.5z" />
    <glyph glyph-name="T" unicode="T" horiz-adv-x="1224" 
d="M1196 1260h-481v-1260h-205v1260h-481v174h1167v-174z" />
    <glyph glyph-name="U" unicode="U" horiz-adv-x="1482" 
d="M741 -31q-263 0 -418 154t-155 389v922h205v-922q0 -170 99 -269.5t269 -99.5t269.5 99.5t99.5 269.5v922h205v-922q0 -235 -155.5 -389t-418.5 -154z" />
    <glyph glyph-name="V" unicode="V" horiz-adv-x="1320" 
d="M526 633q90 -251 131 -408h7q41 157 131 408l290 801h215l-542 -1434h-195l-543 1434h216z" />
    <glyph glyph-name="W" unicode="W" horiz-adv-x="1925" 
d="M958 1157q-42 -205 -90 -375l-223 -782h-205l-409 1434h205l208 -762q64 -239 95 -406h8q43 210 98 408l215 760h205l215 -760q55 -198 98 -408h8q31 167 95 406l209 762h204l-409 -1434h-205l-223 782q-48 170 -90 375h-9z" />
    <glyph glyph-name="X" unicode="X" horiz-adv-x="1294" 
d="M649 920l359 514h233l-479 -676l530 -758h-241l-406 588l-409 -588h-234l530 752l-479 682h242z" />
    <glyph glyph-name="Y" unicode="Y" horiz-adv-x="1220" 
d="M508 573l-481 861h229l354 -676l355 676h229l-481 -861v-573h-205v573z" />
    <glyph glyph-name="Z" unicode="Z" horiz-adv-x="1224" 
d="M1159 0h-1085v174l809 1086h-789v174h1034v-174l-809 -1086h840v-174z" />
    <glyph glyph-name="bracketleft" unicode="[" horiz-adv-x="667" 
d="M170 1434h442v-164h-245v-1475h245v-164h-442v1803z" />
    <glyph glyph-name="backslash" unicode="\" horiz-adv-x="1132" 
d="M1092 0h-220l-829 1434h219z" />
    <glyph glyph-name="bracketright" unicode="]" horiz-adv-x="667" 
d="M498 -369h-443v164h246v1475h-246v164h443v-1803z" />
    <glyph glyph-name="asciicircum" unicode="^" horiz-adv-x="1073" 
d="M455 1434h163l390 -902h-179l-292 707l-293 -707h-178z" />
    <glyph glyph-name="underscore" unicode="_" horiz-adv-x="1224" 
d="M111 0h1003v-143h-1003v143z" />
    <glyph glyph-name="grave" unicode="`" horiz-adv-x="552" 
d="M481 1198h-194l-236 236h266z" />
    <glyph glyph-name="a" unicode="a" horiz-adv-x="1171" 
d="M498 123q145 0 241.5 91t96.5 247v82l-349 -31q-215 -21 -215 -195q0 -101 62 -147.5t164 -46.5zM127 788q18 136 132.5 222t320.5 86q298 0 401 -174q51 -83 51 -215v-707h-196v133q-53 -70 -145.5 -117t-213.5 -47q-174 0 -287.5 89.5t-113.5 258.5q0 144 97.5 232.5
t293.5 105.5l369 31v21q0 115 -58 175t-198 60q-114 0 -178 -41.5t-72 -112.5h-203z" />
    <glyph glyph-name="b" unicode="b" horiz-adv-x="1273" 
d="M336 532q0 -110 36.5 -199t112 -144.5t179.5 -55.5q156 0 241.5 111.5t85.5 287.5q0 114 -36 203t-111.5 143t-179.5 54t-179.5 -56t-112 -145t-36.5 -199zM346 0h-196v1434h196v-512q49 81 138.5 127.5t209.5 46.5q116 0 211 -45t156 -122.5t94 -179.5t33 -217
t-33 -216.5t-94 -179t-156 -122.5t-211 -45q-120 0 -209.5 46.5t-138.5 127.5v-143z" />
    <glyph glyph-name="c" unicode="c" horiz-adv-x="1144" 
d="M1087 297q-46 -153 -166 -240.5t-305 -87.5q-165 0 -287 74.5t-183.5 201t-61.5 287.5t61.5 287.5t183.5 201.5t287 75q174 0 289.5 -81.5t171.5 -226.5h-213q-68 144 -248 144q-86 0 -151.5 -32t-105 -88t-59 -126.5t-19.5 -153.5t19.5 -153.5t59 -126.5t105 -87.5
t151.5 -31.5q196 0 265 164h206z" />
    <glyph glyph-name="d" unicode="d" horiz-adv-x="1271" 
d="M936 532q0 110 -36.5 199t-112 145t-179.5 56t-179.5 -54t-111.5 -143t-36 -203q0 -176 85.5 -287.5t241.5 -111.5q104 0 179.5 55.5t112 144.5t36.5 199zM926 143q-49 -81 -138.5 -127.5t-209.5 -46.5q-116 0 -211 45t-156 122.5t-94 179t-33 216.5t33 217t94 179.5
t156 122.5t211 45q120 0 209.5 -46.5t138.5 -127.5v512h196v-1434h-196v143z" />
    <glyph glyph-name="e" unicode="e" horiz-adv-x="1196" 
d="M1098 297q-40 -140 -165.5 -234t-316.5 -94q-241 0 -386.5 159.5t-145.5 403.5q0 159 63.5 287t183.5 202.5t275 74.5q185 0 304.5 -95t172.5 -262q35 -112 35 -258v-20h-837q5 -136 97 -237t238 -101q62 0 113 16.5t82.5 43t50.5 55.5t25 59h211zM606 942
q-146 0 -233 -95t-92 -233h641q-8 146 -88 237t-228 91z" />
    <glyph glyph-name="f" unicode="f" horiz-adv-x="780" 
d="M27 1065h256v113q0 256 276 256h197v-160h-185q-53 0 -72.5 -20.5t-19.5 -75.5v-113h277v-164h-277v-901h-196v901h-256v164z" />
    <glyph glyph-name="g" unicode="g" horiz-adv-x="1261" 
d="M926 553q0 160 -89.5 269.5t-238.5 109.5q-142 0 -229.5 -110t-87.5 -269t87.5 -269t229.5 -110q149 0 238.5 109.5t89.5 269.5zM915 164q-44 -60 -128.5 -107t-208.5 -47q-147 0 -260.5 74t-173.5 197t-60 272t60 272t173.5 197t260.5 74q124 0 209 -47.5t128 -106.5
v123h197v-952q0 -248 -133.5 -380t-370.5 -132q-176 0 -299.5 84t-152.5 223h204q13 -62 78 -108t170 -46q307 0 307 359v51z" />
    <glyph glyph-name="h" unicode="h" horiz-adv-x="1224" 
d="M346 922q53 85 145 129.5t203 44.5q187 0 289 -105t102 -305v-686h-196v666q0 133 -59 199.5t-187 66.5q-129 0 -213 -86.5t-84 -241.5v-604h-196v1434h196v-512z" />
    <glyph glyph-name="i" unicode="i" horiz-adv-x="495" 
d="M150 1065h196v-1065h-196v1065zM150 1434h196v-205h-196v205z" />
    <glyph glyph-name="j" unicode="j" horiz-adv-x="503" 
d="M158 1434h196v-205h-196v205zM158 1065h196v-1157q0 -138 -79.5 -207.5t-229.5 -69.5h-92v160h82q68 0 95.5 27t27.5 90v1157z" />
    <glyph glyph-name="k" unicode="k" horiz-adv-x="1067" 
d="M150 1434h196v-824l445 455h253l-512 -512l553 -553h-268l-471 492v-492h-196v1434z" />
    <glyph glyph-name="l" unicode="l" horiz-adv-x="495" 
d="M150 1434h196v-1434h-196v1434z" />
    <glyph glyph-name="m" unicode="m" horiz-adv-x="1878" 
d="M346 942q84 154 307 154q112 0 202 -47.5t136 -137.5q101 185 359 185q175 0 282 -102.5t107 -297.5v-696h-197v666q0 133 -56 199.5t-177 66.5q-52 0 -98 -16.5t-85 -50.5t-61.5 -93.5t-22.5 -136.5v-635h-196v666q0 133 -56.5 199.5t-177.5 66.5q-111 0 -188.5 -73.5
t-77.5 -223.5v-635h-196v1065h196v-123z" />
    <glyph glyph-name="n" unicode="n" horiz-adv-x="1222" 
d="M346 922q53 85 145 129.5t203 44.5q187 0 288 -105t101 -305v-686h-196v666q0 133 -58.5 199.5t-185.5 66.5q-129 0 -213 -86.5t-84 -241.5v-604h-196v1065h196v-143z" />
    <glyph glyph-name="o" unicode="o" horiz-adv-x="1249" 
d="M82 532q0 243 150.5 403.5t392.5 160.5t392 -160.5t150 -403.5t-150 -403t-392 -160t-392.5 160t-150.5 403zM971 532q0 109 -39 199t-119 145.5t-188 55.5t-188 -55.5t-119 -145.5t-39 -199q0 -169 92.5 -284t253.5 -115t253.5 115t92.5 284z" />
    <glyph glyph-name="p" unicode="p" horiz-adv-x="1273" 
d="M336 532q0 -110 36.5 -199t112 -144.5t179.5 -55.5q156 0 241.5 111.5t85.5 287.5q0 114 -36 203t-111.5 143t-179.5 54t-179.5 -56t-112 -145t-36.5 -199zM346 922q49 81 138.5 127.5t209.5 46.5q116 0 211 -45t156 -122.5t94 -179.5t33 -217t-33 -216.5t-94 -179
t-156 -122.5t-211 -45q-120 0 -209.5 46.5t-138.5 127.5v-512h-196v1434h196v-143z" />
    <glyph glyph-name="q" unicode="q" horiz-adv-x="1271" 
d="M936 532q0 110 -36.5 199t-112 145t-179.5 56t-179.5 -54t-111.5 -143t-36 -203q0 -176 85.5 -287.5t241.5 -111.5q104 0 179.5 55.5t112 144.5t36.5 199zM926 1065h196v-1434h-196v512q-49 -81 -138.5 -127.5t-209.5 -46.5q-116 0 -211 45t-156 122.5t-94 179t-33 216.5
t33 217t94 179.5t156 122.5t211 45q120 0 209.5 -46.5t138.5 -127.5v143z" />
    <glyph glyph-name="r" unicode="r" horiz-adv-x="727" 
d="M582 901q-113 0 -174.5 -65.5t-61.5 -200.5v-635h-196v1065h196v-123q40 72 107 107.5t180 35.5h55v-184h-106z" />
    <glyph glyph-name="s" unicode="s" horiz-adv-x="1067" 
d="M475 451q-379 57 -379 331q0 141 115.5 227.5t325.5 86.5q107 0 190.5 -27.5t133 -73t76 -98t30.5 -109.5h-193q-5 72 -66.5 115t-175.5 43q-122 0 -181.5 -40.5t-59.5 -106.5q0 -73 52.5 -106t166.5 -52l98 -14q69 -11 121 -25t103 -39t83 -59.5t52 -87t20 -119.5
q0 -150 -119 -239t-331 -89q-215 0 -335.5 91t-125.5 237h198q9 -176 263 -176q125 0 190.5 42.5t65.5 117.5q0 32 -11 57t-29.5 41t-48 27.5t-60 18t-73.5 11.5z" />
    <glyph glyph-name="t" unicode="t" horiz-adv-x="811" 
d="M281 901h-256v164h256v246h196v-246h277v-164h-277v-645q0 -55 19.5 -75.5t72.5 -20.5h185v-160h-226q-134 0 -190.5 63.5t-56.5 192.5v645z" />
    <glyph glyph-name="u" unicode="u" horiz-adv-x="1212" 
d="M866 133q-45 -83 -134.5 -123.5t-203.5 -40.5q-187 0 -288 105t-101 305v686h197v-666q0 -133 58.5 -199.5t185.5 -66.5t206.5 85.5t79.5 242.5v604h197v-1065h-197v133z" />
    <glyph glyph-name="v" unicode="v" horiz-adv-x="1077" 
d="M27 1065h204l183 -485q51 -132 121 -375h8q70 243 121 375l182 485h205l-420 -1065h-185z" />
    <glyph glyph-name="w" unicode="w" horiz-adv-x="1568" 
d="M780 840q-47 -218 -98 -375l-150 -465h-180l-317 1065h198l123 -459q55 -194 84 -381h9q48 216 98 379l143 461h189l143 -461q50 -163 98 -379h8q29 187 84 381l123 459h199l-317 -1065h-181l-149 465q-54 167 -99 375h-8z" />
    <glyph glyph-name="x" unicode="x" horiz-adv-x="1052" 
d="M528 707l250 358h230l-373 -508l403 -557h-237l-277 401l-280 -401h-230l404 551l-373 514h238z" />
    <glyph glyph-name="y" unicode="y" horiz-adv-x="1052" 
d="M434 0l-401 1065h209l172 -471q44 -115 108 -361h10q53 188 119 361l172 471h203l-432 -1165q-25 -67 -53.5 -113t-73 -83t-110.5 -55t-156 -18h-115v160h104q94 0 144 35t86 133z" />
    <glyph glyph-name="z" unicode="z" horiz-adv-x="1048" 
d="M977 164v-164h-901v164l633 737h-613v164h860v-164l-632 -737h653z" />
    <glyph glyph-name="braceleft" unicode="{" horiz-adv-x="714" 
d="M82 614q83 0 125.5 33t38.5 131l-21 338q-11 158 79 238t239 80h112v-164h-80q-81 0 -119 -35.5t-34 -118.5l20 -338q7 -110 -38 -171t-125 -75q177 -35 163 -245l-20 -338q-4 -83 34 -118.5t119 -35.5h80v-164h-112q-149 0 -239 79t-79 239l21 338q4 98 -38.5 131
t-125.5 33h-21v163h21z" />
    <glyph glyph-name="bar" unicode="|" horiz-adv-x="536" 
d="M170 1434h197v-1803h-197v1803z" />
    <glyph glyph-name="braceright" unicode="}" horiz-adv-x="714" 
d="M653 614v-163h-20q-38 0 -65.5 -6t-53 -22t-37.5 -50.5t-8 -85.5l20 -338q11 -160 -78.5 -239t-238.5 -79h-113v164h80q81 0 119.5 35.5t34.5 118.5l-21 338q-13 206 164 245q-83 14 -127 74.5t-37 171.5l21 338q4 83 -34.5 118.5t-119.5 35.5h-80v164h113
q148 0 238 -79.5t79 -238.5l-20 -338q-4 -51 8 -85.5t37.5 -50.5t53 -22t65.5 -6h20z" />
    <glyph glyph-name="asciitilde" unicode="~" horiz-adv-x="1269" 
d="M141 584q0 134 75.5 215.5t211.5 81.5q57 0 112.5 -18t99.5 -43.5t84.5 -51t80.5 -43.5t74 -18q112 0 112 143h154q0 -134 -75.5 -215.5t-211.5 -81.5q-57 0 -113.5 18t-100 43.5t-83.5 51t-80 43.5t-73 18q-113 0 -113 -143h-154z" />
    <glyph glyph-name="uni00A0" unicode="&#xa0;" horiz-adv-x="495" 
 />
    <glyph glyph-name="exclamdown" unicode="&#xa1;" horiz-adv-x="516" 
d="M381 788h-246v277h246v-277zM197 614h122l41 -460v-523h-204v523z" />
    <glyph glyph-name="cent" unicode="&#xa2;" horiz-adv-x="1179" 
d="M537 -25q-206 32 -328.5 185.5t-122.5 371.5q0 217 123 371.5t328 186.5v180h163v-178q161 -17 264 -101.5t146 -222.5h-209q-50 135 -201 158v-787q154 24 201 158h209q-43 -138 -146 -222.5t-264 -101.5v-178h-163v180zM283 532q0 -143 67.5 -251t186.5 -136v775
q-121 -31 -187.5 -138.5t-66.5 -249.5z" />
    <glyph glyph-name="sterling" unicode="&#xa3;" horiz-adv-x="1189" 
d="M633 1300q-123 0 -193.5 -71.5t-70.5 -194.5q0 -34 6 -68t13 -58.5t23 -60t25 -52t31 -56.5t29 -53h475v-164h-410q12 -50 12 -102q0 -170 -122 -256h665v-164h-1020v164q122 0 204.5 64t82.5 182q0 54 -21 112h-251v164h170q-36 66 -55.5 107t-38.5 111t-19 140
q0 129 65 226t169.5 145.5t230.5 48.5q101 0 182.5 -28t135 -77.5t86.5 -110.5t46 -132h-202q-11 78 -75 131t-173 53z" />
    <glyph glyph-name="currency" unicode="&#xa4;" horiz-adv-x="1302" 
d="M397 532q0 -115 73 -190.5t181 -75.5t181 75.5t73 190.5t-73 191t-181 76t-181 -76t-73 -191zM1102 532q0 -134 -78 -249l190 -191l-122 -123l-195 195q-110 -72 -246 -72q-135 0 -245 72l-195 -195l-123 123l191 191q-78 115 -78 249q0 135 78 250l-191 191l123 123
l195 -195q110 72 245 72q136 0 246 -72l195 195l122 -123l-190 -191q78 -115 78 -250z" />
    <glyph glyph-name="yen" unicode="&#xa5;" horiz-adv-x="1236" 
d="M639 809l322 625h219l-338 -625h225v-164h-313l-35 -61v-62h266v-164h-266v-358h-201v358h-266v164h266v62l-35 61h-313v164h225l-338 625h219l322 -625h41z" />
    <glyph glyph-name="brokenbar" unicode="&#xa6;" horiz-adv-x="536" 
d="M170 338h197v-707h-197v707zM170 1434h197v-707h-197v707z" />
    <glyph glyph-name="section" unicode="&#xa7;" horiz-adv-x="1255" 
d="M68 573q0 95 55 170t147 111q-120 98 -120 262q0 149 133 248.5t340 99.5q208 0 331 -92.5t142 -255.5h-199q-28 184 -274 184q-127 0 -202 -52t-75 -132q0 -37 12 -67.5t38 -52.5t53.5 -37.5t71.5 -29t77.5 -21t85.5 -17.5q60 -11 103 -20.5t99 -27t96 -37t81.5 -50
t67 -66.5t41.5 -87t16 -111q0 -96 -56 -171.5t-147 -111.5q121 -96 121 -260q0 -149 -133 -248.5t-340 -99.5q-208 0 -331 92.5t-142 255.5h198q28 -185 275 -185q127 0 201.5 52.5t74.5 132.5q0 37 -12 67.5t-38 52.5t-53.5 37.5t-71.5 29t-77.5 21t-85.5 17.5
q-67 11 -120 23.5t-114.5 33.5t-106.5 50.5t-83.5 69.5t-58.5 96.5t-20 125.5zM612 717q-142 31 -202 59q-67 -25 -106.5 -74t-39.5 -108q0 -28 6 -52.5t15 -43.5t26 -35t32.5 -27.5t41 -22.5t44.5 -17.5t50.5 -14t52 -11.5t56 -11t55.5 -11q136 -30 203 -59q67 25 106 73.5
t39 108.5q0 36 -9.5 65.5t-23.5 50t-39 37.5t-47.5 27.5t-59 21t-63 16t-69 14t-68.5 14.5z" />
    <glyph glyph-name="dieresis" unicode="&#xa8;" horiz-adv-x="839" 
d="M113 1434h196v-205h-196v205zM530 1434h197v-205h-197v205z" />
    <glyph glyph-name="copyright" unicode="&#xa9;" horiz-adv-x="1671" 
d="M1047 911q-13 46 -66.5 79.5t-134.5 33.5q-126 0 -206.5 -86t-80.5 -221q0 -133 79 -220t208 -87q164 0 205 122h166q-41 -125 -135.5 -190.5t-235.5 -65.5q-192 0 -316 124.5t-124 316.5t124 316t316 124q140 0 234.5 -64t136.5 -182h-170zM88 717q0 151 59.5 289
t160 238.5t239 160t289.5 59.5t289 -59.5t238.5 -160t160 -238.5t59.5 -289t-59.5 -289.5t-160 -239t-238.5 -160t-289 -59.5t-289.5 59.5t-239 160t-160 239t-59.5 289.5zM221 717q0 -125 48.5 -239t131 -196.5t196.5 -131t239 -48.5t239 48.5t196 131t130.5 196.5
t48.5 239q0 167 -82 308.5t-223.5 223.5t-308.5 82q-125 0 -239 -48.5t-196.5 -130.5t-131 -196t-48.5 -239z" />
    <glyph glyph-name="ordfeminine" unicode="&#xaa;" horiz-adv-x="960" 
d="M129 1219q50 235 348 235q159 0 253.5 -72t94.5 -225v-563h-153v104q-104 -125 -277 -125q-133 0 -220 67.5t-87 199.5q0 239 309 266l275 24v27q0 81 -44.5 124.5t-150.5 43.5q-164 0 -186 -106h-162zM399 702q116 0 194.5 71t78.5 190v47l-273 -27q-78 -8 -117.5 -42
t-39.5 -101q0 -62 42.5 -100t114.5 -38z" />
    <glyph glyph-name="guillemotleft" unicode="&#xab;" horiz-adv-x="1236" 
d="M649 184h-246l-348 348l348 349h246l-358 -349zM1120 184h-246l-348 348l348 349h246l-358 -349z" />
    <glyph glyph-name="logicalnot" unicode="&#xac;" horiz-adv-x="1243" 
d="M934 778h-819v164h983v-450h-164v286z" />
    <glyph glyph-name="uni00AD" unicode="&#xad;" horiz-adv-x="811" 
d="M129 614h553v-163h-553v163z" />
    <glyph glyph-name="registered" unicode="&#xae;" horiz-adv-x="1671" 
d="M88 717q0 151 59.5 289t160 238.5t239 160t289.5 59.5t289 -59.5t238.5 -160t160 -238.5t59.5 -289t-59.5 -289.5t-160 -239t-238.5 -160t-289 -59.5t-289.5 59.5t-239 160t-160 239t-59.5 289.5zM221 717q0 -125 48.5 -239t131 -196.5t196.5 -131t239 -48.5t239 48.5
t196 131t130.5 196.5t48.5 239q0 167 -82 308.5t-223.5 223.5t-308.5 82q-125 0 -239 -48.5t-196.5 -130.5t-131 -196t-48.5 -239zM672 625v-328h-154v840h430q123 0 194.5 -69.5t71.5 -186.5t-71.5 -186.5t-194.5 -69.5h-41l328 -328h-201l-321 328h-41zM938 758
q60 0 91.5 33.5t31.5 89.5t-31.5 89.5t-91.5 33.5h-266v-246h266z" />
    <glyph glyph-name="macron" unicode="&#xaf;" horiz-adv-x="880" 
d="M102 1403h676v-154h-676v154z" />
    <glyph glyph-name="degree" unicode="&#xb0;" horiz-adv-x="1036" 
d="M242 1034q0 -124 77 -205t199 -81t199.5 81t77.5 205t-77.5 205.5t-199.5 81.5t-199 -81.5t-77 -205.5zM958 1034q0 -181 -125 -305.5t-315 -124.5t-315 124.5t-125 305.5t125 305.5t315 124.5t315 -124.5t125 -305.5z" />
    <glyph glyph-name="plusminus" unicode="&#xb1;" horiz-adv-x="1200" 
d="M150 983h368v266h164v-266h369v-164h-369v-266h-164v266h-368v164zM150 348h901v-164h-901v164z" />
    <glyph glyph-name="twosuperior" unicode="&#xb2;" horiz-adv-x="722" 
d="M66 1434q8 93 81.5 159t204.5 66q130 0 208.5 -68.5t78.5 -177.5q0 -79 -35 -137t-108 -129l-226 -215h389v-133h-593v133l327 317q52 49 72 83.5t20 80.5q0 45 -32 79t-101 34q-60 0 -93 -24.5t-38 -67.5h-155z" />
    <glyph glyph-name="threesuperior" unicode="&#xb3;" horiz-adv-x="735" 
d="M209 1018q7 -42 40.5 -72.5t100.5 -30.5q82 0 123 35t41 92q0 129 -154 129h-71v123h71q66 0 100 32.5t34 84.5t-33 85.5t-101 33.5q-65 0 -95 -27.5t-36 -64.5h-155q8 97 84 161t202 64q130 0 208.5 -68.5t78.5 -177.5q0 -59 -31 -104t-81 -70q63 -24 98 -76.5
t35 -128.5q0 -117 -85.5 -186.5t-232.5 -69.5q-129 0 -209 69t-88 167h156z" />
    <glyph glyph-name="acute" unicode="&#xb4;" horiz-adv-x="552" 
d="M236 1434h266l-236 -236h-194z" />
    <glyph glyph-name="mu" unicode="&#xb5;" horiz-adv-x="1286" 
d="M918 82q-99 -113 -275 -113q-175 0 -274 113v-451h-197v1434h197v-666q0 -122 69.5 -194t204.5 -72q130 0 202.5 71t72.5 195v666h196v-1065h-196v82z" />
    <glyph glyph-name="paragraph" unicode="&#xb6;" horiz-adv-x="1333" 
d="M487 -369v983q-187 0 -308.5 114t-121.5 296t121.5 296t308.5 114h762v-164h-164v-1639h-196v1639h-205v-1639h-197z" />
    <glyph glyph-name="periodcentered" unicode="&#xb7;" horiz-adv-x="507" 
d="M131 676h246v-277h-246v277z" />
    <glyph glyph-name="cedilla" unicode="&#xb8;" horiz-adv-x="563" 
d="M266 -338q35 0 58.5 23.5t23.5 58.5t-23.5 58.5t-58.5 23.5q-34 0 -59 -25l-78 78l152 152h155l-121 -121q71 -4 113.5 -50t42.5 -116q0 -78 -60 -131t-145 -53q-73 0 -127.5 40.5t-66.5 102.5h129q15 -41 65 -41z" />
    <glyph glyph-name="onesuperior" unicode="&#xb9;" horiz-adv-x="540" 
d="M250 799v655l-205 -215v195l205 204h153v-839h-153z" />
    <glyph glyph-name="ordmasculine" unicode="&#xba;" horiz-adv-x="1003" 
d="M922 1014q0 -193 -115 -317t-305 -124t-305 124t-115 317t115 316.5t305 123.5t305 -123.5t115 -316.5zM236 1014q0 -57 15.5 -109.5t46.5 -98t83.5 -72.5t120.5 -27t120.5 27t83.5 72.5t46.5 98t15.5 109.5t-15.5 109.5t-46.5 98t-83.5 72.5t-120.5 27t-120.5 -27
t-83.5 -72.5t-46.5 -98t-15.5 -109.5z" />
    <glyph glyph-name="guillemotright" unicode="&#xbb;" horiz-adv-x="1236" 
d="M475 532l-358 349h245l349 -349l-349 -348h-245zM946 532l-358 349h246l348 -349l-348 -348h-246z" />
    <glyph glyph-name="onequarter" unicode="&#xbc;" horiz-adv-x="1519" 
d="M250 594v655l-205 -215v195l205 205h153v-840h-153zM1004 1434h172l-799 -1434h-172zM1182 840h164v-543h122v-133h-122v-164h-154v164h-389v133zM961 297h231v154q0 108 8 204h-8q-8 -14 -21.5 -39.5t-21.5 -40t-24 -39t-35 -51.5z" />
    <glyph glyph-name="onehalf" unicode="&#xbd;" horiz-adv-x="1560" 
d="M250 594v655l-205 -215v195l205 205h153v-840h-153zM1004 1434h172l-799 -1434h-172zM903 635q8 93 82 159t205 66q130 0 208.5 -68.5t78.5 -177.5q0 -79 -35.5 -137t-108.5 -129l-225 -215h389v-133h-594v133l328 318q52 50 72 84t20 79t-32 79t-101 34q-60 0 -93 -24.5
t-38 -67.5h-156z" />
    <glyph glyph-name="threequarters" unicode="&#xbe;" horiz-adv-x="1701" 
d="M205 809q7 -42 40.5 -72t100.5 -30q82 0 123 35t41 92q0 129 -154 129h-71v122h71q66 0 99.5 32.5t33.5 84.5t-32.5 85.5t-100.5 33.5q-65 0 -95 -27.5t-36 -64.5h-155q8 97 84 161t202 64q130 0 208.5 -68.5t78.5 -177.5q0 -59 -31.5 -104t-81.5 -70q63 -24 98.5 -76.5
t35.5 -128.5q0 -117 -85.5 -186.5t-232.5 -69.5q-129 0 -209 69t-88 167h156zM1186 1434h172l-799 -1434h-172zM1364 840h164v-543h123v-133h-123v-164h-154v164h-389v133zM1143 297h231v154q0 108 8 204h-8q-8 -14 -21.5 -39.5t-21.5 -40t-24 -39t-35 -51.5z" />
    <glyph glyph-name="questiondown" unicode="&#xbf;" horiz-adv-x="1003" 
d="M664 788h-246v277h246v-277zM950 -51q-8 -155 -128.5 -251.5t-311.5 -96.5q-105 0 -189.5 30.5t-138.5 82.5t-83 120t-29 146q0 73 21 132t54.5 98t73.5 73.5t80.5 66.5t74 66.5t54.5 85t21 112.5h184q0 -79 -20 -143t-51.5 -106.5t-69.5 -79t-76.5 -67.5t-70 -63.5
t-51.5 -76.5t-20 -98q0 -36 13 -70.5t39.5 -65.5t74 -50t109.5 -19q113 0 169.5 51t65.5 123h205z" />
    <glyph glyph-name="Agrave" unicode="&#xc0;" horiz-adv-x="1396" 
d="M1036 338h-676l-133 -338h-215l584 1434h205l583 -1434h-215zM694 1208q-84 -249 -133 -366l-131 -330h537l-131 330q-54 129 -134 366h-8zM862 1567h-194l-236 235h266z" />
    <glyph glyph-name="Aacute" unicode="&#xc1;" horiz-adv-x="1396" 
d="M1036 338h-676l-133 -338h-215l584 1434h205l583 -1434h-215zM694 1208q-84 -249 -133 -366l-131 -330h537l-131 330q-54 129 -134 366h-8zM698 1802h267l-236 -235h-194z" />
    <glyph glyph-name="Acircumflex" unicode="&#xc2;" horiz-adv-x="1396" 
d="M1036 338h-676l-133 -338h-215l584 1434h205l583 -1434h-215zM694 1208q-84 -249 -133 -366l-131 -330h537l-131 330q-54 129 -134 366h-8zM698 1700l-92 -133h-256l236 235h225l236 -235h-256z" />
    <glyph glyph-name="Atilde" unicode="&#xc3;" horiz-adv-x="1396" 
d="M1036 338h-676l-133 -338h-215l584 1434h205l583 -1434h-215zM694 1208q-84 -249 -133 -366l-131 -330h537l-131 330q-54 129 -134 366h-8zM319 1577q0 117 68.5 181.5t167.5 64.5q48 0 97.5 -21t82.5 -45.5t68.5 -45.5t58.5 -21q36 0 54 25.5t18 66.5h143
q0 -117 -68 -181.5t-167 -64.5q-48 0 -97.5 21t-82.5 45.5t-68.5 45.5t-58.5 21q-36 0 -54 -25.5t-18 -66.5h-144z" />
    <glyph glyph-name="Adieresis" unicode="&#xc4;" horiz-adv-x="1396" 
d="M1036 338h-676l-133 -338h-215l584 1434h205l583 -1434h-215zM694 1208q-84 -249 -133 -366l-131 -330h537l-131 330q-54 129 -134 366h-8zM391 1802h197v-205h-197v205zM809 1802h197v-205h-197v205z" />
    <glyph glyph-name="Aring" unicode="&#xc5;" horiz-adv-x="1396" 
d="M1036 338h-676l-133 -338h-215l580 1421q-73 27 -116.5 88t-43.5 140q0 106 75.5 175.5t190.5 69.5t191 -69.5t76 -175.5q0 -79 -43.5 -140t-116.5 -88l579 -1421h-215zM694 1208q-84 -249 -133 -366l-131 -330h537l-131 330q-54 129 -134 366h-8zM831 1649q0 57 -38 95
t-95 38t-95 -38t-38 -95t38 -95t95 -38t95 38t38 95z" />
    <glyph glyph-name="AE" unicode="&#xc6;" horiz-adv-x="2136" 
d="M2021 1434v-174h-757v-431h716v-174h-716v-481h757v-174h-962v338h-615l-225 -338h-246l963 1434h1085zM1051 1260q-9 -14 -49 -78.5t-82 -130.5t-93 -140l-266 -399h498v748h-8z" />
    <glyph glyph-name="Ccedilla" unicode="&#xc7;" horiz-adv-x="1464" 
d="M788 -338q35 0 58.5 23.5t23.5 58.5t-23.5 58.5t-58.5 23.5q-34 0 -59 -25l-78 78l92 92q-196 13 -344.5 112.5t-227.5 264t-79 369.5q0 214 86 383.5t248 266.5t373 97q222 0 372 -100.5t222 -278.5h-224q-108 205 -370 205q-99 0 -182 -31.5t-141 -85.5t-99 -127
t-60.5 -156t-19.5 -173q0 -113 31.5 -214.5t92 -182.5t158.5 -129t220 -48q288 0 383 236h221q-59 -168 -184 -273.5t-316 -130.5l-65 -65q71 -4 113 -50t42 -116q0 -78 -60 -131t-145 -53q-73 0 -127.5 40.5t-66.5 102.5h129q15 -41 65 -41z" />
    <glyph glyph-name="Egrave" unicode="&#xc8;" horiz-adv-x="1302" 
d="M184 1434h1004v-174h-799v-431h758v-174h-758v-481h799v-174h-1004v1434zM860 1567h-194l-236 235h266z" />
    <glyph glyph-name="Eacute" unicode="&#xc9;" horiz-adv-x="1302" 
d="M184 1434h1004v-174h-799v-431h758v-174h-758v-481h799v-174h-1004v1434zM676 1802h266l-235 -235h-195z" />
    <glyph glyph-name="Ecircumflex" unicode="&#xca;" horiz-adv-x="1302" 
d="M184 1434h1004v-174h-799v-431h758v-174h-758v-481h799v-174h-1004v1434zM686 1700l-92 -133h-256l235 235h226l235 -235h-256z" />
    <glyph glyph-name="Edieresis" unicode="&#xcb;" horiz-adv-x="1302" 
d="M184 1434h1004v-174h-799v-431h758v-174h-758v-481h799v-174h-1004v1434zM379 1802h196v-205h-196v205zM797 1802h196v-205h-196v205z" />
    <glyph glyph-name="Igrave" unicode="&#xcc;" horiz-adv-x="573" 
d="M184 0v1434h205v-1434h-205zM451 1567h-195l-236 235h267z" />
    <glyph glyph-name="Iacute" unicode="&#xcd;" horiz-adv-x="573" 
d="M184 0v1434h205v-1434h-205zM287 1802h266l-236 -235h-194z" />
    <glyph glyph-name="Icircumflex" unicode="&#xce;" horiz-adv-x="573" 
d="M184 0v1434h205v-1434h-205zM287 1700l-92 -133h-256l235 235h225l236 -235h-256z" />
    <glyph glyph-name="Idieresis" unicode="&#xcf;" horiz-adv-x="573" 
d="M184 0v1434h205v-1434h-205zM-20 1802h196v-205h-196v205zM397 1802h197v-205h-197v205z" />
    <glyph glyph-name="Eth" unicode="&#xd0;" horiz-adv-x="1523" 
d="M229 809v625h502q329 0 512.5 -189.5t183.5 -527.5q0 -340 -183 -528.5t-513 -188.5h-502v645h-204v164h204zM434 809h430v-164h-430v-471h277q250 0 381 143t131 400t-131 400t-381 143h-277v-451z" />
    <glyph glyph-name="Ntilde" unicode="&#xd1;" horiz-adv-x="1556" 
d="M664 711q-175 247 -277 426h-8q10 -131 10 -451v-686h-205v1434h215l494 -711q169 -240 276 -426h9q-11 144 -11 451v686h205v-1434h-215zM399 1577q0 117 68.5 181.5t167.5 64.5q48 0 97.5 -21t82.5 -45.5t68.5 -45.5t58.5 -21q36 0 54 25.5t18 66.5h143
q0 -117 -68 -181.5t-167 -64.5q-48 0 -98 21t-83 45.5t-68.5 45.5t-58.5 21q-36 0 -53.5 -25.5t-17.5 -66.5h-144z" />
    <glyph glyph-name="Ograve" unicode="&#xd2;" horiz-adv-x="1597" 
d="M92 717q0 213 88.5 383t250 267t368.5 97t368.5 -97t249.5 -267t88 -383q0 -160 -51.5 -298.5t-143.5 -237.5t-224 -155.5t-287 -56.5q-207 0 -368.5 96.5t-250 267t-88.5 384.5zM297 717q0 -112 33 -214.5t94.5 -183t158.5 -128.5t216 -48t216 48t158 128.5t94 183
t33 214.5t-33 214t-94 182.5t-158 128.5t-216 48t-216 -48t-158.5 -128.5t-94.5 -182.5t-33 -214zM973 1567h-195l-235 235h266z" />
    <glyph glyph-name="Oacute" unicode="&#xd3;" horiz-adv-x="1597" 
d="M92 717q0 213 88.5 383t250 267t368.5 97t368.5 -97t249.5 -267t88 -383q0 -160 -51.5 -298.5t-143.5 -237.5t-224 -155.5t-287 -56.5q-207 0 -368.5 96.5t-250 267t-88.5 384.5zM297 717q0 -112 33 -214.5t94.5 -183t158.5 -128.5t216 -48t216 48t158 128.5t94 183
t33 214.5t-33 214t-94 182.5t-158 128.5t-216 48t-216 -48t-158.5 -128.5t-94.5 -182.5t-33 -214zM788 1802h267l-236 -235h-194z" />
    <glyph glyph-name="Ocircumflex" unicode="&#xd4;" horiz-adv-x="1597" 
d="M92 717q0 213 88.5 383t250 267t368.5 97t368.5 -97t249.5 -267t88 -383q0 -160 -51.5 -298.5t-143.5 -237.5t-224 -155.5t-287 -56.5q-207 0 -368.5 96.5t-250 267t-88.5 384.5zM297 717q0 -112 33 -214.5t94.5 -183t158.5 -128.5t216 -48t216 48t158 128.5t94 183
t33 214.5t-33 214t-94 182.5t-158 128.5t-216 48t-216 -48t-158.5 -128.5t-94.5 -182.5t-33 -214zM799 1700l-92 -133h-256l235 235h225l236 -235h-256z" />
    <glyph glyph-name="Otilde" unicode="&#xd5;" horiz-adv-x="1597" 
d="M92 717q0 213 88.5 383t250 267t368.5 97t368.5 -97t249.5 -267t88 -383q0 -160 -51.5 -298.5t-143.5 -237.5t-224 -155.5t-287 -56.5q-207 0 -368.5 96.5t-250 267t-88.5 384.5zM297 717q0 -112 33 -214.5t94.5 -183t158.5 -128.5t216 -48t216 48t158 128.5t94 183
t33 214.5t-33 214t-94 182.5t-158 128.5t-216 48t-216 -48t-158.5 -128.5t-94.5 -182.5t-33 -214zM420 1577q0 117 68 181.5t167 64.5q48 0 98 -21t83 -45.5t68.5 -45.5t58.5 -21q36 0 53.5 25.5t17.5 66.5h144q0 -117 -68.5 -181.5t-167.5 -64.5q-48 0 -97.5 21t-82.5 45.5
t-68.5 45.5t-58.5 21q-36 0 -54 -25.5t-18 -66.5h-143z" />
    <glyph glyph-name="Odieresis" unicode="&#xd6;" horiz-adv-x="1597" 
d="M92 717q0 213 88.5 383t250 267t368.5 97t368.5 -97t249.5 -267t88 -383q0 -160 -51.5 -298.5t-143.5 -237.5t-224 -155.5t-287 -56.5q-207 0 -368.5 96.5t-250 267t-88.5 384.5zM297 717q0 -112 33 -214.5t94.5 -183t158.5 -128.5t216 -48t216 48t158 128.5t94 183
t33 214.5t-33 214t-94 182.5t-158 128.5t-216 48t-216 -48t-158.5 -128.5t-94.5 -182.5t-33 -214zM492 1802h196v-205h-196v205zM909 1802h197v-205h-197v205z" />
    <glyph glyph-name="multiply" unicode="&#xd7;" horiz-adv-x="1126" 
d="M1034 360l-114 -114l-357 356l-356 -356l-115 114l357 357l-357 356l115 115l356 -357l357 357l114 -115l-356 -356z" />
    <glyph glyph-name="Oslash" unicode="&#xd8;" horiz-adv-x="1605" 
d="M272 203q-176 200 -176 514q0 213 88.5 383t250 267t368.5 97q235 0 416 -129l106 129h205l-195 -235q174 -202 174 -512q0 -160 -51.5 -298.5t-143.5 -237.5t-224 -155.5t-287 -56.5q-236 0 -414 127l-108 -127h-205zM301 717q0 -207 100 -359l697 834q-124 98 -295 98
q-119 0 -216 -48t-158.5 -128.5t-94.5 -182.5t-33 -214zM1305 717q0 202 -99 358l-698 -835q132 -97 295 -97q119 0 216 48t158.5 128.5t94.5 183t33 214.5z" />
    <glyph glyph-name="Ugrave" unicode="&#xd9;" horiz-adv-x="1482" 
d="M741 -31q-263 0 -418 154t-155 389v922h205v-922q0 -170 99 -269.5t269 -99.5t269.5 99.5t99.5 269.5v922h205v-922q0 -235 -155.5 -389t-418.5 -154zM915 1567h-194l-236 235h267z" />
    <glyph glyph-name="Uacute" unicode="&#xda;" horiz-adv-x="1482" 
d="M741 -31q-263 0 -418 154t-155 389v922h205v-922q0 -170 99 -269.5t269 -99.5t269.5 99.5t99.5 269.5v922h205v-922q0 -235 -155.5 -389t-418.5 -154zM731 1802h266l-235 -235h-195z" />
    <glyph glyph-name="Ucircumflex" unicode="&#xdb;" horiz-adv-x="1482" 
d="M741 -31q-263 0 -418 154t-155 389v922h205v-922q0 -170 99 -269.5t269 -99.5t269.5 99.5t99.5 269.5v922h205v-922q0 -235 -155.5 -389t-418.5 -154zM741 1700l-92 -133h-256l236 235h225l236 -235h-256z" />
    <glyph glyph-name="Udieresis" unicode="&#xdc;" horiz-adv-x="1482" 
d="M741 -31q-263 0 -418 154t-155 389v922h205v-922q0 -170 99 -269.5t269 -99.5t269.5 99.5t99.5 269.5v922h205v-922q0 -235 -155.5 -389t-418.5 -154zM434 1802h197v-205h-197v205zM852 1802h197v-205h-197v205z" />
    <glyph glyph-name="Yacute" unicode="&#xdd;" horiz-adv-x="1220" 
d="M508 573l-481 861h229l354 -676l355 676h229l-481 -861v-573h-205v573zM600 1802h266l-235 -235h-195z" />
    <glyph glyph-name="Thorn" unicode="&#xde;" horiz-adv-x="1409" 
d="M389 328v-328h-205v1434h205v-287h481q217 0 339 -109t122 -301t-122 -300.5t-339 -108.5h-481zM870 502q128 0 192 61.5t64 173.5t-64.5 174t-191.5 62h-481v-471h481z" />
    <glyph glyph-name="germandbls" unicode="&#xdf;" horiz-adv-x="1236" 
d="M535 0v164h129q148 0 222.5 72t74.5 194q0 128 -72 202.5t-215 74.5h-113v153h72q110 0 167.5 63.5t57.5 161.5q0 37 -13 73t-40 69t-77 53t-116 20q-141 0 -203.5 -70t-62.5 -206v-1024h-196v1024q0 201 116 320.5t346 119.5q109 0 195.5 -30t139.5 -81.5t80.5 -116.5
t27.5 -140q0 -198 -176 -287q95 -25 159 -82.5t91.5 -132t27.5 -164.5q0 -190 -128 -310t-355 -120h-139z" />
    <glyph glyph-name="agrave" unicode="&#xe0;" horiz-adv-x="1171" 
d="M498 123q145 0 241.5 91t96.5 247v82l-349 -31q-215 -21 -215 -195q0 -101 62 -147.5t164 -46.5zM127 788q18 136 132.5 222t320.5 86q298 0 401 -174q51 -83 51 -215v-707h-196v133q-53 -70 -145.5 -117t-213.5 -47q-174 0 -287.5 89.5t-113.5 258.5q0 144 97.5 232.5
t293.5 105.5l369 31v21q0 115 -58 175t-198 60q-114 0 -178 -41.5t-72 -112.5h-203zM758 1198h-195l-235 236h266z" />
    <glyph glyph-name="aacute" unicode="&#xe1;" horiz-adv-x="1171" 
d="M498 123q145 0 241.5 91t96.5 247v82l-349 -31q-215 -21 -215 -195q0 -101 62 -147.5t164 -46.5zM127 788q18 136 132.5 222t320.5 86q298 0 401 -174q51 -83 51 -215v-707h-196v133q-53 -70 -145.5 -117t-213.5 -47q-174 0 -287.5 89.5t-113.5 258.5q0 144 97.5 232.5
t293.5 105.5l369 31v21q0 115 -58 175t-198 60q-114 0 -178 -41.5t-72 -112.5h-203zM563 1434h266l-235 -236h-195z" />
    <glyph glyph-name="acircumflex" unicode="&#xe2;" horiz-adv-x="1171" 
d="M498 123q145 0 241.5 91t96.5 247v82l-349 -31q-215 -21 -215 -195q0 -101 62 -147.5t164 -46.5zM127 788q18 136 132.5 222t320.5 86q298 0 401 -174q51 -83 51 -215v-707h-196v133q-53 -70 -145.5 -117t-213.5 -47q-174 0 -287.5 89.5t-113.5 258.5q0 144 97.5 232.5
t293.5 105.5l369 31v21q0 115 -58 175t-198 60q-114 0 -178 -41.5t-72 -112.5h-203zM580 1331l-93 -133h-256l236 236h225l236 -236h-256z" />
    <glyph glyph-name="atilde" unicode="&#xe3;" horiz-adv-x="1171" 
d="M498 123q145 0 241.5 91t96.5 247v82l-349 -31q-215 -21 -215 -195q0 -101 62 -147.5t164 -46.5zM127 788q18 136 132.5 222t320.5 86q298 0 401 -174q51 -83 51 -215v-707h-196v133q-53 -70 -145.5 -117t-213.5 -47q-174 0 -287.5 89.5t-113.5 258.5q0 144 97.5 232.5
t293.5 105.5l369 31v21q0 115 -58 175t-198 60q-114 0 -178 -41.5t-72 -112.5h-203zM201 1208q0 117 68 181.5t167 64.5q48 0 97.5 -21t82.5 -45.5t68.5 -45.5t58.5 -21q36 0 54 25.5t18 66.5h143q0 -117 -68 -181.5t-167 -64.5q-48 0 -97.5 21t-82.5 45.5t-68.5 45.5
t-58.5 21q-36 0 -54 -25.5t-18 -66.5h-143z" />
    <glyph glyph-name="adieresis" unicode="&#xe4;" horiz-adv-x="1171" 
d="M498 123q145 0 241.5 91t96.5 247v82l-349 -31q-215 -21 -215 -195q0 -101 62 -147.5t164 -46.5zM127 788q18 136 132.5 222t320.5 86q298 0 401 -174q51 -83 51 -215v-707h-196v133q-53 -70 -145.5 -117t-213.5 -47q-174 0 -287.5 89.5t-113.5 258.5q0 144 97.5 232.5
t293.5 105.5l369 31v21q0 115 -58 175t-198 60q-114 0 -178 -41.5t-72 -112.5h-203zM272 1434h197v-205h-197v205zM690 1434h197v-205h-197v205z" />
    <glyph glyph-name="aring" unicode="&#xe5;" horiz-adv-x="1171" 
d="M498 123q145 0 241.5 91t96.5 247v82l-349 -31q-215 -21 -215 -195q0 -101 62 -147.5t164 -46.5zM127 788q18 136 132.5 222t320.5 86q298 0 401 -174q51 -83 51 -215v-707h-196v133q-53 -70 -145.5 -117t-213.5 -47q-174 0 -287.5 89.5t-113.5 258.5q0 144 97.5 232.5
t293.5 105.5l369 31v21q0 115 -58 175t-198 60q-114 0 -178 -41.5t-72 -112.5h-203zM713 1403q0 57 -38 95t-95 38t-95.5 -38t-38.5 -95t38.5 -95t95.5 -38t95 38t38 95zM846 1403q0 -106 -75.5 -176t-190.5 -70t-191 70t-76 176t76 176t191 70t190.5 -70t75.5 -176z" />
    <glyph glyph-name="ae" unicode="&#xe6;" horiz-adv-x="1947" 
d="M498 123q145 0 241.5 91t96.5 247v82l-349 -31q-215 -21 -215 -195q0 -101 62 -147.5t164 -46.5zM1358 942q-146 0 -233.5 -95.5t-92.5 -232.5h641q-8 147 -87.5 237.5t-227.5 90.5zM1368 -31q-144 0 -256.5 60.5t-181.5 167.5q-145 -228 -443 -228q-180 0 -295.5 89.5
t-115.5 258.5q0 144 97.5 232.5t293.5 105.5l369 31v21q0 115 -58 175t-198 60q-114 0 -178 -41.5t-72 -112.5h-203q18 136 132.5 222t320.5 86q291 0 395 -168q145 168 383 168q185 0 304.5 -95t172.5 -262q35 -112 35 -258v-20h-838q5 -136 97.5 -237t238.5 -101
q62 0 112.5 16.5t82 43t50.5 55.5t25 59h211q-40 -140 -165.5 -234t-315.5 -94z" />
    <glyph glyph-name="ccedilla" unicode="&#xe7;" horiz-adv-x="1144" 
d="M606 -338q35 0 58.5 23.5t23.5 58.5t-23.5 58.5t-58.5 23.5q-34 0 -59 -25l-78 78l92 92q-223 20 -350 174.5t-127 386.5q0 161 61.5 287.5t183.5 201.5t287 75q174 0 289.5 -81.5t171.5 -226.5h-213q-68 144 -248 144q-86 0 -151.5 -32t-105 -88t-59 -126.5
t-19.5 -153.5t19.5 -153.5t59 -126.5t105 -87.5t151.5 -31.5q196 0 265 164h206q-82 -272 -364 -320l-68 -67q71 -4 113.5 -50t42.5 -116q0 -78 -60 -131t-145 -53q-73 0 -127.5 40.5t-66.5 102.5h129q15 -41 65 -41z" />
    <glyph glyph-name="egrave" unicode="&#xe8;" horiz-adv-x="1196" 
d="M1098 297q-40 -140 -165.5 -234t-316.5 -94q-241 0 -386.5 159.5t-145.5 403.5q0 159 63.5 287t183.5 202.5t275 74.5q185 0 304.5 -95t172.5 -262q35 -112 35 -258v-20h-837q5 -136 97 -237t238 -101q62 0 113 16.5t82.5 43t50.5 55.5t25 59h211zM606 942
q-146 0 -233 -95t-92 -233h641q-8 146 -88 237t-228 91zM780 1198h-194l-236 236h266z" />
    <glyph glyph-name="eacute" unicode="&#xe9;" horiz-adv-x="1196" 
d="M1098 297q-40 -140 -165.5 -234t-316.5 -94q-241 0 -386.5 159.5t-145.5 403.5q0 159 63.5 287t183.5 202.5t275 74.5q185 0 304.5 -95t172.5 -262q35 -112 35 -258v-20h-837q5 -136 97 -237t238 -101q62 0 113 16.5t82.5 43t50.5 55.5t25 59h211zM606 942
q-146 0 -233 -95t-92 -233h641q-8 146 -88 237t-228 91zM596 1434h266l-235 -236h-195z" />
    <glyph glyph-name="ecircumflex" unicode="&#xea;" horiz-adv-x="1196" 
d="M1098 297q-40 -140 -165.5 -234t-316.5 -94q-241 0 -386.5 159.5t-145.5 403.5q0 159 63.5 287t183.5 202.5t275 74.5q185 0 304.5 -95t172.5 -262q35 -112 35 -258v-20h-837q5 -136 97 -237t238 -101q62 0 113 16.5t82.5 43t50.5 55.5t25 59h211zM606 942
q-146 0 -233 -95t-92 -233h641q-8 146 -88 237t-228 91zM606 1331l-92 -133h-256l236 236h225l235 -236h-256z" />
    <glyph glyph-name="edieresis" unicode="&#xeb;" horiz-adv-x="1196" 
d="M1098 297q-40 -140 -165.5 -234t-316.5 -94q-241 0 -386.5 159.5t-145.5 403.5q0 159 63.5 287t183.5 202.5t275 74.5q185 0 304.5 -95t172.5 -262q35 -112 35 -258v-20h-837q5 -136 97 -237t238 -101q62 0 113 16.5t82.5 43t50.5 55.5t25 59h211zM606 942
q-146 0 -233 -95t-92 -233h641q-8 146 -88 237t-228 91zM299 1434h197v-205h-197v205zM717 1434h196v-205h-196v205z" />
    <glyph glyph-name="igrave" unicode="&#xec;" horiz-adv-x="495" 
d="M150 1065h196v-1065h-196v1065zM418 1198h-195l-235 236h266z" />
    <glyph glyph-name="iacute" unicode="&#xed;" horiz-adv-x="495" 
d="M150 1065h196v-1065h-196v1065zM242 1434h266l-236 -236h-194z" />
    <glyph glyph-name="icircumflex" unicode="&#xee;" horiz-adv-x="495" 
d="M150 1065h196v-1065h-196v1065zM248 1331l-92 -133h-256l235 236h225l236 -236h-256z" />
    <glyph glyph-name="idieresis" unicode="&#xef;" horiz-adv-x="495" 
d="M150 1065h196v-1065h-196v1065zM-59 1434h196v-205h-196v205zM358 1434h197v-205h-197v205z" />
    <glyph glyph-name="eth" unicode="&#xf0;" horiz-adv-x="1187" 
d="M762 1217l18 -19q79 -83 128 -145.5t97.5 -150t71.5 -191.5t23 -230q0 -144 -61 -259.5t-179 -184t-274 -68.5q-217 0 -360.5 145t-143.5 367q0 212 132 352t351 140q77 0 147.5 -27.5t118.5 -75.5q-8 14 -15.5 26t-18 25.5t-17 22.5t-21 25t-21.5 23.5t-27 28
t-28.5 29.5t-36.5 36.5t-40 39.5l-20 21l-369 -143v163l250 99l-168 168h256l94 -99l326 129v-164zM586 133q143 0 230 97.5t87 240.5q0 149 -86.5 243.5t-230.5 94.5q-148 0 -227.5 -95.5t-79.5 -242.5q0 -142 86 -240t221 -98z" />
    <glyph glyph-name="ntilde" unicode="&#xf1;" horiz-adv-x="1222" 
d="M346 922q53 85 145 129.5t203 44.5q187 0 288 -105t101 -305v-686h-196v666q0 133 -58.5 199.5t-185.5 66.5q-129 0 -213 -86.5t-84 -241.5v-604h-196v1065h196v-143zM238 1208q0 117 68 181.5t167 64.5q48 0 97.5 -21t82.5 -45.5t68.5 -45.5t58.5 -21q36 0 54 25.5
t18 66.5h143q0 -117 -68 -181.5t-167 -64.5q-48 0 -97.5 21t-82.5 45.5t-68.5 45.5t-58.5 21q-36 0 -54 -25.5t-18 -66.5h-143z" />
    <glyph glyph-name="ograve" unicode="&#xf2;" horiz-adv-x="1249" 
d="M82 532q0 243 150.5 403.5t392.5 160.5t392 -160.5t150 -403.5t-150 -403t-392 -160t-392.5 160t-150.5 403zM971 532q0 109 -39 199t-119 145.5t-188 55.5t-188 -55.5t-119 -145.5t-39 -199q0 -169 92.5 -284t253.5 -115t253.5 115t92.5 284zM799 1198h-195l-235 236
h266z" />
    <glyph glyph-name="oacute" unicode="&#xf3;" horiz-adv-x="1249" 
d="M82 532q0 243 150.5 403.5t392.5 160.5t392 -160.5t150 -403.5t-150 -403t-392 -160t-392.5 160t-150.5 403zM971 532q0 109 -39 199t-119 145.5t-188 55.5t-188 -55.5t-119 -145.5t-39 -199q0 -169 92.5 -284t253.5 -115t253.5 115t92.5 284zM614 1434h267l-236 -236
h-194z" />
    <glyph glyph-name="ocircumflex" unicode="&#xf4;" horiz-adv-x="1249" 
d="M82 532q0 243 150.5 403.5t392.5 160.5t392 -160.5t150 -403.5t-150 -403t-392 -160t-392.5 160t-150.5 403zM971 532q0 109 -39 199t-119 145.5t-188 55.5t-188 -55.5t-119 -145.5t-39 -199q0 -169 92.5 -284t253.5 -115t253.5 115t92.5 284zM625 1331l-93 -133h-256
l236 236h225l236 -236h-256z" />
    <glyph glyph-name="otilde" unicode="&#xf5;" horiz-adv-x="1249" 
d="M82 532q0 243 150.5 403.5t392.5 160.5t392 -160.5t150 -403.5t-150 -403t-392 -160t-392.5 160t-150.5 403zM971 532q0 109 -39 199t-119 145.5t-188 55.5t-188 -55.5t-119 -145.5t-39 -199q0 -169 92.5 -284t253.5 -115t253.5 115t92.5 284zM246 1208q0 117 68 181.5
t167 64.5q48 0 97.5 -21t82.5 -45.5t68.5 -45.5t58.5 -21q36 0 54 25.5t18 66.5h144q0 -117 -68.5 -181.5t-167.5 -64.5q-48 0 -97.5 21t-82.5 45.5t-68.5 45.5t-58.5 21q-36 0 -54 -25.5t-18 -66.5h-143z" />
    <glyph glyph-name="odieresis" unicode="&#xf6;" horiz-adv-x="1249" 
d="M82 532q0 243 150.5 403.5t392.5 160.5t392 -160.5t150 -403.5t-150 -403t-392 -160t-392.5 160t-150.5 403zM971 532q0 109 -39 199t-119 145.5t-188 55.5t-188 -55.5t-119 -145.5t-39 -199q0 -169 92.5 -284t253.5 -115t253.5 115t92.5 284zM317 1434h197v-205h-197
v205zM735 1434h197v-205h-197v205z" />
    <glyph glyph-name="divide" unicode="&#xf7;" horiz-adv-x="1175" 
d="M96 799h983v-164h-983v164zM465 1219h246v-256h-246v256zM465 471h246v-256h-246v256z" />
    <glyph glyph-name="oslash" unicode="&#xf8;" horiz-adv-x="1253" 
d="M84 532q0 243 150.5 403.5t392.5 160.5q178 0 307 -90l76 90h180l-152 -181q131 -153 131 -383q0 -243 -150 -403t-392 -160q-179 0 -308 90l-75 -90h-181l152 183q-131 156 -131 380zM973 532q0 132 -58 236l-483 -575q78 -60 195 -60q161 0 253.5 115t92.5 284z
M281 532q0 -139 57 -235l485 575q-85 60 -196 60q-108 0 -188 -55.5t-119 -145.5t-39 -199z" />
    <glyph glyph-name="ugrave" unicode="&#xf9;" horiz-adv-x="1212" 
d="M866 133q-45 -83 -134.5 -123.5t-203.5 -40.5q-187 0 -288 105t-101 305v686h197v-666q0 -133 58.5 -199.5t185.5 -66.5t206.5 85.5t79.5 242.5v604h197v-1065h-197v133zM774 1198h-194l-236 236h266z" />
    <glyph glyph-name="uacute" unicode="&#xfa;" horiz-adv-x="1212" 
d="M866 133q-45 -83 -134.5 -123.5t-203.5 -40.5q-187 0 -288 105t-101 305v686h197v-666q0 -133 58.5 -199.5t185.5 -66.5t206.5 85.5t79.5 242.5v604h197v-1065h-197v133zM592 1434h266l-235 -236h-195z" />
    <glyph glyph-name="ucircumflex" unicode="&#xfb;" horiz-adv-x="1212" 
d="M866 133q-45 -83 -134.5 -123.5t-203.5 -40.5q-187 0 -288 105t-101 305v686h197v-666q0 -133 58.5 -199.5t185.5 -66.5t206.5 85.5t79.5 242.5v604h197v-1065h-197v133zM600 1331l-92 -133h-256l235 236h226l235 -236h-256z" />
    <glyph glyph-name="udieresis" unicode="&#xfc;" horiz-adv-x="1212" 
d="M866 133q-45 -83 -134.5 -123.5t-203.5 -40.5q-187 0 -288 105t-101 305v686h197v-666q0 -133 58.5 -199.5t185.5 -66.5t206.5 85.5t79.5 242.5v604h197v-1065h-197v133zM293 1434h196v-205h-196v205zM711 1434h196v-205h-196v205z" />
    <glyph glyph-name="yacute" unicode="&#xfd;" horiz-adv-x="1052" 
d="M524 1434h267l-236 -236h-195zM434 0l-401 1065h209l172 -471q44 -115 108 -361h10q53 188 119 361l172 471h203l-432 -1165q-25 -67 -53.5 -113t-73 -83t-110.5 -55t-156 -18h-115v160h104q94 0 144 35t86 133z" />
    <glyph glyph-name="thorn" unicode="&#xfe;" horiz-adv-x="1273" 
d="M336 532q0 -110 36.5 -199t112 -144.5t179.5 -55.5q156 0 241.5 111.5t85.5 287.5q0 114 -36 203t-111.5 143t-179.5 54t-179.5 -56t-112 -145t-36.5 -199zM346 -369h-196v1803h196v-512q49 81 138.5 127.5t209.5 46.5q116 0 211 -45t156 -122.5t94 -179.5t33 -217
t-33 -216.5t-94 -179t-156 -122.5t-211 -45q-120 0 -209.5 46.5t-138.5 127.5v-512z" />
    <glyph glyph-name="ydieresis" unicode="&#xff;" horiz-adv-x="1052" 
d="M223 1434h197v-205h-197v205zM641 1434h197v-205h-197v205zM434 0l-401 1065h209l172 -471q44 -115 108 -361h10q53 188 119 361l172 471h203l-432 -1165q-25 -67 -53.5 -113t-73 -83t-110.5 -55t-156 -18h-115v160h104q94 0 144 35t86 133z" />
    <glyph glyph-name="Amacron" unicode="&#x100;" horiz-adv-x="1396" 
d="M1036 338h-676l-133 -338h-215l584 1434h205l583 -1434h-215zM694 1208q-84 -249 -133 -366l-131 -330h537l-131 330q-54 129 -134 366h-8zM360 1772h676v-154h-676v154z" />
    <glyph glyph-name="amacron" unicode="&#x101;" horiz-adv-x="1171" 
d="M498 123q145 0 241.5 91t96.5 247v82l-349 -31q-215 -21 -215 -195q0 -101 62 -147.5t164 -46.5zM127 788q18 136 132.5 222t320.5 86q298 0 401 -174q51 -83 51 -215v-707h-196v133q-53 -70 -145.5 -117t-213.5 -47q-174 0 -287.5 89.5t-113.5 258.5q0 144 97.5 232.5
t293.5 105.5l369 31v21q0 115 -58 175t-198 60q-114 0 -178 -41.5t-72 -112.5h-203zM242 1403h676v-154h-676v154z" />
    <glyph glyph-name="Abreve" unicode="&#x102;" horiz-adv-x="1396" 
d="M1036 338h-676l-133 -338h-215l584 1434h205l583 -1434h-215zM694 1208q-84 -249 -133 -366l-131 -330h537l-131 330q-54 129 -134 366h-8zM698 1546q-136 0 -223.5 79.5t-105.5 207.5h145q38 -133 184 -133q147 0 185 133h145q-18 -128 -106 -207.5t-224 -79.5z" />
    <glyph glyph-name="abreve" unicode="&#x103;" horiz-adv-x="1171" 
d="M498 123q145 0 241.5 91t96.5 247v82l-349 -31q-215 -21 -215 -195q0 -101 62 -147.5t164 -46.5zM127 788q18 136 132.5 222t320.5 86q298 0 401 -174q51 -83 51 -215v-707h-196v133q-53 -70 -145.5 -117t-213.5 -47q-174 0 -287.5 89.5t-113.5 258.5q0 144 97.5 232.5
t293.5 105.5l369 31v21q0 115 -58 175t-198 60q-114 0 -178 -41.5t-72 -112.5h-203zM580 1178q-136 0 -224 79t-106 207h145q38 -133 185 -133q146 0 184 133h145q-18 -128 -105.5 -207t-223.5 -79z" />
    <glyph glyph-name="Aogonek" unicode="&#x104;" horiz-adv-x="1396" 
d="M1313 -287q47 0 92 13l-55 -142q-43 -14 -99 -14q-101 0 -168 57t-67 148q0 152 151 229l-131 334h-676l-133 -338h-215l584 1434h205l583 -1434q-99 -54 -141.5 -100t-42.5 -97q0 -49 33.5 -69.5t79.5 -20.5zM694 1208q-84 -249 -133 -366l-131 -330h537l-131 330
q-54 129 -134 366h-8z" />
    <glyph glyph-name="aogonek" unicode="&#x105;" horiz-adv-x="1171" 
d="M498 123q145 0 241.5 91t96.5 247v82l-349 -31q-215 -21 -215 -195q0 -101 62 -147.5t164 -46.5zM580 1096q298 0 401 -174q51 -83 51 -215v-707q-99 -54 -141.5 -100t-42.5 -97q0 -49 33.5 -69.5t79.5 -20.5q47 0 92 13l-56 -142q-43 -14 -98 -14q-101 0 -168 57
t-67 148q0 157 172 239v119q-53 -70 -145.5 -117t-213.5 -47q-174 0 -287.5 89.5t-113.5 258.5q0 144 97.5 232.5t293.5 105.5l369 31v21q0 115 -58 175t-198 60q-114 0 -178 -41.5t-72 -112.5h-203q18 136 132.5 222t320.5 86z" />
    <glyph glyph-name="Cacute" unicode="&#x106;" horiz-adv-x="1464" 
d="M1403 379q-64 -189 -219 -299.5t-385 -110.5q-211 0 -373 97t-248 266.5t-86 384.5q0 214 86 383.5t248 266.5t373 97q222 0 372 -100.5t222 -278.5h-224q-108 205 -370 205q-99 0 -182 -31.5t-141 -85.5t-99 -127t-60.5 -156t-19.5 -173q0 -113 31.5 -214.5t92 -182.5
t158.5 -129t220 -48q288 0 383 236h221zM768 1802h266l-235 -235h-195z" />
    <glyph glyph-name="cacute" unicode="&#x107;" horiz-adv-x="1144" 
d="M1087 297q-46 -153 -166 -240.5t-305 -87.5q-165 0 -287 74.5t-183.5 201t-61.5 287.5t61.5 287.5t183.5 201.5t287 75q174 0 289.5 -81.5t171.5 -226.5h-213q-68 144 -248 144q-86 0 -151.5 -32t-105 -88t-59 -126.5t-19.5 -153.5t19.5 -153.5t59 -126.5t105 -87.5
t151.5 -31.5q196 0 265 164h206zM606 1434h266l-235 -236h-195z" />
    <glyph glyph-name="Ccircumflex" unicode="&#x108;" horiz-adv-x="1464" 
d="M1403 379q-64 -189 -219 -299.5t-385 -110.5q-211 0 -373 97t-248 266.5t-86 384.5q0 214 86 383.5t248 266.5t373 97q222 0 372 -100.5t222 -278.5h-224q-108 205 -370 205q-99 0 -182 -31.5t-141 -85.5t-99 -127t-60.5 -156t-19.5 -173q0 -113 31.5 -214.5t92 -182.5
t158.5 -129t220 -48q288 0 383 236h221zM788 1700l-92 -133h-256l236 235h225l236 -235h-256z" />
    <glyph glyph-name="ccircumflex" unicode="&#x109;" horiz-adv-x="1144" 
d="M1087 297q-46 -153 -166 -240.5t-305 -87.5q-165 0 -287 74.5t-183.5 201t-61.5 287.5t61.5 287.5t183.5 201.5t287 75q174 0 289.5 -81.5t171.5 -226.5h-213q-68 144 -248 144q-86 0 -151.5 -32t-105 -88t-59 -126.5t-19.5 -153.5t19.5 -153.5t59 -126.5t105 -87.5
t151.5 -31.5q196 0 265 164h206zM616 1331l-92 -133h-256l236 236h225l236 -236h-256z" />
    <glyph glyph-name="Cdotaccent" unicode="&#x10a;" horiz-adv-x="1464" 
d="M1403 379q-64 -189 -219 -299.5t-385 -110.5q-211 0 -373 97t-248 266.5t-86 384.5q0 214 86 383.5t248 266.5t373 97q222 0 372 -100.5t222 -278.5h-224q-108 205 -370 205q-99 0 -182 -31.5t-141 -85.5t-99 -127t-60.5 -156t-19.5 -173q0 -113 31.5 -214.5t92 -182.5
t158.5 -129t220 -48q288 0 383 236h221zM686 1802h197v-205h-197v205z" />
    <glyph glyph-name="cdotaccent" unicode="&#x10b;" horiz-adv-x="1144" 
d="M1087 297q-46 -153 -166 -240.5t-305 -87.5q-165 0 -287 74.5t-183.5 201t-61.5 287.5t61.5 287.5t183.5 201.5t287 75q174 0 289.5 -81.5t171.5 -226.5h-213q-68 144 -248 144q-86 0 -151.5 -32t-105 -88t-59 -126.5t-19.5 -153.5t19.5 -153.5t59 -126.5t105 -87.5
t151.5 -31.5q196 0 265 164h206zM508 1434h197v-205h-197v205z" />
    <glyph glyph-name="Ccaron" unicode="&#x10c;" horiz-adv-x="1464" 
d="M1403 379q-64 -189 -219 -299.5t-385 -110.5q-211 0 -373 97t-248 266.5t-86 384.5q0 214 86 383.5t248 266.5t373 97q222 0 372 -100.5t222 -278.5h-224q-108 205 -370 205q-99 0 -182 -31.5t-141 -85.5t-99 -127t-60.5 -156t-19.5 -173q0 -113 31.5 -214.5t92 -182.5
t158.5 -129t220 -48q288 0 383 236h221zM881 1802h256l-236 -235h-225l-236 235h256l92 -133z" />
    <glyph glyph-name="ccaron" unicode="&#x10d;" horiz-adv-x="1144" 
d="M1087 297q-46 -153 -166 -240.5t-305 -87.5q-165 0 -287 74.5t-183.5 201t-61.5 287.5t61.5 287.5t183.5 201.5t287 75q174 0 289.5 -81.5t171.5 -226.5h-213q-68 144 -248 144q-86 0 -151.5 -32t-105 -88t-59 -126.5t-19.5 -153.5t19.5 -153.5t59 -126.5t105 -87.5
t151.5 -31.5q196 0 265 164h206zM709 1434h256l-236 -236h-225l-236 236h256l92 -134z" />
    <glyph glyph-name="Dcaron" unicode="&#x10e;" horiz-adv-x="1478" 
d="M1382 717q0 -340 -183 -528.5t-513 -188.5h-502v1434h502q329 0 512.5 -189.5t183.5 -527.5zM389 174h277q250 0 381 143t131 400t-131 400t-381 143h-277v-1086zM809 1802h256l-236 -235h-225l-235 235h256l92 -133z" />
    <glyph glyph-name="dcaron" unicode="&#x10f;" horiz-adv-x="1370" 
d="M936 532q0 110 -36.5 199t-112 145t-179.5 56t-179.5 -54t-111.5 -143t-36 -203q0 -176 85.5 -287.5t241.5 -111.5q104 0 179.5 55.5t112 144.5t36.5 199zM926 143q-49 -81 -138.5 -127.5t-209.5 -46.5q-116 0 -211 45t-156 122.5t-94 179t-33 216.5t33 217t94 179.5
t156 122.5t211 45q120 0 209.5 -46.5t138.5 -127.5v512h196v-1434h-196v143zM1286 1434h205l-113 -379h-153z" />
    <glyph glyph-name="Dcroat" unicode="&#x110;" horiz-adv-x="1523" 
d="M229 809v625h502q329 0 512.5 -189.5t183.5 -527.5q0 -340 -183 -528.5t-513 -188.5h-502v645h-204v164h204zM434 809h430v-164h-430v-471h277q250 0 381 143t131 400t-131 400t-381 143h-277v-451z" />
    <glyph glyph-name="dcroat" unicode="&#x111;" horiz-adv-x="1202" 
d="M856 123q-40 -65 -126.5 -109.5t-190.5 -44.5q-112 0 -200.5 42t-142.5 112.5t-82 156.5t-28 181t28 181t82 156.5t142.5 112t200.5 41.5q104 0 190.5 -44t126.5 -109v286h-430v154h430v195h197v-195h143v-154h-143v-1085h-197v123zM866 461q0 140 -75.5 233.5
t-221.5 93.5q-139 0 -212.5 -93.5t-73.5 -233.5t73.5 -234t212.5 -94q98 0 167 46.5t99.5 119t30.5 162.5z" />
    <glyph glyph-name="Emacron" unicode="&#x112;" horiz-adv-x="1302" 
d="M184 1434h1004v-174h-799v-431h758v-174h-758v-481h799v-174h-1004v1434zM348 1772h676v-154h-676v154z" />
    <glyph glyph-name="emacron" unicode="&#x113;" horiz-adv-x="1196" 
d="M1098 297q-40 -140 -165.5 -234t-316.5 -94q-241 0 -386.5 159.5t-145.5 403.5q0 159 63.5 287t183.5 202.5t275 74.5q185 0 304.5 -95t172.5 -262q35 -112 35 -258v-20h-837q5 -136 97 -237t238 -101q62 0 113 16.5t82.5 43t50.5 55.5t25 59h211zM606 942
q-146 0 -233 -95t-92 -233h641q-8 146 -88 237t-228 91zM268 1403h676v-154h-676v154z" />
    <glyph glyph-name="Ebreve" unicode="&#x114;" horiz-adv-x="1302" 
d="M184 1434h1004v-174h-799v-431h758v-174h-758v-481h799v-174h-1004v1434zM686 1546q-136 0 -224 79.5t-106 207.5h146q38 -133 184 -133t184 133h146q-18 -128 -106 -207.5t-224 -79.5z" />
    <glyph glyph-name="ebreve" unicode="&#x115;" horiz-adv-x="1196" 
d="M1098 297q-40 -140 -165.5 -234t-316.5 -94q-241 0 -386.5 159.5t-145.5 403.5q0 159 63.5 287t183.5 202.5t275 74.5q185 0 304.5 -95t172.5 -262q35 -112 35 -258v-20h-837q5 -136 97 -237t238 -101q62 0 113 16.5t82.5 43t50.5 55.5t25 59h211zM606 942
q-146 0 -233 -95t-92 -233h641q-8 146 -88 237t-228 91zM606 1178q-136 0 -224 79t-106 207h146q38 -133 184 -133q147 0 185 133h145q-18 -128 -106 -207t-224 -79z" />
    <glyph glyph-name="Edotaccent" unicode="&#x116;" horiz-adv-x="1302" 
d="M184 1434h1004v-174h-799v-431h758v-174h-758v-481h799v-174h-1004v1434zM588 1802h196v-205h-196v205z" />
    <glyph glyph-name="edotaccent" unicode="&#x117;" horiz-adv-x="1196" 
d="M1098 297q-40 -140 -165.5 -234t-316.5 -94q-241 0 -386.5 159.5t-145.5 403.5q0 159 63.5 287t183.5 202.5t275 74.5q185 0 304.5 -95t172.5 -262q35 -112 35 -258v-20h-837q5 -136 97 -237t238 -101q62 0 113 16.5t82.5 43t50.5 55.5t25 59h211zM606 942
q-146 0 -233 -95t-92 -233h641q-8 146 -88 237t-228 91zM508 1434h197v-205h-197v205z" />
    <glyph glyph-name="Eogonek" unicode="&#x118;" horiz-adv-x="1302" 
d="M184 1434h1004v-174h-799v-431h758v-174h-758v-481h799v-174q-99 -54 -141.5 -100t-42.5 -97q0 -49 33 -69.5t79 -20.5t92 13l-55 -142q-43 -14 -98 -14q-101 0 -168.5 57t-67.5 148q0 145 144 225h-779v1434z" />
    <glyph glyph-name="eogonek" unicode="&#x119;" horiz-adv-x="1196" 
d="M606 942q-146 0 -233 -95t-92 -233h641q-8 146 -88 237t-228 91zM666 -29q-23 -2 -50 -2q-241 0 -386.5 159.5t-145.5 403.5q0 159 63.5 287t183.5 202.5t275 74.5q185 0 304.5 -95t172.5 -262q35 -112 35 -258v-20h-837q5 -136 97 -237t238 -101q62 0 113 16.5t82.5 43
t50.5 55.5t25 59h211q-20 -73 -63.5 -137t-90.5 -108t-91.5 -83.5t-73.5 -81.5t-29 -84q0 -49 33 -69.5t79 -20.5t92 13l-55 -142q-43 -14 -98 -14q-101 0 -168.5 57t-67.5 148q0 120 101 196z" />
    <glyph glyph-name="Ecaron" unicode="&#x11a;" horiz-adv-x="1302" 
d="M184 1434h1004v-174h-799v-431h758v-174h-758v-481h799v-174h-1004v1434zM778 1802h256l-235 -235h-226l-235 235h256l92 -133z" />
    <glyph glyph-name="ecaron" unicode="&#x11b;" horiz-adv-x="1196" 
d="M1098 297q-40 -140 -165.5 -234t-316.5 -94q-241 0 -386.5 159.5t-145.5 403.5q0 159 63.5 287t183.5 202.5t275 74.5q185 0 304.5 -95t172.5 -262q35 -112 35 -258v-20h-837q5 -136 97 -237t238 -101q62 0 113 16.5t82.5 43t50.5 55.5t25 59h211zM606 942
q-146 0 -233 -95t-92 -233h641q-8 146 -88 237t-228 91zM698 1434h256l-235 -236h-225l-236 236h256l92 -134z" />
    <glyph glyph-name="Gcircumflex" unicode="&#x11c;" horiz-adv-x="1540" 
d="M788 1700l-92 -133h-256l236 235h225l236 -235h-256zM799 1290q-99 0 -182 -31.5t-141 -85.5t-99 -127t-60.5 -156t-19.5 -173q0 -113 31.5 -214.5t92 -182.5t158.5 -129t220 -48q114 0 200 39.5t134.5 105t72 140.5t23.5 156h-451v174h645v-758h-153l-21 174
q-62 -89 -173 -147t-277 -58q-211 0 -373 97t-248 266.5t-86 384.5q0 214 86 383.5t248 266.5t373 97q222 0 372 -100.5t222 -278.5h-224q-108 205 -370 205z" />
    <glyph glyph-name="gcircumflex" unicode="&#x11d;" horiz-adv-x="1261" 
d="M926 553q0 160 -89.5 269.5t-238.5 109.5q-142 0 -229.5 -110t-87.5 -269t87.5 -269t229.5 -110q149 0 238.5 109.5t89.5 269.5zM915 164q-44 -60 -128.5 -107t-208.5 -47q-147 0 -260.5 74t-173.5 197t-60 272t60 272t173.5 197t260.5 74q124 0 209 -47.5t128 -106.5
v123h197v-952q0 -248 -133.5 -380t-370.5 -132q-176 0 -299.5 84t-152.5 223h204q13 -62 78 -108t170 -46q307 0 307 359v51zM618 1331l-92 -133h-256l236 236h225l236 -236h-256z" />
    <glyph glyph-name="Gbreve" unicode="&#x11e;" horiz-adv-x="1540" 
d="M788 1546q-136 0 -223.5 79.5t-105.5 207.5h145q38 -133 184 -133q147 0 185 133h145q-18 -128 -106 -207.5t-224 -79.5zM799 1290q-99 0 -182 -31.5t-141 -85.5t-99 -127t-60.5 -156t-19.5 -173q0 -113 31.5 -214.5t92 -182.5t158.5 -129t220 -48q114 0 200 39.5
t134.5 105t72 140.5t23.5 156h-451v174h645v-758h-153l-21 174q-62 -89 -173 -147t-277 -58q-211 0 -373 97t-248 266.5t-86 384.5q0 214 86 383.5t248 266.5t373 97q222 0 372 -100.5t222 -278.5h-224q-108 205 -370 205z" />
    <glyph glyph-name="gbreve" unicode="&#x11f;" horiz-adv-x="1261" 
d="M926 553q0 160 -89.5 269.5t-238.5 109.5q-142 0 -229.5 -110t-87.5 -269t87.5 -269t229.5 -110q149 0 238.5 109.5t89.5 269.5zM915 164q-44 -60 -128.5 -107t-208.5 -47q-147 0 -260.5 74t-173.5 197t-60 272t60 272t173.5 197t260.5 74q124 0 209 -47.5t128 -106.5
v123h197v-952q0 -248 -133.5 -380t-370.5 -132q-176 0 -299.5 84t-152.5 223h204q13 -62 78 -108t170 -46q307 0 307 359v51zM618 1178q-136 0 -223.5 79t-105.5 207h145q38 -133 184 -133q147 0 185 133h145q-18 -128 -106 -207t-224 -79z" />
    <glyph glyph-name="Gdotaccent" unicode="&#x120;" horiz-adv-x="1540" 
d="M690 1802h197v-205h-197v205zM799 1290q-99 0 -182 -31.5t-141 -85.5t-99 -127t-60.5 -156t-19.5 -173q0 -113 31.5 -214.5t92 -182.5t158.5 -129t220 -48q114 0 200 39.5t134.5 105t72 140.5t23.5 156h-451v174h645v-758h-153l-21 174q-62 -89 -173 -147t-277 -58
q-211 0 -373 97t-248 266.5t-86 384.5q0 214 86 383.5t248 266.5t373 97q222 0 372 -100.5t222 -278.5h-224q-108 205 -370 205z" />
    <glyph glyph-name="gdotaccent" unicode="&#x121;" horiz-adv-x="1261" 
d="M926 553q0 160 -89.5 269.5t-238.5 109.5q-142 0 -229.5 -110t-87.5 -269t87.5 -269t229.5 -110q149 0 238.5 109.5t89.5 269.5zM915 164q-44 -60 -128.5 -107t-208.5 -47q-147 0 -260.5 74t-173.5 197t-60 272t60 272t173.5 197t260.5 74q124 0 209 -47.5t128 -106.5
v123h197v-952q0 -248 -133.5 -380t-370.5 -132q-176 0 -299.5 84t-152.5 223h204q13 -62 78 -108t170 -46q307 0 307 359v51zM516 1434h197v-205h-197v205z" />
    <glyph glyph-name="uni0122" unicode="&#x122;" horiz-adv-x="1540" 
d="M696 -113h197v-204l-133 -205h-74l92 205h-82v204zM799 1290q-99 0 -182 -31.5t-141 -85.5t-99 -127t-60.5 -156t-19.5 -173q0 -113 31.5 -214.5t92 -182.5t158.5 -129t220 -48q114 0 200 39.5t134.5 105t72 140.5t23.5 156h-451v174h645v-758h-153l-21 174
q-62 -89 -173 -147t-277 -58q-211 0 -373 97t-248 266.5t-86 384.5q0 214 86 383.5t248 266.5t373 97q222 0 372 -100.5t222 -278.5h-224q-108 205 -370 205z" />
    <glyph glyph-name="uni0123" unicode="&#x123;" horiz-adv-x="1261" 
d="M926 553q0 160 -89.5 269.5t-238.5 109.5q-142 0 -229.5 -110t-87.5 -269t87.5 -269t229.5 -110q149 0 238.5 109.5t89.5 269.5zM915 164q-44 -60 -128.5 -107t-208.5 -47q-147 0 -260.5 74t-173.5 197t-60 272t60 272t173.5 197t260.5 74q124 0 209 -47.5t128 -106.5
v123h197v-952q0 -248 -133.5 -380t-370.5 -132q-176 0 -299.5 84t-152.5 223h204q13 -62 78 -108t170 -46q307 0 307 359v51zM721 1198h-197v205l133 205h74l-92 -205h82v-205z" />
    <glyph glyph-name="Hcircumflex" unicode="&#x124;" horiz-adv-x="1536" 
d="M1352 0h-205v655h-758v-655h-205v1434h205v-605h758v605h205v-1434zM768 1700l-92 -133h-256l235 235h226l235 -235h-256z" />
    <glyph glyph-name="hcircumflex" unicode="&#x125;" horiz-adv-x="1224" 
d="M346 922q53 85 145 129.5t203 44.5q187 0 289 -105t102 -305v-686h-196v666q0 133 -59 199.5t-187 66.5q-129 0 -213 -86.5t-84 -241.5v-604h-196v1434h196v-512zM250 1700l-92 -133h-256l235 235h225l236 -235h-256z" />
    <glyph glyph-name="Hbar" unicode="&#x126;" horiz-adv-x="1560" 
d="M43 1208h154v226h204v-226h758v226h205v-226h154v-164h-154v-1044h-205v655h-758v-655h-204v1044h-154v164zM1159 829v215h-758v-215h758z" />
    <glyph glyph-name="hbar" unicode="&#x127;" horiz-adv-x="1234" 
d="M358 1239h428v-154h-428v-307q53 84 145.5 129t203.5 45q188 0 289.5 -105t101.5 -304v-543h-197v522q0 133 -59 199.5t-187 66.5q-129 0 -213 -86t-84 -241v-461h-196v1085h-144v154h144v195h196v-195z" />
    <glyph glyph-name="Itilde" unicode="&#x128;" horiz-adv-x="573" 
d="M184 0v1434h205v-1434h-205zM-92 1577q0 117 68 181.5t167 64.5q48 0 98 -21t83 -45.5t68.5 -45.5t58.5 -21q36 0 53.5 25.5t17.5 66.5h144q0 -117 -68.5 -181.5t-167.5 -64.5q-48 0 -97.5 21t-82.5 45.5t-68.5 45.5t-58.5 21q-36 0 -54 -25.5t-18 -66.5h-143z" />
    <glyph glyph-name="itilde" unicode="&#x129;" horiz-adv-x="495" 
d="M150 1065h196v-1065h-196v1065zM-131 1208q0 117 68 181.5t167 64.5q48 0 98 -21t83 -45.5t68.5 -45.5t58.5 -21q36 0 53.5 25.5t17.5 66.5h144q0 -117 -68.5 -181.5t-167.5 -64.5q-48 0 -97.5 21t-82.5 45.5t-68.5 45.5t-58.5 21q-36 0 -54 -25.5t-18 -66.5h-143z" />
    <glyph glyph-name="Imacron" unicode="&#x12a;" horiz-adv-x="573" 
d="M184 0v1434h205v-1434h-205zM-51 1772h676v-154h-676v154z" />
    <glyph glyph-name="imacron" unicode="&#x12b;" horiz-adv-x="495" 
d="M150 1065h196v-1065h-196v1065zM-90 1403h676v-154h-676v154z" />
    <glyph glyph-name="Ibreve" unicode="&#x12c;" horiz-adv-x="573" 
d="M184 0v1434h205v-1434h-205zM287 1546q-136 0 -224 79.5t-106 207.5h145q38 -133 185 -133q146 0 184 133h145q-18 -128 -105.5 -207.5t-223.5 -79.5z" />
    <glyph glyph-name="ibreve" unicode="&#x12d;" horiz-adv-x="495" 
d="M150 1065h196v-1065h-196v1065zM248 1178q-136 0 -224 79t-106 207h145q38 -133 185 -133q146 0 184 133h146q-18 -128 -106 -207t-224 -79z" />
    <glyph glyph-name="Iogonek" unicode="&#x12e;" horiz-adv-x="573" 
d="M317 -287q47 0 93 13l-56 -142q-43 -14 -98 -14q-101 0 -168.5 57t-67.5 148q0 153 164 235v1424h205v-1434q-99 -54 -141.5 -100t-42.5 -97q0 -49 33 -69.5t79 -20.5z" />
    <glyph glyph-name="iogonek" unicode="&#x12f;" horiz-adv-x="495" 
d="M274 -287q48 0 93 13l-56 -142q-43 -14 -98 -14q-101 0 -168.5 57t-67.5 148q0 151 173 239v1051h196v-1065q-99 -54 -141.5 -100t-42.5 -97q0 -49 33 -69.5t79 -20.5zM150 1434h196v-205h-196v205z" />
    <glyph glyph-name="Idotaccent" unicode="&#x130;" horiz-adv-x="573" 
d="M184 0v1434h205v-1434h-205zM190 1802h197v-205h-197v205z" />
    <glyph glyph-name="dotlessi" unicode="&#x131;" horiz-adv-x="495" 
d="M150 1065h196v-1065h-196v1065z" />
    <glyph glyph-name="IJ" unicode="&#x132;" horiz-adv-x="1318" 
d="M686 0q142 0 199 66t57 210v1158h205v-1158q0 -450 -461 -450h-119v174h119zM184 0v1434h205v-1434h-205z" />
    <glyph glyph-name="ij" unicode="&#x133;" horiz-adv-x="976" 
d="M150 1065h196v-1065h-196v1065zM150 1434h194v-205h-194v205zM631 1434h196v-205h-196v205zM631 1065h196v-1157q0 -138 -79.5 -207.5t-229.5 -69.5h-172v160h162q68 0 95.5 27t27.5 90v1157z" />
    <glyph glyph-name="Jcircumflex" unicode="&#x134;" horiz-adv-x="952" 
d="M680 1700l-92 -133h-256l235 235h226l235 -235h-256zM322 174q142 0 199 66t57 211v983h204v-983q0 -451 -460 -451h-273v174h273z" />
    <glyph glyph-name="jcircumflex" unicode="&#x135;" horiz-adv-x="503" 
d="M256 1331l-92 -133h-256l235 236h226l235 -236h-256zM158 1065h196v-1157q0 -138 -79.5 -207.5t-229.5 -69.5h-92v160h82q68 0 95.5 27t27.5 90v1157z" />
    <glyph glyph-name="uni0136" unicode="&#x136;" horiz-adv-x="1300" 
d="M184 0v1434h205v-635l625 635h256l-697 -697l738 -737h-277l-645 666v-666h-205zM604 -113h197v-204l-133 -205h-74l92 205h-82v204z" />
    <glyph glyph-name="uni0137" unicode="&#x137;" horiz-adv-x="1067" 
d="M150 1434h196v-824l445 455h253l-512 -512l553 -553h-268l-471 492v-492h-196v1434zM463 -113h196v-204l-133 -205h-73l92 205h-82v204z" />
    <glyph glyph-name="kgreenlandic" unicode="&#x138;" horiz-adv-x="1067" 
d="M150 1065h196v-455l445 455h253l-512 -512l553 -553h-268l-471 492v-492h-196v1065z" />
    <glyph glyph-name="Lacute" unicode="&#x139;" horiz-adv-x="1177" 
d="M184 1434h205v-1260h758v-174h-963v1434zM287 1802h266l-236 -235h-194z" />
    <glyph glyph-name="lacute" unicode="&#x13a;" horiz-adv-x="495" 
d="M150 1434h196v-1434h-196v1434zM262 1802h266l-235 -235h-195z" />
    <glyph glyph-name="uni013B" unicode="&#x13b;" horiz-adv-x="1177" 
d="M184 1434h205v-1260h758v-174h-963v1434zM573 -113h197v-204l-133 -205h-74l92 205h-82v204z" />
    <glyph glyph-name="uni013C" unicode="&#x13c;" horiz-adv-x="495" 
d="M150 1434h196v-1434h-196v1434zM150 -113h196v-204l-133 -205h-74l92 205h-81v204z" />
    <glyph glyph-name="Lcaron" unicode="&#x13d;" horiz-adv-x="1177" 
d="M184 1434h205v-1260h758v-174h-963v1434zM645 1434h205l-113 -379h-153z" />
    <glyph glyph-name="lcaron" unicode="&#x13e;" horiz-adv-x="593" 
d="M150 1434h196v-1434h-196v1434zM510 1434h205l-113 -379h-153z" />
    <glyph glyph-name="Ldot" unicode="&#x13f;" horiz-adv-x="1179" 
d="M184 1434h205v-1260h758v-174h-963v1434zM782 842h197v-205h-197v205z" />
    <glyph glyph-name="ldot" unicode="&#x140;" horiz-adv-x="708" 
d="M150 1434h196v-1434h-196v1434zM504 821h196v-205h-196v205z" />
    <glyph glyph-name="Lslash" unicode="&#x141;" horiz-adv-x="1247" 
d="M254 692v742h205v-605l368 246v-215l-368 -246v-440h758v-174h-963v477l-195 -129v215z" />
    <glyph glyph-name="lslash" unicode="&#x142;" horiz-adv-x="753" 
d="M266 782v652h197v-521l244 162v-215l-244 -162v-698h-197v567l-205 -137v215z" />
    <glyph glyph-name="Nacute" unicode="&#x143;" horiz-adv-x="1556" 
d="M664 711q-175 247 -277 426h-8q10 -131 10 -451v-686h-205v1434h215l494 -711q169 -240 276 -426h9q-11 144 -11 451v686h205v-1434h-215zM768 1802h266l-235 -235h-195z" />
    <glyph glyph-name="nacute" unicode="&#x144;" horiz-adv-x="1222" 
d="M346 922q53 85 145 129.5t203 44.5q187 0 288 -105t101 -305v-686h-196v666q0 133 -58.5 199.5t-185.5 66.5q-129 0 -213 -86.5t-84 -241.5v-604h-196v1065h196v-143zM610 1434h267l-236 -236h-195z" />
    <glyph glyph-name="uni0145" unicode="&#x145;" horiz-adv-x="1556" 
d="M664 711q-175 247 -277 426h-8q10 -131 10 -451v-686h-205v1434h215l494 -711q169 -240 276 -426h9q-11 144 -11 451v686h205v-1434h-215zM682 -113h197v-204l-134 -205h-73l92 205h-82v204z" />
    <glyph glyph-name="uni0146" unicode="&#x146;" horiz-adv-x="1222" 
d="M346 922q53 85 145 129.5t203 44.5q187 0 288 -105t101 -305v-686h-196v666q0 133 -58.5 199.5t-185.5 66.5q-129 0 -213 -86.5t-84 -241.5v-604h-196v1065h196v-143zM518 -113h197v-204l-133 -205h-74l92 205h-82v204z" />
    <glyph glyph-name="Ncaron" unicode="&#x147;" horiz-adv-x="1556" 
d="M664 711q-175 247 -277 426h-8q10 -131 10 -451v-686h-205v1434h215l494 -711q169 -240 276 -426h9q-11 144 -11 451v686h205v-1434h-215zM870 1802h256l-235 -235h-225l-236 235h256l92 -133z" />
    <glyph glyph-name="ncaron" unicode="&#x148;" horiz-adv-x="1222" 
d="M346 922q53 85 145 129.5t203 44.5q187 0 288 -105t101 -305v-686h-196v666q0 133 -58.5 199.5t-185.5 66.5q-129 0 -213 -86.5t-84 -241.5v-604h-196v1065h196v-143zM709 1434h256l-236 -236h-225l-236 236h256l92 -134z" />
    <glyph glyph-name="napostrophe" unicode="&#x149;" horiz-adv-x="1339" 
d="M463 922q53 85 145 129.5t203 44.5q187 0 288 -105t101 -305v-686h-196v666q0 133 -58.5 199.5t-185.5 66.5q-129 0 -213 -86.5t-84 -241.5v-604h-197v1065h197v-143zM70 1434h196v-205l-133 -205h-74l93 205h-82v205z" />
    <glyph glyph-name="Eng" unicode="&#x14a;" horiz-adv-x="1556" 
d="M895 739q139 -197 274 -422h9q-11 144 -11 451v666h205v-1465q0 -193 -97.5 -275.5t-291.5 -82.5h-190v174h190q107 0 145.5 38.5t38.5 145.5v31l-505 725q-160 226 -275 422h-8q10 -218 10 -451v-696h-205v1434h226z" />
    <glyph glyph-name="eng" unicode="&#x14b;" horiz-adv-x="1222" 
d="M887 666q0 133 -58.5 199.5t-185.5 66.5q-129 0 -213 -86.5t-84 -241.5v-604h-196v1065h196v-143q53 85 145 129.5t203 44.5q187 0 288 -105t101 -305v-778q0 -138 -79.5 -207.5t-229.5 -69.5h-92v160h82q68 0 95.5 27t27.5 90v758z" />
    <glyph glyph-name="Omacron" unicode="&#x14c;" horiz-adv-x="1597" 
d="M92 717q0 213 88.5 383t250 267t368.5 97t368.5 -97t249.5 -267t88 -383q0 -160 -51.5 -298.5t-143.5 -237.5t-224 -155.5t-287 -56.5q-207 0 -368.5 96.5t-250 267t-88.5 384.5zM297 717q0 -112 33 -214.5t94.5 -183t158.5 -128.5t216 -48t216 48t158 128.5t94 183
t33 214.5t-33 214t-94 182.5t-158 128.5t-216 48t-216 -48t-158.5 -128.5t-94.5 -182.5t-33 -214zM461 1772h676v-154h-676v154z" />
    <glyph glyph-name="omacron" unicode="&#x14d;" horiz-adv-x="1249" 
d="M82 532q0 243 150.5 403.5t392.5 160.5t392 -160.5t150 -403.5t-150 -403t-392 -160t-392.5 160t-150.5 403zM971 532q0 109 -39 199t-119 145.5t-188 55.5t-188 -55.5t-119 -145.5t-39 -199q0 -169 92.5 -284t253.5 -115t253.5 115t92.5 284zM287 1403h676v-154h-676
v154z" />
    <glyph glyph-name="Obreve" unicode="&#x14e;" horiz-adv-x="1597" 
d="M92 717q0 213 88.5 383t250 267t368.5 97t368.5 -97t249.5 -267t88 -383q0 -160 -51.5 -298.5t-143.5 -237.5t-224 -155.5t-287 -56.5q-207 0 -368.5 96.5t-250 267t-88.5 384.5zM297 717q0 -112 33 -214.5t94.5 -183t158.5 -128.5t216 -48t216 48t158 128.5t94 183
t33 214.5t-33 214t-94 182.5t-158 128.5t-216 48t-216 -48t-158.5 -128.5t-94.5 -182.5t-33 -214zM799 1546q-136 0 -224 79.5t-106 207.5h145q38 -133 185 -133q146 0 184 133h145q-18 -128 -105.5 -207.5t-223.5 -79.5z" />
    <glyph glyph-name="obreve" unicode="&#x14f;" horiz-adv-x="1249" 
d="M82 532q0 243 150.5 403.5t392.5 160.5t392 -160.5t150 -403.5t-150 -403t-392 -160t-392.5 160t-150.5 403zM971 532q0 109 -39 199t-119 145.5t-188 55.5t-188 -55.5t-119 -145.5t-39 -199q0 -169 92.5 -284t253.5 -115t253.5 115t92.5 284zM625 1178q-136 0 -224 79
t-106 207h145q38 -133 185 -133q146 0 184 133h145q-18 -128 -105.5 -207t-223.5 -79z" />
    <glyph glyph-name="Ohungarumlaut" unicode="&#x150;" horiz-adv-x="1597" 
d="M92 717q0 213 88.5 383t250 267t368.5 97t368.5 -97t249.5 -267t88 -383q0 -160 -51.5 -298.5t-143.5 -237.5t-224 -155.5t-287 -56.5q-207 0 -368.5 96.5t-250 267t-88.5 384.5zM297 717q0 -112 33 -214.5t94.5 -183t158.5 -128.5t216 -48t216 48t158 128.5t94 183
t33 214.5t-33 214t-94 182.5t-158 128.5t-216 48t-216 -48t-158.5 -128.5t-94.5 -182.5t-33 -214zM614 1802h236l-184 -235h-185zM952 1802h236l-184 -235h-185z" />
    <glyph glyph-name="ohungarumlaut" unicode="&#x151;" horiz-adv-x="1249" 
d="M82 532q0 243 150.5 403.5t392.5 160.5t392 -160.5t150 -403.5t-150 -403t-392 -160t-392.5 160t-150.5 403zM971 532q0 109 -39 199t-119 145.5t-188 55.5t-188 -55.5t-119 -145.5t-39 -199q0 -169 92.5 -284t253.5 -115t253.5 115t92.5 284zM440 1434h236l-184 -236
h-185zM778 1434h236l-185 -236h-184z" />
    <glyph glyph-name="OE" unicode="&#x152;" horiz-adv-x="2308" 
d="M1231 174q-81 -96 -201.5 -150.5t-269.5 -54.5q-201 0 -353.5 97t-232.5 266t-80 385q0 160 47 298t132 237t210.5 155.5t276.5 56.5q149 0 269.5 -54t201.5 -150v174h962v-174h-757v-431h716v-174h-716v-481h757v-174h-962v174zM299 717q0 -90 17 -173t54.5 -156.5
t91.5 -127.5t133 -85.5t175 -31.5t175 31.5t133 85.5t91.5 127.5t54.5 156.5t17 173t-17 173t-54.5 156t-91.5 127t-133 85.5t-175 31.5t-175 -31.5t-133 -85.5t-91.5 -127t-54.5 -156t-17 -173z" />
    <glyph glyph-name="oe" unicode="&#x153;" horiz-adv-x="2084" 
d="M1495 942q-146 0 -233.5 -95.5t-92.5 -232.5h641q-8 147 -87.5 237.5t-227.5 90.5zM971 532q0 109 -39 199t-119 145.5t-188 55.5t-188 -55.5t-119 -145.5t-39 -199q0 -169 92.5 -284t253.5 -115t253.5 115t92.5 284zM1505 -31q-283 0 -438 224q-69 -105 -183 -164.5
t-259 -59.5q-242 0 -392.5 160t-150.5 403t150.5 403.5t392.5 160.5q145 0 259 -60t183 -166q67 106 178 166t250 60q185 0 304.5 -95t172.5 -262q35 -112 35 -258v-20h-838q5 -136 97.5 -237t238.5 -101q103 0 169 40.5t95 102.5h218q-56 -135 -182 -216t-300 -81z" />
    <glyph glyph-name="Racute" unicode="&#x154;" horiz-adv-x="1423" 
d="M870 788q127 0 191.5 62t64.5 174t-64.5 174t-191.5 62h-481v-472h481zM768 614l614 -614h-276l-604 614h-113v-614h-205v1434h686q217 0 339 -109t122 -301t-122 -301t-339 -109h-102zM707 1802h266l-236 -235h-194z" />
    <glyph glyph-name="racute" unicode="&#x155;" horiz-adv-x="727" 
d="M367 1434h266l-236 -236h-194zM582 901q-113 0 -174.5 -65.5t-61.5 -200.5v-635h-196v1065h196v-123q40 72 107 107.5t180 35.5h55v-184h-106z" />
    <glyph glyph-name="uni0156" unicode="&#x156;" horiz-adv-x="1423" 
d="M870 788q127 0 191.5 62t64.5 174t-64.5 174t-191.5 62h-481v-472h481zM768 614l614 -614h-276l-604 614h-113v-614h-205v1434h686q217 0 339 -109t122 -301t-122 -301t-339 -109h-102zM645 -113h197v-204l-133 -205h-74l92 205h-82v204z" />
    <glyph glyph-name="uni0157" unicode="&#x157;" horiz-adv-x="727" 
d="M150 -113h196v-204l-133 -205h-74l92 205h-81v204zM582 901q-113 0 -174.5 -65.5t-61.5 -200.5v-635h-196v1065h196v-123q40 72 107 107.5t180 35.5h55v-184h-106z" />
    <glyph glyph-name="Rcaron" unicode="&#x158;" horiz-adv-x="1423" 
d="M870 788q127 0 191.5 62t64.5 174t-64.5 174t-191.5 62h-481v-472h481zM768 614l614 -614h-276l-604 614h-113v-614h-205v1434h686q217 0 339 -109t122 -301t-122 -301t-339 -109h-102zM799 1802h256l-236 -235h-225l-236 235h256l93 -133z" />
    <glyph glyph-name="rcaron" unicode="&#x159;" horiz-adv-x="727" 
d="M479 1434h256l-235 -236h-226l-235 236h256l92 -134zM582 901q-113 0 -174.5 -65.5t-61.5 -200.5v-635h-196v1065h196v-123q40 72 107 107.5t180 35.5h55v-184h-106z" />
    <glyph glyph-name="Sacute" unicode="&#x15a;" horiz-adv-x="1320" 
d="M664 1464q112 0 203.5 -23.5t151 -61t101.5 -88.5t61.5 -102t24.5 -104h-209q-8 95 -89.5 156.5t-243.5 61.5q-180 0 -267.5 -64t-87.5 -164q0 -110 75.5 -166t221.5 -78l164 -24q88 -14 156.5 -33.5t128 -52.5t98.5 -77t61.5 -107t22.5 -142q0 -190 -150.5 -308
t-422.5 -118q-140 0 -251.5 32.5t-182 89t-108.5 130t-42 158.5h205q6 -120 102 -184t277 -64q176 0 273 67.5t97 180.5q0 49 -15 85t-37.5 58.5t-65.5 40t-82.5 26.5t-104.5 21l-164 27q-454 69 -454 424q0 84 34.5 156.5t101 128t173.5 87t244 31.5zM627 1802h266
l-236 -235h-194z" />
    <glyph glyph-name="sacute" unicode="&#x15b;" horiz-adv-x="1067" 
d="M475 451q-379 57 -379 331q0 141 115.5 227.5t325.5 86.5q107 0 190.5 -27.5t133 -73t76 -98t30.5 -109.5h-193q-5 72 -66.5 115t-175.5 43q-122 0 -181.5 -40.5t-59.5 -106.5q0 -73 52.5 -106t166.5 -52l98 -14q69 -11 121 -25t103 -39t83 -59.5t52 -87t20 -119.5
q0 -150 -119 -239t-331 -89q-215 0 -335.5 91t-125.5 237h198q9 -176 263 -176q125 0 190.5 42.5t65.5 117.5q0 32 -11 57t-29.5 41t-48 27.5t-60 18t-73.5 11.5zM528 1434h267l-236 -236h-194z" />
    <glyph glyph-name="Scircumflex" unicode="&#x15c;" horiz-adv-x="1320" 
d="M664 1464q112 0 203.5 -23.5t151 -61t101.5 -88.5t61.5 -102t24.5 -104h-209q-8 95 -89.5 156.5t-243.5 61.5q-180 0 -267.5 -64t-87.5 -164q0 -110 75.5 -166t221.5 -78l164 -24q88 -14 156.5 -33.5t128 -52.5t98.5 -77t61.5 -107t22.5 -142q0 -190 -150.5 -308
t-422.5 -118q-140 0 -251.5 32.5t-182 89t-108.5 130t-42 158.5h205q6 -120 102 -184t277 -64q176 0 273 67.5t97 180.5q0 49 -15 85t-37.5 58.5t-65.5 40t-82.5 26.5t-104.5 21l-164 27q-454 69 -454 424q0 84 34.5 156.5t101 128t173.5 87t244 31.5zM643 1700l-92 -133
h-256l235 235h226l235 -235h-256z" />
    <glyph glyph-name="scircumflex" unicode="&#x15d;" horiz-adv-x="1067" 
d="M475 451q-379 57 -379 331q0 141 115.5 227.5t325.5 86.5q107 0 190.5 -27.5t133 -73t76 -98t30.5 -109.5h-193q-5 72 -66.5 115t-175.5 43q-122 0 -181.5 -40.5t-59.5 -106.5q0 -73 52.5 -106t166.5 -52l98 -14q69 -11 121 -25t103 -39t83 -59.5t52 -87t20 -119.5
q0 -150 -119 -239t-331 -89q-215 0 -335.5 91t-125.5 237h198q9 -176 263 -176q125 0 190.5 42.5t65.5 117.5q0 32 -11 57t-29.5 41t-48 27.5t-60 18t-73.5 11.5zM539 1331l-93 -133h-256l236 236h225l236 -236h-256z" />
    <glyph glyph-name="Scedilla" unicode="&#x15e;" horiz-adv-x="1320" 
d="M664 1464q112 0 203.5 -23.5t151 -61t101.5 -88.5t61.5 -102t24.5 -104h-209q-8 95 -89.5 156.5t-243.5 61.5q-180 0 -267.5 -64t-87.5 -164q0 -110 75.5 -166t221.5 -78l164 -24q88 -14 156.5 -33.5t128 -52.5t98.5 -77t61.5 -107t22.5 -142q0 -169 -119.5 -282.5
t-339.5 -137.5l-65 -65q71 -4 113 -50t42 -116q0 -78 -59.5 -131t-144.5 -53q-73 0 -128 40.5t-67 102.5h129q15 -41 66 -41q35 0 58 23.5t23 58.5t-23 58.5t-58 23.5t-60 -25l-78 78l90 90q-254 12 -391 125t-145 285h205q6 -120 102 -184t277 -64q176 0 273 67.5t97 180.5
q0 49 -15 85t-37.5 58.5t-65.5 40t-82.5 26.5t-104.5 21l-164 27q-454 69 -454 424q0 84 34.5 156.5t101 128t173.5 87t244 31.5z" />
    <glyph glyph-name="scedilla" unicode="&#x15f;" horiz-adv-x="1067" 
d="M535 -338q35 0 58 23.5t23 58.5t-23 58.5t-58 23.5t-60 -25l-78 78l92 92q-193 10 -300.5 98.5t-112.5 227.5h198q9 -176 263 -176q125 0 190.5 42.5t65.5 117.5q0 32 -11 57t-29.5 41t-48 27.5t-60 18t-73.5 11.5l-96 15q-379 57 -379 331q0 141 115.5 227.5t325.5 86.5
q107 0 190.5 -27.5t133 -73t76 -98t30.5 -109.5h-193q-5 72 -66.5 115t-175.5 43q-122 0 -181.5 -40.5t-59.5 -106.5q0 -73 52.5 -106t166.5 -52l98 -14q69 -11 121 -25t103 -39t83 -59.5t52 -87t20 -119.5q0 -129 -88 -213t-248 -107l-67 -67q71 -4 113 -50t42 -116
q0 -78 -59.5 -131t-144.5 -53q-73 0 -128 40.5t-67 102.5h129q15 -41 66 -41z" />
    <glyph glyph-name="Scaron" unicode="&#x160;" horiz-adv-x="1320" 
d="M664 1464q112 0 203.5 -23.5t151 -61t101.5 -88.5t61.5 -102t24.5 -104h-209q-8 95 -89.5 156.5t-243.5 61.5q-180 0 -267.5 -64t-87.5 -164q0 -110 75.5 -166t221.5 -78l164 -24q88 -14 156.5 -33.5t128 -52.5t98.5 -77t61.5 -107t22.5 -142q0 -190 -150.5 -308
t-422.5 -118q-140 0 -251.5 32.5t-182 89t-108.5 130t-42 158.5h205q6 -120 102 -184t277 -64q176 0 273 67.5t97 180.5q0 49 -15 85t-37.5 58.5t-65.5 40t-82.5 26.5t-104.5 21l-164 27q-454 69 -454 424q0 84 34.5 156.5t101 128t173.5 87t244 31.5zM735 1802h256
l-235 -235h-226l-235 235h256l92 -133z" />
    <glyph glyph-name="scaron" unicode="&#x161;" horiz-adv-x="1067" 
d="M475 451q-379 57 -379 331q0 141 115.5 227.5t325.5 86.5q107 0 190.5 -27.5t133 -73t76 -98t30.5 -109.5h-193q-5 72 -66.5 115t-175.5 43q-122 0 -181.5 -40.5t-59.5 -106.5q0 -73 52.5 -106t166.5 -52l98 -14q69 -11 121 -25t103 -39t83 -59.5t52 -87t20 -119.5
q0 -150 -119 -239t-331 -89q-215 0 -335.5 91t-125.5 237h198q9 -176 263 -176q125 0 190.5 42.5t65.5 117.5q0 32 -11 57t-29.5 41t-48 27.5t-60 18t-73.5 11.5zM631 1434h256l-236 -236h-225l-236 236h256l93 -134z" />
    <glyph glyph-name="uni0162" unicode="&#x162;" horiz-adv-x="1224" 
d="M575 -338q35 0 58.5 23.5t23.5 58.5t-23.5 58.5t-58.5 23.5q-34 0 -59 -25l-78 78l121 121h-49v1260h-481v174h1167v-174h-481v-1260l-90 -90q71 -4 113 -50t42 -116q0 -78 -60 -131t-145 -53q-73 0 -127.5 40.5t-66.5 102.5h129q15 -41 65 -41z" />
    <glyph glyph-name="uni0163" unicode="&#x163;" horiz-adv-x="811" 
d="M451 -338q35 0 58 23.5t23 58.5t-23 58.5t-58 23.5t-60 -25l-78 78l129 129q-88 20 -124.5 80.5t-36.5 167.5v645h-256v164h256v246h196v-246h277v-164h-277v-645q0 -55 19.5 -75.5t72.5 -20.5h185v-160h-164l-90 -90q71 -4 113 -50t42 -116q0 -78 -59.5 -131t-144.5 -53
q-73 0 -128 40.5t-67 102.5h129q15 -41 66 -41z" />
    <glyph glyph-name="Tcaron" unicode="&#x164;" horiz-adv-x="1224" 
d="M1196 1260h-481v-1260h-205v1260h-481v174h1167v-174zM705 1802h256l-236 -235h-225l-236 235h256l92 -133z" />
    <glyph glyph-name="tcaron" unicode="&#x165;" horiz-adv-x="811" 
d="M631 1567h205l-113 -379h-154zM281 901h-256v164h256v246h196v-246h277v-164h-277v-645q0 -55 19.5 -75.5t72.5 -20.5h185v-160h-226q-134 0 -190.5 63.5t-56.5 192.5v645z" />
    <glyph glyph-name="Tbar" unicode="&#x166;" horiz-adv-x="1261" 
d="M211 840h317v420h-481v174h1167v-174h-481v-420h318v-164h-318v-676h-205v676h-317v164z" />
    <glyph glyph-name="tbar" unicode="&#x167;" horiz-adv-x="815" 
d="M283 717v184h-256v164h256v246h196v-246h277v-164h-277v-184h226v-154h-226v-307q0 -55 19.5 -75.5t72.5 -20.5h185v-160h-226q-134 0 -190.5 63.5t-56.5 192.5v307h-205v154h205z" />
    <glyph glyph-name="Utilde" unicode="&#x168;" horiz-adv-x="1482" 
d="M741 -31q-263 0 -418 154t-155 389v922h205v-922q0 -170 99 -269.5t269 -99.5t269.5 99.5t99.5 269.5v922h205v-922q0 -235 -155.5 -389t-418.5 -154zM362 1577q0 117 68.5 181.5t167.5 64.5q48 0 97.5 -21t82.5 -45.5t68.5 -45.5t58.5 -21q36 0 54 25.5t18 66.5h143
q0 -117 -68 -181.5t-167 -64.5q-48 0 -97.5 21t-82.5 45.5t-68.5 45.5t-58.5 21q-36 0 -54 -25.5t-18 -66.5h-144z" />
    <glyph glyph-name="utilde" unicode="&#x169;" horiz-adv-x="1212" 
d="M866 133q-45 -83 -134.5 -123.5t-203.5 -40.5q-187 0 -288 105t-101 305v686h197v-666q0 -133 58.5 -199.5t185.5 -66.5t206.5 85.5t79.5 242.5v604h197v-1065h-197v133zM221 1208q0 117 68.5 181.5t167.5 64.5q48 0 97.5 -21t82.5 -45.5t68.5 -45.5t58.5 -21
q36 0 54 25.5t18 66.5h143q0 -117 -68.5 -181.5t-167.5 -64.5q-48 0 -97.5 21t-82.5 45.5t-68.5 45.5t-58.5 21q-36 0 -53.5 -25.5t-17.5 -66.5h-144z" />
    <glyph glyph-name="Umacron" unicode="&#x16a;" horiz-adv-x="1482" 
d="M741 -31q-263 0 -418 154t-155 389v922h205v-922q0 -170 99 -269.5t269 -99.5t269.5 99.5t99.5 269.5v922h205v-922q0 -235 -155.5 -389t-418.5 -154zM403 1772h676v-154h-676v154z" />
    <glyph glyph-name="umacron" unicode="&#x16b;" horiz-adv-x="1212" 
d="M866 133q-45 -83 -134.5 -123.5t-203.5 -40.5q-187 0 -288 105t-101 305v686h197v-666q0 -133 58.5 -199.5t185.5 -66.5t206.5 85.5t79.5 242.5v604h197v-1065h-197v133zM262 1403h676v-154h-676v154z" />
    <glyph glyph-name="Ubreve" unicode="&#x16c;" horiz-adv-x="1482" 
d="M741 -31q-263 0 -418 154t-155 389v922h205v-922q0 -170 99 -269.5t269 -99.5t269.5 99.5t99.5 269.5v922h205v-922q0 -235 -155.5 -389t-418.5 -154zM741 1546q-136 0 -223.5 79.5t-105.5 207.5h145q38 -133 184 -133q147 0 185 133h145q-18 -128 -106 -207.5
t-224 -79.5z" />
    <glyph glyph-name="ubreve" unicode="&#x16d;" horiz-adv-x="1212" 
d="M866 133q-45 -83 -134.5 -123.5t-203.5 -40.5q-187 0 -288 105t-101 305v686h197v-666q0 -133 58.5 -199.5t185.5 -66.5t206.5 85.5t79.5 242.5v604h197v-1065h-197v133zM600 1178q-136 0 -224 79t-106 207h146q38 -133 184 -133t184 133h146q-18 -128 -106 -207
t-224 -79z" />
    <glyph glyph-name="Uring" unicode="&#x16e;" horiz-adv-x="1482" 
d="M741 -31q-263 0 -418 154t-155 389v922h205v-922q0 -170 99 -269.5t269 -99.5t269.5 99.5t99.5 269.5v922h205v-922q0 -235 -155.5 -389t-418.5 -154zM874 1651q0 57 -38 95t-95 38t-95 -38t-38 -95t38 -95t95 -38t95 38t38 95zM1008 1651q0 -106 -76 -176t-191 -70
t-190.5 70t-75.5 176t75.5 175.5t190.5 69.5t191 -69.5t76 -175.5z" />
    <glyph glyph-name="uring" unicode="&#x16f;" horiz-adv-x="1212" 
d="M866 133q-45 -83 -134.5 -123.5t-203.5 -40.5q-187 0 -288 105t-101 305v686h197v-666q0 -133 58.5 -199.5t185.5 -66.5t206.5 85.5t79.5 242.5v604h197v-1065h-197v133zM733 1403q0 57 -38 95t-95 38t-95 -38t-38 -95t38 -95t95 -38t95 38t38 95zM866 1403
q0 -106 -75.5 -176t-190.5 -70t-190.5 70t-75.5 176t75.5 176t190.5 70t190.5 -70t75.5 -176z" />
    <glyph glyph-name="Uhungarumlaut" unicode="&#x170;" horiz-adv-x="1482" 
d="M741 -31q-263 0 -418 154t-155 389v922h205v-922q0 -170 99 -269.5t269 -99.5t269.5 99.5t99.5 269.5v922h205v-922q0 -235 -155.5 -389t-418.5 -154zM561 1802h236l-185 -235h-184zM899 1802h236l-185 -235h-184z" />
    <glyph glyph-name="uhungarumlaut" unicode="&#x171;" horiz-adv-x="1212" 
d="M866 133q-45 -83 -134.5 -123.5t-203.5 -40.5q-187 0 -288 105t-101 305v686h197v-666q0 -133 58.5 -199.5t185.5 -66.5t206.5 85.5t79.5 242.5v604h197v-1065h-197v133zM426 1434h236l-185 -236h-184zM764 1434h235l-184 -236h-184z" />
    <glyph glyph-name="Uogonek" unicode="&#x172;" horiz-adv-x="1482" 
d="M1008 -287q46 0 92 13l-56 -142q-43 -14 -98 -14q-101 0 -168 57t-67 148q0 123 104 198q-22 -4 -74 -4q-263 0 -418 154t-155 389v922h205v-922q0 -170 99 -269.5t269 -99.5t269.5 99.5t99.5 269.5v922h205v-922q0 -92 -23 -170t-60 -132t-82 -100t-90 -82.5t-82 -70.5
t-60 -73t-23 -81q0 -49 33.5 -69.5t79.5 -20.5z" />
    <glyph glyph-name="uogonek" unicode="&#x173;" horiz-adv-x="1212" 
d="M991 -287q47 0 92 13l-55 -142q-43 -14 -98 -14q-101 0 -168.5 57t-67.5 148q0 157 172 239v119q-45 -83 -134.5 -123.5t-203.5 -40.5q-187 0 -288 105t-101 305v686h197v-666q0 -133 58.5 -199.5t185.5 -66.5t206.5 85.5t79.5 242.5v604h197v-1065q-99 -54 -141.5 -100
t-42.5 -97q0 -49 33 -69.5t79 -20.5z" />
    <glyph glyph-name="Wcircumflex" unicode="&#x174;" horiz-adv-x="1925" 
d="M958 1157q-42 -205 -90 -375l-223 -782h-205l-409 1434h205l208 -762q64 -239 95 -406h8q43 210 98 408l215 760h205l215 -760q55 -198 98 -408h8q31 167 95 406l209 762h204l-409 -1434h-205l-223 782q-48 170 -90 375h-9zM963 1700l-93 -133h-256l236 235h225l236 -235
h-256z" />
    <glyph glyph-name="wcircumflex" unicode="&#x175;" horiz-adv-x="1568" 
d="M780 840q-47 -218 -98 -375l-150 -465h-180l-317 1065h198l123 -459q55 -194 84 -381h9q48 216 98 379l143 461h189l143 -461q50 -163 98 -379h8q29 187 84 381l123 459h199l-317 -1065h-181l-149 465q-54 167 -99 375h-8zM784 1331l-92 -133h-256l236 236h225l236 -236
h-256z" />
    <glyph glyph-name="Ycircumflex" unicode="&#x176;" horiz-adv-x="1220" 
d="M508 573l-481 861h229l354 -676l355 676h229l-481 -861v-573h-205v573zM610 1700l-92 -133h-256l236 235h225l235 -235h-256z" />
    <glyph glyph-name="ycircumflex" unicode="&#x177;" horiz-adv-x="1052" 
d="M528 1331l-92 -133h-256l236 236h225l236 -236h-256zM434 0l-401 1065h209l172 -471q44 -115 108 -361h10q53 188 119 361l172 471h203l-432 -1165q-25 -67 -53.5 -113t-73 -83t-110.5 -55t-156 -18h-115v160h104q94 0 144 35t86 133z" />
    <glyph glyph-name="Ydieresis" unicode="&#x178;" horiz-adv-x="1220" 
d="M508 573l-481 861h229l354 -676l355 676h229l-481 -861v-573h-205v573zM303 1802h197v-205h-197v205zM721 1802h197v-205h-197v205z" />
    <glyph glyph-name="Zacute" unicode="&#x179;" horiz-adv-x="1224" 
d="M1159 0h-1085v174l809 1086h-789v174h1034v-174l-809 -1086h840v-174zM606 1802h266l-235 -235h-195z" />
    <glyph glyph-name="zacute" unicode="&#x17a;" horiz-adv-x="1048" 
d="M977 164v-164h-901v164l633 737h-613v164h860v-164l-632 -737h653zM516 1434h266l-235 -236h-195z" />
    <glyph glyph-name="Zdotaccent" unicode="&#x17b;" horiz-adv-x="1224" 
d="M1159 0h-1085v174l809 1086h-789v174h1034v-174l-809 -1086h840v-174zM514 1802h197v-205h-197v205z" />
    <glyph glyph-name="zdotaccent" unicode="&#x17c;" horiz-adv-x="1048" 
d="M977 164v-164h-901v164l633 737h-613v164h860v-164l-632 -737h653zM424 1434h197v-205h-197v205z" />
    <glyph glyph-name="Zcaron" unicode="&#x17d;" horiz-adv-x="1224" 
d="M1159 0h-1085v174l809 1086h-789v174h1034v-174l-809 -1086h840v-174zM698 1802h256l-235 -235h-225l-236 235h256l92 -133z" />
    <glyph glyph-name="zcaron" unicode="&#x17e;" horiz-adv-x="1048" 
d="M977 164v-164h-901v164l633 737h-613v164h860v-164l-632 -737h653zM618 1434h256l-235 -236h-225l-236 236h256l92 -134z" />
    <glyph glyph-name="longs" unicode="&#x17f;" horiz-adv-x="632" 
d="M31 1065h215v113q0 256 276 256h166v-160h-153q-54 0 -73.5 -21t-19.5 -75v-1178h-196v901h-215v164z" />
    <glyph glyph-name="uni018F" unicode="&#x18f;" horiz-adv-x="1546" 
d="M131 1085q75 172 230.5 275.5t383.5 103.5q207 0 368.5 -94.5t250 -264.5t88.5 -388q0 -215 -86 -385t-245.5 -266.5t-364.5 -96.5q-159 0 -287.5 58t-213 161t-130 243.5t-45.5 305.5v51h1163q-6 99 -43 189t-99 160t-154.5 111.5t-201.5 41.5q-140 0 -243 -59.5
t-144 -145.5h-227zM756 143q105 0 193 38.5t147.5 104.5t96 149.5t46.5 178.5h-944q9 -95 41.5 -178t88 -149.5t141 -105t190.5 -38.5z" />
    <glyph glyph-name="uni0190" unicode="&#x190;" horiz-adv-x="1333" 
d="M819 655h-186q-179 0 -257.5 -65.5t-78.5 -190.5q0 -118 96.5 -192t278.5 -74q189 0 283.5 66.5t107.5 179.5h205q-21 -189 -176 -299.5t-437 -110.5q-252 0 -407.5 118.5t-155.5 311.5q0 119 61 213.5t187 139.5q-197 98 -197 329q0 170 147.5 276.5t385.5 106.5
q235 0 383 -103.5t168 -275.5h-209q-11 93 -98 153t-244 60q-154 0 -241 -63t-87 -170q0 -111 75.5 -173.5t215.5 -62.5h180v-174z" />
    <glyph glyph-name="florin" unicode="&#x192;" horiz-adv-x="886" 
d="M326 901h-263v164h291l23 123q25 131 92 188.5t197 57.5h176v-164h-162q-50 0 -71 -20t-29 -62l-23 -123h285v-164h-314l-180 -1024q-23 -131 -91 -188.5t-198 -57.5h-139v164h125q50 0 71 20t29 62z" />
    <glyph glyph-name="uni0194" unicode="&#x194;" horiz-adv-x="1300" 
d="M483 834q19 -45 54 -122t62 -140.5t46 -120.5h6q19 58 44.5 118t64 145t53.5 120l262 600h215l-538 -1168q62 -141 80.5 -186t36.5 -105t18 -104q0 -103 -65 -171.5t-173 -68.5q-107 0 -172 68.5t-65 169.5q0 15 1 30t5.5 33.5t7.5 32t12 38.5t14.5 39t19 47.5t21 50.5
t26 61t28.5 67l-537 1166h215zM649 84q-63 -151 -63 -219q0 -39 16.5 -62.5t46.5 -23.5q29 0 46.5 23.5t17.5 62.5q0 66 -64 219z" />
    <glyph glyph-name="uni0197" unicode="&#x197;" horiz-adv-x="667" 
d="M14 838h170v596h205v-596h170v-164h-170v-674h-205v674h-170v164z" />
    <glyph glyph-name="uni019D" unicode="&#x19d;" horiz-adv-x="1556" 
d="M379 1137q10 -131 10 -451v-778q0 -138 -79.5 -207.5t-229.5 -69.5h-84v174h65q68 0 95.5 27t27.5 90v1512h215l494 -711q169 -240 276 -426h9q-11 144 -11 451v686h205v-1434h-215l-493 711q-175 247 -277 426h-8z" />
    <glyph glyph-name="uni01B5" unicode="&#x1b5;" horiz-adv-x="1251" 
d="M147 819h420l328 441h-789v174h1035v-174l-328 -441h297v-164h-418l-360 -481h839v-174h-1085v174l358 481h-297v164z" />
    <glyph glyph-name="uni01B6" unicode="&#x1b6;" horiz-adv-x="1062" 
d="M133 614h336l246 287h-613v164h861v-164l-246 -287h225v-153h-358l-254 -297h653v-164h-901v164l254 297h-203v153z" />
    <glyph glyph-name="uni01CD" unicode="&#x1cd;" horiz-adv-x="1396" 
d="M1036 338h-676l-133 -338h-215l584 1434h205l583 -1434h-215zM694 1208q-84 -249 -133 -366l-131 -330h537l-131 330q-54 129 -134 366h-8zM791 1802h256l-236 -235h-225l-236 235h256l92 -133z" />
    <glyph glyph-name="uni01CE" unicode="&#x1ce;" horiz-adv-x="1171" 
d="M498 123q145 0 241.5 91t96.5 247v82l-349 -31q-215 -21 -215 -195q0 -101 62 -147.5t164 -46.5zM127 788q18 136 132.5 222t320.5 86q298 0 401 -174q51 -83 51 -215v-707h-196v133q-53 -70 -145.5 -117t-213.5 -47q-174 0 -287.5 89.5t-113.5 258.5q0 144 97.5 232.5
t293.5 105.5l369 31v21q0 115 -58 175t-198 60q-114 0 -178 -41.5t-72 -112.5h-203zM686 1434h256l-235 -236h-226l-235 236h256l92 -134z" />
    <glyph glyph-name="uni01CF" unicode="&#x1cf;" horiz-adv-x="573" 
d="M184 0v1434h205v-1434h-205zM379 1802h256l-236 -235h-225l-235 235h256l92 -133z" />
    <glyph glyph-name="uni01D0" unicode="&#x1d0;" horiz-adv-x="495" 
d="M150 1065h196v-1065h-196v1065zM340 1434h256l-236 -236h-225l-235 236h256l92 -134z" />
    <glyph glyph-name="uni01D1" unicode="&#x1d1;" horiz-adv-x="1597" 
d="M92 717q0 213 88.5 383t250 267t368.5 97t368.5 -97t249.5 -267t88 -383q0 -160 -51.5 -298.5t-143.5 -237.5t-224 -155.5t-287 -56.5q-207 0 -368.5 96.5t-250 267t-88.5 384.5zM297 717q0 -112 33 -214.5t94.5 -183t158.5 -128.5t216 -48t216 48t158 128.5t94 183
t33 214.5t-33 214t-94 182.5t-158 128.5t-216 48t-216 -48t-158.5 -128.5t-94.5 -182.5t-33 -214zM891 1802h256l-236 -235h-225l-235 235h256l92 -133z" />
    <glyph glyph-name="uni01D2" unicode="&#x1d2;" horiz-adv-x="1249" 
d="M82 532q0 243 150.5 403.5t392.5 160.5t392 -160.5t150 -403.5t-150 -403t-392 -160t-392.5 160t-150.5 403zM971 532q0 109 -39 199t-119 145.5t-188 55.5t-188 -55.5t-119 -145.5t-39 -199q0 -169 92.5 -284t253.5 -115t253.5 115t92.5 284zM717 1434h256l-236 -236
h-225l-236 236h256l93 -134z" />
    <glyph glyph-name="uni01D3" unicode="&#x1d3;" horiz-adv-x="1482" 
d="M741 -31q-263 0 -418 154t-155 389v922h205v-922q0 -170 99 -269.5t269 -99.5t269.5 99.5t99.5 269.5v922h205v-922q0 -235 -155.5 -389t-418.5 -154zM829 1802h256l-235 -235h-225l-236 235h256l92 -133z" />
    <glyph glyph-name="uni01D4" unicode="&#x1d4;" horiz-adv-x="1212" 
d="M866 133q-45 -83 -134.5 -123.5t-203.5 -40.5q-187 0 -288 105t-101 305v686h197v-666q0 -133 58.5 -199.5t185.5 -66.5t206.5 85.5t79.5 242.5v604h197v-1065h-197v133zM686 1434h256l-235 -236h-226l-235 236h256l92 -134z" />
    <glyph glyph-name="Gcaron" unicode="&#x1e6;" horiz-adv-x="1540" 
d="M799 1290q-99 0 -182 -31.5t-141 -85.5t-99 -127t-60.5 -156t-19.5 -173q0 -113 31.5 -214.5t92 -182.5t158.5 -129t220 -48q114 0 200 39.5t134.5 105t72 140.5t23.5 156h-451v174h645v-758h-153l-21 174q-62 -89 -173 -147t-277 -58q-211 0 -373 97t-248 266.5
t-86 384.5q0 214 86 383.5t248 266.5t373 97q222 0 372 -100.5t222 -278.5h-224q-108 205 -370 205zM901 1802h256l-235 -235h-226l-235 235h256l92 -133z" />
    <glyph glyph-name="gcaron" unicode="&#x1e7;" horiz-adv-x="1261" 
d="M926 553q0 160 -89.5 269.5t-238.5 109.5q-142 0 -229.5 -110t-87.5 -269t87.5 -269t229.5 -110q149 0 238.5 109.5t89.5 269.5zM915 164q-44 -60 -128.5 -107t-208.5 -47q-147 0 -260.5 74t-173.5 197t-60 272t60 272t173.5 197t260.5 74q124 0 209 -47.5t128 -106.5
v123h197v-952q0 -248 -133.5 -380t-370.5 -132q-176 0 -299.5 84t-152.5 223h204q13 -62 78 -108t170 -46q307 0 307 359v51zM768 1434h256l-236 -236h-225l-235 236h256l92 -134z" />
    <glyph glyph-name="uni01E8" unicode="&#x1e8;" horiz-adv-x="1300" 
d="M184 0v1434h205v-635l625 635h256l-697 -697l738 -737h-277l-645 666v-666h-205zM758 1802h256l-236 -235h-225l-236 235h256l93 -133z" />
    <glyph glyph-name="uni01E9" unicode="&#x1e9;" horiz-adv-x="1067" 
d="M150 1434h196v-824l445 455h253l-512 -512l553 -553h-268l-471 492v-492h-196v1434zM666 1802h256l-236 -235h-225l-236 235h256l92 -133z" />
    <glyph glyph-name="uni01EA" unicode="&#x1ea;" horiz-adv-x="1597" 
d="M942 -287q46 0 92 13l-55 -142q-43 -14 -98 -14q-101 0 -168.5 57t-67.5 148q0 121 103 196q-193 11 -343 111t-231.5 265.5t-81.5 369.5q0 213 88.5 383t250 267t368.5 97t368.5 -97t249.5 -267t88 -383q0 -215 -86.5 -381t-238.5 -262q-38 -24 -95 -51.5t-97 -47.5
t-79 -45.5t-59.5 -57t-20.5 -69.5q0 -49 33.5 -69.5t79.5 -20.5zM297 717q0 -112 33 -214.5t94.5 -183t158.5 -128.5t216 -48t216 48t158 128.5t94 183t33 214.5t-33 214t-94 182.5t-158 128.5t-216 48t-216 -48t-158.5 -128.5t-94.5 -182.5t-33 -214z" />
    <glyph glyph-name="uni01EB" unicode="&#x1eb;" horiz-adv-x="1249" 
d="M748 -287q46 0 92 13l-56 -142q-43 -14 -98 -14q-101 0 -168 57t-67 148q0 122 104 198q-213 25 -343 180.5t-130 378.5q0 243 150.5 403.5t392.5 160.5t392 -160.5t150 -403.5q0 -142 -54.5 -260t-156.5 -196q-38 -30 -89 -59t-88.5 -49t-72 -44t-53 -53.5t-18.5 -67.5
q0 -49 33.5 -69.5t79.5 -20.5zM971 532q0 109 -39 199t-119 145.5t-188 55.5t-188 -55.5t-119 -145.5t-39 -199q0 -169 92.5 -284t253.5 -115t253.5 115t92.5 284z" />
    <glyph glyph-name="uni01F8" unicode="&#x1f8;" horiz-adv-x="1556" 
d="M664 711q-175 247 -277 426h-8q10 -131 10 -451v-686h-205v1434h215l494 -711q169 -240 276 -426h9q-11 144 -11 451v686h205v-1434h-215zM922 1567h-195l-235 235h266z" />
    <glyph glyph-name="uni01F9" unicode="&#x1f9;" horiz-adv-x="1222" 
d="M346 922q53 85 145 129.5t203 44.5q187 0 288 -105t101 -305v-686h-196v666q0 133 -58.5 199.5t-185.5 66.5q-129 0 -213 -86.5t-84 -241.5v-604h-196v1065h196v-143zM809 1198h-195l-235 236h266z" />
    <glyph glyph-name="Aringacute" unicode="&#x1fa;" horiz-adv-x="1400" 
d="M1038 338h-676l-133 -338h-215l490 1202q-70 64 -70 170t75.5 176t190.5 70t191 -70t76 -176q0 -100 -70 -170l489 -1202h-215zM700 1126q-18 0 -28 2q-47 -133 -109 -286l-131 -330h537l-131 330q-47 110 -109 286q-10 -2 -29 -2zM700 1905h267l-236 -236h-194z
M834 1372q0 57 -38.5 95t-95.5 38t-95 -38t-38 -95t38 -95t95 -38t95.5 38t38.5 95z" />
    <glyph glyph-name="aringacute" unicode="&#x1fb;" horiz-adv-x="1171" 
d="M846 1270q0 -59 -25.5 -109.5t-70.5 -83.5q160 -37 231 -155q51 -83 51 -215v-707h-196v133q-53 -70 -145.5 -117t-213.5 -47q-174 0 -287.5 89.5t-113.5 258.5q0 144 97.5 232.5t293.5 105.5l369 31v21q0 115 -58 175t-198 60q-114 0 -178 -41.5t-72 -112.5h-203
q13 104 84 181t199 108q-45 33 -71 83.5t-26 109.5q0 106 76 176t191 70t190.5 -70t75.5 -176zM498 123q145 0 241.5 91t96.5 247v82l-349 -31q-215 -21 -215 -195q0 -101 62 -147.5t164 -46.5zM713 1270q0 57 -38 95t-95 38t-95.5 -38t-38.5 -95t38.5 -95t95.5 -38t95 38
t38 95zM563 1802h266l-235 -235h-195z" />
    <glyph glyph-name="AEacute" unicode="&#x1fc;" horiz-adv-x="2136" 
d="M2021 1434v-174h-757v-431h716v-174h-716v-481h757v-174h-962v338h-615l-225 -338h-246l963 1434h1085zM1051 1260q-9 -14 -49 -78.5t-82 -130.5t-93 -140l-266 -399h498v748h-8zM1417 1802h266l-235 -235h-195z" />
    <glyph glyph-name="aeacute" unicode="&#x1fd;" horiz-adv-x="1947" 
d="M498 123q145 0 241.5 91t96.5 247v82l-349 -31q-215 -21 -215 -195q0 -101 62 -147.5t164 -46.5zM1358 942q-146 0 -233.5 -95.5t-92.5 -232.5h641q-8 147 -87.5 237.5t-227.5 90.5zM1368 -31q-144 0 -256.5 60.5t-181.5 167.5q-145 -228 -443 -228q-180 0 -295.5 89.5
t-115.5 258.5q0 144 97.5 232.5t293.5 105.5l369 31v21q0 115 -58 175t-198 60q-114 0 -178 -41.5t-72 -112.5h-203q18 136 132.5 222t320.5 86q291 0 395 -168q145 168 383 168q185 0 304.5 -95t172.5 -262q35 -112 35 -258v-20h-838q5 -136 97.5 -237t238.5 -101
q62 0 112.5 16.5t82 43t50.5 55.5t25 59h211q-40 -140 -165.5 -234t-315.5 -94zM969 1434h266l-236 -236h-194z" />
    <glyph glyph-name="Oslashacute" unicode="&#x1fe;" horiz-adv-x="1605" 
d="M793 1802h266l-236 -235h-194zM272 203q-176 200 -176 514q0 213 88.5 383t250 267t368.5 97q235 0 416 -129l106 129h205l-195 -235q174 -202 174 -512q0 -160 -51.5 -298.5t-143.5 -237.5t-224 -155.5t-287 -56.5q-236 0 -414 127l-108 -127h-205zM301 717
q0 -207 100 -359l697 834q-124 98 -295 98q-119 0 -216 -48t-158.5 -128.5t-94.5 -182.5t-33 -214zM1305 717q0 202 -99 358l-698 -835q132 -97 295 -97q119 0 216 48t158.5 128.5t94.5 183t33 214.5z" />
    <glyph glyph-name="oslashacute" unicode="&#x1ff;" horiz-adv-x="1253" 
d="M84 532q0 243 150.5 403.5t392.5 160.5q178 0 307 -90l76 90h180l-152 -181q131 -153 131 -383q0 -243 -150 -403t-392 -160q-179 0 -308 90l-75 -90h-181l152 183q-131 156 -131 380zM973 532q0 132 -58 236l-483 -575q78 -60 195 -60q161 0 253.5 115t92.5 284z
M281 532q0 -139 57 -235l485 575q-85 60 -196 60q-108 0 -188 -55.5t-119 -145.5t-39 -199zM616 1434h267l-236 -236h-194z" />
    <glyph glyph-name="uni0218" unicode="&#x218;" horiz-adv-x="1320" 
d="M664 1464q112 0 203.5 -23.5t151 -61t101.5 -88.5t61.5 -102t24.5 -104h-209q-8 95 -89.5 156.5t-243.5 61.5q-180 0 -267.5 -64t-87.5 -164q0 -110 75.5 -166t221.5 -78l164 -24q88 -14 156.5 -33.5t128 -52.5t98.5 -77t61.5 -107t22.5 -142q0 -190 -150.5 -308
t-422.5 -118q-140 0 -251.5 32.5t-182 89t-108.5 130t-42 158.5h205q6 -120 102 -184t277 -64q176 0 273 67.5t97 180.5q0 49 -15 85t-37.5 58.5t-65.5 40t-82.5 26.5t-104.5 21l-164 27q-454 69 -454 424q0 84 34.5 156.5t101 128t173.5 87t244 31.5zM588 -113h196v-204
l-133 -205h-73l92 205h-82v204z" />
    <glyph glyph-name="uni0219" unicode="&#x219;" horiz-adv-x="1067" 
d="M475 451q-379 57 -379 331q0 141 115.5 227.5t325.5 86.5q107 0 190.5 -27.5t133 -73t76 -98t30.5 -109.5h-193q-5 72 -66.5 115t-175.5 43q-122 0 -181.5 -40.5t-59.5 -106.5q0 -73 52.5 -106t166.5 -52l98 -14q69 -11 121 -25t103 -39t83 -59.5t52 -87t20 -119.5
q0 -150 -119 -239t-331 -89q-215 0 -335.5 91t-125.5 237h198q9 -176 263 -176q125 0 190.5 42.5t65.5 117.5q0 32 -11 57t-29.5 41t-48 27.5t-60 18t-73.5 11.5zM457 -113h196v-204l-133 -205h-74l93 205h-82v204z" />
    <glyph glyph-name="uni021A" unicode="&#x21a;" horiz-adv-x="1224" 
d="M1196 1260h-481v-1260h-205v1260h-481v174h1167v-174zM516 -113h197v-204l-133 -205h-74l92 205h-82v204z" />
    <glyph glyph-name="uni021B" unicode="&#x21b;" horiz-adv-x="811" 
d="M385 -113h197v-204l-133 -205h-74l92 205h-82v204zM281 901h-256v164h256v246h196v-246h277v-164h-277v-645q0 -55 19.5 -75.5t72.5 -20.5h185v-160h-226q-134 0 -190.5 63.5t-56.5 192.5v645z" />
    <glyph glyph-name="uni021E" unicode="&#x21e;" horiz-adv-x="1536" 
d="M1352 0h-205v655h-758v-655h-205v1434h205v-605h758v605h205v-1434zM860 1802h256l-235 -235h-226l-235 235h256l92 -133z" />
    <glyph glyph-name="uni021F" unicode="&#x21f;" horiz-adv-x="1224" 
d="M346 922q53 85 145 129.5t203 44.5q187 0 289 -105t102 -305v-686h-196v666q0 133 -59 199.5t-187 66.5q-129 0 -213 -86.5t-84 -241.5v-604h-196v1434h196v-512zM727 1802h256l-235 -235h-226l-235 235h256l92 -133z" />
    <glyph glyph-name="uni022E" unicode="&#x22e;" horiz-adv-x="1597" 
d="M92 717q0 213 88.5 383t250 267t368.5 97t368.5 -97t249.5 -267t88 -383q0 -160 -51.5 -298.5t-143.5 -237.5t-224 -155.5t-287 -56.5q-207 0 -368.5 96.5t-250 267t-88.5 384.5zM297 717q0 -112 33 -214.5t94.5 -183t158.5 -128.5t216 -48t216 48t158 128.5t94 183
t33 214.5t-33 214t-94 182.5t-158 128.5t-216 48t-216 -48t-158.5 -128.5t-94.5 -182.5t-33 -214zM700 1802h197v-205h-197v205z" />
    <glyph glyph-name="uni022F" unicode="&#x22f;" horiz-adv-x="1249" 
d="M82 532q0 243 150.5 403.5t392.5 160.5t392 -160.5t150 -403.5t-150 -403t-392 -160t-392.5 160t-150.5 403zM971 532q0 109 -39 199t-119 145.5t-188 55.5t-188 -55.5t-119 -145.5t-39 -199q0 -169 92.5 -284t253.5 -115t253.5 115t92.5 284zM526 1434h197v-205h-197
v205z" />
    <glyph glyph-name="uni0232" unicode="&#x232;" horiz-adv-x="1220" 
d="M508 573l-481 861h229l354 -676l355 676h229l-481 -861v-573h-205v573zM272 1772h676v-154h-676v154z" />
    <glyph glyph-name="uni0233" unicode="&#x233;" horiz-adv-x="1052" 
d="M434 0l-401 1065h209l172 -471q44 -115 108 -361h10q53 188 119 361l172 471h203l-432 -1165q-25 -67 -53.5 -113t-73 -83t-110.5 -55t-156 -18h-115v160h104q94 0 144 35t86 133zM190 1403h676v-154h-676v154z" />
    <glyph glyph-name="uni0237" unicode="&#x237;" horiz-adv-x="503" 
d="M158 1065h196v-1157q0 -138 -79.5 -207.5t-229.5 -69.5h-92v160h82q68 0 95.5 27t27.5 90v1157z" />
    <glyph glyph-name="uni0244" unicode="&#x244;" horiz-adv-x="1515" 
d="M31 838h153v596h205v-596h737v596h205v-596h154v-164h-154v-162q0 -235 -155 -389t-418 -154t-418.5 154t-155.5 389v162h-153v164zM758 143q170 0 269 99.5t99 269.5v162h-737v-162q0 -170 99.5 -269.5t269.5 -99.5z" />
    <glyph glyph-name="uni0259" unicode="&#x259;" horiz-adv-x="1193" 
d="M96 788q56 144 182 226t310 82q160 0 280 -75t181 -202t61 -287q0 -159 -63.5 -287t-183.5 -202t-275 -74q-185 0 -304.5 95t-172.5 262q-35 112 -35 258v20h837q-8 139 -94 238.5t-231 99.5q-111 0 -179.5 -42.5t-95.5 -111.5h-217zM588 123q99 0 172.5 46.5t110.5 119
t42 162.5h-641q5 -144 87 -236t229 -92z" />
    <glyph glyph-name="uni025B" unicode="&#x25b;" horiz-adv-x="1046" 
d="M989 297q-10 -65 -43.5 -122.5t-89 -104.5t-142.5 -74t-194 -27q-204 0 -321 84t-117 236q0 182 188 252q-70 36 -115.5 97.5t-45.5 145.5q0 141 113 226.5t306 85.5q191 0 306.5 -88.5t128.5 -219.5h-195q-14 64 -72 109t-170 45q-118 0 -171.5 -46.5t-53.5 -117.5
q0 -78 59 -121t158 -43h113v-155h-113q-130 0 -187 -46t-57 -120q0 -79 65 -124.5t181 -45.5q129 0 194 50t79 124h196z" />
    <glyph glyph-name="uni0263" unicode="&#x263;" horiz-adv-x="1060" 
d="M631 180q67 -141 92 -211.5t25 -128.5q0 -89 -60.5 -149t-161.5 -60t-161 59t-60 148q0 19 2 36t8.5 40t11 38.5t18 48t21 50.5t28.5 64.5t32 72.5l-408 877h205l158 -358q99 -218 145 -361h9q46 143 145 361l158 358h204zM528 16q-51 -125 -51 -176q0 -35 13.5 -54
t37.5 -19t38 19t14 54q0 49 -52 176z" />
    <glyph glyph-name="uni0268" unicode="&#x268;" horiz-adv-x="495" 
d="M12 649h138v416h196v-416h137v-153h-137v-496h-196v496h-138v153zM150 1434h196v-205h-196v205z" />
    <glyph glyph-name="uni0272" unicode="&#x272;" horiz-adv-x="1222" 
d="M643 932q-129 0 -213 -86.5t-84 -241.5v-696q0 -138 -79.5 -207.5t-229.5 -69.5h-92v160h82q68 0 95.5 27t27.5 90v1157h196v-143q53 85 145 129.5t203 44.5q187 0 288 -105t101 -305v-686h-196v666q0 133 -58.5 199.5t-185.5 66.5z" />
    <glyph glyph-name="uni0289" unicode="&#x289;" horiz-adv-x="1269" 
d="M51 649h127v416h197v-416h530v416h197v-416h127v-153h-127v-496h-197v133q-45 -83 -134.5 -123.5t-203.5 -40.5q-187 0 -288 105t-101 305v117h-127v153zM618 133q127 0 207 86t80 242v35h-530v-97q0 -133 58 -199.5t185 -66.5z" />
    <glyph glyph-name="circumflex" unicode="&#x2c6;" horiz-adv-x="778" 
d="M389 1331l-92 -133h-256l235 236h226l235 -236h-256z" />
    <glyph glyph-name="caron" unicode="&#x2c7;" horiz-adv-x="778" 
d="M481 1434h256l-235 -236h-226l-235 236h256l92 -134z" />
    <glyph glyph-name="breve" unicode="&#x2d8;" horiz-adv-x="778" 
d="M389 1178q-136 0 -224 79t-106 207h146q38 -133 184 -133t184 133h146q-18 -128 -106 -207t-224 -79z" />
    <glyph glyph-name="dotaccent" unicode="&#x2d9;" horiz-adv-x="401" 
d="M102 1434h197v-205h-197v205z" />
    <glyph glyph-name="ring" unicode="&#x2da;" horiz-adv-x="655" 
d="M461 1403q0 57 -38 95t-95 38t-95 -38t-38 -95t38 -95t95 -38t95 38t38 95zM594 1403q0 -106 -75.5 -176t-190.5 -70t-191 70t-76 176t76 176t191 70t190.5 -70t75.5 -176z" />
    <glyph glyph-name="ogonek" unicode="&#x2db;" horiz-adv-x="460" 
d="M338 -287q46 0 92 13l-55 -142q-43 -14 -99 -14q-101 0 -168 57t-67 148q0 153 164 235l205 -10q-99 -54 -142 -100t-43 -97q0 -49 33.5 -69.5t79.5 -20.5z" />
    <glyph glyph-name="tilde" unicode="&#x2dc;" horiz-adv-x="901" 
d="M72 1208q0 117 68 181.5t167 64.5q48 0 97.5 -21t82.5 -45.5t68.5 -45.5t58.5 -21q36 0 54 25.5t18 66.5h143q0 -117 -68 -181.5t-167 -64.5q-48 0 -97.5 21t-82.5 45.5t-68.5 45.5t-58.5 21q-36 0 -54 -25.5t-18 -66.5h-143z" />
    <glyph glyph-name="hungarumlaut" unicode="&#x2dd;" horiz-adv-x="952" 
d="M256 1434h236l-185 -236h-184zM594 1434h235l-184 -236h-184z" />
    <glyph glyph-name="gravecomb" unicode="&#x300;" horiz-adv-x="0" 
d="M-297 1198h-195l-235 236h266z" />
    <glyph glyph-name="acutecomb" unicode="&#x301;" horiz-adv-x="0" 
d="M-563 1434h266l-235 -236h-195z" />
    <glyph glyph-name="uni0302" unicode="&#x302;" horiz-adv-x="0" 
d="M-512 1331l-92 -133h-256l235 236h226l235 -236h-256z" />
    <glyph glyph-name="tildecomb" unicode="&#x303;" horiz-adv-x="0" 
d="M-891 1208q0 117 68.5 181.5t167.5 64.5q48 0 97.5 -21t82.5 -45.5t68.5 -45.5t58.5 -21q36 0 54 25.5t18 66.5h143q0 -117 -68.5 -181.5t-167.5 -64.5q-48 0 -97.5 21t-82.5 45.5t-68.5 45.5t-58.5 21q-36 0 -54 -25.5t-18 -66.5h-143z" />
    <glyph glyph-name="uni0304" unicode="&#x304;" horiz-adv-x="0" 
d="M-850 1403h676v-154h-676v154z" />
    <glyph glyph-name="uni0306" unicode="&#x306;" horiz-adv-x="0" 
d="M-512 1178q-136 0 -224 79t-106 207h146q38 -133 184 -133t184 133h146q-18 -128 -106 -207t-224 -79z" />
    <glyph glyph-name="uni0307" unicode="&#x307;" horiz-adv-x="0" 
d="M-610 1434h196v-205h-196v205z" />
    <glyph glyph-name="uni0308" unicode="&#x308;" horiz-adv-x="0" 
d="M-819 1434h196v-205h-196v205zM-401 1434h196v-205h-196v205z" />
    <glyph glyph-name="uni030A" unicode="&#x30a;" horiz-adv-x="0" 
d="M-379 1403q0 57 -38 95t-95 38t-95 -38t-38 -95t38 -95t95 -38t95 38t38 95zM-246 1403q0 -106 -75.5 -176t-190.5 -70t-190.5 70t-75.5 176t75.5 176t190.5 70t190.5 -70t75.5 -176z" />
    <glyph glyph-name="uni030B" unicode="&#x30b;" horiz-adv-x="0" 
d="M-731 1434h235l-184 -236h-184zM-393 1434h235l-184 -236h-184z" />
    <glyph glyph-name="uni030C" unicode="&#x30c;" horiz-adv-x="0" 
d="M-420 1434h256l-235 -236h-226l-235 236h256l92 -134z" />
    <glyph glyph-name="uni0312" unicode="&#x312;" horiz-adv-x="0" 
d="M-418 1198h-196v205l133 205h73l-92 -205h82v-205z" />
    <glyph glyph-name="uni0313" unicode="&#x313;" horiz-adv-x="0" 
d="M-584 1434h205l-113 -379h-153z" />
    <glyph glyph-name="dotbelowcomb" unicode="&#x323;" horiz-adv-x="0" 
d="M-610 -133h196v-205h-196v205z" />
    <glyph glyph-name="uni0326" unicode="&#x326;" horiz-adv-x="0" 
d="M-604 -113h196v-204l-133 -205h-73l92 205h-82v204z" />
    <glyph glyph-name="uni0327" unicode="&#x327;" horiz-adv-x="0" 
d="M-516 -338q35 0 58.5 23.5t23.5 58.5t-23.5 58.5t-58.5 23.5q-34 0 -59 -25l-78 78l151 152h156l-121 -121q71 -4 113.5 -50t42.5 -116q0 -78 -60 -131t-145 -53q-73 0 -128 40.5t-67 102.5h129q15 -41 66 -41z" />
    <glyph glyph-name="uni0328" unicode="&#x328;" horiz-adv-x="0" 
d="M-410 -287q48 0 93 13l-56 -142q-43 -14 -98 -14q-101 0 -168.5 57t-67.5 148q0 153 164 235l205 -10q-99 -54 -141.5 -100t-42.5 -97q0 -49 33 -69.5t79 -20.5z" />
    <glyph glyph-name="uni032E" unicode="&#x32e;" horiz-adv-x="0" 
d="M-512 -446q-136 0 -224 79t-106 207h146q38 -133 184 -133t184 133h146q-18 -128 -106 -207t-224 -79z" />
    <glyph glyph-name="uni0331" unicode="&#x331;" horiz-adv-x="0" 
d="M-850 -160h676v-153h-676v153z" />
    <glyph glyph-name="anoteleia" unicode="&#x387;" horiz-adv-x="507" 
d="M131 676h246v-277h-246v277z" />
    <glyph glyph-name="uni0394" unicode="&#x394;" horiz-adv-x="1183" 
d="M57 164l441 1270h188l440 -1270v-164h-1069v164zM264 164h656l-328 993z" />
    <glyph glyph-name="uni03A9" unicode="&#x3a9;" horiz-adv-x="1445" 
d="M723 1300q-104 0 -186 -41t-132 -112t-76 -162t-26 -197q0 -205 92 -344.5t246 -167.5v-276h-504v164h340v10q-182 68 -276.5 232.5t-94.5 392.5q0 299 169.5 482t447.5 183t447 -182.5t169 -482.5q0 -228 -94 -393t-276 -232v-10h340v-164h-504v276q154 29 246 168
t92 344q0 106 -26 197t-76 162t-132 112t-186 41z" />
    <glyph glyph-name="uni03BC" unicode="&#x3bc;" horiz-adv-x="1241" 
d="M895 82q-99 -113 -274 -113q-176 0 -275 113v-451h-196v1434h196v-666q0 -122 70 -194t205 -72q130 0 202 71t72 195v666h197v-1065h-197v82z" />
    <glyph glyph-name="pi" unicode="&#x3c0;" horiz-adv-x="1146" 
d="M756 901h-365v-901h-196v901h-123v164h1003v-164h-123v-901h-196v901z" />
    <glyph glyph-name="uni1E02" unicode="&#x1e02;" horiz-adv-x="1443" 
d="M184 0v1434h676q195 0 312.5 -101.5t117.5 -277.5q0 -203 -174 -297q225 -98 225 -359q0 -183 -121 -291t-319 -108h-717zM891 174q129 0 187.5 64t58.5 172t-63 176.5t-193 68.5h-492v-481h502zM840 829q121 0 183 56.5t62 158.5q0 103 -57.5 159.5t-177.5 56.5h-461
v-431h451zM608 1802h197v-205h-197v205z" />
    <glyph glyph-name="uni1E03" unicode="&#x1e03;" horiz-adv-x="1273" 
d="M336 532q0 -110 36.5 -199t112 -144.5t179.5 -55.5q156 0 241.5 111.5t85.5 287.5q0 114 -36 203t-111.5 143t-179.5 54t-179.5 -56t-112 -145t-36.5 -199zM346 0h-196v1434h196v-512q49 81 138.5 127.5t209.5 46.5q116 0 211 -45t156 -122.5t94 -179.5t33 -217
t-33 -216.5t-94 -179t-156 -122.5t-211 -45q-120 0 -209.5 46.5t-138.5 127.5v-143zM598 1434h197v-205h-197v205z" />
    <glyph glyph-name="uni1E0A" unicode="&#x1e0a;" horiz-adv-x="1478" 
d="M1382 717q0 -340 -183 -528.5t-513 -188.5h-502v1434h502q329 0 512.5 -189.5t183.5 -527.5zM389 174h277q250 0 381 143t131 400t-131 400t-381 143h-277v-1086zM639 1802h197v-205h-197v205z" />
    <glyph glyph-name="uni1E0B" unicode="&#x1e0b;" horiz-adv-x="1271" 
d="M936 532q0 110 -36.5 199t-112 145t-179.5 56t-179.5 -54t-111.5 -143t-36 -203q0 -176 85.5 -287.5t241.5 -111.5q104 0 179.5 55.5t112 144.5t36.5 199zM926 143q-49 -81 -138.5 -127.5t-209.5 -46.5q-116 0 -211 45t-156 122.5t-94 179t-33 216.5t33 217t94 179.5
t156 122.5t211 45q120 0 209.5 -46.5t138.5 -127.5v512h196v-1434h-196v143zM475 1434h197v-205h-197v205z" />
    <glyph glyph-name="uni1E0C" unicode="&#x1e0c;" horiz-adv-x="1478" 
d="M1382 717q0 -340 -183 -528.5t-513 -188.5h-502v1434h502q329 0 512.5 -189.5t183.5 -527.5zM389 174h277q250 0 381 143t131 400t-131 400t-381 143h-277v-1086zM618 -133h197v-205h-197v205z" />
    <glyph glyph-name="uni1E0D" unicode="&#x1e0d;" horiz-adv-x="1271" 
d="M936 532q0 110 -36.5 199t-112 145t-179.5 56t-179.5 -54t-111.5 -143t-36 -203q0 -176 85.5 -287.5t241.5 -111.5q104 0 179.5 55.5t112 144.5t36.5 199zM926 143q-49 -81 -138.5 -127.5t-209.5 -46.5q-116 0 -211 45t-156 122.5t-94 179t-33 216.5t33 217t94 179.5
t156 122.5t211 45q120 0 209.5 -46.5t138.5 -127.5v512h196v-1434h-196v143zM547 -133h196v-205h-196v205z" />
    <glyph glyph-name="uni1E0E" unicode="&#x1e0e;" horiz-adv-x="1478" 
d="M1382 717q0 -340 -183 -528.5t-513 -188.5h-502v1434h502q329 0 512.5 -189.5t183.5 -527.5zM389 174h277q250 0 381 143t131 400t-131 400t-381 143h-277v-1086zM379 -160h676v-153h-676v153z" />
    <glyph glyph-name="uni1E0F" unicode="&#x1e0f;" horiz-adv-x="1271" 
d="M936 532q0 110 -36.5 199t-112 145t-179.5 56t-179.5 -54t-111.5 -143t-36 -203q0 -176 85.5 -287.5t241.5 -111.5q104 0 179.5 55.5t112 144.5t36.5 199zM926 143q-49 -81 -138.5 -127.5t-209.5 -46.5q-116 0 -211 45t-156 122.5t-94 179t-33 216.5t33 217t94 179.5
t156 122.5t211 45q120 0 209.5 -46.5t138.5 -127.5v512h196v-1434h-196v143zM307 -160h676v-153h-676v153z" />
    <glyph glyph-name="uni1E10" unicode="&#x1e10;" horiz-adv-x="1478" 
d="M1382 717q0 -340 -183 -528.5t-513 -188.5h-502v1434h502q329 0 512.5 -189.5t183.5 -527.5zM389 174h277q250 0 381 143t131 400t-131 400t-381 143h-277v-1086zM621 -113h196v-204l-133 -205h-74l92 205h-81v204z" />
    <glyph glyph-name="uni1E11" unicode="&#x1e11;" horiz-adv-x="1271" 
d="M936 532q0 110 -36.5 199t-112 145t-179.5 56t-179.5 -54t-111.5 -143t-36 -203q0 -176 85.5 -287.5t241.5 -111.5q104 0 179.5 55.5t112 144.5t36.5 199zM926 143q-49 -81 -138.5 -127.5t-209.5 -46.5q-116 0 -211 45t-156 122.5t-94 179t-33 216.5t33 217t94 179.5
t156 122.5t211 45q120 0 209.5 -46.5t138.5 -127.5v512h196v-1434h-196v143zM549 -113h196v-204l-133 -205h-73l92 205h-82v204z" />
    <glyph glyph-name="uni1E1E" unicode="&#x1e1e;" horiz-adv-x="1261" 
d="M184 1434h1004v-174h-799v-451h758v-174h-758v-635h-205v1434zM598 1802h197v-205h-197v205z" />
    <glyph glyph-name="uni1E1F" unicode="&#x1e1f;" horiz-adv-x="780" 
d="M27 1065h256v113q0 256 276 256h197v-160h-185q-53 0 -72.5 -20.5t-19.5 -75.5v-113h277v-164h-277v-901h-196v901h-256v164zM393 1802h197v-205h-197v205z" />
    <glyph glyph-name="uni1E20" unicode="&#x1e20;" horiz-adv-x="1540" 
d="M799 1290q-99 0 -182 -31.5t-141 -85.5t-99 -127t-60.5 -156t-19.5 -173q0 -113 31.5 -214.5t92 -182.5t158.5 -129t220 -48q114 0 200 39.5t134.5 105t72 140.5t23.5 156h-451v174h645v-758h-153l-21 174q-62 -89 -173 -147t-277 -58q-211 0 -373 97t-248 266.5
t-86 384.5q0 214 86 383.5t248 266.5t373 97q222 0 372 -100.5t222 -278.5h-224q-108 205 -370 205zM471 1772h676v-154h-676v154z" />
    <glyph glyph-name="uni1E21" unicode="&#x1e21;" horiz-adv-x="1261" 
d="M926 553q0 160 -89.5 269.5t-238.5 109.5q-142 0 -229.5 -110t-87.5 -269t87.5 -269t229.5 -110q149 0 238.5 109.5t89.5 269.5zM915 164q-44 -60 -128.5 -107t-208.5 -47q-147 0 -260.5 74t-173.5 197t-60 272t60 272t173.5 197t260.5 74q124 0 209 -47.5t128 -106.5
v123h197v-952q0 -248 -133.5 -380t-370.5 -132q-176 0 -299.5 84t-152.5 223h204q13 -62 78 -108t170 -46q307 0 307 359v51zM338 1403h676v-154h-676v154z" />
    <glyph glyph-name="uni1E22" unicode="&#x1e22;" horiz-adv-x="1536" 
d="M1352 0h-205v655h-758v-655h-205v1434h205v-605h758v605h205v-1434zM670 1802h196v-205h-196v205z" />
    <glyph glyph-name="uni1E23" unicode="&#x1e23;" horiz-adv-x="1224" 
d="M346 922q53 85 145 129.5t203 44.5q187 0 289 -105t102 -305v-686h-196v666q0 133 -59 199.5t-187 66.5q-129 0 -213 -86.5t-84 -241.5v-604h-196v1434h196v-512zM537 1802h196v-205h-196v205z" />
    <glyph glyph-name="uni1E24" unicode="&#x1e24;" horiz-adv-x="1536" 
d="M1352 0h-205v655h-758v-655h-205v1434h205v-605h758v605h205v-1434zM670 -133h196v-205h-196v205z" />
    <glyph glyph-name="uni1E25" unicode="&#x1e25;" horiz-adv-x="1224" 
d="M346 922q53 85 145 129.5t203 44.5q187 0 289 -105t102 -305v-686h-196v666q0 133 -59 199.5t-187 66.5q-129 0 -213 -86.5t-84 -241.5v-604h-196v1434h196v-512zM518 -133h197v-205h-197v205z" />
    <glyph glyph-name="uni1E2A" unicode="&#x1e2a;" horiz-adv-x="1536" 
d="M1352 0h-205v655h-758v-655h-205v1434h205v-605h758v605h205v-1434zM768 -446q-136 0 -224 79t-106 207h146q38 -133 184 -133t184 133h146q-18 -128 -106 -207t-224 -79z" />
    <glyph glyph-name="uni1E2B" unicode="&#x1e2b;" horiz-adv-x="1224" 
d="M346 922q53 85 145 129.5t203 44.5q187 0 289 -105t102 -305v-686h-196v666q0 133 -59 199.5t-187 66.5q-129 0 -213 -86.5t-84 -241.5v-604h-196v1434h196v-512zM616 -446q-136 0 -223.5 79t-105.5 207h145q38 -133 184 -133q147 0 185 133h145q-18 -128 -106 -207
t-224 -79z" />
    <glyph glyph-name="uni1E36" unicode="&#x1e36;" horiz-adv-x="1177" 
d="M184 1434h205v-1260h758v-174h-963v1434zM567 -133h197v-205h-197v205z" />
    <glyph glyph-name="uni1E37" unicode="&#x1e37;" horiz-adv-x="495" 
d="M150 1434h196v-1434h-196v1434zM150 -133h196v-205h-196v205z" />
    <glyph glyph-name="uni1E38" unicode="&#x1e38;" horiz-adv-x="1177" 
d="M184 1434h205v-1260h758v-174h-963v1434zM567 -133h197v-205h-197v205zM322 1772h675v-154h-675v154z" />
    <glyph glyph-name="uni1E39" unicode="&#x1e39;" horiz-adv-x="495" 
d="M150 1434h196v-1434h-196v1434zM150 -133h196v-205h-196v205zM-90 1772h676v-154h-676v154z" />
    <glyph glyph-name="uni1E3A" unicode="&#x1e3a;" horiz-adv-x="1177" 
d="M184 1434h205v-1260h758v-174h-963v1434zM328 -160h676v-153h-676v153z" />
    <glyph glyph-name="uni1E3B" unicode="&#x1e3b;" horiz-adv-x="495" 
d="M150 1434h196v-1434h-196v1434zM-90 -160h676v-153h-676v153z" />
    <glyph glyph-name="uni1E3E" unicode="&#x1e3e;" horiz-adv-x="1822" 
d="M911 399q85 200 183 389l319 646h225v-1434h-204v686q0 256 16 410h-8q-10 -24 -41 -96.5t-44 -103t-38.5 -85t-50.5 -104.5l-357 -707l-356 707q-25 50 -50.5 104.5t-38.5 85t-44 103t-41 96.5h-8q16 -154 16 -410v-686h-205v1434h226l319 -646q144 -301 182 -389z
M942 1802h266l-235 -235h-195z" />
    <glyph glyph-name="uni1E3F" unicode="&#x1e3f;" horiz-adv-x="1878" 
d="M346 942q84 154 307 154q112 0 202 -47.5t136 -137.5q101 185 359 185q175 0 282 -102.5t107 -297.5v-696h-197v666q0 133 -56 199.5t-177 66.5q-52 0 -98 -16.5t-85 -50.5t-61.5 -93.5t-22.5 -136.5v-635h-196v666q0 133 -56.5 199.5t-177.5 66.5q-111 0 -188.5 -73.5
t-77.5 -223.5v-635h-196v1065h196v-123zM1010 1434h266l-236 -236h-194z" />
    <glyph glyph-name="uni1E40" unicode="&#x1e40;" horiz-adv-x="1822" 
d="M911 399q85 200 183 389l319 646h225v-1434h-204v686q0 256 16 410h-8q-10 -24 -41 -96.5t-44 -103t-38.5 -85t-50.5 -104.5l-357 -707l-356 707q-25 50 -50.5 104.5t-38.5 85t-44 103t-41 96.5h-8q16 -154 16 -410v-686h-205v1434h226l319 -646q144 -301 182 -389z
M813 1802h197v-205h-197v205z" />
    <glyph glyph-name="uni1E41" unicode="&#x1e41;" horiz-adv-x="1878" 
d="M346 942q84 154 307 154q112 0 202 -47.5t136 -137.5q101 185 359 185q175 0 282 -102.5t107 -297.5v-696h-197v666q0 133 -56 199.5t-177 66.5q-52 0 -98 -16.5t-85 -50.5t-61.5 -93.5t-22.5 -136.5v-635h-196v666q0 133 -56.5 199.5t-177.5 66.5q-111 0 -188.5 -73.5
t-77.5 -223.5v-635h-196v1065h196v-123zM846 1434h196v-205h-196v205z" />
    <glyph glyph-name="uni1E42" unicode="&#x1e42;" horiz-adv-x="1822" 
d="M911 399q85 200 183 389l319 646h225v-1434h-204v686q0 256 16 410h-8q-10 -24 -41 -96.5t-44 -103t-38.5 -85t-50.5 -104.5l-357 -707l-356 707q-25 50 -50.5 104.5t-38.5 85t-44 103t-41 96.5h-8q16 -154 16 -410v-686h-205v1434h226l319 -646q144 -301 182 -389z
M813 -133h197v-205h-197v205z" />
    <glyph glyph-name="uni1E43" unicode="&#x1e43;" horiz-adv-x="1878" 
d="M346 942q84 154 307 154q112 0 202 -47.5t136 -137.5q101 185 359 185q175 0 282 -102.5t107 -297.5v-696h-197v666q0 133 -56 199.5t-177 66.5q-52 0 -98 -16.5t-85 -50.5t-61.5 -93.5t-22.5 -136.5v-635h-196v666q0 133 -56.5 199.5t-177.5 66.5q-111 0 -188.5 -73.5
t-77.5 -223.5v-635h-196v1065h196v-123zM846 -133h196v-205h-196v205z" />
    <glyph glyph-name="uni1E44" unicode="&#x1e44;" horiz-adv-x="1556" 
d="M664 711q-175 247 -277 426h-8q10 -131 10 -451v-686h-205v1434h215l494 -711q169 -240 276 -426h9q-11 144 -11 451v686h205v-1434h-215zM680 1802h197v-205h-197v205z" />
    <glyph glyph-name="uni1E45" unicode="&#x1e45;" horiz-adv-x="1222" 
d="M346 922q53 85 145 129.5t203 44.5q187 0 288 -105t101 -305v-686h-196v666q0 133 -58.5 199.5t-185.5 66.5q-129 0 -213 -86.5t-84 -241.5v-604h-196v1065h196v-143zM537 1434h196v-205h-196v205z" />
    <glyph glyph-name="uni1E46" unicode="&#x1e46;" horiz-adv-x="1556" 
d="M664 711q-175 247 -277 426h-8q10 -131 10 -451v-686h-205v1434h215l494 -711q169 -240 276 -426h9q-11 144 -11 451v686h205v-1434h-215zM680 -133h197v-205h-197v205z" />
    <glyph glyph-name="uni1E47" unicode="&#x1e47;" horiz-adv-x="1222" 
d="M346 922q53 85 145 129.5t203 44.5q187 0 288 -105t101 -305v-686h-196v666q0 133 -58.5 199.5t-185.5 66.5q-129 0 -213 -86.5t-84 -241.5v-604h-196v1065h196v-143zM518 -133h197v-205h-197v205z" />
    <glyph glyph-name="uni1E48" unicode="&#x1e48;" horiz-adv-x="1556" 
d="M664 711q-175 247 -277 426h-8q10 -131 10 -451v-686h-205v1434h215l494 -711q169 -240 276 -426h9q-11 144 -11 451v686h205v-1434h-215zM440 -160h676v-153h-676v153z" />
    <glyph glyph-name="uni1E49" unicode="&#x1e49;" horiz-adv-x="1222" 
d="M346 922q53 85 145 129.5t203 44.5q187 0 288 -105t101 -305v-686h-196v666q0 133 -58.5 199.5t-185.5 66.5q-129 0 -213 -86.5t-84 -241.5v-604h-196v1065h196v-143zM279 -160h675v-153h-675v153z" />
    <glyph glyph-name="uni1E56" unicode="&#x1e56;" horiz-adv-x="1386" 
d="M389 614v-614h-205v1434h686q217 0 339 -109t122 -301t-122 -301t-339 -109h-481zM870 788q127 0 191.5 62t64.5 174t-64.5 174t-191.5 62h-481v-472h481zM639 1802h197v-205h-197v205z" />
    <glyph glyph-name="uni1E57" unicode="&#x1e57;" horiz-adv-x="1273" 
d="M336 532q0 -110 36.5 -199t112 -144.5t179.5 -55.5q156 0 241.5 111.5t85.5 287.5q0 114 -36 203t-111.5 143t-179.5 54t-179.5 -56t-112 -145t-36.5 -199zM346 922q49 81 138.5 127.5t209.5 46.5q116 0 211 -45t156 -122.5t94 -179.5t33 -217t-33 -216.5t-94 -179
t-156 -122.5t-211 -45q-120 0 -209.5 46.5t-138.5 127.5v-512h-196v1434h196v-143zM588 1434h196v-205h-196v205z" />
    <glyph glyph-name="uni1E5A" unicode="&#x1e5a;" horiz-adv-x="1423" 
d="M870 788q127 0 191.5 62t64.5 174t-64.5 174t-191.5 62h-481v-472h481zM768 614l614 -614h-276l-604 614h-113v-614h-205v1434h686q217 0 339 -109t122 -301t-122 -301t-339 -109h-102zM639 -133h197v-205h-197v205z" />
    <glyph glyph-name="uni1E5B" unicode="&#x1e5b;" horiz-adv-x="727" 
d="M582 901q-113 0 -174.5 -65.5t-61.5 -200.5v-635h-196v1065h196v-123q40 72 107 107.5t180 35.5h55v-184h-106zM150 -133h196v-205h-196v205z" />
    <glyph glyph-name="uni1E5C" unicode="&#x1e5c;" horiz-adv-x="1423" 
d="M870 788q127 0 191.5 62t64.5 174t-64.5 174t-191.5 62h-481v-472h481zM768 614l614 -614h-276l-604 614h-113v-614h-205v1434h686q217 0 339 -109t122 -301t-122 -301t-339 -109h-102zM639 -133h197v-205h-197v205zM379 1772h676v-154h-676v154z" />
    <glyph glyph-name="uni1E5D" unicode="&#x1e5d;" horiz-adv-x="727" 
d="M582 901q-113 0 -174.5 -65.5t-61.5 -200.5v-635h-196v1065h196v-123q40 72 107 107.5t180 35.5h55v-184h-106zM150 -133h196v-205h-196v205zM92 1403h676v-154h-676v154z" />
    <glyph glyph-name="uni1E5E" unicode="&#x1e5e;" horiz-adv-x="1423" 
d="M870 788q127 0 191.5 62t64.5 174t-64.5 174t-191.5 62h-481v-472h481zM768 614l614 -614h-276l-604 614h-113v-614h-205v1434h686q217 0 339 -109t122 -301t-122 -301t-339 -109h-102zM399 -160h676v-153h-676v153z" />
    <glyph glyph-name="uni1E5F" unicode="&#x1e5f;" horiz-adv-x="727" 
d="M582 901q-113 0 -174.5 -65.5t-61.5 -200.5v-635h-196v1065h196v-123q40 72 107 107.5t180 35.5h55v-184h-106zM-90 -160h676v-153h-676v153z" />
    <glyph glyph-name="uni1E60" unicode="&#x1e60;" horiz-adv-x="1320" 
d="M664 1464q112 0 203.5 -23.5t151 -61t101.5 -88.5t61.5 -102t24.5 -104h-209q-8 95 -89.5 156.5t-243.5 61.5q-180 0 -267.5 -64t-87.5 -164q0 -110 75.5 -166t221.5 -78l164 -24q88 -14 156.5 -33.5t128 -52.5t98.5 -77t61.5 -107t22.5 -142q0 -190 -150.5 -308
t-422.5 -118q-140 0 -251.5 32.5t-182 89t-108.5 130t-42 158.5h205q6 -120 102 -184t277 -64q176 0 273 67.5t97 180.5q0 49 -15 85t-37.5 58.5t-65.5 40t-82.5 26.5t-104.5 21l-164 27q-454 69 -454 424q0 84 34.5 156.5t101 128t173.5 87t244 31.5zM567 1802h197v-205
h-197v205z" />
    <glyph glyph-name="uni1E61" unicode="&#x1e61;" horiz-adv-x="1067" 
d="M475 451q-379 57 -379 331q0 141 115.5 227.5t325.5 86.5q107 0 190.5 -27.5t133 -73t76 -98t30.5 -109.5h-193q-5 72 -66.5 115t-175.5 43q-122 0 -181.5 -40.5t-59.5 -106.5q0 -73 52.5 -106t166.5 -52l98 -14q69 -11 121 -25t103 -39t83 -59.5t52 -87t20 -119.5
q0 -150 -119 -239t-331 -89q-215 0 -335.5 91t-125.5 237h198q9 -176 263 -176q125 0 190.5 42.5t65.5 117.5q0 32 -11 57t-29.5 41t-48 27.5t-60 18t-73.5 11.5zM438 1434h197v-205h-197v205z" />
    <glyph glyph-name="uni1E62" unicode="&#x1e62;" horiz-adv-x="1320" 
d="M664 1464q112 0 203.5 -23.5t151 -61t101.5 -88.5t61.5 -102t24.5 -104h-209q-8 95 -89.5 156.5t-243.5 61.5q-180 0 -267.5 -64t-87.5 -164q0 -110 75.5 -166t221.5 -78l164 -24q88 -14 156.5 -33.5t128 -52.5t98.5 -77t61.5 -107t22.5 -142q0 -190 -150.5 -308
t-422.5 -118q-140 0 -251.5 32.5t-182 89t-108.5 130t-42 158.5h205q6 -120 102 -184t277 -64q176 0 273 67.5t97 180.5q0 49 -15 85t-37.5 58.5t-65.5 40t-82.5 26.5t-104.5 21l-164 27q-454 69 -454 424q0 84 34.5 156.5t101 128t173.5 87t244 31.5zM567 -133h197v-205
h-197v205z" />
    <glyph glyph-name="uni1E63" unicode="&#x1e63;" horiz-adv-x="1067" 
d="M475 451q-379 57 -379 331q0 141 115.5 227.5t325.5 86.5q107 0 190.5 -27.5t133 -73t76 -98t30.5 -109.5h-193q-5 72 -66.5 115t-175.5 43q-122 0 -181.5 -40.5t-59.5 -106.5q0 -73 52.5 -106t166.5 -52l98 -14q69 -11 121 -25t103 -39t83 -59.5t52 -87t20 -119.5
q0 -150 -119 -239t-331 -89q-215 0 -335.5 91t-125.5 237h198q9 -176 263 -176q125 0 190.5 42.5t65.5 117.5q0 32 -11 57t-29.5 41t-48 27.5t-60 18t-73.5 11.5zM434 -133h197v-205h-197v205z" />
    <glyph glyph-name="uni1E6A" unicode="&#x1e6a;" horiz-adv-x="1224" 
d="M1196 1260h-481v-1260h-205v1260h-481v174h1167v-174zM514 1802h197v-205h-197v205z" />
    <glyph glyph-name="uni1E6B" unicode="&#x1e6b;" horiz-adv-x="811" 
d="M281 901h-256v164h256v246h196v-246h277v-164h-277v-645q0 -55 19.5 -75.5t72.5 -20.5h185v-160h-226q-134 0 -190.5 63.5t-56.5 192.5v645zM281 1802h196v-205h-196v205z" />
    <glyph glyph-name="uni1E6C" unicode="&#x1e6c;" horiz-adv-x="1224" 
d="M1196 1260h-481v-1260h-205v1260h-481v174h1167v-174zM514 -133h197v-205h-197v205z" />
    <glyph glyph-name="uni1E6D" unicode="&#x1e6d;" horiz-adv-x="811" 
d="M281 901h-256v164h256v246h196v-246h277v-164h-277v-645q0 -55 19.5 -75.5t72.5 -20.5h185v-160h-226q-134 0 -190.5 63.5t-56.5 192.5v645zM352 -133h197v-205h-197v205z" />
    <glyph glyph-name="uni1E6E" unicode="&#x1e6e;" horiz-adv-x="1224" 
d="M1196 1260h-481v-1260h-205v1260h-481v174h1167v-174zM274 -160h676v-153h-676v153z" />
    <glyph glyph-name="uni1E6F" unicode="&#x1e6f;" horiz-adv-x="811" 
d="M281 901h-256v164h256v246h196v-246h277v-164h-277v-645q0 -55 19.5 -75.5t72.5 -20.5h185v-160h-226q-134 0 -190.5 63.5t-56.5 192.5v645zM113 -160h675v-153h-675v153z" />
    <glyph glyph-name="uni1E7C" unicode="&#x1e7c;" horiz-adv-x="1320" 
d="M526 633q90 -251 131 -408h7q41 157 131 408l290 801h215l-542 -1434h-195l-543 1434h216zM281 1577q0 117 68 181.5t167 64.5q48 0 97.5 -21t82.5 -45.5t68.5 -45.5t58.5 -21q36 0 54 25.5t18 66.5h143q0 -117 -68 -181.5t-167 -64.5q-48 0 -97.5 21t-82.5 45.5
t-68.5 45.5t-58.5 21q-36 0 -54 -25.5t-18 -66.5h-143z" />
    <glyph glyph-name="uni1E7D" unicode="&#x1e7d;" horiz-adv-x="1077" 
d="M27 1065h204l183 -485q51 -132 121 -375h8q70 243 121 375l182 485h205l-420 -1065h-185zM160 1208q0 117 68 181.5t167 64.5q48 0 97.5 -21t82.5 -45.5t68.5 -45.5t58.5 -21q36 0 54 25.5t18 66.5h144q0 -117 -68.5 -181.5t-167.5 -64.5q-48 0 -97.5 21t-82.5 45.5
t-68.5 45.5t-58.5 21q-36 0 -54 -25.5t-18 -66.5h-143z" />
    <glyph glyph-name="Wgrave" unicode="&#x1e80;" horiz-adv-x="1925" 
d="M958 1157q-42 -205 -90 -375l-223 -782h-205l-409 1434h205l208 -762q64 -239 95 -406h8q43 210 98 408l215 760h205l215 -760q55 -198 98 -408h8q31 167 95 406l209 762h204l-409 -1434h-205l-223 782q-48 170 -90 375h-9zM1137 1567h-195l-235 235h266z" />
    <glyph glyph-name="wgrave" unicode="&#x1e81;" horiz-adv-x="1568" 
d="M780 840q-47 -218 -98 -375l-150 -465h-180l-317 1065h198l123 -459q55 -194 84 -381h9q48 216 98 379l143 461h189l143 -461q50 -163 98 -379h8q29 187 84 381l123 459h199l-317 -1065h-181l-149 465q-54 167 -99 375h-8zM958 1198h-194l-236 236h267z" />
    <glyph glyph-name="Wacute" unicode="&#x1e82;" horiz-adv-x="1925" 
d="M958 1157q-42 -205 -90 -375l-223 -782h-205l-409 1434h205l208 -762q64 -239 95 -406h8q43 210 98 408l215 760h205l215 -760q55 -198 98 -408h8q31 167 95 406l209 762h204l-409 -1434h-205l-223 782q-48 170 -90 375h-9zM952 1802h267l-236 -235h-195z" />
    <glyph glyph-name="wacute" unicode="&#x1e83;" horiz-adv-x="1568" 
d="M780 840q-47 -218 -98 -375l-150 -465h-180l-317 1065h198l123 -459q55 -194 84 -381h9q48 216 98 379l143 461h189l143 -461q50 -163 98 -379h8q29 187 84 381l123 459h199l-317 -1065h-181l-149 465q-54 167 -99 375h-8zM774 1434h266l-235 -236h-195z" />
    <glyph glyph-name="Wdieresis" unicode="&#x1e84;" horiz-adv-x="1925" 
d="M958 1157q-42 -205 -90 -375l-223 -782h-205l-409 1434h205l208 -762q64 -239 95 -406h8q43 210 98 408l215 760h205l215 -760q55 -198 98 -408h8q31 167 95 406l209 762h204l-409 -1434h-205l-223 782q-48 170 -90 375h-9zM655 1802h197v-205h-197v205zM1073 1802h197
v-205h-197v205z" />
    <glyph glyph-name="wdieresis" unicode="&#x1e85;" horiz-adv-x="1568" 
d="M780 840q-47 -218 -98 -375l-150 -465h-180l-317 1065h198l123 -459q55 -194 84 -381h9q48 216 98 379l143 461h189l143 -461q50 -163 98 -379h8q29 187 84 381l123 459h199l-317 -1065h-181l-149 465q-54 167 -99 375h-8zM477 1434h197v-205h-197v205zM895 1434h197
v-205h-197v205z" />
    <glyph glyph-name="uni1E8A" unicode="&#x1e8a;" horiz-adv-x="1294" 
d="M649 920l359 514h233l-479 -676l530 -758h-241l-406 588l-409 -588h-234l530 752l-479 682h242zM549 1802h196v-205h-196v205z" />
    <glyph glyph-name="uni1E8B" unicode="&#x1e8b;" horiz-adv-x="1052" 
d="M528 707l250 358h230l-373 -508l403 -557h-237l-277 401l-280 -401h-230l404 551l-373 514h238zM428 1434h197v-205h-197v205z" />
    <glyph glyph-name="uni1E92" unicode="&#x1e92;" horiz-adv-x="1224" 
d="M1159 0h-1085v174l809 1086h-789v174h1034v-174l-809 -1086h840v-174zM518 -133h197v-205h-197v205z" />
    <glyph glyph-name="uni1E93" unicode="&#x1e93;" horiz-adv-x="1048" 
d="M977 164v-164h-901v164l633 737h-613v164h860v-164l-632 -737h653zM428 -133h197v-205h-197v205z" />
    <glyph glyph-name="uni1E97" unicode="&#x1e97;" horiz-adv-x="811" 
d="M281 901h-256v164h256v246h196v-246h277v-164h-277v-645q0 -55 19.5 -75.5t72.5 -20.5h185v-160h-226q-134 0 -190.5 63.5t-56.5 192.5v645zM72 1802h196v-205h-196v205zM489 1802h197v-205h-197v205z" />
    <glyph glyph-name="uni1E9E" unicode="&#x1e9e;" horiz-adv-x="1454" 
d="M563 0v174h328q123 0 194.5 79.5t71.5 186.5q0 119 -64 182.5t-192 63.5h-266v184l389 390h-635v-1260h-205v1434h1076v-195l-388 -379h70q200 0 310 -115t110 -294q0 -193 -125.5 -322t-345.5 -129h-328z" />
    <glyph glyph-name="uni1EA0" unicode="&#x1ea0;" horiz-adv-x="1396" 
d="M1036 338h-676l-133 -338h-215l584 1434h205l583 -1434h-215zM694 1208q-84 -249 -133 -366l-131 -330h537l-131 330q-54 129 -134 366h-8zM600 -133h197v-205h-197v205z" />
    <glyph glyph-name="uni1EA1" unicode="&#x1ea1;" horiz-adv-x="1171" 
d="M498 123q145 0 241.5 91t96.5 247v82l-349 -31q-215 -21 -215 -195q0 -101 62 -147.5t164 -46.5zM127 788q18 136 132.5 222t320.5 86q298 0 401 -174q51 -83 51 -215v-707h-196v133q-53 -70 -145.5 -117t-213.5 -47q-174 0 -287.5 89.5t-113.5 258.5q0 144 97.5 232.5
t293.5 105.5l369 31v21q0 115 -58 175t-198 60q-114 0 -178 -41.5t-72 -112.5h-203zM469 -133h197v-205h-197v205z" />
    <glyph glyph-name="uni1EB8" unicode="&#x1eb8;" horiz-adv-x="1302" 
d="M184 1434h1004v-174h-799v-431h758v-174h-758v-481h799v-174h-1004v1434zM588 -133h196v-205h-196v205z" />
    <glyph glyph-name="uni1EB9" unicode="&#x1eb9;" horiz-adv-x="1196" 
d="M1098 297q-40 -140 -165.5 -234t-316.5 -94q-241 0 -386.5 159.5t-145.5 403.5q0 159 63.5 287t183.5 202.5t275 74.5q185 0 304.5 -95t172.5 -262q35 -112 35 -258v-20h-837q5 -136 97 -237t238 -101q62 0 113 16.5t82.5 43t50.5 55.5t25 59h211zM606 942
q-146 0 -233 -95t-92 -233h641q-8 146 -88 237t-228 91zM518 -133h197v-205h-197v205z" />
    <glyph glyph-name="uni1EBC" unicode="&#x1ebc;" horiz-adv-x="1302" 
d="M184 1434h1004v-174h-799v-431h758v-174h-758v-481h799v-174h-1004v1434zM317 1577q0 117 68.5 181.5t167.5 64.5q48 0 97.5 -21t82.5 -45.5t68.5 -45.5t58.5 -21q36 0 54 25.5t18 66.5h143q0 -117 -68 -181.5t-167 -64.5q-48 0 -98 21t-83 45.5t-68.5 45.5t-58.5 21
q-36 0 -53.5 -25.5t-17.5 -66.5h-144z" />
    <glyph glyph-name="uni1EBD" unicode="&#x1ebd;" horiz-adv-x="1196" 
d="M1098 297q-40 -140 -165.5 -234t-316.5 -94q-241 0 -386.5 159.5t-145.5 403.5q0 159 63.5 287t183.5 202.5t275 74.5q185 0 304.5 -95t172.5 -262q35 -112 35 -258v-20h-837q5 -136 97 -237t238 -101q62 0 113 16.5t82.5 43t50.5 55.5t25 59h211zM606 942
q-146 0 -233 -95t-92 -233h641q-8 146 -88 237t-228 91zM227 1208q0 117 68.5 181.5t167.5 64.5q48 0 97.5 -21t82.5 -45.5t68.5 -45.5t58.5 -21q36 0 54 25.5t18 66.5h143q0 -117 -68 -181.5t-167 -64.5q-48 0 -98 21t-83 45.5t-68.5 45.5t-58.5 21q-36 0 -53.5 -25.5
t-17.5 -66.5h-144z" />
    <glyph glyph-name="uni1ECA" unicode="&#x1eca;" horiz-adv-x="573" 
d="M184 0v1434h205v-1434h-205zM188 -133h197v-205h-197v205z" />
    <glyph glyph-name="uni1ECB" unicode="&#x1ecb;" horiz-adv-x="495" 
d="M150 1065h196v-1065h-196v1065zM150 1434h196v-205h-196v205zM150 -133h196v-205h-196v205z" />
    <glyph glyph-name="uni1ECC" unicode="&#x1ecc;" horiz-adv-x="1597" 
d="M92 717q0 213 88.5 383t250 267t368.5 97t368.5 -97t249.5 -267t88 -383q0 -160 -51.5 -298.5t-143.5 -237.5t-224 -155.5t-287 -56.5q-207 0 -368.5 96.5t-250 267t-88.5 384.5zM297 717q0 -112 33 -214.5t94.5 -183t158.5 -128.5t216 -48t216 48t158 128.5t94 183
t33 214.5t-33 214t-94 182.5t-158 128.5t-216 48t-216 -48t-158.5 -128.5t-94.5 -182.5t-33 -214zM700 -133h197v-205h-197v205z" />
    <glyph glyph-name="uni1ECD" unicode="&#x1ecd;" horiz-adv-x="1249" 
d="M82 532q0 243 150.5 403.5t392.5 160.5t392 -160.5t150 -403.5t-150 -403t-392 -160t-392.5 160t-150.5 403zM971 532q0 109 -39 199t-119 145.5t-188 55.5t-188 -55.5t-119 -145.5t-39 -199q0 -169 92.5 -284t253.5 -115t253.5 115t92.5 284zM526 -133h197v-205h-197
v205z" />
    <glyph glyph-name="uni1EE4" unicode="&#x1ee4;" horiz-adv-x="1482" 
d="M741 -31q-263 0 -418 154t-155 389v922h205v-922q0 -170 99 -269.5t269 -99.5t269.5 99.5t99.5 269.5v922h205v-922q0 -235 -155.5 -389t-418.5 -154zM639 -133h197v-205h-197v205z" />
    <glyph glyph-name="uni1EE5" unicode="&#x1ee5;" horiz-adv-x="1212" 
d="M866 133q-45 -83 -134.5 -123.5t-203.5 -40.5q-187 0 -288 105t-101 305v686h197v-666q0 -133 58.5 -199.5t185.5 -66.5t206.5 85.5t79.5 242.5v604h197v-1065h-197v133zM496 -133h196v-205h-196v205z" />
    <glyph glyph-name="Ygrave" unicode="&#x1ef2;" horiz-adv-x="1220" 
d="M508 573l-481 861h229l354 -676l355 676h229l-481 -861v-573h-205v573zM784 1567h-194l-236 235h267z" />
    <glyph glyph-name="ygrave" unicode="&#x1ef3;" horiz-adv-x="1052" 
d="M698 1198h-194l-236 236h267zM434 0l-401 1065h209l172 -471q44 -115 108 -361h10q53 188 119 361l172 471h203l-432 -1165q-25 -67 -53.5 -113t-73 -83t-110.5 -55t-156 -18h-115v160h104q94 0 144 35t86 133z" />
    <glyph glyph-name="uni1EF8" unicode="&#x1ef8;" horiz-adv-x="1220" 
d="M508 573l-481 861h229l354 -676l355 676h229l-481 -861v-573h-205v573zM231 1577q0 117 68.5 181.5t167.5 64.5q48 0 97.5 -21t82.5 -45.5t68.5 -45.5t58.5 -21q36 0 54 25.5t18 66.5h143q0 -117 -68 -181.5t-167 -64.5q-48 0 -98 21t-83 45.5t-68.5 45.5t-58.5 21
q-36 0 -53.5 -25.5t-17.5 -66.5h-144z" />
    <glyph glyph-name="uni1EF9" unicode="&#x1ef9;" horiz-adv-x="1052" 
d="M434 0l-401 1065h209l172 -471q44 -115 108 -361h10q53 188 119 361l172 471h203l-432 -1165q-25 -67 -53.5 -113t-73 -83t-110.5 -55t-156 -18h-115v160h104q94 0 144 35t86 133zM150 1208q0 117 68 181.5t167 64.5q48 0 97.5 -21t82.5 -45.5t68.5 -45.5t58.5 -21
q36 0 54 25.5t18 66.5h143q0 -117 -68 -181.5t-167 -64.5q-48 0 -97.5 21t-82.5 45.5t-68.5 45.5t-58.5 21q-36 0 -54 -25.5t-18 -66.5h-143z" />
    <glyph glyph-name="uni2000" unicode="&#x2000;" horiz-adv-x="1024" 
 />
    <glyph glyph-name="uni2001" unicode="&#x2001;" horiz-adv-x="2048" 
 />
    <glyph glyph-name="uni2002" unicode="&#x2002;" horiz-adv-x="1024" 
 />
    <glyph glyph-name="uni2003" unicode="&#x2003;" horiz-adv-x="2048" 
 />
    <glyph glyph-name="uni2004" unicode="&#x2004;" horiz-adv-x="681" 
 />
    <glyph glyph-name="uni2005" unicode="&#x2005;" horiz-adv-x="512" 
 />
    <glyph glyph-name="uni2006" unicode="&#x2006;" horiz-adv-x="342" 
 />
    <glyph glyph-name="uni2007" unicode="&#x2007;" horiz-adv-x="1331" 
 />
    <glyph glyph-name="uni2008" unicode="&#x2008;" horiz-adv-x="507" 
 />
    <glyph glyph-name="uni2009" unicode="&#x2009;" horiz-adv-x="256" 
 />
    <glyph glyph-name="uni200A" unicode="&#x200a;" horiz-adv-x="86" 
 />
    <glyph glyph-name="uni200B" unicode="&#x200b;" horiz-adv-x="0" 
 />
    <glyph glyph-name="figuredash" unicode="&#x2012;" horiz-adv-x="1261" 
d="M129 799h1004v-164h-1004v164z" />
    <glyph glyph-name="endash" unicode="&#x2013;" horiz-adv-x="1261" 
d="M129 614h1004v-163h-1004v163z" />
    <glyph glyph-name="emdash" unicode="&#x2014;" horiz-adv-x="2326" 
d="M129 614h2069v-163h-2069v163z" />
    <glyph glyph-name="uni2015" unicode="&#x2015;" horiz-adv-x="2326" 
d="M129 614h2069v-163h-2069v163z" />
    <glyph glyph-name="quoteleft" unicode="&#x2018;" horiz-adv-x="489" 
d="M360 881h-245v276l164 277h92l-113 -277h102v-276z" />
    <glyph glyph-name="quoteright" unicode="&#x2019;" horiz-adv-x="468" 
d="M131 1434h246v-277l-164 -276h-92l112 276h-102v277z" />
    <glyph glyph-name="quotesinglbase" unicode="&#x201a;" horiz-adv-x="507" 
d="M131 276h246v-276l-164 -276h-92l112 276h-102v276z" />
    <glyph glyph-name="quotereversed" unicode="&#x201b;" horiz-adv-x="358" 
d="M285 1157h-103l113 -276h-92l-164 276v277h246v-277z" />
    <glyph glyph-name="quotedblleft" unicode="&#x201c;" horiz-adv-x="878" 
d="M360 881h-245v276l164 277h92l-113 -277h102v-276zM750 881h-246v276l164 277h92l-113 -277h103v-276z" />
    <glyph glyph-name="quotedblright" unicode="&#x201d;" horiz-adv-x="858" 
d="M131 1434h246v-277l-164 -276h-92l112 276h-102v277zM520 1434h246v-277l-164 -276h-92l113 276h-103v277z" />
    <glyph glyph-name="quotedblbase" unicode="&#x201e;" horiz-adv-x="897" 
d="M131 276h246v-276l-164 -276h-92l112 276h-102v276zM520 276h246v-276l-164 -276h-92l113 276h-103v276z" />
    <glyph glyph-name="uni201F" unicode="&#x201f;" horiz-adv-x="735" 
d="M715 1157h-103l113 -276h-92l-164 276v277h246v-277zM326 1157h-103l113 -276h-92l-164 276v277h246v-277z" />
    <glyph glyph-name="dagger" unicode="&#x2020;" horiz-adv-x="1212" 
d="M508 -369v1270h-410v164h410v369h197v-369h409v-164h-409v-1270h-197z" />
    <glyph glyph-name="daggerdbl" unicode="&#x2021;" horiz-adv-x="1212" 
d="M508 164v737h-410v164h410v369h197v-369h409v-164h-409v-737h409v-164h-409v-369h-197v369h-410v164h410z" />
    <glyph glyph-name="bullet" unicode="&#x2022;" horiz-adv-x="929" 
d="M137 532q0 135 96.5 231.5t231.5 96.5t231.5 -96.5t96.5 -231.5t-96.5 -231t-231.5 -96t-231.5 96t-96.5 231z" />
    <glyph glyph-name="ellipsis" unicode="&#x2026;" horiz-adv-x="1470" 
d="M131 276h246v-276h-246v276zM612 276h246v-276h-246v276zM1094 276h245v-276h-245v276z" />
    <glyph glyph-name="perthousand" unicode="&#x2030;" horiz-adv-x="2699" 
d="M225 1014q0 -307 185 -307q184 0 184 307t-184 307q-185 0 -185 -307zM748 1014q0 -225 -93 -333t-245 -108t-245 108t-93 333t93 332.5t245 107.5t245 -107.5t93 -332.5zM1251 1434h172l-798 -1434h-172zM1286 420q0 -307 184 -307q185 0 185 307t-185 307
q-184 0 -184 -307zM1808 420q0 -225 -93 -332.5t-245 -107.5t-244.5 107.5t-92.5 332.5t92.5 332.5t244.5 107.5t245 -107.5t93 -332.5zM2105 420q0 -307 185 -307q184 0 184 307t-184 307q-185 0 -185 -307zM2628 420q0 -225 -93 -332.5t-245 -107.5t-245 107.5t-93 332.5
t93 332.5t245 107.5t245 -107.5t93 -332.5z" />
    <glyph glyph-name="minute" unicode="&#x2032;" horiz-adv-x="448" 
d="M139 1434h205v-420l-205 -205v625z" />
    <glyph glyph-name="second" unicode="&#x2033;" horiz-adv-x="806" 
d="M139 1434h205v-420l-205 -205v625zM498 1434h204v-420l-204 -205v625z" />
    <glyph glyph-name="guilsinglleft" unicode="&#x2039;" horiz-adv-x="765" 
d="M649 184h-246l-348 348l348 349h246l-358 -349z" />
    <glyph glyph-name="guilsinglright" unicode="&#x203a;" horiz-adv-x="765" 
d="M475 532l-358 349h245l349 -349l-349 -348h-245z" />
    <glyph glyph-name="uni203D" unicode="&#x203d;" horiz-adv-x="1019" 
d="M59 1116q8 155 129 251.5t312 96.5q105 0 189.5 -30.5t138.5 -82.5t83 -120t29 -146q0 -73 -21 -132t-54.5 -98t-73.5 -73.5t-80.5 -66.5t-74 -66.5t-54.5 -85t-21 -112.5h-184v634h184v-274q9 10 46.5 43t60.5 58.5t45 73t22 99.5q0 36 -13 70.5t-39 65.5t-73.5 50
t-109.5 19q-113 0 -170 -51t-66 -123h-205zM346 276h246v-276h-246v276z" />
    <glyph glyph-name="fraction" unicode="&#x2044;" horiz-adv-x="286" 
d="M453 1434h172l-799 -1434h-172z" />
    <glyph glyph-name="uni2070" unicode="&#x2070;" horiz-adv-x="819" 
d="M225 1219q0 -308 185 -308q184 0 184 308q0 307 -184 307q-185 0 -185 -307zM748 1219q0 -225 -93 -333t-245 -108t-245 108t-93 333t93 332.5t245 107.5t245 -107.5t93 -332.5z" />
    <glyph glyph-name="uni2074" unicode="&#x2074;" horiz-adv-x="759" 
d="M424 1638h164v-542h123v-133h-123v-164h-154v164h-389v133zM203 1096h231v153q0 109 8 205h-8q-8 -14 -21.5 -39.5t-21.5 -40t-24 -39t-35 -51.5z" />
    <glyph glyph-name="uni2075" unicode="&#x2075;" horiz-adv-x="733" 
d="M82 1178l31 460h512v-133h-369l-10 -178q58 55 153 55q127 0 202 -85t75 -212q0 -133 -86 -220t-225 -87q-92 0 -160 36t-101.5 87.5t-42.5 112.5h160q7 -45 43 -76t101 -31q72 0 114.5 49t42.5 129q0 85 -42.5 132t-110.5 47q-95 0 -136 -86h-151z" />
    <glyph glyph-name="uni2076" unicode="&#x2076;" horiz-adv-x="784" 
d="M526 1475q-32 61 -112 61q-84 0 -131 -67t-47 -171q74 78 194 78q140 0 218.5 -83.5t78.5 -207.5q0 -132 -89.5 -219.5t-227.5 -87.5q-90 0 -156.5 34t-105.5 95t-57.5 139t-18.5 173q0 118 28.5 206t78 137.5t108 73t127.5 23.5q108 0 180.5 -48.5t95.5 -135.5h-164z
M410 907q73 0 118 51t45 121q0 73 -41.5 124.5t-121.5 51.5t-122 -52t-42 -124q0 -69 45.5 -120.5t118.5 -51.5z" />
    <glyph glyph-name="uni2077" unicode="&#x2077;" horiz-adv-x="659" 
d="M252 799h-158l367 706h-416v133h573v-133z" />
    <glyph glyph-name="uni2078" unicode="&#x2078;" horiz-adv-x="774" 
d="M244 1413q0 -50 38.5 -84.5t104.5 -34.5t104.5 34.5t38.5 84.5t-38.5 84.5t-104.5 34.5t-104.5 -34.5t-38.5 -84.5zM551 1038q0 55 -44.5 95.5t-119.5 40.5q-76 0 -120 -40.5t-44 -95.5q0 -53 44.5 -93t119.5 -40t119.5 40t44.5 93zM571 1245q67 -30 100.5 -85.5
t33.5 -125.5q0 -116 -88.5 -186t-229.5 -70t-229 70t-88 186q0 70 33 125.5t100 85.5q-58 27 -85.5 73.5t-27.5 98.5q0 103 80.5 172.5t216.5 69.5t216.5 -69.5t80.5 -172.5q0 -52 -27.5 -98.5t-85.5 -73.5z" />
    <glyph glyph-name="uni2079" unicode="&#x2079;" horiz-adv-x="786" 
d="M254 963q28 -62 113 -62q89 0 136.5 66.5t47.5 171.5q-74 -78 -195 -78q-140 0 -218.5 83.5t-78.5 207.5q0 131 90 219t228 88q119 0 196.5 -57.5t109.5 -151t32 -221.5q0 -119 -28.5 -208.5t-78.5 -141t-110.5 -76.5t-130.5 -25q-108 0 -181 49t-96 136h164zM377 1530
q-73 0 -118.5 -51.5t-45.5 -120.5q0 -72 42 -124t122 -52t122 52t42 124q0 69 -45.5 120.5t-118.5 51.5z" />
    <glyph glyph-name="uni2080" unicode="&#x2080;" horiz-adv-x="819" 
d="M225 217q0 -307 185 -307q184 0 184 307t-184 307q-185 0 -185 -307zM748 217q0 -225 -93 -332.5t-245 -107.5t-245 107.5t-93 332.5t93 332.5t245 107.5t245 -107.5t93 -332.5z" />
    <glyph glyph-name="uni2081" unicode="&#x2081;" horiz-adv-x="540" 
d="M250 -203v656l-205 -215v194l205 205h153v-840h-153z" />
    <glyph glyph-name="uni2082" unicode="&#x2082;" horiz-adv-x="722" 
d="M66 432q8 93 81.5 159t204.5 66q130 0 208.5 -68t78.5 -177q0 -79 -35.5 -138t-107.5 -129l-226 -215h389v-133h-593v133l327 318q52 49 72 83.5t20 80.5q0 45 -32 78.5t-101 33.5q-60 0 -93 -24.5t-38 -67.5h-155z" />
    <glyph glyph-name="uni2083" unicode="&#x2083;" horiz-adv-x="735" 
d="M207 12q7 -42 40.5 -72t100.5 -30q82 0 123 35t41 92q0 129 -154 129h-71v123h71q66 0 100 32.5t34 84.5q0 51 -33 84.5t-101 33.5q-65 0 -95 -27.5t-36 -64.5h-155q8 97 84 161t202 64q130 0 208.5 -68t78.5 -177q0 -59 -31.5 -104t-81.5 -70q63 -24 98.5 -76.5
t35.5 -128.5q0 -117 -85.5 -186.5t-232.5 -69.5q-129 0 -209 68.5t-88 166.5h156z" />
    <glyph glyph-name="uni2084" unicode="&#x2084;" horiz-adv-x="759" 
d="M424 637h164v-543h123v-133h-123v-164h-154v164h-389v133zM203 94h231v154q0 109 8 205h-8q-8 -14 -21.5 -39.5t-21.5 -40t-24 -39t-35 -51.5z" />
    <glyph glyph-name="uni2085" unicode="&#x2085;" horiz-adv-x="733" 
d="M82 176l31 461h512v-133h-369l-10 -178q58 55 153 55q127 0 202 -85t75 -212q0 -133 -86 -220t-225 -87q-135 0 -213 69.5t-91 165.5h160q7 -45 43 -75.5t101 -30.5q72 0 114.5 49t42.5 129q0 85 -42.5 131.5t-110.5 46.5q-95 0 -136 -86h-151z" />
    <glyph glyph-name="uni2086" unicode="&#x2086;" horiz-adv-x="784" 
d="M526 473q-32 62 -112 62q-84 0 -131 -67t-47 -171q74 78 194 78q140 0 218.5 -83.5t78.5 -207.5q0 -132 -89.5 -219.5t-227.5 -87.5q-72 0 -129.5 22.5t-96 61.5t-64 95t-37 120.5t-11.5 140.5q0 118 28.5 206t78 137.5t108 73t127.5 23.5q108 0 180.5 -48.5t95.5 -135.5
h-164zM410 -94q73 0 118 51t45 121q0 73 -41.5 124.5t-121.5 51.5t-122 -52t-42 -124q0 -69 45.5 -120.5t118.5 -51.5z" />
    <glyph glyph-name="uni2087" unicode="&#x2087;" horiz-adv-x="659" 
d="M252 -203h-158l367 707h-416v133h573v-133z" />
    <glyph glyph-name="uni2088" unicode="&#x2088;" horiz-adv-x="774" 
d="M244 412q0 -50 38.5 -84.5t104.5 -34.5t104.5 34.5t38.5 84.5t-38.5 84t-104.5 34t-104.5 -34t-38.5 -84zM551 37q0 55 -44 95t-120 40t-120 -40t-44 -95q0 -53 44.5 -93t119.5 -40t119.5 40t44.5 93zM571 244q67 -30 100.5 -85.5t33.5 -125.5q0 -116 -88.5 -186
t-229.5 -70t-229 70t-88 186q0 70 33 125.5t100 85.5q-58 27 -85.5 73.5t-27.5 98.5q0 103 80.5 172t216.5 69t216.5 -69t80.5 -172q0 -52 -27.5 -98.5t-85.5 -73.5z" />
    <glyph glyph-name="uni2089" unicode="&#x2089;" horiz-adv-x="786" 
d="M254 -39q28 -61 113 -61q89 0 136.5 66t47.5 171q-74 -78 -195 -78q-140 0 -218.5 83.5t-78.5 207.5q0 131 90 219t228 88q119 0 196.5 -57.5t109.5 -151t32 -221.5q0 -119 -28.5 -208t-78.5 -140.5t-110.5 -76.5t-130.5 -25q-108 0 -181 48.5t-96 135.5h164zM377 528
q-73 0 -118.5 -51.5t-45.5 -120.5q0 -72 42 -124t122 -52t122 52t42 124q0 69 -45.5 120.5t-118.5 51.5z" />
    <glyph glyph-name="colonmonetary" unicode="&#x20a1;" horiz-adv-x="1464" 
d="M1403 379q-64 -189 -218.5 -299.5t-387.5 -110.5l-47 -174h-164l53 191q-100 19 -172 57l-68 -248h-163l94 342q-116 100 -177 248.5t-61 331.5q0 298 164 501t440 240l52 180h163l-49 -176q97 -9 176 -35l60 211h164l-80 -282q138 -95 211 -271h-224q-21 38 -43 66
l-280 -1006q248 19 336 234h221zM518 225q71 -48 166 -69l307 1097q-75 34 -176 37zM297 717q0 -210 94 -359l254 910q-114 -35 -194 -119.5t-117 -194.5t-37 -237z" />
    <glyph glyph-name="uni20A6" unicode="&#x20a6;" horiz-adv-x="1679" 
d="M246 944v490h215l340 -490h428v490h205v-490h163v-164h-163v-127h163v-164h-163v-489h-215l-340 489h-428v-489h-205v489h-164v164h164v127h-164v164h164zM1229 780h-316l88 -127h228v127zM451 653h313l-88 127h-225v-127zM1239 297q-7 74 -10 192h-117q71 -108 119 -192
h8zM440 1137q9 -102 9 -193h116q-71 109 -116 193h-9z" />
    <glyph glyph-name="Euro" unicode="&#x20ac;" horiz-adv-x="1368" 
d="M434 788q-2 -31 -2 -71q0 -45 2 -72h457l-64 -164h-372q34 -162 122.5 -255t231.5 -93q111 0 180.5 50t83.5 124h211q-31 -117 -101 -194t-163.5 -110.5t-210.5 -33.5q-237 0 -375 137t-182 375h-180v164h161q-2 27 -2 72q0 40 2 71h-161v164h178q43 237 183 374.5
t376 137.5q117 0 210.5 -33.5t163.5 -110.5t101 -194h-211q-14 74 -83.5 124t-180.5 50q-144 0 -232 -92.5t-122 -255.5h557l-64 -164h-514z" />
    <glyph glyph-name="uni20B2" unicode="&#x20b2;" horiz-adv-x="1540" 
d="M702 -25q-185 21 -324 122t-212.5 261.5t-73.5 358.5t73.5 358t212.5 261t324 122v180h164v-176q195 -17 327 -115t200 -262h-224q-92 176 -303 201v-1139q95 12 167.5 54.5t113.5 104.5t61.5 132t20.5 146h-246v174h440v-758h-153l-21 174q-130 -181 -383 -201v-178
h-164v180zM297 717q0 -103 25.5 -195.5t74.5 -169.5t127.5 -129.5t177.5 -70.5v1130q-99 -18 -177.5 -70.5t-127.5 -129.5t-74.5 -169.5t-25.5 -195.5z" />
    <glyph glyph-name="uni20B5" unicode="&#x20b5;" horiz-adv-x="1464" 
d="M1403 379q-62 -177 -198 -284t-343 -124v-176h-164v180q-276 32 -441 238t-165 504q0 197 73 356t211 260t322 125v180h164v-176q197 -17 330 -114.5t201 -262.5h-224q-90 178 -307 201v-1141q237 25 320 234h221zM297 717q0 -101 25 -193.5t73.5 -169.5t126.5 -130.5
t176 -71.5v1128q-130 -24 -222.5 -108.5t-135.5 -201t-43 -253.5z" />
    <glyph glyph-name="uni20BA" unicode="&#x20ba;" horiz-adv-x="1298" 
d="M92 1014l268 96v324h205v-250l406 147v-164l-406 -147v-156l406 148v-164l-406 -148v-526q89 3 163.5 35t126 84t87.5 120t53 142t17 152h205q0 -146 -46.5 -274.5t-132 -225t-215.5 -152t-288 -55.5h-175v627l-268 -97v164l268 97v155l-268 -96v164z" />
    <glyph glyph-name="uni20BF" unicode="&#x20bf;" horiz-adv-x="1443" 
d="M465 0h-281v1434h281v204h164v-204h112v204h164v-206q175 -12 280 -112.5t105 -264.5q0 -203 -174 -297q225 -98 225 -359q0 -182 -120 -290.5t-316 -108.5v-205h-164v205h-112v-205h-164v205zM891 174q129 0 187.5 64t58.5 172t-63 176.5t-193 68.5h-492v-481h502z
M840 829q121 0 183 56.5t62 158.5q0 103 -57.5 159.5t-177.5 56.5h-461v-431h451z" />
    <glyph glyph-name="uni2113" unicode="&#x2113;" horiz-adv-x="1089" 
d="M82 451q72 24 156 63q-13 127 -13 244q0 94 14 188t47.5 188.5t82.5 167t126 117.5t171 45q146 0 223.5 -80t77.5 -227q0 -211 -138.5 -390.5t-384.5 -311.5q25 -173 85.5 -252.5t166.5 -79.5q92 0 199 37l-66 -166q-73 -25 -143 -25q-331 0 -422 400q-40 -18 -182 -70
v152zM809 1145q0 166 -141 166q-67 0 -116.5 -52t-75.5 -137t-38 -173.5t-12 -180.5t4 -154q176 107 277.5 243.5t101.5 287.5z" />
    <glyph glyph-name="uni2117" unicode="&#x2117;" horiz-adv-x="1671" 
d="M88 717q0 151 59.5 289t160 238.5t239 160t289.5 59.5t289 -59.5t238.5 -160t160 -238.5t59.5 -289t-59.5 -289.5t-160 -239t-238.5 -160t-289 -59.5t-289.5 59.5t-239 160t-160 239t-59.5 289.5zM221 717q0 -125 48.5 -239t131 -196.5t196.5 -131t239 -48.5t239 48.5
t196 131t130.5 196.5t48.5 239q0 167 -82 308.5t-223.5 223.5t-308.5 82q-125 0 -239 -48.5t-196.5 -130.5t-131 -196t-48.5 -239zM702 625v-328h-153v840h430q123 0 194.5 -69.5t71.5 -186.5t-71.5 -186.5t-194.5 -69.5h-277zM969 758q60 0 91.5 33.5t31.5 89.5t-31.5 89.5
t-91.5 33.5h-267v-246h267z" />
    <glyph glyph-name="trademark" unicode="&#x2122;" horiz-adv-x="1996" 
d="M788 1300h-286v-706h-154v706h-287v134h727v-134zM1184 963q-42 75 -101 215h-8q10 -92 10 -226v-358h-153v840h164l192 -371q69 -132 94 -203q23 65 95 203l192 371h164v-840h-154v358q0 125 11 226h-9q-63 -148 -100 -215l-199 -369z" />
    <glyph glyph-name="Omega" unicode="&#x2126;" horiz-adv-x="1441" 
d="M723 1300q-104 0 -186 -41t-132 -112t-76 -162t-26 -197q0 -205 92 -344.5t246 -167.5v-276h-504v164h340v10q-182 68 -276.5 232.5t-94.5 392.5q0 299 169.5 482t447.5 183t447 -182.5t169 -482.5q0 -228 -94 -393t-276 -232v-10h340v-164h-504v276q154 29 246 168
t92 344q0 106 -26 197t-76 162t-132 112t-186 41z" />
    <glyph glyph-name="estimated" unicode="&#x212e;" 
d="M829 1382q-264 0 -460 -186v-438h921v438q-196 186 -461 186zM1403 238q-107 -126 -255.5 -197.5t-318.5 -71.5q-151 0 -289 59.5t-238.5 160t-160 239t-59.5 289.5t59.5 289t160 238.5t238.5 160t289 59.5t289.5 -59.5t239 -160t160 -238.5t59.5 -289v-41h-1208v-438
q193 -187 460 -187q151 0 283.5 63t226.5 175z" />
    <glyph glyph-name="uni2150" unicode="&#x2150;" horiz-adv-x="1513" 
d="M250 594v655l-205 -215v195l205 205h153v-840h-153zM1004 1434h172l-799 -1434h-172zM1112 0h-158l367 707h-416v133h574v-133z" />
    <glyph glyph-name="uni2151" unicode="&#x2151;" horiz-adv-x="1622" 
d="M250 594v655l-205 -215v195l205 205h153v-840h-153zM1004 1434h172l-799 -1434h-172zM1090 164q28 -62 112 -62q89 0 136.5 66.5t47.5 171.5q-74 -78 -194 -78q-140 0 -218.5 83.5t-78.5 207.5q0 132 89.5 219.5t227.5 87.5q119 0 196.5 -57.5t109.5 -151t32 -221.5
q0 -119 -28.5 -208t-78.5 -140.5t-110.5 -76.5t-130.5 -25q-108 0 -180.5 48.5t-95.5 135.5h164zM1212 731q-73 0 -118 -51t-45 -121q0 -73 41.5 -124.5t121.5 -51.5t122 52t42 124q0 69 -45.5 120.5t-118.5 51.5z" />
    <glyph glyph-name="uni2152" unicode="&#x2152;" horiz-adv-x="2207" 
d="M250 594v655l-205 -215v195l205 205h153v-840h-153zM1004 1434h172l-799 -1434h-172zM1092 0v655l-205 -215v195l205 205h153v-840h-153zM1614 420q0 -307 184 -307t184 307t-184 307t-184 -307zM2136 420q0 -225 -93 -332.5t-245 -107.5t-245 107.5t-93 332.5t93 332.5
t245 107.5t245 -107.5t93 -332.5z" />
    <glyph glyph-name="onethird" unicode="&#x2153;" horiz-adv-x="1570" 
d="M250 594v655l-205 -215v195l205 205h153v-840h-153zM1004 1434h172l-799 -1434h-172zM1042 215q7 -42 41 -72t101 -30q82 0 123 35t41 92q0 129 -154 129h-72v123h72q66 0 99.5 32t33.5 84t-32.5 85.5t-100.5 33.5q-65 0 -95 -27.5t-36 -64.5h-156q8 96 84.5 160.5
t202.5 64.5q130 0 208.5 -68.5t78.5 -177.5q0 -59 -31.5 -104t-81.5 -70q63 -24 98 -76t35 -128q0 -118 -85 -187t-232 -69q-129 0 -209 68.5t-88 166.5h155z" />
    <glyph glyph-name="twothirds" unicode="&#x2154;" horiz-adv-x="1742" 
d="M68 1229q8 93 81.5 159t204.5 66q130 0 208.5 -68.5t78.5 -177.5q0 -79 -35 -137t-108 -129l-226 -215h390v-133h-594v133l327 317q52 49 72 83.5t20 80.5q0 45 -32 79t-101 34q-60 0 -93 -24.5t-38 -67.5h-155zM1176 1434h172l-799 -1434h-172zM1214 215q7 -42 41 -72
t101 -30q82 0 123 35t41 92q0 129 -154 129h-72v123h72q66 0 99.5 32t33.5 84t-32.5 85.5t-100.5 33.5q-65 0 -95 -27.5t-36 -64.5h-156q8 96 84.5 160.5t202.5 64.5q130 0 208.5 -68.5t78.5 -177.5q0 -59 -31.5 -104t-81.5 -70q63 -24 98 -76t35 -128q0 -118 -85 -187
t-232 -69q-129 0 -209 68.5t-88 166.5h155z" />
    <glyph glyph-name="uni2155" unicode="&#x2155;" horiz-adv-x="1570" 
d="M250 594v655l-205 -215v195l205 205h153v-840h-153zM1004 1434h172l-799 -1434h-172zM920 379l30 461h512v-133h-368l-11 -179q59 56 154 56q127 0 201.5 -85t74.5 -212q0 -133 -86 -220t-225 -87q-70 0 -126 20.5t-92 54.5t-57.5 74.5t-27.5 85.5h160q7 -45 42.5 -75.5
t100.5 -30.5q72 0 115 49t43 129q0 85 -43 131.5t-111 46.5q-94 0 -135 -86h-151z" />
    <glyph glyph-name="uni2156" unicode="&#x2156;" horiz-adv-x="1742" 
d="M68 1229q8 93 81.5 159t204.5 66q130 0 208.5 -68.5t78.5 -177.5q0 -79 -35 -137t-108 -129l-226 -215h390v-133h-594v133l327 317q52 49 72 83.5t20 80.5q0 45 -32 79t-101 34q-60 0 -93 -24.5t-38 -67.5h-155zM1176 1434h172l-799 -1434h-172zM1092 379l30 461h512
v-133h-368l-11 -179q59 56 154 56q127 0 202 -85t75 -212q0 -132 -86.5 -219.5t-225.5 -87.5q-70 0 -126 20.5t-92 54.5t-57.5 74.5t-27.5 85.5h160q7 -45 42.5 -75.5t100.5 -30.5q72 0 115 49t43 129q0 85 -43 131.5t-111 46.5q-94 0 -135 -86h-151z" />
    <glyph glyph-name="uni2157" unicode="&#x2157;" horiz-adv-x="1753" 
d="M205 809q7 -42 40.5 -72t100.5 -30q82 0 123 35t41 92q0 129 -154 129h-71v122h71q66 0 99.5 32.5t33.5 84.5t-32.5 85.5t-100.5 33.5q-65 0 -95 -27.5t-36 -64.5h-155q8 97 84 161t202 64q130 0 208.5 -68.5t78.5 -177.5q0 -59 -31.5 -104t-81.5 -70q63 -24 98.5 -76.5
t35.5 -128.5q0 -117 -85.5 -186.5t-232.5 -69.5q-129 0 -209 69t-88 167h156zM1186 1434h172l-799 -1434h-172zM1102 379l31 461h512v-133h-369l-10 -179q59 56 153 56q127 0 202 -85t75 -212q0 -132 -86.5 -219.5t-225.5 -87.5q-70 0 -126 20.5t-92 54.5t-57.5 74.5
t-27.5 85.5h160q7 -45 42.5 -75.5t100.5 -30.5q72 0 115 49t43 129q0 85 -42.5 131.5t-110.5 46.5q-95 0 -136 -86h-151z" />
    <glyph glyph-name="uni2158" unicode="&#x2158;" horiz-adv-x="1775" 
d="M422 1434h164v-543h123v-133h-123v-164h-154v164h-389v133zM201 891h231v153q0 109 8 205h-8q-8 -14 -21.5 -39.5t-21.5 -40t-24 -39t-35 -51.5zM1208 1434h172l-798 -1434h-172zM1124 379l31 461h512v-133h-369l-10 -179q59 56 154 56q127 0 201.5 -85t74.5 -212
q0 -133 -86 -220t-225 -87q-70 0 -126 20.5t-92 54.5t-57.5 74.5t-27.5 85.5h160q7 -45 42.5 -75.5t100.5 -30.5q72 0 115 49t43 129q0 85 -43 131.5t-111 46.5q-94 0 -135 -86h-152z" />
    <glyph glyph-name="uni2159" unicode="&#x2159;" horiz-adv-x="1597" 
d="M250 594v655l-205 -215v195l205 205h153v-840h-153zM1004 1434h172l-799 -1434h-172zM1339 676q-32 61 -112 61q-84 0 -131 -67t-47 -170q74 78 194 78q140 0 218.5 -83.5t78.5 -207.5q0 -132 -89.5 -219.5t-227.5 -87.5q-72 0 -129.5 22.5t-96 61.5t-64 95t-37 120.5
t-11.5 140.5q0 118 28.5 206t78 137.5t108 73t127.5 23.5q108 0 180.5 -48.5t95.5 -135.5h-164zM1223 109q73 0 118 51t45 121q0 73 -42 124.5t-121 51.5q-80 0 -122 -52t-42 -124q0 -69 45.5 -120.5t118.5 -51.5z" />
    <glyph glyph-name="uni215A" unicode="&#x215a;" horiz-adv-x="1779" 
d="M82 973l31 461h512v-134h-369l-10 -178q59 56 153 56q127 0 202 -85t75 -212q0 -133 -86 -220.5t-225 -87.5q-92 0 -160 36t-101.5 87.5t-42.5 112.5h160q7 -45 43 -76t101 -31q71 0 114 49.5t43 129.5q0 85 -42.5 131.5t-110.5 46.5q-95 0 -136 -86h-151zM1186 1434h172
l-799 -1434h-172zM1522 676q-32 61 -113 61q-84 0 -131 -67t-47 -170q74 78 194 78q140 0 218.5 -83.5t78.5 -207.5q0 -132 -89.5 -219.5t-227.5 -87.5q-72 0 -129.5 22.5t-96 61.5t-64 95t-37 120.5t-11.5 140.5q0 118 28.5 206t78 137.5t108 73t127.5 23.5
q108 0 181 -48.5t96 -135.5h-164zM1405 109q73 0 118.5 51.5t45.5 120.5q0 72 -42 124t-122 52t-122 -52t-42 -124q0 -69 45.5 -120.5t118.5 -51.5z" />
    <glyph glyph-name="oneeighth" unicode="&#x215b;" horiz-adv-x="1611" 
d="M250 594v655l-205 -215v195l205 205h153v-840h-153zM1004 1434h172l-799 -1434h-172zM1081 614q0 -50 39 -84t105 -34t104.5 34t38.5 84t-38.5 84.5t-104.5 34.5t-105 -34.5t-39 -84.5zM1389 240q0 55 -44 95t-120 40t-120 -40t-44 -95q0 -53 44.5 -93.5t119.5 -40.5
t119.5 40.5t44.5 93.5zM1409 446q67 -30 100 -85t33 -125q0 -116 -88 -186t-229 -70t-229.5 70t-88.5 186q0 70 33 125t100 85q-58 27 -85 73.5t-27 98.5q0 103 80.5 172.5t216.5 69.5t216.5 -69.5t80.5 -172.5q0 -52 -27.5 -98.5t-85.5 -73.5z" />
    <glyph glyph-name="threeeighths" unicode="&#x215c;" horiz-adv-x="1794" 
d="M205 809q7 -42 40.5 -72t100.5 -30q82 0 123 35t41 92q0 129 -154 129h-71v122h71q66 0 99.5 32.5t33.5 84.5t-32.5 85.5t-100.5 33.5q-65 0 -95 -27.5t-36 -64.5h-155q8 97 84 161t202 64q130 0 208.5 -68.5t78.5 -177.5q0 -59 -31.5 -104t-81.5 -70q63 -24 98.5 -76.5
t35.5 -128.5q0 -117 -85.5 -186.5t-232.5 -69.5q-129 0 -209 69t-88 167h156zM1186 1434h172l-799 -1434h-172zM1264 614q0 -50 38.5 -84t104.5 -34t104.5 34t38.5 84t-38.5 84.5t-104.5 34.5t-104.5 -34.5t-38.5 -84.5zM1571 240q0 55 -44 95t-120 40t-120 -40t-44 -95
q0 -53 44.5 -93.5t119.5 -40.5t119.5 40.5t44.5 93.5zM1591 446q67 -30 100 -85t33 -125q0 -116 -88 -186t-229 -70t-229 70t-88 186q0 70 33 125t100 85q-58 27 -85.5 73.5t-27.5 98.5q0 103 80.5 172.5t216.5 69.5t216.5 -69.5t80.5 -172.5q0 -52 -27.5 -98.5t-85.5 -73.5
z" />
    <glyph glyph-name="fiveeighths" unicode="&#x215d;" horiz-adv-x="1794" 
d="M82 973l31 461h512v-134h-369l-10 -178q59 56 153 56q127 0 202 -85t75 -212q0 -133 -86 -220.5t-225 -87.5q-92 0 -160 36t-101.5 87.5t-42.5 112.5h160q7 -45 43 -76t101 -31q71 0 114 49.5t43 129.5q0 85 -42.5 131.5t-110.5 46.5q-95 0 -136 -86h-151zM1186 1434h172
l-799 -1434h-172zM1264 614q0 -50 38.5 -84t104.5 -34t104.5 34t38.5 84t-38.5 84.5t-104.5 34.5t-104.5 -34.5t-38.5 -84.5zM1571 240q0 55 -44 95t-120 40t-120 -40t-44 -95q0 -53 44.5 -93.5t119.5 -40.5t119.5 40.5t44.5 93.5zM1591 446q67 -30 100 -85t33 -125
q0 -116 -88 -186t-229 -70t-229 70t-88 186q0 70 33 125t100 85q-58 27 -85.5 73.5t-27.5 98.5q0 103 80.5 172.5t216.5 69.5t216.5 -69.5t80.5 -172.5q0 -52 -27.5 -98.5t-85.5 -73.5z" />
    <glyph glyph-name="seveneighths" unicode="&#x215e;" horiz-adv-x="1597" 
d="M250 594h-158l367 706h-416v134h573v-134zM989 1434h172l-799 -1434h-172zM1067 614q0 -50 38.5 -84t104.5 -34t105 34t39 84t-39 84.5t-105 34.5t-104.5 -34.5t-38.5 -84.5zM1374 240q0 55 -44 95t-120 40t-119.5 -40t-43.5 -95q0 -53 44 -93.5t119 -40.5t119.5 40.5
t44.5 93.5zM1395 446q67 -30 100 -85t33 -125q0 -116 -88.5 -186t-229.5 -70t-229 70t-88 186q0 70 33 125t100 85q-58 27 -85.5 73.5t-27.5 98.5q0 103 80.5 172.5t216.5 69.5t216.5 -69.5t80.5 -172.5q0 -52 -27 -98.5t-85 -73.5z" />
    <glyph glyph-name="uni215F" unicode="&#x215f;" horiz-adv-x="837" 
d="M250 594v655l-205 -215v195l205 205h153v-840h-153zM1004 1434h172l-799 -1434h-172z" />
    <glyph glyph-name="uni2160" unicode="&#x2160;" horiz-adv-x="573" 
d="M184 0v1434h205v-1434h-205z" />
    <glyph glyph-name="uni2161" unicode="&#x2161;" horiz-adv-x="1075" 
d="M184 0v1434h205v-1434h-205zM686 0v1434h205v-1434h-205z" />
    <glyph glyph-name="uni2162" unicode="&#x2162;" horiz-adv-x="1576" 
d="M184 0v1434h205v-1434h-205zM686 0v1434h205v-1434h-205zM1188 0v1434h205v-1434h-205z" />
    <glyph glyph-name="uni2163" unicode="&#x2163;" horiz-adv-x="1839" 
d="M184 0v1434h205v-1434h-205zM1049 633q90 -251 131 -408h6q41 157 131 408l291 801h215l-543 -1434h-195l-542 1434h215z" />
    <glyph glyph-name="uni2164" unicode="&#x2164;" horiz-adv-x="1320" 
d="M526 633q90 -251 131 -408h7q41 157 131 408l290 801h215l-542 -1434h-195l-543 1434h216z" />
    <glyph glyph-name="uni2165" unicode="&#x2165;" horiz-adv-x="1839" 
d="M524 633q90 -251 131 -408h7q41 157 131 408l290 801h215l-542 -1434h-195l-543 1434h215zM1450 0v1434h205v-1434h-205z" />
    <glyph glyph-name="uni2166" unicode="&#x2166;" horiz-adv-x="2338" 
d="M522 633q90 -251 131 -408h6q38 146 132 408l290 801h215l-542 -1434h-195l-543 1434h215zM1448 0v1434h205v-1434h-205zM1950 0v1434h204v-1434h-204z" />
    <glyph glyph-name="uni2167" unicode="&#x2167;" horiz-adv-x="2838" 
d="M520 633q90 -251 131 -408h6q41 157 131 408l291 801h215l-542 -1434h-195l-543 1434h215zM1446 0v1434h205v-1434h-205zM1948 0v1434h204v-1434h-204zM2449 0v1434h205v-1434h-205z" />
    <glyph glyph-name="uni2168" unicode="&#x2168;" horiz-adv-x="1835" 
d="M184 0v1434h205v-1434h-205zM1190 920l358 514h234l-479 -676l530 -758h-242l-405 588l-410 -588h-233l530 752l-479 682h242z" />
    <glyph glyph-name="uni2169" unicode="&#x2169;" horiz-adv-x="1294" 
d="M649 920l359 514h233l-479 -676l530 -758h-241l-406 588l-409 -588h-234l530 752l-479 682h242z" />
    <glyph glyph-name="uni216A" unicode="&#x216a;" horiz-adv-x="1835" 
d="M649 920l359 514h233l-479 -676l530 -758h-241l-406 588l-409 -588h-234l530 752l-479 682h242zM1446 0v1434h205v-1434h-205z" />
    <glyph glyph-name="uni216B" unicode="&#x216b;" horiz-adv-x="2336" 
d="M649 920l359 514h233l-479 -676l530 -758h-241l-406 588l-409 -588h-234l530 752l-479 682h242zM1446 0v1434h205v-1434h-205zM1948 0v1434h204v-1434h-204z" />
    <glyph glyph-name="uni216C" unicode="&#x216c;" horiz-adv-x="1177" 
d="M184 1434h205v-1260h758v-174h-963v1434z" />
    <glyph glyph-name="uni216D" unicode="&#x216d;" horiz-adv-x="1464" 
d="M1403 379q-64 -189 -219 -299.5t-385 -110.5q-211 0 -373 97t-248 266.5t-86 384.5q0 214 86 383.5t248 266.5t373 97q222 0 372 -100.5t222 -278.5h-224q-108 205 -370 205q-99 0 -182 -31.5t-141 -85.5t-99 -127t-60.5 -156t-19.5 -173q0 -113 31.5 -214.5t92 -182.5
t158.5 -129t220 -48q288 0 383 236h221z" />
    <glyph glyph-name="uni216E" unicode="&#x216e;" horiz-adv-x="1478" 
d="M1382 717q0 -340 -183 -528.5t-513 -188.5h-502v1434h502q329 0 512.5 -189.5t183.5 -527.5zM389 174h277q250 0 381 143t131 400t-131 400t-381 143h-277v-1086z" />
    <glyph glyph-name="uni216F" unicode="&#x216f;" horiz-adv-x="1822" 
d="M911 399q85 200 183 389l319 646h225v-1434h-204v686q0 256 16 410h-8q-10 -24 -41 -96.5t-44 -103t-38.5 -85t-50.5 -104.5l-357 -707l-356 707q-25 50 -50.5 104.5t-38.5 85t-44 103t-41 96.5h-8q16 -154 16 -410v-686h-205v1434h226l319 -646q144 -301 182 -389z" />
    <glyph glyph-name="uni2170" unicode="&#x2170;" horiz-adv-x="495" 
d="M150 1065h196v-1065h-196v1065zM150 1434h196v-205h-196v205z" />
    <glyph glyph-name="uni2171" unicode="&#x2171;" horiz-adv-x="927" 
d="M150 1065h196v-1065h-196v1065zM150 1434h196v-205h-196v205zM582 1065h196v-1065h-196v1065zM582 1434h196v-205h-196v205z" />
    <glyph glyph-name="uni2172" unicode="&#x2172;" horiz-adv-x="1359" 
d="M150 1065h196v-1065h-196v1065zM150 1434h196v-205h-196v205zM582 1065h196v-1065h-196v1065zM582 1434h196v-205h-196v205zM1014 1065h196v-1065h-196v1065zM1014 1434h196v-205h-196v205z" />
    <glyph glyph-name="uni2173" unicode="&#x2173;" horiz-adv-x="1527" 
d="M150 1065h196v-1065h-196v1065zM150 1434h196v-205h-196v205zM479 1065h205l182 -485q51 -132 121 -375h8q70 243 121 375l182 485h205l-420 -1065h-184z" />
    <glyph glyph-name="uni2174" unicode="&#x2174;" horiz-adv-x="1077" 
d="M27 1065h204l183 -485q51 -132 121 -375h8q70 243 121 375l182 485h205l-420 -1065h-185z" />
    <glyph glyph-name="uni2175" unicode="&#x2175;" horiz-adv-x="1527" 
d="M27 1065h204l183 -485q51 -132 121 -375h8q70 243 121 375l182 485h205l-420 -1065h-185zM1182 1065h196v-1065h-196v1065zM1182 1434h196v-205h-196v205z" />
    <glyph glyph-name="uni2176" unicode="&#x2176;" horiz-adv-x="1957" 
d="M25 1065h204l183 -485q47 -122 120 -375h9q70 243 121 375l182 485h205l-420 -1065h-185zM1180 1065h196v-1065h-196v1065zM1180 1434h196v-205h-196v205zM1612 1065h196v-1065h-196v1065zM1612 1434h196v-205h-196v205z" />
    <glyph glyph-name="uni2177" unicode="&#x2177;" horiz-adv-x="2387" 
d="M23 1065h204l183 -485q47 -122 120 -375h9q73 253 120 375l183 485h205l-420 -1065h-185zM1178 1065h196v-1065h-196v1065zM1178 1434h196v-205h-196v205zM1610 1065h196v-1065h-196v1065zM1610 1434h196v-205h-196v205zM2042 1065h196v-1065h-196v1065zM2042 1434h196
v-205h-196v205z" />
    <glyph glyph-name="uni2178" unicode="&#x2178;" horiz-adv-x="1507" 
d="M150 1065h196v-1065h-196v1065zM150 1434h196v-205h-196v205zM983 707l250 358h229l-372 -508l403 -557h-238l-276 401l-281 -401h-229l403 551l-372 514h237z" />
    <glyph glyph-name="uni2179" unicode="&#x2179;" horiz-adv-x="1052" 
d="M528 707l250 358h230l-373 -508l403 -557h-237l-277 401l-280 -401h-230l404 551l-373 514h238z" />
    <glyph glyph-name="uni217A" unicode="&#x217a;" horiz-adv-x="1507" 
d="M528 707l250 358h230l-373 -508l403 -557h-237l-277 401l-280 -401h-230l404 551l-373 514h238zM1161 1065h197v-1065h-197v1065zM1161 1434h197v-205h-197v205z" />
    <glyph glyph-name="uni217B" unicode="&#x217b;" horiz-adv-x="1939" 
d="M528 707l250 358h230l-373 -508l403 -557h-237l-277 401l-280 -401h-230l404 551l-373 514h238zM1161 1065h197v-1065h-197v1065zM1161 1434h197v-205h-197v205zM1593 1065h197v-1065h-197v1065zM1593 1434h197v-205h-197v205z" />
    <glyph glyph-name="uni217C" unicode="&#x217c;" horiz-adv-x="495" 
d="M150 1434h196v-1434h-196v1434z" />
    <glyph glyph-name="uni217D" unicode="&#x217d;" horiz-adv-x="1144" 
d="M1087 297q-46 -153 -166 -240.5t-305 -87.5q-165 0 -287 74.5t-183.5 201t-61.5 287.5t61.5 287.5t183.5 201.5t287 75q174 0 289.5 -81.5t171.5 -226.5h-213q-68 144 -248 144q-86 0 -151.5 -32t-105 -88t-59 -126.5t-19.5 -153.5t19.5 -153.5t59 -126.5t105 -87.5
t151.5 -31.5q196 0 265 164h206z" />
    <glyph glyph-name="uni217E" unicode="&#x217e;" horiz-adv-x="1271" 
d="M936 532q0 110 -36.5 199t-112 145t-179.5 56t-179.5 -54t-111.5 -143t-36 -203q0 -176 85.5 -287.5t241.5 -111.5q104 0 179.5 55.5t112 144.5t36.5 199zM926 143q-49 -81 -138.5 -127.5t-209.5 -46.5q-116 0 -211 45t-156 122.5t-94 179t-33 216.5t33 217t94 179.5
t156 122.5t211 45q120 0 209.5 -46.5t138.5 -127.5v512h196v-1434h-196v143z" />
    <glyph glyph-name="uni217F" unicode="&#x217f;" horiz-adv-x="1878" 
d="M346 942q84 154 307 154q112 0 202 -47.5t136 -137.5q101 185 359 185q175 0 282 -102.5t107 -297.5v-696h-197v666q0 133 -56 199.5t-177 66.5q-52 0 -98 -16.5t-85 -50.5t-61.5 -93.5t-22.5 -136.5v-635h-196v666q0 133 -56.5 199.5t-177.5 66.5q-111 0 -188.5 -73.5
t-77.5 -223.5v-635h-196v1065h196v-123z" />
    <glyph glyph-name="uni2189" unicode="&#x2189;" horiz-adv-x="1818" 
d="M225 1014q0 -307 185 -307q184 0 184 307t-184 307q-185 0 -185 -307zM748 1014q0 -225 -93 -333t-245 -108t-245 108t-93 333t93 332.5t245 107.5t245 -107.5t93 -332.5zM1251 1434h172l-798 -1434h-172zM1290 215q7 -42 41 -72t101 -30q82 0 122.5 35t40.5 92
q0 129 -153 129h-72v123h72q66 0 99.5 32t33.5 84t-32.5 85.5t-100.5 33.5q-65 0 -95 -27.5t-36 -64.5h-156q8 96 84.5 160.5t202.5 64.5q130 0 208.5 -68.5t78.5 -177.5q0 -59 -31.5 -104t-81.5 -70q63 -24 98 -76t35 -128q0 -118 -85 -187t-232 -69q-129 0 -209 68.5
t-88 166.5h155z" />
    <glyph glyph-name="arrowleft" unicode="&#x2190;" horiz-adv-x="1669" 
d="M389 625h1157v-185h-1157l461 -440h-236l-532 532l532 533h236z" />
    <glyph glyph-name="arrowup" unicode="&#x2191;" horiz-adv-x="1310" 
d="M748 1157v-1157h-185v1157l-440 -461v236l532 532l533 -532v-236z" />
    <glyph glyph-name="arrowright" unicode="&#x2192;" horiz-adv-x="1669" 
d="M819 1065h236l532 -533l-532 -532h-236l461 440h-1157v185h1157z" />
    <glyph glyph-name="arrowdown" unicode="&#x2193;" horiz-adv-x="1310" 
d="M1188 737v-235l-533 -533l-532 533v235l440 -461v1158h185v-1158z" />
    <glyph glyph-name="uni2196" unicode="&#x2196;" horiz-adv-x="1345" 
d="M330 514l-166 166v754h754l165 -166l-639 14l820 -819l-129 -129l-820 819z" />
    <glyph glyph-name="uni2197" unicode="&#x2197;" horiz-adv-x="1345" 
d="M1030 1153l-819 -819l-129 129l819 819l-639 -14l166 166h754v-754l-166 -166z" />
    <glyph glyph-name="uni2198" unicode="&#x2198;" horiz-adv-x="1345" 
d="M1016 920l166 -166v-754h-754l-166 166l639 -14l-819 819l129 129l819 -819z" />
    <glyph glyph-name="uni2199" unicode="&#x2199;" horiz-adv-x="1345" 
d="M315 281l820 819l129 -129l-820 -819l639 14l-165 -166h-754v754l166 166z" />
    <glyph glyph-name="uni21A5" unicode="&#x21a5;" horiz-adv-x="1290" 
d="M113 164h1065v-164h-1065v164zM338 573v185l307 307l307 -307v-185l-221 236v-563h-172v563z" />
    <glyph glyph-name="uni21A9" unicode="&#x21a9;" horiz-adv-x="2355" 
d="M2079 936q0 135 -89.5 224t-224.5 89h-331v185h331q214 0 361 -143t147 -355q0 -138 -67.5 -252t-184 -179t-256.5 -65h-1376l461 -440h-236l-532 532l532 533h236l-461 -440h1376q135 0 224.5 88.5t89.5 222.5z" />
    <glyph glyph-name="uni21AA" unicode="&#x21aa;" horiz-adv-x="2355" 
d="M276 936q0 -134 89.5 -222.5t224.5 -88.5h1376l-461 440h236l532 -533l-532 -532h-236l461 440h-1376q-140 0 -256.5 65t-184 179t-67.5 252q0 212 147 355t361 143h332v-185h-332q-135 0 -224.5 -89t-89.5 -224z" />
    <glyph glyph-name="partialdiff" unicode="&#x2202;" horiz-adv-x="1204" 
d="M506 133q165 0 266.5 125.5t101.5 314.5q0 110 -55 183t-170 73q-165 0 -266.5 -125.5t-101.5 -314.5q0 -110 55 -183t170 -73zM608 1311q-115 0 -246 -58l25 164q133 47 252 47q473 0 473 -583q0 -88 -6.5 -171.5t-25 -176.5t-47 -172t-76 -153t-109 -125.5t-149 -82.5
t-193.5 -31q-197 0 -309.5 116t-112.5 304q0 115 38 223t106.5 193t173 136.5t227.5 51.5q105 0 177.5 -40.5t104.5 -92.5q4 50 4 82q0 68 -8 120.5t-28.5 101t-54.5 79.5t-88.5 49.5t-127.5 18.5z" />
    <glyph glyph-name="Delta" unicode="&#x2206;" horiz-adv-x="1191" 
d="M61 164l441 1270h188l440 -1270v-164h-1069v164zM268 164h656l-328 993z" />
    <glyph glyph-name="product" unicode="&#x220f;" horiz-adv-x="1310" 
d="M930 1270h-549v-1270h-197v1434h942v-1434h-196v1270z" />
    <glyph glyph-name="summation" unicode="&#x2211;" horiz-adv-x="1171" 
d="M1106 -369h-1034v164l532 737l-532 738v164h1013v-164h-774l471 -656v-163l-471 -656h795v-164z" />
    <glyph glyph-name="minus" unicode="&#x2212;" horiz-adv-x="1253" 
d="M135 799h983v-164h-983v164z" />
    <glyph glyph-name="uni2215" unicode="&#x2215;" horiz-adv-x="286" 
d="M453 1434h172l-799 -1434h-172z" />
    <glyph glyph-name="uni2219" unicode="&#x2219;" horiz-adv-x="679" 
d="M217 676h246v-277h-246v277z" />
    <glyph glyph-name="radical" unicode="&#x221a;" horiz-adv-x="1140" 
d="M780 1434h361v-164h-215l-359 -1270h-225l-307 1065h205l118 -430q58 -199 97 -389h2q34 167 96 385z" />
    <glyph glyph-name="infinity" unicode="&#x221e;" horiz-adv-x="1548" 
d="M682 502q-60 -60 -122.5 -91.5t-143.5 -31.5q-132 0 -225 90t-93 227t93.5 227.5t224.5 90.5q81 0 143.5 -31.5t122.5 -91.5l92 -92l92 92q123 123 267 123q131 0 224 -90.5t93 -227.5t-93 -227t-224 -90q-144 0 -267 123l-92 92zM1122 532q76 0 120 46.5t44 117.5
t-44 117.5t-120 46.5q-49 0 -83 -18t-70 -54l-92 -92l92 -92q36 -36 70 -54t83 -18zM426 860q-76 0 -120 -46.5t-44 -117.5t44 -117.5t120 -46.5q50 0 84 18t70 54l92 92l-92 92q-36 36 -70 54t-84 18z" />
    <glyph glyph-name="integral" unicode="&#x222b;" horiz-adv-x="843" 
d="M399 -123q-23 -131 -90.5 -188.5t-197.5 -57.5h-123v164h112q51 0 72.5 20t28.5 62l225 1311q23 131 91 188.5t198 57.5h143v-164h-133q-50 0 -71 -20t-29 -62z" />
    <glyph glyph-name="approxequal" unicode="&#x2248;" horiz-adv-x="1267" 
d="M139 369q0 134 75.5 215.5t211.5 81.5q57 0 112.5 -18t99.5 -43.5t84.5 -51t80.5 -43.5t74 -18q112 0 112 143h154q0 -134 -75.5 -215.5t-211.5 -81.5q-57 0 -113.5 18t-100 43.5t-83.5 51t-80 43.5t-73 18q-113 0 -113 -143h-154zM139 799q0 134 75.5 215.5t211.5 81.5
q57 0 112.5 -18t99.5 -43.5t84.5 -51t80.5 -43.5t74 -18q112 0 112 143h154q0 -134 -75.5 -215.5t-211.5 -81.5q-57 0 -113.5 18t-100 43.5t-83.5 51t-80 43.5t-73 18q-113 0 -113 -143h-154z" />
    <glyph glyph-name="notequal" unicode="&#x2260;" horiz-adv-x="1171" 
d="M135 1014h512l123 235h184l-123 -235h205v-164h-288l-140 -266h428v-164h-512l-123 -236h-184l123 236h-205v164h289l139 266h-428v164z" />
    <glyph glyph-name="equivalence" unicode="&#x2261;" horiz-adv-x="1171" 
d="M135 1229h901v-164h-901v164zM135 799h901v-164h-901v164zM135 369h901v-164h-901v164z" />
    <glyph glyph-name="lessequal" unicode="&#x2264;" horiz-adv-x="1202" 
d="M1040 1229v-168l-686 -201l686 -201v-167l-901 280v176zM139 348h901v-164h-901v164z" />
    <glyph glyph-name="greaterequal" unicode="&#x2265;" horiz-adv-x="1202" 
d="M1063 948v-176l-901 -280v167l686 201l-686 201v168zM1063 184h-901v164h901v-164z" />
    <glyph glyph-name="uni2295" unicode="&#x2295;" horiz-adv-x="1290" 
d="M686 573h438q-12 175 -137.5 301t-300.5 138v-439zM604 1012q-175 -12 -300.5 -138t-137.5 -301h438v439zM82 532q0 153 75.5 283t205 205.5t282.5 75.5t282.5 -75.5t205 -205.5t75.5 -283t-75.5 -282.5t-205 -205t-282.5 -75.5t-282.5 75.5t-205 205t-75.5 282.5z
M686 53q175 12 300.5 138t137.5 301h-438v-439zM604 492h-438q12 -175 137.5 -301t300.5 -138v439z" />
    <glyph glyph-name="uni2296" unicode="&#x2296;" horiz-adv-x="1290" 
d="M82 532q0 153 75.5 283t205 205.5t282.5 75.5t282.5 -75.5t205 -205.5t75.5 -283t-75.5 -282.5t-205 -205t-282.5 -75.5t-282.5 75.5t-205 205t-75.5 282.5zM645 1014q-189 0 -325.5 -127t-153.5 -314h958q-17 187 -153.5 314t-325.5 127zM645 51q189 0 325.5 127
t153.5 314h-958q17 -187 153.5 -314t325.5 -127z" />
    <glyph glyph-name="uni2297" unicode="&#x2297;" horiz-adv-x="1290" 
d="M645 1014q-173 0 -311 -113l311 -311l311 311q-138 113 -311 113zM1014 221q112 131 112 311q0 181 -112 312l-312 -312zM164 532q0 -180 112 -311l312 311l-312 312q-112 -131 -112 -312zM82 532q0 153 75.5 283t205 205.5t282.5 75.5t282.5 -75.5t205 -205.5t75.5 -283
t-75.5 -282.5t-205 -205t-282.5 -75.5t-282.5 75.5t-205 205t-75.5 282.5zM645 51q173 0 311 113l-311 311l-311 -311q138 -113 311 -113z" />
    <glyph glyph-name="uni2298" unicode="&#x2298;" horiz-adv-x="1290" 
d="M1208 532q0 -153 -75.5 -282.5t-205 -205t-282.5 -75.5t-282.5 75.5t-205 205t-75.5 282.5t75.5 283t205 205.5t282.5 75.5t282.5 -75.5t205 -205.5t75.5 -283zM645 1014q-131 0 -241.5 -64.5t-175 -175.5t-64.5 -242q0 -180 112 -311l680 680q-138 113 -311 113z
M1126 532q0 181 -112 312l-680 -680q132 -113 311 -113q131 0 241.5 64.5t175 175t64.5 241.5z" />
    <glyph glyph-name="uni22A0" unicode="&#x22a0;" horiz-adv-x="1290" 
d="M1178 1065v-1065h-1065v1065h1065zM588 532l-393 394v-787zM645 475l-393 -393h786zM252 983l393 -393l393 393h-786zM702 532l394 -393v787z" />
    <glyph glyph-name="uni2300" unicode="&#x2300;" horiz-adv-x="1290" 
d="M113 57l106 107q-137 153 -137 368q0 153 75.5 283t205 205.5t282.5 75.5q215 0 369 -138l106 107l58 -57l-107 -107q137 -153 137 -369q0 -153 -75.5 -282.5t-205 -205t-282.5 -75.5q-216 0 -369 137l-106 -106zM1126 532q0 181 -112 312l-680 -680q132 -113 311 -113
q131 0 241.5 64.5t175 175t64.5 241.5zM164 532q0 -180 112 -311l680 680q-132 113 -311 113q-131 0 -241.5 -64.5t-175 -175.5t-64.5 -242z" />
    <glyph glyph-name="uni23CF" unicode="&#x23cf;" horiz-adv-x="1290" 
d="M113 164h1065v-164h-1065v164zM1178 410h-1065l532 655z" />
    <glyph glyph-name="uni23E9" unicode="&#x23e9;" horiz-adv-x="1290" 
d="M643 532l-530 -532v1065zM1178 532l-531 -532v1065z" />
    <glyph glyph-name="uni23EA" unicode="&#x23ea;" horiz-adv-x="1290" 
d="M1178 1065v-1065l-531 532zM643 1065v-1065l-530 532z" />
    <glyph glyph-name="uni23EB" unicode="&#x23eb;" horiz-adv-x="1290" 
d="M1178 0h-1065l532 530zM1178 535h-1065l532 530z" />
    <glyph glyph-name="uni23EC" unicode="&#x23ec;" horiz-adv-x="1290" 
d="M645 535l-532 530h1065zM645 0l-532 530h1065z" />
    <glyph glyph-name="uni23ED" unicode="&#x23ed;" horiz-adv-x="1290" 
d="M559 532l-446 -532v1065zM1010 532l-447 -532v1065zM1014 0v1065h164v-1065h-164z" />
    <glyph glyph-name="uni23EE" unicode="&#x23ee;" horiz-adv-x="1290" 
d="M1178 1065v-1065l-447 532zM727 1065v-1065l-446 532zM113 0v1065h163v-1065h-163z" />
    <glyph glyph-name="uni23F8" unicode="&#x23f8;" horiz-adv-x="1290" 
d="M768 0v1065h328v-1065h-328zM195 0v1065h327v-1065h-327z" />
    <glyph glyph-name="uni23F9" unicode="&#x23f9;" horiz-adv-x="1290" 
d="M113 1065h1065v-1065h-1065v1065z" />
    <glyph glyph-name="uni23FA" unicode="&#x23fa;" horiz-adv-x="1290" 
d="M113 532q0 145 71 268t193.5 194t267.5 71q109 0 207.5 -42t170 -113.5t113.5 -170t42 -207.5q0 -145 -71 -267.5t-194 -193.5t-268 -71t-267.5 71t-193.5 193.5t-71 267.5z" />
    <glyph glyph-name="uni25A0" unicode="&#x25a0;" horiz-adv-x="1290" 
d="M113 1065h1065v-1065h-1065v1065z" />
    <glyph glyph-name="uni25A1" unicode="&#x25a1;" horiz-adv-x="1290" 
d="M113 0v1065h1065v-1065h-1065zM195 82h901v901h-901v-901z" />
    <glyph glyph-name="uni25AF" unicode="&#x25af;" horiz-adv-x="1392" 
d="M174 0v1434h1045v-1434h-1045zM256 82h881v1270h-881v-1270z" />
    <glyph glyph-name="uni25B2" unicode="&#x25b2;" horiz-adv-x="1290" 
d="M1178 0h-1065l532 1065z" />
    <glyph glyph-name="uni25B3" unicode="&#x25b3;" horiz-adv-x="1290" 
d="M1178 0h-1065l532 1065zM645 885l-401 -803h803z" />
    <glyph glyph-name="uni25B6" unicode="&#x25b6;" horiz-adv-x="1290" 
d="M1178 532l-1065 -532v1065z" />
    <glyph glyph-name="uni25B7" unicode="&#x25b7;" horiz-adv-x="1290" 
d="M113 0v1065l1065 -533zM997 532l-802 402v-803z" />
    <glyph glyph-name="uni25BC" unicode="&#x25bc;" horiz-adv-x="1290" 
d="M645 0l-532 1065h1065z" />
    <glyph glyph-name="uni25BD" unicode="&#x25bd;" horiz-adv-x="1290" 
d="M645 0l-532 1065h1065zM1047 983h-803l401 -803z" />
    <glyph glyph-name="uni25C0" unicode="&#x25c0;" horiz-adv-x="1290" 
d="M1178 1065v-1065l-1065 532z" />
    <glyph glyph-name="uni25C1" unicode="&#x25c1;" horiz-adv-x="1290" 
d="M1178 1065v-1065l-1065 532zM293 532l803 -401v803z" />
    <glyph glyph-name="uni25C6" unicode="&#x25c6;" horiz-adv-x="1290" 
d="M1208 532l-563 -563l-563 563l563 564z" />
    <glyph glyph-name="uni25C7" unicode="&#x25c7;" horiz-adv-x="1290" 
d="M82 532l563 564l563 -564l-563 -563zM645 84l449 448l-449 449l-448 -449z" />
    <glyph glyph-name="lozenge" unicode="&#x25ca;" horiz-adv-x="1134" 
d="M76 788l409 646h164l410 -646v-143l-410 -645h-164l-409 645v143zM567 1219l-313 -502l313 -502l314 502z" />
    <glyph glyph-name="uni25CB" unicode="&#x25cb;" horiz-adv-x="1290" 
d="M82 532q0 153 75.5 283t205 205.5t282.5 75.5t282.5 -75.5t205 -205.5t75.5 -283t-75.5 -282.5t-205 -205t-282.5 -75.5t-282.5 75.5t-205 205t-75.5 282.5zM164 532q0 -131 64.5 -241.5t175 -175t241.5 -64.5t241.5 64.5t175 175t64.5 241.5t-64.5 242t-175 175.5
t-241.5 64.5t-241.5 -64.5t-175 -175.5t-64.5 -242z" />
    <glyph glyph-name="uni25CC" unicode="&#x25cc;" horiz-adv-x="1290" 
d="M604 1055q0 17 12 29t29 12t29 -12t12 -29t-12 -29t-29 -12t-29 12t-12 29zM784 1024q0 17 12 29t29 12t29 -12t12 -29t-12 -29t-29 -12t-29 12t-12 29zM940 934q0 17 12 29t29 12t29 -12t12 -29t-12 -29t-29 -12t-29 12t-12 29zM1057 795q0 17 12 29t29 12t29 -12
t12 -29t-12 -29t-29 -12t-29 12t-12 29zM1118 625q0 17 12 29t29 12t29 -12t12 -29t-12 -29t-29 -12t-29 12t-12 29zM506 1024q0 -17 -12 -29t-29 -12t-29 12t-12 29t12 29t29 12t29 -12t12 -29zM350 934q0 -17 -12 -29t-29 -12t-29 12t-12 29t12 29t29 12t29 -12t12 -29z
M233 795q0 -17 -11.5 -29t-28.5 -12t-29 12t-12 29t12 29t29 12t28.5 -12t11.5 -29zM172 625q0 -17 -12 -29t-29 -12t-29 12t-12 29t12 29t29 12t29 -12t12 -29zM604 10q0 17 12 29t29 12t29 -12t12 -29t-12 -29t-29 -12t-29 12t-12 29zM784 41q0 17 12 29t29 12t29 -12
t12 -29t-12 -29t-29 -12t-29 12t-12 29zM940 131q0 17 12 29t29 12t29 -12t12 -29t-12 -29t-29 -12t-29 12t-12 29zM1057 270q0 17 12 29t29 12t29 -12t12 -29t-12 -29t-29 -12t-29 12t-12 29zM1118 440q0 17 12 29t29 12t29 -12t12 -29t-12 -29t-29 -12t-29 12t-12 29z
M506 41q0 -17 -12 -29t-29 -12t-29 12t-12 29t12 29t29 12t29 -12t12 -29zM350 131q0 -17 -12 -29t-29 -12t-29 12t-12 29t12 29t29 12t29 -12t12 -29zM233 270q0 -17 -11.5 -29t-28.5 -12t-29 12t-12 29t12 29t29 12t28.5 -12t11.5 -29zM172 440q0 -17 -12 -29t-29 -12
t-29 12t-12 29t12 29t29 12t29 -12t12 -29z" />
    <glyph glyph-name="uni25CF" unicode="&#x25cf;" horiz-adv-x="1290" 
d="M82 532q0 153 75.5 283t205 205.5t282.5 75.5t282.5 -75.5t205 -205.5t75.5 -283t-75.5 -282.5t-205 -205t-282.5 -75.5t-282.5 75.5t-205 205t-75.5 282.5z" />
    <glyph glyph-name="uni25D0" unicode="&#x25d0;" horiz-adv-x="1290" 
d="M82 532q0 153 75.5 283t205 205.5t282.5 75.5t282.5 -75.5t205 -205.5t75.5 -283t-75.5 -282.5t-205 -205t-282.5 -75.5t-282.5 75.5t-205 205t-75.5 282.5zM645 51q131 0 241.5 64.5t175 175t64.5 241.5t-64.5 242t-175 175.5t-241.5 64.5v-963z" />
    <glyph glyph-name="uni25D1" unicode="&#x25d1;" horiz-adv-x="1290" 
d="M1208 532q0 -153 -75.5 -282.5t-205 -205t-282.5 -75.5t-282.5 75.5t-205 205t-75.5 282.5t75.5 283t205 205.5t282.5 75.5t282.5 -75.5t205 -205.5t75.5 -283zM645 1014q-131 0 -241.5 -64.5t-175 -175.5t-64.5 -242t64.5 -241.5t175 -175t241.5 -64.5v963z" />
    <glyph glyph-name="uni25D2" unicode="&#x25d2;" horiz-adv-x="1290" 
d="M645 -31q-153 0 -282.5 75.5t-205 205t-75.5 282.5t75.5 283t205 205.5t282.5 75.5t282.5 -75.5t205 -205.5t75.5 -283t-75.5 -282.5t-205 -205t-282.5 -75.5zM1126 532q0 131 -64.5 242t-175 175.5t-241.5 64.5t-241.5 -64.5t-175 -175.5t-64.5 -242h962z" />
    <glyph glyph-name="uni25D3" unicode="&#x25d3;" horiz-adv-x="1290" 
d="M645 1096q153 0 282.5 -75.5t205 -205.5t75.5 -283t-75.5 -282.5t-205 -205t-282.5 -75.5t-282.5 75.5t-205 205t-75.5 282.5t75.5 283t205 205.5t282.5 75.5zM164 532q0 -131 64.5 -241.5t175 -175t241.5 -64.5t241.5 64.5t175 175t64.5 241.5h-962z" />
    <glyph glyph-name="uni25D4" unicode="&#x25d4;" horiz-adv-x="1290" 
d="M82 532q0 153 75.5 283t205 205.5t282.5 75.5t282.5 -75.5t205 -205.5t75.5 -283t-75.5 -282.5t-205 -205t-282.5 -75.5t-282.5 75.5t-205 205t-75.5 282.5zM164 532q0 -131 64.5 -241.5t175 -175t241.5 -64.5t241.5 64.5t175 175t64.5 241.5h-481v482
q-131 0 -241.5 -64.5t-175 -175.5t-64.5 -242z" />
    <glyph glyph-name="uni25D5" unicode="&#x25d5;" horiz-adv-x="1290" 
d="M82 532q0 153 75.5 283t205 205.5t282.5 75.5t282.5 -75.5t205 -205.5t75.5 -283t-75.5 -282.5t-205 -205t-282.5 -75.5t-282.5 75.5t-205 205t-75.5 282.5zM645 532v482q-131 0 -241.5 -64.5t-175 -175.5t-64.5 -242h481z" />
    <glyph glyph-name="uni25E7" unicode="&#x25e7;" horiz-adv-x="1290" 
d="M1178 0h-1065v1065h1065v-1065zM1096 82v901h-451v-901h451z" />
    <glyph glyph-name="uni25E8" unicode="&#x25e8;" horiz-adv-x="1290" 
d="M113 1065h1065v-1065h-1065v1065zM645 82v901h-450v-901h450z" />
    <glyph glyph-name="uni25E9" unicode="&#x25e9;" horiz-adv-x="1290" 
d="M113 0v1065h1065v-1065h-1065zM195 82h901v901z" />
    <glyph glyph-name="uni25EA" unicode="&#x25ea;" horiz-adv-x="1290" 
d="M113 0v1065h1065v-1065h-1065zM195 82l901 901h-901v-901z" />
    <glyph glyph-name="uni2610" unicode="&#x2610;" 
d="M113 0v1434h1433v-1434h-1433zM195 82h1269v1270h-1269v-1270z" />
    <glyph glyph-name="uni2611" unicode="&#x2611;" 
d="M113 0v1434h1433v-1434h-1433zM195 82h1269v1270h-1269v-1270zM358 522v174l308 -307l675 840v-195l-665 -829z" />
    <glyph glyph-name="uni2612" unicode="&#x2612;" 
d="M1546 1434v-1434h-1433v1434h1433zM276 221l496 496l-496 495l58 58l495 -496l496 496l57 -58l-495 -495l495 -496l-57 -57l-496 495l-495 -495zM195 82h1269v1270h-1269v-1270z" />
    <glyph glyph-name="uni2630" unicode="&#x2630;" horiz-adv-x="1290" 
d="M113 1065h1065v-164h-1065v164zM113 164h1065v-164h-1065v164zM113 614h1065v-163h-1065v163z" />
    <glyph glyph-name="uni2631" unicode="&#x2631;" horiz-adv-x="1290" 
d="M113 614h1065v-163h-1065v163zM113 164h1065v-164h-1065v164zM758 1065h420v-164h-420v164zM113 1065h419v-164h-419v164z" />
    <glyph glyph-name="uni2632" unicode="&#x2632;" horiz-adv-x="1290" 
d="M113 614h1065v-163h-1065v163zM113 1065h419v-164h-419v164zM113 164h419v-164h-419v164zM758 1065h420v-164h-420v164zM758 164h420v-164h-420v164z" />
    <glyph glyph-name="uni2633" unicode="&#x2633;" horiz-adv-x="1290" 
d="M113 164h1065v-164h-1065v164zM113 1065h419v-164h-419v164zM113 614h419v-163h-419v163zM758 614h420v-163h-420v163zM758 1065h420v-164h-420v164z" />
    <glyph glyph-name="uni2634" unicode="&#x2634;" horiz-adv-x="1290" 
d="M113 1065h1065v-164h-1065v164zM113 614h1065v-163h-1065v163zM113 164h419v-164h-419v164zM758 164h420v-164h-420v164z" />
    <glyph glyph-name="uni2635" unicode="&#x2635;" horiz-adv-x="1290" 
d="M113 614h1065v-163h-1065v163zM113 1065h419v-164h-419v164zM113 164h419v-164h-419v164zM758 1065h420v-164h-420v164zM758 164h420v-164h-420v164z" />
    <glyph glyph-name="uni2636" unicode="&#x2636;" horiz-adv-x="1290" 
d="M113 1065h1065v-164h-1065v164zM758 164h420v-164h-420v164zM113 164h419v-164h-419v164zM758 614h420v-163h-420v163zM113 614h419v-163h-419v163z" />
    <glyph glyph-name="uni2637" unicode="&#x2637;" horiz-adv-x="1290" 
d="M113 1065h419v-164h-419v164zM113 614h419v-163h-419v163zM758 1065h420v-164h-420v164zM758 614h420v-163h-420v163zM113 164h419v-164h-419v164zM758 164h420v-164h-420v164z" />
    <glyph glyph-name="uni2690" unicode="&#x2690;" horiz-adv-x="1290" 
d="M195 0h-82v1065h1065v-573h-983v-492zM195 573h901v410h-901v-410z" />
    <glyph glyph-name="uni2691" unicode="&#x2691;" horiz-adv-x="1290" 
d="M195 0h-82v1065h1065v-573h-983v-492z" />
    <glyph glyph-name="uni2713" unicode="&#x2713;" 
d="M184 442v287l420 -463l871 1280v-297l-861 -1280z" />
    <glyph glyph-name="uni2733" unicode="&#x2733;" horiz-adv-x="1290" 
d="M604 631v434h82v-434l307 307l58 -57l-308 -308h435v-81h-435l308 -308l-58 -57l-307 307v-434h-82v434l-307 -307l-57 57l307 308h-434v81h434l-307 308l57 57z" />
    <glyph glyph-name="uni2780" unicode="&#x2780;" 
d="M82 717q0 151 59.5 289t160 238.5t238.5 160t289 59.5t289.5 -59.5t239 -160t160 -238.5t59.5 -289t-59.5 -289.5t-160 -239t-239 -160t-289.5 -59.5t-289 59.5t-238.5 160t-160 239t-59.5 289.5zM164 717q0 -181 89 -334t242.5 -242.5t333.5 -89.5t333.5 89.5t243 243
t89.5 333.5t-89.5 333.5t-242.5 242.5t-334 89q-135 0 -258 -52.5t-212.5 -142t-142 -212.5t-52.5 -258zM799 297v655l-205 -215v195l205 205h153v-840h-153z" />
    <glyph glyph-name="uni2781" unicode="&#x2781;" 
d="M82 717q0 151 59.5 289t160 238.5t238.5 160t289 59.5t289.5 -59.5t239 -160t160 -238.5t59.5 -289t-59.5 -289.5t-160 -239t-239 -160t-289.5 -59.5t-289 59.5t-238.5 160t-160 239t-59.5 289.5zM164 717q0 -181 89 -334t242.5 -242.5t333.5 -89.5t333.5 89.5t243 243
t89.5 333.5t-89.5 333.5t-242.5 242.5t-334 89q-135 0 -258 -52.5t-212.5 -142t-142 -212.5t-52.5 -258zM543 930q8 93 81.5 159t204.5 66q130 0 208.5 -68.5t78.5 -177.5q0 -79 -35 -137t-108 -129l-225 -215h389v-133h-594v133l327 317q52 50 72.5 84.5t20.5 79.5
t-32.5 79t-101.5 34q-60 0 -93 -24.5t-38 -67.5h-155z" />
    <glyph glyph-name="uni2782" unicode="&#x2782;" 
d="M82 717q0 151 59.5 289t160 238.5t238.5 160t289 59.5t289.5 -59.5t239 -160t160 -238.5t59.5 -289t-59.5 -289.5t-160 -239t-239 -160t-289.5 -59.5t-289 59.5t-238.5 160t-160 239t-59.5 289.5zM164 717q0 -181 89 -334t242.5 -242.5t333.5 -89.5t333.5 89.5t243 243
t89.5 333.5t-89.5 333.5t-242.5 242.5t-334 89q-135 0 -258 -52.5t-212.5 -142t-142 -212.5t-52.5 -258zM678 512q7 -42 40.5 -72t100.5 -30q82 0 123 35t41 92q0 129 -154 129h-71v122h71q66 0 100 32.5t34 84.5t-33 85.5t-101 33.5q-65 0 -95 -27.5t-36 -64.5h-155
q8 97 84 161t202 64q130 0 208.5 -68.5t78.5 -177.5q0 -59 -31 -104t-81 -70q63 -24 98 -76.5t35 -128.5q0 -117 -85.5 -186.5t-232.5 -69.5q-129 0 -209 69t-88 167h156z" />
    <glyph glyph-name="uni2783" unicode="&#x2783;" 
d="M82 717q0 151 59.5 289t160 238.5t238.5 160t289 59.5t289.5 -59.5t239 -160t160 -238.5t59.5 -289t-59.5 -289.5t-160 -239t-239 -160t-289.5 -59.5t-289 59.5t-238.5 160t-160 239t-59.5 289.5zM164 717q0 -181 89 -334t242.5 -242.5t333.5 -89.5t333.5 89.5t243 243
t89.5 333.5t-89.5 333.5t-242.5 242.5t-334 89q-135 0 -258 -52.5t-212.5 -142t-142 -212.5t-52.5 -258zM840 1137h164v-543h122v-133h-122v-164h-154v164h-389v133zM618 594h232v154q0 108 8 204h-8q-8 -14 -21.5 -39.5t-21.5 -40t-24 -39t-35 -51.5z" />
    <glyph glyph-name="uni2784" unicode="&#x2784;" 
d="M82 717q0 151 59.5 289t160 238.5t238.5 160t289 59.5t289.5 -59.5t239 -160t160 -238.5t59.5 -289t-59.5 -289.5t-160 -239t-239 -160t-289.5 -59.5t-289 59.5t-238.5 160t-160 239t-59.5 289.5zM164 717q0 -181 89 -334t242.5 -242.5t333.5 -89.5t333.5 89.5t243 243
t89.5 333.5t-89.5 333.5t-242.5 242.5t-334 89q-135 0 -258 -52.5t-212.5 -142t-142 -212.5t-52.5 -258zM543 676l30 461h512v-133h-368l-10 -179q59 56 153 56q127 0 202 -85t75 -212q0 -133 -86.5 -220.5t-225.5 -87.5q-69 0 -126 20.5t-92.5 55t-57 75t-27.5 85.5h160
q7 -45 42.5 -75.5t100.5 -30.5q72 0 115 49t43 129q0 85 -43 131.5t-111 46.5q-94 0 -135 -86h-151z" />
    <glyph glyph-name="uni2785" unicode="&#x2785;" 
d="M82 717q0 151 59.5 289t160 238.5t238.5 160t289 59.5t289.5 -59.5t239 -160t160 -238.5t59.5 -289t-59.5 -289.5t-160 -239t-239 -160t-289.5 -59.5t-289 59.5t-238.5 160t-160 239t-59.5 289.5zM164 717q0 -181 89 -334t242.5 -242.5t333.5 -89.5t333.5 89.5t243 243
t89.5 333.5t-89.5 333.5t-242.5 242.5t-334 89q-135 0 -258 -52.5t-212.5 -142t-142 -212.5t-52.5 -258zM956 973q-32 61 -112 61q-84 0 -131 -67t-47 -170q73 77 194 77q140 0 218.5 -83.5t78.5 -206.5q0 -132 -89.5 -220t-227.5 -88q-90 0 -156.5 34t-105.5 95t-57.5 139
t-18.5 173q0 118 28.5 206t78 137.5t108 73t127.5 23.5q108 0 180.5 -48.5t95.5 -135.5h-164zM840 406q73 0 118.5 51.5t45.5 120.5q0 72 -42 124t-122 52t-122 -52t-42 -124q0 -69 45.5 -120.5t118.5 -51.5z" />
    <glyph glyph-name="uni2786" unicode="&#x2786;" 
d="M82 717q0 151 59.5 289t160 238.5t238.5 160t289 59.5t289.5 -59.5t239 -160t160 -238.5t59.5 -289t-59.5 -289.5t-160 -239t-239 -160t-289.5 -59.5t-289 59.5t-238.5 160t-160 239t-59.5 289.5zM164 717q0 -181 89 -334t242.5 -242.5t333.5 -89.5t333.5 89.5t243 243
t89.5 333.5t-89.5 333.5t-242.5 242.5t-334 89q-135 0 -258 -52.5t-212.5 -142t-142 -212.5t-52.5 -258zM780 297h-157l366 707h-416v133h574v-133z" />
    <glyph glyph-name="uni2787" unicode="&#x2787;" 
d="M82 717q0 151 59.5 289t160 238.5t238.5 160t289 59.5t289.5 -59.5t239 -160t160 -238.5t59.5 -289t-59.5 -289.5t-160 -239t-239 -160t-289.5 -59.5t-289 59.5t-238.5 160t-160 239t-59.5 289.5zM164 717q0 -181 89 -334t242.5 -242.5t333.5 -89.5t333.5 89.5t243 243
t89.5 333.5t-89.5 333.5t-242.5 242.5t-334 89q-135 0 -258 -52.5t-212.5 -142t-142 -212.5t-52.5 -258zM686 911q0 -50 38.5 -84t104.5 -34t105 34t39 84t-39 84.5t-105 34.5t-104.5 -34.5t-38.5 -84.5zM993 537q0 55 -44 95t-120 40t-119.5 -40t-43.5 -95q0 -53 44 -93.5
t119 -40.5t119.5 40.5t44.5 93.5zM1014 743q67 -30 100 -85.5t33 -125.5q0 -116 -88.5 -186t-229.5 -70t-229 70t-88 186q0 70 33 125.5t100 85.5q-58 27 -85.5 73.5t-27.5 98.5q0 103 80.5 172.5t216.5 69.5t216.5 -69.5t80.5 -172.5q0 -52 -27 -98.5t-85 -73.5z" />
    <glyph glyph-name="uni2788" unicode="&#x2788;" 
d="M82 717q0 151 59.5 289t160 238.5t238.5 160t289 59.5t289.5 -59.5t239 -160t160 -238.5t59.5 -289t-59.5 -289.5t-160 -239t-239 -160t-289.5 -59.5t-289 59.5t-238.5 160t-160 239t-59.5 289.5zM164 717q0 -181 89 -334t242.5 -242.5t333.5 -89.5t333.5 89.5t243 243
t89.5 333.5t-89.5 333.5t-242.5 242.5t-334 89q-135 0 -258 -52.5t-212.5 -142t-142 -212.5t-52.5 -258zM696 461q28 -62 113 -62q89 0 136.5 66.5t47.5 171.5q-74 -78 -194 -78q-140 0 -218.5 83.5t-78.5 207.5q0 132 89.5 219.5t227.5 87.5q119 0 196.5 -57.5t109.5 -151
t32 -221.5q0 -119 -28.5 -208.5t-78.5 -141t-110.5 -76.5t-130.5 -25q-108 0 -181 49t-96 136h164zM819 1028q-73 0 -118.5 -51.5t-45.5 -120.5q0 -72 42 -124t122 -52t122 52t42 124q0 69 -45.5 120.5t-118.5 51.5z" />
    <glyph glyph-name="uni278A" unicode="&#x278a;" 
d="M82 717q0 151 59.5 289t160 238.5t238.5 160t289 59.5t289.5 -59.5t239 -160t160 -238.5t59.5 -289t-59.5 -289.5t-160 -239t-239 -160t-289.5 -59.5t-289 59.5t-238.5 160t-160 239t-59.5 289.5zM952 297v840h-153l-205 -205v-195l205 215v-655h153z" />
    <glyph glyph-name="uni278B" unicode="&#x278b;" 
d="M82 717q0 151 59.5 289t160 238.5t238.5 160t289 59.5t289.5 -59.5t239 -160t160 -238.5t59.5 -289t-59.5 -289.5t-160 -239t-239 -160t-289.5 -59.5t-289 59.5t-238.5 160t-160 239t-59.5 289.5zM698 930q5 43 38 67.5t93 24.5q69 0 101.5 -34t32.5 -79t-20.5 -79.5
t-72.5 -84.5l-327 -317v-133h594v133h-389l225 215q73 71 108 129t35 137q0 109 -78.5 177.5t-208.5 68.5q-131 0 -204.5 -66t-81.5 -159h155z" />
    </font>
</defs>
</svg>
