<?xml version="1.0" standalone="no"?>
<!DOCTYPE svg PUBLIC "-//W3C//DTD SVG 1.1//EN" "http://www.w3.org/Graphics/SVG/1.1/DTD/svg11.dtd" >
<svg xmlns="http://www.w3.org/2000/svg" xmlns:xlink="http://www.w3.org/1999/xlink" version="1.1">
<metadata>
Created by FontForge 20170731 at Mon Jul 25 17:59:12 2022
 By Aleksey,,,
(c) 2011-2017, Copyright by Lineto GmbH. All rights reserved.
</metadata>
<defs>
<font id="RiformaLL-Heavy" horiz-adv-x="1658" >
  <font-face 
    font-family="Riforma LL Heavy"
    font-weight="900"
    font-stretch="normal"
    units-per-em="2048"
    panose-1="2 11 10 4 2 1 1 2 1 2"
    ascent="1495"
    descent="-553"
    x-height="1065"
    cap-height="1434"
    bbox="-983 -553 3117 2048"
    underline-thickness="81"
    underline-position="-285"
    unicode-range="U+000D-1F310"
  />
<missing-glyph horiz-adv-x="1392" 
d="M143 0v1434h1106v-1434h-1106zM225 82h942v1270h-942v-1270z" />
    <glyph glyph-name="f_f" unicode="ff" horiz-adv-x="1710" 
d="M1014 778h-369v-778h-369v778h-256v287h256v41q0 169 99.5 248.5t269.5 79.5h246v-267h-184q-62 0 -62 -61v-41h369v41q0 169 99 248.5t269 79.5h308v-267h-246q-62 0 -62 -61v-41h308v-287h-308v-778h-368v778z" />
    <glyph glyph-name="f_f_i" unicode="ffi" horiz-adv-x="2230" 
d="M2120 1065v-1065h-369v778h-369v-778h-368v778h-369v-778h-369v778h-256v287h256v41q0 169 99.5 248.5t269.5 79.5h246v-267h-184q-62 0 -62 -61v-41h369v41q0 169 99 248.5t269 79.5h246v-267h-184q-62 0 -62 -61v-41h738zM1751 1434h369v-267h-369v267z" />
    <glyph glyph-name="f_f_l" unicode="ffl" horiz-adv-x="2230" 
d="M1751 1065v369h369v-1434h-369v778h-369v-778h-368v778h-369v-778h-369v778h-256v287h256v41q0 169 99.5 248.5t269.5 79.5h246v-267h-184q-62 0 -62 -61v-41h369v41q0 169 99 248.5t269 79.5h246v-267h-184q-62 0 -62 -61v-41h369z" />
    <glyph glyph-name="f_i" unicode="fi" horiz-adv-x="1492" 
d="M1014 1434h368v-267h-368v267zM1014 778h-369v-778h-369v778h-256v287h256v41q0 169 99.5 248.5t269.5 79.5h246v-267h-184q-62 0 -62 -61v-41h737v-1065h-368v778z" />
    <glyph glyph-name="f_l" unicode="fl" horiz-adv-x="1492" 
d="M1014 778h-369v-778h-369v778h-256v287h256v41q0 169 99.5 248.5t269.5 79.5h246v-267h-184q-62 0 -62 -61v-41h369v369h368v-1434h-368v778z" />
    <glyph glyph-name=".notdef" horiz-adv-x="1392" 
d="M143 0v1434h1106v-1434h-1106zM225 82h942v1270h-942v-1270z" />
    <glyph glyph-name=".null" horiz-adv-x="0" 
 />
    <glyph glyph-name="nonmarkingreturn" horiz-adv-x="682" 
 />
    <glyph glyph-name="CR" unicode="&#xd;" horiz-adv-x="434" 
 />
    <glyph glyph-name="space" unicode=" " horiz-adv-x="434" 
 />
    <glyph glyph-name="exclam" unicode="!" horiz-adv-x="643" 
d="M106 369h431v-369h-431v369zM444 512h-245l-72 430v492h389v-492z" />
    <glyph glyph-name="quotedbl" unicode="&#x22;" horiz-adv-x="1017" 
d="M115 1434h358v-420l-358 -359v779zM596 1434h358v-420l-358 -359v779z" />
    <glyph glyph-name="numbersign" unicode="#" horiz-adv-x="1806" 
d="M893 328h-174l-82 -328h-369l82 328h-297l72 286h297l51 205h-297l72 287h297l82 328h368l-82 -328h174l82 328h369l-82 -328h297l-72 -287h-297l-51 -205h297l-71 -286h-297l-82 -328h-369zM791 614h174l51 205h-174z" />
    <glyph glyph-name="dollar" unicode="$" horiz-adv-x="1345" 
d="M530 -23q-118 16 -208 57t-144.5 101t-83.5 128t-35 147h371q14 -93 68.5 -133.5t175.5 -40.5q74 0 124.5 12t76 34.5t35.5 47.5t10 59q0 76 -51 106t-195 48q-136 15 -240 49t-182.5 91.5t-120 146t-41.5 204.5q0 72 26 139t78 125t138.5 99t197.5 57v184h287v-184
q104 -16 183 -53.5t128 -92t76 -117.5t33 -136h-371q-6 72 -50.5 107.5t-141.5 35.5q-215 0 -215 -143q0 -35 10.5 -58.5t42.5 -47t97 -40t167 -28.5q269 -30 390.5 -146t121.5 -315q0 -174 -116.5 -294.5t-354.5 -148.5v-182h-287v182z" />
    <glyph glyph-name="percent" unicode="%" horiz-adv-x="1955" 
d="M293 1014q0 -125 33 -185.5t90 -60.5t90 60.5t33 185.5t-33 185.5t-90 60.5t-90 -60.5t-33 -185.5zM784 1014q0 -226 -101 -333.5t-267 -107.5q-80 0 -145.5 25t-116.5 76t-79 137.5t-28 202.5t28 202t79 137.5t116.5 76t145.5 24.5t145 -24.5t116 -76t79 -137.5t28 -202
zM1241 1434h270l-798 -1434h-271zM1417 420q0 -125 33 -185.5t90 -60.5t90 60.5t33 185.5t-33 185.5t-90 60.5t-90 -60.5t-33 -185.5zM1909 420q0 -116 -28 -202t-79 -137.5t-116.5 -76t-145.5 -24.5t-145.5 24.5t-116.5 76t-79 137.5t-28 202t28 202t79 137.5t116.5 76
t145.5 24.5t145.5 -24.5t116.5 -76t79 -137.5t28 -202z" />
    <glyph glyph-name="ampersand" unicode="&#x26;" horiz-adv-x="1634" 
d="M1632 0h-481l-90 90q-183 -121 -422 -121q-267 0 -425.5 136.5t-158.5 334.5q0 270 277 389q-103 134 -103 287q0 146 117.5 247t323.5 101q107 0 192 -31t135.5 -82t76.5 -111t26 -124q0 -119 -52 -203t-174 -155l187 -187l131 187h420l-307 -430zM414 430
q0 -83 56.5 -133.5t168.5 -50.5q109 0 201 65l-303 303q-68 -35 -95.5 -76t-27.5 -108zM670 1198q-92 0 -92 -82q0 -40 20.5 -72t67.5 -79q96 61 96 151q0 82 -92 82z" />
    <glyph glyph-name="quotesingle" unicode="'" horiz-adv-x="536" 
d="M115 1434h358v-420l-358 -359v779z" />
    <glyph glyph-name="parenleft" unicode="(" horiz-adv-x="731" 
d="M442 532q0 -117 26 -219.5t118 -373.5l102 -308h-305l-104 224q-136 287 -181 414t-45 263q0 58 9 115t22.5 107t46 128.5t61.5 142t87 185.5l104 224h305l-102 -308q-92 -270 -118 -373.5t-26 -220.5z" />
    <glyph glyph-name="parenright" unicode=")" horiz-adv-x="731" 
d="M289 532q0 117 -26 220.5t-118 373.5l-102 308h305l105 -224q135 -284 180 -412.5t45 -265.5t-45 -264.5t-180 -412.5l-105 -224h-305l102 308q92 271 118 373.5t26 219.5z" />
    <glyph glyph-name="asterisk" unicode="*" horiz-adv-x="970" 
d="M444 1112v322h82v-322l228 227l57 -57l-227 -227h321v-82h-321l227 -228l-57 -57l-228 227v-321h-82v321l-227 -227l-57 57l227 228h-321v82h321l-227 227l57 57z" />
    <glyph glyph-name="plus" unicode="+" horiz-adv-x="1228" 
d="M61 860h410v389h287v-389h409v-287h-409v-389h-287v389h-410v287z" />
    <glyph glyph-name="comma" unicode="," horiz-adv-x="638" 
d="M104 369h431v-369l-226 -369h-184l143 369h-164v369z" />
    <glyph glyph-name="hyphen" unicode="-" horiz-adv-x="946" 
d="M104 676h738v-287h-738v287z" />
    <glyph glyph-name="period" unicode="." horiz-adv-x="638" 
d="M104 369h431v-369h-431v369z" />
    <glyph glyph-name="slash" unicode="/" horiz-adv-x="1306" 
d="M862 1434h408l-830 -1434h-407z" />
    <glyph glyph-name="zero" unicode="0" horiz-adv-x="1343" 
d="M467 717q0 -159 26.5 -254t70 -130.5t108.5 -35.5t108.5 35.5t70 130.5t26.5 254t-26.5 254t-70 130.5t-108.5 35.5t-108.5 -35.5t-70 -130.5t-26.5 -254zM1266 717q0 -197 -44.5 -344t-126.5 -234t-187 -128.5t-236 -41.5t-236 41.5t-187 128.5t-126.5 234t-44.5 344
q0 159 29.5 285t82 212t127.5 142.5t163 82t192 25.5t192 -25.5t163 -82t127.5 -142.5t82 -212t29.5 -285z" />
    <glyph glyph-name="one" unicode="1" horiz-adv-x="944" 
d="M412 0v963l-349 -359v481l349 349h389v-1434h-389z" />
    <glyph glyph-name="two" unicode="2" horiz-adv-x="1245" 
d="M78 1024q9 93 48.5 172.5t106 139.5t163.5 94t214 34q123 0 224 -35.5t165 -96t99 -137t35 -161.5q0 -155 -62 -263.5t-201 -225.5l-260 -217h553v-328h-1085v328l532 471q75 67 104 118t29 107q0 133 -133 133q-57 0 -95 -33.5t-42 -99.5h-395z" />
    <glyph glyph-name="three" unicode="3" horiz-adv-x="1243" 
d="M485 911h113q66 0 99.5 37.5t33.5 95.5q0 123 -123 123q-124 0 -137 -112h-395q9 80 44.5 151t97.5 130t160 93.5t220 34.5q123 0 223.5 -32t165 -86t99 -123.5t34.5 -147.5q0 -97 -42.5 -174.5t-131.5 -122.5q225 -74 225 -338q0 -96 -38.5 -181t-109 -149.5
t-180.5 -102.5t-245 -38q-136 0 -243.5 38.5t-172.5 103t-101.5 140t-45.5 159.5h393q16 -144 170 -144q97 0 146 46.5t49 127.5q0 80 -47.5 127t-137.5 47h-123v297z" />
    <glyph glyph-name="four" unicode="4" horiz-adv-x="1359" 
d="M662 1434h430v-881h204v-328h-204v-225h-390v225h-665v328zM702 553v92q0 56 0.5 97.5t2.5 79.5t3.5 58t5 65t5.5 69h-12q-6 -11 -19.5 -37t-20 -37.5t-20 -36t-25 -43.5t-28.5 -47.5t-38.5 -61.5t-47.5 -73l-82 -125h276z" />
    <glyph glyph-name="five" unicode="5" horiz-adv-x="1284" 
d="M92 584l55 850h973v-308h-614l-14 -204q88 82 249 82q218 0 344.5 -140.5t126.5 -361.5q0 -112 -38.5 -208.5t-110.5 -169t-183.5 -114t-250.5 -41.5q-225 0 -374 122.5t-179 318.5h399q8 -59 49 -96.5t115 -37.5q82 0 133 55.5t51 160.5q0 215 -174 215
q-68 0 -115.5 -32t-66.5 -91h-375z" />
    <glyph glyph-name="six" unicode="6" horiz-adv-x="1312" 
d="M682 1464q206 0 336 -97.5t166 -270.5h-400q-5 36 -35.5 59t-76.5 23q-37 0 -68.5 -14t-60.5 -47t-46.5 -96t-19.5 -151q45 52 116.5 82.5t160.5 30.5q219 0 355 -140t136 -351q0 -225 -157 -374t-406 -149q-135 0 -240 40t-173 108t-111.5 165t-61.5 203.5t-18 231.5
q0 162 29.5 289.5t82 212.5t129 140.5t166 80t197.5 24.5zM682 246q80 0 132 64t52 171q0 108 -48.5 167t-135.5 59q-83 0 -139 -58t-56 -168q0 -108 54 -171.5t141 -63.5z" />
    <glyph glyph-name="seven" unicode="7" horiz-adv-x="1161" 
d="M520 0h-414l599 1106h-670v328h1085v-328z" />
    <glyph glyph-name="eight" unicode="8" horiz-adv-x="1310" 
d="M655 -31q-263 0 -423 128t-160 323q0 253 235 348q-87 39 -135.5 113.5t-48.5 173.5q0 180 145 294.5t387 114.5t387.5 -114.5t145.5 -294.5q0 -99 -48.5 -173.5t-135.5 -113.5q235 -95 235 -348q0 -195 -160.5 -323t-423.5 -128zM451 440q0 -90 54.5 -137t149.5 -47
t150 47t55 137q0 87 -53 136t-152 49q-95 0 -149.5 -47.5t-54.5 -137.5zM492 1034q0 -71 47.5 -107t115.5 -36t116 36t48 107q0 74 -45 109t-119 35t-118.5 -35t-44.5 -109z" />
    <glyph glyph-name="nine" unicode="9" horiz-adv-x="1316" 
d="M623 -31q-206 0 -336 98t-166 271h399q5 -36 35.5 -59t77.5 -23q37 0 69.5 14t63.5 46.5t50.5 95.5t21.5 151q-45 -50 -117 -81t-160 -31q-145 0 -258 68t-173 181.5t-60 251.5q0 224 156.5 368t406.5 144q604 0 604 -747q0 -162 -30.5 -289.5t-85 -213t-132.5 -141
t-168 -80t-198 -24.5zM633 1188q-81 0 -132.5 -59.5t-51.5 -165.5q0 -109 49 -172.5t135 -63.5q81 0 137.5 63t56.5 173q0 107 -53 166t-141 59z" />
    <glyph glyph-name="colon" unicode=":" horiz-adv-x="643" 
d="M106 369h431v-369h-431v369zM106 1065h431v-369h-431v369z" />
    <glyph glyph-name="semicolon" unicode=";" horiz-adv-x="643" 
d="M106 1065h431v-369h-431v369zM106 369h431v-369l-226 -369h-184l143 369h-164v369z" />
    <glyph glyph-name="less" unicode="&#x3c;" horiz-adv-x="1204" 
d="M1083 1290v-307l-665 -266l665 -266v-308l-1024 430v287z" />
    <glyph glyph-name="equal" unicode="=" horiz-adv-x="1245" 
d="M111 1106h1024v-287h-1024v287zM111 614h1024v-286h-1024v286z" />
    <glyph glyph-name="greater" unicode="&#x3e;" horiz-adv-x="1204" 
d="M1145 860v-287l-1024 -430v308l665 266l-665 266v307z" />
    <glyph glyph-name="question" unicode="?" horiz-adv-x="1130" 
d="M307 369h430v-369h-430v369zM51 1055q8 178 148 293.5t354 115.5q233 0 367.5 -114t134.5 -295q0 -73 -21 -131t-54.5 -96t-73.5 -69t-80.5 -56.5t-74 -51t-54.5 -61t-21 -78.5h-307q0 79 16.5 141.5t42.5 101t57.5 69.5t63.5 54.5t58 47t42.5 56t16.5 73.5
q0 102 -113 102q-105 0 -113 -102h-389z" />
    <glyph glyph-name="at" unicode="@" horiz-adv-x="1941" 
d="M1243 -303q-134 -45 -287 -45q-182 0 -346.5 69t-283.5 186t-189.5 280.5t-70.5 344.5q0 248 117.5 449.5t324 316.5t459.5 115q256 0 460.5 -104.5t322.5 -297t118 -438.5q0 -119 -31.5 -213t-85 -151.5t-120.5 -87t-142 -29.5q-179 0 -256 123q-116 -133 -318 -133
q-179 0 -299 126t-120 324q0 199 120 325t299 126q133 0 215 -82v51h297v-522q0 -92 72 -92q50 0 81.5 59t31.5 176q0 181 -84 322t-230.5 217t-330.5 76q-181 0 -329.5 -86.5t-232 -237t-83.5 -332.5q0 -183 81.5 -332.5t229.5 -236t334 -86.5q143 0 276 47v-227zM1141 532
q0 102 -44.5 159t-129.5 57q-80 0 -127 -55t-47 -161t46.5 -160.5t127.5 -54.5q85 0 129.5 57t44.5 158z" />
    <glyph glyph-name="A" unicode="A" horiz-adv-x="1519" 
d="M1038 256h-557l-100 -256h-399l583 1434h389l584 -1434h-399zM885 653q-55 147 -121 371h-8q-66 -224 -121 -371l-27 -69h303z" />
    <glyph glyph-name="B" unicode="B" horiz-adv-x="1492" 
d="M143 0v1434h768q201 0 331 -113.5t130 -296.5q0 -158 -123 -266q174 -109 174 -328q0 -190 -122 -310t-338 -120h-820zM911 328q59 0 96 29t37 94q0 122 -133 122h-379v-245h379zM870 881q123 0 123 112q0 113 -123 113h-338v-225h338z" />
    <glyph glyph-name="C" unicode="C" horiz-adv-x="1507" 
d="M1473 440q-29 -101 -83 -184.5t-134.5 -149t-195 -101.5t-253.5 -36q-226 0 -394.5 97t-255.5 266t-87 385t87 384t255.5 265.5t394.5 97.5q257 0 424 -118t231 -322h-424q-56 123 -231 123q-90 0 -158 -33.5t-109 -93t-61 -135.5t-20 -168t20 -168t61 -135.5t109 -93
t158 -33.5q190 0 244 153h422z" />
    <glyph glyph-name="D" unicode="D" horiz-adv-x="1533" 
d="M1464 717q0 -167 -51 -302.5t-143 -226t-220.5 -139.5t-281.5 -49h-625v1434h625q153 0 281.5 -49.5t220.5 -140.5t143 -226t51 -301zM1075 717q0 389 -327 389h-216v-778h216q327 0 327 389z" />
    <glyph glyph-name="E" unicode="E" horiz-adv-x="1370" 
d="M143 1434h1127v-328h-738v-215h697v-328h-697v-235h738v-328h-1127v1434z" />
    <glyph glyph-name="F" unicode="F" horiz-adv-x="1341" 
d="M143 1434h1127v-328h-738v-236h697v-327h-697v-543h-389v1434z" />
    <glyph glyph-name="G" unicode="G" horiz-adv-x="1581" 
d="M807 1147q-90 0 -158 -33.5t-109 -93t-61 -135.5t-20 -168q0 -91 20 -168t60 -136t106 -92.5t152 -33.5q255 0 307 205h-287v327h666v-819h-307l-23 113q-56 -67 -153.5 -105.5t-213.5 -38.5q-216 0 -379.5 97t-250 266t-86.5 385t87 384t255.5 265.5t394.5 97.5
q257 0 424 -118t231 -322h-424q-56 123 -231 123z" />
    <glyph glyph-name="H" unicode="H" horiz-adv-x="1638" 
d="M1495 0h-389v563h-574v-563h-389v1434h389v-543h574v543h389v-1434z" />
    <glyph glyph-name="I" unicode="I" horiz-adv-x="675" 
d="M143 0v1434h389v-1434h-389z" />
    <glyph glyph-name="J" unicode="J" horiz-adv-x="1089" 
d="M377 328q96 0 145 59t49 156v891h390v-891q0 -135 -45 -240t-124.5 -170.5t-184.5 -99t-230 -33.5h-334v328h334z" />
    <glyph glyph-name="K" unicode="K" horiz-adv-x="1570" 
d="M143 0v1434h389v-553l533 553h502l-697 -697l738 -737h-523l-553 573v-573h-389z" />
    <glyph glyph-name="L" unicode="L" horiz-adv-x="1247" 
d="M143 1434h389v-1106h697v-328h-1086v1434z" />
    <glyph glyph-name="M" unicode="M" horiz-adv-x="1925" 
d="M700 469q-41 72 -76.5 151.5t-52 122.5t-57.5 158h-8q26 -290 26 -450v-451h-389v1434h471l177 -371q95 -209 172 -418q94 256 172 418l176 371h471v-1434h-389v451q0 160 26 450h-8q-41 -115 -57.5 -158t-52 -122.5t-76.5 -151.5l-262 -469z" />
    <glyph glyph-name="N" unicode="N" 
d="M891 971q132 -210 244 -449h8q-17 223 -17 471v441h390v-1434h-451l-297 463q-32 49 -61.5 98.5t-47.5 80.5t-43.5 81t-32 63.5t-32.5 68t-27 56.5h-8q16 -210 16 -471v-440h-389v1434h451z" />
    <glyph glyph-name="O" unicode="O" horiz-adv-x="1609" 
d="M457 717q0 -186 89 -303t259 -117t259 117t89 303t-89 303t-259 117t-259 -117t-89 -303zM1542 717q0 -161 -52 -299t-146.5 -237t-233.5 -155.5t-305 -56.5t-305 56.5t-233.5 155.5t-146.5 237t-52 299q0 160 52 298t146.5 237t233.5 155.5t305 56.5t305 -56.5
t233.5 -155.5t146.5 -237t52 -298z" />
    <glyph glyph-name="P" unicode="P" horiz-adv-x="1509" 
d="M942 819q73 0 108 42t35 102t-35 101.5t-108 41.5h-410v-287h410zM532 492v-492h-389v1434h820q226 0 369 -134t143 -337t-143 -337t-369 -134h-431z" />
    <glyph glyph-name="Q" unicode="Q" horiz-adv-x="1628" 
d="M1542 717q0 -290 -162 -494l224 -223h-441l-35 35q-150 -66 -323 -66q-166 0 -305 56.5t-233.5 155.5t-146.5 237t-52 299q0 160 52 298t146.5 237t233.5 155.5t305 56.5t305 -56.5t233.5 -155.5t146.5 -237t52 -298zM457 717q0 -186 89 -303t259 -117q36 0 57 4
l-241 242h440l49 -49q43 98 43 223q0 186 -89 303t-259 117t-259 -117t-89 -303z" />
    <glyph glyph-name="R" unicode="R" horiz-adv-x="1560" 
d="M942 799q73 0 108 43t35 110t-35 110.5t-108 43.5h-410v-307h410zM1536 0h-502l-471 492h-31v-492h-389v1434h820q226 0 369 -134t143 -337q0 -185 -119.5 -313.5t-315.5 -153.5z" />
    <glyph glyph-name="S" unicode="S" horiz-adv-x="1400" 
d="M647 537q-97 13 -174.5 32.5t-151.5 56t-123.5 87t-79.5 127.5t-30 174q0 204 161.5 327t442.5 123q145 0 262 -36t191 -98.5t115 -140t47 -165.5h-389q-5 82 -56.5 123t-169.5 41q-225 0 -225 -129q0 -31 12 -54t30 -37t53.5 -25.5t67.5 -17.5t87 -14l61 -8
q69 -9 121.5 -19t113.5 -28t105.5 -40.5t88 -57.5t70.5 -79t43.5 -104.5t16.5 -134.5q0 -209 -173 -340t-462 -131q-297 0 -467 126t-178 345h389q4 -105 68.5 -149.5t187.5 -44.5q127 0 191.5 41t64.5 112q0 24 -8 42.5t-26.5 31t-37 21.5t-52 15.5t-58 10t-67.5 8.5z" />
    <glyph glyph-name="T" unicode="T" horiz-adv-x="1331" 
d="M1311 1106h-451v-1106h-389v1106h-451v328h1291v-328z" />
    <glyph glyph-name="U" unicode="U" horiz-adv-x="1527" 
d="M764 -31q-142 0 -262.5 46.5t-201.5 125.5t-126 183t-45 219v891h389v-891q0 -118 70 -182t176 -64t176 64t70 182v891h389v-891q0 -115 -45 -219t-126 -183t-201.5 -125.5t-262.5 -46.5z" />
    <glyph glyph-name="V" unicode="V" horiz-adv-x="1398" 
d="M1001 1434h400l-512 -1434h-379l-512 1434h399l185 -564q48 -147 114 -430h6q64 273 115 430z" />
    <glyph glyph-name="W" unicode="W" horiz-adv-x="2052" 
d="M831 1434h390l133 -502q44 -165 88 -420h8q48 278 84 420l127 502h389l-410 -1434h-389l-141 530q-35 134 -80 392h-8q-45 -258 -80 -392l-141 -530h-389l-410 1434h389l127 -502q36 -142 84 -420h8q44 255 88 420z" />
    <glyph glyph-name="X" unicode="X" horiz-adv-x="1429" 
d="M930 760l522 -760h-457l-286 434l-289 -434h-443l521 748l-469 686h456l236 -359l237 359h443z" />
    <glyph glyph-name="Y" unicode="Y" horiz-adv-x="1347" 
d="M479 543l-481 891h410l266 -553l266 553h410l-482 -891v-543h-389v543z" />
    <glyph glyph-name="Z" unicode="Z" horiz-adv-x="1355" 
d="M1286 0h-1208v328l686 778h-666v328h1157v-328l-686 -778h717v-328z" />
    <glyph glyph-name="bracketleft" unicode="[" horiz-adv-x="829" 
d="M131 1434h645v-287h-276v-1229h276v-287h-645v1803z" />
    <glyph glyph-name="backslash" unicode="\" horiz-adv-x="1306" 
d="M1274 0h-408l-829 1434h407z" />
    <glyph glyph-name="bracketright" unicode="]" horiz-adv-x="829" 
d="M698 -369h-645v287h277v1229h-277v287h645v-1803z" />
    <glyph glyph-name="asciicircum" unicode="^" horiz-adv-x="1175" 
d="M444 1434h287l389 -902h-307l-225 553l-226 -553h-307z" />
    <glyph glyph-name="underscore" unicode="_" horiz-adv-x="1339" 
d="M76 0h1188v-205h-1188v205z" />
    <glyph glyph-name="grave" unicode="`" horiz-adv-x="675" 
d="M635 1167h-348l-267 267h451z" />
    <glyph glyph-name="a" unicode="a" horiz-adv-x="1247" 
d="M100 758q34 168 172 253t351 85q86 0 160.5 -12.5t142 -42t115.5 -73.5t76 -110.5t28 -150.5v-707h-369v96q-105 -127 -317 -127q-184 0 -297 93t-113 266q0 156 112.5 241.5t307.5 106.5l307 31q0 71 -30.5 107t-122.5 36q-130 0 -144 -92h-379zM551 225
q88 0 156.5 66.5t68.5 169.5v10l-239 -27q-56 -6 -87.5 -33t-31.5 -73q0 -52 33.5 -82.5t99.5 -30.5z" />
    <glyph glyph-name="b" unicode="b" horiz-adv-x="1349" 
d="M479 0h-368v1434h368v-482q39 56 117 100t201 44q116 0 210.5 -45t155 -122.5t93 -179.5t32.5 -217q0 -155 -55 -281t-168.5 -204t-267.5 -78q-123 0 -201 44t-117 100v-113zM694 256q31 0 60.5 7t60.5 26t53.5 48.5t37 79.5t14.5 115q0 80 -21 137.5t-56.5 86t-72 41
t-76.5 12.5q-36 0 -72 -14t-72 -44t-58.5 -87t-22.5 -132t22.5 -132t58.5 -86.5t72 -43.5t72 -14z" />
    <glyph glyph-name="c" unicode="c" horiz-adv-x="1185" 
d="M1155 328q-44 -166 -176.5 -262.5t-345.5 -96.5q-137 0 -247 43t-181 119t-108.5 178.5t-37.5 222.5q0 248 151 406t423 158q203 0 332 -90t180 -248h-395q-11 32 -41 51.5t-76 19.5q-49 0 -86.5 -18.5t-59.5 -47.5t-35.5 -69.5t-18.5 -79t-5 -82.5t5 -82.5t18.5 -79
t35.5 -69t59.5 -47t86.5 -18.5q53 0 88 26.5t47 65.5h387z" />
    <glyph glyph-name="d" unicode="d" horiz-adv-x="1349" 
d="M870 113q-114 -144 -317 -144q-116 0 -210.5 45t-155.5 122.5t-93.5 179t-32.5 216.5t32.5 217t93.5 179.5t155.5 122.5t210.5 45q203 0 317 -144v482h369v-1434h-369v113zM655 256q36 0 72.5 14t72.5 43.5t58.5 86.5t22.5 132t-22.5 132t-58.5 87t-72.5 44t-72.5 14
q-40 0 -76.5 -12.5t-71.5 -41t-56 -86t-21 -137.5t21 -137.5t56.5 -86t71.5 -40.5t76 -12z" />
    <glyph glyph-name="e" unicode="e" horiz-adv-x="1251" 
d="M1174 328q-38 -162 -176 -260.5t-357 -98.5q-179 0 -313 74.5t-202.5 201.5t-68.5 287q0 244 157 404t417 160q207 0 341 -95.5t187 -261.5q35 -112 35 -258v-71h-758q7 -90 64 -142.5t141 -52.5q59 0 99 32t48 81h386zM631 850q-85 0 -136.5 -50t-58.5 -155h379
q-14 205 -184 205z" />
    <glyph glyph-name="f" unicode="f" horiz-adv-x="972" 
d="M20 1065h256v41q0 169 99.5 248.5t269.5 79.5h307v-267h-245q-62 0 -62 -61v-41h307v-287h-307v-778h-369v778h-256v287z" />
    <glyph glyph-name="g" unicode="g" horiz-adv-x="1339" 
d="M430 563q0 -74 19.5 -128.5t52 -83t68 -41.5t75.5 -13q91 0 158 68t67 198t-67 198t-158 68q-38 0 -75 -16t-69 -47t-51.5 -83.5t-19.5 -119.5zM860 154q-108 -123 -307 -123q-220 0 -356 149.5t-136 382.5t136 383t356 150q199 0 307 -123v92h369v-922q0 -164 -79 -289
t-211 -189t-294 -64q-203 0 -343.5 92.5t-168.5 245.5h375q23 -82 137 -82q92 0 153.5 68t61.5 218v11z" />
    <glyph glyph-name="h" unicode="h" horiz-adv-x="1347" 
d="M479 952q49 65 129.5 104.5t177.5 39.5q215 0 338 -124.5t123 -346.5v-625h-368v604q0 195 -174 195q-109 0 -167.5 -68.5t-58.5 -187.5v-543h-368v1434h368v-482z" />
    <glyph glyph-name="i" unicode="i" horiz-adv-x="589" 
d="M111 1065h368v-1065h-368v1065zM111 1434h368v-267h-368v267z" />
    <glyph glyph-name="j" unicode="j" horiz-adv-x="598" 
d="M119 1065h368v-1065q0 -181 -119 -275t-331 -94h-154v267h144q51 0 71.5 25.5t20.5 76.5v1065zM119 1434h368v-267h-368v267z" />
    <glyph glyph-name="k" unicode="k" horiz-adv-x="1296" 
d="M1339 0h-491l-369 389v-389h-368v1434h368v-738l359 369h460l-512 -512z" />
    <glyph glyph-name="l" unicode="l" horiz-adv-x="589" 
d="M111 1434h368v-1434h-368v1434z" />
    <glyph glyph-name="m" unicode="m" horiz-adv-x="2033" 
d="M838 0v604q0 93 -36.5 144t-127.5 51q-93 0 -144 -56t-51 -170v-573h-368v1065h368v-113q101 144 301 144q232 0 344 -164q51 75 143.5 119.5t225.5 44.5q92 0 170.5 -26t139.5 -77t95.5 -135t34.5 -192v-666h-368v604q0 93 -36.5 144t-127.5 51q-93 0 -144 -56t-51 -170
v-573h-368z" />
    <glyph glyph-name="n" unicode="n" horiz-adv-x="1347" 
d="M479 952q49 65 129.5 104.5t177.5 39.5q215 0 338 -124.5t123 -346.5v-625h-368v604q0 195 -174 195q-109 0 -167.5 -68.5t-58.5 -187.5v-543h-368v1065h368v-113z" />
    <glyph glyph-name="o" unicode="o" horiz-adv-x="1282" 
d="M1225 532q0 -160 -69 -287t-203 -201.5t-312 -74.5q-179 0 -313 74.5t-202.5 201.5t-68.5 287t68.5 287t202.5 202t313 75q178 0 312 -74.5t203 -202t69 -287.5zM856 532q0 53 -12 100t-36 88t-67 65t-100 24t-100 -24t-67 -65t-36 -88t-12 -100q0 -52 12 -99.5t36 -88
t67 -64.5t100 -24t100 24t67 64.5t36 88t12 99.5z" />
    <glyph glyph-name="p" unicode="p" horiz-adv-x="1349" 
d="M479 952q39 56 117 100t201 44q116 0 210.5 -45t155 -122.5t93 -179.5t32.5 -217q0 -155 -55 -281t-168.5 -204t-267.5 -78q-123 0 -201 44t-117 100v-482h-368v1434h368v-113zM694 809q-36 0 -72 -14t-72 -44t-58.5 -87t-22.5 -132t22.5 -132t58.5 -86.5t72 -43.5
t72 -14q31 0 60.5 7t60.5 26t53.5 48.5t37 79.5t14.5 115q0 80 -21 137.5t-56.5 86t-72 41t-76.5 12.5z" />
    <glyph glyph-name="q" unicode="q" horiz-adv-x="1349" 
d="M870 1065h369v-1434h-369v482q-114 -144 -317 -144q-116 0 -210.5 45t-155.5 122.5t-93.5 179t-32.5 216.5t32.5 217t93.5 179.5t155.5 122.5t210.5 45q203 0 317 -144v113zM655 809q-40 0 -76.5 -12.5t-71.5 -41t-56 -86t-21 -137.5t21 -137.5t56.5 -86t71.5 -40.5
t76 -12q36 0 72.5 14t72.5 43.5t58.5 86.5t22.5 132t-22.5 132t-58.5 87t-72.5 44t-72.5 14z" />
    <glyph glyph-name="r" unicode="r" horiz-adv-x="897" 
d="M715 778q-116 0 -176 -52.5t-60 -182.5v-543h-368v1065h368v-123q38 73 111 108t207 35h80v-307h-162z" />
    <glyph glyph-name="s" unicode="s" horiz-adv-x="1148" 
d="M543 373q-72 5 -136 19.5t-126 43.5t-106.5 69.5t-71.5 102t-27 137.5q0 115 66.5 195.5t178 118t257.5 37.5q211 0 347 -100t144 -238h-369q-2 43 -31 72.5t-96 29.5q-135 0 -135 -74q0 -39 34.5 -57t119.5 -22l33 -2q465 -29 465 -377q0 -165 -141.5 -262t-370.5 -97
q-228 0 -373.5 97.5t-149.5 261.5h365q5 -63 40 -93t118 -30q149 0 149 86q0 16 -5.5 29t-18.5 21t-24.5 13t-33.5 8.5t-34.5 5t-37.5 3.5z" />
    <glyph glyph-name="t" unicode="t" horiz-adv-x="995" 
d="M276 778h-256v287h256v246h369v-246h307v-287h-307v-450q0 -62 62 -62h245v-266h-348q-166 0 -247 77t-81 251v450z" />
    <glyph glyph-name="u" unicode="u" horiz-adv-x="1337" 
d="M858 102q-102 -133 -307 -133q-210 0 -330.5 124.5t-120.5 346.5v625h369v-604q0 -195 174 -195q109 0 162 67.5t53 188.5v543h369v-1065h-369v102z" />
    <glyph glyph-name="v" unicode="v" horiz-adv-x="1175" 
d="M782 1065h389l-399 -1065h-369l-399 1065h389l88 -277q47 -151 103 -389h8q59 251 102 389z" />
    <glyph glyph-name="w" unicode="w" horiz-adv-x="1708" 
d="M1114 768q42 -158 78 -389h8q1 5 10.5 79.5t14 106.5t16 94t23.5 113l69 293h371l-328 -1065h-358l-86 313q-41 142 -74 383h-8q-33 -241 -74 -383l-86 -313h-358l-328 1065h371l69 -293q12 -51 23.5 -113t16 -94t14 -106.5t10.5 -79.5h8q36 231 78 389l82 297h356z" />
    <glyph glyph-name="x" unicode="x" horiz-adv-x="1146" 
d="M375 551l-355 514h424l134 -213l135 213h413l-354 -506l385 -559h-424l-164 258l-166 -258h-413z" />
    <glyph glyph-name="y" unicode="y" horiz-adv-x="1155" 
d="M498 739q41 -132 73 -340h9q31 180 84 338l108 328h381l-428 -1151q-27 -73 -57 -121t-78.5 -87t-121 -57t-173.5 -18h-201v267h160q64 0 99 25t53 77l-400 1065h389z" />
    <glyph glyph-name="z" unicode="z" horiz-adv-x="1163" 
d="M1096 287v-287h-1024v287l497 491h-477v287h983v-287l-497 -491h518z" />
    <glyph glyph-name="braceleft" unicode="{" horiz-adv-x="878" 
d="M389 532q249 -46 225 -307l-20 -215q0 -4 -1 -12t-1 -12q0 -42 21.5 -55t72.5 -13h133v-287h-215q-59 0 -114 11.5t-107.5 39.5t-89.5 70t-56.5 108.5t-11.5 149.5l21 215q11 100 -29 132t-135 32h-51v287h51q95 0 135 32t29 132l-21 215q-8 83 11.5 149.5t56.5 108.5
t89.5 70t107.5 39.5t114 11.5h215v-287h-133q-51 0 -72.5 -13t-21.5 -55q0 -4 1 -12t1 -12l20 -215q24 -261 -225 -308z" />
    <glyph glyph-name="bar" unicode="|" horiz-adv-x="630" 
d="M131 1434h369v-1803h-369v1803z" />
    <glyph glyph-name="braceright" unicode="}" horiz-adv-x="878" 
d="M489 532q-249 47 -225 308l21 215q0 4 1 12t1 12q0 42 -21.5 55t-72.5 13h-134v287h215q59 0 114 -11.5t107.5 -39.5t89.5 -70t56.5 -108.5t11.5 -149.5l-20 -215q-11 -100 29 -132t135 -32h51v-287h-51q-95 0 -135 -32t-29 -132l20 -215q8 -83 -11.5 -149.5
t-56.5 -108.5t-89.5 -70t-107.5 -39.5t-114 -11.5h-215v287h134q51 0 72.5 13t21.5 55q0 4 -1 12t-1 12l-21 215q-24 261 225 307z" />
    <glyph glyph-name="asciitilde" unicode="~" horiz-adv-x="1263" 
d="M98 553q0 181 94 285t244 104q54 0 109 -18t98.5 -43.5t82.5 -51t75.5 -43.5t64.5 -18q82 0 82 113h236q0 -175 -95 -282t-243 -107q-54 0 -109 18t-98.5 43.5t-82.5 51t-75.5 43.5t-64.5 18q-82 0 -82 -113h-236z" />
    <glyph glyph-name="uni00A0" unicode="&#xa0;" horiz-adv-x="434" 
 />
    <glyph glyph-name="exclamdown" unicode="&#xa1;" horiz-adv-x="622" 
d="M526 696h-430v369h430v-369zM188 553h246l72 -430v-492h-389v492z" />
    <glyph glyph-name="cent" unicode="&#xa2;" horiz-adv-x="1216" 
d="M483 -12q-198 43 -305.5 191t-107.5 353t108 353.5t305 191.5v193h287v-187q297 -51 385 -325h-395q-11 32 -41 51.5t-76 19.5q-49 0 -86.5 -18.5t-59.5 -47.5t-35.5 -69.5t-18.5 -79t-5 -82.5t5 -82.5t18.5 -79t35.5 -69t59.5 -47t86.5 -18.5q53 0 88 26.5t47 65.5h387
q-38 -138 -137.5 -228.5t-257.5 -119.5v-185h-287v193z" />
    <glyph glyph-name="sterling" unicode="&#xa3;" horiz-adv-x="1300" 
d="M692 1167q-65 0 -109 -37t-44 -126q0 -48 14.5 -92t27 -64.5t44.5 -69.5h467v-286h-379q-9 -108 -103 -175h625v-317h-1157v317q139 0 205 43t71 132h-245v286h116q-55 105 -55 236q0 200 145.5 325t376.5 125q119 0 214.5 -33t158 -91t99.5 -130t50 -155h-376
q-6 56 -44.5 84t-101.5 28z" />
    <glyph glyph-name="currency" unicode="&#xa4;" horiz-adv-x="1257" 
d="M840 106q-99 -45 -211 -45q-120 0 -211 45l-137 -137l-215 215l129 129q-58 101 -58 219q0 116 58 220l-129 129l215 215l137 -138q93 46 211 46q110 0 211 -46l137 138l215 -215l-129 -129q57 -102 57 -220q0 -120 -57 -219l129 -129l-215 -215zM772 532q0 67 -37 115.5
t-106 48.5t-106.5 -48.5t-37.5 -115.5t37.5 -115t106.5 -48t106 48t37 115z" />
    <glyph glyph-name="yen" unicode="&#xa5;" horiz-adv-x="1415" 
d="M109 901h229l-281 533h410l235 -533h11l235 533h410l-281 -533h230v-287h-379l-31 -61v-61h266v-287h-266v-205h-379v205h-266v287h266v61l-31 61h-378v287z" />
    <glyph glyph-name="brokenbar" unicode="&#xa6;" horiz-adv-x="630" 
d="M131 369h369v-738h-369v738zM131 1434h369v-738h-369v738z" />
    <glyph glyph-name="section" unicode="&#xa7;" horiz-adv-x="1386" 
d="M63 532q0 104 51.5 178t127.5 117q-97 97 -97 258q0 167 141 273t392 106q125 0 227.5 -32.5t170 -89t107 -129.5t48.5 -158h-373q-9 143 -180 143q-164 0 -164 -102q0 -59 59 -84t218 -47q258 -34 395 -137.5t137 -295.5q0 -103 -51.5 -176t-126.5 -118q96 -101 96 -258
q0 -167 -140.5 -273t-391.5 -106q-125 0 -227.5 32.5t-170 89t-107 129.5t-48.5 158h372q4 -71 51 -107t130 -36q163 0 163 102q0 23 -5.5 39.5t-23.5 29.5t-34 21t-55 16t-68 12.5t-90 12.5q-126 17 -222 49t-167 83t-107.5 126.5t-36.5 173.5zM637 653q-90 16 -164 39
q-51 -51 -51 -119q0 -18 5 -33.5t12.5 -27.5t22.5 -23t27.5 -18t35 -14.5t38 -11.5t44 -9.5t45.5 -8t49 -7.5t49 -8q90 -16 161 -39q54 54 54 119q0 20 -5.5 37t-18 30t-25 23t-35.5 19t-40 14.5t-48 11.5t-49 9t-54 8.5t-53 8.5z" />
    <glyph glyph-name="dieresis" unicode="&#xa8;" horiz-adv-x="1024" 
d="M72 1434h368v-267h-368v267zM584 1434h368v-267h-368v267z" />
    <glyph glyph-name="copyright" unicode="&#xa9;" horiz-adv-x="1626" 
d="M629 717q0 -107 49.5 -176.5t144.5 -69.5q102 0 140 92h262q-41 -134 -147.5 -210.5t-254.5 -76.5q-192 0 -316 124.5t-124 316.5t124 316t316 124q147 0 253.5 -75t148.5 -201h-262q-38 82 -140 82q-95 0 -144.5 -69.5t-49.5 -176.5zM66 717q0 151 59.5 289t160 238.5
t238.5 160t289 59.5t289.5 -59.5t239 -160t160 -238.5t59.5 -289t-59.5 -289.5t-160 -239t-239 -160t-289.5 -59.5t-289 59.5t-238.5 160t-160 239t-59.5 289.5zM240 717q0 -156 76.5 -288t208.5 -209t288 -77t288 77t208.5 209t76.5 288q0 117 -45.5 223t-122 182.5
t-182.5 122t-223 45.5t-223 -45.5t-182.5 -122t-122 -182.5t-45.5 -223z" />
    <glyph glyph-name="ordfeminine" unicode="&#xaa;" horiz-adv-x="964" 
d="M100 1188q23 129 123 197.5t256 68.5q177 0 278 -71.5t101 -225.5v-563h-246v68q-89 -89 -245 -89q-85 0 -153 28.5t-111.5 92t-43.5 152.5q0 123 77 188.5t237 79.5l239 21v22q0 63 -28.5 89t-104.5 26q-111 0 -127 -84h-252zM418 754q87 0 140.5 53.5t53.5 144.5v19
l-213 -19q-94 -9 -94 -102q0 -42 30 -69t83 -27z" />
    <glyph glyph-name="guillemotleft" unicode="&#xab;" horiz-adv-x="1544" 
d="M823 184h-430l-348 348l348 349h430l-358 -349zM1448 184h-430l-348 348l348 349h430l-358 -349z" />
    <glyph glyph-name="logicalnot" unicode="&#xac;" horiz-adv-x="1304" 
d="M899 717h-819v287h1106v-574h-287v287z" />
    <glyph glyph-name="uni00AD" unicode="&#xad;" horiz-adv-x="946" 
d="M104 676h738v-287h-738v287z" />
    <glyph glyph-name="registered" unicode="&#xae;" horiz-adv-x="1626" 
d="M66 717q0 151 59.5 289t160 238.5t238.5 160t289 59.5t289.5 -59.5t239 -160t160 -238.5t59.5 -289t-59.5 -289.5t-160 -239t-239 -160t-289.5 -59.5t-289 59.5t-238.5 160t-160 239t-59.5 289.5zM240 717q0 -156 76.5 -288t208.5 -209t288 -77q224 0 391 154h-231
l-262 287v-287h-246v840h461q133 0 220 -83.5t87 -193.5q0 -103 -65 -177t-175 -93l252 -252q141 167 141 379q0 117 -45.5 223t-122 182.5t-182.5 122t-223 45.5t-223 -45.5t-182.5 -122t-122 -182.5t-45.5 -223zM895 758q45 0 68.5 25.5t23.5 66.5t-23.5 66.5t-68.5 25.5
h-184v-184h184z" />
    <glyph glyph-name="macron" unicode="&#xaf;" horiz-adv-x="942" 
d="M72 1434h798v-246h-798v246z" />
    <glyph glyph-name="degree" unicode="&#xb0;" horiz-adv-x="1044" 
d="M338 1004q0 -88 49.5 -141.5t134.5 -53.5t135 54t50 141t-50 140.5t-135 53.5t-134.5 -53.5t-49.5 -140.5zM993 1004q0 -194 -133.5 -327.5t-337.5 -133.5t-337.5 133.5t-133.5 327.5t133 327t338 133t338 -133t133 -327z" />
    <glyph glyph-name="plusminus" unicode="&#xb1;" horiz-adv-x="1257" 
d="M117 1044h368v205h287v-205h369v-286h-369v-205h-287v205h-368v286zM117 471h1024v-287h-1024v287z" />
    <glyph glyph-name="twosuperior" unicode="&#xb2;" horiz-adv-x="747" 
d="M47 1403q8 113 91.5 184.5t226.5 71.5q152 0 234.5 -80t82.5 -193q0 -60 -25.5 -112.5t-57.5 -85t-91 -82.5l-133 -113h327v-194h-655v194l297 256q50 44 71 73.5t21 63.5q0 78 -71 78q-63 0 -70 -61h-248z" />
    <glyph glyph-name="threesuperior" unicode="&#xb3;" horiz-adv-x="747" 
d="M274 1044q4 -35 29 -53t62 -18q92 0 92 78q0 86 -92 86h-72v184h72q32 0 51.5 18.5t19.5 55.5q0 69 -71 69q-67 0 -70 -61h-248q7 114 96.5 185t221.5 71q131 0 224 -71t93 -175q0 -59 -31.5 -104t-81.5 -70q63 -24 98 -76.5t35 -128.5q0 -113 -97.5 -184.5t-239.5 -71.5
q-138 0 -234.5 75.5t-103.5 190.5h247z" />
    <glyph glyph-name="acute" unicode="&#xb4;" horiz-adv-x="675" 
d="M205 1434h450l-266 -267h-348z" />
    <glyph glyph-name="mu" unicode="&#xb5;" horiz-adv-x="1351" 
d="M850 45q-61 -76 -174 -76t-174 76v-414h-369v1434h369v-604q0 -96 43 -150.5t131 -54.5q82 0 128 53t46 152v604h369v-1065h-369v45z" />
    <glyph glyph-name="paragraph" unicode="&#xb6;" horiz-adv-x="1648" 
d="M479 -369v983q-187 0 -308.5 114t-121.5 296t121.5 296t308.5 114h1086v-297h-164v-1506h-369v1506h-184v-1506h-369z" />
    <glyph glyph-name="periodcentered" unicode="&#xb7;" horiz-adv-x="638" 
d="M104 717h431v-369h-431v369z" />
    <glyph glyph-name="cedilla" unicode="&#xb8;" horiz-adv-x="573" 
d="M225 -266q11 -41 51 -41q24 0 38 13.5t14 37.5t-14 37.5t-38 13.5q-20 0 -36 -16l-123 123l129 129h246l-121 -121q56 -5 98.5 -49t42.5 -117q0 -90 -68.5 -152.5t-167.5 -62.5q-94 0 -162.5 59t-72.5 146h184z" />
    <glyph glyph-name="onesuperior" unicode="&#xb9;" horiz-adv-x="593" 
d="M240 799v563l-205 -215v287l205 204h245v-839h-245z" />
    <glyph glyph-name="ordmasculine" unicode="&#xba;" horiz-adv-x="1011" 
d="M301 1014q0 -110 50 -178t155 -68t155 68t50 178t-50 178t-155 68t-155 -68t-50 -178zM956 1014q0 -197 -119.5 -319t-330.5 -122t-331 122t-120 319q0 196 120 318t331 122t330.5 -121.5t119.5 -318.5z" />
    <glyph glyph-name="guillemotright" unicode="&#xbb;" horiz-adv-x="1544" 
d="M455 532l-359 349h430l348 -349l-348 -348h-430zM1079 532l-358 349h430l348 -349l-348 -348h-430z" />
    <glyph glyph-name="onequarter" unicode="&#xbc;" horiz-adv-x="1710" 
d="M238 594v563l-205 -215v287l205 205h245v-840h-245zM1038 1434h271l-799 -1434h-270zM1264 840h286v-512h123v-195h-123v-133h-245v133h-420v195zM1120 328h185v102q0 62 14 195h-8q-32 -65 -99 -164z" />
    <glyph glyph-name="onehalf" unicode="&#xbd;" horiz-adv-x="1697" 
d="M238 594v563l-205 -215v287l205 205h245v-840h-245zM1038 1434h271l-799 -1434h-270zM997 604q8 113 91.5 184.5t226.5 71.5q152 0 234.5 -79.5t82.5 -192.5q0 -86 -42.5 -146.5t-131.5 -134.5l-133 -112h328v-195h-656v195l297 256q50 44 71 73.5t21 63.5q0 78 -71 78
q-62 0 -70 -62h-248z" />
    <glyph glyph-name="threequarters" unicode="&#xbe;" horiz-adv-x="1855" 
d="M274 840q4 -35 29 -53.5t62 -18.5q92 0 92 78q0 86 -92 86h-72v184h72q32 0 51.5 18.5t19.5 55.5q0 70 -71 70q-67 0 -70 -62h-248q7 114 96.5 185t221.5 71q131 0 224 -71t93 -175q0 -59 -31.5 -104t-81.5 -70q63 -24 98 -76.5t35 -128.5q0 -113 -97.5 -184.5
t-239.5 -71.5q-138 0 -234.5 76t-103.5 191h247zM1184 1434h270l-799 -1434h-270zM1409 840h287v-512h123v-195h-123v-133h-246v133h-420v195zM1266 328h184v102q0 62 14 195h-8q-35 -71 -98 -164z" />
    <glyph glyph-name="questiondown" unicode="&#xbf;" horiz-adv-x="1116" 
d="M813 696h-430v369h430v-369zM1069 10q-8 -178 -148 -293.5t-354 -115.5q-233 0 -367 114t-134 295q0 73 21 131t54 96t73.5 69t81 56.5t73.5 51t54 61t21 78.5h308q0 -79 -16.5 -141.5t-42.5 -101t-57.5 -69.5t-63.5 -54.5t-58 -47t-42.5 -56t-16.5 -73.5
q0 -102 112 -102q105 0 113 102h389z" />
    <glyph glyph-name="Agrave" unicode="&#xc0;" horiz-adv-x="1519" 
d="M1038 256h-557l-100 -256h-399l583 1434h389l584 -1434h-399zM885 653q-55 147 -121 371h-8q-66 -224 -121 -371l-27 -69h303zM1036 1536h-348l-266 266h450z" />
    <glyph glyph-name="Aacute" unicode="&#xc1;" horiz-adv-x="1519" 
d="M1038 256h-557l-100 -256h-399l583 1434h389l584 -1434h-399zM885 653q-55 147 -121 371h-8q-66 -224 -121 -371l-27 -69h303zM647 1802h451l-267 -266h-348z" />
    <glyph glyph-name="Acircumflex" unicode="&#xc2;" horiz-adv-x="1519" 
d="M1038 256h-557l-100 -256h-399l583 1434h389l584 -1434h-399zM885 653q-55 147 -121 371h-8q-66 -224 -121 -371l-27 -69h303zM760 1669l-82 -133h-389l266 266h410l266 -266h-389z" />
    <glyph glyph-name="Atilde" unicode="&#xc3;" horiz-adv-x="1519" 
d="M1038 256h-557l-100 -256h-399l583 1434h389l584 -1434h-399zM885 653q-55 147 -121 371h-8q-66 -224 -121 -371l-27 -69h303zM350 1538q0 145 65.5 226t200.5 81q56 0 107.5 -17.5t82.5 -38.5t66 -38.5t62 -17.5q51 0 51 71h184q0 -145 -65.5 -226t-200.5 -81
q-56 0 -107.5 17.5t-82 39t-65.5 39t-62 17.5q-51 0 -51 -72h-185z" />
    <glyph glyph-name="Adieresis" unicode="&#xc4;" horiz-adv-x="1519" 
d="M1038 256h-557l-100 -256h-399l583 1434h389l584 -1434h-399zM885 653q-55 147 -121 371h-8q-66 -224 -121 -371l-27 -69h303zM319 1802h369v-266h-369v266zM831 1802h369v-266h-369v266z" />
    <glyph glyph-name="Aring" unicode="&#xc5;" horiz-adv-x="1519" 
d="M1038 256h-557l-100 -256h-399l579 1421q-98 79 -98 207q0 115 87 196t210 81t210 -81t87 -196q0 -121 -99 -207l580 -1421h-399zM657 1628q0 -43 30 -72.5t73 -29.5t72.5 29.5t29.5 72.5t-29.5 73t-72.5 30t-73 -30t-30 -73zM885 653q-55 147 -121 371h-8
q-66 -224 -121 -371l-27 -69h303z" />
    <glyph glyph-name="AE" unicode="&#xc6;" horiz-adv-x="2314" 
d="M1128 256h-575l-172 -256h-430l962 1434h1301v-328h-696v-215h655v-328h-655v-235h696v-328h-1086v256zM1118 1106l-348 -522h358v522h-10z" />
    <glyph glyph-name="Ccedilla" unicode="&#xc7;" horiz-adv-x="1507" 
d="M735 -266q11 -41 51 -41q24 0 38 13.5t14 37.5t-14 37.5t-38 13.5q-20 0 -36 -16l-123 123l73 73q-293 32 -461.5 235.5t-168.5 506.5q0 216 87 384t255.5 265.5t394.5 97.5q257 0 424 -118t231 -322h-424q-56 123 -231 123q-90 0 -158 -33.5t-109 -93t-61 -135.5
t-20 -168t20 -168t61 -135.5t109 -93t158 -33.5q190 0 244 153h422q-52 -182 -182.5 -303.5t-340.5 -156.5l-69 -70q56 -5 98.5 -49t42.5 -117q0 -90 -68.5 -152.5t-167.5 -62.5q-94 0 -162.5 59t-72.5 146h184z" />
    <glyph glyph-name="Egrave" unicode="&#xc8;" horiz-adv-x="1370" 
d="M143 1434h1127v-328h-738v-215h697v-328h-697v-235h738v-328h-1127v1434zM973 1536h-348l-267 266h451z" />
    <glyph glyph-name="Eacute" unicode="&#xc9;" horiz-adv-x="1370" 
d="M143 1434h1127v-328h-738v-215h697v-328h-697v-235h738v-328h-1127v1434zM604 1802h451l-267 -266h-348z" />
    <glyph glyph-name="Ecircumflex" unicode="&#xca;" horiz-adv-x="1370" 
d="M143 1434h1127v-328h-738v-215h697v-328h-697v-235h738v-328h-1127v1434zM707 1669l-82 -133h-389l266 266h409l267 -266h-390z" />
    <glyph glyph-name="Edieresis" unicode="&#xcb;" horiz-adv-x="1370" 
d="M143 1434h1127v-328h-738v-215h697v-328h-697v-235h738v-328h-1127v1434zM266 1802h369v-266h-369v266zM778 1802h369v-266h-369v266z" />
    <glyph glyph-name="Igrave" unicode="&#xcc;" horiz-adv-x="675" 
d="M143 0v1434h389v-1434h-389zM625 1536h-349l-266 266h451z" />
    <glyph glyph-name="Iacute" unicode="&#xcd;" horiz-adv-x="675" 
d="M143 0v1434h389v-1434h-389zM215 1802h451l-267 -266h-348z" />
    <glyph glyph-name="Icircumflex" unicode="&#xce;" horiz-adv-x="675" 
d="M143 0v1434h389v-1434h-389zM338 1669l-82 -133h-389l266 266h410l266 -266h-389z" />
    <glyph glyph-name="Idieresis" unicode="&#xcf;" horiz-adv-x="675" 
d="M143 0v1434h389v-1434h-389zM-102 1802h368v-266h-368v266zM410 1802h368v-266h-368v266z" />
    <glyph glyph-name="Eth" unicode="&#xd0;" horiz-adv-x="1630" 
d="M240 891v543h624q153 0 281.5 -49.5t220.5 -140.5t143.5 -226t51.5 -301q0 -222 -89 -385.5t-246 -247.5t-362 -84h-624v573h-226v318h226zM1171 717q0 389 -327 389h-215v-215h348v-318h-348v-245h215q327 0 327 389z" />
    <glyph glyph-name="Ntilde" unicode="&#xd1;" 
d="M891 971q132 -210 244 -449h8q-17 223 -17 471v441h390v-1434h-451l-297 463q-32 49 -61.5 98.5t-47.5 80.5t-43.5 81t-32 63.5t-32.5 68t-27 56.5h-8q16 -210 16 -471v-440h-389v1434h451zM420 1546q0 145 65.5 226t200.5 81q56 0 107.5 -17.5t82.5 -38.5t66 -38.5
t62 -17.5q51 0 51 71h184q0 -145 -65.5 -226t-200.5 -81q-56 0 -107.5 17.5t-82.5 39t-66 39t-62 17.5q-51 0 -51 -72h-184z" />
    <glyph glyph-name="Ograve" unicode="&#xd2;" horiz-adv-x="1609" 
d="M457 717q0 -186 89 -303t259 -117t259 117t89 303t-89 303t-259 117t-259 -117t-89 -303zM1542 717q0 -161 -52 -299t-146.5 -237t-233.5 -155.5t-305 -56.5t-305 56.5t-233.5 155.5t-146.5 237t-52 299q0 160 52 298t146.5 237t233.5 155.5t305 56.5t305 -56.5
t233.5 -155.5t146.5 -237t52 -298zM1071 1536h-348l-266 266h450z" />
    <glyph glyph-name="Oacute" unicode="&#xd3;" horiz-adv-x="1609" 
d="M457 717q0 -186 89 -303t259 -117t259 117t89 303t-89 303t-259 117t-259 -117t-89 -303zM1542 717q0 -161 -52 -299t-146.5 -237t-233.5 -155.5t-305 -56.5t-305 56.5t-233.5 155.5t-146.5 237t-52 299q0 160 52 298t146.5 237t233.5 155.5t305 56.5t305 -56.5
t233.5 -155.5t146.5 -237t52 -298zM702 1802h451l-266 -266h-348z" />
    <glyph glyph-name="Ocircumflex" unicode="&#xd4;" horiz-adv-x="1609" 
d="M457 717q0 -186 89 -303t259 -117t259 117t89 303t-89 303t-259 117t-259 -117t-89 -303zM1542 717q0 -161 -52 -299t-146.5 -237t-233.5 -155.5t-305 -56.5t-305 56.5t-233.5 155.5t-146.5 237t-52 299q0 160 52 298t146.5 237t233.5 155.5t305 56.5t305 -56.5
t233.5 -155.5t146.5 -237t52 -298zM805 1669l-82 -133h-389l266 266h410l266 -266h-389z" />
    <glyph glyph-name="Otilde" unicode="&#xd5;" horiz-adv-x="1609" 
d="M457 717q0 -186 89 -303t259 -117t259 117t89 303t-89 303t-259 117t-259 -117t-89 -303zM1542 717q0 -161 -52 -299t-146.5 -237t-233.5 -155.5t-305 -56.5t-305 56.5t-233.5 155.5t-146.5 237t-52 299q0 160 52 298t146.5 237t233.5 155.5t305 56.5t305 -56.5
t233.5 -155.5t146.5 -237t52 -298zM395 1546q0 145 66 226t201 81q56 0 107.5 -17.5t82 -38.5t65.5 -38.5t62 -17.5q51 0 51 71h184q0 -145 -65.5 -226t-200.5 -81q-56 0 -107.5 17.5t-82 39t-65.5 39t-62 17.5q-51 0 -51 -72h-185z" />
    <glyph glyph-name="Odieresis" unicode="&#xd6;" horiz-adv-x="1609" 
d="M457 717q0 -186 89 -303t259 -117t259 117t89 303t-89 303t-259 117t-259 -117t-89 -303zM1542 717q0 -161 -52 -299t-146.5 -237t-233.5 -155.5t-305 -56.5t-305 56.5t-233.5 155.5t-146.5 237t-52 299q0 160 52 298t146.5 237t233.5 155.5t305 56.5t305 -56.5
t233.5 -155.5t146.5 -237t52 -298zM365 1802h368v-266h-368v266zM877 1802h368v-266h-368v266z" />
    <glyph glyph-name="multiply" unicode="&#xd7;" horiz-adv-x="1261" 
d="M1194 354l-201 -200l-362 362l-363 -362l-200 200l362 363l-362 362l200 201l363 -362l362 362l201 -201l-363 -362z" />
    <glyph glyph-name="Oslash" unicode="&#xd8;" horiz-adv-x="1617" 
d="M233 223q-161 203 -161 494q0 160 52 298t146.5 237t233.5 155.5t305 56.5q213 0 383 -92l78 92h327l-213 -256q162 -204 162 -491q0 -161 -52 -299t-146.5 -237t-233.5 -155.5t-305 -56.5q-218 0 -383 92l-78 -92h-328zM461 717q0 -110 26 -189l480 574q-65 35 -158 35
q-170 0 -259 -117t-89 -303zM1157 717q0 101 -29 186l-477 -571q72 -35 158 -35q170 0 259 117t89 303z" />
    <glyph glyph-name="Ugrave" unicode="&#xd9;" horiz-adv-x="1527" 
d="M764 -31q-142 0 -262.5 46.5t-201.5 125.5t-126 183t-45 219v891h389v-891q0 -118 70 -182t176 -64t176 64t70 182v891h389v-891q0 -115 -45 -219t-126 -183t-201.5 -125.5t-262.5 -46.5zM1030 1536h-348l-266 266h450z" />
    <glyph glyph-name="Uacute" unicode="&#xda;" horiz-adv-x="1527" 
d="M764 -31q-142 0 -262.5 46.5t-201.5 125.5t-126 183t-45 219v891h389v-891q0 -118 70 -182t176 -64t176 64t70 182v891h389v-891q0 -115 -45 -219t-126 -183t-201.5 -125.5t-262.5 -46.5zM662 1802h450l-266 -266h-348z" />
    <glyph glyph-name="Ucircumflex" unicode="&#xdb;" horiz-adv-x="1527" 
d="M764 -31q-142 0 -262.5 46.5t-201.5 125.5t-126 183t-45 219v891h389v-891q0 -118 70 -182t176 -64t176 64t70 182v891h389v-891q0 -115 -45 -219t-126 -183t-201.5 -125.5t-262.5 -46.5zM764 1669l-82 -133h-389l266 266h410l266 -266h-389z" />
    <glyph glyph-name="Udieresis" unicode="&#xdc;" horiz-adv-x="1527" 
d="M764 -31q-142 0 -262.5 46.5t-201.5 125.5t-126 183t-45 219v891h389v-891q0 -118 70 -182t176 -64t176 64t70 182v891h389v-891q0 -115 -45 -219t-126 -183t-201.5 -125.5t-262.5 -46.5zM324 1802h368v-266h-368v266zM836 1802h368v-266h-368v266z" />
    <glyph glyph-name="Yacute" unicode="&#xdd;" horiz-adv-x="1347" 
d="M479 543l-481 891h410l266 -553l266 553h410l-482 -891v-543h-389v543zM571 1802h451l-266 -266h-348z" />
    <glyph glyph-name="Thorn" unicode="&#xde;" horiz-adv-x="1529" 
d="M532 266v-266h-389v1434h389v-226h431q226 0 369 -134t143 -337t-143 -337t-369 -134h-431zM942 594q73 0 108 41.5t35 101.5t-35 102t-108 42h-410v-287h410z" />
    <glyph glyph-name="germandbls" unicode="&#xdf;" horiz-adv-x="1312" 
d="M971 809q136 -30 211 -127t75 -231q0 -209 -141.5 -330t-421.5 -121h-112v266h71q122 0 179 47.5t57 147.5q0 97 -56.5 140.5t-168.5 43.5h-72v277h61q70 0 101.5 42t31.5 91q0 80 -38.5 111.5t-104.5 31.5q-85 0 -124.5 -46t-39.5 -159v-993h-368v993q0 218 139 344.5
t393 126.5q243 0 377.5 -112.5t134.5 -286.5q0 -89 -55 -159t-129 -97z" />
    <glyph glyph-name="agrave" unicode="&#xe0;" horiz-adv-x="1247" 
d="M100 758q34 168 172 253t351 85q86 0 160.5 -12.5t142 -42t115.5 -73.5t76 -110.5t28 -150.5v-707h-369v96q-105 -127 -317 -127q-184 0 -297 93t-113 266q0 156 112.5 241.5t307.5 106.5l307 31q0 71 -30.5 107t-122.5 36q-130 0 -144 -92h-379zM551 225
q88 0 156.5 66.5t68.5 169.5v10l-239 -27q-56 -6 -87.5 -33t-31.5 -73q0 -52 33.5 -82.5t99.5 -30.5zM889 1167h-348l-267 267h451z" />
    <glyph glyph-name="aacute" unicode="&#xe1;" horiz-adv-x="1247" 
d="M100 758q34 168 172 253t351 85q86 0 160.5 -12.5t142 -42t115.5 -73.5t76 -110.5t28 -150.5v-707h-369v96q-105 -127 -317 -127q-184 0 -297 93t-113 266q0 156 112.5 241.5t307.5 106.5l307 31q0 71 -30.5 107t-122.5 36q-130 0 -144 -92h-379zM551 225
q88 0 156.5 66.5t68.5 169.5v10l-239 -27q-56 -6 -87.5 -33t-31.5 -73q0 -52 33.5 -82.5t99.5 -30.5zM520 1434h451l-266 -267h-349z" />
    <glyph glyph-name="acircumflex" unicode="&#xe2;" horiz-adv-x="1247" 
d="M100 758q34 168 172 253t351 85q86 0 160.5 -12.5t142 -42t115.5 -73.5t76 -110.5t28 -150.5v-707h-369v96q-105 -127 -317 -127q-184 0 -297 93t-113 266q0 156 112.5 241.5t307.5 106.5l307 31q0 71 -30.5 107t-122.5 36q-130 0 -144 -92h-379zM551 225
q88 0 156.5 66.5t68.5 169.5v10l-239 -27q-56 -6 -87.5 -33t-31.5 -73q0 -52 33.5 -82.5t99.5 -30.5zM623 1300l-82 -133h-389l266 267h409l267 -267h-389z" />
    <glyph glyph-name="atilde" unicode="&#xe3;" horiz-adv-x="1247" 
d="M100 758q34 168 172 253t351 85q86 0 160.5 -12.5t142 -42t115.5 -73.5t76 -110.5t28 -150.5v-707h-369v96q-105 -127 -317 -127q-184 0 -297 93t-113 266q0 156 112.5 241.5t307.5 106.5l307 31q0 71 -30.5 107t-122.5 36q-130 0 -144 -92h-379zM551 225
q88 0 156.5 66.5t68.5 169.5v10l-239 -27q-56 -6 -87.5 -33t-31.5 -73q0 -52 33.5 -82.5t99.5 -30.5zM213 1178q0 145 65.5 226t200.5 81q56 0 107.5 -17.5t82.5 -39t66 -39t62 -17.5q51 0 51 72h184q0 -145 -65.5 -226t-200.5 -81q-56 0 -107.5 17.5t-82 38.5t-65.5 38.5
t-62 17.5q-52 0 -52 -71h-184z" />
    <glyph glyph-name="adieresis" unicode="&#xe4;" horiz-adv-x="1247" 
d="M100 758q34 168 172 253t351 85q86 0 160.5 -12.5t142 -42t115.5 -73.5t76 -110.5t28 -150.5v-707h-369v96q-105 -127 -317 -127q-184 0 -297 93t-113 266q0 156 112.5 241.5t307.5 106.5l307 31q0 71 -30.5 107t-122.5 36q-130 0 -144 -92h-379zM551 225
q88 0 156.5 66.5t68.5 169.5v10l-239 -27q-56 -6 -87.5 -33t-31.5 -73q0 -52 33.5 -82.5t99.5 -30.5zM186 1434h369v-267h-369v267zM698 1434h369v-267h-369v267z" />
    <glyph glyph-name="aring" unicode="&#xe5;" horiz-adv-x="1247" 
d="M100 758q34 168 172 253t351 85q86 0 160.5 -12.5t142 -42t115.5 -73.5t76 -110.5t28 -150.5v-707h-369v96q-105 -127 -317 -127q-184 0 -297 93t-113 266q0 156 112.5 241.5t307.5 106.5l307 31q0 71 -30.5 107t-122.5 36q-130 0 -144 -92h-379zM551 225
q88 0 156.5 66.5t68.5 169.5v10l-239 -27q-56 -6 -87.5 -33t-31.5 -73q0 -52 33.5 -82.5t99.5 -30.5zM326 1403q0 115 87 195.5t210 80.5t210 -80.5t87 -195.5t-87 -196t-210 -81t-210 81t-87 196zM520 1403q0 -43 30 -73t73 -30t72.5 30t29.5 73t-29.5 72.5t-72.5 29.5
t-73 -29.5t-30 -72.5z" />
    <glyph glyph-name="ae" unicode="&#xe6;" horiz-adv-x="1959" 
d="M1350 215q59 0 99 32t48 81h385q-38 -162 -175.5 -260.5t-356.5 -98.5q-266 0 -422 162q-143 -162 -449 -162q-192 0 -311 93t-119 266q0 156 112.5 241.5t307.5 106.5l307 31q0 71 -30.5 107t-122.5 36q-130 0 -144 -92h-379q34 168 172 253t351 85q244 0 376 -99
q138 99 340 99q207 0 341.5 -95.5t187.5 -261.5q35 -112 35 -258v-71h-758q7 -90 64 -142.5t141 -52.5zM551 225q88 0 156.5 66.5t68.5 169.5v10l-239 -27q-56 -6 -87.5 -33t-31.5 -73q0 -52 33.5 -82.5t99.5 -30.5zM1339 850q-85 0 -136 -50t-58 -155h379q-14 205 -185 205
z" />
    <glyph glyph-name="ccedilla" unicode="&#xe7;" horiz-adv-x="1185" 
d="M561 -266q11 -41 51 -41q24 0 38 13.5t14 37.5t-14 37.5t-38 13.5q-21 0 -37 -16l-122 123l75 75q-222 29 -345.5 181.5t-123.5 373.5q0 248 151 406t423 158q203 0 332 -90t180 -248h-395q-11 32 -41 51.5t-76 19.5q-49 0 -86.5 -18.5t-59.5 -47.5t-35.5 -69.5
t-18.5 -79t-5 -82.5t5 -82.5t18.5 -79t35.5 -69t59.5 -47t86.5 -18.5q53 0 88 26.5t47 65.5h387q-36 -135 -130.5 -224.5t-244.5 -119.5l-73 -74q56 -5 98.5 -49t42.5 -117q0 -90 -68.5 -152.5t-167.5 -62.5q-94 0 -162.5 59t-72.5 146h184z" />
    <glyph glyph-name="egrave" unicode="&#xe8;" horiz-adv-x="1251" 
d="M1174 328q-38 -162 -176 -260.5t-357 -98.5q-179 0 -313 74.5t-202.5 201.5t-68.5 287q0 244 157 404t417 160q207 0 341 -95.5t187 -261.5q35 -112 35 -258v-71h-758q7 -90 64 -142.5t141 -52.5q59 0 99 32t48 81h386zM631 850q-85 0 -136.5 -50t-58.5 -155h379
q-14 205 -184 205zM891 1167h-348l-267 267h451z" />
    <glyph glyph-name="eacute" unicode="&#xe9;" horiz-adv-x="1251" 
d="M1174 328q-38 -162 -176 -260.5t-357 -98.5q-179 0 -313 74.5t-202.5 201.5t-68.5 287q0 244 157 404t417 160q207 0 341 -95.5t187 -261.5q35 -112 35 -258v-71h-758q7 -90 64 -142.5t141 -52.5q59 0 99 32t48 81h386zM631 850q-85 0 -136.5 -50t-58.5 -155h379
q-14 205 -184 205zM528 1434h451l-266 -267h-348z" />
    <glyph glyph-name="ecircumflex" unicode="&#xea;" horiz-adv-x="1251" 
d="M1174 328q-38 -162 -176 -260.5t-357 -98.5q-179 0 -313 74.5t-202.5 201.5t-68.5 287q0 244 157 404t417 160q207 0 341 -95.5t187 -261.5q35 -112 35 -258v-71h-758q7 -90 64 -142.5t141 -52.5q59 0 99 32t48 81h386zM631 850q-85 0 -136.5 -50t-58.5 -155h379
q-14 205 -184 205zM627 1300l-82 -133h-389l266 267h409l267 -267h-389z" />
    <glyph glyph-name="edieresis" unicode="&#xeb;" horiz-adv-x="1251" 
d="M1174 328q-38 -162 -176 -260.5t-357 -98.5q-179 0 -313 74.5t-202.5 201.5t-68.5 287q0 244 157 404t417 160q207 0 341 -95.5t187 -261.5q35 -112 35 -258v-71h-758q7 -90 64 -142.5t141 -52.5q59 0 99 32t48 81h386zM631 850q-85 0 -136.5 -50t-58.5 -155h379
q-14 205 -184 205zM186 1434h369v-267h-369v267zM698 1434h369v-267h-369v267z" />
    <glyph glyph-name="igrave" unicode="&#xec;" horiz-adv-x="589" 
d="M111 1065h368v-1065h-368v1065zM561 1167h-348l-266 267h450z" />
    <glyph glyph-name="iacute" unicode="&#xed;" horiz-adv-x="589" 
d="M111 1065h368v-1065h-368v1065zM193 1434h450l-266 -267h-348z" />
    <glyph glyph-name="icircumflex" unicode="&#xee;" horiz-adv-x="589" 
d="M111 1065h368v-1065h-368v1065zM295 1300l-82 -133h-389l266 267h410l266 -267h-389z" />
    <glyph glyph-name="idieresis" unicode="&#xef;" horiz-adv-x="589" 
d="M111 1065h368v-1065h-368v1065zM-145 1434h368v-267h-368v267zM367 1434h368v-267h-368v267z" />
    <glyph glyph-name="eth" unicode="&#xf0;" horiz-adv-x="1216" 
d="M375 1260l-174 174h473l57 -66l320 96v-256l-142 -43q56 -65 96 -127t75.5 -141.5t54 -176t18.5 -208.5q0 -108 -38 -206t-107.5 -173t-175 -119.5t-232.5 -44.5q-241 0 -392 144t-151 368q0 138 58 249.5t169 177t255 65.5q94 0 163 -31q-7 7 -46.5 41.5t-84.5 79.5
l-401 -121v256zM784 471q0 236 -184 236q-88 0 -131 -65t-43 -171t43 -170.5t131 -64.5q91 0 137.5 62t46.5 173z" />
    <glyph glyph-name="ntilde" unicode="&#xf1;" horiz-adv-x="1347" 
d="M479 952q49 65 129.5 104.5t177.5 39.5q215 0 338 -124.5t123 -346.5v-625h-368v604q0 195 -174 195q-109 0 -167.5 -68.5t-58.5 -187.5v-543h-368v1065h368v-113zM264 1178q0 145 65.5 226t200.5 81q56 0 107.5 -17.5t82.5 -39t66 -39t62 -17.5q51 0 51 72h184
q0 -145 -65.5 -226t-200.5 -81q-56 0 -107.5 17.5t-82 38.5t-65.5 38.5t-62 17.5q-51 0 -51 -71h-185z" />
    <glyph glyph-name="ograve" unicode="&#xf2;" horiz-adv-x="1282" 
d="M1225 532q0 -160 -69 -287t-203 -201.5t-312 -74.5q-179 0 -313 74.5t-202.5 201.5t-68.5 287t68.5 287t202.5 202t313 75q178 0 312 -74.5t203 -202t69 -287.5zM856 532q0 53 -12 100t-36 88t-67 65t-100 24t-100 -24t-67 -65t-36 -88t-12 -100q0 -52 12 -99.5t36 -88
t67 -64.5t100 -24t100 24t67 64.5t36 88t12 99.5zM907 1167h-348l-266 267h450z" />
    <glyph glyph-name="oacute" unicode="&#xf3;" horiz-adv-x="1282" 
d="M1225 532q0 -160 -69 -287t-203 -201.5t-312 -74.5q-179 0 -313 74.5t-202.5 201.5t-68.5 287t68.5 287t202.5 202t313 75q178 0 312 -74.5t203 -202t69 -287.5zM856 532q0 53 -12 100t-36 88t-67 65t-100 24t-100 -24t-67 -65t-36 -88t-12 -100q0 -52 12 -99.5t36 -88
t67 -64.5t100 -24t100 24t67 64.5t36 88t12 99.5zM539 1434h450l-266 -267h-348z" />
    <glyph glyph-name="ocircumflex" unicode="&#xf4;" horiz-adv-x="1282" 
d="M1225 532q0 -160 -69 -287t-203 -201.5t-312 -74.5q-179 0 -313 74.5t-202.5 201.5t-68.5 287t68.5 287t202.5 202t313 75q178 0 312 -74.5t203 -202t69 -287.5zM856 532q0 53 -12 100t-36 88t-67 65t-100 24t-100 -24t-67 -65t-36 -88t-12 -100q0 -52 12 -99.5t36 -88
t67 -64.5t100 -24t100 24t67 64.5t36 88t12 99.5zM641 1300l-82 -133h-389l266 267h410l266 -267h-389z" />
    <glyph glyph-name="otilde" unicode="&#xf5;" horiz-adv-x="1282" 
d="M1225 532q0 -160 -69 -287t-203 -201.5t-312 -74.5q-179 0 -313 74.5t-202.5 201.5t-68.5 287t68.5 287t202.5 202t313 75q178 0 312 -74.5t203 -202t69 -287.5zM856 532q0 53 -12 100t-36 88t-67 65t-100 24t-100 -24t-67 -65t-36 -88t-12 -100q0 -52 12 -99.5t36 -88
t67 -64.5t100 -24t100 24t67 64.5t36 88t12 99.5zM231 1178q0 145 66 226t201 81q56 0 107.5 -17.5t82 -39t65.5 -39t62 -17.5q51 0 51 72h185q0 -145 -66 -226t-201 -81q-56 0 -107.5 17.5t-82 38.5t-65.5 38.5t-62 17.5q-51 0 -51 -71h-185z" />
    <glyph glyph-name="odieresis" unicode="&#xf6;" horiz-adv-x="1282" 
d="M1225 532q0 -160 -69 -287t-203 -201.5t-312 -74.5q-179 0 -313 74.5t-202.5 201.5t-68.5 287t68.5 287t202.5 202t313 75q178 0 312 -74.5t203 -202t69 -287.5zM856 532q0 53 -12 100t-36 88t-67 65t-100 24t-100 -24t-67 -65t-36 -88t-12 -100q0 -52 12 -99.5t36 -88
t67 -64.5t100 -24t100 24t67 64.5t36 88t12 99.5zM201 1434h368v-267h-368v267zM713 1434h368v-267h-368v267z" />
    <glyph glyph-name="divide" unicode="&#xf7;" horiz-adv-x="1236" 
d="M66 860h1105v-287h-1105v287zM403 1249h431v-286h-431v286zM403 471h431v-287h-431v287z" />
    <glyph glyph-name="oslash" unicode="&#xf8;" horiz-adv-x="1286" 
d="M1227 532q0 -160 -69 -287t-203 -201.5t-312 -74.5q-165 0 -297 66l-55 -66h-242l150 178q-140 152 -140 385q0 160 68.5 287t202.5 202t313 75q170 0 297 -68l55 68h242l-150 -178q140 -152 140 -386zM428 532q0 -59 10 -100l299 354q-44 23 -94 23q-57 0 -100 -24
t-67 -65t-36 -88t-12 -100zM858 532q0 52 -12 99l-297 -355q39 -20 94 -20q57 0 100 24t67 64.5t36 88t12 99.5z" />
    <glyph glyph-name="ugrave" unicode="&#xf9;" horiz-adv-x="1337" 
d="M858 102q-102 -133 -307 -133q-210 0 -330.5 124.5t-120.5 346.5v625h369v-604q0 -195 174 -195q109 0 162 67.5t53 188.5v543h369v-1065h-369v102zM930 1167h-348l-267 267h451z" />
    <glyph glyph-name="uacute" unicode="&#xfa;" horiz-adv-x="1337" 
d="M858 102q-102 -133 -307 -133q-210 0 -330.5 124.5t-120.5 346.5v625h369v-604q0 -195 174 -195q109 0 162 67.5t53 188.5v543h369v-1065h-369v102zM561 1434h451l-267 -267h-348z" />
    <glyph glyph-name="ucircumflex" unicode="&#xfb;" horiz-adv-x="1337" 
d="M858 102q-102 -133 -307 -133q-210 0 -330.5 124.5t-120.5 346.5v625h369v-604q0 -195 174 -195q109 0 162 67.5t53 188.5v543h369v-1065h-369v102zM664 1300l-82 -133h-389l266 267h409l267 -267h-390z" />
    <glyph glyph-name="udieresis" unicode="&#xfc;" horiz-adv-x="1337" 
d="M858 102q-102 -133 -307 -133q-210 0 -330.5 124.5t-120.5 346.5v625h369v-604q0 -195 174 -195q109 0 162 67.5t53 188.5v543h369v-1065h-369v102zM223 1434h369v-267h-369v267zM735 1434h369v-267h-369v267z" />
    <glyph glyph-name="yacute" unicode="&#xfd;" horiz-adv-x="1155" 
d="M467 1434h451l-267 -267h-348zM498 739q41 -132 73 -340h9q31 180 84 338l108 328h381l-428 -1151q-27 -73 -57 -121t-78.5 -87t-121 -57t-173.5 -18h-201v267h160q64 0 99 25t53 77l-400 1065h389z" />
    <glyph glyph-name="thorn" unicode="&#xfe;" horiz-adv-x="1349" 
d="M469 532q0 -75 22.5 -132t58.5 -86.5t72 -43.5t72 -14q45 0 82 12t71 41t53.5 85.5t19.5 137.5t-19.5 138t-53.5 85.5t-71 41t-82 12.5q-36 0 -72 -14t-72 -44t-58.5 -87t-22.5 -132zM479 -369h-368v1803h368v-482q39 56 117 100t201 44q116 0 210.5 -45t155 -122.5
t93 -179.5t32.5 -217q0 -155 -55 -281t-168.5 -204t-267.5 -78q-123 0 -201 44t-117 100v-482z" />
    <glyph glyph-name="ydieresis" unicode="&#xff;" horiz-adv-x="1155" 
d="M139 1434h369v-267h-369v267zM651 1434h369v-267h-369v267zM498 739q41 -132 73 -340h9q31 180 84 338l108 328h381l-428 -1151q-27 -73 -57 -121t-78.5 -87t-121 -57t-173.5 -18h-201v267h160q64 0 99 25t53 77l-400 1065h389z" />
    <glyph glyph-name="Amacron" unicode="&#x100;" horiz-adv-x="1519" 
d="M1038 256h-557l-100 -256h-399l583 1434h389l584 -1434h-399zM885 653q-55 147 -121 371h-8q-66 -224 -121 -371l-27 -69h303zM360 1802h799v-246h-799v246z" />
    <glyph glyph-name="amacron" unicode="&#x101;" horiz-adv-x="1247" 
d="M100 758q34 168 172 253t351 85q86 0 160.5 -12.5t142 -42t115.5 -73.5t76 -110.5t28 -150.5v-707h-369v96q-105 -127 -317 -127q-184 0 -297 93t-113 266q0 156 112.5 241.5t307.5 106.5l307 31q0 71 -30.5 107t-122.5 36q-130 0 -144 -92h-379zM551 225
q88 0 156.5 66.5t68.5 169.5v10l-239 -27q-56 -6 -87.5 -33t-31.5 -73q0 -52 33.5 -82.5t99.5 -30.5zM223 1434h799v-246h-799v246z" />
    <glyph glyph-name="Abreve" unicode="&#x102;" horiz-adv-x="1519" 
d="M1038 256h-557l-100 -256h-399l583 1434h389l584 -1434h-399zM885 653q-55 147 -121 371h-8q-66 -224 -121 -371l-27 -69h303zM760 1516q-89 0 -162 29.5t-121 79.5t-77 111t-38 128h244q11 -52 53.5 -77.5t100.5 -25.5t100.5 26t52.5 77h244q-9 -67 -38 -128t-76.5 -111
t-120.5 -79.5t-162 -29.5z" />
    <glyph glyph-name="abreve" unicode="&#x103;" horiz-adv-x="1247" 
d="M100 758q34 168 172 253t351 85q86 0 160.5 -12.5t142 -42t115.5 -73.5t76 -110.5t28 -150.5v-707h-369v96q-105 -127 -317 -127q-184 0 -297 93t-113 266q0 156 112.5 241.5t307.5 106.5l307 31q0 71 -30.5 107t-122.5 36q-130 0 -144 -92h-379zM551 225
q88 0 156.5 66.5t68.5 169.5v10l-239 -27q-56 -6 -87.5 -33t-31.5 -73q0 -52 33.5 -82.5t99.5 -30.5zM623 1147q-89 0 -162 29.5t-121 79.5t-77 111t-38 128h244q11 -52 53 -77t101 -25q58 0 100.5 25.5t52.5 76.5h244q-9 -67 -38 -128t-76.5 -111t-120.5 -79.5t-162 -29.5z
" />
    <glyph glyph-name="Aogonek" unicode="&#x104;" horiz-adv-x="1519" 
d="M1436 -256q60 0 123 18l-89 -231q-71 -23 -157 -23q-135 0 -226.5 71.5t-91.5 195.5q0 150 142 229l-99 252h-557l-100 -256h-399l583 1434h389l584 -1434q-215 -91 -215 -178q0 -78 113 -78zM885 653q-55 147 -121 371h-8q-66 -224 -121 -371l-27 -69h303z" />
    <glyph glyph-name="aogonek" unicode="&#x105;" horiz-adv-x="1247" 
d="M623 850q-130 0 -144 -92h-379q34 168 172 253t351 85q86 0 160.5 -12.5t142 -42t115.5 -73.5t76 -110.5t28 -150.5v-707q-215 -91 -215 -178q0 -44 29.5 -61t82.5 -17q60 0 123 18l-88 -231q-71 -23 -157 -23q-135 0 -226.5 71.5t-91.5 195.5q0 170 174 245v76
q-105 -127 -317 -127q-184 0 -297 93t-113 266q0 156 112.5 241.5t307.5 106.5l307 31q0 71 -30.5 107t-122.5 36zM551 225q88 0 156.5 66.5t68.5 169.5v10l-239 -27q-56 -6 -87.5 -33t-31.5 -73q0 -52 33.5 -82.5t99.5 -30.5z" />
    <glyph glyph-name="Cacute" unicode="&#x106;" horiz-adv-x="1507" 
d="M1473 440q-29 -101 -83 -184.5t-134.5 -149t-195 -101.5t-253.5 -36q-226 0 -394.5 97t-255.5 266t-87 385t87 384t255.5 265.5t394.5 97.5q257 0 424 -118t231 -322h-424q-56 123 -231 123q-90 0 -158 -33.5t-109 -93t-61 -135.5t-20 -168t20 -168t61 -135.5t109 -93
t158 -33.5q190 0 244 153h422zM725 1802h451l-267 -266h-348z" />
    <glyph glyph-name="cacute" unicode="&#x107;" horiz-adv-x="1185" 
d="M1155 328q-44 -166 -176.5 -262.5t-345.5 -96.5q-137 0 -247 43t-181 119t-108.5 178.5t-37.5 222.5q0 248 151 406t423 158q203 0 332 -90t180 -248h-395q-11 32 -41 51.5t-76 19.5q-49 0 -86.5 -18.5t-59.5 -47.5t-35.5 -69.5t-18.5 -79t-5 -82.5t5 -82.5t18.5 -79
t35.5 -69t59.5 -47t86.5 -18.5q53 0 88 26.5t47 65.5h387zM535 1434h450l-266 -267h-348z" />
    <glyph glyph-name="Ccircumflex" unicode="&#x108;" horiz-adv-x="1507" 
d="M1473 440q-29 -101 -83 -184.5t-134.5 -149t-195 -101.5t-253.5 -36q-226 0 -394.5 97t-255.5 266t-87 385t87 384t255.5 265.5t394.5 97.5q257 0 424 -118t231 -322h-424q-56 123 -231 123q-90 0 -158 -33.5t-109 -93t-61 -135.5t-20 -168t20 -168t61 -135.5t109 -93
t158 -33.5q190 0 244 153h422zM827 1669l-82 -133h-389l267 266h409l266 -266h-389z" />
    <glyph glyph-name="ccircumflex" unicode="&#x109;" horiz-adv-x="1185" 
d="M1155 328q-44 -166 -176.5 -262.5t-345.5 -96.5q-137 0 -247 43t-181 119t-108.5 178.5t-37.5 222.5q0 248 151 406t423 158q203 0 332 -90t180 -248h-395q-11 32 -41 51.5t-76 19.5q-49 0 -86.5 -18.5t-59.5 -47.5t-35.5 -69.5t-18.5 -79t-5 -82.5t5 -82.5t18.5 -79
t35.5 -69t59.5 -47t86.5 -18.5q53 0 88 26.5t47 65.5h387zM633 1300l-82 -133h-389l266 267h410l266 -267h-389z" />
    <glyph glyph-name="Cdotaccent" unicode="&#x10a;" horiz-adv-x="1507" 
d="M1473 440q-29 -101 -83 -184.5t-134.5 -149t-195 -101.5t-253.5 -36q-226 0 -394.5 97t-255.5 266t-87 385t87 384t255.5 265.5t394.5 97.5q257 0 424 -118t231 -322h-424q-56 123 -231 123q-90 0 -158 -33.5t-109 -93t-61 -135.5t-20 -168t20 -168t61 -135.5t109 -93
t158 -33.5q190 0 244 153h422zM633 1802h368v-266h-368v266z" />
    <glyph glyph-name="cdotaccent" unicode="&#x10b;" horiz-adv-x="1185" 
d="M1155 328q-44 -166 -176.5 -262.5t-345.5 -96.5q-137 0 -247 43t-181 119t-108.5 178.5t-37.5 222.5q0 248 151 406t423 158q203 0 332 -90t180 -248h-395q-11 32 -41 51.5t-76 19.5q-49 0 -86.5 -18.5t-59.5 -47.5t-35.5 -69.5t-18.5 -79t-5 -82.5t5 -82.5t18.5 -79
t35.5 -69t59.5 -47t86.5 -18.5q53 0 88 26.5t47 65.5h387zM438 1434h369v-267h-369v267z" />
    <glyph glyph-name="Ccaron" unicode="&#x10c;" horiz-adv-x="1507" 
d="M1473 440q-29 -101 -83 -184.5t-134.5 -149t-195 -101.5t-253.5 -36q-226 0 -394.5 97t-255.5 266t-87 385t87 384t255.5 265.5t394.5 97.5q257 0 424 -118t231 -322h-424q-56 123 -231 123q-90 0 -158 -33.5t-109 -93t-61 -135.5t-20 -168t20 -168t61 -135.5t109 -93
t158 -33.5q190 0 244 153h422zM909 1802h389l-266 -266h-409l-267 266h389l82 -133z" />
    <glyph glyph-name="ccaron" unicode="&#x10d;" horiz-adv-x="1185" 
d="M1155 328q-44 -166 -176.5 -262.5t-345.5 -96.5q-137 0 -247 43t-181 119t-108.5 178.5t-37.5 222.5q0 248 151 406t423 158q203 0 332 -90t180 -248h-395q-11 32 -41 51.5t-76 19.5q-49 0 -86.5 -18.5t-59.5 -47.5t-35.5 -69.5t-18.5 -79t-5 -82.5t5 -82.5t18.5 -79
t35.5 -69t59.5 -47t86.5 -18.5q53 0 88 26.5t47 65.5h387zM715 1434h389l-266 -267h-410l-266 267h389l82 -134z" />
    <glyph glyph-name="Dcaron" unicode="&#x10e;" horiz-adv-x="1533" 
d="M1464 717q0 -167 -51 -302.5t-143 -226t-220.5 -139.5t-281.5 -49h-625v1434h625q153 0 281.5 -49.5t220.5 -140.5t143 -226t51 -301zM1075 717q0 389 -327 389h-216v-778h216q327 0 327 389zM819 1802h389l-266 -266h-410l-266 266h389l82 -133z" />
    <glyph glyph-name="dcaron" unicode="&#x10f;" horiz-adv-x="1595" 
d="M870 113q-114 -144 -317 -144q-116 0 -210.5 45t-155.5 122.5t-93.5 179t-32.5 216.5t32.5 217t93.5 179.5t155.5 122.5t210.5 45q203 0 317 -144v482h369v-1434h-369v113zM655 256q36 0 72.5 14t72.5 43.5t58.5 86.5t22.5 132t-22.5 132t-58.5 87t-72.5 44t-72.5 14
q-40 0 -76.5 -12.5t-71.5 -41t-56 -86t-21 -137.5t21 -137.5t56.5 -86t71.5 -40.5t76 -12zM1382 1434h359l-144 -471h-276z" />
    <glyph glyph-name="Dcroat" unicode="&#x110;" horiz-adv-x="1630" 
d="M240 891v543h624q153 0 281.5 -49.5t220.5 -140.5t143.5 -226t51.5 -301q0 -222 -89 -385.5t-246 -247.5t-362 -84h-624v573h-226v318h226zM1171 717q0 389 -327 389h-215v-215h348v-318h-348v-245h215q327 0 327 389z" />
    <glyph glyph-name="dcroat" unicode="&#x111;" horiz-adv-x="1361" 
d="M836 461q0 96 -55 160.5t-150 64.5t-150 -62t-55 -163t55 -163t150 -62t150 64.5t55 160.5zM825 1034h-450v266h450v134h369v-134h143v-266h-143v-1034h-369v82q-40 -48 -112.5 -80.5t-173.5 -32.5q-149 0 -260 67.5t-166.5 178t-55.5 246.5t55.5 246t166.5 177.5
t260 67.5q101 0 173.5 -32t112.5 -80v194z" />
    <glyph glyph-name="Emacron" unicode="&#x112;" horiz-adv-x="1370" 
d="M143 1434h1127v-328h-738v-215h697v-328h-697v-235h738v-328h-1127v1434zM307 1802h799v-246h-799v246z" />
    <glyph glyph-name="emacron" unicode="&#x113;" horiz-adv-x="1251" 
d="M1174 328q-38 -162 -176 -260.5t-357 -98.5q-179 0 -313 74.5t-202.5 201.5t-68.5 287q0 244 157 404t417 160q207 0 341 -95.5t187 -261.5q35 -112 35 -258v-71h-758q7 -90 64 -142.5t141 -52.5q59 0 99 32t48 81h386zM631 850q-85 0 -136.5 -50t-58.5 -155h379
q-14 205 -184 205zM231 1434h799v-246h-799v246z" />
    <glyph glyph-name="Ebreve" unicode="&#x114;" horiz-adv-x="1370" 
d="M143 1434h1127v-328h-738v-215h697v-328h-697v-235h738v-328h-1127v1434zM707 1516q-89 0 -162 29.5t-121 79.5t-77 111t-38 128h244q11 -52 53.5 -77.5t100.5 -25.5t100.5 26t52.5 77h244q-9 -67 -38 -128t-76.5 -111t-120.5 -79.5t-162 -29.5z" />
    <glyph glyph-name="ebreve" unicode="&#x115;" horiz-adv-x="1251" 
d="M1174 328q-38 -162 -176 -260.5t-357 -98.5q-179 0 -313 74.5t-202.5 201.5t-68.5 287q0 244 157 404t417 160q207 0 341 -95.5t187 -261.5q35 -112 35 -258v-71h-758q7 -90 64 -142.5t141 -52.5q59 0 99 32t48 81h386zM631 850q-85 0 -136.5 -50t-58.5 -155h379
q-14 205 -184 205zM631 1147q-89 0 -162 29.5t-121 79.5t-77 111t-38 128h244q11 -52 53 -77t101 -25q58 0 100.5 25.5t52.5 76.5h244q-9 -67 -38 -128t-76.5 -111t-120.5 -79.5t-162 -29.5z" />
    <glyph glyph-name="Edotaccent" unicode="&#x116;" horiz-adv-x="1370" 
d="M143 1434h1127v-328h-738v-215h697v-328h-697v-235h738v-328h-1127v1434zM522 1802h369v-266h-369v266z" />
    <glyph glyph-name="edotaccent" unicode="&#x117;" horiz-adv-x="1251" 
d="M1174 328q-38 -162 -176 -260.5t-357 -98.5q-179 0 -313 74.5t-202.5 201.5t-68.5 287q0 244 157 404t417 160q207 0 341 -95.5t187 -261.5q35 -112 35 -258v-71h-758q7 -90 64 -142.5t141 -52.5q59 0 99 32t48 81h386zM631 850q-85 0 -136.5 -50t-58.5 -155h379
q-14 205 -184 205zM446 1434h369v-267h-369v267z" />
    <glyph glyph-name="Eogonek" unicode="&#x118;" horiz-adv-x="1370" 
d="M143 1434h1127v-328h-738v-215h697v-328h-697v-235h738v-328q-215 -91 -215 -178q0 -44 29.5 -61t82.5 -17q60 0 123 18l-88 -231q-71 -23 -158 -23q-135 0 -226 71.5t-91 195.5q0 147 133 225h-717v1434z" />
    <glyph glyph-name="eogonek" unicode="&#x119;" horiz-adv-x="1251" 
d="M631 850q-85 0 -136.5 -50t-58.5 -155h379q-14 205 -184 205zM1174 328q-23 -86 -69 -159t-95 -119t-94.5 -85t-75 -74.5t-29.5 -68.5q0 -78 113 -78q60 0 123 18l-89 -231q-71 -23 -157 -23q-135 0 -226.5 71.5t-91.5 195.5q0 119 92 198q-241 20 -379.5 174.5
t-138.5 384.5q0 244 157 404t417 160q207 0 341 -95.5t187 -261.5q35 -112 35 -258v-71h-758q7 -90 64 -142.5t141 -52.5q59 0 99 32t48 81h386z" />
    <glyph glyph-name="Ecaron" unicode="&#x11a;" horiz-adv-x="1370" 
d="M143 1434h1127v-328h-738v-215h697v-328h-697v-235h738v-328h-1127v1434zM788 1802h390l-267 -266h-409l-266 266h389l82 -133z" />
    <glyph glyph-name="ecaron" unicode="&#x11b;" horiz-adv-x="1251" 
d="M1174 328q-38 -162 -176 -260.5t-357 -98.5q-179 0 -313 74.5t-202.5 201.5t-68.5 287q0 244 157 404t417 160q207 0 341 -95.5t187 -261.5q35 -112 35 -258v-71h-758q7 -90 64 -142.5t141 -52.5q59 0 99 32t48 81h386zM631 850q-85 0 -136.5 -50t-58.5 -155h379
q-14 205 -184 205zM709 1434h389l-267 -267h-409l-266 267h389l82 -134z" />
    <glyph glyph-name="Gcircumflex" unicode="&#x11c;" horiz-adv-x="1581" 
d="M807 1669l-82 -133h-389l266 266h410l266 -266h-389zM807 1147q-90 0 -158 -33.5t-109 -93t-61 -135.5t-20 -168q0 -91 20 -168t60 -136t106 -92.5t152 -33.5q255 0 307 205h-287v327h666v-819h-307l-23 113q-56 -67 -153.5 -105.5t-213.5 -38.5q-216 0 -379.5 97
t-250 266t-86.5 385t87 384t255.5 265.5t394.5 97.5q257 0 424 -118t231 -322h-424q-56 123 -231 123z" />
    <glyph glyph-name="gcircumflex" unicode="&#x11d;" horiz-adv-x="1339" 
d="M430 563q0 -74 19.5 -128.5t52 -83t68 -41.5t75.5 -13q91 0 158 68t67 198t-67 198t-158 68q-38 0 -75 -16t-69 -47t-51.5 -83.5t-19.5 -119.5zM860 154q-108 -123 -307 -123q-220 0 -356 149.5t-136 382.5t136 383t356 150q199 0 307 -123v92h369v-922q0 -164 -79 -289
t-211 -189t-294 -64q-203 0 -343.5 92.5t-168.5 245.5h375q23 -82 137 -82q92 0 153.5 68t61.5 218v11zM666 1300l-82 -133h-389l266 267h409l267 -267h-389z" />
    <glyph glyph-name="Gbreve" unicode="&#x11e;" horiz-adv-x="1581" 
d="M807 1516q-89 0 -162 29.5t-120.5 79.5t-76.5 111t-38 128h243q11 -52 53.5 -77.5t100.5 -25.5t101 26t53 77h243q-9 -67 -38 -128t-76.5 -111t-120.5 -79.5t-162 -29.5zM807 1147q-90 0 -158 -33.5t-109 -93t-61 -135.5t-20 -168q0 -91 20 -168t60 -136t106 -92.5
t152 -33.5q255 0 307 205h-287v327h666v-819h-307l-23 113q-56 -67 -153.5 -105.5t-213.5 -38.5q-216 0 -379.5 97t-250 266t-86.5 385t87 384t255.5 265.5t394.5 97.5q257 0 424 -118t231 -322h-424q-56 123 -231 123z" />
    <glyph glyph-name="gbreve" unicode="&#x11f;" horiz-adv-x="1339" 
d="M430 563q0 -74 19.5 -128.5t52 -83t68 -41.5t75.5 -13q91 0 158 68t67 198t-67 198t-158 68q-38 0 -75 -16t-69 -47t-51.5 -83.5t-19.5 -119.5zM860 154q-108 -123 -307 -123q-220 0 -356 149.5t-136 382.5t136 383t356 150q199 0 307 -123v92h369v-922q0 -164 -79 -289
t-211 -189t-294 -64q-203 0 -343.5 92.5t-168.5 245.5h375q23 -82 137 -82q92 0 153.5 68t61.5 218v11zM666 1147q-89 0 -162 29.5t-121 79.5t-77 111t-38 128h244q11 -52 53 -77t101 -25q58 0 100.5 25.5t52.5 76.5h244q-9 -67 -38 -128t-76.5 -111t-120.5 -79.5
t-162 -29.5z" />
    <glyph glyph-name="Gdotaccent" unicode="&#x120;" horiz-adv-x="1581" 
d="M623 1802h368v-266h-368v266zM807 1147q-90 0 -158 -33.5t-109 -93t-61 -135.5t-20 -168q0 -91 20 -168t60 -136t106 -92.5t152 -33.5q255 0 307 205h-287v327h666v-819h-307l-23 113q-56 -67 -153.5 -105.5t-213.5 -38.5q-216 0 -379.5 97t-250 266t-86.5 385t87 384
t255.5 265.5t394.5 97.5q257 0 424 -118t231 -322h-424q-56 123 -231 123z" />
    <glyph glyph-name="gdotaccent" unicode="&#x121;" horiz-adv-x="1339" 
d="M430 563q0 -74 19.5 -128.5t52 -83t68 -41.5t75.5 -13q91 0 158 68t67 198t-67 198t-158 68q-38 0 -75 -16t-69 -47t-51.5 -83.5t-19.5 -119.5zM860 154q-108 -123 -307 -123q-220 0 -356 149.5t-136 382.5t136 383t356 150q199 0 307 -123v92h369v-922q0 -164 -79 -289
t-211 -189t-294 -64q-203 0 -343.5 92.5t-168.5 245.5h375q23 -82 137 -82q92 0 153.5 68t61.5 218v11zM479 1434h369v-267h-369v267z" />
    <glyph glyph-name="uni0122" unicode="&#x122;" horiz-adv-x="1581" 
d="M623 -82h368v-235l-164 -236h-153l92 236h-143v235zM807 1147q-90 0 -158 -33.5t-109 -93t-61 -135.5t-20 -168q0 -91 20 -168t60 -136t106 -92.5t152 -33.5q255 0 307 205h-287v327h666v-819h-307l-23 113q-56 -67 -153.5 -105.5t-213.5 -38.5q-216 0 -379.5 97
t-250 266t-86.5 385t87 384t255.5 265.5t394.5 97.5q257 0 424 -118t231 -322h-424q-56 123 -231 123z" />
    <glyph glyph-name="uni0123" unicode="&#x123;" horiz-adv-x="1339" 
d="M430 563q0 -74 19.5 -128.5t52 -83t68 -41.5t75.5 -13q91 0 158 68t67 198t-67 198t-158 68q-38 0 -75 -16t-69 -47t-51.5 -83.5t-19.5 -119.5zM860 154q-108 -123 -307 -123q-220 0 -356 149.5t-136 382.5t136 383t356 150q199 0 307 -123v92h369v-922q0 -164 -79 -289
t-211 -189t-294 -64q-203 0 -343.5 92.5t-168.5 245.5h375q23 -82 137 -82q92 0 153.5 68t61.5 218v11zM844 1167h-369v236l164 235h154l-93 -235h144v-236z" />
    <glyph glyph-name="Hcircumflex" unicode="&#x124;" horiz-adv-x="1638" 
d="M1495 0h-389v563h-574v-563h-389v1434h389v-543h574v543h389v-1434zM819 1669l-82 -133h-389l266 266h410l266 -266h-389z" />
    <glyph glyph-name="hcircumflex" unicode="&#x125;" horiz-adv-x="1347" 
d="M479 952q49 65 129.5 104.5t177.5 39.5q215 0 338 -124.5t123 -346.5v-625h-368v604q0 195 -174 195q-109 0 -167.5 -68.5t-58.5 -187.5v-543h-368v1434h368v-482zM295 1669l-82 -133h-389l266 266h410l266 -266h-389z" />
    <glyph glyph-name="Hbar" unicode="&#x126;" horiz-adv-x="1683" 
d="M43 1331h123v103h389v-103h573v103h390v-103h122v-317h-122v-1014h-390v563h-573v-563h-389v1014h-123v317zM1128 891v123h-573v-123h573z" />
    <glyph glyph-name="hbar" unicode="&#x127;" horiz-adv-x="1394" 
d="M543 1300h450v-276h-450v-215q49 65 129.5 104t177.5 39q215 0 338 -124.5t123 -346.5v-481h-369v461q0 194 -174 194q-108 0 -166.5 -68.5t-58.5 -187.5v-399h-369v1024h-143v276h143v134h369v-134z" />
    <glyph glyph-name="Itilde" unicode="&#x128;" horiz-adv-x="675" 
d="M143 0v1434h389v-1434h-389zM-72 1546q0 145 66 226t201 81q56 0 107.5 -17.5t82 -38.5t65.5 -38.5t62 -17.5q51 0 51 71h185q0 -145 -66 -226t-201 -81q-56 0 -107.5 17.5t-82 39t-65.5 39t-62 17.5q-51 0 -51 -72h-185z" />
    <glyph glyph-name="itilde" unicode="&#x129;" horiz-adv-x="589" 
d="M111 1065h368v-1065h-368v1065zM-115 1178q0 145 66 226t201 81q56 0 107.5 -17.5t82 -39t65.5 -39t62 -17.5q51 0 51 72h185q0 -145 -66 -226t-201 -81q-56 0 -107.5 17.5t-82 38.5t-65.5 38.5t-62 17.5q-51 0 -51 -71h-185z" />
    <glyph glyph-name="Imacron" unicode="&#x12a;" horiz-adv-x="675" 
d="M143 0v1434h389v-1434h-389zM-61 1802h798v-246h-798v246z" />
    <glyph glyph-name="imacron" unicode="&#x12b;" horiz-adv-x="589" 
d="M111 1065h368v-1065h-368v1065zM-104 1434h798v-246h-798v246z" />
    <glyph glyph-name="Ibreve" unicode="&#x12c;" horiz-adv-x="675" 
d="M143 0v1434h389v-1434h-389zM338 1516q-89 0 -162 29.5t-120.5 79.5t-76.5 111t-38 128h243q11 -52 53.5 -77.5t100.5 -25.5t101 26t53 77h243q-9 -67 -38 -128t-76.5 -111t-120.5 -79.5t-162 -29.5z" />
    <glyph glyph-name="ibreve" unicode="&#x12d;" horiz-adv-x="589" 
d="M111 1065h368v-1065h-368v1065zM295 1147q-89 0 -162 29.5t-120.5 79.5t-76.5 111t-38 128h243q11 -52 53 -77t101 -25q58 0 101 25.5t53 76.5h243q-9 -67 -38 -128t-76.5 -111t-120.5 -79.5t-162 -29.5z" />
    <glyph glyph-name="Iogonek" unicode="&#x12e;" horiz-adv-x="675" 
d="M430 -256q60 0 123 18l-88 -231q-71 -23 -158 -23q-135 0 -226 71.5t-91 195.5q0 162 153 235v1424h389v-1434q-215 -91 -215 -178q0 -78 113 -78z" />
    <glyph glyph-name="iogonek" unicode="&#x12f;" horiz-adv-x="593" 
d="M381 -256q60 0 123 18l-88 -231q-71 -23 -158 -23q-135 0 -226 71.5t-91 195.5q0 170 174 245v1045h368v-1065q-215 -91 -215 -178q0 -78 113 -78zM115 1434h368v-267h-368v267z" />
    <glyph glyph-name="Idotaccent" unicode="&#x130;" horiz-adv-x="675" 
d="M143 0v1434h389v-1434h-389zM154 1802h368v-266h-368v266z" />
    <glyph glyph-name="dotlessi" unicode="&#x131;" horiz-adv-x="589" 
d="M111 1065h368v-1065h-368v1065z" />
    <glyph glyph-name="IJ" unicode="&#x132;" horiz-adv-x="1554" 
d="M829 0q96 0 145.5 59t49.5 156v1219h389v-1219q0 -135 -45 -240t-124.5 -170.5t-184.5 -99t-230 -33.5h-149v328h149zM143 0v1434h389v-1434h-389z" />
    <glyph glyph-name="ij" unicode="&#x133;" horiz-adv-x="1163" 
d="M111 1065h368v-1065h-368v1065zM111 1434h368v-267h-368v267zM684 1434h369v-267h-369v267zM684 1065h369v-1065q0 -181 -119.5 -275t-331.5 -94h-123v267h113q51 0 71.5 25.5t20.5 76.5v1065z" />
    <glyph glyph-name="Jcircumflex" unicode="&#x134;" horiz-adv-x="1089" 
d="M766 1669l-82 -133h-389l266 266h410l266 -266h-389zM377 328q96 0 145 59t49 156v891h390v-891q0 -135 -45 -240t-124.5 -170.5t-184.5 -99t-230 -33.5h-334v328h334z" />
    <glyph glyph-name="jcircumflex" unicode="&#x135;" horiz-adv-x="598" 
d="M303 1300l-82 -133h-389l266 267h410l266 -267h-389zM119 1065h368v-1065q0 -181 -119 -275t-331 -94h-154v267h144q51 0 71.5 25.5t20.5 76.5v1065z" />
    <glyph glyph-name="uni0136" unicode="&#x136;" horiz-adv-x="1570" 
d="M143 0v1434h389v-553l533 553h502l-697 -697l738 -737h-523l-553 573v-573h-389zM625 -82h368v-235l-164 -236h-153l92 236h-143v235z" />
    <glyph glyph-name="uni0137" unicode="&#x137;" horiz-adv-x="1296" 
d="M1339 0h-491l-369 389v-389h-368v1434h368v-738l359 369h460l-512 -512zM500 -82h368v-235l-163 -236h-154l92 236h-143v235z" />
    <glyph glyph-name="kgreenlandic" unicode="&#x138;" horiz-adv-x="1296" 
d="M1339 0h-491l-369 389v-389h-368v1065h368v-369l359 369h460l-512 -512z" />
    <glyph glyph-name="Lacute" unicode="&#x139;" horiz-adv-x="1247" 
d="M143 1434h389v-1106h697v-328h-1086v1434zM215 1802h451l-267 -266h-348z" />
    <glyph glyph-name="lacute" unicode="&#x13a;" horiz-adv-x="589" 
d="M111 1434h368v-1434h-368v1434zM209 1802h450l-266 -266h-348z" />
    <glyph glyph-name="uni013B" unicode="&#x13b;" horiz-adv-x="1247" 
d="M143 1434h389v-1106h697v-328h-1086v1434zM516 -82h369v-235l-164 -236h-154l92 236h-143v235z" />
    <glyph glyph-name="uni013C" unicode="&#x13c;" horiz-adv-x="589" 
d="M111 1434h368v-1434h-368v1434zM111 -82h368v-235l-164 -236h-153l92 236h-143v235z" />
    <glyph glyph-name="Lcaron" unicode="&#x13d;" horiz-adv-x="1249" 
d="M143 1434h389v-1106h697v-328h-1086v1434zM758 1434h358l-143 -471h-277z" />
    <glyph glyph-name="lcaron" unicode="&#x13e;" horiz-adv-x="825" 
d="M111 1434h368v-1434h-368v1434zM612 1434h359l-144 -471h-276z" />
    <glyph glyph-name="Ldot" unicode="&#x13f;" horiz-adv-x="1251" 
d="M143 1434h389v-1106h697v-328h-1086v1434zM778 872h369v-266h-369v266z" />
    <glyph glyph-name="ldot" unicode="&#x140;" horiz-adv-x="962" 
d="M111 1434h368v-1434h-368v1434zM592 852h369v-266h-369v266z" />
    <glyph glyph-name="Lslash" unicode="&#x141;" horiz-adv-x="1411" 
d="M307 651v783h389v-523l338 226v-369l-338 -225v-215h697v-328h-1086v283l-225 -150v369z" />
    <glyph glyph-name="lslash" unicode="&#x142;" horiz-adv-x="937" 
d="M285 365l-226 -150v369l226 149v701h368v-455l236 158v-369l-236 -158v-610h-368v365z" />
    <glyph glyph-name="Nacute" unicode="&#x143;" 
d="M891 971q132 -210 244 -449h8q-17 223 -17 471v441h390v-1434h-451l-297 463q-32 49 -61.5 98.5t-47.5 80.5t-43.5 81t-32 63.5t-32.5 68t-27 56.5h-8q16 -210 16 -471v-440h-389v1434h451zM717 1802h450l-266 -266h-348z" />
    <glyph glyph-name="nacute" unicode="&#x144;" horiz-adv-x="1347" 
d="M479 952q49 65 129.5 104.5t177.5 39.5q215 0 338 -124.5t123 -346.5v-625h-368v604q0 195 -174 195q-109 0 -167.5 -68.5t-58.5 -187.5v-543h-368v1065h368v-113zM571 1434h451l-266 -267h-348z" />
    <glyph glyph-name="uni0145" unicode="&#x145;" 
d="M891 971q132 -210 244 -449h8q-17 223 -17 471v441h390v-1434h-451l-297 463q-32 49 -61.5 98.5t-47.5 80.5t-43.5 81t-32 63.5t-32.5 68t-27 56.5h-8q16 -210 16 -471v-440h-389v1434h451zM645 -82h369v-235l-164 -236h-154l92 236h-143v235z" />
    <glyph glyph-name="uni0146" unicode="&#x146;" horiz-adv-x="1347" 
d="M479 952q49 65 129.5 104.5t177.5 39.5q215 0 338 -124.5t123 -346.5v-625h-368v604q0 195 -174 195q-109 0 -167.5 -68.5t-58.5 -187.5v-543h-368v1065h368v-113zM494 -82h368v-235l-164 -236h-153l92 236h-143v235z" />
    <glyph glyph-name="Ncaron" unicode="&#x147;" 
d="M891 971q132 -210 244 -449h8q-17 223 -17 471v441h390v-1434h-451l-297 463q-32 49 -61.5 98.5t-47.5 80.5t-43.5 81t-32 63.5t-32.5 68t-27 56.5h-8q16 -210 16 -471v-440h-389v1434h451zM911 1802h389l-266 -266h-409l-267 266h390l81 -133z" />
    <glyph glyph-name="ncaron" unicode="&#x148;" horiz-adv-x="1347" 
d="M479 952q49 65 129.5 104.5t177.5 39.5q215 0 338 -124.5t123 -346.5v-625h-368v604q0 195 -174 195q-109 0 -167.5 -68.5t-58.5 -187.5v-543h-368v1065h368v-113zM756 1434h389l-266 -267h-410l-266 267h389l82 -134z" />
    <glyph glyph-name="napostrophe" unicode="&#x149;" horiz-adv-x="1605" 
d="M737 952q49 65 129.5 104.5t177.5 39.5q215 0 338 -124.5t123 -346.5v-625h-368v604q0 195 -174 195q-109 0 -167.5 -68.5t-58.5 -187.5v-543h-368v1065h368v-113zM20 1434h369v-236l-164 -235h-153l92 235h-144v236z" />
    <glyph glyph-name="Eng" unicode="&#x14a;" 
d="M909 969q94 -140 139.5 -218.5t86.5 -166.5h8q-17 219 -17 409v441h390v-1403q0 -119 -40.5 -208t-112.5 -141t-162 -77t-197 -25h-252v328h252q105 0 120 92l-346 473q-66 92 -120.5 183.5t-75.5 134t-58 120.5h-8q16 -206 16 -471v-440h-389v1434h451z" />
    <glyph glyph-name="eng" unicode="&#x14b;" horiz-adv-x="1347" 
d="M879 604q0 195 -174 195q-109 0 -167.5 -68.5t-58.5 -187.5v-543h-368v1065h368v-102q102 133 307 133q215 0 338 -124.5t123 -346.5v-625q0 -181 -119.5 -275t-330.5 -94h-154v267h143q51 0 72 25.5t21 76.5v604z" />
    <glyph glyph-name="Omacron" unicode="&#x14c;" horiz-adv-x="1609" 
d="M457 717q0 -186 89 -303t259 -117t259 117t89 303t-89 303t-259 117t-259 -117t-89 -303zM1542 717q0 -161 -52 -299t-146.5 -237t-233.5 -155.5t-305 -56.5t-305 56.5t-233.5 155.5t-146.5 237t-52 299q0 160 52 298t146.5 237t233.5 155.5t305 56.5t305 -56.5
t233.5 -155.5t146.5 -237t52 -298zM406 1802h798v-246h-798v246z" />
    <glyph glyph-name="omacron" unicode="&#x14d;" horiz-adv-x="1282" 
d="M1225 532q0 -160 -69 -287t-203 -201.5t-312 -74.5q-179 0 -313 74.5t-202.5 201.5t-68.5 287t68.5 287t202.5 202t313 75q178 0 312 -74.5t203 -202t69 -287.5zM856 532q0 53 -12 100t-36 88t-67 65t-100 24t-100 -24t-67 -65t-36 -88t-12 -100q0 -52 12 -99.5t36 -88
t67 -64.5t100 -24t100 24t67 64.5t36 88t12 99.5zM242 1434h798v-246h-798v246z" />
    <glyph glyph-name="Obreve" unicode="&#x14e;" horiz-adv-x="1609" 
d="M457 717q0 -186 89 -303t259 -117t259 117t89 303t-89 303t-259 117t-259 -117t-89 -303zM1542 717q0 -161 -52 -299t-146.5 -237t-233.5 -155.5t-305 -56.5t-305 56.5t-233.5 155.5t-146.5 237t-52 299q0 160 52 298t146.5 237t233.5 155.5t305 56.5t305 -56.5
t233.5 -155.5t146.5 -237t52 -298zM805 1516q-89 0 -162 29.5t-120.5 79.5t-76.5 111t-38 128h243q11 -52 53.5 -77.5t100.5 -25.5t100.5 26t52.5 77h244q-9 -67 -38 -128t-76.5 -111t-120.5 -79.5t-162 -29.5z" />
    <glyph glyph-name="obreve" unicode="&#x14f;" horiz-adv-x="1282" 
d="M1225 532q0 -160 -69 -287t-203 -201.5t-312 -74.5q-179 0 -313 74.5t-202.5 201.5t-68.5 287t68.5 287t202.5 202t313 75q178 0 312 -74.5t203 -202t69 -287.5zM856 532q0 53 -12 100t-36 88t-67 65t-100 24t-100 -24t-67 -65t-36 -88t-12 -100q0 -52 12 -99.5t36 -88
t67 -64.5t100 -24t100 24t67 64.5t36 88t12 99.5zM641 1147q-89 0 -162 29.5t-120.5 79.5t-76.5 111t-38 128h243q11 -52 53 -77t101 -25q58 0 101 25.5t53 76.5h243q-9 -67 -38 -128t-76.5 -111t-120.5 -79.5t-162 -29.5z" />
    <glyph glyph-name="Ohungarumlaut" unicode="&#x150;" horiz-adv-x="1609" 
d="M457 717q0 -186 89 -303t259 -117t259 117t89 303t-89 303t-259 117t-259 -117t-89 -303zM1542 717q0 -161 -52 -299t-146.5 -237t-233.5 -155.5t-305 -56.5t-305 56.5t-233.5 155.5t-146.5 237t-52 299q0 160 52 298t146.5 237t233.5 155.5t305 56.5t305 -56.5
t233.5 -155.5t146.5 -237t52 -298zM518 1802h359l-185 -266h-307zM948 1802h359l-185 -266h-307z" />
    <glyph glyph-name="ohungarumlaut" unicode="&#x151;" horiz-adv-x="1282" 
d="M1225 532q0 -160 -69 -287t-203 -201.5t-312 -74.5q-179 0 -313 74.5t-202.5 201.5t-68.5 287t68.5 287t202.5 202t313 75q178 0 312 -74.5t203 -202t69 -287.5zM856 532q0 53 -12 100t-36 88t-67 65t-100 24t-100 -24t-67 -65t-36 -88t-12 -100q0 -52 12 -99.5t36 -88
t67 -64.5t100 -24t100 24t67 64.5t36 88t12 99.5zM354 1434h359l-185 -267h-307zM784 1434h359l-185 -267h-307z" />
    <glyph glyph-name="OE" unicode="&#x152;" horiz-adv-x="2310" 
d="M1124 72q-150 -103 -358 -103q-205 0 -364.5 96.5t-245.5 266.5t-86 385q0 214 86 383.5t245.5 266.5t364.5 97q210 0 358 -102v72h1086v-328h-697v-215h656v-328h-656v-235h697v-328h-1086v72zM459 717q0 -90 20 -165.5t60 -133t106 -89.5t152 -32t152 32t106 89.5
t60 133t20 165.5t-20 165.5t-60 133t-106 89.5t-152 32t-152 -32t-106 -89.5t-60 -133t-20 -165.5z" />
    <glyph glyph-name="oe" unicode="&#x153;" horiz-adv-x="2050" 
d="M1440 215q59 0 99 32t48 81h385q-38 -162 -175.5 -260.5t-356.5 -98.5q-247 0 -400 140q-153 -140 -399 -140q-179 0 -313 74.5t-202.5 201.5t-68.5 287t68.5 287t202.5 202t313 75q246 0 399 -140q153 140 390 140q207 0 341 -95.5t187 -261.5q35 -112 35 -258v-71h-758
q7 -90 64 -142.5t141 -52.5zM856 532q0 53 -12 100t-36 88t-67 65t-100 24t-100 -24t-67 -65t-36 -88t-12 -100q0 -52 12 -99.5t36 -88t67 -64.5t100 -24t100 24t67 64.5t36 88t12 99.5zM1430 850q-85 0 -136.5 -50t-58.5 -155h379q-14 205 -184 205z" />
    <glyph glyph-name="Racute" unicode="&#x154;" horiz-adv-x="1560" 
d="M942 799q73 0 108 43t35 110t-35 110.5t-108 43.5h-410v-307h410zM1536 0h-502l-471 492h-31v-492h-389v1434h820q226 0 369 -134t143 -337q0 -185 -119.5 -313.5t-315.5 -153.5zM655 1802h451l-266 -266h-348z" />
    <glyph glyph-name="racute" unicode="&#x155;" horiz-adv-x="897" 
d="M356 1434h451l-266 -267h-348zM715 778q-116 0 -176 -52.5t-60 -182.5v-543h-368v1065h368v-123q38 73 111 108t207 35h80v-307h-162z" />
    <glyph glyph-name="uni0156" unicode="&#x156;" horiz-adv-x="1560" 
d="M942 799q73 0 108 43t35 110t-35 110.5t-108 43.5h-410v-307h410zM1536 0h-502l-471 492h-31v-492h-389v1434h820q226 0 369 -134t143 -337q0 -185 -119.5 -313.5t-315.5 -153.5zM588 -82h368v-235l-163 -236h-154l92 236h-143v235z" />
    <glyph glyph-name="uni0157" unicode="&#x157;" horiz-adv-x="897" 
d="M111 -82h368v-235l-164 -236h-153l92 236h-143v235zM715 778q-116 0 -176 -52.5t-60 -182.5v-543h-368v1065h368v-123q38 73 111 108t207 35h80v-307h-162z" />
    <glyph glyph-name="Rcaron" unicode="&#x158;" horiz-adv-x="1560" 
d="M942 799q73 0 108 43t35 110t-35 110.5t-108 43.5h-410v-307h410zM1536 0h-502l-471 492h-31v-492h-389v1434h820q226 0 369 -134t143 -337q0 -185 -119.5 -313.5t-315.5 -153.5zM840 1802h389l-266 -266h-410l-266 266h389l82 -133z" />
    <glyph glyph-name="rcaron" unicode="&#x159;" horiz-adv-x="897" 
d="M561 1434h389l-266 -267h-410l-266 267h389l82 -134zM715 778q-116 0 -176 -52.5t-60 -182.5v-543h-368v1065h368v-123q38 73 111 108t207 35h80v-307h-162z" />
    <glyph glyph-name="Sacute" unicode="&#x15a;" horiz-adv-x="1400" 
d="M647 537q-97 13 -174.5 32.5t-151.5 56t-123.5 87t-79.5 127.5t-30 174q0 204 161.5 327t442.5 123q145 0 262 -36t191 -98.5t115 -140t47 -165.5h-389q-5 82 -56.5 123t-169.5 41q-225 0 -225 -129q0 -31 12 -54t30 -37t53.5 -25.5t67.5 -17.5t87 -14l61 -8
q69 -9 121.5 -19t113.5 -28t105.5 -40.5t88 -57.5t70.5 -79t43.5 -104.5t16.5 -134.5q0 -209 -173 -340t-462 -131q-297 0 -467 126t-178 345h389q4 -105 68.5 -149.5t187.5 -44.5q127 0 191.5 41t64.5 112q0 24 -8 42.5t-26.5 31t-37 21.5t-52 15.5t-58 10t-67.5 8.5z
M590 1802h450l-266 -266h-348z" />
    <glyph glyph-name="sacute" unicode="&#x15b;" horiz-adv-x="1148" 
d="M543 373q-72 5 -136 19.5t-126 43.5t-106.5 69.5t-71.5 102t-27 137.5q0 115 66.5 195.5t178 118t257.5 37.5q211 0 347 -100t144 -238h-369q-2 43 -31 72.5t-96 29.5q-135 0 -135 -74q0 -39 34.5 -57t119.5 -22l33 -2q465 -29 465 -377q0 -165 -141.5 -262t-370.5 -97
q-228 0 -373.5 97.5t-149.5 261.5h365q5 -63 40 -93t118 -30q149 0 149 86q0 16 -5.5 29t-18.5 21t-24.5 13t-33.5 8.5t-34.5 5t-37.5 3.5zM475 1434h451l-267 -267h-348z" />
    <glyph glyph-name="Scircumflex" unicode="&#x15c;" horiz-adv-x="1400" 
d="M647 537q-97 13 -174.5 32.5t-151.5 56t-123.5 87t-79.5 127.5t-30 174q0 204 161.5 327t442.5 123q145 0 262 -36t191 -98.5t115 -140t47 -165.5h-389q-5 82 -56.5 123t-169.5 41q-225 0 -225 -129q0 -31 12 -54t30 -37t53.5 -25.5t67.5 -17.5t87 -14l61 -8
q69 -9 121.5 -19t113.5 -28t105.5 -40.5t88 -57.5t70.5 -79t43.5 -104.5t16.5 -134.5q0 -209 -173 -340t-462 -131q-297 0 -467 126t-178 345h389q4 -105 68.5 -149.5t187.5 -44.5q127 0 191.5 41t64.5 112q0 24 -8 42.5t-26.5 31t-37 21.5t-52 15.5t-58 10t-67.5 8.5z
M692 1669l-82 -133h-389l266 266h410l266 -266h-389z" />
    <glyph glyph-name="scircumflex" unicode="&#x15d;" horiz-adv-x="1148" 
d="M543 373q-72 5 -136 19.5t-126 43.5t-106.5 69.5t-71.5 102t-27 137.5q0 115 66.5 195.5t178 118t257.5 37.5q211 0 347 -100t144 -238h-369q-2 43 -31 72.5t-96 29.5q-135 0 -135 -74q0 -39 34.5 -57t119.5 -22l33 -2q465 -29 465 -377q0 -165 -141.5 -262t-370.5 -97
q-228 0 -373.5 97.5t-149.5 261.5h365q5 -63 40 -93t118 -30q149 0 149 86q0 16 -5.5 29t-18.5 21t-24.5 13t-33.5 8.5t-34.5 5t-37.5 3.5zM578 1300l-82 -133h-390l267 267h409l267 -267h-390z" />
    <glyph glyph-name="Scedilla" unicode="&#x15e;" horiz-adv-x="1400" 
d="M647 537q-97 13 -174.5 32.5t-151.5 56t-123.5 87t-79.5 127.5t-30 174q0 204 161.5 327t442.5 123q145 0 262 -36t191 -98.5t115 -140t47 -165.5h-389q-5 82 -56.5 123t-169.5 41q-225 0 -225 -129q0 -31 12 -54t30 -37t53.5 -25.5t67.5 -17.5t87 -14l61 -8
q69 -9 121.5 -19t113.5 -28t105.5 -40.5t88 -57.5t70.5 -79t43.5 -104.5t16.5 -134.5q0 -176 -126 -298.5t-343 -159.5l-71 -72q56 -5 98.5 -49t42.5 -117q0 -90 -68.5 -152.5t-167.5 -62.5q-94 0 -162.5 59t-72.5 146h184q11 -41 51 -41q24 0 38 13.5t14 37.5t-14 37.5
t-38 13.5q-20 0 -36 -16l-123 123l69 69q-256 20 -402.5 145t-152.5 324h389q4 -105 68.5 -149.5t187.5 -44.5q127 0 191.5 41t64.5 112q0 24 -8 42.5t-26.5 31t-37 21.5t-52 15.5t-58 10t-67.5 8.5z" />
    <glyph glyph-name="scedilla" unicode="&#x15f;" horiz-adv-x="1148" 
d="M537 -266q11 -41 51 -41q24 0 37.5 13.5t13.5 37.5t-13.5 37.5t-37.5 13.5q-21 0 -37 -16l-123 123l72 71q-194 12 -317.5 108.5t-127.5 246.5h365q5 -63 40 -93t118 -30q149 0 149 86q0 16 -5.5 29t-18.5 21t-24.5 13t-33.5 8.5t-34.5 5t-37.5 3.5l-30 2
q-72 5 -136 19.5t-126 43.5t-106.5 69.5t-71.5 102t-27 137.5q0 115 66.5 195.5t178 118t257.5 37.5q211 0 347 -100t144 -238h-369q-4 102 -133 102q-67 0 -98 -21t-31 -53q0 -39 34.5 -57t119.5 -22l33 -2q465 -29 465 -377q0 -131 -87.5 -219t-242.5 -121l-78 -78
q56 -5 98.5 -49t42.5 -117q0 -91 -68.5 -153t-166.5 -62q-94 0 -163 59t-73 146h185z" />
    <glyph glyph-name="Scaron" unicode="&#x160;" horiz-adv-x="1400" 
d="M647 537q-97 13 -174.5 32.5t-151.5 56t-123.5 87t-79.5 127.5t-30 174q0 204 161.5 327t442.5 123q145 0 262 -36t191 -98.5t115 -140t47 -165.5h-389q-5 82 -56.5 123t-169.5 41q-225 0 -225 -129q0 -31 12 -54t30 -37t53.5 -25.5t67.5 -17.5t87 -14l61 -8
q69 -9 121.5 -19t113.5 -28t105.5 -40.5t88 -57.5t70.5 -79t43.5 -104.5t16.5 -134.5q0 -209 -173 -340t-462 -131q-297 0 -467 126t-178 345h389q4 -105 68.5 -149.5t187.5 -44.5q127 0 191.5 41t64.5 112q0 24 -8 42.5t-26.5 31t-37 21.5t-52 15.5t-58 10t-67.5 8.5z
M774 1802h389l-266 -266h-410l-266 266h389l82 -133z" />
    <glyph glyph-name="scaron" unicode="&#x161;" horiz-adv-x="1148" 
d="M543 373q-72 5 -136 19.5t-126 43.5t-106.5 69.5t-71.5 102t-27 137.5q0 115 66.5 195.5t178 118t257.5 37.5q211 0 347 -100t144 -238h-369q-2 43 -31 72.5t-96 29.5q-135 0 -135 -74q0 -39 34.5 -57t119.5 -22l33 -2q465 -29 465 -377q0 -165 -141.5 -262t-370.5 -97
q-228 0 -373.5 97.5t-149.5 261.5h365q5 -63 40 -93t118 -30q149 0 149 86q0 16 -5.5 29t-18.5 21t-24.5 13t-33.5 8.5t-34.5 5t-37.5 3.5zM659 1434h390l-267 -267h-409l-267 267h390l82 -134z" />
    <glyph glyph-name="uni0162" unicode="&#x162;" horiz-adv-x="1331" 
d="M594 -266q11 -41 51 -41q24 0 37.5 13.5t13.5 37.5t-13.5 37.5t-37.5 13.5q-21 0 -37 -16l-123 123l99 98h-113v1106h-451v328h1291v-328h-451v-1106h-31l-90 -90q56 -5 99 -49t43 -117q0 -90 -68.5 -152.5t-167.5 -62.5q-94 0 -162.5 59t-72.5 146h184z" />
    <glyph glyph-name="uni0163" unicode="&#x163;" horiz-adv-x="995" 
d="M483 -266q11 -41 52 -41q24 0 37.5 13.5t13.5 37.5t-13.5 37.5t-37.5 13.5q-21 0 -37 -16l-123 123l110 110q-106 24 -157.5 100.5t-51.5 215.5v450h-256v287h256v246h369v-246h307v-287h-307v-450q0 -62 62 -62h245v-266h-233l-90 -90q56 -5 98.5 -49t42.5 -117
q0 -91 -68.5 -153t-166.5 -62q-94 0 -163 59t-73 146h184z" />
    <glyph glyph-name="Tcaron" unicode="&#x164;" horiz-adv-x="1331" 
d="M1311 1106h-451v-1106h-389v1106h-451v328h1291v-328zM748 1802h389l-267 -266h-409l-266 266h389l82 -133z" />
    <glyph glyph-name="tcaron" unicode="&#x165;" horiz-adv-x="995" 
d="M799 1659h358l-143 -471h-277zM276 778h-256v287h256v246h369v-246h307v-287h-307v-450q0 -62 62 -62h245v-266h-348q-166 0 -247 77t-81 251v450z" />
    <glyph glyph-name="Tbar" unicode="&#x166;" horiz-adv-x="1363" 
d="M201 870h286v236h-450v328h1290v-328h-450v-236h286v-317h-286v-553h-390v553h-286v317z" />
    <glyph glyph-name="tbar" unicode="&#x167;" horiz-adv-x="997" 
d="M276 686v92h-256v287h256v246h369v-246h307v-287h-307v-92h225v-246h-225v-112q0 -62 62 -62h245v-266h-348q-166 0 -247 77t-81 251v112h-174v246h174z" />
    <glyph glyph-name="Utilde" unicode="&#x168;" horiz-adv-x="1527" 
d="M764 -31q-142 0 -262.5 46.5t-201.5 125.5t-126 183t-45 219v891h389v-891q0 -118 70 -182t176 -64t176 64t70 182v891h389v-891q0 -115 -45 -219t-126 -183t-201.5 -125.5t-262.5 -46.5zM354 1546q0 145 66 226t201 81q56 0 107.5 -17.5t82 -38.5t65.5 -38.5t62 -17.5
q51 0 51 71h185q0 -145 -66 -226t-201 -81q-56 0 -107.5 17.5t-82 39t-65.5 39t-62 17.5q-51 0 -51 -72h-185z" />
    <glyph glyph-name="utilde" unicode="&#x169;" horiz-adv-x="1337" 
d="M858 102q-102 -133 -307 -133q-210 0 -330.5 124.5t-120.5 346.5v625h369v-604q0 -195 174 -195q109 0 162 67.5t53 188.5v543h369v-1065h-369v102zM254 1178q0 145 65.5 226t200.5 81q56 0 107.5 -17.5t82.5 -39t66 -39t62 -17.5q51 0 51 72h184q0 -145 -65.5 -226
t-200.5 -81q-56 0 -107.5 17.5t-82.5 38.5t-66 38.5t-62 17.5q-51 0 -51 -71h-184z" />
    <glyph glyph-name="Umacron" unicode="&#x16a;" horiz-adv-x="1527" 
d="M764 -31q-142 0 -262.5 46.5t-201.5 125.5t-126 183t-45 219v891h389v-891q0 -118 70 -182t176 -64t176 64t70 182v891h389v-891q0 -115 -45 -219t-126 -183t-201.5 -125.5t-262.5 -46.5zM365 1802h798v-246h-798v246z" />
    <glyph glyph-name="umacron" unicode="&#x16b;" horiz-adv-x="1337" 
d="M858 102q-102 -133 -307 -133q-210 0 -330.5 124.5t-120.5 346.5v625h369v-604q0 -195 174 -195q109 0 162 67.5t53 188.5v543h369v-1065h-369v102zM264 1434h799v-246h-799v246z" />
    <glyph glyph-name="Ubreve" unicode="&#x16c;" horiz-adv-x="1527" 
d="M764 -31q-142 0 -262.5 46.5t-201.5 125.5t-126 183t-45 219v891h389v-891q0 -118 70 -182t176 -64t176 64t70 182v891h389v-891q0 -115 -45 -219t-126 -183t-201.5 -125.5t-262.5 -46.5zM764 1516q-89 0 -162 29.5t-120.5 79.5t-76.5 111t-38 128h243q11 -52 53.5 -77.5
t100.5 -25.5t101 26t53 77h243q-9 -67 -38 -128t-76.5 -111t-120.5 -79.5t-162 -29.5z" />
    <glyph glyph-name="ubreve" unicode="&#x16d;" horiz-adv-x="1337" 
d="M858 102q-102 -133 -307 -133q-210 0 -330.5 124.5t-120.5 346.5v625h369v-604q0 -195 174 -195q109 0 162 67.5t53 188.5v543h369v-1065h-369v102zM664 1147q-89 0 -162 29.5t-121 79.5t-77 111t-38 128h244q11 -52 53 -77t101 -25q58 0 100.5 25.5t52.5 76.5h244
q-9 -67 -38 -128t-76.5 -111t-120.5 -79.5t-162 -29.5z" />
    <glyph glyph-name="Uring" unicode="&#x16e;" horiz-adv-x="1527" 
d="M764 -31q-142 0 -262.5 46.5t-201.5 125.5t-126 183t-45 219v891h389v-891q0 -118 70 -182t176 -64t176 64t70 182v891h389v-891q0 -115 -45 -219t-126 -183t-201.5 -125.5t-262.5 -46.5zM467 1630q0 115 87 196t210 81t210 -81t87 -196t-87 -195.5t-210 -80.5t-210 80.5
t-87 195.5zM662 1630q0 -43 29.5 -72.5t72.5 -29.5t72.5 29.5t29.5 72.5t-29.5 73t-72.5 30t-72.5 -30t-29.5 -73z" />
    <glyph glyph-name="uring" unicode="&#x16f;" horiz-adv-x="1337" 
d="M858 102q-102 -133 -307 -133q-210 0 -330.5 124.5t-120.5 346.5v625h369v-604q0 -195 174 -195q109 0 162 67.5t53 188.5v543h369v-1065h-369v102zM367 1403q0 115 87 195.5t210 80.5t210 -80.5t87 -195.5t-87 -196t-210 -81t-210 81t-87 196zM561 1403q0 -43 30 -73
t73 -30t72.5 30t29.5 73t-29.5 72.5t-72.5 29.5t-73 -29.5t-30 -72.5z" />
    <glyph glyph-name="Uhungarumlaut" unicode="&#x170;" horiz-adv-x="1527" 
d="M764 -31q-142 0 -262.5 46.5t-201.5 125.5t-126 183t-45 219v891h389v-891q0 -118 70 -182t176 -64t176 64t70 182v891h389v-891q0 -115 -45 -219t-126 -183t-201.5 -125.5t-262.5 -46.5zM467 1802h358l-184 -266h-307zM897 1802h358l-184 -266h-307z" />
    <glyph glyph-name="uhungarumlaut" unicode="&#x171;" horiz-adv-x="1337" 
d="M858 102q-102 -133 -307 -133q-210 0 -330.5 124.5t-120.5 346.5v625h369v-604q0 -195 174 -195q109 0 162 67.5t53 188.5v543h369v-1065h-369v102zM377 1434h358l-184 -267h-307zM807 1434h358l-184 -267h-307z" />
    <glyph glyph-name="Uogonek" unicode="&#x172;" horiz-adv-x="1527" 
d="M1081 -256q60 0 123 18l-88 -231q-71 -23 -158 -23q-135 0 -226 71.5t-91 195.5q0 117 90 194q-271 12 -436.5 177t-165.5 397v891h389v-891q0 -118 70 -182t176 -64t176 64t70 182v891h389v-891q0 -88 -23.5 -165.5t-61.5 -133.5t-84 -105.5t-92 -89.5t-84 -76
t-61.5 -74.5t-23.5 -76.5q0 -44 29.5 -61t82.5 -17z" />
    <glyph glyph-name="uogonek" unicode="&#x173;" horiz-adv-x="1337" 
d="M1124 -256q60 0 123 18l-88 -231q-71 -23 -158 -23q-135 0 -226 71.5t-91 195.5q0 170 174 245v82q-102 -133 -307 -133q-210 0 -330.5 124.5t-120.5 346.5v625h369v-604q0 -195 174 -195q109 0 162 67.5t53 188.5v543h369v-1065q-215 -91 -215 -178q0 -44 29.5 -61
t82.5 -17z" />
    <glyph glyph-name="Wcircumflex" unicode="&#x174;" horiz-adv-x="2052" 
d="M831 1434h390l133 -502q44 -165 88 -420h8q48 278 84 420l127 502h389l-410 -1434h-389l-141 530q-35 134 -80 392h-8q-45 -258 -80 -392l-141 -530h-389l-410 1434h389l127 -502q36 -142 84 -420h8q44 255 88 420zM1026 1669l-82 -133h-389l266 266h410l266 -266h-389z
" />
    <glyph glyph-name="wcircumflex" unicode="&#x175;" horiz-adv-x="1708" 
d="M1114 768q42 -158 78 -389h8q1 5 10.5 79.5t14 106.5t16 94t23.5 113l69 293h371l-328 -1065h-358l-86 313q-41 142 -74 383h-8q-33 -241 -74 -383l-86 -313h-358l-328 1065h371l69 -293q12 -51 23.5 -113t16 -94t14 -106.5t10.5 -79.5h8q36 231 78 389l82 297h356z
M854 1300l-82 -133h-389l266 267h410l266 -267h-389z" />
    <glyph glyph-name="Ycircumflex" unicode="&#x176;" horiz-adv-x="1347" 
d="M479 543l-481 891h410l266 -553l266 553h410l-482 -891v-543h-389v543zM674 1669l-82 -133h-389l266 266h410l266 -266h-389z" />
    <glyph glyph-name="ycircumflex" unicode="&#x177;" horiz-adv-x="1155" 
d="M580 1300l-82 -133h-389l266 267h409l267 -267h-389zM498 739q41 -132 73 -340h9q31 180 84 338l108 328h381l-428 -1151q-27 -73 -57 -121t-78.5 -87t-121 -57t-173.5 -18h-201v267h160q64 0 99 25t53 77l-400 1065h389z" />
    <glyph glyph-name="Ydieresis" unicode="&#x178;" horiz-adv-x="1347" 
d="M479 543l-481 891h410l266 -553l266 553h410l-482 -891v-543h-389v543zM233 1802h369v-266h-369v266zM745 1802h369v-266h-369v266z" />
    <glyph glyph-name="Zacute" unicode="&#x179;" horiz-adv-x="1355" 
d="M1286 0h-1208v328l686 778h-666v328h1157v-328l-686 -778h717v-328zM580 1802h450l-266 -266h-348z" />
    <glyph glyph-name="zacute" unicode="&#x17a;" horiz-adv-x="1163" 
d="M1096 287v-287h-1024v287l497 491h-477v287h983v-287l-497 -491h518zM481 1434h451l-266 -267h-349z" />
    <glyph glyph-name="Zdotaccent" unicode="&#x17b;" horiz-adv-x="1355" 
d="M1286 0h-1208v328l686 778h-666v328h1157v-328l-686 -778h717v-328zM487 1802h369v-266h-369v266z" />
    <glyph glyph-name="zdotaccent" unicode="&#x17c;" horiz-adv-x="1163" 
d="M1096 287v-287h-1024v287l497 491h-477v287h983v-287l-497 -491h518zM399 1434h369v-267h-369v267z" />
    <glyph glyph-name="Zcaron" unicode="&#x17d;" horiz-adv-x="1355" 
d="M1286 0h-1208v328l686 778h-666v328h1157v-328l-686 -778h717v-328zM764 1802h389l-266 -266h-410l-266 266h389l82 -133z" />
    <glyph glyph-name="zcaron" unicode="&#x17e;" horiz-adv-x="1163" 
d="M1096 287v-287h-1024v287l497 491h-477v287h983v-287l-497 -491h518zM666 1434h389l-267 -267h-409l-266 267h389l82 -134z" />
    <glyph glyph-name="longs" unicode="&#x17f;" horiz-adv-x="759" 
d="M25 1065h215v41q0 169 99 248.5t269 79.5h256v-267h-194q-62 0 -62 -61v-1106h-368v778h-215v287z" />
    <glyph glyph-name="uni018F" unicode="&#x18f;" horiz-adv-x="1568" 
d="M86 1024q70 201 243 320.5t443 119.5q222 0 387.5 -95t252.5 -263.5t87 -388.5q0 -129 -32 -243.5t-94.5 -206.5t-149.5 -159t-202.5 -103t-248.5 -36q-150 0 -270.5 44.5t-200.5 120.5t-134 183t-77.5 226.5t-23.5 255.5v61h1032q-21 138 -104.5 217.5t-221.5 79.5
q-104 0 -171 -36t-95 -97h-420zM772 276q123 0 209 75.5t111 201.5h-617q18 -122 95 -199.5t202 -77.5z" />
    <glyph glyph-name="uni0190" unicode="&#x190;" horiz-adv-x="1413" 
d="M903 573h-217q-225 0 -225 -153q0 -154 252 -154q135 0 196 48.5t66 125.5h389q-6 -89 -47.5 -170.5t-117.5 -150t-201 -109.5t-283 -41q-311 0 -477 115.5t-166 329.5q0 236 225 315q-100 49 -148.5 132t-48.5 186q0 189 165.5 303t461.5 114q142 0 257 -37.5
t187.5 -100.5t113 -140.5t46.5 -161.5h-389q-2 21 -9 39.5t-23.5 38t-40.5 33.5t-63 23t-89 9q-228 0 -228 -145q0 -133 218 -133h196v-316z" />
    <glyph glyph-name="florin" unicode="&#x192;" horiz-adv-x="1132" 
d="M565 -31q-18 -98 -59 -165.5t-103 -104.5t-132 -52.5t-160 -15.5h-183v267h168q45 0 61.5 15t24.5 56l144 809h-213v287h262l6 35q18 95 60 162t104.5 103.5t134 52.5t160.5 16h233v-267h-223q-45 0 -61.5 -15t-24.5 -56l-6 -31h317v-287h-366z" />
    <glyph glyph-name="uni0194" unicode="&#x194;" horiz-adv-x="1386" 
d="M995 1434h400l-508 -1055q101 -211 131.5 -291t30.5 -154q0 -133 -97 -218t-260 -85t-259.5 84.5t-96.5 216.5q0 73 32 158t130 291l-506 1053h399l158 -351q107 -237 141 -350h6q42 137 138 350zM692 98q-49 -107 -49 -155q0 -30 13 -48t36 -18t37 18.5t14 47.5
q0 43 -51 155z" />
    <glyph glyph-name="uni0197" unicode="&#x197;" horiz-adv-x="786" 
d="M29 915h170v519h389v-519h170v-317h-170v-598h-389v598h-170v317z" />
    <glyph glyph-name="uni019D" unicode="&#x19d;" 
d="M516 911q16 -210 16 -471v-440q0 -181 -119 -275t-331 -94h-154v328h123q51 0 71.5 25.5t20.5 76.5v1373h451l297 -463q132 -210 244 -449h8q-17 223 -17 471v441h390v-1434h-451l-297 463q-32 49 -61.5 98.5t-47.5 80.5t-43.5 81t-32 63.5t-32.5 68t-27 56.5h-8z" />
    <glyph glyph-name="uni01B5" unicode="&#x1b5;" horiz-adv-x="1370" 
d="M147 881h426l199 225h-666v328h1158v-328l-199 -225h168v-318h-449l-206 -235h716v-328h-1208v328l207 235h-146v318z" />
    <glyph glyph-name="uni01B6" unicode="&#x1b6;" horiz-adv-x="1169" 
d="M1100 287v-287h-1024v287l145 143h-94v246h342l104 102h-477v287h983v-287l-104 -102h84v-246h-332l-145 -143h518z" />
    <glyph glyph-name="uni01CD" unicode="&#x1cd;" horiz-adv-x="1519" 
d="M1038 256h-557l-100 -256h-399l583 1434h389l584 -1434h-399zM885 653q-55 147 -121 371h-8q-66 -224 -121 -371l-27 -69h303zM842 1802h389l-266 -266h-410l-266 266h389l82 -133z" />
    <glyph glyph-name="uni01CE" unicode="&#x1ce;" horiz-adv-x="1247" 
d="M100 758q34 168 172 253t351 85q86 0 160.5 -12.5t142 -42t115.5 -73.5t76 -110.5t28 -150.5v-707h-369v96q-105 -127 -317 -127q-184 0 -297 93t-113 266q0 156 112.5 241.5t307.5 106.5l307 31q0 71 -30.5 107t-122.5 36q-130 0 -144 -92h-379zM551 225
q88 0 156.5 66.5t68.5 169.5v10l-239 -27q-56 -6 -87.5 -33t-31.5 -73q0 -52 33.5 -82.5t99.5 -30.5zM705 1434h389l-267 -267h-409l-266 267h389l82 -134z" />
    <glyph glyph-name="uni01CF" unicode="&#x1cf;" horiz-adv-x="675" 
d="M143 0v1434h389v-1434h-389zM420 1802h389l-266 -266h-410l-266 266h389l82 -133z" />
    <glyph glyph-name="uni01D0" unicode="&#x1d0;" horiz-adv-x="589" 
d="M111 1065h368v-1065h-368v1065zM377 1434h389l-266 -267h-410l-266 267h389l82 -134z" />
    <glyph glyph-name="uni01D1" unicode="&#x1d1;" horiz-adv-x="1609" 
d="M457 717q0 -186 89 -303t259 -117t259 117t89 303t-89 303t-259 117t-259 -117t-89 -303zM1542 717q0 -161 -52 -299t-146.5 -237t-233.5 -155.5t-305 -56.5t-305 56.5t-233.5 155.5t-146.5 237t-52 299q0 160 52 298t146.5 237t233.5 155.5t305 56.5t305 -56.5
t233.5 -155.5t146.5 -237t52 -298zM887 1802h389l-266 -266h-410l-266 266h389l82 -133z" />
    <glyph glyph-name="uni01D2" unicode="&#x1d2;" horiz-adv-x="1282" 
d="M1225 532q0 -160 -69 -287t-203 -201.5t-312 -74.5q-179 0 -313 74.5t-202.5 201.5t-68.5 287t68.5 287t202.5 202t313 75q178 0 312 -74.5t203 -202t69 -287.5zM856 532q0 53 -12 100t-36 88t-67 65t-100 24t-100 -24t-67 -65t-36 -88t-12 -100q0 -52 12 -99.5t36 -88
t67 -64.5t100 -24t100 24t67 64.5t36 88t12 99.5zM723 1434h389l-266 -267h-410l-266 267h389l82 -134z" />
    <glyph glyph-name="uni01D3" unicode="&#x1d3;" horiz-adv-x="1527" 
d="M764 -31q-142 0 -262.5 46.5t-201.5 125.5t-126 183t-45 219v891h389v-891q0 -118 70 -182t176 -64t176 64t70 182v891h389v-891q0 -115 -45 -219t-126 -183t-201.5 -125.5t-262.5 -46.5zM846 1802h389l-266 -266h-410l-266 266h389l82 -133z" />
    <glyph glyph-name="uni01D4" unicode="&#x1d4;" horiz-adv-x="1337" 
d="M858 102q-102 -133 -307 -133q-210 0 -330.5 124.5t-120.5 346.5v625h369v-604q0 -195 174 -195q109 0 162 67.5t53 188.5v543h369v-1065h-369v102zM745 1434h390l-267 -267h-409l-266 267h389l82 -134z" />
    <glyph glyph-name="Gcaron" unicode="&#x1e6;" horiz-adv-x="1581" 
d="M807 1147q-90 0 -158 -33.5t-109 -93t-61 -135.5t-20 -168q0 -91 20 -168t60 -136t106 -92.5t152 -33.5q255 0 307 205h-287v327h666v-819h-307l-23 113q-56 -67 -153.5 -105.5t-213.5 -38.5q-216 0 -379.5 97t-250 266t-86.5 385t87 384t255.5 265.5t394.5 97.5
q257 0 424 -118t231 -322h-424q-56 123 -231 123zM901 1802h389l-266 -266h-410l-266 266h389l82 -133z" />
    <glyph glyph-name="gcaron" unicode="&#x1e7;" horiz-adv-x="1339" 
d="M430 563q0 -74 19.5 -128.5t52 -83t68 -41.5t75.5 -13q91 0 158 68t67 198t-67 198t-158 68q-38 0 -75 -16t-69 -47t-51.5 -83.5t-19.5 -119.5zM860 154q-108 -123 -307 -123q-220 0 -356 149.5t-136 382.5t136 383t356 150q199 0 307 -123v92h369v-922q0 -164 -79 -289
t-211 -189t-294 -64q-203 0 -343.5 92.5t-168.5 245.5h375q23 -82 137 -82q92 0 153.5 68t61.5 218v11zM799 1434h389l-266 -267h-410l-266 267h389l82 -134z" />
    <glyph glyph-name="uni01E8" unicode="&#x1e8;" horiz-adv-x="1570" 
d="M143 0v1434h389v-553l533 553h502l-697 -697l738 -737h-523l-553 573v-573h-389zM860 1802h389l-266 -266h-410l-266 266h389l82 -133z" />
    <glyph glyph-name="uni01E9" unicode="&#x1e9;" horiz-adv-x="1296" 
d="M1339 0h-491l-369 389v-389h-368v1434h368v-738l359 369h460l-512 -512zM799 1802h389l-266 -266h-410l-266 266h389l82 -133z" />
    <glyph glyph-name="uni01EA" unicode="&#x1ea;" horiz-adv-x="1609" 
d="M995 -256q60 0 123 18l-88 -231q-71 -23 -158 -23q-135 0 -226 71.5t-91 195.5q0 129 104 207q-273 44 -432 244t-159 491q0 160 52 298t146.5 237t233.5 155.5t305 56.5t305 -56.5t233.5 -155.5t146.5 -237t52 -298q0 -192 -75 -352.5t-216 -262.5q-47 -32 -122.5 -73
t-123 -67t-85 -63.5t-37.5 -76.5q0 -44 29.5 -61t82.5 -17zM457 717q0 -186 89 -303t259 -117t259 117t89 303t-89 303t-259 117t-259 -117t-89 -303z" />
    <glyph glyph-name="uni01EB" unicode="&#x1eb;" horiz-adv-x="1282" 
d="M791 -256q59 0 122 18l-88 -231q-71 -23 -157 -23q-135 0 -226.5 71.5t-91.5 195.5q0 139 117 215q-192 49 -301 196t-109 346q0 160 68.5 287t202.5 202t313 75q178 0 312 -74.5t203 -202t69 -287.5q0 -140 -56.5 -260t-164.5 -196q-48 -35 -141 -82t-139 -84t-46 -88
q0 -78 113 -78zM856 532q0 53 -12 100t-36 88t-67 65t-100 24t-100 -24t-67 -65t-36 -88t-12 -100q0 -52 12 -99.5t36 -88t67 -64.5t100 -24t100 24t67 64.5t36 88t12 99.5z" />
    <glyph glyph-name="uni01F8" unicode="&#x1f8;" 
d="M891 971q132 -210 244 -449h8q-17 223 -17 471v441h390v-1434h-451l-297 463q-32 49 -61.5 98.5t-47.5 80.5t-43.5 81t-32 63.5t-32.5 68t-27 56.5h-8q16 -210 16 -471v-440h-389v1434h451zM1075 1536h-348l-266 266h450z" />
    <glyph glyph-name="uni01F9" unicode="&#x1f9;" horiz-adv-x="1347" 
d="M479 952q49 65 129.5 104.5t177.5 39.5q215 0 338 -124.5t123 -346.5v-625h-368v604q0 195 -174 195q-109 0 -167.5 -68.5t-58.5 -187.5v-543h-368v1065h368v-113zM963 1167h-349l-266 267h451z" />
    <glyph glyph-name="Aringacute" unicode="&#x1fa;" horiz-adv-x="1519" 
d="M1038 256h-557l-100 -256h-399l497 1221q-16 46 -16 90q0 115 87 195.5t210 80.5t210 -80.5t87 -195.5q0 -41 -17 -90l498 -1221h-399zM647 1905h451l-267 -267h-348zM657 1311q0 -43 30 -73t73 -30t72.5 30t29.5 73t-29.5 72.5t-72.5 29.5t-73 -29.5t-30 -72.5zM885 653
q-55 147 -121 371h-8q-66 -224 -121 -371l-27 -69h303z" />
    <glyph glyph-name="aringacute" unicode="&#x1fb;" horiz-adv-x="1247" 
d="M326 1208q0 115 87 196t210 81t210 -81t87 -196q0 -80 -46 -147q271 -87 271 -354v-707h-369v96q-105 -127 -317 -127q-184 0 -297 93t-113 266q0 156 112.5 241.5t307.5 106.5l307 31q0 71 -30.5 107t-122.5 36q-130 0 -144 -92h-379q45 222 273 301q-47 62 -47 149z
M520 1802h451l-266 -266h-349zM551 225q88 0 156.5 66.5t68.5 169.5v10l-239 -27q-56 -6 -87.5 -33t-31.5 -73q0 -52 33.5 -82.5t99.5 -30.5zM520 1208q0 -43 30 -72.5t73 -29.5t72.5 29.5t29.5 72.5t-29.5 73t-72.5 30t-73 -30t-30 -73z" />
    <glyph glyph-name="AEacute" unicode="&#x1fc;" horiz-adv-x="2314" 
d="M1128 256h-575l-172 -256h-430l962 1434h1301v-328h-696v-215h655v-328h-655v-235h696v-328h-1086v256zM1118 1106l-348 -522h358v522h-10zM1415 1802h451l-267 -266h-348z" />
    <glyph glyph-name="aeacute" unicode="&#x1fd;" horiz-adv-x="1959" 
d="M1350 215q59 0 99 32t48 81h385q-38 -162 -175.5 -260.5t-356.5 -98.5q-266 0 -422 162q-143 -162 -449 -162q-192 0 -311 93t-119 266q0 156 112.5 241.5t307.5 106.5l307 31q0 71 -30.5 107t-122.5 36q-130 0 -144 -92h-379q34 168 172 253t351 85q244 0 376 -99
q138 99 340 99q207 0 341.5 -95.5t187.5 -261.5q35 -112 35 -258v-71h-758q7 -90 64 -142.5t141 -52.5zM551 225q88 0 156.5 66.5t68.5 169.5v10l-239 -27q-56 -6 -87.5 -33t-31.5 -73q0 -52 33.5 -82.5t99.5 -30.5zM1339 850q-85 0 -136 -50t-58 -155h379q-14 205 -185 205
zM879 1434h450l-266 -267h-348z" />
    <glyph glyph-name="Oslashacute" unicode="&#x1fe;" horiz-adv-x="1617" 
d="M707 1802h450l-266 -266h-348zM233 223q-161 203 -161 494q0 160 52 298t146.5 237t233.5 155.5t305 56.5q213 0 383 -92l78 92h327l-213 -256q162 -204 162 -491q0 -161 -52 -299t-146.5 -237t-233.5 -155.5t-305 -56.5q-218 0 -383 92l-78 -92h-328zM461 717
q0 -110 26 -189l480 574q-65 35 -158 35q-170 0 -259 -117t-89 -303zM1157 717q0 101 -29 186l-477 -571q72 -35 158 -35q170 0 259 117t89 303z" />
    <glyph glyph-name="oslashacute" unicode="&#x1ff;" horiz-adv-x="1286" 
d="M1227 532q0 -160 -69 -287t-203 -201.5t-312 -74.5q-165 0 -297 66l-55 -66h-242l150 178q-140 152 -140 385q0 160 68.5 287t202.5 202t313 75q170 0 297 -68l55 68h242l-150 -178q140 -152 140 -386zM428 532q0 -59 10 -100l299 354q-44 23 -94 23q-57 0 -100 -24
t-67 -65t-36 -88t-12 -100zM858 532q0 52 -12 99l-297 -355q39 -20 94 -20q57 0 100 24t67 64.5t36 88t12 99.5zM541 1434h450l-266 -267h-348z" />
    <glyph glyph-name="uni0218" unicode="&#x218;" horiz-adv-x="1400" 
d="M647 537q-97 13 -174.5 32.5t-151.5 56t-123.5 87t-79.5 127.5t-30 174q0 204 161.5 327t442.5 123q145 0 262 -36t191 -98.5t115 -140t47 -165.5h-389q-5 82 -56.5 123t-169.5 41q-225 0 -225 -129q0 -31 12 -54t30 -37t53.5 -25.5t67.5 -17.5t87 -14l61 -8
q69 -9 121.5 -19t113.5 -28t105.5 -40.5t88 -57.5t70.5 -79t43.5 -104.5t16.5 -134.5q0 -209 -173 -340t-462 -131q-297 0 -467 126t-178 345h389q4 -105 68.5 -149.5t187.5 -44.5q127 0 191.5 41t64.5 112q0 24 -8 42.5t-26.5 31t-37 21.5t-52 15.5t-58 10t-67.5 8.5z
M539 -82h368v-235l-164 -236h-153l92 236h-143v235z" />
    <glyph glyph-name="uni0219" unicode="&#x219;" horiz-adv-x="1148" 
d="M543 373q-72 5 -136 19.5t-126 43.5t-106.5 69.5t-71.5 102t-27 137.5q0 115 66.5 195.5t178 118t257.5 37.5q211 0 347 -100t144 -238h-369q-2 43 -31 72.5t-96 29.5q-135 0 -135 -74q0 -39 34.5 -57t119.5 -22l33 -2q465 -29 465 -377q0 -165 -141.5 -262t-370.5 -97
q-228 0 -373.5 97.5t-149.5 261.5h365q5 -63 40 -93t118 -30q149 0 149 86q0 16 -5.5 29t-18.5 21t-24.5 13t-33.5 8.5t-34.5 5t-37.5 3.5zM403 -82h369v-235l-164 -236h-153l92 236h-144v235z" />
    <glyph glyph-name="uni021A" unicode="&#x21a;" horiz-adv-x="1331" 
d="M1311 1106h-451v-1106h-389v1106h-451v328h1291v-328zM481 -82h369v-235l-164 -236h-154l93 236h-144v235z" />
    <glyph glyph-name="uni021B" unicode="&#x21b;" horiz-adv-x="995" 
d="M373 -82h368v-235l-163 -236h-154l92 236h-143v235zM276 778h-256v287h256v246h369v-246h307v-287h-307v-450q0 -62 62 -62h245v-266h-348q-166 0 -247 77t-81 251v450z" />
    <glyph glyph-name="uni021E" unicode="&#x21e;" horiz-adv-x="1638" 
d="M1495 0h-389v563h-574v-563h-389v1434h389v-543h574v543h389v-1434zM901 1802h389l-266 -266h-410l-266 266h389l82 -133z" />
    <glyph glyph-name="uni021F" unicode="&#x21f;" horiz-adv-x="1347" 
d="M479 952q49 65 129.5 104.5t177.5 39.5q215 0 338 -124.5t123 -346.5v-625h-368v604q0 195 -174 195q-109 0 -167.5 -68.5t-58.5 -187.5v-543h-368v1434h368v-482zM778 1802h389l-266 -266h-409l-267 266h389l82 -133z" />
    <glyph glyph-name="uni022E" unicode="&#x22e;" horiz-adv-x="1609" 
d="M457 717q0 -186 89 -303t259 -117t259 117t89 303t-89 303t-259 117t-259 -117t-89 -303zM1542 717q0 -161 -52 -299t-146.5 -237t-233.5 -155.5t-305 -56.5t-305 56.5t-233.5 155.5t-146.5 237t-52 299q0 160 52 298t146.5 237t233.5 155.5t305 56.5t305 -56.5
t233.5 -155.5t146.5 -237t52 -298zM621 1802h368v-266h-368v266z" />
    <glyph glyph-name="uni022F" unicode="&#x22f;" horiz-adv-x="1282" 
d="M1225 532q0 -160 -69 -287t-203 -201.5t-312 -74.5q-179 0 -313 74.5t-202.5 201.5t-68.5 287t68.5 287t202.5 202t313 75q178 0 312 -74.5t203 -202t69 -287.5zM856 532q0 53 -12 100t-36 88t-67 65t-100 24t-100 -24t-67 -65t-36 -88t-12 -100q0 -52 12 -99.5t36 -88
t67 -64.5t100 -24t100 24t67 64.5t36 88t12 99.5zM457 1434h368v-267h-368v267z" />
    <glyph glyph-name="uni0232" unicode="&#x232;" horiz-adv-x="1347" 
d="M479 543l-481 891h410l266 -553l266 553h410l-482 -891v-543h-389v543zM274 1802h799v-246h-799v246z" />
    <glyph glyph-name="uni0233" unicode="&#x233;" horiz-adv-x="1155" 
d="M498 739q41 -132 73 -340h9q31 180 84 338l108 328h381l-428 -1151q-27 -73 -57 -121t-78.5 -87t-121 -57t-173.5 -18h-201v267h160q64 0 99 25t53 77l-400 1065h389zM180 1434h799v-246h-799v246z" />
    <glyph glyph-name="uni0237" unicode="&#x237;" horiz-adv-x="598" 
d="M119 1065h368v-1065q0 -181 -119 -275t-331 -94h-154v267h144q51 0 71.5 25.5t20.5 76.5v1065z" />
    <glyph glyph-name="uni0244" unicode="&#x244;" horiz-adv-x="1617" 
d="M20 915h154v519h389v-519h492v519h389v-519h153v-317h-153v-55q0 -115 -45 -219t-126 -183t-201.5 -125.5t-262.5 -46.5t-262.5 46.5t-201.5 125.5t-126 183t-45 219v55h-154v317zM809 297q106 0 176 64t70 182v55h-492v-55q0 -118 70 -182t176 -64z" />
    <glyph glyph-name="uni0259" unicode="&#x259;" horiz-adv-x="1253" 
d="M78 758q54 161 196.5 249.5t346.5 88.5q179 0 310.5 -75t197 -201.5t65.5 -287.5q0 -244 -156.5 -403.5t-416.5 -159.5q-207 0 -341.5 95.5t-187.5 261.5q-35 112 -35 258v71h758q-7 92 -59.5 143.5t-134.5 51.5q-119 0 -154 -92h-389zM621 215q85 0 136 50t58 155h-379
q14 -205 185 -205z" />
    <glyph glyph-name="uni025B" unicode="&#x25b;" horiz-adv-x="1175" 
d="M1124 328q-10 -55 -33 -104.5t-66 -97t-101 -81.5t-144.5 -55t-191.5 -21q-239 0 -373.5 80t-134.5 244q0 96 52.5 159t141.5 87q-73 26 -120.5 84.5t-47.5 150.5q0 155 131.5 238.5t358.5 83.5q120 0 214.5 -28.5t152.5 -77.5t91 -107t44 -125h-355q-5 43 -44 69.5
t-111 26.5q-67 0 -103 -26t-36 -70q0 -43 40.5 -67.5t112.5 -24.5h160v-256h-160q-170 0 -170 -97q0 -47 40 -73.5t112 -26.5q80 0 121.5 33.5t50.5 81.5h368z" />
    <glyph glyph-name="uni0263" unicode="&#x263;" horiz-adv-x="1167" 
d="M778 1065h389l-370 -762q79 -169 104 -236.5t25 -132.5q0 -133 -94 -218t-250 -85q-157 0 -250.5 84.5t-93.5 216.5q0 66 27 141t104 234l-369 758h389l84 -195q55 -125 107 -278h8q55 163 106 278zM582 84q-50 -126 -50 -160q0 -29 13.5 -47t36.5 -18t37 18t14 47
q0 31 -51 160z" />
    <glyph glyph-name="uni0268" unicode="&#x268;" horiz-adv-x="737" 
d="M47 762h137v303h369v-303h137v-277h-137v-485h-369v485h-137v277zM184 1434h369v-267h-369v267z" />
    <glyph glyph-name="uni0272" unicode="&#x272;" horiz-adv-x="1347" 
d="M705 799q-109 0 -167.5 -68.5t-58.5 -187.5v-543q0 -181 -119.5 -275t-330.5 -94h-154v267h143q51 0 72 25.5t21 76.5v1065h368v-113q49 65 129.5 104.5t177.5 39.5q215 0 338 -124.5t123 -346.5v-625h-368v604q0 195 -174 195z" />
    <glyph glyph-name="uni0289" unicode="&#x289;" horiz-adv-x="1413" 
d="M16 762h127v303h369v-303h389v303h369v-303h127v-277h-127v-485h-369v102q-102 -133 -307 -133q-210 0 -330.5 124.5t-120.5 346.5v45h-127v277zM686 266q101 0 153 57.5t60 161.5h-387v-24q0 -195 174 -195z" />
    <glyph glyph-name="circumflex" unicode="&#x2c6;" horiz-adv-x="962" 
d="M481 1300l-82 -133h-389l266 267h410l266 -267h-389z" />
    <glyph glyph-name="caron" unicode="&#x2c7;" horiz-adv-x="962" 
d="M563 1434h389l-266 -267h-410l-266 267h389l82 -134z" />
    <glyph glyph-name="breve" unicode="&#x2d8;" horiz-adv-x="839" 
d="M420 1147q-89 0 -162 29.5t-120.5 79.5t-76.5 111t-38 128h243q11 -52 53 -77t101 -25q58 0 100.5 25.5t52.5 76.5h244q-9 -67 -38 -128t-76.5 -111t-120.5 -79.5t-162 -29.5z" />
    <glyph glyph-name="dotaccent" unicode="&#x2d9;" horiz-adv-x="491" 
d="M61 1434h369v-267h-369v267z" />
    <glyph glyph-name="ring" unicode="&#x2da;" horiz-adv-x="655" 
d="M31 1403q0 115 87 195.5t210 80.5t210 -80.5t87 -195.5t-87 -196t-210 -81t-210 81t-87 196zM225 1403q0 -43 30 -73t73 -30t72.5 30t29.5 73t-29.5 72.5t-72.5 29.5t-73 -29.5t-30 -72.5z" />
    <glyph glyph-name="ogonek" unicode="&#x2db;" horiz-adv-x="573" 
d="M451 -256q59 0 122 18l-88 -231q-71 -23 -157 -23q-135 0 -226.5 71.5t-91.5 195.5q0 170 174 245l369 -20q-215 -91 -215 -178q0 -78 113 -78z" />
    <glyph glyph-name="tilde" unicode="&#x2dc;" horiz-adv-x="901" 
d="M41 1178q0 145 65.5 226t200.5 81q56 0 107.5 -17.5t82.5 -39t66 -39t62 -17.5q51 0 51 72h184q0 -145 -65.5 -226t-200.5 -81q-56 0 -107.5 17.5t-82.5 38.5t-66 38.5t-62 17.5q-51 0 -51 -71h-184z" />
    <glyph glyph-name="hungarumlaut" unicode="&#x2dd;" horiz-adv-x="1105" 
d="M225 1434h359l-185 -267h-307zM655 1434h359l-185 -267h-307z" />
    <glyph glyph-name="gravecomb" unicode="&#x300;" horiz-adv-x="0" 
d="M-205 1167h-348l-266 267h450z" />
    <glyph glyph-name="acutecomb" unicode="&#x301;" horiz-adv-x="0" 
d="M-655 1434h450l-266 -267h-348z" />
    <glyph glyph-name="uni0302" unicode="&#x302;" horiz-adv-x="0" 
d="M-512 1300l-82 -133h-389l266 267h410l266 -267h-389z" />
    <glyph glyph-name="tildecomb" unicode="&#x303;" horiz-adv-x="0" 
d="M-922 1178q0 145 66 226t201 81q56 0 107.5 -17.5t82 -39t65.5 -39t62 -17.5q51 0 51 72h185q0 -145 -66 -226t-201 -81q-56 0 -107.5 17.5t-82 38.5t-65.5 38.5t-62 17.5q-51 0 -51 -71h-185z" />
    <glyph glyph-name="uni0304" unicode="&#x304;" horiz-adv-x="0" 
d="M-911 1434h798v-246h-798v246z" />
    <glyph glyph-name="uni0306" unicode="&#x306;" horiz-adv-x="0" 
d="M-512 1147q-89 0 -162 29.5t-120.5 79.5t-76.5 111t-38 128h243q11 -52 53 -77t101 -25q58 0 101 25.5t53 76.5h243q-9 -67 -38 -128t-76.5 -111t-120.5 -79.5t-162 -29.5z" />
    <glyph glyph-name="uni0307" unicode="&#x307;" horiz-adv-x="0" 
d="M-696 1434h368v-267h-368v267z" />
    <glyph glyph-name="uni0308" unicode="&#x308;" horiz-adv-x="0" 
d="M-952 1434h368v-267h-368v267zM-440 1434h368v-267h-368v267z" />
    <glyph glyph-name="uni030A" unicode="&#x30a;" horiz-adv-x="0" 
d="M-809 1403q0 115 87 195.5t210 80.5t210 -80.5t87 -195.5t-87 -196t-210 -81t-210 81t-87 196zM-614 1403q0 -43 29.5 -73t72.5 -30t72.5 30t29.5 73t-29.5 72.5t-72.5 29.5t-72.5 -29.5t-29.5 -72.5z" />
    <glyph glyph-name="uni030B" unicode="&#x30b;" horiz-adv-x="0" 
d="M-840 1434h359l-185 -267h-307zM-410 1434h359l-185 -267h-307z" />
    <glyph glyph-name="uni030C" unicode="&#x30c;" horiz-adv-x="0" 
d="M-430 1434h389l-266 -267h-410l-266 267h389l82 -134z" />
    <glyph glyph-name="uni0312" unicode="&#x312;" horiz-adv-x="0" 
d="M-328 1167h-368v236l164 235h153l-92 -235h143v-236z" />
    <glyph glyph-name="uni0313" unicode="&#x313;" horiz-adv-x="0" 
d="M-659 1434h358l-143 -471h-277z" />
    <glyph glyph-name="dotbelowcomb" unicode="&#x323;" horiz-adv-x="0" 
d="M-696 -102h368v-267h-368v267z" />
    <glyph glyph-name="uni0326" unicode="&#x326;" horiz-adv-x="0" 
d="M-696 -82h368v-235l-164 -236h-153l92 236h-143v235z" />
    <glyph glyph-name="uni0327" unicode="&#x327;" horiz-adv-x="0" 
d="M-563 -266q11 -41 51 -41q24 0 37.5 13.5t13.5 37.5t-13.5 37.5t-37.5 13.5q-21 0 -37 -16l-123 123l129 129h246l-121 -121q56 -5 99 -49t43 -117q0 -90 -68.5 -152.5t-167.5 -62.5q-94 0 -163 59t-73 146h185z" />
    <glyph glyph-name="uni0328" unicode="&#x328;" horiz-adv-x="0" 
d="M-352 -256q60 0 123 18l-88 -231q-71 -23 -158 -23q-135 0 -226.5 71.5t-91.5 195.5q0 88 47.5 149t127.5 96l368 -20q-215 -91 -215 -178q0 -78 113 -78z" />
    <glyph glyph-name="uni032E" unicode="&#x32e;" horiz-adv-x="0" 
d="M-512 -461q-89 0 -162 29.5t-120.5 79.5t-76.5 111t-38 128h243q11 -52 53 -77t101 -25q58 0 101 25.5t53 76.5h243q-9 -67 -38 -128t-76.5 -111t-120.5 -79.5t-162 -29.5z" />
    <glyph glyph-name="uni0331" unicode="&#x331;" horiz-adv-x="0" 
d="M-911 -113h798v-245h-798v245z" />
    <glyph glyph-name="anoteleia" unicode="&#x387;" horiz-adv-x="638" 
d="M104 717h431v-369h-431v369z" />
    <glyph glyph-name="uni0394" unicode="&#x394;" horiz-adv-x="1318" 
d="M55 287l410 1147h389l410 -1147v-287h-1209v287zM434 287h451l-226 686z" />
    <glyph glyph-name="uni03A9" unicode="&#x3a9;" horiz-adv-x="1531" 
d="M766 1178q-135 0 -226 -86.5t-91 -241.5q0 -144 72.5 -230.5t193.5 -117.5v-502h-604v287h348v10q-176 70 -277.5 222.5t-101.5 340.5q0 168 86 305.5t243.5 218t356.5 80.5q148 0 276.5 -47t218 -128t140.5 -192.5t51 -236.5q0 -188 -101.5 -340.5t-277.5 -222.5v-10
h348v-287h-604v502q121 31 193.5 117.5t72.5 230.5q0 155 -91 241.5t-226 86.5z" />
    <glyph glyph-name="uni03BC" unicode="&#x3bc;" horiz-adv-x="1306" 
d="M827 45q-61 -76 -174 -76t-174 76v-414h-368v1434h368v-604q0 -96 43 -150.5t131 -54.5q82 0 128 53t46 152v604h369v-1065h-369v45z" />
    <glyph glyph-name="pi" unicode="&#x3c0;" horiz-adv-x="1343" 
d="M764 778h-184v-778h-369v778h-154v287h1229v-287h-153v-778h-369v778z" />
    <glyph glyph-name="uni1E02" unicode="&#x1e02;" horiz-adv-x="1492" 
d="M143 0v1434h768q201 0 331 -113.5t130 -296.5q0 -158 -123 -266q174 -109 174 -328q0 -190 -122 -310t-338 -120h-820zM911 328q59 0 96 29t37 94q0 122 -133 122h-379v-245h379zM870 881q123 0 123 112q0 113 -123 113h-338v-225h338zM553 1802h369v-266h-369v266z" />
    <glyph glyph-name="uni1E03" unicode="&#x1e03;" horiz-adv-x="1349" 
d="M479 0h-368v1434h368v-482q39 56 117 100t201 44q116 0 210.5 -45t155 -122.5t93 -179.5t32.5 -217q0 -155 -55 -281t-168.5 -204t-267.5 -78q-123 0 -201 44t-117 100v-113zM694 256q31 0 60.5 7t60.5 26t53.5 48.5t37 79.5t14.5 115q0 80 -21 137.5t-56.5 86t-72 41
t-76.5 12.5q-36 0 -72 -14t-72 -44t-58.5 -87t-22.5 -132t22.5 -132t58.5 -86.5t72 -43.5t72 -14zM666 1434h368v-267h-368v267z" />
    <glyph glyph-name="uni1E0A" unicode="&#x1e0a;" horiz-adv-x="1533" 
d="M1464 717q0 -167 -51 -302.5t-143 -226t-220.5 -139.5t-281.5 -49h-625v1434h625q153 0 281.5 -49.5t220.5 -140.5t143 -226t51 -301zM1075 717q0 389 -327 389h-216v-778h216q327 0 327 389zM573 1802h369v-266h-369v266z" />
    <glyph glyph-name="uni1E0B" unicode="&#x1e0b;" horiz-adv-x="1349" 
d="M870 113q-114 -144 -317 -144q-116 0 -210.5 45t-155.5 122.5t-93.5 179t-32.5 216.5t32.5 217t93.5 179.5t155.5 122.5t210.5 45q203 0 317 -144v482h369v-1434h-369v113zM655 256q36 0 72.5 14t72.5 43.5t58.5 86.5t22.5 132t-22.5 132t-58.5 87t-72.5 44t-72.5 14
q-40 0 -76.5 -12.5t-71.5 -41t-56 -86t-21 -137.5t21 -137.5t56.5 -86t71.5 -40.5t76 -12zM317 1434h369v-267h-369v267z" />
    <glyph glyph-name="uni1E0C" unicode="&#x1e0c;" horiz-adv-x="1533" 
d="M1464 717q0 -167 -51 -302.5t-143 -226t-220.5 -139.5t-281.5 -49h-625v1434h625q153 0 281.5 -49.5t220.5 -140.5t143 -226t51 -301zM1075 717q0 389 -327 389h-216v-778h216q327 0 327 389zM553 -102h369v-267h-369v267z" />
    <glyph glyph-name="uni1E0D" unicode="&#x1e0d;" horiz-adv-x="1349" 
d="M870 113q-114 -144 -317 -144q-116 0 -210.5 45t-155.5 122.5t-93.5 179t-32.5 216.5t32.5 217t93.5 179.5t155.5 122.5t210.5 45q203 0 317 -144v482h369v-1434h-369v113zM655 256q36 0 72.5 14t72.5 43.5t58.5 86.5t22.5 132t-22.5 132t-58.5 87t-72.5 44t-72.5 14
q-40 0 -76.5 -12.5t-71.5 -41t-56 -86t-21 -137.5t21 -137.5t56.5 -86t71.5 -40.5t76 -12zM512 -102h369v-267h-369v267z" />
    <glyph glyph-name="uni1E0E" unicode="&#x1e0e;" horiz-adv-x="1533" 
d="M1464 717q0 -167 -51 -302.5t-143 -226t-220.5 -139.5t-281.5 -49h-625v1434h625q153 0 281.5 -49.5t220.5 -140.5t143 -226t51 -301zM1075 717q0 389 -327 389h-216v-778h216q327 0 327 389zM338 -113h799v-245h-799v245z" />
    <glyph glyph-name="uni1E0F" unicode="&#x1e0f;" horiz-adv-x="1349" 
d="M870 113q-114 -144 -317 -144q-116 0 -210.5 45t-155.5 122.5t-93.5 179t-32.5 216.5t32.5 217t93.5 179.5t155.5 122.5t210.5 45q203 0 317 -144v482h369v-1434h-369v113zM655 256q36 0 72.5 14t72.5 43.5t58.5 86.5t22.5 132t-22.5 132t-58.5 87t-72.5 44t-72.5 14
q-40 0 -76.5 -12.5t-71.5 -41t-56 -86t-21 -137.5t21 -137.5t56.5 -86t71.5 -40.5t76 -12zM297 -113h799v-245h-799v245z" />
    <glyph glyph-name="uni1E10" unicode="&#x1e10;" horiz-adv-x="1533" 
d="M1464 717q0 -167 -51 -302.5t-143 -226t-220.5 -139.5t-281.5 -49h-625v1434h625q153 0 281.5 -49.5t220.5 -140.5t143 -226t51 -301zM1075 717q0 389 -327 389h-216v-778h216q327 0 327 389zM553 -82h369v-235l-164 -236h-154l92 236h-143v235z" />
    <glyph glyph-name="uni1E11" unicode="&#x1e11;" horiz-adv-x="1349" 
d="M870 113q-114 -144 -317 -144q-116 0 -210.5 45t-155.5 122.5t-93.5 179t-32.5 216.5t32.5 217t93.5 179.5t155.5 122.5t210.5 45q203 0 317 -144v482h369v-1434h-369v113zM655 256q36 0 72.5 14t72.5 43.5t58.5 86.5t22.5 132t-22.5 132t-58.5 87t-72.5 44t-72.5 14
q-40 0 -76.5 -12.5t-71.5 -41t-56 -86t-21 -137.5t21 -137.5t56.5 -86t71.5 -40.5t76 -12zM512 -82h369v-235l-164 -236h-154l92 236h-143v235z" />
    <glyph glyph-name="uni1E1E" unicode="&#x1e1e;" horiz-adv-x="1341" 
d="M143 1434h1127v-328h-738v-236h697v-327h-697v-543h-389v1434zM522 1802h369v-266h-369v266z" />
    <glyph glyph-name="uni1E1F" unicode="&#x1e1f;" horiz-adv-x="972" 
d="M20 1065h256v41q0 169 99.5 248.5t269.5 79.5h307v-267h-245q-62 0 -62 -61v-41h307v-287h-307v-778h-369v778h-256v287zM389 1802h369v-266h-369v266z" />
    <glyph glyph-name="uni1E20" unicode="&#x1e20;" horiz-adv-x="1581" 
d="M807 1147q-90 0 -158 -33.5t-109 -93t-61 -135.5t-20 -168q0 -91 20 -168t60 -136t106 -92.5t152 -33.5q255 0 307 205h-287v327h666v-819h-307l-23 113q-56 -67 -153.5 -105.5t-213.5 -38.5q-216 0 -379.5 97t-250 266t-86.5 385t87 384t255.5 265.5t394.5 97.5
q257 0 424 -118t231 -322h-424q-56 123 -231 123zM420 1802h799v-246h-799v246z" />
    <glyph glyph-name="uni1E21" unicode="&#x1e21;" horiz-adv-x="1339" 
d="M430 563q0 -74 19.5 -128.5t52 -83t68 -41.5t75.5 -13q91 0 158 68t67 198t-67 198t-158 68q-38 0 -75 -16t-69 -47t-51.5 -83.5t-19.5 -119.5zM860 154q-108 -123 -307 -123q-220 0 -356 149.5t-136 382.5t136 383t356 150q199 0 307 -123v92h369v-922q0 -164 -79 -289
t-211 -189t-294 -64q-203 0 -343.5 92.5t-168.5 245.5h375q23 -82 137 -82q92 0 153.5 68t61.5 218v11zM317 1434h799v-246h-799v246z" />
    <glyph glyph-name="uni1E22" unicode="&#x1e22;" horiz-adv-x="1638" 
d="M1495 0h-389v563h-574v-563h-389v1434h389v-543h574v543h389v-1434zM635 1802h369v-266h-369v266z" />
    <glyph glyph-name="uni1E23" unicode="&#x1e23;" horiz-adv-x="1347" 
d="M479 952q49 65 129.5 104.5t177.5 39.5q215 0 338 -124.5t123 -346.5v-625h-368v604q0 195 -174 195q-109 0 -167.5 -68.5t-58.5 -187.5v-543h-368v1434h368v-482zM512 1802h369v-266h-369v266z" />
    <glyph glyph-name="uni1E24" unicode="&#x1e24;" horiz-adv-x="1638" 
d="M1495 0h-389v563h-574v-563h-389v1434h389v-543h574v543h389v-1434zM635 -102h369v-267h-369v267z" />
    <glyph glyph-name="uni1E25" unicode="&#x1e25;" horiz-adv-x="1347" 
d="M479 952q49 65 129.5 104.5t177.5 39.5q215 0 338 -124.5t123 -346.5v-625h-368v604q0 195 -174 195q-109 0 -167.5 -68.5t-58.5 -187.5v-543h-368v1434h368v-482zM494 -102h368v-267h-368v267z" />
    <glyph glyph-name="uni1E2A" unicode="&#x1e2a;" horiz-adv-x="1638" 
d="M1495 0h-389v563h-574v-563h-389v1434h389v-543h574v543h389v-1434zM819 -461q-89 0 -162 29.5t-120.5 79.5t-76.5 111t-38 128h244q11 -52 52.5 -77t100.5 -25q58 0 101 25.5t53 76.5h244q-9 -67 -38 -128t-77 -111t-121 -79.5t-162 -29.5z" />
    <glyph glyph-name="uni1E2B" unicode="&#x1e2b;" horiz-adv-x="1347" 
d="M479 952q49 65 129.5 104.5t177.5 39.5q215 0 338 -124.5t123 -346.5v-625h-368v604q0 195 -174 195q-109 0 -167.5 -68.5t-58.5 -187.5v-543h-368v1434h368v-482zM678 -461q-89 0 -162 29.5t-120.5 79.5t-76.5 111t-38 128h243q11 -52 53 -77t101 -25q58 0 100.5 25.5
t52.5 76.5h244q-9 -67 -38 -128t-76.5 -111t-120.5 -79.5t-162 -29.5z" />
    <glyph glyph-name="uni1E36" unicode="&#x1e36;" horiz-adv-x="1247" 
d="M143 1434h389v-1106h697v-328h-1086v1434zM502 -102h368v-267h-368v267z" />
    <glyph glyph-name="uni1E37" unicode="&#x1e37;" horiz-adv-x="589" 
d="M111 1434h368v-1434h-368v1434zM111 -102h368v-267h-368v267z" />
    <glyph glyph-name="uni1E38" unicode="&#x1e38;" horiz-adv-x="1247" 
d="M143 1434h389v-1106h697v-328h-1086v1434zM502 -102h368v-267h-368v267zM287 1802h798v-246h-798v246z" />
    <glyph glyph-name="uni1E39" unicode="&#x1e39;" horiz-adv-x="589" 
d="M111 1434h368v-1434h-368v1434zM111 -102h368v-267h-368v267zM-104 1802h798v-246h-798v246z" />
    <glyph glyph-name="uni1E3A" unicode="&#x1e3a;" horiz-adv-x="1247" 
d="M143 1434h389v-1106h697v-328h-1086v1434zM287 -113h798v-245h-798v245z" />
    <glyph glyph-name="uni1E3B" unicode="&#x1e3b;" horiz-adv-x="589" 
d="M111 1434h368v-1434h-368v1434zM-104 -113h798v-245h-798v245z" />
    <glyph glyph-name="uni1E3E" unicode="&#x1e3e;" horiz-adv-x="1925" 
d="M700 469q-41 72 -76.5 151.5t-52 122.5t-57.5 158h-8q26 -290 26 -450v-451h-389v1434h471l177 -371q95 -209 172 -418q94 256 172 418l176 371h471v-1434h-389v451q0 160 26 450h-8q-41 -115 -57.5 -158t-52 -122.5t-76.5 -151.5l-262 -469zM922 1802h450l-266 -266
h-348z" />
    <glyph glyph-name="uni1E3F" unicode="&#x1e3f;" horiz-adv-x="2033" 
d="M838 0v604q0 93 -36.5 144t-127.5 51q-93 0 -144 -56t-51 -170v-573h-368v1065h368v-113q101 144 301 144q232 0 344 -164q51 75 143.5 119.5t225.5 44.5q92 0 170.5 -26t139.5 -77t95.5 -135t34.5 -192v-666h-368v604q0 93 -36.5 144t-127.5 51q-93 0 -144 -56t-51 -170
v-573h-368zM1018 1434h450l-266 -267h-348z" />
    <glyph glyph-name="uni1E40" unicode="&#x1e40;" horiz-adv-x="1925" 
d="M700 469q-41 72 -76.5 151.5t-52 122.5t-57.5 158h-8q26 -290 26 -450v-451h-389v1434h471l177 -371q95 -209 172 -418q94 256 172 418l176 371h471v-1434h-389v451q0 160 26 450h-8q-41 -115 -57.5 -158t-52 -122.5t-76.5 -151.5l-262 -469zM778 1802h369v-266h-369v266
z" />
    <glyph glyph-name="uni1E41" unicode="&#x1e41;" horiz-adv-x="2033" 
d="M838 0v604q0 93 -36.5 144t-127.5 51q-93 0 -144 -56t-51 -170v-573h-368v1065h368v-113q101 144 301 144q232 0 344 -164q51 75 143.5 119.5t225.5 44.5q92 0 170.5 -26t139.5 -77t95.5 -135t34.5 -192v-666h-368v604q0 93 -36.5 144t-127.5 51q-93 0 -144 -56t-51 -170
v-573h-368zM834 1434h368v-267h-368v267z" />
    <glyph glyph-name="uni1E42" unicode="&#x1e42;" horiz-adv-x="1925" 
d="M700 469q-41 72 -76.5 151.5t-52 122.5t-57.5 158h-8q26 -290 26 -450v-451h-389v1434h471l177 -371q95 -209 172 -418q94 256 172 418l176 371h471v-1434h-389v451q0 160 26 450h-8q-41 -115 -57.5 -158t-52 -122.5t-76.5 -151.5l-262 -469zM778 -102h369v-267h-369v267
z" />
    <glyph glyph-name="uni1E43" unicode="&#x1e43;" horiz-adv-x="2033" 
d="M838 0v604q0 93 -36.5 144t-127.5 51q-93 0 -144 -56t-51 -170v-573h-368v1065h368v-113q101 144 301 144q232 0 344 -164q51 75 143.5 119.5t225.5 44.5q92 0 170.5 -26t139.5 -77t95.5 -135t34.5 -192v-666h-368v604q0 93 -36.5 144t-127.5 51q-93 0 -144 -56t-51 -170
v-573h-368zM838 -102h368v-267h-368v267z" />
    <glyph glyph-name="uni1E44" unicode="&#x1e44;" 
d="M891 971q132 -210 244 -449h8q-17 223 -17 471v441h390v-1434h-451l-297 463q-32 49 -61.5 98.5t-47.5 80.5t-43.5 81t-32 63.5t-32.5 68t-27 56.5h-8q16 -210 16 -471v-440h-389v1434h451zM645 1802h369v-266h-369v266z" />
    <glyph glyph-name="uni1E45" unicode="&#x1e45;" horiz-adv-x="1347" 
d="M479 952q49 65 129.5 104.5t177.5 39.5q215 0 338 -124.5t123 -346.5v-625h-368v604q0 195 -174 195q-109 0 -167.5 -68.5t-58.5 -187.5v-543h-368v1065h368v-113zM492 1434h368v-267h-368v267z" />
    <glyph glyph-name="uni1E46" unicode="&#x1e46;" 
d="M891 971q132 -210 244 -449h8q-17 223 -17 471v441h390v-1434h-451l-297 463q-32 49 -61.5 98.5t-47.5 80.5t-43.5 81t-32 63.5t-32.5 68t-27 56.5h-8q16 -210 16 -471v-440h-389v1434h451zM645 -102h369v-267h-369v267z" />
    <glyph glyph-name="uni1E47" unicode="&#x1e47;" horiz-adv-x="1347" 
d="M479 952q49 65 129.5 104.5t177.5 39.5q215 0 338 -124.5t123 -346.5v-625h-368v604q0 195 -174 195q-109 0 -167.5 -68.5t-58.5 -187.5v-543h-368v1065h368v-113zM494 -102h368v-267h-368v267z" />
    <glyph glyph-name="uni1E48" unicode="&#x1e48;" 
d="M891 971q132 -210 244 -449h8q-17 223 -17 471v441h390v-1434h-451l-297 463q-32 49 -61.5 98.5t-47.5 80.5t-43.5 81t-32 63.5t-32.5 68t-27 56.5h-8q16 -210 16 -471v-440h-389v1434h451zM430 -113h799v-245h-799v245z" />
    <glyph glyph-name="uni1E49" unicode="&#x1e49;" horiz-adv-x="1347" 
d="M479 952q49 65 129.5 104.5t177.5 39.5q215 0 338 -124.5t123 -346.5v-625h-368v604q0 195 -174 195q-109 0 -167.5 -68.5t-58.5 -187.5v-543h-368v1065h368v-113zM279 -113h798v-245h-798v245z" />
    <glyph glyph-name="uni1E56" unicode="&#x1e56;" horiz-adv-x="1509" 
d="M942 819q73 0 108 42t35 102t-35 101.5t-108 41.5h-410v-287h410zM532 492v-492h-389v1434h820q226 0 369 -134t143 -337t-143 -337t-369 -134h-431zM584 1802h368v-266h-368v266z" />
    <glyph glyph-name="uni1E57" unicode="&#x1e57;" horiz-adv-x="1349" 
d="M479 952q39 56 117 100t201 44q116 0 210.5 -45t155 -122.5t93 -179.5t32.5 -217q0 -155 -55 -281t-168.5 -204t-267.5 -78q-123 0 -201 44t-117 100v-482h-368v1434h368v-113zM694 809q-36 0 -72 -14t-72 -44t-58.5 -87t-22.5 -132t22.5 -132t58.5 -86.5t72 -43.5
t72 -14q31 0 60.5 7t60.5 26t53.5 48.5t37 79.5t14.5 115q0 80 -21 137.5t-56.5 86t-72 41t-76.5 12.5zM573 1434h369v-267h-369v267z" />
    <glyph glyph-name="uni1E5A" unicode="&#x1e5a;" horiz-adv-x="1560" 
d="M942 799q73 0 108 43t35 110t-35 110.5t-108 43.5h-410v-307h410zM1536 0h-502l-471 492h-31v-492h-389v1434h820q226 0 369 -134t143 -337q0 -185 -119.5 -313.5t-315.5 -153.5zM614 -102h369v-267h-369v267z" />
    <glyph glyph-name="uni1E5B" unicode="&#x1e5b;" horiz-adv-x="897" 
d="M715 778q-116 0 -176 -52.5t-60 -182.5v-543h-368v1065h368v-123q38 73 111 108t207 35h80v-307h-162zM111 -102h368v-267h-368v267z" />
    <glyph glyph-name="uni1E5C" unicode="&#x1e5c;" horiz-adv-x="1560" 
d="M942 799q73 0 108 43t35 110t-35 110.5t-108 43.5h-410v-307h410zM1536 0h-502l-471 492h-31v-492h-389v1434h820q226 0 369 -134t143 -337q0 -185 -119.5 -313.5t-315.5 -153.5zM614 -102h369v-267h-369v267zM379 1802h799v-246h-799v246z" />
    <glyph glyph-name="uni1E5D" unicode="&#x1e5d;" horiz-adv-x="897" 
d="M715 778q-116 0 -176 -52.5t-60 -182.5v-543h-368v1065h368v-123q38 73 111 108t207 35h80v-307h-162zM111 -102h368v-267h-368v267zM92 1434h799v-246h-799v246z" />
    <glyph glyph-name="uni1E5E" unicode="&#x1e5e;" horiz-adv-x="1560" 
d="M942 799q73 0 108 43t35 110t-35 110.5t-108 43.5h-410v-307h410zM1536 0h-502l-471 492h-31v-492h-389v1434h820q226 0 369 -134t143 -337q0 -185 -119.5 -313.5t-315.5 -153.5zM399 -113h799v-245h-799v245z" />
    <glyph glyph-name="uni1E5F" unicode="&#x1e5f;" horiz-adv-x="897" 
d="M715 778q-116 0 -176 -52.5t-60 -182.5v-543h-368v1065h368v-123q38 73 111 108t207 35h80v-307h-162zM-104 -113h798v-245h-798v245z" />
    <glyph glyph-name="uni1E60" unicode="&#x1e60;" horiz-adv-x="1400" 
d="M647 537q-97 13 -174.5 32.5t-151.5 56t-123.5 87t-79.5 127.5t-30 174q0 204 161.5 327t442.5 123q145 0 262 -36t191 -98.5t115 -140t47 -165.5h-389q-5 82 -56.5 123t-169.5 41q-225 0 -225 -129q0 -31 12 -54t30 -37t53.5 -25.5t67.5 -17.5t87 -14l61 -8
q69 -9 121.5 -19t113.5 -28t105.5 -40.5t88 -57.5t70.5 -79t43.5 -104.5t16.5 -134.5q0 -209 -173 -340t-462 -131q-297 0 -467 126t-178 345h389q4 -105 68.5 -149.5t187.5 -44.5q127 0 191.5 41t64.5 112q0 24 -8 42.5t-26.5 31t-37 21.5t-52 15.5t-58 10t-67.5 8.5z
M508 1802h369v-266h-369v266z" />
    <glyph glyph-name="uni1E61" unicode="&#x1e61;" horiz-adv-x="1148" 
d="M543 373q-72 5 -136 19.5t-126 43.5t-106.5 69.5t-71.5 102t-27 137.5q0 115 66.5 195.5t178 118t257.5 37.5q211 0 347 -100t144 -238h-369q-2 43 -31 72.5t-96 29.5q-135 0 -135 -74q0 -39 34.5 -57t119.5 -22l33 -2q465 -29 465 -377q0 -165 -141.5 -262t-370.5 -97
q-228 0 -373.5 97.5t-149.5 261.5h365q5 -63 40 -93t118 -30q149 0 149 86q0 16 -5.5 29t-18.5 21t-24.5 13t-33.5 8.5t-34.5 5t-37.5 3.5zM389 1434h369v-267h-369v267z" />
    <glyph glyph-name="uni1E62" unicode="&#x1e62;" horiz-adv-x="1400" 
d="M647 537q-97 13 -174.5 32.5t-151.5 56t-123.5 87t-79.5 127.5t-30 174q0 204 161.5 327t442.5 123q145 0 262 -36t191 -98.5t115 -140t47 -165.5h-389q-5 82 -56.5 123t-169.5 41q-225 0 -225 -129q0 -31 12 -54t30 -37t53.5 -25.5t67.5 -17.5t87 -14l61 -8
q69 -9 121.5 -19t113.5 -28t105.5 -40.5t88 -57.5t70.5 -79t43.5 -104.5t16.5 -134.5q0 -209 -173 -340t-462 -131q-297 0 -467 126t-178 345h389q4 -105 68.5 -149.5t187.5 -44.5q127 0 191.5 41t64.5 112q0 24 -8 42.5t-26.5 31t-37 21.5t-52 15.5t-58 10t-67.5 8.5z
M518 -102h369v-267h-369v267z" />
    <glyph glyph-name="uni1E63" unicode="&#x1e63;" horiz-adv-x="1148" 
d="M543 373q-72 5 -136 19.5t-126 43.5t-106.5 69.5t-71.5 102t-27 137.5q0 115 66.5 195.5t178 118t257.5 37.5q211 0 347 -100t144 -238h-369q-2 43 -31 72.5t-96 29.5q-135 0 -135 -74q0 -39 34.5 -57t119.5 -22l33 -2q465 -29 465 -377q0 -165 -141.5 -262t-370.5 -97
q-228 0 -373.5 97.5t-149.5 261.5h365q5 -63 40 -93t118 -30q149 0 149 86q0 16 -5.5 29t-18.5 21t-24.5 13t-33.5 8.5t-34.5 5t-37.5 3.5zM389 -102h369v-267h-369v267z" />
    <glyph glyph-name="uni1E6A" unicode="&#x1e6a;" horiz-adv-x="1331" 
d="M1311 1106h-451v-1106h-389v1106h-451v328h1291v-328zM481 1802h369v-266h-369v266z" />
    <glyph glyph-name="uni1E6B" unicode="&#x1e6b;" horiz-adv-x="995" 
d="M276 778h-256v287h256v246h369v-246h307v-287h-307v-450q0 -62 62 -62h245v-266h-348q-166 0 -247 77t-81 251v450zM276 1802h369v-266h-369v266z" />
    <glyph glyph-name="uni1E6C" unicode="&#x1e6c;" horiz-adv-x="1331" 
d="M1311 1106h-451v-1106h-389v1106h-451v328h1291v-328zM481 -102h369v-267h-369v267z" />
    <glyph glyph-name="uni1E6D" unicode="&#x1e6d;" horiz-adv-x="995" 
d="M276 778h-256v287h256v246h369v-246h307v-287h-307v-450q0 -62 62 -62h245v-266h-348q-166 0 -247 77t-81 251v450zM348 -102h369v-267h-369v267z" />
    <glyph glyph-name="uni1E6E" unicode="&#x1e6e;" horiz-adv-x="1331" 
d="M1311 1106h-451v-1106h-389v1106h-451v328h1291v-328zM266 -113h799v-245h-799v245z" />
    <glyph glyph-name="uni1E6F" unicode="&#x1e6f;" horiz-adv-x="995" 
d="M276 778h-256v287h256v246h369v-246h307v-287h-307v-450q0 -62 62 -62h245v-266h-348q-166 0 -247 77t-81 251v450zM133 -113h799v-245h-799v245z" />
    <glyph glyph-name="uni1E7C" unicode="&#x1e7c;" horiz-adv-x="1398" 
d="M1001 1434h400l-512 -1434h-379l-512 1434h399l185 -564q48 -147 114 -430h6q64 273 115 430zM289 1546q0 145 65.5 226t200.5 81q56 0 107.5 -17.5t82 -38.5t65.5 -38.5t62 -17.5q52 0 52 71h184q0 -145 -65.5 -226t-200.5 -81q-56 0 -107.5 17.5t-82.5 39t-66 39
t-62 17.5q-51 0 -51 -72h-184z" />
    <glyph glyph-name="uni1E7D" unicode="&#x1e7d;" horiz-adv-x="1175" 
d="M782 1065h389l-399 -1065h-369l-399 1065h389l88 -277q47 -151 103 -389h8q59 251 102 389zM178 1178q0 145 65.5 226t200.5 81q56 0 107.5 -17.5t82.5 -39t66 -39t62 -17.5q51 0 51 72h184q0 -145 -65.5 -226t-200.5 -81q-56 0 -107.5 17.5t-82 38.5t-65.5 38.5
t-62 17.5q-52 0 -52 -71h-184z" />
    <glyph glyph-name="Wgrave" unicode="&#x1e80;" horiz-adv-x="2052" 
d="M831 1434h390l133 -502q44 -165 88 -420h8q48 278 84 420l127 502h389l-410 -1434h-389l-141 530q-35 134 -80 392h-8q-45 -258 -80 -392l-141 -530h-389l-410 1434h389l127 -502q36 -142 84 -420h8q44 255 88 420zM1303 1536h-349l-266 266h451z" />
    <glyph glyph-name="wgrave" unicode="&#x1e81;" horiz-adv-x="1708" 
d="M1114 768q42 -158 78 -389h8q1 5 10.5 79.5t14 106.5t16 94t23.5 113l69 293h371l-328 -1065h-358l-86 313q-41 142 -74 383h-8q-33 -241 -74 -383l-86 -313h-358l-328 1065h371l69 -293q12 -51 23.5 -113t16 -94t14 -106.5t10.5 -79.5h8q36 231 78 389l82 297h356z
M1120 1167h-348l-266 267h450z" />
    <glyph glyph-name="Wacute" unicode="&#x1e82;" horiz-adv-x="2052" 
d="M831 1434h390l133 -502q44 -165 88 -420h8q48 278 84 420l127 502h389l-410 -1434h-389l-141 530q-35 134 -80 392h-8q-45 -258 -80 -392l-141 -530h-389l-410 1434h389l127 -502q36 -142 84 -420h8q44 255 88 420zM913 1802h451l-266 -266h-348z" />
    <glyph glyph-name="wacute" unicode="&#x1e83;" horiz-adv-x="1708" 
d="M1114 768q42 -158 78 -389h8q1 5 10.5 79.5t14 106.5t16 94t23.5 113l69 293h371l-328 -1065h-358l-86 313q-41 142 -74 383h-8q-33 -241 -74 -383l-86 -313h-358l-328 1065h371l69 -293q12 -51 23.5 -113t16 -94t14 -106.5t10.5 -79.5h8q36 231 78 389l82 297h356z
M752 1434h450l-266 -267h-348z" />
    <glyph glyph-name="Wdieresis" unicode="&#x1e84;" horiz-adv-x="2052" 
d="M831 1434h390l133 -502q44 -165 88 -420h8q48 278 84 420l127 502h389l-410 -1434h-389l-141 530q-35 134 -80 392h-8q-45 -258 -80 -392l-141 -530h-389l-410 1434h389l127 -502q36 -142 84 -420h8q44 255 88 420zM586 1802h368v-266h-368v266zM1098 1802h368v-266h-368
v266z" />
    <glyph glyph-name="wdieresis" unicode="&#x1e85;" horiz-adv-x="1708" 
d="M1114 768q42 -158 78 -389h8q1 5 10.5 79.5t14 106.5t16 94t23.5 113l69 293h371l-328 -1065h-358l-86 313q-41 142 -74 383h-8q-33 -241 -74 -383l-86 -313h-358l-328 1065h371l69 -293q12 -51 23.5 -113t16 -94t14 -106.5t10.5 -79.5h8q36 231 78 389l82 297h356z
M414 1434h368v-267h-368v267zM926 1434h368v-267h-368v267z" />
    <glyph glyph-name="uni1E8A" unicode="&#x1e8a;" horiz-adv-x="1429" 
d="M930 760l522 -760h-457l-286 434l-289 -434h-443l521 748l-469 686h456l236 -359l237 359h443zM530 1802h369v-266h-369v266z" />
    <glyph glyph-name="uni1E8B" unicode="&#x1e8b;" horiz-adv-x="1146" 
d="M375 551l-355 514h424l134 -213l135 213h413l-354 -506l385 -559h-424l-164 258l-166 -258h-413zM399 1434h369v-267h-369v267z" />
    <glyph glyph-name="uni1E92" unicode="&#x1e92;" horiz-adv-x="1355" 
d="M1286 0h-1208v328l686 778h-666v328h1157v-328l-686 -778h717v-328zM498 -102h368v-267h-368v267z" />
    <glyph glyph-name="uni1E93" unicode="&#x1e93;" horiz-adv-x="1163" 
d="M1096 287v-287h-1024v287l497 491h-477v287h983v-287l-497 -491h518zM399 -102h369v-267h-369v267z" />
    <glyph glyph-name="uni1E97" unicode="&#x1e97;" horiz-adv-x="995" 
d="M276 778h-256v287h256v246h369v-246h307v-287h-307v-450q0 -62 62 -62h245v-266h-348q-166 0 -247 77t-81 251v450zM20 1802h369v-266h-369v266zM532 1802h369v-266h-369v266z" />
    <glyph glyph-name="uni1E9E" unicode="&#x1e9e;" horiz-adv-x="1513" 
d="M707 0v317h194q71 0 112.5 37t41.5 107q0 76 -36.5 109.5t-107.5 33.5h-163v307l194 195h-410v-1106h-389v1434h1198v-349l-225 -221q164 -19 246 -125.5t82 -267.5q0 -96 -31 -178t-94 -149t-170 -105.5t-248 -38.5h-194z" />
    <glyph glyph-name="uni1EA0" unicode="&#x1ea0;" horiz-adv-x="1519" 
d="M1038 256h-557l-100 -256h-399l583 1434h389l584 -1434h-399zM885 653q-55 147 -121 371h-8q-66 -224 -121 -371l-27 -69h303zM575 -102h369v-267h-369v267z" />
    <glyph glyph-name="uni1EA1" unicode="&#x1ea1;" horiz-adv-x="1247" 
d="M100 758q34 168 172 253t351 85q86 0 160.5 -12.5t142 -42t115.5 -73.5t76 -110.5t28 -150.5v-707h-369v96q-105 -127 -317 -127q-184 0 -297 93t-113 266q0 156 112.5 241.5t307.5 106.5l307 31q0 71 -30.5 107t-122.5 36q-130 0 -144 -92h-379zM551 225
q88 0 156.5 66.5t68.5 169.5v10l-239 -27q-56 -6 -87.5 -33t-31.5 -73q0 -52 33.5 -82.5t99.5 -30.5zM430 -102h369v-267h-369v267z" />
    <glyph glyph-name="uni1EB8" unicode="&#x1eb8;" horiz-adv-x="1370" 
d="M143 1434h1127v-328h-738v-215h697v-328h-697v-235h738v-328h-1127v1434zM522 -102h369v-267h-369v267z" />
    <glyph glyph-name="uni1EB9" unicode="&#x1eb9;" horiz-adv-x="1251" 
d="M1174 328q-38 -162 -176 -260.5t-357 -98.5q-179 0 -313 74.5t-202.5 201.5t-68.5 287q0 244 157 404t417 160q207 0 341 -95.5t187 -261.5q35 -112 35 -258v-71h-758q7 -90 64 -142.5t141 -52.5q59 0 99 32t48 81h386zM631 850q-85 0 -136.5 -50t-58.5 -155h379
q-14 205 -184 205zM440 -102h369v-267h-369v267z" />
    <glyph glyph-name="uni1EBC" unicode="&#x1ebc;" horiz-adv-x="1370" 
d="M143 1434h1127v-328h-738v-215h697v-328h-697v-235h738v-328h-1127v1434zM307 1546q0 145 65.5 226t200.5 81q56 0 107.5 -17.5t82.5 -38.5t66 -38.5t62 -17.5q51 0 51 71h184q0 -145 -65.5 -226t-200.5 -81q-56 0 -107.5 17.5t-82 39t-65.5 39t-62 17.5q-51 0 -51 -72
h-185z" />
    <glyph glyph-name="uni1EBD" unicode="&#x1ebd;" horiz-adv-x="1251" 
d="M1174 328q-38 -162 -176 -260.5t-357 -98.5q-179 0 -313 74.5t-202.5 201.5t-68.5 287q0 244 157 404t417 160q207 0 341 -95.5t187 -261.5q35 -112 35 -258v-71h-758q7 -90 64 -142.5t141 -52.5q59 0 99 32t48 81h386zM631 850q-85 0 -136.5 -50t-58.5 -155h379
q-14 205 -184 205zM221 1178q0 145 65.5 226t200.5 81q56 0 107.5 -17.5t82.5 -39t66 -39t62 -17.5q51 0 51 72h184q0 -145 -65.5 -226t-200.5 -81q-56 0 -107.5 17.5t-82 38.5t-65.5 38.5t-62 17.5q-51 0 -51 -71h-185z" />
    <glyph glyph-name="uni1ECA" unicode="&#x1eca;" horiz-adv-x="675" 
d="M143 0v1434h389v-1434h-389zM154 -102h368v-267h-368v267z" />
    <glyph glyph-name="uni1ECB" unicode="&#x1ecb;" horiz-adv-x="589" 
d="M111 1065h368v-1065h-368v1065zM111 1434h368v-267h-368v267zM111 -102h368v-267h-368v267z" />
    <glyph glyph-name="uni1ECC" unicode="&#x1ecc;" horiz-adv-x="1609" 
d="M457 717q0 -186 89 -303t259 -117t259 117t89 303t-89 303t-259 117t-259 -117t-89 -303zM1542 717q0 -161 -52 -299t-146.5 -237t-233.5 -155.5t-305 -56.5t-305 56.5t-233.5 155.5t-146.5 237t-52 299q0 160 52 298t146.5 237t233.5 155.5t305 56.5t305 -56.5
t233.5 -155.5t146.5 -237t52 -298zM621 -102h368v-267h-368v267z" />
    <glyph glyph-name="uni1ECD" unicode="&#x1ecd;" horiz-adv-x="1282" 
d="M1225 532q0 -160 -69 -287t-203 -201.5t-312 -74.5q-179 0 -313 74.5t-202.5 201.5t-68.5 287t68.5 287t202.5 202t313 75q178 0 312 -74.5t203 -202t69 -287.5zM856 532q0 53 -12 100t-36 88t-67 65t-100 24t-100 -24t-67 -65t-36 -88t-12 -100q0 -52 12 -99.5t36 -88
t67 -64.5t100 -24t100 24t67 64.5t36 88t12 99.5zM457 -102h368v-267h-368v267z" />
    <glyph glyph-name="uni1EE4" unicode="&#x1ee4;" horiz-adv-x="1527" 
d="M764 -31q-142 0 -262.5 46.5t-201.5 125.5t-126 183t-45 219v891h389v-891q0 -118 70 -182t176 -64t176 64t70 182v891h389v-891q0 -115 -45 -219t-126 -183t-201.5 -125.5t-262.5 -46.5zM580 -102h368v-267h-368v267z" />
    <glyph glyph-name="uni1EE5" unicode="&#x1ee5;" horiz-adv-x="1337" 
d="M858 102q-102 -133 -307 -133q-210 0 -330.5 124.5t-120.5 346.5v625h369v-604q0 -195 174 -195q109 0 162 67.5t53 188.5v543h369v-1065h-369v102zM481 -102h369v-267h-369v267z" />
    <glyph glyph-name="Ygrave" unicode="&#x1ef2;" horiz-adv-x="1347" 
d="M479 543l-481 891h410l266 -553l266 553h410l-482 -891v-543h-389v543zM940 1536h-348l-266 266h450z" />
    <glyph glyph-name="ygrave" unicode="&#x1ef3;" horiz-adv-x="1155" 
d="M846 1167h-348l-267 267h451zM498 739q41 -132 73 -340h9q31 180 84 338l108 328h381l-428 -1151q-27 -73 -57 -121t-78.5 -87t-121 -57t-173.5 -18h-201v267h160q64 0 99 25t53 77l-400 1065h389z" />
    <glyph glyph-name="uni1EF8" unicode="&#x1ef8;" horiz-adv-x="1347" 
d="M479 543l-481 891h410l266 -553l266 553h410l-482 -891v-543h-389v543zM264 1546q0 145 65.5 226t200.5 81q56 0 107.5 -17.5t82.5 -38.5t66 -38.5t62 -17.5q51 0 51 71h184q0 -145 -65.5 -226t-200.5 -81q-56 0 -107.5 17.5t-82 39t-65.5 39t-62 17.5q-51 0 -51 -72
h-185z" />
    <glyph glyph-name="uni1EF9" unicode="&#x1ef9;" horiz-adv-x="1155" 
d="M498 739q41 -132 73 -340h9q31 180 84 338l108 328h381l-428 -1151q-27 -73 -57 -121t-78.5 -87t-121 -57t-173.5 -18h-201v267h160q64 0 99 25t53 77l-400 1065h389zM170 1178q0 145 65.5 226t200.5 81q56 0 107.5 -17.5t82.5 -39t66 -39t62 -17.5q51 0 51 72h184
q0 -145 -65.5 -226t-200.5 -81q-56 0 -107.5 17.5t-82 38.5t-65.5 38.5t-62 17.5q-52 0 -52 -71h-184z" />
    <glyph glyph-name="uni2000" unicode="&#x2000;" horiz-adv-x="1024" 
 />
    <glyph glyph-name="uni2001" unicode="&#x2001;" horiz-adv-x="2048" 
 />
    <glyph glyph-name="uni2002" unicode="&#x2002;" horiz-adv-x="1024" 
 />
    <glyph glyph-name="uni2003" unicode="&#x2003;" horiz-adv-x="2048" 
 />
    <glyph glyph-name="uni2004" unicode="&#x2004;" horiz-adv-x="681" 
 />
    <glyph glyph-name="uni2005" unicode="&#x2005;" horiz-adv-x="512" 
 />
    <glyph glyph-name="uni2006" unicode="&#x2006;" horiz-adv-x="342" 
 />
    <glyph glyph-name="uni2007" unicode="&#x2007;" horiz-adv-x="1343" 
 />
    <glyph glyph-name="uni2008" unicode="&#x2008;" horiz-adv-x="638" 
 />
    <glyph glyph-name="uni2009" unicode="&#x2009;" horiz-adv-x="256" 
 />
    <glyph glyph-name="uni200A" unicode="&#x200a;" horiz-adv-x="86" 
 />
    <glyph glyph-name="uni200B" unicode="&#x200b;" horiz-adv-x="0" 
 />
    <glyph glyph-name="figuredash" unicode="&#x2012;" horiz-adv-x="1396" 
d="M104 860h1188v-287h-1188v287z" />
    <glyph glyph-name="endash" unicode="&#x2013;" horiz-adv-x="1396" 
d="M104 676h1188v-287h-1188v287z" />
    <glyph glyph-name="emdash" unicode="&#x2014;" horiz-adv-x="2461" 
d="M104 676h2253v-287h-2253v287z" />
    <glyph glyph-name="uni2015" unicode="&#x2015;" horiz-adv-x="2461" 
d="M104 676h2253v-287h-2253v287z" />
    <glyph glyph-name="quoteleft" unicode="&#x2018;" horiz-adv-x="612" 
d="M516 696h-430v369l225 369h185l-144 -369h164v-369z" />
    <glyph glyph-name="quoteright" unicode="&#x2019;" horiz-adv-x="589" 
d="M96 1434h430v-369l-225 -369h-184l143 369h-164v369z" />
    <glyph glyph-name="quotesinglbase" unicode="&#x201a;" horiz-adv-x="638" 
d="M104 369h431v-369l-226 -369h-184l143 369h-164v369z" />
    <glyph glyph-name="quotereversed" unicode="&#x201b;" horiz-adv-x="552" 
d="M471 1065h-164l144 -369h-185l-225 369v369h430v-369z" />
    <glyph glyph-name="quotedblleft" unicode="&#x201c;" horiz-adv-x="1185" 
d="M516 696h-430v369l225 369h185l-144 -369h164v-369zM1090 696h-431v369l226 369h184l-143 -369h164v-369z" />
    <glyph glyph-name="quotedblright" unicode="&#x201d;" horiz-adv-x="1163" 
d="M96 1434h430v-369l-225 -369h-184l143 369h-164v369zM668 1434h430v-369l-226 -369h-184l143 369h-163v369z" />
    <glyph glyph-name="quotedblbase" unicode="&#x201e;" horiz-adv-x="1212" 
d="M104 369h431v-369l-226 -369h-184l143 369h-164v369zM678 369h430v-369l-225 -369h-185l144 369h-164v369z" />
    <glyph glyph-name="uni201F" unicode="&#x201f;" horiz-adv-x="1085" 
d="M1044 1065h-163l143 -369h-184l-226 369v369h430v-369zM471 1065h-164l144 -369h-185l-225 369v369h430v-369z" />
    <glyph glyph-name="dagger" unicode="&#x2020;" horiz-adv-x="1425" 
d="M528 -369v1147h-440v287h440v369h369v-369h440v-287h-440v-1147h-369z" />
    <glyph glyph-name="daggerdbl" unicode="&#x2021;" horiz-adv-x="1425" 
d="M528 287v491h-440v287h440v369h369v-369h440v-287h-440v-491h440v-287h-440v-369h-369v369h-440v287h440z" />
    <glyph glyph-name="bullet" unicode="&#x2022;" horiz-adv-x="1064" 
d="M113 532q0 173 123 296.5t296 123.5t296.5 -123.5t123.5 -296.5t-123.5 -296t-296.5 -123t-296 123t-123 296z" />
    <glyph glyph-name="ellipsis" unicode="&#x2026;" horiz-adv-x="1785" 
d="M104 369h431v-369h-431v369zM678 369h430v-369h-430v369zM1251 369h430v-369h-430v369z" />
    <glyph glyph-name="perthousand" unicode="&#x2030;" horiz-adv-x="2787" 
d="M293 1014q0 -125 33 -185.5t90 -60.5t90 60.5t33 185.5t-33 185.5t-90 60.5t-90 -60.5t-33 -185.5zM784 1014q0 -226 -101 -333.5t-267 -107.5q-80 0 -145.5 25t-116.5 76t-79 137.5t-28 202.5t28 202t79 137.5t116.5 76t145.5 24.5t145 -24.5t116 -76t79 -137.5t28 -202
zM1241 1434h270l-798 -1434h-271zM1417 420q0 -125 33 -185.5t90 -60.5t90 60.5t33 185.5t-33 185.5t-90 60.5t-90 -60.5t-33 -185.5zM1909 420q0 -116 -28 -202t-79 -137.5t-116.5 -76t-145.5 -24.5t-145.5 24.5t-116.5 76t-79 137.5t-28 202t28 202t79 137.5t116.5 76
t145.5 24.5t145.5 -24.5t116.5 -76t79 -137.5t28 -202zM2249 420q0 -125 33 -185.5t90 -60.5t89.5 60.5t32.5 185.5t-32.5 185.5t-89.5 60.5t-90 -60.5t-33 -185.5zM2740 420q0 -116 -28 -202t-79 -137.5t-116 -76t-145 -24.5t-145.5 24.5t-116.5 76t-79 137.5t-28 202
t28 202t79 137.5t116.5 76t145.5 24.5t145 -24.5t116 -76t79 -137.5t28 -202z" />
    <glyph glyph-name="minute" unicode="&#x2032;" horiz-adv-x="536" 
d="M115 1434h358v-420l-358 -359v779z" />
    <glyph glyph-name="second" unicode="&#x2033;" horiz-adv-x="1017" 
d="M115 1434h358v-420l-358 -359v779zM596 1434h358v-420l-358 -359v779z" />
    <glyph glyph-name="guilsinglleft" unicode="&#x2039;" horiz-adv-x="919" 
d="M823 184h-430l-348 348l348 349h430l-358 -349z" />
    <glyph glyph-name="guilsinglright" unicode="&#x203a;" horiz-adv-x="919" 
d="M455 532l-359 349h430l348 -349l-348 -348h-430z" />
    <glyph glyph-name="uni203D" unicode="&#x203d;" horiz-adv-x="1130" 
d="M369 993h286q11 33 11 62q0 102 -113 102q-105 0 -113 -102h-389q8 178 148 293.5t354 115.5q233 0 367.5 -114t134.5 -295q0 -73 -21 -131t-54.5 -96t-73.5 -69t-80.5 -56.5t-74 -51t-54.5 -61t-21 -78.5h-307v481zM307 369h430v-369h-430v369z" />
    <glyph glyph-name="fraction" unicode="&#x2044;" horiz-adv-x="348" 
d="M436 1434h271l-799 -1434h-270z" />
    <glyph glyph-name="uni2070" unicode="&#x2070;" horiz-adv-x="831" 
d="M293 1219q0 -125 33 -185.5t90 -60.5t90 60.5t33 185.5t-33 185t-90 60t-90 -60t-33 -185zM784 1219q0 -226 -101 -333.5t-267 -107.5q-80 0 -145.5 25t-116.5 76t-79 137.5t-28 202.5t28 202t79 137.5t116.5 76t145.5 24.5t145 -24.5t116 -76t79 -137.5t28 -202z" />
    <glyph glyph-name="uni2074" unicode="&#x2074;" horiz-adv-x="845" 
d="M406 1638h286v-512h123v-194h-123v-133h-246v133h-419v194zM262 1126h184v103q0 51 15 194h-8q-30 -61 -99 -163z" />
    <glyph glyph-name="uni2075" unicode="&#x2075;" horiz-adv-x="757" 
d="M57 1147l33 491h574v-194h-342l-9 -98q50 36 125 36q127 0 202 -85t75 -212q0 -135 -90 -221t-250 -86q-139 0 -231 77.5t-105 188.5h252q4 -36 28 -57.5t56 -21.5q94 0 94 120q0 121 -90 121q-60 0 -80 -59h-242z" />
    <glyph glyph-name="uni2076" unicode="&#x2076;" horiz-adv-x="798" 
d="M418 1659q260 0 307 -215h-246q-11 43 -61 43q-113 0 -113 -160q66 49 164 49q140 0 218.5 -83.5t78.5 -207.5q0 -133 -95.5 -220t-252.5 -87q-101 0 -174.5 33.5t-115 95.5t-60.5 138.5t-19 173.5q0 119 28.5 206.5t80 137.5t116 73t144.5 23zM418 950q49 0 75.5 34.5
t26.5 90.5q0 135 -102 135q-103 0 -103 -135q0 -59 29 -92t74 -33z" />
    <glyph glyph-name="uni2077" unicode="&#x2077;" horiz-adv-x="688" 
d="M328 799h-262l335 645h-372v194h635v-194z" />
    <glyph glyph-name="uni2078" unicode="&#x2078;" horiz-adv-x="794" 
d="M307 1399q0 -37 24.5 -61.5t65.5 -24.5t65.5 24.5t24.5 61.5q0 39 -24.5 62.5t-65.5 23.5t-65.5 -23.5t-24.5 -62.5zM504 1053q0 42 -28 72t-79 30t-78.5 -30t-27.5 -72t27.5 -71.5t78.5 -29.5t79 30t28 71zM616 1247q134 -65 134 -207q0 -113 -97.5 -187.5t-255.5 -74.5
t-255 74.5t-97 187.5q0 142 133 207q-52 22 -82 69t-30 97q0 105 88 175.5t243 70.5t243.5 -70.5t88.5 -175.5q0 -49 -30.5 -96.5t-82.5 -69.5z" />
    <glyph glyph-name="uni2079" unicode="&#x2079;" horiz-adv-x="800" 
d="M383 778q-260 0 -307 215h246q11 -43 61 -43q113 0 113 160q-66 -49 -164 -49q-140 0 -218.5 83.5t-78.5 207.5q0 133 95.5 220t252.5 87q369 0 369 -430q0 -119 -28.5 -208t-79.5 -141t-116 -77t-145 -25zM383 1487q-49 0 -75.5 -34.5t-26.5 -90.5q0 -135 102 -135
t102 135q0 59 -28.5 92t-73.5 33z" />
    <glyph glyph-name="uni2080" unicode="&#x2080;" horiz-adv-x="831" 
d="M293 217q0 -125 33 -185.5t90 -60.5t90 60.5t33 185.5t-33 185.5t-90 60.5t-90 -60.5t-33 -185.5zM784 217q0 -116 -28 -202t-79 -137.5t-116 -76t-145 -24.5t-145.5 24.5t-116.5 76t-79 137.5t-28 202t28 202t79 137.5t116.5 76t145.5 24.5t145 -24.5t116 -76t79 -137.5
t28 -202z" />
    <glyph glyph-name="uni2081" unicode="&#x2081;" horiz-adv-x="593" 
d="M240 -203v563l-205 -215v287l205 205h245v-840h-245z" />
    <glyph glyph-name="uni2082" unicode="&#x2082;" horiz-adv-x="747" 
d="M47 401q8 113 91.5 184.5t226.5 71.5q152 0 234.5 -79.5t82.5 -192.5q0 -86 -42.5 -146.5t-131.5 -134.5l-133 -112h327v-195h-655v195l297 256q50 44 71 73.5t21 63.5q0 78 -71 78q-62 0 -70 -62h-248z" />
    <glyph glyph-name="uni2083" unicode="&#x2083;" horiz-adv-x="747" 
d="M274 43q4 -35 29 -53.5t62 -18.5q92 0 92 78q0 86 -92 86h-72v184h72q32 0 51.5 18.5t19.5 55.5q0 70 -71 70q-67 0 -70 -62h-248q7 114 96.5 185t221.5 71q131 0 224 -70.5t93 -174.5q0 -59 -31.5 -104t-81.5 -70q63 -24 98 -76.5t35 -128.5q0 -113 -97.5 -184.5
t-239.5 -71.5q-138 0 -234.5 75.5t-103.5 190.5h247z" />
    <glyph glyph-name="uni2084" unicode="&#x2084;" horiz-adv-x="845" 
d="M406 637h286v-512h123v-195h-123v-133h-246v133h-419v195zM262 125h184v102q0 53 15 195h-8q-32 -65 -99 -164z" />
    <glyph glyph-name="uni2085" unicode="&#x2085;" horiz-adv-x="757" 
d="M57 145l33 492h574v-195h-342l-9 -98q52 37 125 37q127 0 202 -85t75 -212q0 -135 -90 -221t-250 -86q-139 0 -231 77.5t-105 188.5h252q4 -36 28 -58t56 -22q94 0 94 121t-90 121q-26 0 -48 -15.5t-32 -44.5h-242z" />
    <glyph glyph-name="uni2086" unicode="&#x2086;" horiz-adv-x="798" 
d="M416 657q260 0 307 -215h-246q-11 43 -61 43q-113 0 -113 -159q66 49 164 49q140 0 218.5 -83.5t78.5 -207.5q0 -133 -95.5 -220t-252.5 -87q-101 0 -174.5 33.5t-115 95t-60.5 138t-19 173.5q0 119 28.5 206.5t80 137.5t116 73t144.5 23zM416 -51q49 0 75.5 34.5
t26.5 90.5q0 135 -102 135q-103 0 -103 -135q0 -59 29 -92t74 -33z" />
    <glyph glyph-name="uni2087" unicode="&#x2087;" horiz-adv-x="688" 
d="M328 -203h-262l335 645h-372v195h635v-195z" />
    <glyph glyph-name="uni2088" unicode="&#x2088;" horiz-adv-x="794" 
d="M307 397q0 -37 24.5 -61.5t65.5 -24.5t65.5 24.5t24.5 61.5q0 39 -24.5 62.5t-65.5 23.5t-65.5 -23.5t-24.5 -62.5zM504 51q0 42 -28 72.5t-79 30.5t-78.5 -30.5t-27.5 -72.5q0 -41 27.5 -70.5t78.5 -29.5t79 29.5t28 70.5zM616 246q134 -65 134 -207
q0 -113 -97.5 -187.5t-255.5 -74.5t-255 74.5t-97 187.5q0 142 133 207q-52 22 -82 69t-30 97q0 105 88 175t243 70t243.5 -70.5t88.5 -174.5q0 -49 -30.5 -96.5t-82.5 -69.5z" />
    <glyph glyph-name="uni2089" unicode="&#x2089;" horiz-adv-x="800" 
d="M383 -223q-260 0 -307 215h246q11 -43 61 -43q113 0 113 160q-67 -50 -164 -50q-140 0 -218.5 83.5t-78.5 207.5q0 133 95.5 220t252.5 87q369 0 369 -430q0 -119 -28.5 -208t-79.5 -140.5t-116 -76.5t-145 -25zM383 485q-49 0 -75.5 -34.5t-26.5 -90.5q0 -135 102 -135
t102 135q0 59 -28.5 92t-73.5 33z" />
    <glyph glyph-name="colonmonetary" unicode="&#x20a1;" horiz-adv-x="1507" 
d="M702 -25q-50 3 -98 17l-53 -197h-246l80 287q-153 98 -234 261.5t-81 373.5q0 156 48 290t136.5 233.5t220.5 158.5t293 65l49 174h246l-55 -196q50 -9 94 -29l63 225h246l-100 -358q104 -104 151 -256h-223l-162 -584h396q-53 -182 -184.5 -305.5t-338.5 -154.5
l-51 -185h-246zM692 303q54 -16 99 -16l217 786q-28 35 -86 57zM459 717q0 -133 39 -228l176 633q-75 -29 -124 -89.5t-70 -139t-21 -176.5z" />
    <glyph glyph-name="uni20A6" unicode="&#x20a6;" horiz-adv-x="1736" 
d="M881 1047h284v387h389v-387h152v-267h-152v-127h152v-266h-152v-387h-450l-250 387h-283v-387h-389v387h-151v266h151v127h-151v267h151v387h451zM569 653h123q-14 23 -35 65t-32 62h-62zM1171 653q-4 78 -4 127h-123q56 -105 66 -127h61z" />
    <glyph glyph-name="Euro" unicode="&#x20ac;" horiz-adv-x="1503" 
d="M688 358q59 -102 178 -102q145 0 181 113h393q-29 -130 -114 -222t-202.5 -135t-257.5 -43q-445 0 -573 389h-215v287h166q-2 33 -2 72v10h-164v287h196q59 230 214 340t378 110q215 0 373 -103t201 -296h-393q-36 113 -181 113q-151 0 -207 -164h447l-113 -287h-372v-10
q0 -39 2 -72h338l-113 -287h-160z" />
    <glyph glyph-name="uni20B2" unicode="&#x20b2;" horiz-adv-x="1581" 
d="M637 -16q-261 44 -414 245.5t-153 487.5q0 284 150.5 483t416.5 248v190h287v-182q210 -25 345 -138.5t193 -293.5h-424q-19 38 -44.5 63t-69.5 41v-827q143 43 180 191h-103v327h482v-819h-307l-23 113q-79 -91 -229 -127v-191h-287v189zM459 717q0 -136 44.5 -240
t133.5 -153v782q-90 -49 -134 -151.5t-44 -237.5z" />
    <glyph glyph-name="uni20B5" unicode="&#x20b5;" horiz-adv-x="1507" 
d="M1473 440q-52 -187 -191 -311t-358 -152v-182h-287v191q-266 49 -416.5 248t-150.5 483t150.5 483t416.5 248v190h287v-182q210 -25 345 -138.5t193 -293.5h-424q-19 38 -44.5 63t-69.5 41v-823q88 35 127 135h422zM459 717q0 -135 44 -237t134 -154v780
q-90 -49 -134 -151.5t-44 -237.5z" />
    <glyph glyph-name="uni20BA" unicode="&#x20ba;" horiz-adv-x="1433" 
d="M102 1042l224 80v312h368v-177l373 136v-246l-373 -135v-103l373 135v-245l-373 -135v-336q72 2 129.5 34.5t91 83.5t51 110t17.5 120h369q0 -148 -52 -271.5t-150.5 -213.5t-248.5 -140.5t-338 -50.5h-237v528l-224 -79v245l224 80v103l-224 -80v245z" />
    <glyph glyph-name="uni20BF" unicode="&#x20bf;" horiz-adv-x="1492" 
d="M758 0h-113v-205h-276v205h-226v1434h226v204h276v-204h113v204h276v-217q153 -33 245.5 -139t92.5 -258q0 -158 -123 -266q174 -109 174 -328q0 -173 -102 -289.5t-287 -136.5v-209h-276v205zM911 328q59 0 96 29t37 94q0 122 -133 122h-379v-245h379zM870 881
q123 0 123 112q0 113 -123 113h-338v-225h338z" />
    <glyph glyph-name="uni2113" unicode="&#x2113;" horiz-adv-x="1212" 
d="M82 451q28 8 127 47q-14 104 -14 229q0 100 20.5 202t64 198.5t105 171t150.5 120t192 45.5q170 0 266.5 -87t96.5 -251q0 -206 -139.5 -384.5t-377.5 -317.5q23 -114 67 -161.5t118 -47.5q118 0 239 47l-106 -268q-73 -25 -162 -25q-343 0 -465 305q-9 -4 -182 -67v244z
M549 682q291 204 291 434q0 103 -103 103q-48 0 -85 -38.5t-59 -104t-33 -143.5t-11 -165v-86z" />
    <glyph glyph-name="uni2117" unicode="&#x2117;" horiz-adv-x="1626" 
d="M66 717q0 151 59.5 289t160 238.5t238.5 160t289 59.5t289.5 -59.5t239 -160t160 -238.5t59.5 -289t-59.5 -289.5t-160 -239t-239 -160t-289.5 -59.5t-289 59.5t-238.5 160t-160 239t-59.5 289.5zM240 717q0 -156 76.5 -288t208.5 -209t288 -77t288 77t208.5 209
t76.5 288q0 117 -45.5 223t-122 182.5t-182.5 122t-223 45.5t-223 -45.5t-182.5 -122t-122 -182.5t-45.5 -223zM741 297h-245v840h460q122 0 209.5 -85.5t87.5 -201.5q0 -117 -85.5 -202t-211.5 -85h-215v-266zM915 758q45 0 69 26t24 66t-24 66t-69 26h-174v-184h174z" />
    <glyph glyph-name="trademark" unicode="&#x2122;" horiz-adv-x="2058" 
d="M815 1239h-256v-645h-246v645h-256v195h758v-195zM1235 872q-46 70 -102 213h-9q19 -175 19 -225v-266h-246v840h287l141 -271q23 -43 53 -115.5t31 -74.5q1 2 31 74.5t53 115.5l141 271h287v-840h-246v266q0 50 19 225h-8q-54 -139 -103 -213l-174 -278z" />
    <glyph glyph-name="Omega" unicode="&#x2126;" horiz-adv-x="1531" 
d="M766 1178q-135 0 -226 -86.5t-91 -241.5q0 -144 72.5 -230.5t193.5 -117.5v-502h-604v287h348v10q-176 70 -277.5 222.5t-101.5 340.5q0 168 86 305.5t243.5 218t356.5 80.5q148 0 276.5 -47t218 -128t140.5 -192.5t51 -236.5q0 -188 -101.5 -340.5t-277.5 -222.5v-10
h348v-287h-604v502q121 31 193.5 117.5t72.5 230.5q0 155 -91 241.5t-226 86.5z" />
    <glyph glyph-name="estimated" unicode="&#x212e;" 
d="M829 1382q-264 0 -460 -186v-438h921v438q-196 186 -461 186zM1403 238q-107 -126 -255.5 -197.5t-318.5 -71.5q-151 0 -289 59.5t-238.5 160t-160 239t-59.5 289.5t59.5 289t160 238.5t238.5 160t289 59.5t289.5 -59.5t239 -160t160 -238.5t59.5 -289v-41h-1208v-438
q193 -187 460 -187q151 0 283.5 63t226.5 175z" />
    <glyph glyph-name="uni2150" unicode="&#x2150;" horiz-adv-x="1671" 
d="M238 594v563l-205 -215v287l205 205h245v-840h-245zM1038 1434h271l-799 -1434h-270zM1317 0h-262l336 645h-373v195h635v-195z" />
    <glyph glyph-name="uni2151" unicode="&#x2151;" horiz-adv-x="1751" 
d="M238 594v563l-205 -215v287l205 205h245v-840h-245zM1038 1434h271l-799 -1434h-270zM1333 -20q-260 0 -307 215h246q11 -43 61 -43q113 0 113 159q-66 -49 -164 -49q-140 0 -218.5 83.5t-78.5 207.5q0 133 95.5 220t252.5 87q369 0 369 -430q0 -232 -101.5 -341
t-267.5 -109zM1333 688q-49 0 -75.5 -34.5t-26.5 -90.5q0 -135 102 -135q103 0 103 135q0 59 -29 92t-74 33z" />
    <glyph glyph-name="uni2152" unicode="&#x2152;" horiz-adv-x="2383" 
d="M238 594v563l-205 -215v287l205 205h245v-840h-245zM1038 1434h271l-799 -1434h-270zM1192 0v563l-205 -215v287l205 205h246v-840h-246zM1845 420q0 -125 33 -185.5t90 -60.5t90 60.5t33 185.5t-33 185.5t-90 60.5t-90 -60.5t-33 -185.5zM2337 420q0 -116 -28 -202
t-79 -137.5t-116.5 -76t-145.5 -24.5t-145.5 24.5t-116.5 76t-79 137.5t-28 202t28 202t79 137.5t116.5 76t145.5 24.5t145.5 -24.5t116.5 -76t79 -137.5t28 -202z" />
    <glyph glyph-name="onethird" unicode="&#x2153;" horiz-adv-x="1697" 
d="M238 594v563l-205 -215v287l205 205h245v-840h-245zM1038 1434h271l-799 -1434h-270zM1225 246q4 -35 28.5 -53.5t61.5 -18.5q92 0 92 78q0 86 -92 86h-72v184h72q32 0 51.5 18.5t19.5 55.5q0 70 -71 70q-67 0 -70 -62h-248q7 114 96.5 185t221.5 71q131 0 224 -71
t93 -175q0 -59 -31 -104t-81 -70q63 -24 98 -76t35 -128q0 -113 -97.5 -184.5t-240.5 -71.5q-138 0 -234.5 75.5t-103.5 190.5h248z" />
    <glyph glyph-name="twothirds" unicode="&#x2154;" horiz-adv-x="1869" 
d="M47 1198q8 113 91.5 184.5t226.5 71.5q152 0 234.5 -79.5t82.5 -192.5q0 -86 -42.5 -146.5t-131.5 -134.5l-133 -113h327v-194h-655v194l297 256q50 43 71 73.5t21 64.5q0 78 -71 78q-62 0 -70 -62h-248zM1210 1434h271l-799 -1434h-270zM1397 246q4 -35 28.5 -53.5
t61.5 -18.5q92 0 92 78q0 86 -92 86h-72v184h72q32 0 52 18.5t20 55.5q0 70 -72 70q-67 0 -70 -62h-248q7 114 96.5 185t221.5 71q131 0 224 -71t93 -175q0 -59 -31 -104t-81 -70q63 -24 98 -76t35 -128q0 -113 -97.5 -184.5t-240.5 -71.5q-138 0 -234.5 75.5t-103.5 190.5
h248z" />
    <glyph glyph-name="uni2155" unicode="&#x2155;" horiz-adv-x="1708" 
d="M238 594v563l-205 -215v287l205 205h245v-840h-245zM1038 1434h271l-799 -1434h-270zM1008 348l32 492h574v-195h-342l-8 -98q52 37 125 37q127 0 201.5 -85t74.5 -212q0 -135 -90 -221t-250 -86q-139 0 -231 77.5t-105 188.5h252q4 -36 28 -58t56 -22q94 0 94 121
t-90 121q-26 0 -48 -15.5t-32 -44.5h-241z" />
    <glyph glyph-name="uni2156" unicode="&#x2156;" horiz-adv-x="1880" 
d="M47 1198q8 113 91.5 184.5t226.5 71.5q152 0 234.5 -79.5t82.5 -192.5q0 -86 -42.5 -146.5t-131.5 -134.5l-133 -113h327v-194h-655v194l297 256q50 43 71 73.5t21 64.5q0 78 -71 78q-62 0 -70 -62h-248zM1210 1434h271l-799 -1434h-270zM1180 348l32 492h574v-195h-342
l-8 -98q52 37 125 37q127 0 201.5 -85t74.5 -212q0 -135 -90 -221t-250 -86q-139 0 -231 77.5t-105 188.5h252q4 -36 28 -58t56 -22q94 0 94 121t-90 121q-26 0 -48 -15.5t-32 -44.5h-241z" />
    <glyph glyph-name="uni2157" unicode="&#x2157;" horiz-adv-x="1853" 
d="M274 840q4 -35 29 -53.5t62 -18.5q92 0 92 78q0 86 -92 86h-72v184h72q32 0 51.5 18.5t19.5 55.5q0 70 -71 70q-67 0 -70 -62h-248q7 114 96.5 185t221.5 71q131 0 224 -71t93 -175q0 -59 -31.5 -104t-81.5 -70q63 -24 98 -76.5t35 -128.5q0 -113 -97.5 -184.5
t-239.5 -71.5q-138 0 -234.5 76t-103.5 191h247zM1184 1434h270l-799 -1434h-270zM1153 348l33 492h573v-195h-342l-8 -98q52 37 125 37q127 0 201.5 -85t74.5 -212q0 -135 -90 -221t-250 -86q-139 0 -230.5 77.5t-104.5 188.5h251q4 -36 28 -58t56 -22q47 0 71 31.5
t24 89.5q0 121 -90 121q-26 0 -48 -15.5t-32 -44.5h-242z" />
    <glyph glyph-name="uni2158" unicode="&#x2158;" horiz-adv-x="1951" 
d="M406 1434h286v-512h123v-195h-123v-133h-246v133h-419v195zM262 922h184v102q0 52 15 195h-8q-32 -65 -99 -164zM1282 1434h270l-798 -1434h-271zM1251 348l33 492h574v-195h-342l-9 -98q52 37 125 37q127 0 202 -85t75 -212q0 -135 -90 -221t-250 -86q-139 0 -231 77.5
t-105 188.5h252q4 -36 28 -58t56 -22q94 0 94 121t-90 121q-26 0 -48 -15.5t-32 -44.5h-242z" />
    <glyph glyph-name="uni2159" unicode="&#x2159;" horiz-adv-x="1720" 
d="M238 594v563l-205 -215v287l205 205h245v-840h-245zM1038 1434h271l-799 -1434h-270zM1337 860q261 0 308 -215h-246q-5 19 -21 31t-41 12q-112 0 -112 -160q67 50 164 50q140 0 218.5 -83.5t78.5 -207.5q0 -133 -96 -220t-253 -87q-368 0 -368 440q0 119 28 206.5
t79.5 137.5t116 73t144.5 23zM1337 152q50 0 76.5 34t26.5 90q0 136 -103 136q-102 0 -102 -136q0 -59 28.5 -91.5t73.5 -32.5z" />
    <glyph glyph-name="uni215A" unicode="&#x215a;" horiz-adv-x="1875" 
d="M57 942l33 492h574v-195h-342l-9 -98q52 37 125 37q127 0 202 -85t75 -212q0 -135 -90 -221.5t-250 -86.5q-139 0 -231 78t-105 189h252q4 -36 28 -58t56 -22q94 0 94 121q0 120 -90 120q-60 0 -80 -59h-242zM1194 1434h270l-798 -1434h-271zM1493 860q260 0 307 -215
h-246q-11 43 -61 43q-113 0 -113 -160q67 50 164 50q140 0 218.5 -83.5t78.5 -207.5q0 -133 -95.5 -220t-252.5 -87q-101 0 -174.5 33.5t-115 95t-60.5 138t-19 173.5q0 119 28.5 206.5t80 137.5t116 73t144.5 23zM1493 152q49 0 75.5 34t26.5 90q0 136 -102 136t-102 -136
q0 -59 28.5 -91.5t73.5 -32.5z" />
    <glyph glyph-name="oneeighth" unicode="&#x215b;" horiz-adv-x="1744" 
d="M238 594v563l-205 -215v287l205 205h245v-840h-245zM1038 1434h271l-799 -1434h-270zM1257 600q0 -37 25 -61.5t66 -24.5t65.5 24.5t24.5 61.5q0 39 -24.5 62.5t-65.5 23.5t-66 -24t-25 -62zM1454 254q0 42 -27.5 72t-78.5 30t-79 -30t-28 -72q0 -41 28 -70.5t79 -29.5
t78.5 29.5t27.5 70.5zM1567 449q133 -65 133 -207q0 -113 -97 -187.5t-255 -74.5t-255.5 74.5t-97.5 187.5q0 142 133 207q-52 22 -82 69t-30 96q0 105 88.5 175.5t243.5 70.5t243 -70.5t88 -175.5q0 -49 -30 -96t-82 -69z" />
    <glyph glyph-name="threeeighths" unicode="&#x215c;" horiz-adv-x="1890" 
d="M274 840q4 -35 29 -53.5t62 -18.5q92 0 92 78q0 86 -92 86h-72v184h72q32 0 51.5 18.5t19.5 55.5q0 70 -71 70q-67 0 -70 -62h-248q7 114 96.5 185t221.5 71q131 0 224 -71t93 -175q0 -59 -31.5 -104t-81.5 -70q63 -24 98 -76.5t35 -128.5q0 -113 -97.5 -184.5
t-239.5 -71.5q-138 0 -234.5 76t-103.5 191h247zM1184 1434h270l-799 -1434h-270zM1403 600q0 -37 24.5 -61.5t65.5 -24.5t65.5 24.5t24.5 61.5q0 39 -24.5 62.5t-65.5 23.5t-65.5 -23.5t-24.5 -62.5zM1599 254q0 42 -27.5 72t-78.5 30t-79 -30t-28 -72q0 -41 28 -70.5
t79 -29.5t78.5 29.5t27.5 70.5zM1712 449q133 -65 133 -207q0 -113 -97 -187.5t-255 -74.5t-255 74.5t-97 187.5q0 142 133 207q-52 22 -82.5 69t-30.5 96q0 105 88.5 175.5t243.5 70.5t243.5 -70.5t88.5 -175.5q0 -49 -30.5 -96t-82.5 -69z" />
    <glyph glyph-name="fiveeighths" unicode="&#x215d;" horiz-adv-x="1900" 
d="M57 942l33 492h574v-195h-342l-9 -98q52 37 125 37q127 0 202 -85t75 -212q0 -135 -90 -221.5t-250 -86.5q-139 0 -231 78t-105 189h252q4 -36 28 -58t56 -22q94 0 94 121q0 120 -90 120q-60 0 -80 -59h-242zM1194 1434h270l-798 -1434h-271zM1413 600q0 -37 24.5 -61.5
t65.5 -24.5t65.5 24.5t24.5 61.5q0 39 -24.5 62.5t-65.5 23.5t-65.5 -23.5t-24.5 -62.5zM1610 254q0 42 -28 72t-79 30t-78.5 -30t-27.5 -72q0 -41 27.5 -70.5t78.5 -29.5t79 29.5t28 70.5zM1722 449q133 -65 133 -207q0 -113 -97 -187.5t-255 -74.5t-255 74.5t-97 187.5
q0 142 133 207q-52 22 -82.5 69t-30.5 96q0 105 88.5 175.5t243.5 70.5t243.5 -70.5t88.5 -175.5q0 -49 -30.5 -96t-82.5 -69z" />
    <glyph glyph-name="seveneighths" unicode="&#x215e;" horiz-adv-x="1714" 
d="M328 594h-262l335 645h-372v195h635v-195zM1008 1434h270l-799 -1434h-270zM1227 600q0 -37 24.5 -61.5t65.5 -24.5t65.5 24.5t24.5 61.5q0 39 -24.5 62.5t-65.5 23.5t-65.5 -23.5t-24.5 -62.5zM1423 254q0 42 -27.5 72t-78.5 30t-79 -30t-28 -72q0 -41 28 -70.5
t79 -29.5t78.5 29.5t27.5 70.5zM1536 449q133 -65 133 -207q0 -113 -97 -187.5t-255 -74.5t-255 74.5t-97 187.5q0 142 133 207q-52 22 -82.5 69t-30.5 96q0 105 88.5 175.5t243.5 70.5t243.5 -70.5t88.5 -175.5q0 -49 -30.5 -96t-82.5 -69z" />
    <glyph glyph-name="uni215F" unicode="&#x215f;" horiz-adv-x="950" 
d="M238 594v563l-205 -215v287l205 205h245v-840h-245zM1038 1434h271l-799 -1434h-270z" />
    <glyph glyph-name="uni2160" unicode="&#x2160;" horiz-adv-x="675" 
d="M143 0v1434h389v-1434h-389z" />
    <glyph glyph-name="uni2161" unicode="&#x2161;" horiz-adv-x="1300" 
d="M143 0v1434h389v-1434h-389zM768 0v1434h389v-1434h-389z" />
    <glyph glyph-name="uni2162" unicode="&#x2162;" horiz-adv-x="1925" 
d="M143 0v1434h389v-1434h-389zM768 0v1434h389v-1434h-389zM1393 0v1434h389v-1434h-389z" />
    <glyph glyph-name="uni2163" unicode="&#x2163;" horiz-adv-x="2019" 
d="M143 0v1434h389v-1434h-389zM1628 1434h400l-512 -1434h-379l-512 1434h399l184 -564q51 -157 115 -430h6q64 273 115 430z" />
    <glyph glyph-name="uni2164" unicode="&#x2164;" horiz-adv-x="1398" 
d="M1001 1434h400l-512 -1434h-379l-512 1434h399l185 -564q48 -147 114 -430h6q64 273 115 430z" />
    <glyph glyph-name="uni2165" unicode="&#x2165;" horiz-adv-x="2019" 
d="M997 1434h400l-512 -1434h-379l-512 1434h399l185 -564q48 -147 114 -430h6q64 273 115 430zM1487 0v1434h389v-1434h-389z" />
    <glyph glyph-name="uni2166" unicode="&#x2166;" horiz-adv-x="2639" 
d="M993 1434h400l-512 -1434h-379l-512 1434h399l184 -564q51 -157 115 -430h6q64 273 115 430zM1483 0v1434h389v-1434h-389zM2107 0v1434h390v-1434h-390z" />
    <glyph glyph-name="uni2167" unicode="&#x2167;" horiz-adv-x="3260" 
d="M989 1434h400l-512 -1434h-379l-512 1434h399l184 -564q51 -157 115 -430h6q64 273 115 430zM1479 0v1434h389v-1434h-389zM2103 0v1434h389v-1434h-389zM2728 0v1434h389v-1434h-389z" />
    <glyph glyph-name="uni2168" unicode="&#x2168;" horiz-adv-x="2076" 
d="M143 0v1434h389v-1434h-389zM1577 760l522 -760h-457l-286 434l-289 -434h-442l520 748l-469 686h457l235 -359l238 359h442z" />
    <glyph glyph-name="uni2169" unicode="&#x2169;" horiz-adv-x="1429" 
d="M930 760l522 -760h-457l-286 434l-289 -434h-443l521 748l-469 686h456l236 -359l237 359h443z" />
    <glyph glyph-name="uni216A" unicode="&#x216a;" horiz-adv-x="2076" 
d="M930 760l522 -760h-457l-286 434l-289 -434h-443l521 748l-469 686h456l236 -359l237 359h443zM1544 0v1434h389v-1434h-389z" />
    <glyph glyph-name="uni216B" unicode="&#x216b;" horiz-adv-x="2701" 
d="M930 760l522 -760h-457l-286 434l-289 -434h-443l521 748l-469 686h456l236 -359l237 359h443zM1544 0v1434h389v-1434h-389zM2169 0v1434h389v-1434h-389z" />
    <glyph glyph-name="uni216C" unicode="&#x216c;" horiz-adv-x="1247" 
d="M143 1434h389v-1106h697v-328h-1086v1434z" />
    <glyph glyph-name="uni216D" unicode="&#x216d;" horiz-adv-x="1507" 
d="M1473 440q-29 -101 -83 -184.5t-134.5 -149t-195 -101.5t-253.5 -36q-226 0 -394.5 97t-255.5 266t-87 385t87 384t255.5 265.5t394.5 97.5q257 0 424 -118t231 -322h-424q-56 123 -231 123q-90 0 -158 -33.5t-109 -93t-61 -135.5t-20 -168t20 -168t61 -135.5t109 -93
t158 -33.5q190 0 244 153h422z" />
    <glyph glyph-name="uni216E" unicode="&#x216e;" horiz-adv-x="1533" 
d="M1464 717q0 -167 -51 -302.5t-143 -226t-220.5 -139.5t-281.5 -49h-625v1434h625q153 0 281.5 -49.5t220.5 -140.5t143 -226t51 -301zM1075 717q0 389 -327 389h-216v-778h216q327 0 327 389z" />
    <glyph glyph-name="uni216F" unicode="&#x216f;" horiz-adv-x="1925" 
d="M700 469q-41 72 -76.5 151.5t-52 122.5t-57.5 158h-8q26 -290 26 -450v-451h-389v1434h471l177 -371q95 -209 172 -418q94 256 172 418l176 371h471v-1434h-389v451q0 160 26 450h-8q-41 -115 -57.5 -158t-52 -122.5t-76.5 -151.5l-262 -469z" />
    <glyph glyph-name="uni2170" unicode="&#x2170;" horiz-adv-x="589" 
d="M111 1065h368v-1065h-368v1065zM111 1434h368v-267h-368v267z" />
    <glyph glyph-name="uni2171" unicode="&#x2171;" horiz-adv-x="1132" 
d="M111 1065h368v-1065h-368v1065zM111 1434h368v-267h-368v267zM653 1065h369v-1065h-369v1065zM653 1434h369v-267h-369v267z" />
    <glyph glyph-name="uni2172" unicode="&#x2172;" horiz-adv-x="1675" 
d="M111 1065h368v-1065h-368v1065zM111 1434h368v-267h-368v267zM653 1065h369v-1065h-369v1065zM653 1434h369v-267h-369v267zM1196 1065h369v-1065h-369v1065zM1196 1434h369v-267h-369v267z" />
    <glyph glyph-name="uni2173" unicode="&#x2173;" horiz-adv-x="1716" 
d="M111 1065h368v-1065h-368v1065zM111 1434h368v-267h-368v267zM1329 1065h389l-399 -1065h-369l-399 1065h389l88 -277q43 -138 102 -389h9q59 251 102 389z" />
    <glyph glyph-name="uni2174" unicode="&#x2174;" horiz-adv-x="1175" 
d="M782 1065h389l-399 -1065h-369l-399 1065h389l88 -277q47 -151 103 -389h8q59 251 102 389z" />
    <glyph glyph-name="uni2175" unicode="&#x2175;" horiz-adv-x="1716" 
d="M778 1065h389l-399 -1065h-369l-399 1065h389l88 -277q47 -151 103 -389h8q59 251 102 389zM1237 1065h369v-1065h-369v1065zM1237 1434h369v-267h-369v267z" />
    <glyph glyph-name="uni2176" unicode="&#x2176;" horiz-adv-x="2256" 
d="M776 1065h389l-399 -1065h-369l-399 1065h389l88 -277q47 -151 103 -389h8q59 251 102 389zM1235 1065h369v-1065h-369v1065zM1235 1434h369v-267h-369v267zM1778 1065h368v-1065h-368v1065zM1778 1434h368v-267h-368v267z" />
    <glyph glyph-name="uni2177" unicode="&#x2177;" horiz-adv-x="2795" 
d="M772 1065h389l-399 -1065h-369l-399 1065h389l88 -277q43 -138 102 -389h9q59 251 102 389zM1231 1065h368v-1065h-368v1065zM1231 1434h368v-267h-368v267zM1774 1065h368v-1065h-368v1065zM1774 1434h368v-267h-368v267zM2316 1065h369v-1065h-369v1065zM2316 1434h369
v-267h-369v267z" />
    <glyph glyph-name="uni2178" unicode="&#x2178;" horiz-adv-x="1687" 
d="M111 1065h368v-1065h-368v1065zM111 1434h368v-267h-368v267zM915 551l-354 514h424l133 -213l135 213h414l-354 -506l385 -559h-424l-164 258l-166 -258h-414z" />
    <glyph glyph-name="uni2179" unicode="&#x2179;" horiz-adv-x="1146" 
d="M375 551l-355 514h424l134 -213l135 213h413l-354 -506l385 -559h-424l-164 258l-166 -258h-413z" />
    <glyph glyph-name="uni217A" unicode="&#x217a;" horiz-adv-x="1687" 
d="M375 551l-355 514h424l134 -213l135 213h413l-354 -506l385 -559h-424l-164 258l-166 -258h-413zM1208 1065h369v-1065h-369v1065zM1208 1434h369v-267h-369v267z" />
    <glyph glyph-name="uni217B" unicode="&#x217b;" horiz-adv-x="2230" 
d="M375 551l-355 514h424l134 -213l135 213h413l-354 -506l385 -559h-424l-164 258l-166 -258h-413zM1208 1065h369v-1065h-369v1065zM1208 1434h369v-267h-369v267zM1751 1065h369v-1065h-369v1065zM1751 1434h369v-267h-369v267z" />
    <glyph glyph-name="uni217C" unicode="&#x217c;" horiz-adv-x="589" 
d="M111 1434h368v-1434h-368v1434z" />
    <glyph glyph-name="uni217D" unicode="&#x217d;" horiz-adv-x="1185" 
d="M1155 328q-44 -166 -176.5 -262.5t-345.5 -96.5q-137 0 -247 43t-181 119t-108.5 178.5t-37.5 222.5q0 248 151 406t423 158q203 0 332 -90t180 -248h-395q-11 32 -41 51.5t-76 19.5q-49 0 -86.5 -18.5t-59.5 -47.5t-35.5 -69.5t-18.5 -79t-5 -82.5t5 -82.5t18.5 -79
t35.5 -69t59.5 -47t86.5 -18.5q53 0 88 26.5t47 65.5h387z" />
    <glyph glyph-name="uni217E" unicode="&#x217e;" horiz-adv-x="1349" 
d="M870 113q-114 -144 -317 -144q-116 0 -210.5 45t-155.5 122.5t-93.5 179t-32.5 216.5t32.5 217t93.5 179.5t155.5 122.5t210.5 45q203 0 317 -144v482h369v-1434h-369v113zM655 256q36 0 72.5 14t72.5 43.5t58.5 86.5t22.5 132t-22.5 132t-58.5 87t-72.5 44t-72.5 14
q-40 0 -76.5 -12.5t-71.5 -41t-56 -86t-21 -137.5t21 -137.5t56.5 -86t71.5 -40.5t76 -12z" />
    <glyph glyph-name="uni217F" unicode="&#x217f;" horiz-adv-x="2033" 
d="M838 0v604q0 93 -36.5 144t-127.5 51q-93 0 -144 -56t-51 -170v-573h-368v1065h368v-113q101 144 301 144q232 0 344 -164q51 75 143.5 119.5t225.5 44.5q92 0 170.5 -26t139.5 -77t95.5 -135t34.5 -192v-666h-368v604q0 93 -36.5 144t-127.5 51q-93 0 -144 -56t-51 -170
v-573h-368z" />
    <glyph glyph-name="uni2189" unicode="&#x2189;" horiz-adv-x="1900" 
d="M293 1014q0 -125 33 -185.5t90 -60.5t90 60.5t33 185.5t-33 185.5t-90 60.5t-90 -60.5t-33 -185.5zM784 1014q0 -226 -101 -333.5t-267 -107.5q-80 0 -145.5 25t-116.5 76t-79 137.5t-28 202.5t28 202t79 137.5t116.5 76t145.5 24.5t145 -24.5t116 -76t79 -137.5t28 -202
zM1241 1434h270l-798 -1434h-271zM1427 246q4 -35 29 -53.5t62 -18.5q92 0 92 78q0 86 -92 86h-72v184h72q32 0 51.5 18.5t19.5 55.5q0 70 -71 70q-67 0 -70 -62h-248q7 114 96.5 185t221.5 71q131 0 224 -71t93 -175q0 -59 -31.5 -104t-81.5 -70q63 -24 98 -76t35 -128
q0 -113 -97.5 -184.5t-239.5 -71.5q-138 0 -234.5 75.5t-103.5 190.5h247z" />
    <glyph glyph-name="arrowleft" unicode="&#x2190;" horiz-adv-x="1669" 
d="M573 686h973v-307h-973l431 -379h-390l-532 532l532 533h390z" />
    <glyph glyph-name="arrowup" unicode="&#x2191;" horiz-adv-x="1310" 
d="M809 973v-973h-307v973l-379 -430v389l532 532l533 -532v-389z" />
    <glyph glyph-name="arrowright" unicode="&#x2192;" horiz-adv-x="1669" 
d="M666 1065h389l532 -533l-532 -532h-389l430 379h-973v307h973z" />
    <glyph glyph-name="arrowdown" unicode="&#x2193;" horiz-adv-x="1310" 
d="M1188 891v-389l-533 -533l-532 533v389l379 -430v973h307v-973z" />
    <glyph glyph-name="uni2196" unicode="&#x2196;" horiz-adv-x="1390" 
d="M438 406l-274 274v754h754l274 -275l-571 37l688 -688l-219 -219l-689 688z" />
    <glyph glyph-name="uni2197" unicode="&#x2197;" horiz-adv-x="1390" 
d="M989 977l-688 -688l-219 219l688 688l-571 -37l274 275h754v-754l-275 -274z" />
    <glyph glyph-name="uni2198" unicode="&#x2198;" horiz-adv-x="1390" 
d="M952 1028l275 -274v-754h-754l-274 274l571 -36l-688 688l219 219l688 -688z" />
    <glyph glyph-name="uni2199" unicode="&#x2199;" horiz-adv-x="1390" 
d="M401 457l689 688l219 -219l-688 -688l571 36l-274 -274h-754v754l274 274z" />
    <glyph glyph-name="uni21A5" unicode="&#x21a5;" horiz-adv-x="1290" 
d="M113 164h1065v-164h-1065v164zM338 573v185l307 307l307 -307v-185l-221 236v-563h-172v563z" />
    <glyph glyph-name="uni21A9" unicode="&#x21a9;" horiz-adv-x="2355" 
d="M1956 905q0 92 -63.5 156.5t-155.5 64.5h-303v308h303q149 0 271.5 -68.5t193.5 -190t71 -270.5q0 -148 -71 -269t-193.5 -189t-271.5 -68h-1164l431 -379h-390l-532 532l532 533h390l-431 -379h1164q92 0 155.5 63.5t63.5 155.5z" />
    <glyph glyph-name="uni21AA" unicode="&#x21aa;" horiz-adv-x="2355" 
d="M399 905q0 -92 63.5 -155.5t155.5 -63.5h1164l-430 379h389l532 -533l-532 -532h-389l430 379h-1164q-149 0 -271.5 68t-193.5 189t-71 269q0 149 71 270.5t193.5 190t271.5 68.5h304v-308h-304q-92 0 -155.5 -64.5t-63.5 -156.5z" />
    <glyph glyph-name="partialdiff" unicode="&#x2202;" horiz-adv-x="1294" 
d="M582 246q103 0 169 86t66 211q0 77 -35.5 125.5t-117.5 48.5q-103 0 -169.5 -86t-66.5 -211q0 -33 7.5 -62t24 -55.5t48 -41.5t74.5 -15zM653 1198q-147 0 -309 -72l49 277q138 61 322 61q123 0 221 -43t161.5 -119t96.5 -178t33 -223q0 -99 -6 -184.5t-23.5 -183.5
t-46.5 -176t-78.5 -152.5t-115.5 -124.5t-161.5 -80.5t-213.5 -30.5q-125 0 -226 35.5t-165 97.5t-98 143.5t-34 174.5q0 115 39.5 219t110.5 182.5t178.5 125t235.5 46.5q145 0 231 -75q4 28 4 45q0 51 -8 89.5t-29 73.5t-63 53.5t-105 18.5z" />
    <glyph glyph-name="Delta" unicode="&#x2206;" horiz-adv-x="1335" 
d="M63 287l410 1147h389l410 -1147v-287h-1209v287zM442 287h451l-225 686z" />
    <glyph glyph-name="product" unicode="&#x220f;" horiz-adv-x="1372" 
d="M860 1147h-348v-1147h-369v1434h1086v-1434h-369v1147z" />
    <glyph glyph-name="summation" unicode="&#x2211;" horiz-adv-x="1288" 
d="M1227 -369h-1157v287l532 614l-532 615v287h1136v-287h-665l389 -471v-287l-389 -471h686v-287z" />
    <glyph glyph-name="minus" unicode="&#x2212;" horiz-adv-x="1327" 
d="M111 860h1106v-287h-1106v287z" />
    <glyph glyph-name="uni2215" unicode="&#x2215;" horiz-adv-x="348" 
d="M436 1434h271l-799 -1434h-270z" />
    <glyph glyph-name="uni2219" unicode="&#x2219;" horiz-adv-x="815" 
d="M193 717h430v-369h-430v369z" />
    <glyph glyph-name="radical" unicode="&#x221a;" horiz-adv-x="1267" 
d="M14 1065h379l41 -205q39 -211 70 -430h2q64 340 86 430l139 574h533v-287h-246l-297 -1147h-430z" />
    <glyph glyph-name="infinity" unicode="&#x221e;" horiz-adv-x="1613" 
d="M745 451q-134 -134 -296 -134q-166 0 -272.5 108t-106.5 271t106.5 271t272.5 108q163 0 296 -133l62 -61l61 61q133 133 297 133q166 0 272.5 -108t106.5 -271t-106.5 -271t-272.5 -108q-163 0 -297 134l-61 61zM1155 799q-62 0 -113 -51l-51 -52l51 -51q51 -51 113 -51
q47 0 74.5 27.5t27.5 74.5t-27.5 75t-74.5 28zM459 799q-47 0 -75 -28t-28 -75t28 -74.5t75 -27.5q61 0 112 51l52 51l-52 52q-51 51 -112 51z" />
    <glyph glyph-name="integral" unicode="&#x222b;" horiz-adv-x="1103" 
d="M629 -20q-14 -81 -43 -142t-67 -100t-89 -63.5t-104 -34t-117 -9.5h-225v287h194q47 0 63.5 12t22.5 50l189 1105q18 101 56.5 170.5t95.5 108t122 54.5t147 16h246v-287h-215q-47 0 -63.5 -12t-24.5 -50z" />
    <glyph glyph-name="approxequal" unicode="&#x2248;" horiz-adv-x="1269" 
d="M98 799q0 181 94 285t244 104q54 0 109 -18t98.5 -43.5t82.5 -51t75.5 -43.5t64.5 -18q82 0 82 112h236q0 -175 -95 -282t-243 -107q-54 0 -109 18t-98.5 43.5t-82.5 51t-75.5 43.5t-64.5 18q-82 0 -82 -112h-236zM98 307q0 181 94 285t244 104q54 0 109 -18t98.5 -43.5
t82.5 -51t75.5 -43.5t64.5 -18q82 0 82 113h236q0 -175 -95 -282t-243 -107q-54 0 -109 18t-98.5 43.5t-82.5 51t-75.5 43.5t-64.5 18q-82 0 -82 -113h-236z" />
    <glyph glyph-name="notequal" unicode="&#x2260;" horiz-adv-x="1245" 
d="M111 1106h559l75 143h308l-76 -143h158v-287h-306l-106 -205h412v-286h-562l-73 -144h-307l73 144h-155v286h305l106 205h-411v287z" />
    <glyph glyph-name="equivalence" unicode="&#x2261;" horiz-adv-x="1245" 
d="M111 860h1024v-287h-1024v287zM111 369h1024v-287h-1024v287zM111 1352h1024v-287h-1024v287z" />
    <glyph glyph-name="lessequal" unicode="&#x2264;" horiz-adv-x="1253" 
d="M1128 1290v-297l-624 -133l624 -133v-543h-1024v287h873l-873 236v307z" />
    <glyph glyph-name="greaterequal" unicode="&#x2265;" horiz-adv-x="1253" 
d="M1149 1014v-307l-873 -236h873v-287h-1024v543l625 133l-625 133v297z" />
    <glyph glyph-name="uni2295" unicode="&#x2295;" horiz-adv-x="1290" 
d="M686 573h438q-12 175 -137.5 301t-300.5 138v-439zM604 1012q-175 -12 -300.5 -138t-137.5 -301h438v439zM82 532q0 153 75.5 283t205 205.5t282.5 75.5t282.5 -75.5t205 -205.5t75.5 -283t-75.5 -282.5t-205 -205t-282.5 -75.5t-282.5 75.5t-205 205t-75.5 282.5z
M686 53q175 12 300.5 138t137.5 301h-438v-439zM604 492h-438q12 -175 137.5 -301t300.5 -138v439z" />
    <glyph glyph-name="uni2296" unicode="&#x2296;" horiz-adv-x="1290" 
d="M82 532q0 153 75.5 283t205 205.5t282.5 75.5t282.5 -75.5t205 -205.5t75.5 -283t-75.5 -282.5t-205 -205t-282.5 -75.5t-282.5 75.5t-205 205t-75.5 282.5zM645 1014q-189 0 -325.5 -127t-153.5 -314h958q-17 187 -153.5 314t-325.5 127zM645 51q189 0 325.5 127
t153.5 314h-958q17 -187 153.5 -314t325.5 -127z" />
    <glyph glyph-name="uni2297" unicode="&#x2297;" horiz-adv-x="1290" 
d="M645 1014q-173 0 -311 -113l311 -311l311 311q-138 113 -311 113zM1014 221q112 131 112 311q0 181 -112 312l-312 -312zM164 532q0 -180 112 -311l312 311l-312 312q-112 -131 -112 -312zM82 532q0 153 75.5 283t205 205.5t282.5 75.5t282.5 -75.5t205 -205.5t75.5 -283
t-75.5 -282.5t-205 -205t-282.5 -75.5t-282.5 75.5t-205 205t-75.5 282.5zM645 51q173 0 311 113l-311 311l-311 -311q138 -113 311 -113z" />
    <glyph glyph-name="uni2298" unicode="&#x2298;" horiz-adv-x="1290" 
d="M1208 532q0 -153 -75.5 -282.5t-205 -205t-282.5 -75.5t-282.5 75.5t-205 205t-75.5 282.5t75.5 283t205 205.5t282.5 75.5t282.5 -75.5t205 -205.5t75.5 -283zM645 1014q-131 0 -241.5 -64.5t-175 -175.5t-64.5 -242q0 -180 112 -311l680 680q-138 113 -311 113z
M1126 532q0 181 -112 312l-680 -680q132 -113 311 -113q131 0 241.5 64.5t175 175t64.5 241.5z" />
    <glyph glyph-name="uni22A0" unicode="&#x22a0;" horiz-adv-x="1290" 
d="M1178 1065v-1065h-1065v1065h1065zM588 532l-393 394v-787zM645 475l-393 -393h786zM252 983l393 -393l393 393h-786zM702 532l394 -393v787z" />
    <glyph glyph-name="uni2300" unicode="&#x2300;" horiz-adv-x="1290" 
d="M113 57l106 107q-137 153 -137 368q0 153 75.5 283t205 205.5t282.5 75.5q215 0 369 -138l106 107l58 -57l-107 -107q137 -153 137 -369q0 -153 -75.5 -282.5t-205 -205t-282.5 -75.5q-216 0 -369 137l-106 -106zM1126 532q0 181 -112 312l-680 -680q132 -113 311 -113
q131 0 241.5 64.5t175 175t64.5 241.5zM164 532q0 -180 112 -311l680 680q-132 113 -311 113q-131 0 -241.5 -64.5t-175 -175.5t-64.5 -242z" />
    <glyph glyph-name="uni23CF" unicode="&#x23cf;" horiz-adv-x="1290" 
d="M113 164h1065v-164h-1065v164zM1178 410h-1065l532 655z" />
    <glyph glyph-name="uni23E9" unicode="&#x23e9;" horiz-adv-x="1290" 
d="M643 532l-530 -532v1065zM1178 532l-531 -532v1065z" />
    <glyph glyph-name="uni23EA" unicode="&#x23ea;" horiz-adv-x="1290" 
d="M1178 1065v-1065l-531 532zM643 1065v-1065l-530 532z" />
    <glyph glyph-name="uni23EB" unicode="&#x23eb;" horiz-adv-x="1290" 
d="M1178 0h-1065l532 530zM1178 535h-1065l532 530z" />
    <glyph glyph-name="uni23EC" unicode="&#x23ec;" horiz-adv-x="1290" 
d="M645 535l-532 530h1065zM645 0l-532 530h1065z" />
    <glyph glyph-name="uni23ED" unicode="&#x23ed;" horiz-adv-x="1290" 
d="M559 532l-446 -532v1065zM1010 532l-447 -532v1065zM1014 0v1065h164v-1065h-164z" />
    <glyph glyph-name="uni23EE" unicode="&#x23ee;" horiz-adv-x="1290" 
d="M1178 1065v-1065l-447 532zM727 1065v-1065l-446 532zM113 0v1065h163v-1065h-163z" />
    <glyph glyph-name="uni23F8" unicode="&#x23f8;" horiz-adv-x="1290" 
d="M768 0v1065h328v-1065h-328zM195 0v1065h327v-1065h-327z" />
    <glyph glyph-name="uni23F9" unicode="&#x23f9;" horiz-adv-x="1290" 
d="M113 1065h1065v-1065h-1065v1065z" />
    <glyph glyph-name="uni23FA" unicode="&#x23fa;" horiz-adv-x="1290" 
d="M113 532q0 145 71 268t193.5 194t267.5 71q109 0 207.5 -42t170 -113.5t113.5 -170t42 -207.5q0 -145 -71 -267.5t-194 -193.5t-268 -71t-267.5 71t-193.5 193.5t-71 267.5z" />
    <glyph glyph-name="uni25A0" unicode="&#x25a0;" horiz-adv-x="1290" 
d="M113 1065h1065v-1065h-1065v1065z" />
    <glyph glyph-name="uni25A1" unicode="&#x25a1;" horiz-adv-x="1290" 
d="M113 0v1065h1065v-1065h-1065zM195 82h901v901h-901v-901z" />
    <glyph glyph-name="uni25AF" unicode="&#x25af;" horiz-adv-x="1392" 
d="M143 0v1434h1106v-1434h-1106zM225 82h942v1270h-942v-1270z" />
    <glyph glyph-name="uni25B2" unicode="&#x25b2;" horiz-adv-x="1290" 
d="M1178 0h-1065l532 1065z" />
    <glyph glyph-name="uni25B3" unicode="&#x25b3;" horiz-adv-x="1290" 
d="M1178 0h-1065l532 1065zM645 885l-401 -803h803z" />
    <glyph glyph-name="uni25B6" unicode="&#x25b6;" horiz-adv-x="1290" 
d="M1178 532l-1065 -532v1065z" />
    <glyph glyph-name="uni25B7" unicode="&#x25b7;" horiz-adv-x="1290" 
d="M113 0v1065l1065 -533zM997 532l-802 402v-803z" />
    <glyph glyph-name="uni25BC" unicode="&#x25bc;" horiz-adv-x="1290" 
d="M645 0l-532 1065h1065z" />
    <glyph glyph-name="uni25BD" unicode="&#x25bd;" horiz-adv-x="1290" 
d="M645 0l-532 1065h1065zM1047 983h-803l401 -803z" />
    <glyph glyph-name="uni25C0" unicode="&#x25c0;" horiz-adv-x="1290" 
d="M1178 1065v-1065l-1065 532z" />
    <glyph glyph-name="uni25C1" unicode="&#x25c1;" horiz-adv-x="1290" 
d="M1178 1065v-1065l-1065 532zM293 532l803 -401v803z" />
    <glyph glyph-name="uni25C6" unicode="&#x25c6;" horiz-adv-x="1290" 
d="M1208 532l-563 -563l-563 563l563 564z" />
    <glyph glyph-name="uni25C7" unicode="&#x25c7;" horiz-adv-x="1290" 
d="M82 532l563 564l563 -564l-563 -563zM645 84l449 448l-449 449l-448 -449z" />
    <glyph glyph-name="lozenge" unicode="&#x25ca;" horiz-adv-x="1257" 
d="M66 850l399 584h328l399 -584v-266l-399 -584h-328l-399 584v266zM629 1077l-215 -360l215 -361l215 361z" />
    <glyph glyph-name="uni25CB" unicode="&#x25cb;" horiz-adv-x="1290" 
d="M82 532q0 153 75.5 283t205 205.5t282.5 75.5t282.5 -75.5t205 -205.5t75.5 -283t-75.5 -282.5t-205 -205t-282.5 -75.5t-282.5 75.5t-205 205t-75.5 282.5zM164 532q0 -131 64.5 -241.5t175 -175t241.5 -64.5t241.5 64.5t175 175t64.5 241.5t-64.5 242t-175 175.5
t-241.5 64.5t-241.5 -64.5t-175 -175.5t-64.5 -242z" />
    <glyph glyph-name="uni25CC" unicode="&#x25cc;" horiz-adv-x="1290" 
d="M604 1055q0 17 12 29t29 12t29 -12t12 -29t-12 -29t-29 -12t-29 12t-12 29zM784 1024q0 17 12 29t29 12t29 -12t12 -29t-12 -29t-29 -12t-29 12t-12 29zM940 934q0 17 12 29t29 12t29 -12t12 -29t-12 -29t-29 -12t-29 12t-12 29zM1057 795q0 17 12 29t29 12t29 -12
t12 -29t-12 -29t-29 -12t-29 12t-12 29zM1118 625q0 17 12 29t29 12t29 -12t12 -29t-12 -29t-29 -12t-29 12t-12 29zM506 1024q0 -17 -12 -29t-29 -12t-29 12t-12 29t12 29t29 12t29 -12t12 -29zM350 934q0 -17 -12 -29t-29 -12t-29 12t-12 29t12 29t29 12t29 -12t12 -29z
M233 795q0 -17 -11.5 -29t-28.5 -12t-29 12t-12 29t12 29t29 12t28.5 -12t11.5 -29zM172 625q0 -17 -12 -29t-29 -12t-29 12t-12 29t12 29t29 12t29 -12t12 -29zM604 10q0 17 12 29t29 12t29 -12t12 -29t-12 -29t-29 -12t-29 12t-12 29zM784 41q0 17 12 29t29 12t29 -12
t12 -29t-12 -29t-29 -12t-29 12t-12 29zM940 131q0 17 12 29t29 12t29 -12t12 -29t-12 -29t-29 -12t-29 12t-12 29zM1057 270q0 17 12 29t29 12t29 -12t12 -29t-12 -29t-29 -12t-29 12t-12 29zM1118 440q0 17 12 29t29 12t29 -12t12 -29t-12 -29t-29 -12t-29 12t-12 29z
M506 41q0 -17 -12 -29t-29 -12t-29 12t-12 29t12 29t29 12t29 -12t12 -29zM350 131q0 -17 -12 -29t-29 -12t-29 12t-12 29t12 29t29 12t29 -12t12 -29zM233 270q0 -17 -11.5 -29t-28.5 -12t-29 12t-12 29t12 29t29 12t28.5 -12t11.5 -29zM172 440q0 -17 -12 -29t-29 -12
t-29 12t-12 29t12 29t29 12t29 -12t12 -29z" />
    <glyph glyph-name="uni25CF" unicode="&#x25cf;" horiz-adv-x="1290" 
d="M82 532q0 153 75.5 283t205 205.5t282.5 75.5t282.5 -75.5t205 -205.5t75.5 -283t-75.5 -282.5t-205 -205t-282.5 -75.5t-282.5 75.5t-205 205t-75.5 282.5z" />
    <glyph glyph-name="uni25D0" unicode="&#x25d0;" horiz-adv-x="1290" 
d="M82 532q0 153 75.5 283t205 205.5t282.5 75.5t282.5 -75.5t205 -205.5t75.5 -283t-75.5 -282.5t-205 -205t-282.5 -75.5t-282.5 75.5t-205 205t-75.5 282.5zM645 51q131 0 241.5 64.5t175 175t64.5 241.5t-64.5 242t-175 175.5t-241.5 64.5v-963z" />
    <glyph glyph-name="uni25D1" unicode="&#x25d1;" horiz-adv-x="1290" 
d="M1208 532q0 -153 -75.5 -282.5t-205 -205t-282.5 -75.5t-282.5 75.5t-205 205t-75.5 282.5t75.5 283t205 205.5t282.5 75.5t282.5 -75.5t205 -205.5t75.5 -283zM645 1014q-131 0 -241.5 -64.5t-175 -175.5t-64.5 -242t64.5 -241.5t175 -175t241.5 -64.5v963z" />
    <glyph glyph-name="uni25D2" unicode="&#x25d2;" horiz-adv-x="1290" 
d="M645 -31q-153 0 -282.5 75.5t-205 205t-75.5 282.5t75.5 283t205 205.5t282.5 75.5t282.5 -75.5t205 -205.5t75.5 -283t-75.5 -282.5t-205 -205t-282.5 -75.5zM1126 532q0 131 -64.5 242t-175 175.5t-241.5 64.5t-241.5 -64.5t-175 -175.5t-64.5 -242h962z" />
    <glyph glyph-name="uni25D3" unicode="&#x25d3;" horiz-adv-x="1290" 
d="M645 1096q153 0 282.5 -75.5t205 -205.5t75.5 -283t-75.5 -282.5t-205 -205t-282.5 -75.5t-282.5 75.5t-205 205t-75.5 282.5t75.5 283t205 205.5t282.5 75.5zM164 532q0 -131 64.5 -241.5t175 -175t241.5 -64.5t241.5 64.5t175 175t64.5 241.5h-962z" />
    <glyph glyph-name="uni25D4" unicode="&#x25d4;" horiz-adv-x="1290" 
d="M82 532q0 153 75.5 283t205 205.5t282.5 75.5t282.5 -75.5t205 -205.5t75.5 -283t-75.5 -282.5t-205 -205t-282.5 -75.5t-282.5 75.5t-205 205t-75.5 282.5zM164 532q0 -131 64.5 -241.5t175 -175t241.5 -64.5t241.5 64.5t175 175t64.5 241.5h-481v482
q-131 0 -241.5 -64.5t-175 -175.5t-64.5 -242z" />
    <glyph glyph-name="uni25D5" unicode="&#x25d5;" horiz-adv-x="1290" 
d="M82 532q0 153 75.5 283t205 205.5t282.5 75.5t282.5 -75.5t205 -205.5t75.5 -283t-75.5 -282.5t-205 -205t-282.5 -75.5t-282.5 75.5t-205 205t-75.5 282.5zM645 532v482q-131 0 -241.5 -64.5t-175 -175.5t-64.5 -242h481z" />
    <glyph glyph-name="uni25E7" unicode="&#x25e7;" horiz-adv-x="1290" 
d="M1178 0h-1065v1065h1065v-1065zM1096 82v901h-451v-901h451z" />
    <glyph glyph-name="uni25E8" unicode="&#x25e8;" horiz-adv-x="1290" 
d="M113 1065h1065v-1065h-1065v1065zM645 82v901h-450v-901h450z" />
    <glyph glyph-name="uni25E9" unicode="&#x25e9;" horiz-adv-x="1290" 
d="M113 0v1065h1065v-1065h-1065zM195 82h901v901z" />
    <glyph glyph-name="uni25EA" unicode="&#x25ea;" horiz-adv-x="1290" 
d="M113 0v1065h1065v-1065h-1065zM195 82l901 901h-901v-901z" />
    <glyph glyph-name="uni2610" unicode="&#x2610;" 
d="M113 0v1434h1433v-1434h-1433zM195 82h1269v1270h-1269v-1270z" />
    <glyph glyph-name="uni2611" unicode="&#x2611;" 
d="M113 0v1434h1433v-1434h-1433zM195 82h1269v1270h-1269v-1270zM358 522v174l308 -307l675 840v-195l-665 -829z" />
    <glyph glyph-name="uni2612" unicode="&#x2612;" 
d="M1546 1434v-1434h-1433v1434h1433zM276 221l496 496l-496 495l58 58l495 -496l496 496l57 -58l-495 -495l495 -496l-57 -57l-496 495l-495 -495zM195 82h1269v1270h-1269v-1270z" />
    <glyph glyph-name="uni2630" unicode="&#x2630;" horiz-adv-x="1290" 
d="M113 1065h1065v-164h-1065v164zM113 164h1065v-164h-1065v164zM113 614h1065v-163h-1065v163z" />
    <glyph glyph-name="uni2631" unicode="&#x2631;" horiz-adv-x="1290" 
d="M113 614h1065v-163h-1065v163zM113 164h1065v-164h-1065v164zM758 1065h420v-164h-420v164zM113 1065h419v-164h-419v164z" />
    <glyph glyph-name="uni2632" unicode="&#x2632;" horiz-adv-x="1290" 
d="M113 614h1065v-163h-1065v163zM113 1065h419v-164h-419v164zM113 164h419v-164h-419v164zM758 1065h420v-164h-420v164zM758 164h420v-164h-420v164z" />
    <glyph glyph-name="uni2633" unicode="&#x2633;" horiz-adv-x="1290" 
d="M113 164h1065v-164h-1065v164zM113 1065h419v-164h-419v164zM113 614h419v-163h-419v163zM758 614h420v-163h-420v163zM758 1065h420v-164h-420v164z" />
    <glyph glyph-name="uni2634" unicode="&#x2634;" horiz-adv-x="1290" 
d="M113 1065h1065v-164h-1065v164zM113 614h1065v-163h-1065v163zM113 164h419v-164h-419v164zM758 164h420v-164h-420v164z" />
    <glyph glyph-name="uni2635" unicode="&#x2635;" horiz-adv-x="1290" 
d="M113 614h1065v-163h-1065v163zM113 1065h419v-164h-419v164zM113 164h419v-164h-419v164zM758 1065h420v-164h-420v164zM758 164h420v-164h-420v164z" />
    <glyph glyph-name="uni2636" unicode="&#x2636;" horiz-adv-x="1290" 
d="M113 1065h1065v-164h-1065v164zM758 164h420v-164h-420v164zM113 164h419v-164h-419v164zM758 614h420v-163h-420v163zM113 614h419v-163h-419v163z" />
    <glyph glyph-name="uni2637" unicode="&#x2637;" horiz-adv-x="1290" 
d="M113 1065h419v-164h-419v164zM113 614h419v-163h-419v163zM758 1065h420v-164h-420v164zM758 614h420v-163h-420v163zM113 164h419v-164h-419v164zM758 164h420v-164h-420v164z" />
    <glyph glyph-name="uni2690" unicode="&#x2690;" horiz-adv-x="1290" 
d="M195 0h-82v1065h1065v-573h-983v-492zM195 573h901v410h-901v-410z" />
    <glyph glyph-name="uni2691" unicode="&#x2691;" horiz-adv-x="1290" 
d="M195 0h-82v1065h1065v-573h-983v-492z" />
    <glyph glyph-name="uni2713" unicode="&#x2713;" 
d="M154 510v532l481 -530l870 1280v-543l-860 -1280z" />
    <glyph glyph-name="uni2733" unicode="&#x2733;" horiz-adv-x="1290" 
d="M604 631v434h82v-434l307 307l58 -57l-308 -308h435v-81h-435l308 -308l-58 -57l-307 307v-434h-82v434l-307 -307l-57 57l307 308h-434v81h434l-307 308l57 57z" />
    <glyph glyph-name="uni2780" unicode="&#x2780;" 
d="M82 717q0 151 59.5 289t160 238.5t238.5 160t289 59.5t289.5 -59.5t239 -160t160 -238.5t59.5 -289t-59.5 -289.5t-160 -239t-239 -160t-289.5 -59.5t-289 59.5t-238.5 160t-160 239t-59.5 289.5zM164 717q0 -181 89 -334t242.5 -242.5t333.5 -89.5t333.5 89.5t243 243
t89.5 333.5t-89.5 333.5t-242.5 242.5t-334 89q-135 0 -258 -52.5t-212.5 -142t-142 -212.5t-52.5 -258zM748 297v563l-205 -215v287l205 205h245v-840h-245z" />
    <glyph glyph-name="uni2781" unicode="&#x2781;" 
d="M82 717q0 151 59.5 289t160 238.5t238.5 160t289 59.5t289.5 -59.5t239 -160t160 -238.5t59.5 -289t-59.5 -289.5t-160 -239t-239 -160t-289.5 -59.5t-289 59.5t-238.5 160t-160 239t-59.5 289.5zM164 717q0 -181 89 -334t242.5 -242.5t333.5 -89.5t333.5 89.5t243 243
t89.5 333.5t-89.5 333.5t-242.5 242.5t-334 89q-135 0 -258 -52.5t-212.5 -142t-142 -212.5t-52.5 -258zM512 901q8 113 91 184.5t226 71.5q152 0 235 -79.5t83 -192.5q0 -86 -42.5 -146.5t-131.5 -134.5l-133 -112h327v-195h-655v195l297 256q50 44 71 73.5t21 63.5
q0 78 -72 78q-61 0 -69 -62h-248z" />
    <glyph glyph-name="uni2782" unicode="&#x2782;" 
d="M82 717q0 151 59.5 289t160 238.5t238.5 160t289 59.5t289.5 -59.5t239 -160t160 -238.5t59.5 -289t-59.5 -289.5t-160 -239t-239 -160t-289.5 -59.5t-289 59.5t-238.5 160t-160 239t-59.5 289.5zM164 717q0 -181 89 -334t242.5 -242.5t333.5 -89.5t333.5 89.5t243 243
t89.5 333.5t-89.5 333.5t-242.5 242.5t-334 89q-135 0 -258 -52.5t-212.5 -142t-142 -212.5t-52.5 -258zM739 543q4 -35 28.5 -53.5t61.5 -18.5q93 0 93 78q0 86 -93 86h-71v184h71q32 0 52 18.5t20 55.5q0 70 -72 70q-66 0 -69 -62h-248q7 114 96 185t221 71
q131 0 224.5 -71t93.5 -175q0 -59 -31.5 -104t-81.5 -70q63 -24 98 -76.5t35 -128.5q0 -113 -97.5 -184.5t-240.5 -71.5q-138 0 -234 76t-103 191h247z" />
    <glyph glyph-name="uni2783" unicode="&#x2783;" 
d="M82 717q0 151 59.5 289t160 238.5t238.5 160t289 59.5t289.5 -59.5t239 -160t160 -238.5t59.5 -289t-59.5 -289.5t-160 -239t-239 -160t-289.5 -59.5t-289 59.5t-238.5 160t-160 239t-59.5 289.5zM164 717q0 -181 89 -334t242.5 -242.5t333.5 -89.5t333.5 89.5t243 243
t89.5 333.5t-89.5 333.5t-242.5 242.5t-334 89q-135 0 -258 -52.5t-212.5 -142t-142 -212.5t-52.5 -258zM768 1137h287v-512h123v-195h-123v-133h-246v133h-420v195zM625 625h184v102q0 62 14 195h-8q-35 -71 -98 -164z" />
    <glyph glyph-name="uni2784" unicode="&#x2784;" 
d="M82 717q0 151 59.5 289t160 238.5t238.5 160t289 59.5t289.5 -59.5t239 -160t160 -238.5t59.5 -289t-59.5 -289.5t-160 -239t-239 -160t-289.5 -59.5t-289 59.5t-238.5 160t-160 239t-59.5 289.5zM164 717q0 -181 89 -334t242.5 -242.5t333.5 -89.5t333.5 89.5t243 243
t89.5 333.5t-89.5 333.5t-242.5 242.5t-334 89q-135 0 -258 -52.5t-212.5 -142t-142 -212.5t-52.5 -258zM510 645l33 492h573v-195h-342l-8 -98q52 37 125 37q127 0 201.5 -85t74.5 -212q0 -135 -90 -221.5t-250 -86.5q-139 0 -230.5 78t-104.5 189h251q4 -36 28 -58t56 -22
q47 0 71 31.5t24 89.5q0 121 -91 121q-26 0 -47.5 -15t-31.5 -45h-242z" />
    <glyph glyph-name="uni2785" unicode="&#x2785;" 
d="M82 717q0 151 59.5 289t160 238.5t238.5 160t289 59.5t289.5 -59.5t239 -160t160 -238.5t59.5 -289t-59.5 -289.5t-160 -239t-239 -160t-289.5 -59.5t-289 59.5t-238.5 160t-160 239t-59.5 289.5zM164 717q0 -181 89 -334t242.5 -242.5t333.5 -89.5t333.5 89.5t243 243
t89.5 333.5t-89.5 333.5t-242.5 242.5t-334 89q-135 0 -258 -52.5t-212.5 -142t-142 -212.5t-52.5 -258zM840 1157q260 0 307 -215h-246q-11 43 -61 43q-113 0 -113 -160q66 49 164 49q140 0 218.5 -83.5t78.5 -206.5q0 -133 -95.5 -220.5t-252.5 -87.5q-101 0 -174.5 33.5
t-115 95.5t-60.5 138.5t-19 173.5q0 119 28.5 206.5t80 137.5t116 73t144.5 23zM840 449q49 0 75.5 34t26.5 90q0 136 -102 136q-103 0 -103 -136q0 -59 29 -91.5t74 -32.5z" />
    <glyph glyph-name="uni2786" unicode="&#x2786;" 
d="M82 717q0 151 59.5 289t160 238.5t238.5 160t289 59.5t289.5 -59.5t239 -160t160 -238.5t59.5 -289t-59.5 -289.5t-160 -239t-239 -160t-289.5 -59.5t-289 59.5t-238.5 160t-160 239t-59.5 289.5zM164 717q0 -181 89 -334t242.5 -242.5t333.5 -89.5t333.5 89.5t243 243
t89.5 333.5t-89.5 333.5t-242.5 242.5t-334 89q-135 0 -258 -52.5t-212.5 -142t-142 -212.5t-52.5 -258zM831 297h-262l336 645h-373v195h635v-195z" />
    <glyph glyph-name="uni2787" unicode="&#x2787;" 
d="M82 717q0 151 59.5 289t160 238.5t238.5 160t289 59.5t289.5 -59.5t239 -160t160 -238.5t59.5 -289t-59.5 -289.5t-160 -239t-239 -160t-289.5 -59.5t-289 59.5t-238.5 160t-160 239t-59.5 289.5zM164 717q0 -181 89 -334t242.5 -242.5t333.5 -89.5t333.5 89.5t243 243
t89.5 333.5t-89.5 333.5t-242.5 242.5t-334 89q-135 0 -258 -52.5t-212.5 -142t-142 -212.5t-52.5 -258zM739 897q0 -37 24.5 -61.5t65.5 -24.5t66 24.5t25 61.5q0 38 -25 62t-66 24t-65.5 -23.5t-24.5 -62.5zM936 551q0 42 -28 72t-79 30t-78.5 -30t-27.5 -72
q0 -41 27.5 -70.5t78.5 -29.5t79 29.5t28 70.5zM1049 745q133 -65 133 -206q0 -113 -97.5 -188t-255.5 -75t-255 75t-97 188q0 141 133 206q-52 22 -82 69t-30 97q0 105 88 175.5t243 70.5t243.5 -70.5t88.5 -175.5q0 -50 -30 -97t-82 -69z" />
    <glyph glyph-name="uni2788" unicode="&#x2788;" 
d="M82 717q0 151 59.5 289t160 238.5t238.5 160t289 59.5t289.5 -59.5t239 -160t160 -238.5t59.5 -289t-59.5 -289.5t-160 -239t-239 -160t-289.5 -59.5t-289 59.5t-238.5 160t-160 239t-59.5 289.5zM164 717q0 -181 89 -334t242.5 -242.5t333.5 -89.5t333.5 89.5t243 243
t89.5 333.5t-89.5 333.5t-242.5 242.5t-334 89q-135 0 -258 -52.5t-212.5 -142t-142 -212.5t-52.5 -258zM819 276q-260 0 -307 216h246q11 -43 61 -43q113 0 113 159q-66 -49 -164 -49q-140 0 -218.5 83.5t-78.5 207.5q0 133 95.5 220t252.5 87q369 0 369 -430
q0 -119 -28.5 -208t-79.5 -141t-116 -77t-145 -25zM819 985q-49 0 -75.5 -34.5t-26.5 -90.5q0 -135 102 -135q103 0 103 135q0 59 -29 92t-74 33z" />
    <glyph glyph-name="uni278A" unicode="&#x278a;" 
d="M82 717q0 151 59.5 289t160 238.5t238.5 160t289 59.5t289.5 -59.5t239 -160t160 -238.5t59.5 -289t-59.5 -289.5t-160 -239t-239 -160t-289.5 -59.5t-289 59.5t-238.5 160t-160 239t-59.5 289.5zM993 297v840h-245l-205 -205v-287l205 215v-563h245z" />
    <glyph glyph-name="uni278B" unicode="&#x278b;" 
d="M82 717q0 151 59.5 289t160 238.5t238.5 160t289 59.5t289.5 -59.5t239 -160t160 -238.5t59.5 -289t-59.5 -289.5t-160 -239t-239 -160t-289.5 -59.5t-289 59.5t-238.5 160t-160 239t-59.5 289.5zM760 901q8 62 69 62q72 0 72 -78q0 -34 -21 -63.5t-71 -73.5l-297 -256
v-195h655v195h-327l133 112q89 74 131.5 134.5t42.5 146.5q0 113 -83 192.5t-235 79.5q-143 0 -226 -71.5t-91 -184.5h248z" />
    <glyph glyph-name="uni278C" unicode="&#x278c;" 
d="M82 717q0 151 59.5 289t160 238.5t238.5 160t289 59.5t289.5 -59.5t239 -160t160 -238.5t59.5 -289t-59.5 -289.5t-160 -239t-239 -160t-289.5 -59.5t-289 59.5t-238.5 160t-160 239t-59.5 289.5zM492 543q7 -115 103 -191t234 -76q143 0 240.5 71.5t97.5 184.5
q0 76 -35 128.5t-98 76.5q50 25 81.5 70t31.5 104q0 104 -93.5 175t-224.5 71q-132 0 -221 -71t-96 -185h248q3 62 69 62q72 0 72 -70q0 -37 -20 -55.5t-52 -18.5h-71v-184h71q93 0 93 -86q0 -78 -93 -78q-37 0 -61.5 18.5t-28.5 53.5h-247z" />
    <glyph glyph-name="uni278D" unicode="&#x278d;" 
d="M82 717q0 151 59.5 289t160 238.5t238.5 160t289 59.5t289.5 -59.5t239 -160t160 -238.5t59.5 -289t-59.5 -289.5t-160 -239t-239 -160t-289.5 -59.5t-289 59.5t-238.5 160t-160 239t-59.5 289.5zM389 625v-195h420v-133h246v133h123v195h-123v512h-287zM717 758
q63 93 98 164h8q-14 -133 -14 -195v-102h-184z" />
    <glyph glyph-name="uni278E" unicode="&#x278e;" 
d="M82 717q0 151 59.5 289t160 238.5t238.5 160t289 59.5t289.5 -59.5t239 -160t160 -238.5t59.5 -289t-59.5 -289.5t-160 -239t-239 -160t-289.5 -59.5t-289 59.5t-238.5 160t-160 239t-59.5 289.5zM752 645q10 30 31.5 45t47.5 15q91 0 91 -121q0 -58 -24 -89.5t-71 -31.5
q-32 0 -56 22t-28 58h-251q13 -111 104.5 -189t230.5 -78q160 0 250 86.5t90 221.5q0 127 -74.5 212t-201.5 85q-73 0 -125 -37l8 98h342v195h-573l-33 -492h242z" />
    <glyph glyph-name="uni278F" unicode="&#x278f;" 
d="M82 717q0 151 59.5 289t160 238.5t238.5 160t289 59.5t289.5 -59.5t239 -160t160 -238.5t59.5 -289t-59.5 -289.5t-160 -239t-239 -160t-289.5 -59.5t-289 59.5t-238.5 160t-160 239t-59.5 289.5zM840 1157q-80 0 -144.5 -23t-116 -73t-80 -137.5t-28.5 -206.5
q0 -97 19 -173.5t60.5 -138.5t115 -95.5t174.5 -33.5q157 0 252.5 87.5t95.5 220.5q0 123 -78.5 206.5t-218.5 83.5q-98 0 -164 -49q0 160 113 160q50 0 61 -43h246q-47 215 -307 215zM840 449q-45 0 -74 32.5t-29 91.5q0 136 103 136q102 0 102 -136q0 -56 -26.5 -90
t-75.5 -34z" />
    <glyph glyph-name="uni2790" unicode="&#x2790;" 
d="M82 717q0 151 59.5 289t160 238.5t238.5 160t289 59.5t289.5 -59.5t239 -160t160 -238.5t59.5 -289t-59.5 -289.5t-160 -239t-239 -160t-289.5 -59.5t-289 59.5t-238.5 160t-160 239t-59.5 289.5zM1167 942v195h-635v-195h373l-336 -645h262z" />
    </font>
</defs>
</svg>
