<?xml version="1.0" standalone="no"?>
<!DOCTYPE svg PUBLIC "-//W3C//DTD SVG 1.1//EN" "http://www.w3.org/Graphics/SVG/1.1/DTD/svg11.dtd" >
<svg xmlns="http://www.w3.org/2000/svg" xmlns:xlink="http://www.w3.org/1999/xlink" version="1.1">
<metadata>
Created by FontForge 20170731 at Mon Jul 25 17:59:12 2022
 By Aleksey,,,
(c) 2011-2017, Copyright by Lineto GmbH. All rights reserved.
</metadata>
<defs>
<font id="RiformaLL-BoldItalic" horiz-adv-x="1290" >
  <font-face 
    font-family="Riforma LL"
    font-weight="700"
    font-style="italic"
    font-stretch="normal"
    units-per-em="2048"
    panose-1="2 11 8 4 2 1 1 2 1 2"
    ascent="1495"
    descent="-553"
    x-height="1065"
    cap-height="1434"
    bbox="-985 -543 3164 2038"
    underline-thickness="81"
    underline-position="-285"
    slope="-12"
    unicode-range="U+000D-1F310"
  />
<missing-glyph horiz-adv-x="1392" 
d="M35 0l305 1434h1090l-306 -1434h-1089zM139 82h918l268 1270h-917z" />
    <glyph glyph-name="f_f" unicode="ff" horiz-adv-x="1619" 
d="M135 1065h256l21 96q32 153 125.5 213t259.5 60h237l-51 -236h-176q-71 0 -86 -72l-12 -61h391l20 96q32 153 125.5 213t259.5 60h289l-51 -236h-227q-71 0 -86 -72l-13 -61h297l-53 -246h-297l-174 -819h-318l175 819h-392l-174 -819h-317l174 819h-256z" />
    <glyph glyph-name="f_f_i" unicode="ffi" horiz-adv-x="2136" 
d="M1364 819l-174 -819h-318l175 819h-392l-174 -819h-317l174 819h-256l53 246h256l21 96q32 153 125.5 213t259.5 60h237l-51 -236h-176q-71 0 -86 -72l-12 -61h391l20 96q32 153 125.5 213t259.5 60h238l-51 -236h-176q-71 0 -86 -72l-13 -61h709l-228 -1065h-317
l174 819h-391zM1886 1434h318l-54 -246h-317z" />
    <glyph glyph-name="f_f_l" unicode="ffl" horiz-adv-x="2136" 
d="M1364 819l-174 -819h-318l175 819h-392l-174 -819h-317l174 819h-256l53 246h256l21 96q32 153 125.5 213t259.5 60h237l-51 -236h-176q-71 0 -86 -72l-12 -61h391l20 96q32 153 125.5 213t259.5 60h238l-51 -236h-176q-71 0 -86 -72l-13 -61h391l78 369h318l-306 -1434
h-317l174 819h-391z" />
    <glyph glyph-name="f_i" unicode="fi" horiz-adv-x="1427" 
d="M655 819l-174 -819h-317l174 819h-256l53 246h256l21 96q32 153 125.5 213t259.5 60h237l-51 -236h-176q-71 0 -86 -72l-12 -61h708l-227 -1065h-318l175 819h-392zM1178 1434h317l-53 -246h-318z" />
    <glyph glyph-name="f_l" unicode="fl" horiz-adv-x="1427" 
d="M1178 1434h317l-305 -1434h-318l175 819h-392l-174 -819h-317l174 819h-256l53 246h256l21 96q32 153 125.5 213t259.5 60h237l-51 -236h-176q-71 0 -86 -72l-12 -61h391z" />
    <glyph glyph-name=".notdef" horiz-adv-x="1392" 
d="M35 0l305 1434h1090l-306 -1434h-1089zM139 82h918l268 1270h-917z" />
    <glyph glyph-name=".null" horiz-adv-x="0" 
 />
    <glyph glyph-name="nonmarkingreturn" horiz-adv-x="682" 
 />
    <glyph glyph-name="CR" unicode="&#xd;" horiz-adv-x="458" 
 />
    <glyph glyph-name="space" unicode=" " horiz-adv-x="458" 
 />
    <glyph glyph-name="exclam" unicode="!" horiz-adv-x="618" 
d="M80 338h375l-72 -338h-375zM406 492h-211l32 440l107 502h334l-107 -502z" />
    <glyph glyph-name="quotedbl" unicode="&#x22;" horiz-adv-x="958" 
d="M311 1434h314l-88 -420l-381 -316zM758 1434h313l-88 -420l-381 -316z" />
    <glyph glyph-name="numbersign" unicode="#" horiz-adv-x="1767" 
d="M864 348h-223l-160 -348h-321l159 348h-294l114 246h295l113 246h-295l115 245h295l161 349h322l-162 -349h223l162 349h322l-162 -349h295l-115 -245h-295l-113 -246h295l-114 -246h-295l-160 -348h-321zM756 594h223l113 246h-224z" />
    <glyph glyph-name="dollar" unicode="$" horiz-adv-x="1325" 
d="M915 426q0 32 -12.5 56t-33 40t-58 28.5t-74.5 20.5t-96 17q-92 15 -170 47t-140.5 81.5t-98 122.5t-35.5 162q0 179 135.5 307t398.5 152l37 178h252l-39 -184q171 -28 255.5 -117t84.5 -213q0 -21 -4 -49h-318q2 23 2 37q0 117 -194 117q-145 0 -214 -57.5t-69 -135.5
q0 -31 12 -56t41.5 -48t85 -39.5t136.5 -26.5q219 -25 329.5 -129.5t110.5 -265.5q0 -203 -143.5 -338.5t-429.5 -159.5l-37 -178h-252l39 185q-193 28 -288 124t-95 230q0 27 4 55h313q-2 -18 -2 -31q0 -80 55 -116.5t187 -36.5q168 0 246.5 62.5t78.5 158.5z" />
    <glyph glyph-name="percent" unicode="%" horiz-adv-x="2043" 
d="M369 911q0 -163 112 -163q90 0 147.5 110t57.5 258q0 164 -113 164q-90 0 -147 -110.5t-57 -258.5zM152 911q0 112 25.5 204t68 154t99.5 104.5t118.5 61.5t126.5 19q148 0 230.5 -86.5t82.5 -251.5q0 -112 -25.5 -204t-68 -154t-99.5 -104.5t-118.5 -61.5t-126.5 -19
q-148 0 -230.5 86.5t-82.5 251.5zM1487 1434h248l-1104 -1434h-248zM1438 317q0 -163 112 -163q90 0 147.5 110t57.5 258q0 164 -113 164q-90 0 -147 -110.5t-57 -258.5zM1221 317q0 112 25.5 204t68 154t99.5 104.5t118.5 61.5t126.5 19q148 0 230.5 -86.5t82.5 -251.5
q0 -112 -25.5 -204t-68 -153.5t-99.5 -104t-118.5 -61.5t-126.5 -19q-149 0 -231 86t-82 251z" />
    <glyph glyph-name="ampersand" unicode="&#x26;" horiz-adv-x="1576" 
d="M1202 1167q0 -54 -16.5 -106t-53.5 -107t-105 -107.5t-163 -96.5l172 -220l193 207h373l-394 -424l246 -313h-373l-92 117q-112 -73 -220.5 -110.5t-242.5 -37.5q-110 0 -203 33t-154 88.5t-94.5 128.5t-33.5 154q0 47 5 85t27 95t60.5 103t113 96.5t177.5 87.5
q-34 46 -58 108t-24 123q0 168 132.5 280.5t359.5 112.5q90 0 162.5 -27t116 -71t66.5 -95.5t23 -103.5zM559 215q80 0 141 25t129 82l-249 319q-134 -55 -181 -111.5t-47 -146.5q0 -72 51 -120t156 -48zM643 1104q0 -80 78 -172q60 27 101 59.5t58 63.5t23 52t6 40
q0 82 -104 82q-70 0 -116 -34.5t-46 -90.5z" />
    <glyph glyph-name="quotesingle" unicode="'" horiz-adv-x="512" 
d="M311 1434h314l-88 -420l-381 -316z" />
    <glyph glyph-name="parenleft" unicode="(" horiz-adv-x="694" 
d="M383 379q0 -124 7.5 -213t29.5 -258l35 -277h-252l-66 277q-82 346 -82 471q0 79 6 141.5t26 127.5t39.5 113t64.5 123t83 131.5t111 162.5l178 256h275l-187 -322q-68 -117 -103.5 -182t-73 -144t-54 -136t-27 -125.5t-10.5 -145.5z" />
    <glyph glyph-name="parenright" unicode=")" horiz-adv-x="694" 
d="M311 686q0 123 -7.5 211.5t-29.5 259.5l-34 277h252l65 -277q82 -346 82 -471q0 -79 -6 -141.5t-26 -127.5t-39.5 -113t-64.5 -123t-83 -131.5t-111 -162.5l-178 -256h-274l186 322q70 122 102.5 182.5t72 142.5t55.5 137.5t27 124.5t11 146z" />
    <glyph glyph-name="asterisk" unicode="*" horiz-adv-x="1001" 
d="M555 1112v322h82v-322l227 227l58 -57l-228 -227h322v-82h-322l228 -228l-58 -57l-227 227v-321h-82v321l-227 -227l-58 57l228 228h-322v82h322l-228 227l58 57z" />
    <glyph glyph-name="plus" unicode="+" horiz-adv-x="1220" 
d="M131 840h420l86 409h252l-86 -409h420l-54 -246h-419l-88 -410h-252l88 410h-420z" />
    <glyph glyph-name="comma" unicode="," horiz-adv-x="595" 
d="M82 338h375l-72 -338l-276 -338h-160l205 338h-144z" />
    <glyph glyph-name="hyphen" unicode="-" horiz-adv-x="905" 
d="M143 655h676l-53 -245h-676z" />
    <glyph glyph-name="period" unicode="." horiz-adv-x="595" 
d="M82 338h375l-72 -338h-375z" />
    <glyph glyph-name="slash" unicode="/" horiz-adv-x="1298" 
d="M1073 1434h365l-1135 -1434h-364z" />
    <glyph glyph-name="zero" unicode="0" horiz-adv-x="1351" 
d="M598 246q67 0 126 33t102 89.5t77 128.5t54.5 153t31 160t10.5 153q0 70 -13.5 117t-39 69t-51.5 30.5t-61 8.5q-80 0 -148.5 -47t-114 -122.5t-78 -171t-47 -191.5t-14.5 -185q0 -70 13.5 -117t39 -69t52 -30.5t61.5 -8.5zM844 1464q107 0 194 -28t153 -85.5t102 -153.5
t36 -224q0 -93 -12 -188t-39.5 -194.5t-67.5 -189t-100.5 -169.5t-135 -138t-173.5 -91.5t-213 -33.5q-107 0 -194 28t-153 86t-102.5 154t-36.5 224q0 132 24 266t80.5 268t139.5 237t212 167.5t286 64.5z" />
    <glyph glyph-name="one" unicode="1" horiz-adv-x="894" 
d="M446 735q22 99 80 303h-8q-123 -123 -242 -225l-184 -158l94 441l410 338h334l-305 -1434h-334z" />
    <glyph glyph-name="two" unicode="2" horiz-adv-x="1216" 
d="M190 1044q51 189 204.5 304.5t371.5 115.5q108 0 195 -32t142 -86.5t84.5 -124t29.5 -146.5q0 -146 -75 -257.5t-268 -254.5l-382 -287h585l-59 -276h-1045l60 276l649 502q121 94 161 155.5t40 131.5q0 61 -34 102t-108 41q-73 0 -128.5 -43.5t-75.5 -120.5h-347z" />
    <glyph glyph-name="three" unicode="3" horiz-adv-x="1226" 
d="M547 891h112q99 0 157 52t58 138q0 61 -38 94t-109 33q-72 0 -119.5 -38t-68.5 -95h-346q26 76 73 143.5t116 123.5t167.5 89t212.5 33q104 0 190 -32.5t140 -86t83 -118.5t29 -133q0 -111 -61.5 -199t-177.5 -137q77 -36 119 -112.5t42 -170.5q0 -107 -42.5 -199.5
t-121.5 -160.5t-199 -107t-267 -39q-124 0 -219.5 31.5t-152.5 85t-85.5 119t-28.5 139.5q0 27 2 45h322q-2 -16 -2 -24q0 -140 186 -140q76 0 132.5 24t86.5 62.5t44 80t14 83.5q0 72 -43.5 116t-135.5 44h-122z" />
    <glyph glyph-name="four" unicode="4" horiz-adv-x="1341" 
d="M874 1434h390l-193 -912h205l-59 -276h-205l-54 -246h-333l53 246h-701l60 276zM735 522l25 111q43 194 106 432h-8q-2 -3 -20 -27.5t-21.5 -29.5t-21 -28.5t-25 -32.5t-26 -33.5t-32 -40t-36 -42t-43.5 -50t-49 -54t-58 -63.5l-129 -142h338z" />
    <glyph glyph-name="five" unicode="5" horiz-adv-x="1255" 
d="M113 604l229 830h932l-57 -267h-629l-66 -239q107 76 260 76q98 0 175 -34t125 -93.5t73 -137t25 -168.5q0 -267 -180.5 -434.5t-487.5 -167.5q-206 0 -334.5 108.5t-128.5 280.5q0 17 2 31h326q-2 -16 -2 -22q0 -57 42.5 -94t141.5 -37q135 0 213 89.5t78 243.5
q0 179 -172 179q-161 0 -246 -144h-319z" />
    <glyph glyph-name="six" unicode="6" horiz-adv-x="1306" 
d="M825 1464q209 0 339 -95t130 -253h-327q0 48 -37 75.5t-105 27.5q-99 0 -183.5 -80.5t-133.5 -255.5q122 100 297 100q190 0 310 -105t120 -270q0 -96 -26.5 -189t-79 -174t-125.5 -143t-172 -97.5t-211 -35.5q-122 0 -213 29.5t-146.5 78.5t-89.5 122t-46.5 149.5
t-12.5 171.5q0 216 57 395.5t154.5 298.5t226.5 184.5t274 65.5zM621 215q79 0 145 53.5t100.5 132t34.5 158.5q0 83 -43.5 130.5t-124.5 47.5q-95 0 -175.5 -69t-104.5 -187q-9 -34 -9 -73q0 -88 47 -140.5t130 -52.5z" />
    <glyph glyph-name="seven" unicode="7" horiz-adv-x="1126" 
d="M354 0h-372l860 1157h-672l59 277h1045l-60 -277z" />
    <glyph glyph-name="eight" unicode="8" horiz-adv-x="1298" 
d="M551 -31q-222 0 -361 112.5t-139 278.5q0 141 85 254.5t237 169.5q-61 30 -96 95.5t-35 144.5q0 129 78 230t211 155.5t296 54.5q199 0 326 -102t127 -252q0 -120 -69 -214.5t-183 -143.5q83 -36 126.5 -112.5t43.5 -174.5q0 -221 -179.5 -358.5t-467.5 -137.5zM377 391
q0 -75 54.5 -120.5t152.5 -45.5q133 0 214 68.5t81 175.5q0 75 -54.5 120.5t-152.5 45.5q-132 0 -213.5 -68.5t-81.5 -175.5zM551 1014q0 -65 47.5 -99t124.5 -34q103 0 174.5 51.5t71.5 144.5q0 131 -176 131q-110 0 -176 -49.5t-66 -144.5z" />
    <glyph glyph-name="nine" unicode="9" horiz-adv-x="1306" 
d="M569 -31q-209 0 -339 95t-130 253h328q0 -48 36.5 -75t104.5 -27q96 0 177.5 80t130.5 256q-122 -100 -297 -100q-189 0 -309.5 109.5t-120.5 275.5q0 120 44 232.5t122.5 201t197.5 141.5t260 53q118 0 207 -29.5t144 -78.5t88.5 -122t46 -149.5t12.5 -171.5
q0 -216 -55.5 -395.5t-151 -298.5t-223.5 -184.5t-273 -65.5zM764 1219q-79 0 -145.5 -53.5t-101 -132.5t-34.5 -159q0 -83 43.5 -130.5t124.5 -47.5q96 0 176.5 69t104.5 187q8 31 8 74q0 88 -46.5 140.5t-129.5 52.5z" />
    <glyph glyph-name="colon" unicode=":" horiz-adv-x="606" 
d="M78 338h375l-72 -338h-375zM229 1065h375l-72 -338h-374z" />
    <glyph glyph-name="semicolon" unicode=";" horiz-adv-x="606" 
d="M229 1065h375l-72 -338h-374zM78 338h375l-72 -338l-277 -338h-159l205 338h-144z" />
    <glyph glyph-name="less" unicode="&#x3c;" horiz-adv-x="1173" 
d="M1202 1270l-59 -281l-748 -287l625 -286l-53 -252l-891 430l53 246z" />
    <glyph glyph-name="equal" unicode="=" horiz-adv-x="1234" 
d="M238 1075h989l-51 -246h-990zM139 604h989l-53 -246h-989z" />
    <glyph glyph-name="greater" unicode="&#x3e;" horiz-adv-x="1173" 
d="M1178 840l-52 -246l-1075 -430l60 280l745 287l-625 287l56 252z" />
    <glyph glyph-name="question" unicode="?" horiz-adv-x="1107" 
d="M281 338h374l-71 -338h-375zM172 1075q42 171 192.5 280t354.5 109q102 0 184 -28t134 -76.5t80 -111.5t28 -134q0 -83 -25 -147.5t-66 -106t-91 -75t-102.5 -62t-98 -58.5t-80 -74t-45.5 -99h-272q18 85 53 151.5t75.5 106.5t86 72t87 57.5t75 53.5t53.5 68t20 93
q0 104 -131 104q-57 0 -104 -32t-66 -91h-342z" />
    <glyph glyph-name="at" unicode="@" horiz-adv-x="1933" 
d="M913 297q114 0 182 83.5t68 213.5q0 81 -38.5 127.5t-110.5 46.5q-108 0 -181 -81.5t-73 -215.5q0 -85 40 -129.5t113 -44.5zM788 -338q-208 0 -375.5 98.5t-259.5 265.5t-92 369q0 166 55.5 321t155.5 278.5t232 216t292.5 142.5t329.5 50q213 0 384 -92.5t265.5 -254
t94.5 -360.5q0 -154 -39.5 -273.5t-105.5 -189.5t-146 -105.5t-168 -35.5q-89 0 -145.5 35t-77.5 98q-54 -62 -142.5 -102.5t-199.5 -40.5q-151 0 -254 109.5t-103 269.5q0 150 72 271.5t185 186t241 64.5q85 0 148 -32t92 -74l18 75h271l-113 -532q-8 -36 -8 -55
q0 -58 53 -58q63 0 108 61t64.5 143.5t19.5 170.5q0 230 -146 373t-390 143q-159 0 -309 -64t-260 -170t-177 -251.5t-67 -300.5q0 -234 145.5 -389.5t384.5 -155.5q148 0 287 45l-45 -205q-56 -19 -135 -32t-140 -13z" />
    <glyph glyph-name="A" unicode="A" horiz-adv-x="1474" 
d="M1004 287h-594l-174 -287h-361l889 1434h332l278 -1434h-319zM575 563h377l-28 164q-28 152 -43 358h-9q-89 -181 -196 -358z" />
    <glyph glyph-name="B" unicode="B" horiz-adv-x="1490" 
d="M45 0l305 1434h711q191 0 298 -98t107 -251q0 -116 -55.5 -206t-155.5 -142q72 -41 103 -103.5t31 -152.5q0 -216 -146 -348.5t-385 -132.5h-813zM856 276q57 0 99 18.5t64 49t32 63.5t10 70q0 57 -34.5 92t-100.5 35h-418l-70 -328h418zM950 870q86 0 134.5 48.5
t48.5 130.5q0 108 -121 108h-387l-62 -287h387z" />
    <glyph glyph-name="C" unicode="C" horiz-adv-x="1486" 
d="M1200 1044q-26 75 -88 112.5t-174 37.5q-139 0 -255.5 -84t-180.5 -219t-64 -287q0 -176 79.5 -270t256.5 -94q204 0 295 180h354q-74 -203 -238.5 -327t-410.5 -124q-167 0 -295 46t-208.5 130.5t-121 200t-40.5 258.5q0 127 36 252t108 234.5t170 193t231.5 132
t283.5 48.5q501 0 602 -420h-340z" />
    <glyph glyph-name="D" unicode="D" horiz-adv-x="1538" 
d="M1503 840q0 -260 -106.5 -451t-298 -290t-445.5 -99h-608l305 1434h557q277 0 436.5 -164.5t159.5 -429.5zM1171 838q0 159 -80 239t-233 80h-233l-187 -881h234q235 0 367 149t132 413z" />
    <glyph glyph-name="E" unicode="E" horiz-adv-x="1351" 
d="M350 1434h1090l-60 -277h-755l-62 -287h715l-57 -276h-715l-68 -318h756l-59 -276h-1090z" />
    <glyph glyph-name="F" unicode="F" horiz-adv-x="1323" 
d="M350 1434h1090l-60 -277h-755l-66 -307h715l-57 -277h-715l-123 -573h-334z" />
    <glyph glyph-name="G" unicode="G" horiz-adv-x="1581" 
d="M743 -31q-156 0 -277.5 46t-199 130.5t-117.5 200t-40 258.5q0 127 36 252t108 234.5t170 193t231.5 132t283.5 48.5q501 0 602 -420h-338q-27 75 -89.5 112.5t-174.5 37.5q-139 0 -255.5 -84t-180.5 -219t-64 -287q0 -176 79.5 -270t256.5 -94q144 0 240.5 74t140.5 208
h-311l57 277h635l-170 -799h-258v76q-138 -107 -365 -107z" />
    <glyph glyph-name="H" unicode="H" horiz-adv-x="1613" 
d="M1343 0h-333l127 594h-631l-127 -594h-334l305 1434h334l-121 -564h631l121 564h334z" />
    <glyph glyph-name="I" unicode="I" horiz-adv-x="649" 
d="M45 0l305 1434h334l-305 -1434h-334z" />
    <glyph glyph-name="J" unicode="J" horiz-adv-x="1052" 
d="M303 276q214 0 264 236l197 922h334l-205 -963q-55 -252 -208 -361.5t-404 -109.5h-349l60 276h311z" />
    <glyph glyph-name="K" unicode="K" horiz-adv-x="1476" 
d="M510 641l-137 -641h-328l305 1434h328l-117 -547l643 547h457l-844 -697l580 -737h-406z" />
    <glyph glyph-name="L" unicode="L" horiz-adv-x="1222" 
d="M350 1434h334l-246 -1158h715l-59 -276h-1049z" />
    <glyph glyph-name="M" unicode="M" horiz-adv-x="1904" 
d="M662 541q-64 202 -97 391h-8q-42 -280 -68 -410l-110 -522h-334l305 1434h350l142 -453q38 -117 100 -387q17 25 51.5 78t51 78.5t45 67.5t56 80.5t60.5 82.5l334 453h399l-305 -1434h-334l111 522q34 167 109 410h-9q-148 -236 -264 -391l-407 -541z" />
    <glyph glyph-name="N" unicode="N" horiz-adv-x="1638" 
d="M770 547q-136 276 -192 426h-9q-24 -196 -80 -451l-110 -522h-334l305 1434h332l266 -547q127 -263 193 -426h8q24 193 80 450l110 523h334l-305 -1434h-334z" />
    <glyph glyph-name="O" unicode="O" horiz-adv-x="1632" 
d="M438 604q0 -358 336 -358q136 0 252 82t182 216t66 285q0 359 -336 359q-136 0 -252 -82t-182 -216.5t-66 -285.5zM109 604q0 127 37 252t109.5 234t171.5 193t231.5 132.5t279.5 48.5q323 0 494.5 -172t171.5 -463q0 -127 -37 -252t-110 -234t-171.5 -193t-231.5 -132.5
t-280 -48.5q-323 0 -494 172t-171 463z" />
    <glyph glyph-name="P" unicode="P" horiz-adv-x="1482" 
d="M989 809q90 0 153.5 54t63.5 157q0 69 -39.5 103t-103.5 34h-438l-74 -348h438zM492 532l-113 -532h-334l305 1434h744q96 0 179.5 -32.5t141 -87t90.5 -127.5t33 -153q0 -228 -156.5 -365t-420.5 -137h-469z" />
    <glyph glyph-name="Q" unicode="Q" horiz-adv-x="1650" 
d="M109 604q0 127 37 252t109.5 234t171.5 193t231.5 132.5t279.5 48.5q323 0 494.5 -172t171.5 -463q0 -178 -72 -346t-201 -293l152 -190h-357l-28 35q-155 -66 -324 -66q-323 0 -494 172t-171 463zM1139 436q64 81 99.5 182.5t35.5 210.5q0 359 -336 359q-136 0 -252 -82
t-182 -216.5t-66 -285.5q0 -358 336 -358q72 0 139 24l-215 273h357z" />
    <glyph glyph-name="R" unicode="R" horiz-adv-x="1521" 
d="M492 532l-113 -532h-334l305 1434h744q96 0 179.5 -32.5t141 -87t90.5 -127.5t33 -153q0 -228 -156.5 -365t-420.5 -137h-11l420 -532h-399l-410 532h-69zM987 799q89 0 154 55.5t65 165.5q0 69 -39.5 103t-103.5 34h-438l-76 -358h438z" />
    <glyph glyph-name="S" unicode="S" horiz-adv-x="1376" 
d="M1092 1044q0 179 -261 179q-79 0 -143.5 -16t-110 -57t-45.5 -101q0 -75 52 -111.5t164 -54.5l98 -15q96 -13 172 -42t135.5 -77.5t92 -122.5t32.5 -169q0 -126 -52 -221.5t-144 -152.5t-207.5 -85.5t-251.5 -28.5q-73 0 -142 9.5t-138.5 30t-127 56.5t-102.5 84
t-70 117.5t-25 153.5h320q0 -115 76 -163t217 -48q59 0 112 9t102 28.5t78 58t29 90.5q0 78 -51 113t-176 55l-98 15q-196 29 -306 143t-110 291q0 93 35.5 169.5t96 128t142.5 87t172.5 51.5t188.5 16q92 0 175 -15.5t154.5 -49t124 -82.5t82 -118.5t29.5 -154.5h-319z" />
    <glyph glyph-name="T" unicode="T" horiz-adv-x="1292" 
d="M1407 1157h-461l-246 -1157h-333l245 1157h-460l59 277h1255z" />
    <glyph glyph-name="U" unicode="U" horiz-adv-x="1519" 
d="M668 -31q-121 0 -222 37.5t-168.5 103.5t-105 156.5t-37.5 194.5q0 49 17 129l180 844h334l-193 -902q-10 -52 -10 -75q0 -101 63 -156t170 -55q127 0 222.5 75t123.5 211l193 902h334l-207 -963q-50 -234 -231.5 -368t-462.5 -134z" />
    <glyph glyph-name="V" unicode="V" horiz-adv-x="1366" 
d="M608 778q14 -114 27 -409h8q96 223 197 409l362 656h354l-827 -1434h-317l-217 1434h329z" />
    <glyph glyph-name="W" unicode="W" horiz-adv-x="2023" 
d="M1356 1434l35 -594q6 -132 6 -246q0 -109 -2 -164h10q85 228 170 410l283 594h346l-715 -1434h-332l-37 594q-8 96 -8 246q0 62 4 164h-8q-102 -266 -160 -381l-303 -623h-336l-104 1434h321l29 -594q6 -114 6 -211q0 -67 -4 -199h8q91 237 174 410l289 594h328z" />
    <glyph glyph-name="X" unicode="X" horiz-adv-x="1380" 
d="M698 487l-426 -487h-399l688 770l-332 664h353l198 -414l361 414h399l-622 -697l368 -737h-352z" />
    <glyph glyph-name="Y" unicode="Y" horiz-adv-x="1304" 
d="M492 553l-295 881h329l170 -594l424 594h373l-668 -881l-118 -553h-334z" />
    <glyph glyph-name="Z" unicode="Z" horiz-adv-x="1310" 
d="M1130 0h-1167l60 276l882 881h-676l60 277h1116l-59 -277l-883 -881h727z" />
    <glyph glyph-name="bracketleft" unicode="[" horiz-adv-x="780" 
d="M336 1434h584l-52 -246h-266l-278 -1311h266l-53 -246h-584z" />
    <glyph glyph-name="backslash" unicode="\" horiz-adv-x="1210" 
d="M1069 0h-321l-525 1434h322z" />
    <glyph glyph-name="bracketright" unicode="]" horiz-adv-x="780" 
d="M444 -369h-583l53 246h266l279 1311h-266l51 246h583z" />
    <glyph glyph-name="asciicircum" unicode="^" horiz-adv-x="1148" 
d="M647 1434h246l197 -902h-254l-117 605l-375 -605h-278z" />
    <glyph glyph-name="underscore" unicode="_" horiz-adv-x="1288" 
d="M-27 0h1127l-39 -184h-1127z" />
    <glyph glyph-name="grave" unicode="`" horiz-adv-x="634" 
d="M709 1178h-273l-200 256h364z" />
    <glyph glyph-name="a" unicode="a" horiz-adv-x="1222" 
d="M162 768q139 328 567 328q187 0 305.5 -84.5t118.5 -243.5q0 -46 -12 -98l-142 -670h-317l16 82q-130 -113 -336 -113q-146 0 -250 85t-104 222q0 92 34 163t97.5 117t145 73t184.5 37l362 32q9 40 9 66q0 54 -35.5 80t-122.5 26q-146 0 -186 -102h-334zM451 195
q120 0 212.5 70.5t116.5 195.5l6 31l-294 -31q-87 -10 -126.5 -53.5t-39.5 -108.5q0 -48 32.5 -76t92.5 -28z" />
    <glyph glyph-name="b" unicode="b" horiz-adv-x="1337" 
d="M328 0h-318l305 1434h318l-98 -463q125 125 317 125q99 0 181 -37.5t135.5 -101t82.5 -146t29 -174.5q0 -171 -76.5 -323.5t-217 -248.5t-310.5 -96q-122 0 -201.5 43t-120.5 111zM758 850q-99 0 -178.5 -62.5t-120.5 -156.5t-41 -195q0 -110 59 -165.5t146 -55.5
q102 0 182 63.5t120 158.5t40 200q0 108 -55.5 160.5t-151.5 52.5z" />
    <glyph glyph-name="c" unicode="c" horiz-adv-x="1148" 
d="M1069 317q-63 -160 -187.5 -254t-316.5 -94q-131 0 -230 37.5t-157.5 104.5t-87.5 152t-29 188q0 96 27 189.5t80.5 175.5t127.5 144.5t175.5 99t216.5 36.5q385 0 459 -328h-313q-29 88 -146 88q-91 0 -164.5 -59t-112 -151t-38.5 -195q0 -116 42.5 -178t149.5 -62
q120 0 183 106h321z" />
    <glyph glyph-name="d" unicode="d" horiz-adv-x="1339" 
d="M580 215q99 0 178.5 62.5t120.5 156.5t41 195q0 110 -59 165.5t-146 55.5q-102 0 -182 -63.5t-120 -158.5t-40 -200q0 -108 55.5 -160.5t151.5 -52.5zM805 92q-44 -56 -125 -89.5t-186 -33.5q-132 0 -233 64t-152.5 168t-51.5 227q0 95 26.5 190.5t79 181t124 152
t168 105.5t204.5 39q129 0 213.5 -46t112.5 -108l105 492h317l-305 -1434h-318z" />
    <glyph glyph-name="e" unicode="e" horiz-adv-x="1243" 
d="M1128 317q-92 -174 -228.5 -261t-330.5 -87q-128 0 -227 38.5t-159.5 105.5t-91 152.5t-30.5 185.5q0 133 49.5 252.5t134.5 205.5t205 136.5t255 50.5q244 0 364.5 -115t120.5 -324q0 -98 -31 -227h-786q-2 -16 -2 -39q0 -89 52 -142.5t146 -53.5q153 0 205 122h354z
M705 870q-99 0 -174 -58t-113 -167h454q5 40 5 49q0 176 -172 176z" />
    <glyph glyph-name="f" unicode="f" horiz-adv-x="911" 
d="M135 1065h256l21 96q32 153 125.5 213t259.5 60h288l-51 -236h-227q-71 0 -86 -72l-12 -61h297l-54 -246h-297l-174 -819h-317l174 819h-256z" />
    <glyph glyph-name="g" unicode="g" horiz-adv-x="1318" 
d="M788 133q-116 -102 -292 -102q-125 0 -224.5 61.5t-152.5 163t-53 221.5q0 114 46 225.5t124 198.5t192.5 141t241.5 54q122 0 197.5 -46t99.5 -96l22 111h320l-199 -932q-53 -249 -222 -390.5t-399 -141.5q-214 0 -343.5 86.5t-129.5 240.5h312q6 -102 164 -102
q97 0 176.5 77t119.5 230zM702 860q-91 0 -166.5 -58t-115 -145.5t-39.5 -179.5q0 -101 54.5 -156t139.5 -55q111 0 202.5 80.5t119.5 216.5q8 41 8 82q0 102 -55 158.5t-148 56.5z" />
    <glyph glyph-name="h" unicode="h" horiz-adv-x="1310" 
d="M535 973q132 123 325 123q178 0 275.5 -96.5t97.5 -268.5q0 -54 -16 -129l-127 -602h-318l133 625q8 24 8 73q0 142 -159 142q-113 0 -196 -73.5t-112 -203.5l-118 -563h-318l305 1434h318z" />
    <glyph glyph-name="i" unicode="i" horiz-adv-x="565" 
d="M238 1065h317l-227 -1065h-318zM315 1434h318l-53 -246h-318z" />
    <glyph glyph-name="j" unicode="j" horiz-adv-x="573" 
d="M319 -78q-35 -160 -142.5 -225.5t-285.5 -65.5h-165l51 236h114q54 0 82 24t39 78l234 1096h317zM326 1434h317l-53 -246h-318z" />
    <glyph glyph-name="k" unicode="k" horiz-adv-x="1222" 
d="M1151 0h-389l-338 455l-96 -455h-318l305 1434h318l-156 -732l432 363h428l-622 -512z" />
    <glyph glyph-name="l" unicode="l" horiz-adv-x="565" 
d="M315 1434h318l-305 -1434h-318z" />
    <glyph glyph-name="m" unicode="m" horiz-adv-x="2002" 
d="M870 625q11 57 11 80q0 135 -154 135q-97 0 -170.5 -61t-101.5 -185l-127 -594h-318l228 1065h317l-20 -94q58 60 142 92.5t167 32.5q118 0 200.5 -44.5t118.5 -129.5q154 174 398 174q162 0 265 -96.5t103 -258.5q0 -50 -14 -116l-133 -625h-318l133 625q11 57 11 80
q0 135 -154 135q-97 0 -170.5 -61t-101.5 -185l-127 -594h-318z" />
    <glyph glyph-name="n" unicode="n" horiz-adv-x="1310" 
d="M535 973q132 123 325 123q178 0 275.5 -96.5t97.5 -268.5q0 -54 -16 -129l-127 -602h-318l133 625q8 24 8 73q0 142 -159 142q-113 0 -196 -73.5t-112 -203.5l-118 -563h-318l228 1065h317z" />
    <glyph glyph-name="o" unicode="o" horiz-adv-x="1271" 
d="M373 451q0 -116 46 -176t156 -60q137 0 231.5 121t94.5 278q0 116 -46.5 176t-156.5 60q-91 0 -166.5 -57.5t-117 -148.5t-41.5 -193zM61 451q0 120 45 235.5t124.5 206.5t202 147t265.5 56q131 0 231.5 -37.5t161 -104t91 -152.5t30.5 -188q0 -120 -45 -235.5
t-124.5 -206.5t-202 -147t-265.5 -56q-131 0 -231.5 37.5t-161 104t-91 152.5t-30.5 188z" />
    <glyph glyph-name="p" unicode="p" horiz-adv-x="1339" 
d="M760 850q-99 0 -178.5 -62.5t-120.5 -156.5t-41 -195q0 -110 59 -165.5t146 -55.5q102 0 182 63.5t120 158.5t40 200q0 108 -55.5 160.5t-151.5 52.5zM535 973q44 56 125 89.5t186 33.5q132 0 233 -64.5t152 -168t51 -226.5q0 -95 -26.5 -190.5t-79 -181t-124 -152
t-168 -105.5t-204.5 -39q-130 0 -214 46t-112 108l-104 -492h-318l306 1434h317z" />
    <glyph glyph-name="q" unicode="q" horiz-adv-x="1337" 
d="M1010 1065h317l-305 -1434h-317l98 463q-125 -125 -318 -125q-99 0 -181 37.5t-135.5 101t-82.5 146t-29 174.5q0 102 28.5 200.5t83.5 182.5t128 148t167.5 100.5t197.5 36.5q229 0 321 -154zM580 215q99 0 178.5 62.5t120.5 156.5t41 195q0 110 -59 165.5t-146 55.5
q-102 0 -182 -63.5t-120 -158.5t-40 -200q0 -108 55.5 -160.5t151.5 -52.5z" />
    <glyph glyph-name="r" unicode="r" horiz-adv-x="847" 
d="M739 819q-115 0 -187.5 -57.5t-100.5 -188.5l-123 -573h-318l228 1065h317l-23 -104q53 63 129 93.5t195 30.5h84l-57 -266h-144z" />
    <glyph glyph-name="s" unicode="s" horiz-adv-x="1122" 
d="M301 317q0 -72 40.5 -105.5t139.5 -33.5q89 0 151 30t62 93q0 19 -7 33.5t-16.5 22.5t-30 15t-35.5 10.5t-46 8.5l-53 8q-108 17 -187 57t-127.5 112t-48.5 169q0 78 29 140t76.5 102.5t113.5 67t136 38t147 11.5q130 0 235 -35.5t170.5 -111t65.5 -181.5h-313
q0 62 -40 90.5t-128 28.5q-48 0 -87 -9t-68 -34.5t-29 -65.5q0 -41 31.5 -63t101.5 -33l53 -8q86 -13 147.5 -34t114 -57t79 -93.5t26.5 -137.5q0 -82 -29.5 -148t-79 -109.5t-117.5 -72t-141.5 -41t-155.5 -12.5q-74 0 -142 10.5t-132.5 36t-112 64t-76 99.5t-28.5 138h311
z" />
    <glyph glyph-name="t" unicode="t" horiz-adv-x="929" 
d="M506 0q-137 0 -213 60t-76 180q0 40 12 98l103 481h-256l53 246h256l51 246h318l-52 -246h297l-53 -246h-297l-108 -512q-4 -20 -4 -28q0 -43 59 -43h225l-51 -236h-264z" />
    <glyph glyph-name="u" unicode="u" horiz-adv-x="1302" 
d="M768 92q-129 -123 -315 -123q-173 0 -274 98t-101 265q0 54 16 129l129 604h318l-133 -625q-11 -57 -11 -73q0 -142 162 -142q112 0 189 73t106 204l119 563h319l-227 -1065h-317z" />
    <glyph glyph-name="v" unicode="v" horiz-adv-x="1150" 
d="M123 1065h319l47 -350q12 -94 27 -377h8q101 237 183 377l194 350h356l-636 -1065h-316z" />
    <glyph glyph-name="w" unicode="w" horiz-adv-x="1685" 
d="M1100 1065l28 -348q9 -102 9 -197q0 -128 -7 -192h9q6 17 37.5 104t57.5 153.5t56 131.5l158 348h336l-545 -1065h-319l-29 348q-6 79 -6 170q0 114 6 209h-8q-92 -247 -160 -379l-176 -348h-326l-90 1065h313l13 -348q0 -15 1 -46t1 -46q0 -89 -13 -297h9
q92 249 163 389l177 348h305z" />
    <glyph glyph-name="x" unicode="x" horiz-adv-x="1114" 
d="M604 805l221 260h377l-471 -522l275 -543h-342l-144 303l-260 -303h-377l512 567l-254 498h342z" />
    <glyph glyph-name="y" unicode="y" horiz-adv-x="1114" 
d="M-98 -369l51 236h135q73 0 121.5 30.5t89.5 102.5l-174 1065h313l47 -356q17 -133 17 -361h8q99 232 170 359l199 358h342l-666 -1141q-40 -72 -79 -121t-94 -90.5t-129.5 -61.5t-170.5 -20h-180z" />
    <glyph glyph-name="z" unicode="z" horiz-adv-x="1122" 
d="M995 246l-53 -246h-983l53 246l641 573h-499l53 246h942l-53 -246l-641 -573h540z" />
    <glyph glyph-name="braceleft" unicode="{" horiz-adv-x="843" 
d="M352 514q162 -34 162 -190q0 -56 -22 -117l-64 -217q-10 -38 -10 -51q0 -35 24.5 -48.5t75.5 -13.5h133l-53 -246h-184q-81 0 -150 28.5t-115.5 92t-46.5 152.5q0 51 19 116l65 226q17 56 17 78q0 52 -36 69t-110 17h-41l54 245h41q94 0 140.5 32t57.5 132l37 287
q40 328 410 328h225l-51 -246h-133q-65 0 -96.5 -23.5t-41.5 -89.5l-38 -284q-17 -119 -85 -186t-184 -91z" />
    <glyph glyph-name="bar" unicode="|" horiz-adv-x="606" 
d="M336 1434h317l-383 -1803h-317z" />
    <glyph glyph-name="braceright" unicode="}" horiz-adv-x="843" 
d="M492 551q-162 34 -162 190q0 56 22 117l64 217q10 38 10 51q0 35 -24.5 48.5t-75.5 13.5h-133l53 246h184q81 0 150 -28.5t115 -92t46 -152.5q0 -55 -18 -117l-66 -225q-16 -53 -16 -78q0 -52 35.5 -69t109.5 -17h41l-53 -245h-41q-94 0 -140.5 -32t-57.5 -132l-37 -287
q-40 -328 -410 -328h-225l51 246h133q65 0 96 23.5t41 89.5l39 284q17 119 85 186t184 91z" />
    <glyph glyph-name="asciitilde" unicode="~" horiz-adv-x="1263" 
d="M121 563q31 164 129.5 261.5t243.5 97.5q55 0 106 -18t89 -43.5t72.5 -51t69.5 -43.5t66 -18q93 0 123 122h211q-33 -165 -130.5 -261.5t-242.5 -96.5q-55 0 -106 18t-89 43.5t-72.5 51t-69.5 43.5t-66 18q-43 0 -76.5 -29.5t-46.5 -93.5h-211z" />
    <glyph glyph-name="uni00A0" unicode="&#xa0;" horiz-adv-x="458" 
 />
    <glyph glyph-name="exclamdown" unicode="&#xa1;" horiz-adv-x="593" 
d="M526 727h-374l71 338h375zM201 573h211l-33 -440l-107 -502h-333l106 502z" />
    <glyph glyph-name="cent" unicode="&#xa2;" horiz-adv-x="1259" 
d="M408 -10q-153 44 -242.5 168t-89.5 286t69 299.5t198 228.5t296 115l39 183h252l-39 -187q153 -30 240 -124.5t98 -231.5h-320q-3 123 -182 123q-69 0 -127 -26.5t-95.5 -68.5t-64 -95t-38 -105.5t-11.5 -101.5q0 -100 48 -169t153 -69q86 0 134 31t83 92h348
q-160 -325 -502 -363l-39 -180h-251z" />
    <glyph glyph-name="sterling" unicode="&#xa3;" horiz-adv-x="1263" 
d="M819 1208q-44 0 -83.5 -14t-74 -42.5t-55 -78.5t-20.5 -115q0 -23 2.5 -44t9 -46t10 -36.5t15 -44t14.5 -39.5h463l-53 -246h-375q-23 -158 -150 -236h619l-58 -266h-1106l58 266q147 0 229.5 66t93.5 170h-254l54 246h141q-35 84 -35 198q0 159 79.5 278.5t211.5 179.5
t297 60q205 0 321.5 -101t116.5 -249q0 -21 -2 -39h-317q2 14 2 21q0 112 -154 112z" />
    <glyph glyph-name="currency" unicode="&#xa4;" horiz-adv-x="1259" 
d="M145 481q0 174 113 312l-108 139l202 164l117 -150q112 47 233 47q115 0 218 -57l157 129l162 -199l-152 -125q31 -76 31 -157q0 -175 -114 -314l108 -137l-203 -164l-116 148q-105 -45 -232 -45t-219 57l-158 -129l-161 199l153 125q-31 76 -31 157zM449 492
q0 -68 39 -111t104 -43q92 0 157.5 69t65.5 166q0 68 -39 111t-104 43q-92 0 -157.5 -69t-65.5 -166z" />
    <glyph glyph-name="yen" unicode="&#xa5;" horiz-adv-x="1361" 
d="M201 870h231l-180 564h334l147 -564h10l385 564h365l-418 -564h228l-54 -245h-356l-45 -62l-14 -61h266l-51 -246h-267l-55 -256h-324l56 256h-266l51 246h266l16 67l-18 56h-361z" />
    <glyph glyph-name="brokenbar" unicode="&#xa6;" horiz-adv-x="606" 
d="M109 358h317l-154 -727h-317zM338 1434h317l-153 -727h-318z" />
    <glyph glyph-name="section" unicode="&#xa7;" horiz-adv-x="1357" 
d="M1292 573q0 -118 -71 -212.5t-187 -151.5q60 -78 60 -193q0 -190 -158.5 -302.5t-427.5 -112.5q-218 0 -339.5 93.5t-121.5 246.5q0 21 4 49h309q-4 -20 -4 -31q0 -123 181 -123q118 0 178.5 42t60.5 112q0 64 -59.5 92.5t-204.5 42.5q-206 22 -325 110.5t-119 253.5
q0 121 71.5 217.5t188.5 149.5q-62 80 -62 193q0 190 159.5 302.5t426.5 112.5q221 0 341 -93t120 -249q0 -19 -4 -47h-314q4 20 4 31q0 60 -45 91.5t-131 31.5q-117 0 -177 -42t-60 -112q0 -63 62.5 -92t201.5 -43q99 -10 177 -36t138.5 -69t93.5 -109.5t33 -152.5z
M668 678q-96 17 -164 47q-119 -67 -119 -180q0 -26 8.5 -46.5t27.5 -35t38 -24.5t51.5 -18t55 -12.5t62.5 -11t60 -10.5q125 -31 164 -47q119 69 119 180q0 26 -8.5 46.5t-27.5 35t-38 24.5t-51.5 18t-55 12.5t-62.5 11t-60 10.5z" />
    <glyph glyph-name="dieresis" unicode="&#xa8;" horiz-adv-x="962" 
d="M272 1434h318l-53 -246h-318zM758 1434h317l-53 -246h-317z" />
    <glyph glyph-name="copyright" unicode="&#xa9;" horiz-adv-x="1669" 
d="M659 717q0 -110 62 -188t164 -78q64 0 105.5 28t53.5 74h232q-41 -133 -143 -205t-248 -72q-192 0 -316.5 124.5t-124.5 316.5t124.5 316t316.5 124q147 0 248 -70t143 -196h-232q-13 40 -54.5 66t-104.5 26q-102 0 -164 -78t-62 -188zM127 717q0 151 59.5 289t160 238.5
t238.5 160t289 59.5t289.5 -59.5t239 -160t160 -238.5t59.5 -289t-59.5 -289.5t-160 -239t-239 -160t-289.5 -59.5t-289 59.5t-238.5 160t-160 239t-59.5 289.5zM291 717q0 -158 78 -292.5t212.5 -213t292.5 -78.5t292.5 78.5t213 213t78.5 292.5t-78.5 292.5t-213 212.5
t-292.5 78t-292.5 -78t-212.5 -212.5t-78 -292.5z" />
    <glyph glyph-name="ordfeminine" unicode="&#xaa;" horiz-adv-x="960" 
d="M250 1198q48 125 149.5 190.5t253.5 65.5q150 0 241 -61t91 -181q0 -39 -8 -75l-115 -543h-219l14 65q-111 -86 -254 -86q-111 0 -193.5 66t-82.5 172q0 269 356 303l275 25l4 20q6 27 6 53q0 39 -29.5 57.5t-99.5 18.5q-116 0 -158 -90h-231zM457 739q86 0 163.5 58.5
t98.5 154.5l6 31l-238 -22q-67 -6 -104 -40.5t-37 -93.5q0 -40 28 -64t83 -24z" />
    <glyph glyph-name="guillemotleft" unicode="&#xab;" horiz-adv-x="1439" 
d="M344 184l-295 348l416 349h375l-441 -359l293 -338h-348zM918 184l-295 348l415 349h375l-440 -359l293 -338h-348z" />
    <glyph glyph-name="logicalnot" unicode="&#xac;" horiz-adv-x="1275" 
d="M940 737h-819l53 246h1071l-115 -532h-251z" />
    <glyph glyph-name="uni00AD" unicode="&#xad;" horiz-adv-x="905" 
d="M143 655h676l-53 -245h-676z" />
    <glyph glyph-name="registered" unicode="&#xae;" horiz-adv-x="1669" 
d="M127 717q0 151 59.5 289t160 238.5t238.5 160t289 59.5t289.5 -59.5t239 -160t160 -238.5t59.5 -289t-59.5 -289.5t-160 -239t-239 -160t-289.5 -59.5t-289 59.5t-238.5 160t-160 239t-59.5 289.5zM752 297h-215v840h460q129 0 208 -77t79 -196q0 -114 -72 -188.5
t-194 -81.5l278 -279q77 80 119.5 183.5t42.5 218.5q0 158 -78.5 292.5t-213 212.5t-292.5 78t-292.5 -78t-212.5 -212.5t-78 -292.5t78 -292.5t212.5 -213t292.5 -78.5q116 0 221 42.5t185 121.5h-233l-275 297h-20v-297zM967 758q102 0 102 102q0 103 -102 103h-215v-205
h215z" />
    <glyph glyph-name="macron" unicode="&#xaf;" horiz-adv-x="921" 
d="M270 1423h758l-45 -215h-758z" />
    <glyph glyph-name="degree" unicode="&#xb0;" horiz-adv-x="1050" 
d="M403 973q0 -83 48 -134t133 -51q101 0 181.5 78t80.5 189q0 83 -47.5 133.5t-132.5 50.5q-102 0 -182.5 -77.5t-80.5 -188.5zM154 963q0 107 45 202t118 159.5t167 102t192 37.5q130 0 227.5 -56.5t145 -145.5t47.5 -197q0 -107 -45 -202t-118.5 -160t-167.5 -102.5
t-192 -37.5q-130 0 -227 56.5t-144.5 146t-47.5 197.5z" />
    <glyph glyph-name="plusminus" unicode="&#xb1;" horiz-adv-x="1241" 
d="M233 1024h369l49 225h252l-49 -225h369l-52 -246h-368l-49 -225h-252l49 225h-369zM109 430h989l-54 -246h-989z" />
    <glyph glyph-name="twosuperior" unicode="&#xb2;" horiz-adv-x="739" 
d="M242 1413q32 109 117 177.5t223 68.5q132 0 205 -70.5t73 -167.5q0 -90 -53.5 -157t-163.5 -148l-194 -143h335l-36 -174h-635l37 174l366 276q71 55 98 86.5t27 77.5q0 32 -19.5 52t-56.5 20q-70 0 -94 -72h-229z" />
    <glyph glyph-name="threesuperior" unicode="&#xb3;" horiz-adv-x="745" 
d="M352 1034q-4 -38 21.5 -60t75.5 -22q62 0 99.5 32.5t37.5 82.5q0 37 -23 58.5t-71 21.5h-72l35 164h71q53 0 83 30t30 74q0 32 -20 51t-56 19q-35 0 -61.5 -20.5t-34.5 -51.5h-227q31 111 121.5 178.5t218.5 67.5q126 0 203 -66.5t77 -162.5q0 -74 -43.5 -127t-111.5 -80
q96 -47 96 -164q0 -131 -104 -206t-265 -75q-127 0 -211 64.5t-84 158.5q0 17 2 33h213z" />
    <glyph glyph-name="acute" unicode="&#xb4;" horiz-adv-x="634" 
d="M395 1434h414l-311 -256h-322z" />
    <glyph glyph-name="mu" unicode="&#xb5;" horiz-adv-x="1335" 
d="M772 51q-98 -82 -213 -82q-125 0 -192 103l-95 -441h-317l305 1434h318l-134 -629q-10 -45 -10 -69q0 -152 168 -152q99 0 164 56.5t88 164.5l133 629h318l-228 -1065h-317z" />
    <glyph glyph-name="paragraph" unicode="&#xb6;" horiz-adv-x="1568" 
d="M301 -369l209 983q-157 0 -255.5 100.5t-98.5 252.5q0 139 70 246.5t187.5 164t260.5 56.5h1001l-55 -256h-164l-328 -1547h-317l328 1547h-193l-328 -1547h-317z" />
    <glyph glyph-name="periodcentered" unicode="&#xb7;" horiz-adv-x="604" 
d="M152 707h374l-71 -338h-375z" />
    <glyph glyph-name="cedilla" unicode="&#xb8;" horiz-adv-x="573" 
d="M45 -276q0 -41 51 -41q34 0 56 21.5t22 51.5q0 49 -51 49q-28 0 -49 -18l-92 113l161 131h236l-160 -131q58 -4 89.5 -39.5t31.5 -91.5q0 -99 -72 -164.5t-182 -65.5q-82 0 -142.5 46.5t-60.5 138.5h162z" />
    <glyph glyph-name="onesuperior" unicode="&#xb9;" horiz-adv-x="575" 
d="M391 1249q10 50 41 148h-8q-75 -78 -109 -109l-147 -127l59 273l248 204h219l-178 -839h-219z" />
    <glyph glyph-name="ordmasculine" unicode="&#xba;" horiz-adv-x="1017" 
d="M373 942q0 -87 48 -140.5t146 -53.5q83 0 148 50.5t97 126.5t32 160q0 87 -48.5 141t-146.5 54q-83 0 -147.5 -51t-96.5 -127t-32 -160zM156 942q0 217 145 364.5t369 147.5q192 0 291.5 -103t99.5 -266q0 -217 -145 -364.5t-369 -147.5q-192 0 -291.5 103t-99.5 266z
" />
    <glyph glyph-name="guillemotright" unicode="&#xbb;" horiz-adv-x="1441" 
d="M524 881l295 -349l-409 -348h-381l438 359l-291 338h348zM1098 881l295 -349l-410 -348h-381l438 359l-290 338h348z" />
    <glyph glyph-name="onequarter" unicode="&#xbc;" horiz-adv-x="1662" 
d="M348 1044q10 50 41 148h-8q-75 -78 -109 -109l-147 -127l59 273l248 205h219l-178 -840h-219zM1227 1434h248l-1104 -1434h-248zM1307 840h260l-111 -523h123l-37 -174h-123l-30 -143h-220l31 143h-420l37 174zM1036 317h201l23 103q37 149 59 215h-8q-8 -12 -16 -23
t-14 -19t-16 -20.5t-15 -18.5t-18.5 -21.5t-19 -21.5t-23.5 -26.5t-26 -29.5z" />
    <glyph glyph-name="onehalf" unicode="&#xbd;" horiz-adv-x="1673" 
d="M348 1044q10 50 41 148h-8q-75 -78 -109 -109l-147 -127l59 273l248 205h219l-178 -840h-219zM1227 1434h248l-1104 -1434h-248zM1008 614q32 109 117 177.5t223 68.5q132 0 205 -70t73 -167q0 -47 -15.5 -89t-47.5 -80t-66.5 -68t-87.5 -69l-195 -143h336l-37 -174h-634
l36 174l367 277q72 55 98.5 86.5t26.5 76.5q0 32 -19.5 52t-56.5 20q-70 0 -94 -72h-229z" />
    <glyph glyph-name="threequarters" unicode="&#xbe;" horiz-adv-x="1818" 
d="M307 829q-4 -38 21 -59.5t75 -21.5q62 0 100 32t38 82q0 37 -23.5 58.5t-71.5 21.5h-71l35 164h71q53 0 83 30t30 74q0 32 -20 51t-56 19q-35 0 -61.5 -20.5t-34.5 -51.5h-227q31 111 121.5 178.5t218.5 67.5q126 0 203 -66.5t77 -162.5q0 -74 -44 -127t-112 -80
q97 -48 97 -164q0 -131 -104 -206t-265 -75q-127 0 -211 65t-84 159q0 16 2 32h213zM1382 1434h248l-1104 -1434h-247zM1462 840h260l-110 -523h123l-37 -174h-123l-31 -143h-219l31 143h-420l37 174zM1192 317h201l22 103q34 136 60 215h-9q-41 -60 -147 -180z" />
    <glyph glyph-name="questiondown" unicode="&#xbf;" horiz-adv-x="1089" 
d="M817 727h-375l72 338h375zM926 -10q-42 -171 -192.5 -280t-354.5 -109q-102 0 -184 28t-134 76.5t-80 111.5t-28 134q0 65 15.5 119t42 92t61.5 69.5t74.5 55.5t79.5 46.5t78 46t69.5 50t55 63t32.5 80.5h272q-18 -85 -53 -151.5t-75.5 -107t-86 -72.5t-87 -57.5t-75 -53
t-53.5 -67.5t-20 -93q0 -104 131 -104q57 0 104 32t66 91h342z" />
    <glyph glyph-name="Agrave" unicode="&#xc0;" horiz-adv-x="1474" 
d="M1004 287h-594l-174 -287h-361l889 1434h332l278 -1434h-319zM575 563h377l-28 164q-28 152 -43 358h-9q-89 -181 -196 -358zM1186 1546h-273l-200 256h364z" />
    <glyph glyph-name="Aacute" unicode="&#xc1;" horiz-adv-x="1474" 
d="M1004 287h-594l-174 -287h-361l889 1434h332l278 -1434h-319zM575 563h377l-28 164q-28 152 -43 358h-9q-89 -181 -196 -358zM913 1802h414l-311 -256h-322z" />
    <glyph glyph-name="Acircumflex" unicode="&#xc2;" horiz-adv-x="1474" 
d="M1004 287h-594l-174 -287h-361l889 1434h332l278 -1434h-319zM575 563h377l-28 164q-28 152 -43 358h-9q-89 -181 -196 -358zM989 1679l-108 -133h-359l312 256h348l200 -256h-338z" />
    <glyph glyph-name="Atilde" unicode="&#xc3;" horiz-adv-x="1474" 
d="M1004 287h-594l-174 -287h-361l889 1434h332l278 -1434h-319zM575 563h377l-28 164q-28 152 -43 358h-9q-89 -181 -196 -358zM557 1556q24 134 100.5 210.5t196.5 76.5q52 0 99 -17.5t76 -38.5t63.5 -38.5t64.5 -17.5q53 0 68 71h184q-25 -134 -101 -210t-196 -76
q-52 0 -99 17.5t-76 38.5t-64 38.5t-66 17.5q-51 0 -66 -72h-184z" />
    <glyph glyph-name="Adieresis" unicode="&#xc4;" horiz-adv-x="1474" 
d="M1004 287h-594l-174 -287h-361l889 1434h332l278 -1434h-319zM575 563h377l-28 164q-28 152 -43 358h-9q-89 -181 -196 -358zM608 1802h318l-54 -246h-317zM1094 1802h317l-53 -246h-318z" />
    <glyph glyph-name="Aring" unicode="&#xc5;" horiz-adv-x="1474" 
d="M1004 287h-594l-174 -287h-361l889 1434q-84 72 -84 184q0 117 93 202t216 85q124 0 197.5 -70.5t73.5 -175.5q0 -79 -44 -145.5t-116 -104.5l274 -1409h-319zM856 1618q0 -41 25.5 -66.5t68.5 -25.5q52 0 92.5 38.5t40.5 94.5q0 41 -25.5 66.5t-68.5 25.5
q-52 0 -92.5 -38.5t-40.5 -94.5zM575 563h377l-28 164q-28 152 -43 358h-9q-89 -181 -196 -358z" />
    <glyph glyph-name="AE" unicode="&#xc6;" horiz-adv-x="2283" 
d="M2372 1434l-60 -277h-710l-62 -287h670l-58 -276h-669l-68 -318h711l-60 -276h-1044l61 287h-577l-252 -287h-401l1267 1434h1252zM748 563h393l127 594h-11q-134 -168 -288 -342z" />
    <glyph glyph-name="Ccedilla" unicode="&#xc7;" horiz-adv-x="1486" 
d="M594 -276q0 -41 51 -41q34 0 56 21.5t22 51.5q0 49 -51 49q-28 0 -49 -18l-93 113l99 80q-257 36 -388.5 201t-131.5 423q0 127 36 252t108 234.5t170 193t231.5 132t283.5 48.5q501 0 602 -420h-340q-26 75 -88 112.5t-174 37.5q-139 0 -255.5 -84t-180.5 -219t-64 -287
q0 -176 79.5 -270t256.5 -94q204 0 295 180h354q-70 -189 -211.5 -308.5t-353.5 -138.5l-90 -73q58 -4 89.5 -39.5t31.5 -91.5q0 -99 -72 -164.5t-182 -65.5q-82 0 -142.5 46.5t-60.5 138.5h162z" />
    <glyph glyph-name="Egrave" unicode="&#xc8;" horiz-adv-x="1351" 
d="M350 1434h1090l-60 -277h-755l-62 -287h715l-57 -276h-715l-68 -318h756l-59 -276h-1090zM1143 1546h-273l-200 256h364z" />
    <glyph glyph-name="Eacute" unicode="&#xc9;" horiz-adv-x="1351" 
d="M350 1434h1090l-60 -277h-755l-62 -287h715l-57 -276h-715l-68 -318h756l-59 -276h-1090zM891 1802h414l-312 -256h-321z" />
    <glyph glyph-name="Ecircumflex" unicode="&#xca;" horiz-adv-x="1351" 
d="M350 1434h1090l-60 -277h-755l-62 -287h715l-57 -276h-715l-68 -318h756l-59 -276h-1090zM956 1679l-108 -133h-359l312 256h348l201 -256h-338z" />
    <glyph glyph-name="Edieresis" unicode="&#xcb;" horiz-adv-x="1351" 
d="M350 1434h1090l-60 -277h-755l-62 -287h715l-57 -276h-715l-68 -318h756l-59 -276h-1090zM573 1802h318l-53 -246h-318zM1059 1802h317l-53 -246h-317z" />
    <glyph glyph-name="Igrave" unicode="&#xcc;" horiz-adv-x="649" 
d="M45 0l305 1434h334l-305 -1434h-334zM774 1546h-272l-201 256h365z" />
    <glyph glyph-name="Iacute" unicode="&#xcd;" horiz-adv-x="649" 
d="M45 0l305 1434h334l-305 -1434h-334zM502 1802h413l-311 -256h-321z" />
    <glyph glyph-name="Icircumflex" unicode="&#xce;" horiz-adv-x="649" 
d="M45 0l305 1434h334l-305 -1434h-334zM578 1679l-109 -133h-358l311 256h348l201 -256h-338z" />
    <glyph glyph-name="Idieresis" unicode="&#xcf;" horiz-adv-x="649" 
d="M45 0l305 1434h334l-305 -1434h-334zM193 1802h317l-53 -246h-318zM678 1802h317l-53 -246h-317z" />
    <glyph glyph-name="Eth" unicode="&#xd0;" horiz-adv-x="1609" 
d="M96 860h203l123 574h557q277 0 436.5 -164.5t159.5 -429.5q0 -260 -106.5 -451t-298 -290t-445.5 -99h-608l125 594h-203zM1243 838q0 159 -80 239t-233 80h-234l-63 -297h385l-57 -266h-383l-68 -318h233q235 0 367.5 149t132.5 413z" />
    <glyph glyph-name="Ntilde" unicode="&#xd1;" horiz-adv-x="1638" 
d="M770 547q-136 276 -192 426h-9q-24 -196 -80 -451l-110 -522h-334l305 1434h332l266 -547q127 -263 193 -426h8q24 193 80 450l110 523h334l-305 -1434h-334zM637 1556q24 134 100.5 210.5t196.5 76.5q52 0 99 -17.5t76 -38.5t63.5 -38.5t64.5 -17.5q53 0 68 71h184
q-25 -134 -101 -210t-196 -76q-52 0 -99 17.5t-76 38.5t-64 38.5t-66 17.5q-51 0 -66 -72h-184z" />
    <glyph glyph-name="Ograve" unicode="&#xd2;" horiz-adv-x="1632" 
d="M438 604q0 -358 336 -358q136 0 252 82t182 216t66 285q0 359 -336 359q-136 0 -252 -82t-182 -216.5t-66 -285.5zM109 604q0 127 37 252t109.5 234t171.5 193t231.5 132.5t279.5 48.5q323 0 494.5 -172t171.5 -463q0 -127 -37 -252t-110 -234t-171.5 -193t-231.5 -132.5
t-280 -48.5q-323 0 -494 172t-171 463zM1255 1546h-272l-201 256h365z" />
    <glyph glyph-name="Oacute" unicode="&#xd3;" horiz-adv-x="1632" 
d="M438 604q0 -358 336 -358q136 0 252 82t182 216t66 285q0 359 -336 359q-136 0 -252 -82t-182 -216.5t-66 -285.5zM109 604q0 127 37 252t109.5 234t171.5 193t231.5 132.5t279.5 48.5q323 0 494.5 -172t171.5 -463q0 -127 -37 -252t-110 -234t-171.5 -193t-231.5 -132.5
t-280 -48.5q-323 0 -494 172t-171 463zM1004 1802h413l-311 -256h-322z" />
    <glyph glyph-name="Ocircumflex" unicode="&#xd4;" horiz-adv-x="1632" 
d="M438 604q0 -358 336 -358q136 0 252 82t182 216t66 285q0 359 -336 359q-136 0 -252 -82t-182 -216.5t-66 -285.5zM109 604q0 127 37 252t109.5 234t171.5 193t231.5 132.5t279.5 48.5q323 0 494.5 -172t171.5 -463q0 -127 -37 -252t-110 -234t-171.5 -193t-231.5 -132.5
t-280 -48.5q-323 0 -494 172t-171 463zM1069 1679l-108 -133h-359l311 256h349l200 -256h-338z" />
    <glyph glyph-name="Otilde" unicode="&#xd5;" horiz-adv-x="1632" 
d="M438 604q0 -358 336 -358q136 0 252 82t182 216t66 285q0 359 -336 359q-136 0 -252 -82t-182 -216.5t-66 -285.5zM109 604q0 127 37 252t109.5 234t171.5 193t231.5 132.5t279.5 48.5q323 0 494.5 -172t171.5 -463q0 -127 -37 -252t-110 -234t-171.5 -193t-231.5 -132.5
t-280 -48.5q-323 0 -494 172t-171 463zM635 1556q24 134 100.5 210.5t196.5 76.5q52 0 99 -17.5t76 -38.5t63.5 -38.5t64.5 -17.5q53 0 68 71h184q-25 -134 -101 -210t-196 -76q-52 0 -99 17.5t-76 38.5t-64 38.5t-66 17.5q-51 0 -66 -72h-184z" />
    <glyph glyph-name="Odieresis" unicode="&#xd6;" horiz-adv-x="1632" 
d="M438 604q0 -358 336 -358q136 0 252 82t182 216t66 285q0 359 -336 359q-136 0 -252 -82t-182 -216.5t-66 -285.5zM109 604q0 127 37 252t109.5 234t171.5 193t231.5 132.5t279.5 48.5q323 0 494.5 -172t171.5 -463q0 -127 -37 -252t-110 -234t-171.5 -193t-231.5 -132.5
t-280 -48.5q-323 0 -494 172t-171 463zM686 1802h318l-54 -246h-317zM1171 1802h318l-53 -246h-318z" />
    <glyph glyph-name="multiply" unicode="&#xd7;" horiz-adv-x="1228" 
d="M670 889l438 360l154 -190l-441 -363l287 -360l-188 -152l-285 361l-438 -361l-154 191l440 360l-286 363l188 151z" />
    <glyph glyph-name="Oslash" unicode="&#xd8;" horiz-adv-x="1634" 
d="M199 242q-90 143 -90 362q0 127 37 252t109.5 234t171.5 193t231.5 132.5t279.5 48.5q261 0 424 -114l119 114h319l-287 -274q91 -144 91 -361q0 -127 -37 -252t-110 -234t-171.5 -193t-231.5 -132.5t-280 -48.5q-256 0 -422 113l-119 -113h-319zM438 604q0 -63 13 -123
l688 658q-76 49 -201 49q-136 0 -252 -82t-182 -216.5t-66 -285.5zM1274 829q0 65 -12 121l-689 -657q77 -47 201 -47q136 0 252 82t182 216t66 285z" />
    <glyph glyph-name="Ugrave" unicode="&#xd9;" horiz-adv-x="1519" 
d="M668 -31q-121 0 -222 37.5t-168.5 103.5t-105 156.5t-37.5 194.5q0 49 17 129l180 844h334l-193 -902q-10 -52 -10 -75q0 -101 63 -156t170 -55q127 0 222.5 75t123.5 211l193 902h334l-207 -963q-50 -234 -231.5 -368t-462.5 -134zM1196 1546h-272l-201 256h364z" />
    <glyph glyph-name="Uacute" unicode="&#xda;" horiz-adv-x="1519" 
d="M668 -31q-121 0 -222 37.5t-168.5 103.5t-105 156.5t-37.5 194.5q0 49 17 129l180 844h334l-193 -902q-10 -52 -10 -75q0 -101 63 -156t170 -55q127 0 222.5 75t123.5 211l193 902h334l-207 -963q-50 -234 -231.5 -368t-462.5 -134zM946 1802h414l-311 -256h-322z" />
    <glyph glyph-name="Ucircumflex" unicode="&#xdb;" horiz-adv-x="1519" 
d="M668 -31q-121 0 -222 37.5t-168.5 103.5t-105 156.5t-37.5 194.5q0 49 17 129l180 844h334l-193 -902q-10 -52 -10 -75q0 -101 63 -156t170 -55q127 0 222.5 75t123.5 211l193 902h334l-207 -963q-50 -234 -231.5 -368t-462.5 -134zM1010 1679l-109 -133h-358l311 256
h348l201 -256h-338z" />
    <glyph glyph-name="Udieresis" unicode="&#xdc;" horiz-adv-x="1519" 
d="M668 -31q-121 0 -222 37.5t-168.5 103.5t-105 156.5t-37.5 194.5q0 49 17 129l180 844h334l-193 -902q-10 -52 -10 -75q0 -101 63 -156t170 -55q127 0 222.5 75t123.5 211l193 902h334l-207 -963q-50 -234 -231.5 -368t-462.5 -134zM627 1802h317l-53 -246h-318z
M1112 1802h318l-54 -246h-317z" />
    <glyph glyph-name="Yacute" unicode="&#xdd;" horiz-adv-x="1304" 
d="M492 553l-295 881h329l170 -594l424 594h373l-668 -881l-118 -553h-334zM842 1802h413l-311 -256h-321z" />
    <glyph glyph-name="Thorn" unicode="&#xde;" horiz-adv-x="1503" 
d="M938 563q90 0 153.5 54t63.5 157q0 69 -39.5 103t-103.5 34h-439l-73 -348h438zM440 287l-61 -287h-334l305 1434h334l-53 -246h411q128 0 230.5 -55t158.5 -146.5t56 -198.5q0 -228 -156.5 -364.5t-421.5 -136.5h-469z" />
    <glyph glyph-name="germandbls" unicode="&#xdf;" horiz-adv-x="1298" 
d="M991 788q113 -25 171.5 -102.5t58.5 -185.5q0 -215 -170 -357.5t-453 -142.5h-143l49 236h94q145 0 227 71t82 191q0 84 -53.5 126t-153.5 42h-86l52 235h65q98 0 150.5 64.5t52.5 138.5q0 62 -39 93.5t-109 31.5q-101 0 -160 -52.5t-85 -172.5l-213 -1004h-318l223 1053
q43 201 199.5 306t382.5 105q207 0 321.5 -99.5t114.5 -244.5q0 -117 -74 -205t-186 -127z" />
    <glyph glyph-name="agrave" unicode="&#xe0;" horiz-adv-x="1222" 
d="M162 768q139 328 567 328q187 0 305.5 -84.5t118.5 -243.5q0 -46 -12 -98l-142 -670h-317l16 82q-130 -113 -336 -113q-146 0 -250 85t-104 222q0 92 34 163t97.5 117t145 73t184.5 37l362 32q9 40 9 66q0 54 -35.5 80t-122.5 26q-146 0 -186 -102h-334zM451 195
q120 0 212.5 70.5t116.5 195.5l6 31l-294 -31q-87 -10 -126.5 -53.5t-39.5 -108.5q0 -48 32.5 -76t92.5 -28zM971 1178h-273l-200 256h364z" />
    <glyph glyph-name="aacute" unicode="&#xe1;" horiz-adv-x="1222" 
d="M162 768q139 328 567 328q187 0 305.5 -84.5t118.5 -243.5q0 -46 -12 -98l-142 -670h-317l16 82q-130 -113 -336 -113q-146 0 -250 85t-104 222q0 92 34 163t97.5 117t145 73t184.5 37l362 32q9 40 9 66q0 54 -35.5 80t-122.5 26q-146 0 -186 -102h-334zM451 195
q120 0 212.5 70.5t116.5 195.5l6 31l-294 -31q-87 -10 -126.5 -53.5t-39.5 -108.5q0 -48 32.5 -76t92.5 -28zM719 1434h414l-312 -256h-321z" />
    <glyph glyph-name="acircumflex" unicode="&#xe2;" horiz-adv-x="1222" 
d="M162 768q139 328 567 328q187 0 305.5 -84.5t118.5 -243.5q0 -46 -12 -98l-142 -670h-317l16 82q-130 -113 -336 -113q-146 0 -250 85t-104 222q0 92 34 163t97.5 117t145 73t184.5 37l362 32q9 40 9 66q0 54 -35.5 80t-122.5 26q-146 0 -186 -102h-334zM451 195
q120 0 212.5 70.5t116.5 195.5l6 31l-294 -31q-87 -10 -126.5 -53.5t-39.5 -108.5q0 -48 32.5 -76t92.5 -28zM784 1311l-108 -133h-359l312 256h348l201 -256h-338z" />
    <glyph glyph-name="atilde" unicode="&#xe3;" horiz-adv-x="1222" 
d="M162 768q139 328 567 328q187 0 305.5 -84.5t118.5 -243.5q0 -46 -12 -98l-142 -670h-317l16 82q-130 -113 -336 -113q-146 0 -250 85t-104 222q0 92 34 163t97.5 117t145 73t184.5 37l362 32q9 40 9 66q0 54 -35.5 80t-122.5 26q-146 0 -186 -102h-334zM451 195
q120 0 212.5 70.5t116.5 195.5l6 31l-294 -31q-87 -10 -126.5 -53.5t-39.5 -108.5q0 -48 32.5 -76t92.5 -28zM350 1188q24 134 100.5 210.5t196.5 76.5q52 0 99 -17.5t76 -39t63.5 -39t64.5 -17.5q53 0 68 72h184q-25 -134 -101 -210.5t-196 -76.5q-52 0 -99 17.5t-76 39
t-64 39t-66 17.5q-50 0 -65 -72h-185z" />
    <glyph glyph-name="adieresis" unicode="&#xe4;" horiz-adv-x="1222" 
d="M162 768q139 328 567 328q187 0 305.5 -84.5t118.5 -243.5q0 -46 -12 -98l-142 -670h-317l16 82q-130 -113 -336 -113q-146 0 -250 85t-104 222q0 92 34 163t97.5 117t145 73t184.5 37l362 32q9 40 9 66q0 54 -35.5 80t-122.5 26q-146 0 -186 -102h-334zM451 195
q120 0 212.5 70.5t116.5 195.5l6 31l-294 -31q-87 -10 -126.5 -53.5t-39.5 -108.5q0 -48 32.5 -76t92.5 -28zM401 1434h318l-53 -246h-318zM887 1434h317l-53 -246h-317z" />
    <glyph glyph-name="aring" unicode="&#xe5;" horiz-adv-x="1222" 
d="M162 768q139 328 567 328q187 0 305.5 -84.5t118.5 -243.5q0 -46 -12 -98l-142 -670h-317l16 82q-130 -113 -336 -113q-146 0 -250 85t-104 222q0 92 34 163t97.5 117t145 73t184.5 37l362 32q9 40 9 66q0 54 -35.5 80t-122.5 26q-146 0 -186 -102h-334zM451 195
q120 0 212.5 70.5t116.5 195.5l6 31l-294 -31q-87 -10 -126.5 -53.5t-39.5 -108.5q0 -48 32.5 -76t92.5 -28zM684 1382q0 -41 25.5 -66.5t68.5 -25.5q52 0 92.5 38.5t40.5 94.5q0 41 -25.5 67t-68.5 26q-52 0 -92.5 -39t-40.5 -95zM1087 1423q0 -117 -93 -201.5t-216 -84.5
q-124 0 -197 70t-73 175q0 117 93 202t216 85q124 0 197 -70.5t73 -175.5z" />
    <glyph glyph-name="ae" unicode="&#xe6;" horiz-adv-x="1959" 
d="M451 195q120 0 212.5 70.5t116.5 195.5l6 31l-294 -31q-87 -10 -126.5 -53.5t-39.5 -108.5q0 -48 32.5 -76t92.5 -28zM1421 870q-99 0 -173.5 -58t-112.5 -167h454q4 32 4 49q0 176 -172 176zM1286 -31q-292 0 -422 187q-187 -187 -491 -187q-154 0 -259.5 85t-105.5 222
q0 92 34 163t97.5 117t145 73t184.5 37l362 32q9 40 9 66q0 54 -35.5 80t-122.5 26q-146 0 -186 -102h-334q139 328 567 328q219 0 332 -107q169 107 360 107q244 0 365 -115t121 -324q0 -98 -31 -227h-786q-3 -24 -3 -39q0 -88 52 -142t147 -54q153 0 205 122h354
q-92 -174 -228.5 -261t-330.5 -87z" />
    <glyph glyph-name="ccedilla" unicode="&#xe7;" horiz-adv-x="1148" 
d="M385 -276q0 -41 51 -41q34 0 56 21.5t22 51.5q0 49 -51 49q-28 0 -49 -18l-92 113l102 82q-94 18 -164.5 61.5t-113.5 106t-64 138t-21 163.5q0 96 27 189.5t80.5 175.5t127.5 144.5t175.5 99t216.5 36.5q385 0 459 -328h-313q-29 88 -146 88q-91 0 -164.5 -59t-112 -151
t-38.5 -195q0 -116 42.5 -178t149.5 -62q120 0 183 106h321q-54 -142 -157.5 -232.5t-260.5 -109.5l-92 -75q58 -4 89.5 -39.5t31.5 -91.5q0 -99 -72 -164.5t-182 -65.5q-82 0 -142.5 46.5t-60.5 138.5h162z" />
    <glyph glyph-name="egrave" unicode="&#xe8;" horiz-adv-x="1243" 
d="M1128 317q-92 -174 -228.5 -261t-330.5 -87q-128 0 -227 38.5t-159.5 105.5t-91 152.5t-30.5 185.5q0 133 49.5 252.5t134.5 205.5t205 136.5t255 50.5q244 0 364.5 -115t120.5 -324q0 -98 -31 -227h-786q-2 -16 -2 -39q0 -89 52 -142.5t146 -53.5q153 0 205 122h354z
M705 870q-99 0 -174 -58t-113 -167h454q5 40 5 49q0 176 -172 176zM987 1178h-272l-201 256h365z" />
    <glyph glyph-name="eacute" unicode="&#xe9;" horiz-adv-x="1243" 
d="M1128 317q-92 -174 -228.5 -261t-330.5 -87q-128 0 -227 38.5t-159.5 105.5t-91 152.5t-30.5 185.5q0 133 49.5 252.5t134.5 205.5t205 136.5t255 50.5q244 0 364.5 -115t120.5 -324q0 -98 -31 -227h-786q-2 -16 -2 -39q0 -89 52 -142.5t146 -53.5q153 0 205 122h354z
M705 870q-99 0 -174 -58t-113 -167h454q5 40 5 49q0 176 -172 176zM735 1434h414l-311 -256h-322z" />
    <glyph glyph-name="ecircumflex" unicode="&#xea;" horiz-adv-x="1243" 
d="M1128 317q-92 -174 -228.5 -261t-330.5 -87q-128 0 -227 38.5t-159.5 105.5t-91 152.5t-30.5 185.5q0 133 49.5 252.5t134.5 205.5t205 136.5t255 50.5q244 0 364.5 -115t120.5 -324q0 -98 -31 -227h-786q-2 -16 -2 -39q0 -89 52 -142.5t146 -53.5q153 0 205 122h354z
M705 870q-99 0 -174 -58t-113 -167h454q5 40 5 49q0 176 -172 176zM801 1311l-109 -133h-358l311 256h348l201 -256h-338z" />
    <glyph glyph-name="edieresis" unicode="&#xeb;" horiz-adv-x="1243" 
d="M1128 317q-92 -174 -228.5 -261t-330.5 -87q-128 0 -227 38.5t-159.5 105.5t-91 152.5t-30.5 185.5q0 133 49.5 252.5t134.5 205.5t205 136.5t255 50.5q244 0 364.5 -115t120.5 -324q0 -98 -31 -227h-786q-2 -16 -2 -39q0 -89 52 -142.5t146 -53.5q153 0 205 122h354z
M705 870q-99 0 -174 -58t-113 -167h454q5 40 5 49q0 176 -172 176zM418 1434h317l-53 -246h-317zM903 1434h318l-54 -246h-317z" />
    <glyph glyph-name="igrave" unicode="&#xec;" horiz-adv-x="565" 
d="M238 1065h317l-227 -1065h-318zM643 1178h-272l-201 256h365z" />
    <glyph glyph-name="iacute" unicode="&#xed;" horiz-adv-x="565" 
d="M238 1065h317l-227 -1065h-318zM391 1434h414l-311 -256h-322z" />
    <glyph glyph-name="icircumflex" unicode="&#xee;" horiz-adv-x="565" 
d="M238 1065h317l-227 -1065h-318zM457 1311l-109 -133h-358l311 256h348l201 -256h-338z" />
    <glyph glyph-name="idieresis" unicode="&#xef;" horiz-adv-x="565" 
d="M238 1065h317l-227 -1065h-318zM74 1434h317l-53 -246h-318zM559 1434h318l-54 -246h-317z" />
    <glyph glyph-name="eth" unicode="&#xf0;" horiz-adv-x="1218" 
d="M1001 1178q68 -97 112 -230.5t44 -283.5q0 -320 -179 -507.5t-476 -187.5q-205 0 -329 124.5t-124 312.5q0 156 76 286.5t208 205.5t290 75q69 0 124 -18t82 -44q-30 84 -108 183l-438 -131l51 233l250 74l-127 164h358l55 -78l359 108l-49 -233zM532 205
q129 0 211 100.5t82 233.5q0 90 -45.5 144t-134.5 54q-60 0 -109.5 -21t-81 -54t-53 -77t-30.5 -88.5t-9 -88.5q0 -89 43.5 -146t126.5 -57z" />
    <glyph glyph-name="ntilde" unicode="&#xf1;" horiz-adv-x="1310" 
d="M535 973q132 123 325 123q178 0 275.5 -96.5t97.5 -268.5q0 -54 -16 -129l-127 -602h-318l133 625q8 24 8 73q0 142 -159 142q-113 0 -196 -73.5t-112 -203.5l-118 -563h-318l228 1065h317zM397 1188q24 134 100.5 210.5t196.5 76.5q52 0 99 -17.5t76 -39t63.5 -39
t64.5 -17.5q53 0 68 72h184q-25 -134 -101 -210.5t-196 -76.5q-52 0 -99 17.5t-76 39t-64 39t-66 17.5q-50 0 -65 -72h-185z" />
    <glyph glyph-name="ograve" unicode="&#xf2;" horiz-adv-x="1271" 
d="M373 451q0 -116 46 -176t156 -60q137 0 231.5 121t94.5 278q0 116 -46.5 176t-156.5 60q-91 0 -166.5 -57.5t-117 -148.5t-41.5 -193zM61 451q0 120 45 235.5t124.5 206.5t202 147t265.5 56q131 0 231.5 -37.5t161 -104t91 -152.5t30.5 -188q0 -120 -45 -235.5
t-124.5 -206.5t-202 -147t-265.5 -56q-131 0 -231.5 37.5t-161 104t-91 152.5t-30.5 188zM997 1178h-272l-201 256h365z" />
    <glyph glyph-name="oacute" unicode="&#xf3;" horiz-adv-x="1271" 
d="M373 451q0 -116 46 -176t156 -60q137 0 231.5 121t94.5 278q0 116 -46.5 176t-156.5 60q-91 0 -166.5 -57.5t-117 -148.5t-41.5 -193zM61 451q0 120 45 235.5t124.5 206.5t202 147t265.5 56q131 0 231.5 -37.5t161 -104t91 -152.5t30.5 -188q0 -120 -45 -235.5
t-124.5 -206.5t-202 -147t-265.5 -56q-131 0 -231.5 37.5t-161 104t-91 152.5t-30.5 188zM745 1434h414l-311 -256h-322z" />
    <glyph glyph-name="ocircumflex" unicode="&#xf4;" horiz-adv-x="1271" 
d="M373 451q0 -116 46 -176t156 -60q137 0 231.5 121t94.5 278q0 116 -46.5 176t-156.5 60q-91 0 -166.5 -57.5t-117 -148.5t-41.5 -193zM61 451q0 120 45 235.5t124.5 206.5t202 147t265.5 56q131 0 231.5 -37.5t161 -104t91 -152.5t30.5 -188q0 -120 -45 -235.5
t-124.5 -206.5t-202 -147t-265.5 -56q-131 0 -231.5 37.5t-161 104t-91 152.5t-30.5 188zM811 1311l-109 -133h-358l311 256h349l200 -256h-338z" />
    <glyph glyph-name="otilde" unicode="&#xf5;" horiz-adv-x="1271" 
d="M373 451q0 -116 46 -176t156 -60q137 0 231.5 121t94.5 278q0 116 -46.5 176t-156.5 60q-91 0 -166.5 -57.5t-117 -148.5t-41.5 -193zM61 451q0 120 45 235.5t124.5 206.5t202 147t265.5 56q131 0 231.5 -37.5t161 -104t91 -152.5t30.5 -188q0 -120 -45 -235.5
t-124.5 -206.5t-202 -147t-265.5 -56q-131 0 -231.5 37.5t-161 104t-91 152.5t-30.5 188zM377 1188q24 134 100.5 210.5t196.5 76.5q52 0 99 -17.5t76 -39t63.5 -39t64.5 -17.5q52 0 67 72h185q-25 -134 -101 -210.5t-196 -76.5q-52 0 -99 17.5t-76 39t-64 39t-66 17.5
q-51 0 -66 -72h-184z" />
    <glyph glyph-name="odieresis" unicode="&#xf6;" horiz-adv-x="1271" 
d="M373 451q0 -116 46 -176t156 -60q137 0 231.5 121t94.5 278q0 116 -46.5 176t-156.5 60q-91 0 -166.5 -57.5t-117 -148.5t-41.5 -193zM61 451q0 120 45 235.5t124.5 206.5t202 147t265.5 56q131 0 231.5 -37.5t161 -104t91 -152.5t30.5 -188q0 -120 -45 -235.5
t-124.5 -206.5t-202 -147t-265.5 -56q-131 0 -231.5 37.5t-161 104t-91 152.5t-30.5 188zM428 1434h317l-53 -246h-317zM913 1434h318l-53 -246h-318z" />
    <glyph glyph-name="divide" unicode="&#xf7;" horiz-adv-x="1208" 
d="M135 840h1071l-53 -246h-1071zM569 1249h375l-61 -286h-375zM403 471h375l-61 -287h-375z" />
    <glyph glyph-name="oslash" unicode="&#xf8;" horiz-adv-x="1273" 
d="M133 172q-72 119 -72 279q0 120 45 235.5t124.5 206.5t202 147t265.5 56q193 0 322 -82l86 82h246l-213 -203q73 -116 73 -279q0 -120 -45 -235.5t-124.5 -206.5t-202 -147t-265.5 -56q-194 0 -323 82l-86 -82h-246zM901 614q0 36 -2 52l-444 -422q50 -29 120 -29
q137 0 231.5 121t94.5 278zM373 451q0 -36 2 -50l442 420q-44 29 -119 29q-91 0 -166.5 -57.5t-117 -148.5t-41.5 -193z" />
    <glyph glyph-name="ugrave" unicode="&#xf9;" horiz-adv-x="1302" 
d="M768 92q-129 -123 -315 -123q-173 0 -274 98t-101 265q0 54 16 129l129 604h318l-133 -625q-11 -57 -11 -73q0 -142 162 -142q112 0 189 73t106 204l119 563h319l-227 -1065h-317zM1004 1178h-273l-201 256h365z" />
    <glyph glyph-name="uacute" unicode="&#xfa;" horiz-adv-x="1302" 
d="M768 92q-129 -123 -315 -123q-173 0 -274 98t-101 265q0 54 16 129l129 604h318l-133 -625q-11 -57 -11 -73q0 -142 162 -142q112 0 189 73t106 204l119 563h319l-227 -1065h-317zM752 1434h413l-311 -256h-322z" />
    <glyph glyph-name="ucircumflex" unicode="&#xfb;" horiz-adv-x="1302" 
d="M768 92q-129 -123 -315 -123q-173 0 -274 98t-101 265q0 54 16 129l129 604h318l-133 -625q-11 -57 -11 -73q0 -142 162 -142q112 0 189 73t106 204l119 563h319l-227 -1065h-317zM817 1311l-108 -133h-359l312 256h348l200 -256h-338z" />
    <glyph glyph-name="udieresis" unicode="&#xfc;" horiz-adv-x="1302" 
d="M768 92q-129 -123 -315 -123q-173 0 -274 98t-101 265q0 54 16 129l129 604h318l-133 -625q-11 -57 -11 -73q0 -142 162 -142q112 0 189 73t106 204l119 563h319l-227 -1065h-317zM434 1434h318l-54 -246h-317zM920 1434h317l-53 -246h-318z" />
    <glyph glyph-name="yacute" unicode="&#xfd;" horiz-adv-x="1114" 
d="M672 1434h413l-311 -256h-321zM-98 -369l51 236h135q73 0 121.5 30.5t89.5 102.5l-174 1065h313l47 -356q17 -133 17 -361h8q99 232 170 359l199 358h342l-666 -1141q-40 -72 -79 -121t-94 -90.5t-129.5 -61.5t-170.5 -20h-180z" />
    <glyph glyph-name="thorn" unicode="&#xfe;" horiz-adv-x="1337" 
d="M250 -369h-318l383 1803h318l-98 -463q125 125 317 125q99 0 181 -37.5t135.5 -101t82.5 -146t29 -174.5q0 -171 -76.5 -323.5t-217 -248.5t-310.5 -96q-122 0 -201.5 43t-120.5 111zM758 850q-99 0 -178.5 -62.5t-120.5 -156.5t-41 -195q0 -110 59 -165.5t146 -55.5
q102 0 182 63.5t120 158.5t40 200q0 108 -55.5 160.5t-151.5 52.5z" />
    <glyph glyph-name="ydieresis" unicode="&#xff;" horiz-adv-x="1114" 
d="M348 1434h318l-54 -246h-317zM834 1434h317l-53 -246h-318zM-98 -369l51 236h135q73 0 121.5 30.5t89.5 102.5l-174 1065h313l47 -356q17 -133 17 -361h8q99 232 170 359l199 358h342l-666 -1141q-40 -72 -79 -121t-94 -90.5t-129.5 -61.5t-170.5 -20h-180z" />
    <glyph glyph-name="Amacron" unicode="&#x100;" horiz-adv-x="1474" 
d="M1004 287h-594l-174 -287h-361l889 1434h332l278 -1434h-319zM575 563h377l-28 164q-28 152 -43 358h-9q-89 -181 -196 -358zM627 1792h757l-45 -215h-757z" />
    <glyph glyph-name="amacron" unicode="&#x101;" horiz-adv-x="1222" 
d="M162 768q139 328 567 328q187 0 305.5 -84.5t118.5 -243.5q0 -46 -12 -98l-142 -670h-317l16 82q-130 -113 -336 -113q-146 0 -250 85t-104 222q0 92 34 163t97.5 117t145 73t184.5 37l362 32q9 40 9 66q0 54 -35.5 80t-122.5 26q-146 0 -186 -102h-334zM451 195
q120 0 212.5 70.5t116.5 195.5l6 31l-294 -31q-87 -10 -126.5 -53.5t-39.5 -108.5q0 -48 32.5 -76t92.5 -28zM420 1423h758l-45 -215h-758z" />
    <glyph glyph-name="Abreve" unicode="&#x102;" horiz-adv-x="1474" 
d="M1004 287h-594l-174 -287h-361l889 1434h332l278 -1434h-319zM575 563h377l-28 164q-28 152 -43 358h-9q-89 -181 -196 -358zM979 1526q-161 0 -254.5 97t-85.5 230h203q4 -54 44 -83t103 -29q127 0 174 112h226q-40 -139 -146.5 -233t-263.5 -94z" />
    <glyph glyph-name="abreve" unicode="&#x103;" horiz-adv-x="1222" 
d="M162 768q139 328 567 328q187 0 305.5 -84.5t118.5 -243.5q0 -46 -12 -98l-142 -670h-317l16 82q-130 -113 -336 -113q-146 0 -250 85t-104 222q0 92 34 163t97.5 117t145 73t184.5 37l362 32q9 40 9 66q0 54 -35.5 80t-122.5 26q-146 0 -186 -102h-334zM451 195
q120 0 212.5 70.5t116.5 195.5l6 31l-294 -31q-87 -10 -126.5 -53.5t-39.5 -108.5q0 -48 32.5 -76t92.5 -28zM776 1157q-161 0 -254.5 97t-85.5 231h203q4 -54 44 -83.5t103 -29.5q128 0 175 113h225q-40 -139 -146.5 -233.5t-263.5 -94.5z" />
    <glyph glyph-name="Aogonek" unicode="&#x104;" horiz-adv-x="1474" 
d="M1225 -266q54 0 116 16l-120 -205q-62 -16 -121 -16q-109 0 -184.5 64.5t-75.5 160.5q0 172 213 262l-49 271h-594l-174 -287h-361l889 1434h332l278 -1434q-246 -102 -246 -201q0 -65 97 -65zM575 563h377l-28 164q-28 152 -43 358h-9q-89 -181 -196 -358z" />
    <glyph glyph-name="aogonek" unicode="&#x105;" horiz-adv-x="1222" 
d="M682 870q-146 0 -186 -102h-334q139 328 567 328q187 0 305.5 -84.5t118.5 -243.5q0 -46 -12 -98l-142 -670q-245 -101 -245 -201q0 -65 96 -65q55 0 117 16l-121 -205q-62 -16 -121 -16q-109 0 -184.5 64.5t-75.5 160.5q0 176 221 266l12 62q-130 -113 -336 -113
q-146 0 -250 85t-104 222q0 92 34 163t97.5 117t145 73t184.5 37l362 32q9 40 9 66q0 54 -35.5 80t-122.5 26zM451 195q120 0 212.5 70.5t116.5 195.5l6 31l-294 -31q-87 -10 -126.5 -53.5t-39.5 -108.5q0 -48 32.5 -76t92.5 -28z" />
    <glyph glyph-name="Cacute" unicode="&#x106;" horiz-adv-x="1486" 
d="M1200 1044q-26 75 -88 112.5t-174 37.5q-139 0 -255.5 -84t-180.5 -219t-64 -287q0 -176 79.5 -270t256.5 -94q204 0 295 180h354q-74 -203 -238.5 -327t-410.5 -124q-167 0 -295 46t-208.5 130.5t-121 200t-40.5 258.5q0 127 36 252t108 234.5t170 193t231.5 132
t283.5 48.5q501 0 602 -420h-340zM1001 1802h414l-311 -256h-322z" />
    <glyph glyph-name="cacute" unicode="&#x107;" horiz-adv-x="1148" 
d="M1069 317q-63 -160 -187.5 -254t-316.5 -94q-131 0 -230 37.5t-157.5 104.5t-87.5 152t-29 188q0 96 27 189.5t80.5 175.5t127.5 144.5t175.5 99t216.5 36.5q385 0 459 -328h-313q-29 88 -146 88q-91 0 -164.5 -59t-112 -151t-38.5 -195q0 -116 42.5 -178t149.5 -62
q120 0 183 106h321zM727 1434h414l-312 -256h-321z" />
    <glyph glyph-name="Ccircumflex" unicode="&#x108;" horiz-adv-x="1486" 
d="M1200 1044q-26 75 -88 112.5t-174 37.5q-139 0 -255.5 -84t-180.5 -219t-64 -287q0 -176 79.5 -270t256.5 -94q204 0 295 180h354q-74 -203 -238.5 -327t-410.5 -124q-167 0 -295 46t-208.5 130.5t-121 200t-40.5 258.5q0 127 36 252t108 234.5t170 193t231.5 132
t283.5 48.5q501 0 602 -420h-340zM1067 1679l-109 -133h-358l311 256h349l200 -256h-338z" />
    <glyph glyph-name="ccircumflex" unicode="&#x109;" horiz-adv-x="1148" 
d="M1069 317q-63 -160 -187.5 -254t-316.5 -94q-131 0 -230 37.5t-157.5 104.5t-87.5 152t-29 188q0 96 27 189.5t80.5 175.5t127.5 144.5t175.5 99t216.5 36.5q385 0 459 -328h-313q-29 88 -146 88q-91 0 -164.5 -59t-112 -151t-38.5 -195q0 -116 42.5 -178t149.5 -62
q120 0 183 106h321zM788 1311l-108 -133h-358l311 256h348l201 -256h-338z" />
    <glyph glyph-name="Cdotaccent" unicode="&#x10a;" horiz-adv-x="1486" 
d="M1200 1044q-26 75 -88 112.5t-174 37.5q-139 0 -255.5 -84t-180.5 -219t-64 -287q0 -176 79.5 -270t256.5 -94q204 0 295 180h354q-74 -203 -238.5 -327t-410.5 -124q-167 0 -295 46t-208.5 130.5t-121 200t-40.5 258.5q0 127 36 252t108 234.5t170 193t231.5 132
t283.5 48.5q501 0 602 -420h-340zM924 1802h317l-53 -246h-318z" />
    <glyph glyph-name="cdotaccent" unicode="&#x10b;" horiz-adv-x="1148" 
d="M1069 317q-63 -160 -187.5 -254t-316.5 -94q-131 0 -230 37.5t-157.5 104.5t-87.5 152t-29 188q0 96 27 189.5t80.5 175.5t127.5 144.5t175.5 99t216.5 36.5q385 0 459 -328h-313q-29 88 -146 88q-91 0 -164.5 -59t-112 -151t-38.5 -195q0 -116 42.5 -178t149.5 -62
q120 0 183 106h321zM641 1434h317l-53 -246h-317z" />
    <glyph glyph-name="Ccaron" unicode="&#x10c;" horiz-adv-x="1486" 
d="M1200 1044q-26 75 -88 112.5t-174 37.5q-139 0 -255.5 -84t-180.5 -219t-64 -287q0 -176 79.5 -270t256.5 -94q204 0 295 180h354q-74 -203 -238.5 -327t-410.5 -124q-167 0 -295 46t-208.5 130.5t-121 200t-40.5 258.5q0 127 36 252t108 234.5t170 193t231.5 132
t283.5 48.5q501 0 602 -420h-340zM1153 1802h363l-312 -256h-348l-201 256h334l55 -133z" />
    <glyph glyph-name="ccaron" unicode="&#x10d;" horiz-adv-x="1148" 
d="M1069 317q-63 -160 -187.5 -254t-316.5 -94q-131 0 -230 37.5t-157.5 104.5t-87.5 152t-29 188q0 96 27 189.5t80.5 175.5t127.5 144.5t175.5 99t216.5 36.5q385 0 459 -328h-313q-29 88 -146 88q-91 0 -164.5 -59t-112 -151t-38.5 -195q0 -116 42.5 -178t149.5 -62
q120 0 183 106h321zM874 1434h363l-311 -256h-348l-201 256h334l55 -134z" />
    <glyph glyph-name="Dcaron" unicode="&#x10e;" horiz-adv-x="1538" 
d="M1503 840q0 -260 -106.5 -451t-298 -290t-445.5 -99h-608l305 1434h557q277 0 436.5 -164.5t159.5 -429.5zM1171 838q0 159 -80 239t-233 80h-233l-187 -881h234q235 0 367 149t132 413zM1073 1802h363l-312 -256h-348l-201 256h334l56 -133z" />
    <glyph glyph-name="dcaron" unicode="&#x10f;" horiz-adv-x="1540" 
d="M580 215q99 0 178.5 62.5t120.5 156.5t41 195q0 110 -59 165.5t-146 55.5q-102 0 -182 -63.5t-120 -158.5t-40 -200q0 -108 55.5 -160.5t151.5 -52.5zM805 92q-44 -56 -125 -89.5t-186 -33.5q-132 0 -233 64t-152.5 168t-51.5 227q0 95 26.5 190.5t79 181t124 152
t168 105.5t204.5 39q129 0 213.5 -46t112.5 -108l105 492h317l-305 -1434h-318zM1546 1434h324l-228 -441h-251z" />
    <glyph glyph-name="Dcroat" unicode="&#x110;" horiz-adv-x="1609" 
d="M96 860h203l123 574h557q277 0 436.5 -164.5t159.5 -429.5q0 -260 -106.5 -451t-298 -290t-445.5 -99h-608l125 594h-203zM1243 838q0 159 -80 239t-233 80h-234l-63 -297h385l-57 -266h-383l-68 -318h233q235 0 367.5 149t132.5 413z" />
    <glyph glyph-name="dcroat" unicode="&#x111;" horiz-adv-x="1316" 
d="M539 205q123 0 211 96t88 225q0 88 -48.5 139.5t-142.5 51.5q-124 0 -206.5 -99t-82.5 -231q0 -83 46 -132.5t135 -49.5zM735 76q-26 -38 -100 -72.5t-176 -34.5q-97 0 -177 35t-131.5 93.5t-79.5 133.5t-28 156q0 108 42.5 210.5t115.5 181t179 126t226 47.5
q65 0 118.5 -14.5t86.5 -37.5t52 -45t28 -42l53 242h-442l47 225h442l33 154h317l-32 -154h143l-47 -225h-143l-226 -1055h-317z" />
    <glyph glyph-name="Emacron" unicode="&#x112;" horiz-adv-x="1351" 
d="M350 1434h1090l-60 -277h-755l-62 -287h715l-57 -276h-715l-68 -318h756l-59 -276h-1090zM594 1792h758l-45 -215h-758z" />
    <glyph glyph-name="emacron" unicode="&#x113;" horiz-adv-x="1243" 
d="M1128 317q-92 -174 -228.5 -261t-330.5 -87q-128 0 -227 38.5t-159.5 105.5t-91 152.5t-30.5 185.5q0 133 49.5 252.5t134.5 205.5t205 136.5t255 50.5q244 0 364.5 -115t120.5 -324q0 -98 -31 -227h-786q-2 -16 -2 -39q0 -89 52 -142.5t146 -53.5q153 0 205 122h354z
M705 870q-99 0 -174 -58t-113 -167h454q5 40 5 49q0 176 -172 176zM436 1423h758l-45 -215h-758z" />
    <glyph glyph-name="Ebreve" unicode="&#x114;" horiz-adv-x="1351" 
d="M350 1434h1090l-60 -277h-755l-62 -287h715l-57 -276h-715l-68 -318h756l-59 -276h-1090zM948 1526q-161 0 -254.5 97t-85.5 230h203q4 -54 44 -83t103 -29q128 0 175 112h225q-40 -139 -146.5 -233t-263.5 -94z" />
    <glyph glyph-name="ebreve" unicode="&#x115;" horiz-adv-x="1243" 
d="M1128 317q-92 -174 -228.5 -261t-330.5 -87q-128 0 -227 38.5t-159.5 105.5t-91 152.5t-30.5 185.5q0 133 49.5 252.5t134.5 205.5t205 136.5t255 50.5q244 0 364.5 -115t120.5 -324q0 -98 -31 -227h-786q-2 -16 -2 -39q0 -89 52 -142.5t146 -53.5q153 0 205 122h354z
M705 870q-99 0 -174 -58t-113 -167h454q5 40 5 49q0 176 -172 176zM793 1157q-161 0 -254.5 97t-85.5 231h202q4 -54 44.5 -83.5t103.5 -29.5q127 0 174 113h225q-19 -66 -54 -123.5t-85 -104t-119.5 -73.5t-150.5 -27z" />
    <glyph glyph-name="Edotaccent" unicode="&#x116;" horiz-adv-x="1351" 
d="M350 1434h1090l-60 -277h-755l-62 -287h715l-57 -276h-715l-68 -318h756l-59 -276h-1090zM819 1802h318l-54 -246h-317z" />
    <glyph glyph-name="edotaccent" unicode="&#x117;" horiz-adv-x="1243" 
d="M1128 317q-92 -174 -228.5 -261t-330.5 -87q-128 0 -227 38.5t-159.5 105.5t-91 152.5t-30.5 185.5q0 133 49.5 252.5t134.5 205.5t205 136.5t255 50.5q244 0 364.5 -115t120.5 -324q0 -98 -31 -227h-786q-2 -16 -2 -39q0 -89 52 -142.5t146 -53.5q153 0 205 122h354z
M705 870q-99 0 -174 -58t-113 -167h454q5 40 5 49q0 176 -172 176zM662 1434h317l-53 -246h-318z" />
    <glyph glyph-name="Eogonek" unicode="&#x118;" horiz-adv-x="1351" 
d="M350 1434h1090l-60 -277h-755l-62 -287h715l-57 -276h-715l-68 -318h756l-59 -276q-246 -102 -246 -201q0 -65 96 -65q55 0 117 16l-121 -205q-62 -16 -121 -16q-109 0 -184.5 64.5t-75.5 160.5q0 156 176 246h-731z" />
    <glyph glyph-name="eogonek" unicode="&#x119;" horiz-adv-x="1243" 
d="M489 -27q-108 12 -191 54.5t-134 107t-77 144.5t-26 172q0 133 49.5 252.5t134.5 205.5t205 136.5t255 50.5q244 0 364.5 -115t120.5 -324q0 -98 -31 -227h-786q-2 -16 -2 -39q0 -89 52 -142.5t146 -53.5q153 0 205 122h354q-51 -97 -120.5 -175t-130 -121.5t-114 -79.5
t-85 -70t-31.5 -72q0 -65 96 -65q55 0 117 16l-121 -205q-62 -16 -121 -16q-109 0 -184.5 64.5t-75.5 160.5q0 136 131 219zM705 870q-99 0 -174 -58t-113 -167h454q5 40 5 49q0 176 -172 176z" />
    <glyph glyph-name="Ecaron" unicode="&#x11a;" horiz-adv-x="1351" 
d="M350 1434h1090l-60 -277h-755l-62 -287h715l-57 -276h-715l-68 -318h756l-59 -276h-1090zM1042 1802h363l-311 -256h-349l-200 256h334l55 -133z" />
    <glyph glyph-name="ecaron" unicode="&#x11b;" horiz-adv-x="1243" 
d="M1128 317q-92 -174 -228.5 -261t-330.5 -87q-128 0 -227 38.5t-159.5 105.5t-91 152.5t-30.5 185.5q0 133 49.5 252.5t134.5 205.5t205 136.5t255 50.5q244 0 364.5 -115t120.5 -324q0 -98 -31 -227h-786q-2 -16 -2 -39q0 -89 52 -142.5t146 -53.5q153 0 205 122h354z
M705 870q-99 0 -174 -58t-113 -167h454q5 40 5 49q0 176 -172 176zM887 1434h362l-311 -256h-348l-201 256h334l55 -134z" />
    <glyph glyph-name="Gcircumflex" unicode="&#x11c;" horiz-adv-x="1581" 
d="M1067 1679l-109 -133h-358l311 256h349l200 -256h-338zM743 -31q-156 0 -277.5 46t-199 130.5t-117.5 200t-40 258.5q0 127 36 252t108 234.5t170 193t231.5 132t283.5 48.5q501 0 602 -420h-338q-27 75 -89.5 112.5t-174.5 37.5q-139 0 -255.5 -84t-180.5 -219t-64 -287
q0 -176 79.5 -270t256.5 -94q144 0 240.5 74t140.5 208h-311l57 277h635l-170 -799h-258v76q-138 -107 -365 -107z" />
    <glyph glyph-name="gcircumflex" unicode="&#x11d;" horiz-adv-x="1318" 
d="M788 133q-116 -102 -292 -102q-125 0 -224.5 61.5t-152.5 163t-53 221.5q0 114 46 225.5t124 198.5t192.5 141t241.5 54q122 0 197.5 -46t99.5 -96l22 111h320l-199 -932q-53 -249 -222 -390.5t-399 -141.5q-214 0 -343.5 86.5t-129.5 240.5h312q6 -102 164 -102
q97 0 176.5 77t119.5 230zM702 860q-91 0 -166.5 -58t-115 -145.5t-39.5 -179.5q0 -101 54.5 -156t139.5 -55q111 0 202.5 80.5t119.5 216.5q8 41 8 82q0 102 -55 158.5t-148 56.5zM825 1311l-108 -133h-359l312 256h348l201 -256h-338z" />
    <glyph glyph-name="Gbreve" unicode="&#x11e;" horiz-adv-x="1581" 
d="M1059 1526q-161 0 -254.5 97t-85.5 230h203q4 -54 44 -83t103 -29q127 0 174 112h225q-40 -139 -146 -233t-263 -94zM743 -31q-156 0 -277.5 46t-199 130.5t-117.5 200t-40 258.5q0 127 36 252t108 234.5t170 193t231.5 132t283.5 48.5q501 0 602 -420h-338
q-27 75 -89.5 112.5t-174.5 37.5q-139 0 -255.5 -84t-180.5 -219t-64 -287q0 -176 79.5 -270t256.5 -94q144 0 240.5 74t140.5 208h-311l57 277h635l-170 -799h-258v76q-138 -107 -365 -107z" />
    <glyph glyph-name="gbreve" unicode="&#x11f;" horiz-adv-x="1318" 
d="M788 133q-116 -102 -292 -102q-125 0 -224.5 61.5t-152.5 163t-53 221.5q0 114 46 225.5t124 198.5t192.5 141t241.5 54q122 0 197.5 -46t99.5 -96l22 111h320l-199 -932q-53 -249 -222 -390.5t-399 -141.5q-214 0 -343.5 86.5t-129.5 240.5h312q6 -102 164 -102
q97 0 176.5 77t119.5 230zM702 860q-91 0 -166.5 -58t-115 -145.5t-39.5 -179.5q0 -101 54.5 -156t139.5 -55q111 0 202.5 80.5t119.5 216.5q8 41 8 82q0 102 -55 158.5t-148 56.5zM817 1157q-161 0 -254.5 97t-85.5 231h203q4 -54 44 -83.5t103 -29.5q127 0 174 113h226
q-40 -139 -146.5 -233.5t-263.5 -94.5z" />
    <glyph glyph-name="Gdotaccent" unicode="&#x120;" horiz-adv-x="1581" 
d="M930 1802h317l-53 -246h-317zM743 -31q-156 0 -277.5 46t-199 130.5t-117.5 200t-40 258.5q0 127 36 252t108 234.5t170 193t231.5 132t283.5 48.5q501 0 602 -420h-338q-27 75 -89.5 112.5t-174.5 37.5q-139 0 -255.5 -84t-180.5 -219t-64 -287q0 -176 79.5 -270
t256.5 -94q144 0 240.5 74t140.5 208h-311l57 277h635l-170 -799h-258v76q-138 -107 -365 -107z" />
    <glyph glyph-name="gdotaccent" unicode="&#x121;" horiz-adv-x="1318" 
d="M788 133q-116 -102 -292 -102q-125 0 -224.5 61.5t-152.5 163t-53 221.5q0 114 46 225.5t124 198.5t192.5 141t241.5 54q122 0 197.5 -46t99.5 -96l22 111h320l-199 -932q-53 -249 -222 -390.5t-399 -141.5q-214 0 -343.5 86.5t-129.5 240.5h312q6 -102 164 -102
q97 0 176.5 77t119.5 230zM702 860q-91 0 -166.5 -58t-115 -145.5t-39.5 -179.5q0 -101 54.5 -156t139.5 -55q111 0 202.5 80.5t119.5 216.5q8 41 8 82q0 102 -55 158.5t-148 56.5zM686 1434h318l-54 -246h-317z" />
    <glyph glyph-name="uni0122" unicode="&#x122;" horiz-adv-x="1581" 
d="M526 -92h318l-49 -225l-201 -226h-133l139 226h-123zM743 -31q-156 0 -277.5 46t-199 130.5t-117.5 200t-40 258.5q0 127 36 252t108 234.5t170 193t231.5 132t283.5 48.5q501 0 602 -420h-338q-27 75 -89.5 112.5t-174.5 37.5q-139 0 -255.5 -84t-180.5 -219t-64 -287
q0 -176 79.5 -270t256.5 -94q144 0 240.5 74t140.5 208h-311l57 277h635l-170 -799h-258v76q-138 -107 -365 -107z" />
    <glyph glyph-name="uni0123" unicode="&#x123;" horiz-adv-x="1318" 
d="M788 133q-116 -102 -292 -102q-125 0 -224.5 61.5t-152.5 163t-53 221.5q0 114 46 225.5t124 198.5t192.5 141t241.5 54q122 0 197.5 -46t99.5 -96l22 111h320l-199 -932q-53 -249 -222 -390.5t-399 -141.5q-214 0 -343.5 86.5t-129.5 240.5h312q6 -102 164 -102
q97 0 176.5 77t119.5 230zM702 860q-91 0 -166.5 -58t-115 -145.5t-39.5 -179.5q0 -101 54.5 -156t139.5 -55q111 0 202.5 80.5t119.5 216.5q8 41 8 82q0 102 -55 158.5t-148 56.5zM946 1178h-317l49 225l201 225h133l-140 -225h123z" />
    <glyph glyph-name="Hcircumflex" unicode="&#x124;" horiz-adv-x="1613" 
d="M1343 0h-333l127 594h-631l-127 -594h-334l305 1434h334l-121 -564h631l121 564h334zM1059 1679l-109 -133h-358l311 256h348l201 -256h-338z" />
    <glyph glyph-name="hcircumflex" unicode="&#x125;" horiz-adv-x="1310" 
d="M535 973q132 123 325 123q178 0 275.5 -96.5t97.5 -268.5q0 -54 -16 -129l-127 -602h-318l133 625q8 24 8 73q0 142 -159 142q-113 0 -196 -73.5t-112 -203.5l-118 -563h-318l305 1434h318zM535 1679l-109 -133h-358l311 256h348l201 -256h-338z" />
    <glyph glyph-name="Hbar" unicode="&#x126;" horiz-adv-x="1644" 
d="M1577 1024l-217 -1024h-334l127 594h-631l-127 -594h-334l218 1024h-129l57 266h129l31 144h333l-30 -144h630l31 144h334l-31 -144h129l-57 -266h-129zM1210 870l33 154h-631l-32 -154h630z" />
    <glyph glyph-name="hbar" unicode="&#x127;" horiz-adv-x="1335" 
d="M647 1280h434l-49 -236h-436l-47 -215q132 123 325 123q178 0 275.5 -96t97.5 -268q0 -54 -16 -129l-94 -459h-318l101 481q8 24 8 74q0 141 -160 141q-113 0 -195.5 -73t-111.5 -203l-86 -420h-318l222 1044h-144l49 236h146l32 154h318z" />
    <glyph glyph-name="Itilde" unicode="&#x128;" horiz-adv-x="649" 
d="M45 0l305 1434h334l-305 -1434h-334zM145 1556q24 134 100.5 210.5t196.5 76.5q52 0 99 -17.5t76 -38.5t63.5 -38.5t64.5 -17.5q53 0 68 71h184q-25 -134 -101 -210t-196 -76q-52 0 -99 17.5t-76 38.5t-64 38.5t-66 17.5q-50 0 -65 -72h-185z" />
    <glyph glyph-name="itilde" unicode="&#x129;" horiz-adv-x="565" 
d="M238 1065h317l-227 -1065h-318zM23 1188q24 134 100 210.5t196 76.5q52 0 99.5 -17.5t76 -39t63.5 -39t65 -17.5q52 0 67 72h184q-25 -134 -100.5 -210.5t-195.5 -76.5q-52 0 -99.5 17.5t-76.5 39t-64 39t-66 17.5q-50 0 -65 -72h-184z" />
    <glyph glyph-name="Imacron" unicode="&#x12a;" horiz-adv-x="649" 
d="M45 0l305 1434h334l-305 -1434h-334zM215 1792h758l-45 -215h-758z" />
    <glyph glyph-name="imacron" unicode="&#x12b;" horiz-adv-x="565" 
d="M238 1065h317l-227 -1065h-318zM92 1423h758l-45 -215h-758z" />
    <glyph glyph-name="Ibreve" unicode="&#x12c;" horiz-adv-x="649" 
d="M45 0l305 1434h334l-305 -1434h-334zM567 1526q-161 0 -254.5 97t-85.5 230h203q4 -54 44.5 -83t103.5 -29q127 0 174 112h225q-40 -139 -146.5 -233t-263.5 -94z" />
    <glyph glyph-name="ibreve" unicode="&#x12d;" horiz-adv-x="565" 
d="M238 1065h317l-227 -1065h-318zM449 1157q-161 0 -254.5 97t-85.5 231h202q4 -54 44.5 -83.5t103.5 -29.5q127 0 174 113h225q-19 -66 -54 -123.5t-85 -104t-119.5 -73.5t-150.5 -27z" />
    <glyph glyph-name="Iogonek" unicode="&#x12e;" horiz-adv-x="649" 
d="M229 -266q55 0 117 16l-121 -205q-62 -16 -121 -16q-109 0 -184.5 64.5t-75.5 160.5q0 167 203 258l303 1422h334l-305 -1434q-246 -102 -246 -201q0 -65 96 -65z" />
    <glyph glyph-name="iogonek" unicode="&#x12f;" horiz-adv-x="567" 
d="M180 -266q55 0 117 16l-121 -205q-62 -16 -121 -16q-109 0 -184.5 64.5t-75.5 160.5q0 176 221 266l224 1045h317l-227 -1065q-246 -102 -246 -201q0 -65 96 -65zM317 1434h318l-53 -246h-318z" />
    <glyph glyph-name="Idotaccent" unicode="&#x130;" horiz-adv-x="649" 
d="M45 0l305 1434h334l-305 -1434h-334zM436 1802h318l-54 -246h-317z" />
    <glyph glyph-name="dotlessi" unicode="&#x131;" horiz-adv-x="565" 
d="M238 1065h317l-227 -1065h-318z" />
    <glyph glyph-name="IJ" unicode="&#x132;" horiz-adv-x="1492" 
d="M45 0l305 1434h334l-305 -1434h-334zM676 0q214 0 264 236l254 1198h334l-262 -1239q-55 -252 -208.5 -361.5t-404.5 -109.5h-176l60 276h139z" />
    <glyph glyph-name="ij" unicode="&#x133;" horiz-adv-x="1128" 
d="M238 1065h317l-227 -1065h-318zM315 1434h318l-53 -246h-318zM874 -78q-35 -160 -142.5 -225.5t-285.5 -65.5h-198l51 236h147q54 0 82 24t39 78l234 1096h317zM881 1434h317l-53 -246h-318z" />
    <glyph glyph-name="Jcircumflex" unicode="&#x134;" horiz-adv-x="1052" 
d="M991 1679l-108 -133h-359l312 256h348l200 -256h-337zM303 276q214 0 264 236l197 922h334l-205 -963q-55 -252 -208 -361.5t-404 -109.5h-349l60 276h311z" />
    <glyph glyph-name="jcircumflex" unicode="&#x135;" horiz-adv-x="573" 
d="M467 1311l-109 -133h-358l311 256h348l201 -256h-338zM319 -78q-35 -160 -142.5 -225.5t-285.5 -65.5h-165l51 236h114q54 0 82 24t39 78l234 1096h317z" />
    <glyph glyph-name="uni0136" unicode="&#x136;" horiz-adv-x="1476" 
d="M510 641l-137 -641h-328l305 1434h328l-117 -547l643 547h457l-844 -697l580 -737h-406zM477 -92h318l-50 -225l-200 -226h-133l139 226h-123z" />
    <glyph glyph-name="uni0137" unicode="&#x137;" horiz-adv-x="1222" 
d="M1151 0h-389l-338 455l-96 -455h-318l305 1434h318l-156 -732l432 363h428l-622 -512zM360 -92h318l-49 -225l-201 -226h-133l139 226h-123z" />
    <glyph glyph-name="kgreenlandic" unicode="&#x138;" horiz-adv-x="1222" 
d="M1151 0h-389l-338 455l-96 -455h-318l228 1065h317l-78 -363l432 363h428l-622 -512z" />
    <glyph glyph-name="Lacute" unicode="&#x139;" horiz-adv-x="1222" 
d="M350 1434h334l-246 -1158h715l-59 -276h-1049zM500 1802h413l-311 -256h-321z" />
    <glyph glyph-name="lacute" unicode="&#x13a;" horiz-adv-x="565" 
d="M315 1434h318l-305 -1434h-318zM487 1802h414l-311 -256h-322z" />
    <glyph glyph-name="uni013B" unicode="&#x13b;" horiz-adv-x="1222" 
d="M350 1434h334l-246 -1158h715l-59 -276h-1049zM408 -92h317l-49 -225l-201 -226h-133l139 226h-123z" />
    <glyph glyph-name="uni013C" unicode="&#x13c;" horiz-adv-x="565" 
d="M315 1434h318l-305 -1434h-318zM-6 -92h317l-49 -225l-201 -226h-133l140 226h-123z" />
    <glyph glyph-name="Lcaron" unicode="&#x13d;" horiz-adv-x="1226" 
d="M350 1434h334l-246 -1158h715l-59 -276h-1049zM918 1434h323l-227 -441h-252z" />
    <glyph glyph-name="lcaron" unicode="&#x13e;" horiz-adv-x="768" 
d="M315 1434h318l-305 -1434h-318zM774 1434h324l-228 -441h-252z" />
    <glyph glyph-name="Ldot" unicode="&#x13f;" horiz-adv-x="1228" 
d="M350 1434h334l-246 -1158h715l-59 -276h-1049zM856 862h318l-54 -246h-317z" />
    <glyph glyph-name="ldot" unicode="&#x140;" horiz-adv-x="894" 
d="M315 1434h318l-305 -1434h-318zM637 842h317l-53 -246h-317z" />
    <glyph glyph-name="Lslash" unicode="&#x141;" horiz-adv-x="1368" 
d="M264 344l-246 -139l72 334l244 139l162 756h333l-114 -539l389 221l-72 -334l-389 -221l-59 -285h714l-59 -276h-1049z" />
    <glyph glyph-name="lslash" unicode="&#x142;" horiz-adv-x="886" 
d="M256 424l-244 -137l72 336l244 137l143 674h317l-100 -469l268 151l-71 -336l-269 -151l-133 -629h-317z" />
    <glyph glyph-name="Nacute" unicode="&#x143;" horiz-adv-x="1638" 
d="M770 547q-136 276 -192 426h-9q-24 -196 -80 -451l-110 -522h-334l305 1434h332l266 -547q127 -263 193 -426h8q24 193 80 450l110 523h334l-305 -1434h-334zM995 1802h414l-311 -256h-322z" />
    <glyph glyph-name="nacute" unicode="&#x144;" horiz-adv-x="1310" 
d="M535 973q132 123 325 123q178 0 275.5 -96.5t97.5 -268.5q0 -54 -16 -129l-127 -602h-318l133 625q8 24 8 73q0 142 -159 142q-113 0 -196 -73.5t-112 -203.5l-118 -563h-318l228 1065h317zM766 1434h414l-312 -256h-321z" />
    <glyph glyph-name="uni0145" unicode="&#x145;" horiz-adv-x="1638" 
d="M770 547q-136 276 -192 426h-9q-24 -196 -80 -451l-110 -522h-334l305 1434h332l266 -547q127 -263 193 -426h8q24 193 80 450l110 523h334l-305 -1434h-334zM528 -92h318l-49 -225l-201 -226h-133l139 226h-123z" />
    <glyph glyph-name="uni0146" unicode="&#x146;" horiz-adv-x="1310" 
d="M535 973q132 123 325 123q178 0 275.5 -96.5t97.5 -268.5q0 -54 -16 -129l-127 -602h-318l133 625q8 24 8 73q0 142 -159 142q-113 0 -196 -73.5t-112 -203.5l-118 -563h-318l228 1065h317zM375 -92h317l-49 -225l-201 -226h-133l140 226h-123z" />
    <glyph glyph-name="Ncaron" unicode="&#x147;" horiz-adv-x="1638" 
d="M770 547q-136 276 -192 426h-9q-24 -196 -80 -451l-110 -522h-334l305 1434h332l266 -547q127 -263 193 -426h8q24 193 80 450l110 523h334l-305 -1434h-334zM1157 1802h363l-312 -256h-348l-201 256h334l56 -133z" />
    <glyph glyph-name="ncaron" unicode="&#x148;" horiz-adv-x="1310" 
d="M535 973q132 123 325 123q178 0 275.5 -96.5t97.5 -268.5q0 -54 -16 -129l-127 -602h-318l133 625q8 24 8 73q0 142 -159 142q-113 0 -196 -73.5t-112 -203.5l-118 -563h-318l228 1065h317zM918 1434h362l-311 -256h-348l-201 256h334l55 -134z" />
    <glyph glyph-name="napostrophe" unicode="&#x149;" horiz-adv-x="1521" 
d="M745 973q132 123 326 123q178 0 275.5 -96.5t97.5 -268.5q0 -49 -17 -129l-127 -602h-317l133 625q8 24 8 73q0 142 -159 142q-113 0 -196 -73.5t-112 -203.5l-118 -563h-318l228 1065h317zM221 1434h318l-50 -226l-200 -225h-133l139 225h-123z" />
    <glyph glyph-name="Eng" unicode="&#x14a;" horiz-adv-x="1634" 
d="M977 838q42 -83 75 -163.5t46 -119t37 -113.5h8q26 210 74 430l118 562h334l-313 -1473q-19 -90 -56 -156.5t-84 -107t-111.5 -65t-131.5 -33.5t-152 -9h-252l60 277h231q74 0 114.5 31t57.5 102l-276 547q-122 244 -181 426h-8q-26 -216 -78 -451l-110 -522h-334
l305 1434h328z" />
    <glyph glyph-name="eng" unicode="&#x14b;" horiz-adv-x="1310" 
d="M905 625q8 24 8 73q0 142 -159 142q-113 0 -196 -73.5t-112 -203.5l-118 -563h-318l228 1065h317l-20 -92q132 123 325 123q178 0 275.5 -96.5t97.5 -268.5q0 -54 -16 -129l-146 -680q-35 -160 -142.5 -225.5t-285.5 -65.5h-166l51 236h115q54 0 82 24t39 78z" />
    <glyph glyph-name="Omacron" unicode="&#x14c;" horiz-adv-x="1632" 
d="M438 604q0 -358 336 -358q136 0 252 82t182 216t66 285q0 359 -336 359q-136 0 -252 -82t-182 -216.5t-66 -285.5zM109 604q0 127 37 252t109.5 234t171.5 193t231.5 132.5t279.5 48.5q323 0 494.5 -172t171.5 -463q0 -127 -37 -252t-110 -234t-171.5 -193t-231.5 -132.5
t-280 -48.5q-323 0 -494 172t-171 463zM707 1792h757l-45 -215h-757z" />
    <glyph glyph-name="omacron" unicode="&#x14d;" horiz-adv-x="1271" 
d="M373 451q0 -116 46 -176t156 -60q137 0 231.5 121t94.5 278q0 116 -46.5 176t-156.5 60q-91 0 -166.5 -57.5t-117 -148.5t-41.5 -193zM61 451q0 120 45 235.5t124.5 206.5t202 147t265.5 56q131 0 231.5 -37.5t161 -104t91 -152.5t30.5 -188q0 -120 -45 -235.5
t-124.5 -206.5t-202 -147t-265.5 -56q-131 0 -231.5 37.5t-161 104t-91 152.5t-30.5 188zM446 1423h758l-45 -215h-758z" />
    <glyph glyph-name="Obreve" unicode="&#x14e;" horiz-adv-x="1632" 
d="M438 604q0 -358 336 -358q136 0 252 82t182 216t66 285q0 359 -336 359q-136 0 -252 -82t-182 -216.5t-66 -285.5zM109 604q0 127 37 252t109.5 234t171.5 193t231.5 132.5t279.5 48.5q323 0 494.5 -172t171.5 -463q0 -127 -37 -252t-110 -234t-171.5 -193t-231.5 -132.5
t-280 -48.5q-323 0 -494 172t-171 463zM1061 1526q-161 0 -254.5 97t-85.5 230h203q4 -54 44 -83t103 -29q127 0 174 112h225q-40 -139 -146 -233t-263 -94z" />
    <glyph glyph-name="obreve" unicode="&#x14f;" horiz-adv-x="1271" 
d="M373 451q0 -116 46 -176t156 -60q137 0 231.5 121t94.5 278q0 116 -46.5 176t-156.5 60q-91 0 -166.5 -57.5t-117 -148.5t-41.5 -193zM61 451q0 120 45 235.5t124.5 206.5t202 147t265.5 56q131 0 231.5 -37.5t161 -104t91 -152.5t30.5 -188q0 -120 -45 -235.5
t-124.5 -206.5t-202 -147t-265.5 -56q-131 0 -231.5 37.5t-161 104t-91 152.5t-30.5 188zM803 1157q-161 0 -254.5 97t-85.5 231h203q4 -54 44 -83.5t103 -29.5q127 0 174 113h225q-19 -66 -54 -123.5t-85 -104t-119.5 -73.5t-150.5 -27z" />
    <glyph glyph-name="Ohungarumlaut" unicode="&#x150;" horiz-adv-x="1632" 
d="M438 604q0 -358 336 -358q136 0 252 82t182 216t66 285q0 359 -336 359q-136 0 -252 -82t-182 -216.5t-66 -285.5zM109 604q0 127 37 252t109.5 234t171.5 193t231.5 132.5t279.5 48.5q323 0 494.5 -172t171.5 -463q0 -127 -37 -252t-110 -234t-171.5 -193t-231.5 -132.5
t-280 -48.5q-323 0 -494 172t-171 463zM815 1802h338l-240 -256h-286zM1235 1802h338l-240 -256h-286z" />
    <glyph glyph-name="ohungarumlaut" unicode="&#x151;" horiz-adv-x="1271" 
d="M373 451q0 -116 46 -176t156 -60q137 0 231.5 121t94.5 278q0 116 -46.5 176t-156.5 60q-91 0 -166.5 -57.5t-117 -148.5t-41.5 -193zM61 451q0 120 45 235.5t124.5 206.5t202 147t265.5 56q131 0 231.5 -37.5t161 -104t91 -152.5t30.5 -188q0 -120 -45 -235.5
t-124.5 -206.5t-202 -147t-265.5 -56q-131 0 -231.5 37.5t-161 104t-91 152.5t-30.5 188zM563 1434h338l-239 -256h-287zM983 1434h338l-240 -256h-286z" />
    <glyph glyph-name="OE" unicode="&#x152;" horiz-adv-x="2334" 
d="M109 604q0 127 36 252t107 234t168.5 193t229 132.5t278.5 48.5q272 0 426 -141l24 111h1045l-60 -277h-710l-62 -287h670l-57 -276h-670l-68 -318h711l-59 -276h-1045l14 66q-129 -97 -333 -97q-316 0 -480.5 171.5t-164.5 463.5zM438 604q0 -174 77.5 -266t248.5 -92
q102 0 193.5 48.5t155 128.5t101 186.5t37.5 219.5q0 175 -76 267t-247 92q-134 0 -248 -82t-178 -216.5t-64 -285.5z" />
    <glyph glyph-name="oe" unicode="&#x153;" horiz-adv-x="2066" 
d="M1952 317q-92 -174 -228.5 -261t-330.5 -87q-264 0 -396 158q-174 -158 -422 -158q-131 0 -231.5 37.5t-161 104t-91 152.5t-30.5 188q0 120 45 235.5t124.5 206.5t202 147t265.5 56q274 0 406 -158q182 158 424 158q244 0 364.5 -115t120.5 -324q0 -98 -31 -227h-786
q-2 -16 -2 -39q0 -88 52 -142t147 -54q152 0 204 122h355zM373 451q0 -116 46 -176t156 -60q137 0 231.5 121t94.5 278q0 116 -46.5 176t-156.5 60q-91 0 -166.5 -57.5t-117 -148.5t-41.5 -193zM1528 870q-99 0 -174 -58t-113 -167h455q4 32 4 49q0 176 -172 176z" />
    <glyph glyph-name="Racute" unicode="&#x154;" horiz-adv-x="1521" 
d="M492 532l-113 -532h-334l305 1434h744q96 0 179.5 -32.5t141 -87t90.5 -127.5t33 -153q0 -228 -156.5 -365t-420.5 -137h-11l420 -532h-399l-410 532h-69zM987 799q89 0 154 55.5t65 165.5q0 69 -39.5 103t-103.5 34h-438l-76 -358h438zM932 1802h414l-312 -256h-321z
" />
    <glyph glyph-name="racute" unicode="&#x155;" horiz-adv-x="847" 
d="M549 1434h414l-312 -256h-321zM739 819q-115 0 -187.5 -57.5t-100.5 -188.5l-123 -573h-318l228 1065h317l-23 -104q53 63 129 93.5t195 30.5h84l-57 -266h-144z" />
    <glyph glyph-name="uni0156" unicode="&#x156;" horiz-adv-x="1521" 
d="M492 532l-113 -532h-334l305 1434h744q96 0 179.5 -32.5t141 -87t90.5 -127.5t33 -153q0 -228 -156.5 -365t-420.5 -137h-11l420 -532h-399l-410 532h-69zM987 799q89 0 154 55.5t65 165.5q0 69 -39.5 103t-103.5 34h-438l-76 -358h438zM492 -92h317l-49 -225l-201 -226
h-133l139 226h-123z" />
    <glyph glyph-name="uni0157" unicode="&#x157;" horiz-adv-x="847" 
d="M-4 -92h317l-49 -225l-201 -226h-133l140 226h-123zM739 819q-115 0 -187.5 -57.5t-100.5 -188.5l-123 -573h-318l228 1065h317l-23 -104q53 63 129 93.5t195 30.5h84l-57 -266h-144z" />
    <glyph glyph-name="Rcaron" unicode="&#x158;" horiz-adv-x="1521" 
d="M492 532l-113 -532h-334l305 1434h744q96 0 179.5 -32.5t141 -87t90.5 -127.5t33 -153q0 -228 -156.5 -365t-420.5 -137h-11l420 -532h-399l-410 532h-69zM987 799q89 0 154 55.5t65 165.5q0 69 -39.5 103t-103.5 34h-438l-76 -358h438zM1083 1802h363l-311 -256h-349
l-200 256h334l55 -133z" />
    <glyph glyph-name="rcaron" unicode="&#x159;" horiz-adv-x="847" 
d="M721 1434h362l-311 -256h-348l-201 256h334l55 -134zM739 819q-115 0 -187.5 -57.5t-100.5 -188.5l-123 -573h-318l228 1065h317l-23 -104q53 63 129 93.5t195 30.5h84l-57 -266h-144z" />
    <glyph glyph-name="Sacute" unicode="&#x15a;" horiz-adv-x="1376" 
d="M1092 1044q0 179 -261 179q-79 0 -143.5 -16t-110 -57t-45.5 -101q0 -75 52 -111.5t164 -54.5l98 -15q96 -13 172 -42t135.5 -77.5t92 -122.5t32.5 -169q0 -126 -52 -221.5t-144 -152.5t-207.5 -85.5t-251.5 -28.5q-73 0 -142 9.5t-138.5 30t-127 56.5t-102.5 84
t-70 117.5t-25 153.5h320q0 -115 76 -163t217 -48q59 0 112 9t102 28.5t78 58t29 90.5q0 78 -51 113t-176 55l-98 15q-196 29 -306 143t-110 291q0 93 35.5 169.5t96 128t142.5 87t172.5 51.5t188.5 16q92 0 175 -15.5t154.5 -49t124 -82.5t82 -118.5t29.5 -154.5h-319z
M850 1802h414l-312 -256h-321z" />
    <glyph glyph-name="sacute" unicode="&#x15b;" horiz-adv-x="1122" 
d="M301 317q0 -72 40.5 -105.5t139.5 -33.5q89 0 151 30t62 93q0 19 -7 33.5t-16.5 22.5t-30 15t-35.5 10.5t-46 8.5l-53 8q-108 17 -187 57t-127.5 112t-48.5 169q0 78 29 140t76.5 102.5t113.5 67t136 38t147 11.5q130 0 235 -35.5t170.5 -111t65.5 -181.5h-313
q0 62 -40 90.5t-128 28.5q-48 0 -87 -9t-68 -34.5t-29 -65.5q0 -41 31.5 -63t101.5 -33l53 -8q86 -13 147.5 -34t114 -57t79 -93.5t26.5 -137.5q0 -82 -29.5 -148t-79 -109.5t-117.5 -72t-141.5 -41t-155.5 -12.5q-74 0 -142 10.5t-132.5 36t-112 64t-76 99.5t-28.5 138h311
zM657 1434h414l-311 -256h-322z" />
    <glyph glyph-name="Scircumflex" unicode="&#x15c;" horiz-adv-x="1376" 
d="M1092 1044q0 179 -261 179q-79 0 -143.5 -16t-110 -57t-45.5 -101q0 -75 52 -111.5t164 -54.5l98 -15q96 -13 172 -42t135.5 -77.5t92 -122.5t32.5 -169q0 -126 -52 -221.5t-144 -152.5t-207.5 -85.5t-251.5 -28.5q-73 0 -142 9.5t-138.5 30t-127 56.5t-102.5 84
t-70 117.5t-25 153.5h320q0 -115 76 -163t217 -48q59 0 112 9t102 28.5t78 58t29 90.5q0 78 -51 113t-176 55l-98 15q-196 29 -306 143t-110 291q0 93 35.5 169.5t96 128t142.5 87t172.5 51.5t188.5 16q92 0 175 -15.5t154.5 -49t124 -82.5t82 -118.5t29.5 -154.5h-319z
M913 1679l-108 -133h-359l312 256h348l201 -256h-338z" />
    <glyph glyph-name="scircumflex" unicode="&#x15d;" horiz-adv-x="1122" 
d="M301 317q0 -72 40.5 -105.5t139.5 -33.5q89 0 151 30t62 93q0 19 -7 33.5t-16.5 22.5t-30 15t-35.5 10.5t-46 8.5l-53 8q-108 17 -187 57t-127.5 112t-48.5 169q0 78 29 140t76.5 102.5t113.5 67t136 38t147 11.5q130 0 235 -35.5t170.5 -111t65.5 -181.5h-313
q0 62 -40 90.5t-128 28.5q-48 0 -87 -9t-68 -34.5t-29 -65.5q0 -41 31.5 -63t101.5 -33l53 -8q86 -13 147.5 -34t114 -57t79 -93.5t26.5 -137.5q0 -82 -29.5 -148t-79 -109.5t-117.5 -72t-141.5 -41t-155.5 -12.5q-74 0 -142 10.5t-132.5 36t-112 64t-76 99.5t-28.5 138h311
zM723 1311l-109 -133h-358l311 256h348l201 -256h-338z" />
    <glyph glyph-name="Scedilla" unicode="&#x15e;" horiz-adv-x="1376" 
d="M481 -276q0 -41 51 -41q34 0 56 21.5t22 51.5q0 49 -51 49q-28 0 -49 -18l-92 113l92 75q-76 7 -145 26t-133.5 54.5t-111 85t-74.5 121t-28 158.5h320q0 -115 76 -163t217 -48q59 0 112 9t102 28.5t78 58t29 90.5q0 78 -51 113t-176 55l-98 15q-196 29 -306 143
t-110 291q0 93 35.5 169.5t96 128t142.5 87t172.5 51.5t188.5 16q92 0 175 -15.5t154.5 -49t124 -82.5t82 -118.5t29.5 -154.5h-319q0 179 -261 179q-79 0 -143.5 -16t-110 -57t-45.5 -101q0 -75 52 -111.5t164 -54.5l98 -15q96 -13 172 -42t135.5 -77.5t92 -122.5
t32.5 -169q0 -111 -40.5 -198.5t-114 -145t-167.5 -91.5t-208 -47l-93 -75q58 -4 89.5 -39.5t31.5 -91.5q0 -99 -72 -164.5t-182 -65.5q-82 0 -142.5 46.5t-60.5 138.5h162z" />
    <glyph glyph-name="scedilla" unicode="&#x15f;" horiz-adv-x="1122" 
d="M317 -276q0 -41 52 -41q34 0 55.5 21.5t21.5 51.5q0 49 -51 49q-28 0 -49 -18l-92 113l96 77q-76 11 -138.5 34.5t-113.5 63.5t-79.5 101.5t-28.5 140.5h311q0 -72 40.5 -105.5t139.5 -33.5q89 0 151 30t62 93q0 19 -7 33.5t-16.5 22.5t-30 15t-35.5 10.5t-46 8.5l-53 8
q-108 17 -187 57t-127.5 112t-48.5 169q0 78 29 140t76.5 102.5t113.5 67t136 38t147 11.5q130 0 235 -35.5t170.5 -111t65.5 -181.5h-313q0 62 -40 90.5t-128 28.5q-48 0 -87 -9t-68 -34.5t-29 -65.5q0 -41 31.5 -63t101.5 -33l53 -8q86 -13 147.5 -34t114 -57t79 -93.5
t26.5 -137.5q0 -72 -22.5 -131.5t-61 -101t-92.5 -72.5t-114.5 -48t-129.5 -24l-92 -75q58 -4 89 -39.5t31 -91.5q0 -99 -72 -164.5t-182 -65.5q-82 0 -142 46.5t-60 138.5h161z" />
    <glyph glyph-name="Scaron" unicode="&#x160;" horiz-adv-x="1376" 
d="M1092 1044q0 179 -261 179q-79 0 -143.5 -16t-110 -57t-45.5 -101q0 -75 52 -111.5t164 -54.5l98 -15q96 -13 172 -42t135.5 -77.5t92 -122.5t32.5 -169q0 -126 -52 -221.5t-144 -152.5t-207.5 -85.5t-251.5 -28.5q-73 0 -142 9.5t-138.5 30t-127 56.5t-102.5 84
t-70 117.5t-25 153.5h320q0 -115 76 -163t217 -48q59 0 112 9t102 28.5t78 58t29 90.5q0 78 -51 113t-176 55l-98 15q-196 29 -306 143t-110 291q0 93 35.5 169.5t96 128t142.5 87t172.5 51.5t188.5 16q92 0 175 -15.5t154.5 -49t124 -82.5t82 -118.5t29.5 -154.5h-319z
M999 1802h363l-311 -256h-349l-200 256h334l55 -133z" />
    <glyph glyph-name="scaron" unicode="&#x161;" horiz-adv-x="1122" 
d="M301 317q0 -72 40.5 -105.5t139.5 -33.5q89 0 151 30t62 93q0 19 -7 33.5t-16.5 22.5t-30 15t-35.5 10.5t-46 8.5l-53 8q-108 17 -187 57t-127.5 112t-48.5 169q0 78 29 140t76.5 102.5t113.5 67t136 38t147 11.5q130 0 235 -35.5t170.5 -111t65.5 -181.5h-313
q0 62 -40 90.5t-128 28.5q-48 0 -87 -9t-68 -34.5t-29 -65.5q0 -41 31.5 -63t101.5 -33l53 -8q86 -13 147.5 -34t114 -57t79 -93.5t26.5 -137.5q0 -82 -29.5 -148t-79 -109.5t-117.5 -72t-141.5 -41t-155.5 -12.5q-74 0 -142 10.5t-132.5 36t-112 64t-76 99.5t-28.5 138h311
zM809 1434h362l-311 -256h-348l-201 256h334l55 -134z" />
    <glyph glyph-name="uni0162" unicode="&#x162;" horiz-adv-x="1292" 
d="M383 -276q0 -41 51 -41q34 0 56 21.5t22 51.5q0 49 -51 49q-28 0 -49 -18l-93 113l123 100h-75l245 1157h-460l59 277h1255l-59 -277h-461l-246 -1157h-22l-121 -100q58 -4 89.5 -39.5t31.5 -91.5q0 -99 -72 -164.5t-182 -65.5q-82 0 -142.5 46.5t-60.5 138.5h162z" />
    <glyph glyph-name="uni0163" unicode="&#x163;" horiz-adv-x="929" 
d="M272 -276q0 -41 52 -41q34 0 55.5 21.5t21.5 51.5q0 49 -51 49q-28 0 -49 -18l-92 113l151 123q-143 52 -143 217q0 40 12 98l103 481h-256l53 246h256l51 246h318l-52 -246h297l-53 -246h-297l-108 -512q-4 -20 -4 -28q0 -43 59 -43h225l-51 -236h-201l-123 -100
q58 -4 89.5 -39.5t31.5 -91.5q0 -99 -72 -164.5t-182 -65.5q-82 0 -142 46.5t-60 138.5h161z" />
    <glyph glyph-name="Tcaron" unicode="&#x164;" horiz-adv-x="1292" 
d="M1407 1157h-461l-246 -1157h-333l245 1157h-460l59 277h1255zM985 1802h363l-312 -256h-348l-201 256h334l56 -133z" />
    <glyph glyph-name="tcaron" unicode="&#x165;" horiz-adv-x="929" 
d="M973 1628h323l-227 -440h-252zM506 0q-137 0 -213 60t-76 180q0 40 12 98l103 481h-256l53 246h256l51 246h318l-52 -246h297l-53 -246h-297l-108 -512q-4 -20 -4 -28q0 -43 59 -43h225l-51 -236h-264z" />
    <glyph glyph-name="Tbar" unicode="&#x166;" horiz-adv-x="1329" 
d="M268 860h297l64 297h-461l59 277h1256l-60 -277h-460l-64 -297h297l-55 -266h-297l-127 -594h-334l127 594h-297z" />
    <glyph glyph-name="tbar" unicode="&#x167;" horiz-adv-x="931" 
d="M578 481l-37 -174q-4 -20 -4 -28q0 -43 59 -43h225l-51 -236h-264q-137 0 -213 60t-76 180q0 40 12 98l31 143h-166l45 215h166l27 123h-256l53 246h256l51 246h318l-52 -246h297l-53 -246h-297l-26 -123h223l-45 -215h-223z" />
    <glyph glyph-name="Utilde" unicode="&#x168;" horiz-adv-x="1519" 
d="M668 -31q-121 0 -222 37.5t-168.5 103.5t-105 156.5t-37.5 194.5q0 49 17 129l180 844h334l-193 -902q-10 -52 -10 -75q0 -101 63 -156t170 -55q127 0 222.5 75t123.5 211l193 902h334l-207 -963q-50 -234 -231.5 -368t-462.5 -134zM575 1556q24 134 100.5 210.5
t196.5 76.5q52 0 99.5 -17.5t76 -38.5t63.5 -38.5t65 -17.5q52 0 67 71h184q-25 -134 -101 -210t-196 -76q-52 0 -99 17.5t-76 38.5t-64 38.5t-66 17.5q-50 0 -65 -72h-185z" />
    <glyph glyph-name="utilde" unicode="&#x169;" horiz-adv-x="1302" 
d="M768 92q-129 -123 -315 -123q-173 0 -274 98t-101 265q0 54 16 129l129 604h318l-133 -625q-11 -57 -11 -73q0 -142 162 -142q112 0 189 73t106 204l119 563h319l-227 -1065h-317zM383 1188q24 134 100.5 210.5t196.5 76.5q52 0 99 -17.5t76 -39t63.5 -39t64.5 -17.5
q53 0 68 72h184q-25 -134 -101 -210.5t-196 -76.5q-52 0 -99 17.5t-76 39t-64 39t-66 17.5q-51 0 -66 -72h-184z" />
    <glyph glyph-name="Umacron" unicode="&#x16a;" horiz-adv-x="1519" 
d="M668 -31q-121 0 -222 37.5t-168.5 103.5t-105 156.5t-37.5 194.5q0 49 17 129l180 844h334l-193 -902q-10 -52 -10 -75q0 -101 63 -156t170 -55q127 0 222.5 75t123.5 211l193 902h334l-207 -963q-50 -234 -231.5 -368t-462.5 -134zM647 1792h758l-45 -215h-758z" />
    <glyph glyph-name="umacron" unicode="&#x16b;" horiz-adv-x="1302" 
d="M768 92q-129 -123 -315 -123q-173 0 -274 98t-101 265q0 54 16 129l129 604h318l-133 -625q-11 -57 -11 -73q0 -142 162 -142q112 0 189 73t106 204l119 563h319l-227 -1065h-317zM453 1423h757l-45 -215h-757z" />
    <glyph glyph-name="Ubreve" unicode="&#x16c;" horiz-adv-x="1519" 
d="M668 -31q-121 0 -222 37.5t-168.5 103.5t-105 156.5t-37.5 194.5q0 49 17 129l180 844h334l-193 -902q-10 -52 -10 -75q0 -101 63 -156t170 -55q127 0 222.5 75t123.5 211l193 902h334l-207 -963q-50 -234 -231.5 -368t-462.5 -134zM1001 1526q-161 0 -254 96.5
t-85 230.5h202q4 -54 44.5 -83t103.5 -29q127 0 174 112h225q-40 -139 -146.5 -233t-263.5 -94z" />
    <glyph glyph-name="ubreve" unicode="&#x16d;" horiz-adv-x="1302" 
d="M768 92q-129 -123 -315 -123q-173 0 -274 98t-101 265q0 54 16 129l129 604h318l-133 -625q-11 -57 -11 -73q0 -142 162 -142q112 0 189 73t106 204l119 563h319l-227 -1065h-317zM809 1157q-161 0 -254.5 97t-85.5 231h203q4 -54 44 -83.5t103 -29.5q127 0 174 113h226
q-40 -139 -146.5 -233.5t-263.5 -94.5z" />
    <glyph glyph-name="Uring" unicode="&#x16e;" horiz-adv-x="1519" 
d="M668 -31q-121 0 -222 37.5t-168.5 103.5t-105 156.5t-37.5 194.5q0 49 17 129l180 844h334l-193 -902q-10 -52 -10 -75q0 -101 63 -156t170 -55q127 0 222.5 75t123.5 211l193 902h334l-207 -963q-50 -234 -231.5 -368t-462.5 -134zM856 1620q0 -41 25.5 -66.5
t68.5 -25.5q52 0 92.5 38.5t40.5 94.5q0 41 -25.5 66.5t-68.5 25.5q-52 0 -92.5 -38.5t-40.5 -94.5zM1260 1661q0 -117 -93.5 -202t-216.5 -85q-124 0 -197 70.5t-73 175.5q0 117 93 202t216 85q124 0 197.5 -70.5t73.5 -175.5z" />
    <glyph glyph-name="uring" unicode="&#x16f;" horiz-adv-x="1302" 
d="M768 92q-129 -123 -315 -123q-173 0 -274 98t-101 265q0 54 16 129l129 604h318l-133 -625q-11 -57 -11 -73q0 -142 162 -142q112 0 189 73t106 204l119 563h319l-227 -1065h-317zM707 1382q0 -41 25.5 -66.5t68.5 -25.5q52 0 92.5 38.5t40.5 94.5q0 41 -26 67t-68 26
q-52 0 -92.5 -39t-40.5 -95zM1110 1423q0 -117 -93 -201.5t-216 -84.5q-124 0 -197.5 70t-73.5 175q0 117 93.5 202t216.5 85q124 0 197 -70.5t73 -175.5z" />
    <glyph glyph-name="Uhungarumlaut" unicode="&#x170;" horiz-adv-x="1519" 
d="M668 -31q-121 0 -222 37.5t-168.5 103.5t-105 156.5t-37.5 194.5q0 49 17 129l180 844h334l-193 -902q-10 -52 -10 -75q0 -101 63 -156t170 -55q127 0 222.5 75t123.5 211l193 902h334l-207 -963q-50 -234 -231.5 -368t-462.5 -134zM752 1802h338l-240 -256h-287z
M1171 1802h338l-239 -256h-287z" />
    <glyph glyph-name="uhungarumlaut" unicode="&#x171;" horiz-adv-x="1302" 
d="M768 92q-129 -123 -315 -123q-173 0 -274 98t-101 265q0 54 16 129l129 604h318l-133 -625q-11 -57 -11 -73q0 -142 162 -142q112 0 189 73t106 204l119 563h319l-227 -1065h-317zM559 1434h338l-240 -256h-286zM979 1434h338l-240 -256h-286z" />
    <glyph glyph-name="Uogonek" unicode="&#x172;" horiz-adv-x="1519" 
d="M885 -266q54 0 116 16l-120 -205q-62 -16 -121 -16q-109 0 -184.5 64.5t-75.5 160.5q0 135 125 217q-224 12 -357 149t-133 341q0 49 17 129l180 844h334l-193 -902q-10 -52 -10 -75q0 -101 63 -156t170 -55q127 0 222.5 75t123.5 211l193 902h334l-207 -963
q-22 -98 -65 -179.5t-95 -135t-110 -97t-111.5 -75t-97 -59.5t-69.5 -59.5t-26 -66.5q0 -65 97 -65z" />
    <glyph glyph-name="uogonek" unicode="&#x173;" horiz-adv-x="1302" 
d="M915 -266q55 0 117 16l-121 -205q-62 -16 -120 -16q-110 0 -185.5 64.5t-75.5 160.5q0 176 222 266l16 72q-129 -123 -315 -123q-173 0 -274 98t-101 265q0 54 16 129l129 604h318l-133 -625q-11 -57 -11 -73q0 -142 162 -142q112 0 189 73t106 204l119 563h319
l-227 -1065q-246 -102 -246 -201q0 -65 96 -65z" />
    <glyph glyph-name="Wcircumflex" unicode="&#x174;" horiz-adv-x="2023" 
d="M1356 1434l35 -594q6 -132 6 -246q0 -109 -2 -164h10q85 228 170 410l283 594h346l-715 -1434h-332l-37 594q-8 96 -8 246q0 62 4 164h-8q-102 -266 -160 -381l-303 -623h-336l-104 1434h321l29 -594q6 -114 6 -211q0 -67 -4 -199h8q91 237 174 410l289 594h328z
M1266 1679l-109 -133h-358l311 256h348l201 -256h-338z" />
    <glyph glyph-name="wcircumflex" unicode="&#x175;" horiz-adv-x="1685" 
d="M1100 1065l28 -348q9 -102 9 -197q0 -128 -7 -192h9q6 17 37.5 104t57.5 153.5t56 131.5l158 348h336l-545 -1065h-319l-29 348q-6 79 -6 170q0 114 6 209h-8q-92 -247 -160 -379l-176 -348h-326l-90 1065h313l13 -348q0 -15 1 -46t1 -46q0 -89 -13 -297h9
q92 249 163 389l177 348h305zM1018 1311l-109 -133h-358l311 256h348l201 -256h-338z" />
    <glyph glyph-name="Ycircumflex" unicode="&#x176;" horiz-adv-x="1304" 
d="M492 553l-295 881h329l170 -594l424 594h373l-668 -881l-118 -553h-334zM905 1679l-108 -133h-359l312 256h348l200 -256h-337z" />
    <glyph glyph-name="ycircumflex" unicode="&#x177;" horiz-adv-x="1114" 
d="M731 1311l-108 -133h-359l311 256h349l200 -256h-338zM-98 -369l51 236h135q73 0 121.5 30.5t89.5 102.5l-174 1065h313l47 -356q17 -133 17 -361h8q99 232 170 359l199 358h342l-666 -1141q-40 -72 -79 -121t-94 -90.5t-129.5 -61.5t-170.5 -20h-180z" />
    <glyph glyph-name="Ydieresis" unicode="&#x178;" horiz-adv-x="1304" 
d="M492 553l-295 881h329l170 -594l424 594h373l-668 -881l-118 -553h-334zM522 1802h318l-54 -246h-317zM1008 1802h317l-53 -246h-318z" />
    <glyph glyph-name="Zacute" unicode="&#x179;" horiz-adv-x="1310" 
d="M1130 0h-1167l60 276l882 881h-676l60 277h1116l-59 -277l-883 -881h727zM846 1802h414l-312 -256h-321z" />
    <glyph glyph-name="zacute" unicode="&#x17a;" horiz-adv-x="1122" 
d="M995 246l-53 -246h-983l53 246l641 573h-499l53 246h942l-53 -246l-641 -573h540zM672 1434h413l-311 -256h-321z" />
    <glyph glyph-name="Zdotaccent" unicode="&#x17b;" horiz-adv-x="1310" 
d="M1130 0h-1167l60 276l882 881h-676l60 277h1116l-59 -277l-883 -881h727zM762 1802h317l-53 -246h-317z" />
    <glyph glyph-name="zdotaccent" unicode="&#x17c;" horiz-adv-x="1122" 
d="M995 246l-53 -246h-983l53 246l641 573h-499l53 246h942l-53 -246l-641 -573h540zM600 1434h318l-54 -246h-317z" />
    <glyph glyph-name="Zcaron" unicode="&#x17d;" horiz-adv-x="1310" 
d="M1130 0h-1167l60 276l882 881h-676l60 277h1116l-59 -277l-883 -881h727zM997 1802h363l-311 -256h-349l-200 256h334l55 -133z" />
    <glyph glyph-name="zcaron" unicode="&#x17e;" horiz-adv-x="1122" 
d="M995 246l-53 -246h-983l53 246l641 573h-499l53 246h942l-53 -246l-641 -573h540zM823 1434h363l-312 -256h-348l-200 256h333l56 -134z" />
    <glyph glyph-name="longs" unicode="&#x17f;" horiz-adv-x="720" 
d="M139 1065h215l21 96q32 153 125.5 213t259.5 60h248l-52 -236h-186q-71 0 -86 -72l-240 -1126h-317l174 819h-215z" />
    <glyph glyph-name="uni018F" unicode="&#x18f;" horiz-adv-x="1566" 
d="M207 1044q54 94 119 167.5t150 132t196 89.5t241 31q148 0 267 -46.5t197 -129t119.5 -194.5t41.5 -244q0 -247 -110.5 -448t-311.5 -317t-454 -116q-141 0 -250.5 45t-177.5 125.5t-103 188.5t-35 239q0 141 33 273h1075q2 23 2 49q0 140 -81.5 224.5t-231.5 84.5
q-195 0 -311 -154h-375zM696 236q153 0 273 93.5t174 243.5h-723q-2 -23 -2 -51q0 -130 68 -208t210 -78z" />
    <glyph glyph-name="uni0190" unicode="&#x190;" horiz-adv-x="1376" 
d="M897 602h-209q-303 0 -303 -192q0 -91 78 -139t203 -48q148 0 225 54.5t96 142.5h328q-24 -90 -75.5 -168.5t-132 -143t-200 -102t-264.5 -37.5q-166 0 -298 47.5t-210 142t-78 222.5q0 138 77 239.5t226 141.5q-135 93 -135 262q0 90 40 169t114.5 140t192.5 96t264 35
q268 0 422.5 -118t154.5 -302h-328q-2 72 -67.5 119t-183.5 47q-142 0 -211.5 -55.5t-69.5 -138.5q0 -64 50.5 -106t158.5 -42h192z" />
    <glyph glyph-name="florin" unicode="&#x192;" horiz-adv-x="1030" 
d="M365 819h-228l53 246h271l35 92q32 87 74 143t99 85t117 39t146 10h242l-52 -236h-202q-45 0 -67 -16t-40 -56l-25 -61h306l-54 -246h-346l-358 -923q-27 -70 -60.5 -118t-69 -77t-85.5 -44.5t-98 -20.5t-119 -5h-193l51 236h152q45 0 66.5 15.5t39.5 56.5z" />
    <glyph glyph-name="uni0194" unicode="&#x194;" horiz-adv-x="1370" 
d="M887 -47q0 -141 -96.5 -231.5t-249.5 -90.5q-132 0 -221 67t-89 181q0 80 47 164.5t207 304.5l-284 1086h317l105 -439q40 -150 65 -354h6q57 117 219 354l293 439h348l-745 -1102q6 -25 19.5 -76.5t18 -71t13.5 -56.5t12 -54l7.5 -42.5t6 -43.5t1.5 -35zM598 94
q-94 -140 -94 -196q0 -54 47 -54q30 0 48.5 29.5t18.5 73.5q0 33 -20 147z" />
    <glyph glyph-name="uni0197" unicode="&#x197;" horiz-adv-x="757" 
d="M115 870h166l120 564h334l-121 -564h168l-57 -266h-166l-129 -604h-334l129 604h-168z" />
    <glyph glyph-name="uni019D" unicode="&#x19d;" horiz-adv-x="1638" 
d="M362 -78q-35 -160 -142.5 -225.5t-285.5 -65.5h-161l59 277h94q54 0 82 24t39 78l303 1424h332l266 -547q127 -263 193 -426h8q24 193 80 450l110 523h334l-305 -1434h-334l-264 547q-136 276 -192 426h-9q-24 -196 -80 -451z" />
    <glyph glyph-name="uni01B5" unicode="&#x1b5;" horiz-adv-x="1327" 
d="M217 860h397l299 297h-675l59 277h1116l-59 -277l-299 -297h207l-58 -266h-416l-317 -318h727l-59 -276h-1168l60 276l317 318h-188z" />
    <glyph glyph-name="uni01B6" unicode="&#x1b6;" horiz-adv-x="1130" 
d="M154 655h319l184 164h-499l53 246h942l-53 -246l-185 -164h129l-45 -215h-323l-217 -194h540l-53 -246h-983l53 246l217 194h-124z" />
    <glyph glyph-name="uni01CD" unicode="&#x1cd;" horiz-adv-x="1474" 
d="M1004 287h-594l-174 -287h-361l889 1434h332l278 -1434h-319zM575 563h377l-28 164q-28 152 -43 358h-9q-89 -181 -196 -358zM1087 1802h363l-311 -256h-348l-201 256h334l55 -133z" />
    <glyph glyph-name="uni01CE" unicode="&#x1ce;" horiz-adv-x="1222" 
d="M162 768q139 328 567 328q187 0 305.5 -84.5t118.5 -243.5q0 -46 -12 -98l-142 -670h-317l16 82q-130 -113 -336 -113q-146 0 -250 85t-104 222q0 92 34 163t97.5 117t145 73t184.5 37l362 32q9 40 9 66q0 54 -35.5 80t-122.5 26q-146 0 -186 -102h-334zM451 195
q120 0 212.5 70.5t116.5 195.5l6 31l-294 -31q-87 -10 -126.5 -53.5t-39.5 -108.5q0 -48 32.5 -76t92.5 -28zM889 1434h362l-311 -256h-348l-201 256h334l55 -134z" />
    <glyph glyph-name="uni01CF" unicode="&#x1cf;" horiz-adv-x="649" 
d="M45 0l305 1434h334l-305 -1434h-334zM674 1802h362l-311 -256h-348l-201 256h334l55 -133z" />
    <glyph glyph-name="uni01D0" unicode="&#x1d0;" horiz-adv-x="565" 
d="M238 1065h317l-227 -1065h-318zM555 1434h363l-312 -256h-348l-201 256h334l55 -134z" />
    <glyph glyph-name="uni01D1" unicode="&#x1d1;" horiz-adv-x="1632" 
d="M438 604q0 -358 336 -358q136 0 252 82t182 216t66 285q0 359 -336 359q-136 0 -252 -82t-182 -216.5t-66 -285.5zM109 604q0 127 37 252t109.5 234t171.5 193t231.5 132.5t279.5 48.5q323 0 494.5 -172t171.5 -463q0 -127 -37 -252t-110 -234t-171.5 -193t-231.5 -132.5
t-280 -48.5q-323 0 -494 172t-171 463zM1100 1802h362l-311 -256h-348l-201 256h334l55 -133z" />
    <glyph glyph-name="uni01D2" unicode="&#x1d2;" horiz-adv-x="1271" 
d="M373 451q0 -116 46 -176t156 -60q137 0 231.5 121t94.5 278q0 116 -46.5 176t-156.5 60q-91 0 -166.5 -57.5t-117 -148.5t-41.5 -193zM61 451q0 120 45 235.5t124.5 206.5t202 147t265.5 56q131 0 231.5 -37.5t161 -104t91 -152.5t30.5 -188q0 -120 -45 -235.5
t-124.5 -206.5t-202 -147t-265.5 -56q-131 0 -231.5 37.5t-161 104t-91 152.5t-30.5 188zM856 1434h363l-312 -256h-348l-201 256h334l56 -134z" />
    <glyph glyph-name="uni01D3" unicode="&#x1d3;" horiz-adv-x="1519" 
d="M668 -31q-121 0 -222 37.5t-168.5 103.5t-105 156.5t-37.5 194.5q0 49 17 129l180 844h334l-193 -902q-10 -52 -10 -75q0 -101 63 -156t170 -55q127 0 222.5 75t123.5 211l193 902h334l-207 -963q-50 -234 -231.5 -368t-462.5 -134zM1090 1802h362l-311 -256h-348
l-201 256h334l55 -133z" />
    <glyph glyph-name="uni01D4" unicode="&#x1d4;" horiz-adv-x="1302" 
d="M768 92q-129 -123 -315 -123q-173 0 -274 98t-101 265q0 54 16 129l129 604h318l-133 -625q-11 -57 -11 -73q0 -142 162 -142q112 0 189 73t106 204l119 563h319l-227 -1065h-317zM918 1434h362l-311 -256h-348l-201 256h334l55 -134z" />
    <glyph glyph-name="Gcaron" unicode="&#x1e6;" horiz-adv-x="1581" 
d="M743 -31q-156 0 -277.5 46t-199 130.5t-117.5 200t-40 258.5q0 127 36 252t108 234.5t170 193t231.5 132t283.5 48.5q501 0 602 -420h-338q-27 75 -89.5 112.5t-174.5 37.5q-139 0 -255.5 -84t-180.5 -219t-64 -287q0 -176 79.5 -270t256.5 -94q144 0 240.5 74t140.5 208
h-311l57 277h635l-170 -799h-258v76q-138 -107 -365 -107zM1100 1802h362l-311 -256h-348l-201 256h334l55 -133z" />
    <glyph glyph-name="gcaron" unicode="&#x1e7;" horiz-adv-x="1318" 
d="M788 133q-116 -102 -292 -102q-125 0 -224.5 61.5t-152.5 163t-53 221.5q0 114 46 225.5t124 198.5t192.5 141t241.5 54q122 0 197.5 -46t99.5 -96l22 111h320l-199 -932q-53 -249 -222 -390.5t-399 -141.5q-214 0 -343.5 86.5t-129.5 240.5h312q6 -102 164 -102
q97 0 176.5 77t119.5 230zM702 860q-91 0 -166.5 -58t-115 -145.5t-39.5 -179.5q0 -101 54.5 -156t139.5 -55q111 0 202.5 80.5t119.5 216.5q8 41 8 82q0 102 -55 158.5t-148 56.5zM938 1434h362l-311 -256h-348l-201 256h334l55 -134z" />
    <glyph glyph-name="uni01E8" unicode="&#x1e8;" horiz-adv-x="1476" 
d="M510 641l-137 -641h-328l305 1434h328l-117 -547l643 547h457l-844 -697l580 -737h-406zM1059 1802h362l-311 -256h-348l-201 256h334l55 -133z" />
    <glyph glyph-name="uni01E9" unicode="&#x1e9;" horiz-adv-x="1222" 
d="M1151 0h-389l-338 455l-96 -455h-318l305 1434h318l-156 -732l432 363h428l-622 -512zM958 1802h363l-311 -256h-348l-201 256h334l55 -133z" />
    <glyph glyph-name="uni01EA" unicode="&#x1ea;" horiz-adv-x="1632" 
d="M860 -266q55 0 117 16l-121 -205q-62 -16 -121 -16q-109 0 -184.5 64.5t-75.5 160.5q0 144 143 228q-252 40 -380.5 204t-128.5 418q0 127 37 252t109.5 234t171.5 193t231.5 132.5t279.5 48.5q323 0 494.5 -172t171.5 -463q0 -168 -61.5 -325t-177 -280t-267.5 -189
q-19 -8 -60.5 -25t-66.5 -28t-61.5 -28t-58.5 -32.5t-44 -35t-32.5 -41.5t-10.5 -46q0 -65 96 -65zM438 604q0 -358 336 -358q136 0 252 82t182 216t66 285q0 359 -336 359q-136 0 -252 -82t-182 -216.5t-66 -285.5z" />
    <glyph glyph-name="uni01EB" unicode="&#x1eb;" horiz-adv-x="1271" 
d="M653 -266q55 0 117 16l-121 -205q-62 -16 -121 -16q-109 0 -184.5 64.5t-75.5 160.5q0 146 150 232q-179 40 -268 164t-89 301q0 120 45 235.5t124.5 206.5t202 147t265.5 56q131 0 231.5 -37.5t161 -104t91 -152.5t30.5 -188q0 -112 -39 -221.5t-119 -204.5t-188 -151
q-22 -11 -71 -34.5t-68 -33t-54.5 -29.5t-50 -32.5t-33.5 -31t-25.5 -37.5t-6.5 -40q0 -65 96 -65zM373 451q0 -116 46 -176t156 -60q137 0 231.5 121t94.5 278q0 116 -46.5 176t-156.5 60q-91 0 -166.5 -57.5t-117 -148.5t-41.5 -193z" />
    <glyph glyph-name="uni01F8" unicode="&#x1f8;" horiz-adv-x="1638" 
d="M770 547q-136 276 -192 426h-9q-24 -196 -80 -451l-110 -522h-334l305 1434h332l266 -547q127 -263 193 -426h8q24 193 80 450l110 523h334l-305 -1434h-334zM1190 1546h-272l-201 256h364z" />
    <glyph glyph-name="uni01F9" unicode="&#x1f9;" horiz-adv-x="1310" 
d="M535 973q132 123 325 123q178 0 275.5 -96.5t97.5 -268.5q0 -54 -16 -129l-127 -602h-318l133 625q8 24 8 73q0 142 -159 142q-113 0 -196 -73.5t-112 -203.5l-118 -563h-318l228 1065h317zM1006 1178h-273l-201 256h365z" />
    <glyph glyph-name="Aringacute" unicode="&#x1fa;" horiz-adv-x="1476" 
d="M1004 287h-594l-174 -287h-361l764 1233q-12 37 -12 78q0 117 93 201.5t216 84.5q124 0 197 -70t73 -175q0 -96 -61 -170l229 -1182h-319zM930 1905h413l-311 -256h-321zM803 1311q0 -41 25.5 -66.5t68.5 -25.5q52 0 92.5 38.5t40.5 94.5q0 41 -25.5 66.5t-68.5 25.5
q-52 0 -92.5 -38.5t-40.5 -94.5zM862 1065q-85 -174 -186 -338l-101 -164h377l-28 164q-16 81 -28.5 188.5t-12.5 149.5h-21z" />
    <glyph glyph-name="aringacute" unicode="&#x1fb;" horiz-adv-x="1222" 
d="M1053 1249q0 -116 -88 -198q89 -38 138.5 -109.5t49.5 -173.5q0 -46 -12 -98l-142 -670h-317l16 82q-130 -113 -336 -113q-146 0 -250 85t-104 222q0 92 34 163t97.5 117t145 73t184.5 37l362 32q9 40 9 66q0 54 -35.5 80t-122.5 26q-146 0 -186 -102h-334
q100 238 352 301q-41 65 -41 139q0 117 93 202t216 85q124 0 197.5 -70.5t73.5 -175.5zM451 195q120 0 212.5 70.5t116.5 195.5l6 31l-294 -31q-87 -10 -126.5 -53.5t-39.5 -108.5q0 -48 32.5 -76t92.5 -28zM797 1802h413l-311 -256h-321zM649 1208q0 -41 25.5 -66.5
t68.5 -25.5q52 0 93 38.5t41 94.5q0 41 -26 66.5t-69 25.5q-52 0 -92.5 -38.5t-40.5 -94.5z" />
    <glyph glyph-name="AEacute" unicode="&#x1fc;" horiz-adv-x="2283" 
d="M2372 1434l-60 -277h-710l-62 -287h670l-58 -276h-669l-68 -318h711l-60 -276h-1044l61 287h-577l-252 -287h-401l1267 1434h1252zM748 563h393l127 594h-11q-134 -168 -288 -342zM1700 1802h414l-312 -256h-321z" />
    <glyph glyph-name="aeacute" unicode="&#x1fd;" horiz-adv-x="1959" 
d="M451 195q120 0 212.5 70.5t116.5 195.5l6 31l-294 -31q-87 -10 -126.5 -53.5t-39.5 -108.5q0 -48 32.5 -76t92.5 -28zM1421 870q-99 0 -173.5 -58t-112.5 -167h454q4 32 4 49q0 176 -172 176zM1286 -31q-292 0 -422 187q-187 -187 -491 -187q-154 0 -259.5 85t-105.5 222
q0 92 34 163t97.5 117t145 73t184.5 37l362 32q9 40 9 66q0 54 -35.5 80t-122.5 26q-146 0 -186 -102h-334q139 328 567 328q219 0 332 -107q169 107 360 107q244 0 365 -115t121 -324q0 -98 -31 -227h-786q-3 -24 -3 -39q0 -88 52 -142t147 -54q153 0 205 122h354
q-92 -174 -228.5 -261t-330.5 -87zM1090 1434h413l-311 -256h-322z" />
    <glyph glyph-name="Oslashacute" unicode="&#x1fe;" horiz-adv-x="1634" 
d="M975 1802h414l-312 -256h-321zM199 242q-90 143 -90 362q0 127 37 252t109.5 234t171.5 193t231.5 132.5t279.5 48.5q261 0 424 -114l119 114h319l-287 -274q91 -144 91 -361q0 -127 -37 -252t-110 -234t-171.5 -193t-231.5 -132.5t-280 -48.5q-256 0 -422 113l-119 -113
h-319zM438 604q0 -63 13 -123l688 658q-76 49 -201 49q-136 0 -252 -82t-182 -216.5t-66 -285.5zM1274 829q0 65 -12 121l-689 -657q77 -47 201 -47q136 0 252 82t182 216t66 285z" />
    <glyph glyph-name="oslashacute" unicode="&#x1ff;" horiz-adv-x="1273" 
d="M133 172q-72 119 -72 279q0 120 45 235.5t124.5 206.5t202 147t265.5 56q193 0 322 -82l86 82h246l-213 -203q73 -116 73 -279q0 -120 -45 -235.5t-124.5 -206.5t-202 -147t-265.5 -56q-194 0 -323 82l-86 -82h-246zM901 614q0 36 -2 52l-444 -422q50 -29 120 -29
q137 0 231.5 121t94.5 278zM373 451q0 -36 2 -50l442 420q-44 29 -119 29q-91 0 -166.5 -57.5t-117 -148.5t-41.5 -193zM743 1434h414l-311 -256h-322z" />
    <glyph glyph-name="uni0218" unicode="&#x218;" horiz-adv-x="1376" 
d="M1092 1044q0 179 -261 179q-79 0 -143.5 -16t-110 -57t-45.5 -101q0 -75 52 -111.5t164 -54.5l98 -15q96 -13 172 -42t135.5 -77.5t92 -122.5t32.5 -169q0 -126 -52 -221.5t-144 -152.5t-207.5 -85.5t-251.5 -28.5q-73 0 -142 9.5t-138.5 30t-127 56.5t-102.5 84
t-70 117.5t-25 153.5h320q0 -115 76 -163t217 -48q59 0 112 9t102 28.5t78 58t29 90.5q0 78 -51 113t-176 55l-98 15q-196 29 -306 143t-110 291q0 93 35.5 169.5t96 128t142.5 87t172.5 51.5t188.5 16q92 0 175 -15.5t154.5 -49t124 -82.5t82 -118.5t29.5 -154.5h-319z
M453 -92h317l-49 -225l-201 -226h-133l139 226h-123z" />
    <glyph glyph-name="uni0219" unicode="&#x219;" horiz-adv-x="1122" 
d="M301 317q0 -72 40.5 -105.5t139.5 -33.5q89 0 151 30t62 93q0 19 -7 33.5t-16.5 22.5t-30 15t-35.5 10.5t-46 8.5l-53 8q-108 17 -187 57t-127.5 112t-48.5 169q0 78 29 140t76.5 102.5t113.5 67t136 38t147 11.5q130 0 235 -35.5t170.5 -111t65.5 -181.5h-313
q0 62 -40 90.5t-128 28.5q-48 0 -87 -9t-68 -34.5t-29 -65.5q0 -41 31.5 -63t101.5 -33l53 -8q86 -13 147.5 -34t114 -57t79 -93.5t26.5 -137.5q0 -82 -29.5 -148t-79 -109.5t-117.5 -72t-141.5 -41t-155.5 -12.5q-74 0 -142 10.5t-132.5 36t-112 64t-76 99.5t-28.5 138h311
zM283 -92h317l-49 -225l-201 -226h-133l139 226h-123z" />
    <glyph glyph-name="uni021A" unicode="&#x21a;" horiz-adv-x="1292" 
d="M1407 1157h-461l-246 -1157h-333l245 1157h-460l59 277h1255zM358 -92h318l-49 -225l-201 -226h-133l139 226h-123z" />
    <glyph glyph-name="uni021B" unicode="&#x21b;" horiz-adv-x="929" 
d="M233 -92h318l-49 -225l-201 -226h-133l139 226h-123zM506 0q-137 0 -213 60t-76 180q0 40 12 98l103 481h-256l53 246h256l51 246h318l-52 -246h297l-53 -246h-297l-108 -512q-4 -20 -4 -28q0 -43 59 -43h225l-51 -236h-264z" />
    <glyph glyph-name="uni021E" unicode="&#x21e;" horiz-adv-x="1613" 
d="M1343 0h-333l127 594h-631l-127 -594h-334l305 1434h334l-121 -564h631l121 564h334zM1157 1802h363l-312 -256h-348l-201 256h334l56 -133z" />
    <glyph glyph-name="uni021F" unicode="&#x21f;" horiz-adv-x="1310" 
d="M535 973q132 123 325 123q178 0 275.5 -96.5t97.5 -268.5q0 -54 -16 -129l-127 -602h-318l133 625q8 24 8 73q0 142 -159 142q-113 0 -196 -73.5t-112 -203.5l-118 -563h-318l305 1434h318zM979 1802h362l-311 -256h-348l-201 256h334l55 -133z" />
    <glyph glyph-name="uni022E" unicode="&#x22e;" horiz-adv-x="1632" 
d="M438 604q0 -358 336 -358q136 0 252 82t182 216t66 285q0 359 -336 359q-136 0 -252 -82t-182 -216.5t-66 -285.5zM109 604q0 127 37 252t109.5 234t171.5 193t231.5 132.5t279.5 48.5q323 0 494.5 -172t171.5 -463q0 -127 -37 -252t-110 -234t-171.5 -193t-231.5 -132.5
t-280 -48.5q-323 0 -494 172t-171 463zM864 1802h318l-54 -246h-317z" />
    <glyph glyph-name="uni022F" unicode="&#x22f;" horiz-adv-x="1271" 
d="M373 451q0 -116 46 -176t156 -60q137 0 231.5 121t94.5 278q0 116 -46.5 176t-156.5 60q-91 0 -166.5 -57.5t-117 -148.5t-41.5 -193zM61 451q0 120 45 235.5t124.5 206.5t202 147t265.5 56q131 0 231.5 -37.5t161 -104t91 -152.5t30.5 -188q0 -120 -45 -235.5
t-124.5 -206.5t-202 -147t-265.5 -56q-131 0 -231.5 37.5t-161 104t-91 152.5t-30.5 188zM616 1434h318l-53 -246h-318z" />
    <glyph glyph-name="uni0232" unicode="&#x232;" horiz-adv-x="1304" 
d="M492 553l-295 881h329l170 -594l424 594h373l-668 -881l-118 -553h-334zM545 1792h758l-46 -215h-757z" />
    <glyph glyph-name="uni0233" unicode="&#x233;" horiz-adv-x="1114" 
d="M-98 -369l51 236h135q73 0 121.5 30.5t89.5 102.5l-174 1065h313l47 -356q17 -133 17 -361h8q99 232 170 359l199 358h342l-666 -1141q-40 -72 -79 -121t-94 -90.5t-129.5 -61.5t-170.5 -20h-180zM346 1423h758l-45 -215h-758z" />
    <glyph glyph-name="uni0237" unicode="&#x237;" horiz-adv-x="573" 
d="M319 -78q-35 -160 -142.5 -225.5t-285.5 -65.5h-165l51 236h114q54 0 82 24t39 78l234 1096h317z" />
    <glyph glyph-name="uni0244" unicode="&#x244;" horiz-adv-x="1597" 
d="M102 870h150l121 564h334l-121 -564h569l121 564h334l-121 -564h149l-57 -266h-149l-29 -133q-50 -234 -231.5 -368t-462.5 -134q-121 0 -222 37.5t-168.5 103.5t-105 156.5t-37.5 194.5q0 49 17 129l2 14h-150zM737 246q127 0 222.5 75t123.5 211l15 72h-570l-14 -72
q-10 -52 -10 -75q0 -101 63 -156t170 -55z" />
    <glyph glyph-name="uni0259" unicode="&#x259;" horiz-adv-x="1241" 
d="M125 768q91 161 224.5 244.5t324.5 83.5q128 0 227 -38.5t159.5 -105.5t91 -152.5t30.5 -185.5q0 -133 -49.5 -252.5t-134 -205.5t-204.5 -136.5t-255 -50.5q-244 0 -365 115t-121 324q0 98 31 227h786q2 16 2 39q0 89 -52 142.5t-146 53.5q-140 0 -195 -102h-354z
M539 195q99 0 173.5 58t112.5 167h-454q-4 -32 -4 -49q0 -176 172 -176z" />
    <glyph glyph-name="uni025B" unicode="&#x25b;" horiz-adv-x="1130" 
d="M1047 317q-19 -68 -62 -128.5t-109 -110.5t-164 -79.5t-216 -29.5q-212 0 -335.5 80t-123.5 230q0 113 69 185t179 93q-54 28 -87.5 81t-33.5 122q0 150 126.5 242t346.5 92q135 0 238 -34.5t166.5 -109.5t68.5 -182h-301q-2 46 -46 76t-130 30q-87 0 -129.5 -33.5
t-42.5 -84.5q0 -45 37.5 -75t107.5 -30h148l-47 -217h-150q-101 0 -155 -34t-54 -99q0 -54 44.5 -81t119.5 -27q93 0 151 37.5t70 86.5h314z" />
    <glyph glyph-name="uni0263" unicode="&#x263;" horiz-adv-x="1138" 
d="M897 1065h348l-565 -795q37 -150 51 -216.5t14 -116.5q0 -128 -91 -217t-234 -89q-126 0 -209.5 66.5t-83.5 171.5q0 77 41 153.5t170 251.5l-213 791h311l62 -238q45 -173 55 -264h8q27 48 172 264zM471 57q-70 -109 -81 -142q-7 -19 -7 -34q0 -51 47 -51q28 0 43.5 24
t15.5 64q0 24 -18 139z" />
    <glyph glyph-name="uni0268" unicode="&#x268;" horiz-adv-x="565" 
d="M70 713h133l76 352h317l-76 -352h135l-49 -236h-137l-100 -477h-318l101 477h-132zM356 1434h318l-53 -246h-318z" />
    <glyph glyph-name="uni0272" unicode="&#x272;" horiz-adv-x="1310" 
d="M311 -78q-35 -160 -142.5 -225.5t-285.5 -65.5h-166l52 236h114q54 0 82 24t39 78l234 1096h317l-20 -92q132 123 325 123q178 0 275.5 -96.5t97.5 -268.5q0 -54 -16 -129l-127 -602h-318l133 625q8 24 8 73q0 142 -159 142q-113 0 -196 -73.5t-112 -203.5z" />
    <glyph glyph-name="uni0289" unicode="&#x289;" horiz-adv-x="1392" 
d="M78 713h123l75 352h318l-76 -352h432l76 352h320l-76 -352h123l-50 -236h-124l-101 -477h-317l20 92q-129 -123 -315 -123q-173 0 -274 98t-101 265q0 54 16 129l5 16h-123zM612 225q106 0 181.5 65.5t107.5 186.5h-432l-8 -37q-10 -52 -10 -73q0 -142 161 -142z" />
    <glyph glyph-name="circumflex" unicode="&#x2c6;" horiz-adv-x="901" 
d="M625 1311l-109 -133h-358l311 256h348l201 -256h-338z" />
    <glyph glyph-name="caron" unicode="&#x2c7;" horiz-adv-x="901" 
d="M711 1434h362l-311 -256h-348l-201 256h334l55 -134z" />
    <glyph glyph-name="breve" unicode="&#x2d8;" horiz-adv-x="819" 
d="M575 1157q-161 0 -254 97t-85 231h202q4 -54 44.5 -83.5t103.5 -29.5q127 0 174 113h225q-40 -139 -146.5 -233.5t-263.5 -94.5z" />
    <glyph glyph-name="dotaccent" unicode="&#x2d9;" horiz-adv-x="460" 
d="M266 1434h318l-54 -246h-317z" />
    <glyph glyph-name="ring" unicode="&#x2da;" horiz-adv-x="655" 
d="M401 1382q0 -41 26 -66.5t69 -25.5q52 0 92.5 38.5t40.5 94.5q0 41 -25.5 67t-68.5 26q-52 0 -93 -39t-41 -95zM805 1423q0 -117 -93 -201.5t-216 -84.5q-124 0 -197.5 70t-73.5 175q0 117 93.5 202t216.5 85q124 0 197 -70.5t73 -175.5z" />
    <glyph glyph-name="ogonek" unicode="&#x2db;" horiz-adv-x="532" 
d="M240 -266q54 0 116 16l-120 -205q-62 -16 -121 -16q-109 0 -184.5 64.5t-75.5 160.5q0 176 221 266l313 -20q-246 -102 -246 -201q0 -65 97 -65z" />
    <glyph glyph-name="tilde" unicode="&#x2dc;" horiz-adv-x="901" 
d="M190 1188q24 134 100.5 210.5t196.5 76.5q52 0 99.5 -17.5t76 -39t63.5 -39t65 -17.5q52 0 67 72h184q-25 -134 -101 -210.5t-196 -76.5q-52 0 -99 17.5t-76 39t-64 39t-66 17.5q-50 0 -65 -72h-185z" />
    <glyph glyph-name="hungarumlaut" unicode="&#x2dd;" horiz-adv-x="1054" 
d="M408 1434h337l-239 -256h-287zM827 1434h338l-239 -256h-287z" />
    <glyph glyph-name="gravecomb" unicode="&#x300;" horiz-adv-x="0" 
d="M-274 1178h-273l-201 256h365z" />
    <glyph glyph-name="acutecomb" unicode="&#x301;" horiz-adv-x="0" 
d="M-608 1434h413l-311 -256h-321z" />
    <glyph glyph-name="uni0302" unicode="&#x302;" horiz-adv-x="0" 
d="M-475 1311l-109 -133h-358l311 256h348l201 -256h-338z" />
    <glyph glyph-name="tildecomb" unicode="&#x303;" horiz-adv-x="0" 
d="M-938 1188q24 134 100.5 210.5t196.5 76.5q52 0 99 -17.5t76 -39t63.5 -39t64.5 -17.5q53 0 68 72h184q-25 -134 -101 -210.5t-196 -76.5q-52 0 -99 17.5t-76 39t-64 39t-66 17.5q-51 0 -66 -72h-184z" />
    <glyph glyph-name="uni0304" unicode="&#x304;" horiz-adv-x="0" 
d="M-868 1423h757l-45 -215h-757z" />
    <glyph glyph-name="uni0306" unicode="&#x306;" horiz-adv-x="0" 
d="M-545 1157q-161 0 -254.5 97t-85.5 231h203q4 -54 44 -83.5t103 -29.5q128 0 175 113h225q-40 -139 -146.5 -233.5t-263.5 -94.5z" />
    <glyph glyph-name="uni0307" unicode="&#x307;" horiz-adv-x="0" 
d="M-643 1434h317l-53 -246h-317z" />
    <glyph glyph-name="uni0308" unicode="&#x308;" horiz-adv-x="0" 
d="M-887 1434h318l-54 -246h-317zM-401 1434h317l-53 -246h-318z" />
    <glyph glyph-name="uni030A" unicode="&#x30a;" horiz-adv-x="0" 
d="M-625 1382q0 -41 26 -66.5t69 -25.5q52 0 92.5 38.5t40.5 94.5q0 41 -26 67t-69 26q-52 0 -92.5 -39t-40.5 -95zM-221 1423q0 -117 -93 -201.5t-216 -84.5q-124 0 -197.5 70t-73.5 175q0 117 93 202t216 85q124 0 197.5 -70.5t73.5 -175.5z" />
    <glyph glyph-name="uni030B" unicode="&#x30b;" horiz-adv-x="0" 
d="M-797 1434h338l-239 -256h-287zM-377 1434h338l-240 -256h-286z" />
    <glyph glyph-name="uni030C" unicode="&#x30c;" horiz-adv-x="0" 
d="M-444 1434h362l-311 -256h-348l-201 256h334l55 -134z" />
    <glyph glyph-name="uni0312" unicode="&#x312;" horiz-adv-x="0" 
d="M-385 1178h-317l49 225l200 225h134l-140 -225h123z" />
    <glyph glyph-name="uni0313" unicode="&#x313;" horiz-adv-x="0" 
d="M-596 1434h324l-228 -441h-252z" />
    <glyph glyph-name="dotbelowcomb" unicode="&#x323;" horiz-adv-x="0" 
d="M-643 -115h317l-53 -245h-317z" />
    <glyph glyph-name="uni0326" unicode="&#x326;" horiz-adv-x="0" 
d="M-637 -92h318l-50 -225l-200 -226h-133l139 226h-123z" />
    <glyph glyph-name="uni0327" unicode="&#x327;" horiz-adv-x="0" 
d="M-598 -276q0 -41 51 -41q34 0 56 21.5t22 51.5q0 49 -51 49q-28 0 -49 -18l-93 113l162 131h236l-160 -131q58 -4 89.5 -39.5t31.5 -91.5q0 -99 -72 -164.5t-182 -65.5q-82 0 -142.5 46.5t-60.5 138.5h162z" />
    <glyph glyph-name="uni0328" unicode="&#x328;" horiz-adv-x="0" 
d="M-393 -266q55 0 117 16l-121 -205q-62 -16 -121 -16q-109 0 -184.5 64.5t-75.5 160.5q0 176 221 266l313 -20q-245 -101 -245 -201q0 -65 96 -65z" />
    <glyph glyph-name="uni032E" unicode="&#x32e;" horiz-adv-x="0" 
d="M-545 -451q-161 0 -254.5 97t-85.5 231h203q4 -54 44 -83.5t103 -29.5q128 0 175 113h225q-40 -139 -146.5 -233.5t-263.5 -94.5z" />
    <glyph glyph-name="uni0331" unicode="&#x331;" horiz-adv-x="0" 
d="M-868 -123h757l-45 -215h-757z" />
    <glyph glyph-name="anoteleia" unicode="&#x387;" horiz-adv-x="604" 
d="M152 707h374l-71 -338h-375z" />
    <glyph glyph-name="uni0394" unicode="&#x394;" horiz-adv-x="1267" 
d="M-8 246l672 1188h319l168 -1188l-53 -246h-1159zM330 246h516l-92 782z" />
    <glyph glyph-name="uni03A9" unicode="&#x3a9;" horiz-adv-x="1509" 
d="M901 1219q-190 0 -317 -137t-127 -347q0 -125 58 -202t159 -103l-92 -430h-564l54 246h358l2 10q-128 53 -208.5 192t-80.5 293q0 152 62 287t168 230.5t252 150.5t309 55q249 0 407 -152.5t158 -377.5q0 -214 -130 -400.5t-343 -277.5l-2 -10h297l-53 -246h-563l92 430
q168 40 276.5 165.5t108.5 324.5q0 137 -74 218t-207 81z" />
    <glyph glyph-name="uni03BC" unicode="&#x3bc;" horiz-adv-x="1292" 
d="M750 51q-98 -82 -213 -82q-126 0 -193 103l-94 -441h-318l306 1434h317l-133 -629q-10 -45 -10 -69q0 -152 168 -152q99 0 163.5 56.5t87.5 164.5l134 629h317l-227 -1065h-318z" />
    <glyph glyph-name="pi" unicode="&#x3c0;" horiz-adv-x="1263" 
d="M805 819h-225l-174 -819h-318l174 819h-143l53 246h1147l-53 -246h-144l-174 -819h-317z" />
    <glyph glyph-name="uni1E02" unicode="&#x1e02;" horiz-adv-x="1490" 
d="M45 0l305 1434h711q191 0 298 -98t107 -251q0 -116 -55.5 -206t-155.5 -142q72 -41 103 -103.5t31 -152.5q0 -216 -146 -348.5t-385 -132.5h-813zM856 276q57 0 99 18.5t64 49t32 63.5t10 70q0 57 -34.5 92t-100.5 35h-418l-70 -328h418zM950 870q86 0 134.5 48.5
t48.5 130.5q0 108 -121 108h-387l-62 -287h387zM782 1802h318l-53 -246h-318z" />
    <glyph glyph-name="uni1E03" unicode="&#x1e03;" horiz-adv-x="1337" 
d="M328 0h-318l305 1434h318l-98 -463q125 125 317 125q99 0 181 -37.5t135.5 -101t82.5 -146t29 -174.5q0 -171 -76.5 -323.5t-217 -248.5t-310.5 -96q-122 0 -201.5 43t-120.5 111zM758 850q-99 0 -178.5 -62.5t-120.5 -156.5t-41 -195q0 -110 59 -165.5t146 -55.5
q102 0 182 63.5t120 158.5t40 200q0 108 -55.5 160.5t-151.5 52.5zM801 1434h317l-53 -246h-317z" />
    <glyph glyph-name="uni1E0A" unicode="&#x1e0a;" horiz-adv-x="1538" 
d="M1503 840q0 -260 -106.5 -451t-298 -290t-445.5 -99h-608l305 1434h557q277 0 436.5 -164.5t159.5 -429.5zM1171 838q0 159 -80 239t-233 80h-233l-187 -881h234q235 0 367 149t132 413zM793 1802h317l-53 -246h-318z" />
    <glyph glyph-name="uni1E0B" unicode="&#x1e0b;" horiz-adv-x="1339" 
d="M580 215q99 0 178.5 62.5t120.5 156.5t41 195q0 110 -59 165.5t-146 55.5q-102 0 -182 -63.5t-120 -158.5t-40 -200q0 -108 55.5 -160.5t151.5 -52.5zM805 92q-44 -56 -125 -89.5t-186 -33.5q-132 0 -233 64t-152.5 168t-51.5 227q0 95 26.5 190.5t79 181t124 152
t168 105.5t204.5 39q129 0 213.5 -46t112.5 -108l105 492h317l-305 -1434h-318zM575 1434h318l-53 -246h-318z" />
    <glyph glyph-name="uni1E0C" unicode="&#x1e0c;" horiz-adv-x="1538" 
d="M1503 840q0 -260 -106.5 -451t-298 -290t-445.5 -99h-608l305 1434h557q277 0 436.5 -164.5t159.5 -429.5zM1171 838q0 159 -80 239t-233 80h-233l-187 -881h234q235 0 367 149t132 413zM475 -115h318l-54 -245h-317z" />
    <glyph glyph-name="uni1E0D" unicode="&#x1e0d;" horiz-adv-x="1339" 
d="M580 215q99 0 178.5 62.5t120.5 156.5t41 195q0 110 -59 165.5t-146 55.5q-102 0 -182 -63.5t-120 -158.5t-40 -200q0 -108 55.5 -160.5t151.5 -52.5zM805 92q-44 -56 -125 -89.5t-186 -33.5q-132 0 -233 64t-152.5 168t-51.5 227q0 95 26.5 190.5t79 181t124 152
t168 105.5t204.5 39q129 0 213.5 -46t112.5 -108l105 492h317l-305 -1434h-318zM455 -115h317l-53 -245h-318z" />
    <glyph glyph-name="uni1E0E" unicode="&#x1e0e;" horiz-adv-x="1538" 
d="M1503 840q0 -260 -106.5 -451t-298 -290t-445.5 -99h-608l305 1434h557q277 0 436.5 -164.5t159.5 -429.5zM1171 838q0 159 -80 239t-233 80h-233l-187 -881h234q235 0 367 149t132 413zM264 -123h758l-45 -215h-758z" />
    <glyph glyph-name="uni1E0F" unicode="&#x1e0f;" horiz-adv-x="1339" 
d="M580 215q99 0 178.5 62.5t120.5 156.5t41 195q0 110 -59 165.5t-146 55.5q-102 0 -182 -63.5t-120 -158.5t-40 -200q0 -108 55.5 -160.5t151.5 -52.5zM805 92q-44 -56 -125 -89.5t-186 -33.5q-132 0 -233 64t-152.5 168t-51.5 227q0 95 26.5 190.5t79 181t124 152
t168 105.5t204.5 39q129 0 213.5 -46t112.5 -108l105 492h317l-305 -1434h-318zM244 -123h757l-45 -215h-757z" />
    <glyph glyph-name="uni1E10" unicode="&#x1e10;" horiz-adv-x="1538" 
d="M1503 840q0 -260 -106.5 -451t-298 -290t-445.5 -99h-608l305 1434h557q277 0 436.5 -164.5t159.5 -429.5zM1171 838q0 159 -80 239t-233 80h-233l-187 -881h234q235 0 367 149t132 413zM483 -92h318l-49 -225l-201 -226h-133l139 226h-123z" />
    <glyph glyph-name="uni1E11" unicode="&#x1e11;" horiz-adv-x="1339" 
d="M580 215q99 0 178.5 62.5t120.5 156.5t41 195q0 110 -59 165.5t-146 55.5q-102 0 -182 -63.5t-120 -158.5t-40 -200q0 -108 55.5 -160.5t151.5 -52.5zM805 92q-44 -56 -125 -89.5t-186 -33.5q-132 0 -233 64t-152.5 168t-51.5 227q0 95 26.5 190.5t79 181t124 152
t168 105.5t204.5 39q129 0 213.5 -46t112.5 -108l105 492h317l-305 -1434h-318zM463 -92h317l-49 -225l-201 -226h-133l140 226h-123z" />
    <glyph glyph-name="uni1E1E" unicode="&#x1e1e;" horiz-adv-x="1323" 
d="M350 1434h1090l-60 -277h-755l-66 -307h715l-57 -277h-715l-123 -573h-334zM817 1802h318l-54 -246h-317z" />
    <glyph glyph-name="uni1E1F" unicode="&#x1e1f;" horiz-adv-x="911" 
d="M135 1065h256l21 96q32 153 125.5 213t259.5 60h288l-51 -236h-227q-71 0 -86 -72l-12 -61h297l-54 -246h-297l-174 -819h-317l174 819h-256zM657 1802h318l-53 -246h-318z" />
    <glyph glyph-name="uni1E20" unicode="&#x1e20;" horiz-adv-x="1581" 
d="M743 -31q-156 0 -277.5 46t-199 130.5t-117.5 200t-40 258.5q0 127 36 252t108 234.5t170 193t231.5 132t283.5 48.5q501 0 602 -420h-338q-27 75 -89.5 112.5t-174.5 37.5q-139 0 -255.5 -84t-180.5 -219t-64 -287q0 -176 79.5 -270t256.5 -94q144 0 240.5 74t140.5 208
h-311l57 277h635l-170 -799h-258v76q-138 -107 -365 -107zM643 1792h758l-45 -215h-758z" />
    <glyph glyph-name="uni1E21" unicode="&#x1e21;" horiz-adv-x="1318" 
d="M788 133q-116 -102 -292 -102q-125 0 -224.5 61.5t-152.5 163t-53 221.5q0 114 46 225.5t124 198.5t192.5 141t241.5 54q122 0 197.5 -46t99.5 -96l22 111h320l-199 -932q-53 -249 -222 -390.5t-399 -141.5q-214 0 -343.5 86.5t-129.5 240.5h312q6 -102 164 -102
q97 0 176.5 77t119.5 230zM702 860q-91 0 -166.5 -58t-115 -145.5t-39.5 -179.5q0 -101 54.5 -156t139.5 -55q111 0 202.5 80.5t119.5 216.5q8 41 8 82q0 102 -55 158.5t-148 56.5zM453 1423h757l-45 -215h-757z" />
    <glyph glyph-name="uni1E22" unicode="&#x1e22;" horiz-adv-x="1613" 
d="M1343 0h-333l127 594h-631l-127 -594h-334l305 1434h334l-121 -564h631l121 564h334zM922 1802h317l-53 -246h-318z" />
    <glyph glyph-name="uni1E23" unicode="&#x1e23;" horiz-adv-x="1310" 
d="M535 973q132 123 325 123q178 0 275.5 -96.5t97.5 -268.5q0 -54 -16 -129l-127 -602h-318l133 625q8 24 8 73q0 142 -159 142q-113 0 -196 -73.5t-112 -203.5l-118 -563h-318l305 1434h318zM739 1802h318l-53 -246h-318z" />
    <glyph glyph-name="uni1E24" unicode="&#x1e24;" horiz-adv-x="1613" 
d="M1343 0h-333l127 594h-631l-127 -594h-334l305 1434h334l-121 -564h631l121 564h334zM514 -115h317l-53 -245h-317z" />
    <glyph glyph-name="uni1E25" unicode="&#x1e25;" horiz-adv-x="1310" 
d="M535 973q132 123 325 123q178 0 275.5 -96.5t97.5 -268.5q0 -54 -16 -129l-127 -602h-318l133 625q8 24 8 73q0 142 -159 142q-113 0 -196 -73.5t-112 -203.5l-118 -563h-318l305 1434h318zM369 -115h317l-53 -245h-318z" />
    <glyph glyph-name="uni1E2A" unicode="&#x1e2a;" horiz-adv-x="1613" 
d="M1343 0h-333l127 594h-631l-127 -594h-334l305 1434h334l-121 -564h631l121 564h334zM635 -451q-161 0 -254.5 97t-85.5 231h203q4 -54 44 -83.5t103 -29.5q127 0 174 113h225q-19 -66 -54 -123.5t-85 -104t-119.5 -73.5t-150.5 -27z" />
    <glyph glyph-name="uni1E2B" unicode="&#x1e2b;" horiz-adv-x="1310" 
d="M535 973q132 123 325 123q178 0 275.5 -96.5t97.5 -268.5q0 -54 -16 -129l-127 -602h-318l133 625q8 24 8 73q0 142 -159 142q-113 0 -196 -73.5t-112 -203.5l-118 -563h-318l305 1434h318zM489 -451q-161 0 -254 97t-85 231h202q4 -54 44.5 -83.5t103.5 -29.5
q127 0 174 113h225q-40 -139 -146.5 -233.5t-263.5 -94.5z" />
    <glyph glyph-name="uni1E36" unicode="&#x1e36;" horiz-adv-x="1222" 
d="M350 1434h334l-246 -1158h715l-59 -276h-1049zM389 -115h318l-54 -245h-317z" />
    <glyph glyph-name="uni1E37" unicode="&#x1e37;" horiz-adv-x="565" 
d="M315 1434h318l-305 -1434h-318zM-12 -115h317l-53 -245h-318z" />
    <glyph glyph-name="uni1E38" unicode="&#x1e38;" horiz-adv-x="1222" 
d="M350 1434h334l-246 -1158h715l-59 -276h-1049zM389 -115h318l-54 -245h-317zM504 1792h758l-45 -215h-758z" />
    <glyph glyph-name="uni1E39" unicode="&#x1e39;" horiz-adv-x="565" 
d="M315 1434h318l-305 -1434h-318zM-12 -115h317l-53 -245h-318zM147 1792h758l-45 -215h-758z" />
    <glyph glyph-name="uni1E3A" unicode="&#x1e3a;" horiz-adv-x="1222" 
d="M350 1434h334l-246 -1158h715l-59 -276h-1049zM178 -123h758l-45 -215h-758z" />
    <glyph glyph-name="uni1E3B" unicode="&#x1e3b;" horiz-adv-x="565" 
d="M315 1434h318l-305 -1434h-318zM-223 -123h758l-46 -215h-757z" />
    <glyph glyph-name="uni1E3E" unicode="&#x1e3e;" horiz-adv-x="1904" 
d="M662 541q-64 202 -97 391h-8q-42 -280 -68 -410l-110 -522h-334l305 1434h350l142 -453q38 -117 100 -387q17 25 51.5 78t51 78.5t45 67.5t56 80.5t60.5 82.5l334 453h399l-305 -1434h-334l111 522q34 167 109 410h-9q-148 -236 -264 -391l-407 -541zM1112 1802h414
l-312 -256h-321z" />
    <glyph glyph-name="uni1E3F" unicode="&#x1e3f;" horiz-adv-x="2002" 
d="M870 625q11 57 11 80q0 135 -154 135q-97 0 -170.5 -61t-101.5 -185l-127 -594h-318l228 1065h317l-20 -94q58 60 142 92.5t167 32.5q118 0 200.5 -44.5t118.5 -129.5q154 174 398 174q162 0 265 -96.5t103 -258.5q0 -50 -14 -116l-133 -625h-318l133 625q11 57 11 80
q0 135 -154 135q-97 0 -170.5 -61t-101.5 -185l-127 -594h-318zM1139 1434h413l-311 -256h-321z" />
    <glyph glyph-name="uni1E40" unicode="&#x1e40;" horiz-adv-x="1904" 
d="M662 541q-64 202 -97 391h-8q-42 -280 -68 -410l-110 -522h-334l305 1434h350l142 -453q38 -117 100 -387q17 25 51.5 78t51 78.5t45 67.5t56 80.5t60.5 82.5l334 453h399l-305 -1434h-334l111 522q34 167 109 410h-9q-148 -236 -264 -391l-407 -541zM1049 1802h317
l-53 -246h-318z" />
    <glyph glyph-name="uni1E41" unicode="&#x1e41;" horiz-adv-x="2002" 
d="M870 625q11 57 11 80q0 135 -154 135q-97 0 -170.5 -61t-101.5 -185l-127 -594h-318l228 1065h317l-20 -94q58 60 142 92.5t167 32.5q118 0 200.5 -44.5t118.5 -129.5q154 174 398 174q162 0 265 -96.5t103 -258.5q0 -50 -14 -116l-133 -625h-318l133 625q11 57 11 80
q0 135 -154 135q-97 0 -170.5 -61t-101.5 -185l-127 -594h-318zM1022 1434h317l-53 -246h-317z" />
    <glyph glyph-name="uni1E42" unicode="&#x1e42;" horiz-adv-x="1904" 
d="M662 541q-64 202 -97 391h-8q-42 -280 -68 -410l-110 -522h-334l305 1434h350l142 -453q38 -117 100 -387q17 25 51.5 78t51 78.5t45 67.5t56 80.5t60.5 82.5l334 453h399l-305 -1434h-334l111 522q34 167 109 410h-9q-148 -236 -264 -391l-407 -541zM659 -115h318
l-53 -245h-318z" />
    <glyph glyph-name="uni1E43" unicode="&#x1e43;" horiz-adv-x="2002" 
d="M870 625q11 57 11 80q0 135 -154 135q-97 0 -170.5 -61t-101.5 -185l-127 -594h-318l228 1065h317l-20 -94q58 60 142 92.5t167 32.5q118 0 200.5 -44.5t118.5 -129.5q154 174 398 174q162 0 265 -96.5t103 -258.5q0 -50 -14 -116l-133 -625h-318l133 625q11 57 11 80
q0 135 -154 135q-97 0 -170.5 -61t-101.5 -185l-127 -594h-318zM715 -115h317l-53 -245h-317z" />
    <glyph glyph-name="uni1E44" unicode="&#x1e44;" horiz-adv-x="1638" 
d="M770 547q-136 276 -192 426h-9q-24 -196 -80 -451l-110 -522h-334l305 1434h332l266 -547q127 -263 193 -426h8q24 193 80 450l110 523h334l-305 -1434h-334zM915 1802h318l-53 -246h-318z" />
    <glyph glyph-name="uni1E45" unicode="&#x1e45;" horiz-adv-x="1310" 
d="M535 973q132 123 325 123q178 0 275.5 -96.5t97.5 -268.5q0 -54 -16 -129l-127 -602h-318l133 625q8 24 8 73q0 142 -159 142q-113 0 -196 -73.5t-112 -203.5l-118 -563h-318l228 1065h317zM668 1434h317l-53 -246h-318z" />
    <glyph glyph-name="uni1E46" unicode="&#x1e46;" horiz-adv-x="1638" 
d="M770 547q-136 276 -192 426h-9q-24 -196 -80 -451l-110 -522h-334l305 1434h332l266 -547q127 -263 193 -426h8q24 193 80 450l110 523h334l-305 -1434h-334zM526 -115h318l-53 -245h-318z" />
    <glyph glyph-name="uni1E47" unicode="&#x1e47;" horiz-adv-x="1310" 
d="M535 973q132 123 325 123q178 0 275.5 -96.5t97.5 -268.5q0 -54 -16 -129l-127 -602h-318l133 625q8 24 8 73q0 142 -159 142q-113 0 -196 -73.5t-112 -203.5l-118 -563h-318l228 1065h317zM369 -115h317l-53 -245h-318z" />
    <glyph glyph-name="uni1E48" unicode="&#x1e48;" horiz-adv-x="1638" 
d="M770 547q-136 276 -192 426h-9q-24 -196 -80 -451l-110 -522h-334l305 1434h332l266 -547q127 -263 193 -426h8q24 193 80 450l110 523h334l-305 -1434h-334zM315 -123h758l-45 -215h-758z" />
    <glyph glyph-name="uni1E49" unicode="&#x1e49;" horiz-adv-x="1310" 
d="M535 973q132 123 325 123q178 0 275.5 -96.5t97.5 -268.5q0 -54 -16 -129l-127 -602h-318l133 625q8 24 8 73q0 142 -159 142q-113 0 -196 -73.5t-112 -203.5l-118 -563h-318l228 1065h317zM158 -123h757l-45 -215h-757z" />
    <glyph glyph-name="uni1E56" unicode="&#x1e56;" horiz-adv-x="1482" 
d="M989 809q90 0 153.5 54t63.5 157q0 69 -39.5 103t-103.5 34h-438l-74 -348h438zM492 532l-113 -532h-334l305 1434h744q96 0 179.5 -32.5t141 -87t90.5 -127.5t33 -153q0 -228 -156.5 -365t-420.5 -137h-469zM834 1802h317l-53 -246h-318z" />
    <glyph glyph-name="uni1E57" unicode="&#x1e57;" horiz-adv-x="1339" 
d="M760 850q-99 0 -178.5 -62.5t-120.5 -156.5t-41 -195q0 -110 59 -165.5t146 -55.5q102 0 182 63.5t120 158.5t40 200q0 108 -55.5 160.5t-151.5 52.5zM535 973q44 56 125 89.5t186 33.5q132 0 233 -64.5t152 -168t51 -226.5q0 -95 -26.5 -190.5t-79 -181t-124 -152
t-168 -105.5t-204.5 -39q-130 0 -214 46t-112 108l-104 -492h-318l306 1434h317zM739 1434h318l-53 -246h-318z" />
    <glyph glyph-name="uni1E5A" unicode="&#x1e5a;" horiz-adv-x="1521" 
d="M492 532l-113 -532h-334l305 1434h744q96 0 179.5 -32.5t141 -87t90.5 -127.5t33 -153q0 -228 -156.5 -365t-420.5 -137h-11l420 -532h-399l-410 532h-69zM987 799q89 0 154 55.5t65 165.5q0 69 -39.5 103t-103.5 34h-438l-76 -358h438zM526 -115h318l-53 -245h-318z" />
    <glyph glyph-name="uni1E5B" unicode="&#x1e5b;" horiz-adv-x="847" 
d="M739 819q-115 0 -187.5 -57.5t-100.5 -188.5l-123 -573h-318l228 1065h317l-23 -104q53 63 129 93.5t195 30.5h84l-57 -266h-144zM-12 -115h317l-53 -245h-318z" />
    <glyph glyph-name="uni1E5C" unicode="&#x1e5c;" horiz-adv-x="1521" 
d="M492 532l-113 -532h-334l305 1434h744q96 0 179.5 -32.5t141 -87t90.5 -127.5t33 -153q0 -228 -156.5 -365t-420.5 -137h-11l420 -532h-399l-410 532h-69zM987 799q89 0 154 55.5t65 165.5q0 69 -39.5 103t-103.5 34h-438l-76 -358h438zM526 -115h318l-53 -245h-318z
M602 1792h758l-45 -215h-758z" />
    <glyph glyph-name="uni1E5D" unicode="&#x1e5d;" horiz-adv-x="847" 
d="M739 819q-115 0 -187.5 -57.5t-100.5 -188.5l-123 -573h-318l228 1065h317l-23 -104q53 63 129 93.5t195 30.5h84l-57 -266h-144zM-12 -115h317l-53 -245h-318zM289 1423h758l-46 -215h-757z" />
    <glyph glyph-name="uni1E5E" unicode="&#x1e5e;" horiz-adv-x="1521" 
d="M492 532l-113 -532h-334l305 1434h744q96 0 179.5 -32.5t141 -87t90.5 -127.5t33 -153q0 -228 -156.5 -365t-420.5 -137h-11l420 -532h-399l-410 532h-69zM987 799q89 0 154 55.5t65 165.5q0 69 -39.5 103t-103.5 34h-438l-76 -358h438zM315 -123h758l-45 -215h-758z" />
    <glyph glyph-name="uni1E5F" unicode="&#x1e5f;" horiz-adv-x="847" 
d="M739 819q-115 0 -187.5 -57.5t-100.5 -188.5l-123 -573h-318l228 1065h317l-23 -104q53 63 129 93.5t195 30.5h84l-57 -266h-144zM-223 -123h758l-46 -215h-757z" />
    <glyph glyph-name="uni1E60" unicode="&#x1e60;" horiz-adv-x="1376" 
d="M1092 1044q0 179 -261 179q-79 0 -143.5 -16t-110 -57t-45.5 -101q0 -75 52 -111.5t164 -54.5l98 -15q96 -13 172 -42t135.5 -77.5t92 -122.5t32.5 -169q0 -126 -52 -221.5t-144 -152.5t-207.5 -85.5t-251.5 -28.5q-73 0 -142 9.5t-138.5 30t-127 56.5t-102.5 84
t-70 117.5t-25 153.5h320q0 -115 76 -163t217 -48q59 0 112 9t102 28.5t78 58t29 90.5q0 78 -51 113t-176 55l-98 15q-196 29 -306 143t-110 291q0 93 35.5 169.5t96 128t142.5 87t172.5 51.5t188.5 16q92 0 175 -15.5t154.5 -49t124 -82.5t82 -118.5t29.5 -154.5h-319z
M768 1802h317l-53 -246h-317z" />
    <glyph glyph-name="uni1E61" unicode="&#x1e61;" horiz-adv-x="1122" 
d="M301 317q0 -72 40.5 -105.5t139.5 -33.5q89 0 151 30t62 93q0 19 -7 33.5t-16.5 22.5t-30 15t-35.5 10.5t-46 8.5l-53 8q-108 17 -187 57t-127.5 112t-48.5 169q0 78 29 140t76.5 102.5t113.5 67t136 38t147 11.5q130 0 235 -35.5t170.5 -111t65.5 -181.5h-313
q0 62 -40 90.5t-128 28.5q-48 0 -87 -9t-68 -34.5t-29 -65.5q0 -41 31.5 -63t101.5 -33l53 -8q86 -13 147.5 -34t114 -57t79 -93.5t26.5 -137.5q0 -82 -29.5 -148t-79 -109.5t-117.5 -72t-141.5 -41t-155.5 -12.5q-74 0 -142 10.5t-132.5 36t-112 64t-76 99.5t-28.5 138h311
zM555 1434h317l-53 -246h-317z" />
    <glyph glyph-name="uni1E62" unicode="&#x1e62;" horiz-adv-x="1376" 
d="M1092 1044q0 179 -261 179q-79 0 -143.5 -16t-110 -57t-45.5 -101q0 -75 52 -111.5t164 -54.5l98 -15q96 -13 172 -42t135.5 -77.5t92 -122.5t32.5 -169q0 -126 -52 -221.5t-144 -152.5t-207.5 -85.5t-251.5 -28.5q-73 0 -142 9.5t-138.5 30t-127 56.5t-102.5 84
t-70 117.5t-25 153.5h320q0 -115 76 -163t217 -48q59 0 112 9t102 28.5t78 58t29 90.5q0 78 -51 113t-176 55l-98 15q-196 29 -306 143t-110 291q0 93 35.5 169.5t96 128t142.5 87t172.5 51.5t188.5 16q92 0 175 -15.5t154.5 -49t124 -82.5t82 -118.5t29.5 -154.5h-319z
M455 -115h317l-53 -245h-318z" />
    <glyph glyph-name="uni1E63" unicode="&#x1e63;" horiz-adv-x="1122" 
d="M301 317q0 -72 40.5 -105.5t139.5 -33.5q89 0 151 30t62 93q0 19 -7 33.5t-16.5 22.5t-30 15t-35.5 10.5t-46 8.5l-53 8q-108 17 -187 57t-127.5 112t-48.5 169q0 78 29 140t76.5 102.5t113.5 67t136 38t147 11.5q130 0 235 -35.5t170.5 -111t65.5 -181.5h-313
q0 62 -40 90.5t-128 28.5q-48 0 -87 -9t-68 -34.5t-29 -65.5q0 -41 31.5 -63t101.5 -33l53 -8q86 -13 147.5 -34t114 -57t79 -93.5t26.5 -137.5q0 -82 -29.5 -148t-79 -109.5t-117.5 -72t-141.5 -41t-155.5 -12.5q-74 0 -142 10.5t-132.5 36t-112 64t-76 99.5t-28.5 138h311
zM301 -115h317l-53 -245h-317z" />
    <glyph glyph-name="uni1E6A" unicode="&#x1e6a;" horiz-adv-x="1292" 
d="M1407 1157h-461l-246 -1157h-333l245 1157h-460l59 277h1255zM760 1802h317l-53 -246h-317z" />
    <glyph glyph-name="uni1E6B" unicode="&#x1e6b;" horiz-adv-x="929" 
d="M506 0q-137 0 -213 60t-76 180q0 40 12 98l103 481h-256l53 246h256l51 246h318l-52 -246h297l-53 -246h-297l-108 -512q-4 -20 -4 -28q0 -43 59 -43h225l-51 -236h-264zM514 1802h317l-53 -246h-317z" />
    <glyph glyph-name="uni1E6C" unicode="&#x1e6c;" horiz-adv-x="1292" 
d="M1407 1157h-461l-246 -1157h-333l245 1157h-460l59 277h1255zM352 -115h318l-54 -245h-317z" />
    <glyph glyph-name="uni1E6D" unicode="&#x1e6d;" horiz-adv-x="929" 
d="M506 0q-137 0 -213 60t-76 180q0 40 12 98l103 481h-256l53 246h256l51 246h318l-52 -246h297l-53 -246h-297l-108 -512q-4 -20 -4 -28q0 -43 59 -43h225l-51 -236h-264zM270 -115h318l-53 -245h-318z" />
    <glyph glyph-name="uni1E6E" unicode="&#x1e6e;" horiz-adv-x="1292" 
d="M1407 1157h-461l-246 -1157h-333l245 1157h-460l59 277h1255zM141 -123h758l-45 -215h-758z" />
    <glyph glyph-name="uni1E6F" unicode="&#x1e6f;" horiz-adv-x="929" 
d="M506 0q-137 0 -213 60t-76 180q0 40 12 98l103 481h-256l53 246h256l51 246h318l-52 -246h297l-53 -246h-297l-108 -512q-4 -20 -4 -28q0 -43 59 -43h225l-51 -236h-264zM59 -123h758l-45 -215h-758z" />
    <glyph glyph-name="uni1E7C" unicode="&#x1e7c;" horiz-adv-x="1366" 
d="M608 778q14 -114 27 -409h8q96 223 197 409l362 656h354l-827 -1434h-317l-217 1434h329zM465 1556q24 134 100.5 210.5t196.5 76.5q52 0 99 -17.5t76 -38.5t63.5 -38.5t64.5 -17.5q53 0 68 71h184q-25 -134 -101 -210t-196 -76q-52 0 -99 17.5t-76 38.5t-64 38.5
t-66 17.5q-51 0 -66 -72h-184z" />
    <glyph glyph-name="uni1E7D" unicode="&#x1e7d;" horiz-adv-x="1150" 
d="M123 1065h319l47 -350q12 -94 27 -377h8q101 237 183 377l194 350h356l-636 -1065h-316zM274 1188q24 134 100.5 210.5t196.5 76.5q52 0 99 -17.5t76 -39t63.5 -39t64.5 -17.5q53 0 68 72h184q-25 -134 -101 -210.5t-196 -76.5q-52 0 -99 17.5t-76 39t-64 39t-66 17.5
q-50 0 -65 -72h-185z" />
    <glyph glyph-name="Wgrave" unicode="&#x1e80;" horiz-adv-x="2023" 
d="M1356 1434l35 -594q6 -132 6 -246q0 -109 -2 -164h10q85 228 170 410l283 594h346l-715 -1434h-332l-37 594q-8 96 -8 246q0 62 4 164h-8q-102 -266 -160 -381l-303 -623h-336l-104 1434h321l29 -594q6 -114 6 -211q0 -67 -4 -199h8q91 237 174 410l289 594h328z
M1460 1546h-272l-201 256h365z" />
    <glyph glyph-name="wgrave" unicode="&#x1e81;" horiz-adv-x="1685" 
d="M1100 1065l28 -348q9 -102 9 -197q0 -128 -7 -192h9q6 17 37.5 104t57.5 153.5t56 131.5l158 348h336l-545 -1065h-319l-29 348q-6 79 -6 170q0 114 6 209h-8q-92 -247 -160 -379l-176 -348h-326l-90 1065h313l13 -348q0 -15 1 -46t1 -46q0 -89 -13 -297h9
q92 249 163 389l177 348h305zM1204 1178h-272l-201 256h365z" />
    <glyph glyph-name="Wacute" unicode="&#x1e82;" horiz-adv-x="2023" 
d="M1356 1434l35 -594q6 -132 6 -246q0 -109 -2 -164h10q85 228 170 410l283 594h346l-715 -1434h-332l-37 594q-8 96 -8 246q0 62 4 164h-8q-102 -266 -160 -381l-303 -623h-336l-104 1434h321l29 -594q6 -114 6 -211q0 -67 -4 -199h8q91 237 174 410l289 594h328z
M1190 1802h414l-312 -256h-321z" />
    <glyph glyph-name="wacute" unicode="&#x1e83;" horiz-adv-x="1685" 
d="M1100 1065l28 -348q9 -102 9 -197q0 -128 -7 -192h9q6 17 37.5 104t57.5 153.5t56 131.5l158 348h336l-545 -1065h-319l-29 348q-6 79 -6 170q0 114 6 209h-8q-92 -247 -160 -379l-176 -348h-326l-90 1065h313l13 -348q0 -15 1 -46t1 -46q0 -89 -13 -297h9
q92 249 163 389l177 348h305zM952 1434h414l-311 -256h-322z" />
    <glyph glyph-name="Wdieresis" unicode="&#x1e84;" horiz-adv-x="2023" 
d="M1356 1434l35 -594q6 -132 6 -246q0 -109 -2 -164h10q85 228 170 410l283 594h346l-715 -1434h-332l-37 594q-8 96 -8 246q0 62 4 164h-8q-102 -266 -160 -381l-303 -623h-336l-104 1434h321l29 -594q6 -114 6 -211q0 -67 -4 -199h8q91 237 174 410l289 594h328z
M881 1802h317l-53 -246h-318zM1366 1802h317l-53 -246h-317z" />
    <glyph glyph-name="wdieresis" unicode="&#x1e85;" horiz-adv-x="1685" 
d="M1100 1065l28 -348q9 -102 9 -197q0 -128 -7 -192h9q6 17 37.5 104t57.5 153.5t56 131.5l158 348h336l-545 -1065h-319l-29 348q-6 79 -6 170q0 114 6 209h-8q-92 -247 -160 -379l-176 -348h-326l-90 1065h313l13 -348q0 -15 1 -46t1 -46q0 -89 -13 -297h9
q92 249 163 389l177 348h305zM635 1434h317l-53 -246h-317zM1120 1434h318l-54 -246h-317z" />
    <glyph glyph-name="uni1E8A" unicode="&#x1e8a;" horiz-adv-x="1380" 
d="M698 487l-426 -487h-399l688 770l-332 664h353l198 -414l361 414h399l-622 -697l368 -737h-352zM805 1802h317l-53 -246h-317z" />
    <glyph glyph-name="uni1E8B" unicode="&#x1e8b;" horiz-adv-x="1114" 
d="M604 805l221 260h377l-471 -522l275 -543h-342l-144 303l-260 -303h-377l512 567l-254 498h342zM592 1434h317l-53 -246h-317z" />
    <glyph glyph-name="uni1E92" unicode="&#x1e92;" horiz-adv-x="1310" 
d="M1130 0h-1167l60 276l882 881h-676l60 277h1116l-59 -277l-883 -881h727zM367 -115h317l-53 -245h-318z" />
    <glyph glyph-name="uni1E93" unicode="&#x1e93;" horiz-adv-x="1122" 
d="M995 246l-53 -246h-983l53 246l641 573h-499l53 246h942l-53 -246l-641 -573h540zM291 -115h317l-53 -245h-317z" />
    <glyph glyph-name="uni1E97" unicode="&#x1e97;" horiz-adv-x="929" 
d="M506 0q-137 0 -213 60t-76 180q0 40 12 98l103 481h-256l53 246h256l51 246h318l-52 -246h297l-53 -246h-297l-108 -512q-4 -20 -4 -28q0 -43 59 -43h225l-51 -236h-264zM270 1802h318l-53 -246h-318zM756 1802h317l-53 -246h-318z" />
    <glyph glyph-name="uni1E9E" unicode="&#x1e9e;" horiz-adv-x="1484" 
d="M547 0l57 276h246q101 0 165 59t64 161q0 59 -37.5 94t-107.5 35h-193l60 286l297 246h-482l-243 -1157h-328l303 1434h1157l-61 -297l-328 -265q147 -17 224 -109t77 -224q0 -110 -39 -206t-114 -171t-196.5 -118.5t-274.5 -43.5h-246z" />
    <glyph glyph-name="uni1EA0" unicode="&#x1ea0;" horiz-adv-x="1474" 
d="M1004 287h-594l-174 -287h-361l889 1434h332l278 -1434h-319zM575 563h377l-28 164q-28 152 -43 358h-9q-89 -181 -196 -358zM444 -115h318l-53 -245h-318z" />
    <glyph glyph-name="uni1EA1" unicode="&#x1ea1;" horiz-adv-x="1222" 
d="M162 768q139 328 567 328q187 0 305.5 -84.5t118.5 -243.5q0 -46 -12 -98l-142 -670h-317l16 82q-130 -113 -336 -113q-146 0 -250 85t-104 222q0 92 34 163t97.5 117t145 73t184.5 37l362 32q9 40 9 66q0 54 -35.5 80t-122.5 26q-146 0 -186 -102h-334zM451 195
q120 0 212.5 70.5t116.5 195.5l6 31l-294 -31q-87 -10 -126.5 -53.5t-39.5 -108.5q0 -48 32.5 -76t92.5 -28zM373 -115h317l-53 -245h-318z" />
    <glyph glyph-name="uni1EB8" unicode="&#x1eb8;" horiz-adv-x="1351" 
d="M350 1434h1090l-60 -277h-755l-62 -287h715l-57 -276h-715l-68 -318h756l-59 -276h-1090zM410 -115h317l-53 -245h-318z" />
    <glyph glyph-name="uni1EB9" unicode="&#x1eb9;" horiz-adv-x="1243" 
d="M1128 317q-92 -174 -228.5 -261t-330.5 -87q-128 0 -227 38.5t-159.5 105.5t-91 152.5t-30.5 185.5q0 133 49.5 252.5t134.5 205.5t205 136.5t255 50.5q244 0 364.5 -115t120.5 -324q0 -98 -31 -227h-786q-2 -16 -2 -39q0 -89 52 -142.5t146 -53.5q153 0 205 122h354z
M705 870q-99 0 -174 -58t-113 -167h454q5 40 5 49q0 176 -172 176zM389 -115h318l-54 -245h-317z" />
    <glyph glyph-name="uni1EBC" unicode="&#x1ebc;" horiz-adv-x="1351" 
d="M350 1434h1090l-60 -277h-755l-62 -287h715l-57 -276h-715l-68 -318h756l-59 -276h-1090zM485 1556q24 134 100.5 210.5t196.5 76.5q52 0 99 -17.5t76 -38.5t63.5 -38.5t64.5 -17.5q53 0 68 71h184q-25 -134 -101 -210t-196 -76q-52 0 -99 17.5t-76 38.5t-64 38.5
t-66 17.5q-50 0 -65 -72h-185z" />
    <glyph glyph-name="uni1EBD" unicode="&#x1ebd;" horiz-adv-x="1243" 
d="M1128 317q-92 -174 -228.5 -261t-330.5 -87q-128 0 -227 38.5t-159.5 105.5t-91 152.5t-30.5 185.5q0 133 49.5 252.5t134.5 205.5t205 136.5t255 50.5q244 0 364.5 -115t120.5 -324q0 -98 -31 -227h-786q-2 -16 -2 -39q0 -89 52 -142.5t146 -53.5q153 0 205 122h354z
M705 870q-99 0 -174 -58t-113 -167h454q5 40 5 49q0 176 -172 176zM289 1188q24 134 100.5 210.5t196.5 76.5q52 0 99 -17.5t76 -39t63.5 -39t64.5 -17.5q52 0 67 72h185q-25 -134 -101 -210.5t-196 -76.5q-52 0 -99 17.5t-76 39t-64 39t-66 17.5q-51 0 -66 -72h-184z" />
    <glyph glyph-name="uni1ECA" unicode="&#x1eca;" horiz-adv-x="649" 
d="M45 0l305 1434h334l-305 -1434h-334zM31 -115h317l-53 -245h-318z" />
    <glyph glyph-name="uni1ECB" unicode="&#x1ecb;" horiz-adv-x="565" 
d="M238 1065h317l-227 -1065h-318zM315 1434h318l-53 -246h-318zM-12 -115h317l-53 -245h-318z" />
    <glyph glyph-name="uni1ECC" unicode="&#x1ecc;" horiz-adv-x="1632" 
d="M438 604q0 -358 336 -358q136 0 252 82t182 216t66 285q0 359 -336 359q-136 0 -252 -82t-182 -216.5t-66 -285.5zM109 604q0 127 37 252t109.5 234t171.5 193t231.5 132.5t279.5 48.5q323 0 494.5 -172t171.5 -463q0 -127 -37 -252t-110 -234t-171.5 -193t-231.5 -132.5
t-280 -48.5q-323 0 -494 172t-171 463zM578 -115h317l-53 -245h-318z" />
    <glyph glyph-name="uni1ECD" unicode="&#x1ecd;" horiz-adv-x="1271" 
d="M373 451q0 -116 46 -176t156 -60q137 0 231.5 121t94.5 278q0 116 -46.5 176t-156.5 60q-91 0 -166.5 -57.5t-117 -148.5t-41.5 -193zM61 451q0 120 45 235.5t124.5 206.5t202 147t265.5 56q131 0 231.5 -37.5t161 -104t91 -152.5t30.5 -188q0 -120 -45 -235.5
t-124.5 -206.5t-202 -147t-265.5 -56q-131 0 -231.5 37.5t-161 104t-91 152.5t-30.5 188zM395 -115h318l-54 -245h-317z" />
    <glyph glyph-name="uni1EE4" unicode="&#x1ee4;" horiz-adv-x="1519" 
d="M668 -31q-121 0 -222 37.5t-168.5 103.5t-105 156.5t-37.5 194.5q0 49 17 129l180 844h334l-193 -902q-10 -52 -10 -75q0 -101 63 -156t170 -55q127 0 222.5 75t123.5 211l193 902h334l-207 -963q-50 -234 -231.5 -368t-462.5 -134zM485 -115h318l-53 -245h-318z" />
    <glyph glyph-name="uni1EE5" unicode="&#x1ee5;" horiz-adv-x="1302" 
d="M768 92q-129 -123 -315 -123q-173 0 -274 98t-101 265q0 54 16 129l129 604h318l-133 -625q-11 -57 -11 -73q0 -142 162 -142q112 0 189 73t106 204l119 563h319l-227 -1065h-317zM403 -115h318l-53 -245h-318z" />
    <glyph glyph-name="Ygrave" unicode="&#x1ef2;" horiz-adv-x="1304" 
d="M492 553l-295 881h329l170 -594l424 594h373l-668 -881l-118 -553h-334zM1092 1546h-273l-201 256h365z" />
    <glyph glyph-name="ygrave" unicode="&#x1ef3;" horiz-adv-x="1114" 
d="M913 1178h-272l-201 256h365zM-98 -369l51 236h135q73 0 121.5 30.5t89.5 102.5l-174 1065h313l47 -356q17 -133 17 -361h8q99 232 170 359l199 358h342l-666 -1141q-40 -72 -79 -121t-94 -90.5t-129.5 -61.5t-170.5 -20h-180z" />
    <glyph glyph-name="uni1EF8" unicode="&#x1ef8;" horiz-adv-x="1304" 
d="M492 553l-295 881h329l170 -594l424 594h373l-668 -881l-118 -553h-334zM434 1556q24 134 100.5 210.5t196.5 76.5q52 0 99 -17.5t76 -38.5t63.5 -38.5t64.5 -17.5q53 0 68 71h184q-25 -134 -101 -210t-196 -76q-52 0 -99 17.5t-76 38.5t-64 38.5t-66 17.5q-51 0 -66 -72
h-184z" />
    <glyph glyph-name="uni1EF9" unicode="&#x1ef9;" horiz-adv-x="1114" 
d="M-98 -369l51 236h135q73 0 121.5 30.5t89.5 102.5l-174 1065h313l47 -356q17 -133 17 -361h8q99 232 170 359l199 358h342l-666 -1141q-40 -72 -79 -121t-94 -90.5t-129.5 -61.5t-170.5 -20h-180zM256 1188q24 134 100.5 210.5t196.5 76.5q52 0 99 -17.5t76 -39t63.5 -39
t64.5 -17.5q53 0 68 72h184q-25 -134 -101 -210.5t-196 -76.5q-52 0 -99 17.5t-76 39t-64 39t-66 17.5q-51 0 -66 -72h-184z" />
    <glyph glyph-name="uni2000" unicode="&#x2000;" horiz-adv-x="1024" 
 />
    <glyph glyph-name="uni2001" unicode="&#x2001;" horiz-adv-x="2048" 
 />
    <glyph glyph-name="uni2002" unicode="&#x2002;" horiz-adv-x="1024" 
 />
    <glyph glyph-name="uni2003" unicode="&#x2003;" horiz-adv-x="2048" 
 />
    <glyph glyph-name="uni2004" unicode="&#x2004;" horiz-adv-x="681" 
 />
    <glyph glyph-name="uni2005" unicode="&#x2005;" horiz-adv-x="512" 
 />
    <glyph glyph-name="uni2006" unicode="&#x2006;" horiz-adv-x="342" 
 />
    <glyph glyph-name="uni2007" unicode="&#x2007;" horiz-adv-x="1351" 
 />
    <glyph glyph-name="uni2008" unicode="&#x2008;" horiz-adv-x="595" 
 />
    <glyph glyph-name="uni2009" unicode="&#x2009;" horiz-adv-x="256" 
 />
    <glyph glyph-name="uni200A" unicode="&#x200a;" horiz-adv-x="86" 
 />
    <glyph glyph-name="uni200B" unicode="&#x200b;" horiz-adv-x="0" 
 />
    <glyph glyph-name="figuredash" unicode="&#x2012;" horiz-adv-x="1355" 
d="M143 840h1127l-53 -246h-1127z" />
    <glyph glyph-name="endash" unicode="&#x2013;" horiz-adv-x="1355" 
d="M143 655h1127l-53 -245h-1127z" />
    <glyph glyph-name="emdash" unicode="&#x2014;" horiz-adv-x="2420" 
d="M143 655h2192l-54 -245h-2191z" />
    <glyph glyph-name="uni2015" unicode="&#x2015;" horiz-adv-x="2420" 
d="M143 655h2192l-54 -245h-2191z" />
    <glyph glyph-name="quoteleft" unicode="&#x2018;" horiz-adv-x="573" 
d="M516 758h-375l72 338l276 338h160l-205 -338h144z" />
    <glyph glyph-name="quoteright" unicode="&#x2019;" horiz-adv-x="555" 
d="M295 1434h375l-72 -338l-276 -338h-160l205 338h-144z" />
    <glyph glyph-name="quotesinglbase" unicode="&#x201a;" horiz-adv-x="595" 
d="M82 338h375l-72 -338l-276 -338h-160l205 338h-144z" />
    <glyph glyph-name="quotereversed" unicode="&#x201b;" horiz-adv-x="555" 
d="M567 1096h-143l205 -338h-160l-276 338l-72 338h375z" />
    <glyph glyph-name="quotedblleft" unicode="&#x201c;" horiz-adv-x="1085" 
d="M516 758h-375l72 338l276 338h160l-205 -338h144zM1028 758h-375l72 338l276 338h160l-205 -338h144z" />
    <glyph glyph-name="quotedblright" unicode="&#x201d;" horiz-adv-x="1067" 
d="M295 1434h375l-72 -338l-276 -338h-160l205 338h-144zM807 1434h375l-72 -338l-276 -338h-160l205 338h-144z" />
    <glyph glyph-name="quotedblbase" unicode="&#x201e;" horiz-adv-x="1107" 
d="M82 338h375l-72 -338l-276 -338h-160l205 338h-144zM594 338h375l-72 -338l-276 -338h-160l205 338h-144z" />
    <glyph glyph-name="uni201F" unicode="&#x201f;" horiz-adv-x="1067" 
d="M1079 1096h-143l205 -338h-160l-276 338l-72 338h375zM567 1096h-143l205 -338h-160l-276 338l-72 338h375z" />
    <glyph glyph-name="dagger" unicode="&#x2020;" horiz-adv-x="1357" 
d="M330 -369l252 1188h-430l53 246h430l78 369h317l-78 -369h430l-53 -246h-430l-252 -1188h-317z" />
    <glyph glyph-name="daggerdbl" unicode="&#x2021;" horiz-adv-x="1357" 
d="M461 246l121 573h-430l53 246h430l78 369h317l-78 -369h430l-53 -246h-430l-121 -573h430l-53 -246h-430l-78 -369h-317l78 369h-431l54 246h430z" />
    <glyph glyph-name="bullet" unicode="&#x2022;" horiz-adv-x="1024" 
d="M123 532q0 161 114 275.5t275 114.5t275 -114.5t114 -275.5t-114 -275t-275 -114t-275 114t-114 275z" />
    <glyph glyph-name="ellipsis" unicode="&#x2026;" horiz-adv-x="1681" 
d="M82 338h375l-72 -338h-375zM625 338h374l-71 -338h-375zM1167 338h375l-72 -338h-374z" />
    <glyph glyph-name="perthousand" unicode="&#x2030;" horiz-adv-x="2891" 
d="M369 911q0 -163 112 -163q90 0 147.5 110t57.5 258q0 164 -113 164q-90 0 -147 -110.5t-57 -258.5zM152 911q0 112 25.5 204t68 154t99.5 104.5t118.5 61.5t126.5 19q148 0 230.5 -86.5t82.5 -251.5q0 -112 -25.5 -204t-68 -154t-99.5 -104.5t-118.5 -61.5t-126.5 -19
q-148 0 -230.5 86.5t-82.5 251.5zM1487 1434h248l-1104 -1434h-248zM1438 317q0 -163 112 -163q90 0 147.5 110t57.5 258q0 164 -113 164q-90 0 -147 -110.5t-57 -258.5zM1221 317q0 112 25.5 204t68 154t99.5 104.5t118.5 61.5t126.5 19q148 0 230.5 -86.5t82.5 -251.5
q0 -112 -25.5 -204t-68 -153.5t-99.5 -104t-118.5 -61.5t-126.5 -19q-149 0 -231 86t-82 251zM2286 317q0 -163 112 -163q90 0 147.5 110t57.5 258q0 164 -113 164q-90 0 -147 -110.5t-57 -258.5zM2068 317q0 138 38.5 246t102.5 171t140 94.5t158 31.5q148 0 230.5 -86.5
t82.5 -251.5q0 -112 -25.5 -204t-68 -153.5t-99.5 -104t-118.5 -61.5t-126.5 -19q-149 0 -231.5 86t-82.5 251z" />
    <glyph glyph-name="minute" unicode="&#x2032;" horiz-adv-x="512" 
d="M311 1434h314l-88 -420l-381 -316z" />
    <glyph glyph-name="second" unicode="&#x2033;" horiz-adv-x="958" 
d="M311 1434h314l-88 -420l-381 -316zM758 1434h313l-88 -420l-381 -316z" />
    <glyph glyph-name="guilsinglleft" unicode="&#x2039;" horiz-adv-x="866" 
d="M344 184l-295 348l416 349h375l-441 -359l293 -338h-348z" />
    <glyph glyph-name="guilsinglright" unicode="&#x203a;" horiz-adv-x="868" 
d="M524 881l295 -349l-409 -348h-381l438 359l-291 338h348z" />
    <glyph glyph-name="uni203D" unicode="&#x203d;" horiz-adv-x="1112" 
d="M174 1075q42 171 192.5 280t354.5 109q102 0 184 -28t134 -76.5t80 -111.5t28 -134q0 -83 -25 -147.5t-66 -106t-91 -75t-102.5 -62t-98 -58.5t-80 -74t-45.5 -99h-272l114 542h275l-25 -110q26 22 41 38t30 51.5t15 80.5q0 104 -131 104q-57 0 -104 -32t-66 -91h-342z
M283 338h374l-71 -338h-375z" />
    <glyph glyph-name="fraction" unicode="&#x2044;" horiz-adv-x="348" 
d="M639 1434h248l-1104 -1434h-248z" />
    <glyph glyph-name="uni2070" unicode="&#x2070;" horiz-adv-x="847" 
d="M412 1116q0 -164 112 -164q90 0 147.5 110.5t57.5 258.5q0 164 -113 164q-90 0 -147 -110.5t-57 -258.5zM195 1116q0 112 25.5 204t68 154t99.5 104.5t118.5 61.5t126.5 19q148 0 230.5 -86.5t82.5 -251.5q0 -112 -25.5 -204t-68 -154t-99.5 -104.5t-118.5 -61.5
t-126.5 -19q-148 0 -230.5 86.5t-82.5 251.5z" />
    <glyph glyph-name="uni2074" unicode="&#x2074;" horiz-adv-x="827" 
d="M645 1638h260l-110 -522h123l-37 -174h-123l-31 -143h-219l31 143h-420l37 174zM375 1116h200l23 103q37 149 59 215h-8q-44 -64 -147 -181z" />
    <glyph glyph-name="uni2075" unicode="&#x2075;" horiz-adv-x="747" 
d="M197 1157l135 481h553l-39 -174h-344l-33 -110q40 28 115 28q110 0 175.5 -75t65.5 -179q0 -155 -103.5 -252.5t-277.5 -97.5q-133 0 -213.5 68t-80.5 166q0 12 2 22h217q-6 -40 20.5 -63t71.5 -23q67 0 107 48.5t40 127.5q0 99 -90 99q-65 0 -106 -66h-215z" />
    <glyph glyph-name="uni2076" unicode="&#x2076;" horiz-adv-x="806" 
d="M645 1659q125 0 198.5 -53.5t74.5 -151.5h-218q0 20 -16 35.5t-51 15.5q-64 0 -120.5 -52t-74.5 -136q74 59 187 59q117 0 190.5 -77.5t73.5 -176.5q0 -151 -108.5 -247.5t-282.5 -96.5q-77 0 -136.5 27t-95 73.5t-53.5 105t-18 126.5q0 118 25.5 212.5t68.5 156.5
t101.5 103.5t122 59t132.5 17.5zM512 936q69 0 113.5 53.5t44.5 122.5q0 50 -25 81.5t-72 31.5q-70 0 -114.5 -55t-44.5 -126q0 -48 26 -78t72 -30z" />
    <glyph glyph-name="uni2077" unicode="&#x2077;" horiz-adv-x="679" 
d="M358 799h-245l489 665h-369l37 174h615l-37 -174z" />
    <glyph glyph-name="uni2078" unicode="&#x2078;" horiz-adv-x="786" 
d="M473 1384q0 -36 21.5 -56.5t62.5 -20.5q58 0 92.5 33.5t34.5 82.5q0 36 -22.5 56t-63.5 20q-58 0 -91.5 -33t-33.5 -82zM629 1069q0 40 -27.5 66t-75.5 26q-65 0 -107 -39t-42 -94q0 -40 27 -65t75 -25q65 0 107.5 38t42.5 93zM750 1243q46 -24 71 -68.5t25 -99.5
q0 -129 -107.5 -213t-271.5 -84q-134 0 -221.5 67t-87.5 163q0 167 182 247q-39 22 -59.5 61t-20.5 83q0 108 96 184t256 76q131 0 211 -63.5t80 -153.5q0 -63 -42 -118.5t-111 -80.5z" />
    <glyph glyph-name="uni2079" unicode="&#x2079;" horiz-adv-x="806" 
d="M453 778q-125 0 -199 53.5t-74 151.5h217q0 -20 16.5 -35.5t51.5 -15.5q69 0 122 51t72 137q-74 -59 -186 -59q-124 0 -194 76.5t-70 177.5q0 150 111.5 247t279.5 97q81 0 141.5 -26.5t95 -74t50.5 -105t16 -126.5q0 -118 -25.5 -212.5t-68.5 -156.5t-101.5 -103.5
t-122 -59t-132.5 -17.5zM586 1501q-69 0 -113.5 -53.5t-44.5 -122.5q0 -50 24.5 -81.5t71.5 -31.5q70 0 115 55t45 126q0 48 -26 78t-72 30z" />
    <glyph glyph-name="uni2080" unicode="&#x2080;" horiz-adv-x="847" 
d="M201 115q0 -164 112 -164q90 0 147.5 110t57.5 258q0 164 -112 164q-90 0 -147.5 -110t-57.5 -258zM-16 115q0 112 25.5 204t68 153.5t99.5 104t118.5 61.5t126.5 19q148 0 230.5 -86.5t82.5 -251.5q0 -112 -25.5 -204t-68 -153.5t-99.5 -104t-118.5 -61.5t-126.5 -19
q-148 0 -230.5 86.5t-82.5 251.5z" />
    <glyph glyph-name="uni2081" unicode="&#x2081;" horiz-adv-x="575" 
d="M180 248q9 48 41 147h-8q-67 -70 -109 -108l-147 -127l59 272l248 205h219l-178 -840h-219z" />
    <glyph glyph-name="uni2082" unicode="&#x2082;" horiz-adv-x="739" 
d="M31 412q32 109 117 177t223 68q132 0 205 -70t73 -167q0 -90 -53.5 -157t-163.5 -148l-194 -144h335l-36 -174h-635l37 174l366 277q71 55 98 86.5t27 77.5q0 32 -19.5 51.5t-56.5 19.5q-71 0 -94 -71h-229z" />
    <glyph glyph-name="uni2083" unicode="&#x2083;" horiz-adv-x="745" 
d="M141 33q-4 -38 21.5 -60t75.5 -22q62 0 99.5 32.5t37.5 82.5q0 79 -94 79h-72l35 164h71q53 0 83 30.5t30 74.5q0 31 -20 50t-56 19q-35 0 -61.5 -20t-34.5 -51h-227q31 111 121.5 178t218.5 67q126 0 203 -66.5t77 -162.5q0 -74 -43.5 -127t-111.5 -80q96 -47 96 -164
q0 -131 -104 -205.5t-265 -74.5q-127 0 -211 64.5t-84 158.5q0 17 2 33h213z" />
    <glyph glyph-name="uni2084" unicode="&#x2084;" horiz-adv-x="827" 
d="M434 637h260l-110 -522h123l-37 -174h-123l-31 -144h-219l31 144h-420l37 174zM164 115h201l22 102q37 149 59 215h-8q-41 -60 -147 -180z" />
    <glyph glyph-name="uni2085" unicode="&#x2085;" horiz-adv-x="747" 
d="M-14 156l135 481h553l-39 -174h-344l-33 -111q42 29 115 29q110 0 175.5 -75t65.5 -179q0 -155 -103.5 -252.5t-277.5 -97.5q-134 0 -214 67.5t-80 165.5q0 13 2 23h217q-6 -40 20.5 -63t71.5 -23q67 0 107 48.5t40 127.5q0 98 -90 98q-65 0 -106 -65h-215z" />
    <glyph glyph-name="uni2086" unicode="&#x2086;" horiz-adv-x="806" 
d="M434 657q125 0 198.5 -53t74.5 -151h-218q0 20 -16 35.5t-51 15.5q-64 0 -120.5 -52.5t-74.5 -136.5q75 60 187 60q117 0 190.5 -77.5t73.5 -176.5q0 -151 -108.5 -247.5t-282.5 -96.5q-77 0 -136.5 27t-95 73.5t-53.5 105t-18 126.5q0 118 25.5 212.5t68.5 156
t101.5 103t121.5 59t133 17.5zM301 -66q69 0 113.5 53.5t44.5 123.5q0 50 -24.5 81t-72.5 31q-70 0 -114.5 -54.5t-44.5 -125.5q0 -49 26 -79t72 -30z" />
    <glyph glyph-name="uni2087" unicode="&#x2087;" horiz-adv-x="679" 
d="M147 -203h-245l489 666h-368l36 174h615l-37 -174z" />
    <glyph glyph-name="uni2088" unicode="&#x2088;" horiz-adv-x="786" 
d="M262 383q0 -36 22 -57t62 -21q58 0 92.5 34t34.5 83q0 36 -22.5 56t-63.5 20q-58 0 -91.5 -33t-33.5 -82zM418 68q0 40 -27.5 66t-75.5 26q-65 0 -107 -39t-42 -94q0 -40 27 -65t75 -25q65 0 107.5 38t42.5 93zM539 242q46 -24 71 -68.5t25 -99.5q0 -129 -107.5 -213
t-271.5 -84q-134 0 -221.5 66.5t-87.5 162.5q0 168 182 248q-40 22 -60 60.5t-20 82.5q0 108 96 184t256 76q131 0 211 -63.5t80 -153.5q0 -63 -42 -118t-111 -80z" />
    <glyph glyph-name="uni2089" unicode="&#x2089;" horiz-adv-x="806" 
d="M242 -223q-125 0 -199 53.5t-74 151.5h217q0 -20 16.5 -36t51.5 -16q69 0 122.5 51.5t72.5 137.5q-75 -60 -187 -60q-124 0 -194 76.5t-70 177.5q0 150 111.5 247t279.5 97q81 0 141.5 -26.5t95 -73.5t50.5 -104.5t16 -126.5q0 -118 -25.5 -212.5t-68.5 -156.5
t-101.5 -103.5t-122 -59t-132.5 -17.5zM375 500q-69 0 -113.5 -53.5t-44.5 -122.5q0 -50 24.5 -81.5t71.5 -31.5q71 0 115.5 54.5t44.5 125.5q0 49 -26 79t-72 30z" />
    <glyph glyph-name="colonmonetary" unicode="&#x20a1;" horiz-adv-x="1486" 
d="M625 -20q-83 14 -129 30l-90 -215h-216l129 307q-210 167 -210 502q0 155 54.5 303.5t152 269t246.5 198t325 87.5l74 176h215l-78 -186q50 -9 129 -35l92 221h215l-137 -327q103 -100 143 -267h-254l-309 -741q54 45 92 117h354q-68 -188 -217.5 -310t-367.5 -139
l-74 -176h-215zM604 270q56 -24 131 -30l381 913q-53 31 -127 39zM438 604q0 -96 21 -166l299 717q-144 -65 -232 -219t-88 -332z" />
    <glyph glyph-name="uni20A6" unicode="&#x20a6;" horiz-adv-x="1732" 
d="M309 1026l88 408h332l199 -408h372l86 408h334l-88 -408h150l-51 -246h-150l-27 -127h148l-51 -245h-150l-86 -408h-334l-196 408h-373l-86 -408h-334l86 408h-149l51 245h151l27 127h-149l51 246h149zM1249 780h-202l59 -127h119zM588 780q-3 -17 -6.5 -36.5t-9 -46
t-9.5 -44.5h203q-43 87 -59 127h-119z" />
    <glyph glyph-name="Euro" unicode="&#x20ac;" horiz-adv-x="1468" 
d="M594 748q-9 -49 -12 -103h387l-150 -246h-229q23 -91 71.5 -132.5t124.5 -41.5q161 0 228 123h352q-84 -185 -248.5 -282t-365.5 -97q-188 0 -322.5 109.5t-165.5 320.5h-211l53 246h154q4 73 10 103h-141l53 245h152q61 158 169.5 266t241 156.5t285.5 48.5
q97 0 182 -24t150.5 -70t105 -119t43.5 -166h-321q-17 123 -195 123q-98 0 -181 -55.5t-140 -159.5h506l-150 -245h-436z" />
    <glyph glyph-name="uni20B2" unicode="&#x20b2;" horiz-adv-x="1581" 
d="M504 2q-194 59 -294.5 216.5t-100.5 385.5q0 147 49 288.5t137.5 258.5t223.5 199t296 106l39 182h246l-39 -182q389 -46 479 -412h-338q-49 127 -198 146l-203 -950q132 7 222 81t132 201h-188l57 277h512l-170 -799h-258v76q-138 -107 -365 -107l-36 -174h-246z
M438 604q0 -224 127 -313l185 858q-140 -69 -226 -219t-86 -326z" />
    <glyph glyph-name="uni20B5" unicode="&#x20b5;" horiz-adv-x="1486" 
d="M1200 1044q-19 56 -55.5 89.5t-100.5 50.5l-200 -938q149 26 225 174h354q-73 -201 -235.5 -324t-403.5 -127l-36 -174h-246l43 201q-217 54 -326.5 213.5t-109.5 394.5q0 121 32.5 239.5t96.5 224t152.5 188.5t209 137t256.5 67l39 178h246l-41 -186q361 -66 440 -408
h-340zM438 604q0 -259 166 -334l191 899q-159 -57 -258 -215t-99 -350z" />
    <glyph glyph-name="uni20BA" unicode="&#x20ba;" horiz-adv-x="1411" 
d="M250 1051l244 82l63 301h328l-39 -185l411 140l-51 -236l-411 -139l-25 -119l412 139l-52 -235l-411 -137l-80 -383q343 71 420 405h311q-72 -331 -312 -507.5t-612 -176.5h-194l115 543l-244 -82l51 235l244 82l24 119l-243 -82z" />
    <glyph glyph-name="uni20BF" unicode="&#x20bf;" horiz-adv-x="1490" 
d="M643 0h-113l-43 -205h-245l43 205h-240l305 1434h240l45 204h246l-45 -204h112l45 204h246l-47 -219q132 -31 203 -121.5t71 -212.5q0 -116 -55.5 -206t-155.5 -142q72 -41 103 -103.5t31 -152.5q0 -209 -137 -341.5t-363 -139.5l-43 -205h-246zM856 276q57 0 99 18.5
t64 49t32 63.5t10 70q0 57 -34.5 92t-100.5 35h-418l-70 -328h418zM950 870q86 0 134.5 48.5t48.5 130.5q0 108 -121 108h-387l-62 -287h387z" />
    <glyph glyph-name="uni2113" unicode="&#x2113;" horiz-adv-x="1171" 
d="M82 451q70 24 135 51q-12 114 -12 235q0 99 18.5 198.5t58.5 195t97.5 169.5t142.5 119t185 45q162 0 252 -84.5t90 -242.5q0 -213 -138 -390.5t-379 -312.5q23 -130 74 -190t131 -60q121 0 226 43l-93 -233q-73 -25 -155 -25q-340 0 -453 336q-22 -9 -180 -67v213z
M829 1137q0 46 -25.5 79t-86.5 33q-55 0 -97 -43t-65.5 -114.5t-35 -153.5t-11.5 -170q0 -76 2 -109q319 214 319 478z" />
    <glyph glyph-name="uni2117" unicode="&#x2117;" horiz-adv-x="1669" 
d="M127 717q0 151 59.5 289t160 238.5t238.5 160t289 59.5t289.5 -59.5t239 -160t160 -238.5t59.5 -289t-59.5 -289.5t-160 -239t-239 -160t-289.5 -59.5t-289 59.5t-238.5 160t-160 239t-59.5 289.5zM291 717q0 -158 78 -292.5t212.5 -213t292.5 -78.5t292.5 78.5t213 213
t78.5 292.5t-78.5 292.5t-213 212.5t-292.5 78t-292.5 -78t-212.5 -212.5t-78 -292.5zM782 297h-215v840h451q128 0 207.5 -79.5t79.5 -197.5t-79.5 -197t-207.5 -79h-236v-287zM987 758q103 0 103 102q0 103 -103 103h-205v-205h205z" />
    <glyph glyph-name="trademark" unicode="&#x2122;" horiz-adv-x="2050" 
d="M961 1260h-265l-141 -666h-219l141 666h-264l37 174h747zM1479 942q59 97 131 197l219 295h262l-178 -840h-219l63 297q16 83 64 225h-9q-72 -120 -149 -217l-246 -305l-114 305q-33 79 -60 217h-8q-10 -119 -31 -225l-63 -297h-219l178 840h237l95 -295q20 -59 47 -197z
" />
    <glyph glyph-name="Omega" unicode="&#x2126;" horiz-adv-x="1509" 
d="M901 1219q-190 0 -317 -137t-127 -347q0 -125 58 -202t159 -103l-92 -430h-564l54 246h358l2 10q-128 53 -208.5 192t-80.5 293q0 152 62 287t168 230.5t252 150.5t309 55q249 0 407 -152.5t158 -377.5q0 -214 -130 -400.5t-343 -277.5l-2 -10h297l-53 -246h-563l92 430
q168 40 276.5 165.5t108.5 324.5q0 137 -74 218t-207 81z" />
    <glyph glyph-name="estimated" unicode="&#x212e;" horiz-adv-x="1658" 
d="M829 1382q-264 0 -460 -186v-438h921v438q-196 186 -461 186zM1403 238q-107 -126 -255.5 -197.5t-318.5 -71.5q-151 0 -289 59.5t-238.5 160t-160 239t-59.5 289.5t59.5 289t160 238.5t238.5 160t289 59.5t289.5 -59.5t239 -160t160 -238.5t59.5 -289v-41h-1208v-438
q193 -187 460 -187q151 0 283.5 63t226.5 175z" />
    <glyph glyph-name="uni2150" unicode="&#x2150;" horiz-adv-x="1650" 
d="M348 1044q10 50 41 148h-8q-75 -78 -109 -109l-147 -127l59 273l248 205h219l-178 -840h-219zM1227 1434h248l-1104 -1434h-248zM1165 0h-245l489 666h-369l37 174h615l-37 -174z" />
    <glyph glyph-name="uni2151" unicode="&#x2151;" horiz-adv-x="1742" 
d="M348 1044q10 50 41 148h-8q-75 -78 -109 -109l-147 -127l59 273l248 205h219l-178 -840h-219zM1227 1434h248l-1104 -1434h-248zM1221 -20q-126 0 -199.5 53t-73.5 151h217q0 -20 16.5 -35.5t51.5 -15.5q69 0 122 51.5t72 137.5q-75 -60 -186 -60q-124 0 -194 76.5
t-70 177.5q0 150 111.5 247t279.5 97q81 0 141.5 -26.5t95 -74t50.5 -105t16 -126.5q0 -118 -25.5 -212.5t-68.5 -156t-101.5 -103t-121.5 -59t-133 -17.5zM1354 702q-69 0 -113.5 -53.5t-44.5 -122.5q0 -50 24.5 -81t71.5 -31q70 0 115 54.5t45 125.5q0 48 -26 78t-72 30z
" />
    <glyph glyph-name="uni2152" unicode="&#x2152;" horiz-adv-x="2371" 
d="M348 1044q10 50 41 148h-8q-75 -78 -109 -109l-147 -127l59 273l248 205h219l-178 -840h-219zM1227 1434h248l-1104 -1434h-248zM1163 451q9 48 41 147h-8q-75 -78 -109 -109l-147 -127l59 273l248 205h219l-178 -840h-219zM1765 317q0 -163 113 -163q90 0 147.5 110
t57.5 258q0 164 -113 164q-90 0 -147.5 -110.5t-57.5 -258.5zM1548 317q0 138 38.5 246t102.5 171t140 94.5t158 31.5q148 0 230.5 -86.5t82.5 -251.5q0 -112 -25.5 -204t-68 -153.5t-99.5 -104t-118.5 -61.5t-126.5 -19q-149 0 -231.5 86t-82.5 251z" />
    <glyph glyph-name="onethird" unicode="&#x2153;" horiz-adv-x="1679" 
d="M348 1044q10 50 41 148h-8q-75 -78 -109 -109l-147 -127l59 273l248 205h219l-178 -840h-219zM1227 1434h248l-1104 -1434h-248zM1118 236q-5 -38 21 -60t75 -22q62 0 100 32t38 82q0 37 -23.5 58.5t-71.5 21.5h-71l35 164h71q53 0 83 30t30 74q0 32 -20 51t-56 19
q-35 0 -61.5 -20.5t-34.5 -51.5h-227q31 111 121.5 178.5t218.5 67.5q126 0 203 -66.5t77 -162.5q0 -74 -44 -127t-112 -80q97 -48 97 -164q0 -131 -104 -205.5t-265 -74.5q-127 0 -211 64.5t-84 158.5q0 17 2 33h213z" />
    <glyph glyph-name="twothirds" unicode="&#x2154;" horiz-adv-x="1855" 
d="M197 1208q32 109 117 177.5t223 68.5q132 0 205 -70t73 -167q0 -47 -15.5 -89t-47.5 -80t-66.5 -68t-87.5 -69l-195 -143h336l-37 -174h-634l36 174l367 276q71 55 98 86.5t27 77.5q0 32 -19.5 52t-56.5 20q-70 0 -94 -72h-229zM1403 1434h248l-1104 -1434h-248z
M1294 236q-4 -38 21.5 -60t75.5 -22q62 0 99.5 32t37.5 82q0 37 -23 58.5t-71 21.5h-72l35 164h71q53 0 83 30t30 74q0 32 -20 51t-56 19q-35 0 -61.5 -20.5t-34.5 -51.5h-227q31 111 121.5 178.5t218.5 67.5q126 0 203 -66.5t77 -162.5q0 -74 -43.5 -127t-111.5 -80
q96 -47 96 -164q0 -131 -104 -205.5t-265 -74.5q-127 0 -211 64.5t-84 158.5q0 17 2 33h213z" />
    <glyph glyph-name="uni2155" unicode="&#x2155;" horiz-adv-x="1681" 
d="M348 1044q10 50 41 148h-8q-75 -78 -109 -109l-147 -127l59 273l248 205h219l-178 -840h-219zM1227 1434h248l-1104 -1434h-248zM961 358l135 482h553l-39 -174h-344l-33 -111q42 29 115 29q110 0 175.5 -75t65.5 -179q0 -155 -103.5 -252.5t-277.5 -97.5
q-134 0 -214.5 68t-80.5 165q0 13 2 23h218q-6 -40 20.5 -63t71.5 -23q67 0 107 48.5t40 127.5q0 98 -90 98q-65 0 -106 -66h-215z" />
    <glyph glyph-name="uni2156" unicode="&#x2156;" horiz-adv-x="1857" 
d="M197 1208q32 109 117 177.5t223 68.5q132 0 205 -70t73 -167q0 -47 -15.5 -89t-47.5 -80t-66.5 -68t-87.5 -69l-195 -143h336l-37 -174h-634l36 174l367 276q71 55 98 86.5t27 77.5q0 32 -19.5 52t-56.5 20q-70 0 -94 -72h-229zM1403 1434h248l-1104 -1434h-248z
M1137 358l135 482h553l-39 -174h-344l-33 -111q42 29 115 29q110 0 175.5 -75t65.5 -179q0 -155 -103.5 -252.5t-277.5 -97.5q-134 0 -214 67.5t-80 165.5q0 13 2 23h217q-6 -40 20.5 -63t71.5 -23q67 0 107 48.5t40 127.5q0 98 -90 98q-65 0 -106 -66h-215z" />
    <glyph glyph-name="uni2157" unicode="&#x2157;" horiz-adv-x="1837" 
d="M307 829q-4 -38 21 -59.5t75 -21.5q62 0 100 32t38 82q0 37 -23.5 58.5t-71.5 21.5h-71l35 164h71q53 0 83 30t30 74q0 32 -20 51t-56 19q-35 0 -61.5 -20.5t-34.5 -51.5h-227q31 111 121.5 178.5t218.5 67.5q126 0 203 -66.5t77 -162.5q0 -74 -44 -127t-112 -80
q97 -48 97 -164q0 -131 -104 -206t-265 -75q-127 0 -211 65t-84 159q0 16 2 32h213zM1382 1434h248l-1104 -1434h-247zM1116 358l135 482h553l-39 -174h-344l-32 -111q42 29 114 29q111 0 176.5 -75t65.5 -179q0 -155 -103.5 -252.5t-277.5 -97.5q-134 0 -214.5 68
t-80.5 165q0 13 2 23h217q-6 -40 20.5 -63t71.5 -23q67 0 107.5 48.5t40.5 127.5q0 98 -90 98q-66 0 -107 -66h-215z" />
    <glyph glyph-name="uni2158" unicode="&#x2158;" horiz-adv-x="1918" 
d="M602 1434h260l-110 -523h122l-36 -174h-123l-31 -143h-219l31 143h-420l37 174zM332 911h200l23 103q37 149 59 215h-8q-41 -60 -147 -180zM1464 1434h248l-1104 -1434h-248zM1198 358l135 482h553l-39 -174h-344l-33 -111q42 29 115 29q111 0 176.5 -75t65.5 -179
q0 -155 -103.5 -252.5t-277.5 -97.5q-134 0 -214.5 68t-80.5 165q0 13 2 23h217q-6 -40 20.5 -63t71.5 -23q67 0 107.5 48.5t40.5 127.5q0 98 -90 98q-66 0 -107 -66h-215z" />
    <glyph glyph-name="uni2159" unicode="&#x2159;" horiz-adv-x="1742" 
d="M348 1044q10 50 41 148h-8q-75 -78 -109 -109l-147 -127l59 273l248 205h219l-178 -840h-219zM1227 1434h248l-1104 -1434h-248zM1413 860q125 0 198.5 -53.5t74.5 -151.5h-218q0 21 -16 36.5t-51 15.5q-64 0 -120.5 -52.5t-74.5 -136.5q75 60 187 60q117 0 190.5 -77.5
t73.5 -176.5q0 -151 -108.5 -247.5t-282.5 -96.5q-77 0 -136.5 26.5t-95 73t-53.5 105t-18 126.5q0 118 25.5 212.5t68.5 156.5t101.5 103.5t122 59t132.5 17.5zM1280 137q69 0 113.5 53.5t44.5 122.5q0 50 -25 81.5t-72 31.5q-70 0 -114.5 -54.5t-44.5 -125.5q0 -49 26 -79
t72 -30z" />
    <glyph glyph-name="uni215A" unicode="&#x215a;" horiz-adv-x="1900" 
d="M152 952l135 482h553l-39 -174h-344l-33 -111q42 29 115 29q110 0 175.5 -75t65.5 -179q0 -155 -103.5 -253t-277.5 -98q-133 0 -214 68t-81 166q0 12 2 22h218q-6 -40 20.5 -63t71.5 -23q67 0 107 49t40 128q0 98 -90 98q-65 0 -106 -66h-215zM1384 1434h248
l-1104 -1434h-247zM1571 860q125 0 198 -53.5t74 -151.5h-217q0 21 -16 36.5t-51 15.5q-64 0 -120.5 -52.5t-74.5 -136.5q75 60 186 60q117 0 191 -78t74 -176q0 -151 -109 -247.5t-283 -96.5q-77 0 -136.5 26.5t-95 73t-53.5 105t-18 126.5q0 118 25.5 212.5t68.5 156.5
t102 103.5t122 59t133 17.5zM1438 137q69 0 113 53t44 123q0 50 -24.5 81.5t-71.5 31.5q-71 0 -115.5 -54.5t-44.5 -125.5q0 -48 26.5 -78.5t72.5 -30.5z" />
    <glyph glyph-name="oneeighth" unicode="&#x215b;" horiz-adv-x="1722" 
d="M348 1044q10 50 41 148h-8q-75 -78 -109 -109l-147 -127l59 273l248 205h219l-178 -840h-219zM1227 1434h248l-1104 -1434h-248zM1239 586q0 -36 22 -57t62 -21q58 0 92.5 34t34.5 83q0 35 -22.5 55t-63.5 20q-58 0 -91.5 -32.5t-33.5 -81.5zM1395 270q0 40 -27.5 66
t-75.5 26q-65 0 -107 -39t-42 -94q0 -40 27 -65t75 -25q65 0 107.5 38t42.5 93zM1516 444q46 -24 71 -68.5t25 -99.5q0 -129 -107.5 -212.5t-271.5 -83.5q-134 0 -221.5 66.5t-87.5 162.5q0 168 182 248q-40 22 -60 60.5t-20 82.5q0 108 96 184t256 76q131 0 211 -63.5
t80 -153.5q0 -63 -42 -118.5t-111 -80.5z" />
    <glyph glyph-name="threeeighths" unicode="&#x215c;" horiz-adv-x="1878" 
d="M307 829q-4 -38 21 -59.5t75 -21.5q62 0 100 32t38 82q0 37 -23.5 58.5t-71.5 21.5h-71l35 164h71q53 0 83 30t30 74q0 32 -20 51t-56 19q-35 0 -61.5 -20.5t-34.5 -51.5h-227q31 111 121.5 178.5t218.5 67.5q126 0 203 -66.5t77 -162.5q0 -74 -44 -127t-112 -80
q97 -48 97 -164q0 -131 -104 -206t-265 -75q-127 0 -211 65t-84 159q0 16 2 32h213zM1382 1434h248l-1104 -1434h-247zM1395 586q0 -36 22 -57t62 -21q58 0 92.5 34t34.5 83q0 35 -22.5 55t-63.5 20q-58 0 -91.5 -32.5t-33.5 -81.5zM1550 270q0 40 -27 66t-75 26
q-65 0 -107.5 -39t-42.5 -94q0 -39 27.5 -64.5t75.5 -25.5q65 0 107 38t42 93zM1671 444q46 -24 71 -68.5t25 -99.5q0 -129 -107 -212.5t-271 -83.5q-134 0 -222 67t-88 162q0 168 183 248q-40 22 -60 60.5t-20 82.5q0 108 96 184t256 76q131 0 211 -63.5t80 -153.5
q0 -63 -42.5 -118.5t-111.5 -80.5z" />
    <glyph glyph-name="fiveeighths" unicode="&#x215d;" horiz-adv-x="1880" 
d="M152 952l135 482h553l-39 -174h-344l-33 -111q42 29 115 29q110 0 175.5 -75t65.5 -179q0 -155 -103.5 -253t-277.5 -98q-133 0 -214 68t-81 166q0 12 2 22h218q-6 -40 20.5 -63t71.5 -23q67 0 107 49t40 128q0 98 -90 98q-65 0 -106 -66h-215zM1384 1434h248
l-1104 -1434h-247zM1397 586q0 -36 22 -57t62 -21q58 0 92.5 34t34.5 83q0 35 -22.5 55t-63.5 20q-58 0 -91.5 -32.5t-33.5 -81.5zM1552 270q0 40 -27 66t-75 26q-65 0 -107.5 -39t-42.5 -94q0 -39 27.5 -64.5t75.5 -25.5q65 0 107 38t42 93zM1673 444q46 -24 71 -68.5
t25 -99.5q0 -129 -107 -212.5t-271 -83.5q-134 0 -222 67t-88 162q0 168 183 248q-40 22 -60 60.5t-20 82.5q0 108 96 184t256 76q131 0 211 -63.5t80 -153.5q0 -63 -42.5 -118.5t-111.5 -80.5z" />
    <glyph glyph-name="seveneighths" unicode="&#x215e;" horiz-adv-x="1699" 
d="M315 594h-245l489 666h-369l37 174h615l-37 -174zM1204 1434h248l-1104 -1434h-248zM1217 586q0 -36 21.5 -57t61.5 -21q58 0 92.5 34t34.5 83q0 35 -22.5 55t-63.5 20q-58 0 -91 -32.5t-33 -81.5zM1372 270q0 40 -27 66t-75 26q-65 0 -107.5 -39t-42.5 -94
q0 -39 27.5 -64.5t75.5 -25.5q65 0 107 38t42 93zM1493 444q46 -24 71 -68.5t25 -99.5q0 -129 -107.5 -212.5t-271.5 -83.5q-134 0 -221.5 66.5t-87.5 162.5q0 168 182 248q-79 45 -79 143q0 108 96 184t256 76q131 0 211 -63.5t80 -153.5q0 -63 -42.5 -118.5t-111.5 -80.5z
" />
    <glyph glyph-name="uni215F" unicode="&#x215f;" horiz-adv-x="935" 
d="M348 1044q10 50 41 148h-8q-75 -78 -109 -109l-147 -127l59 273l248 205h219l-178 -840h-219zM1227 1434h248l-1104 -1434h-248z" />
    <glyph glyph-name="uni2160" unicode="&#x2160;" horiz-adv-x="649" 
d="M45 0l305 1434h334l-305 -1434h-334z" />
    <glyph glyph-name="uni2161" unicode="&#x2161;" horiz-adv-x="1232" 
d="M45 0l305 1434h334l-305 -1434h-334zM629 0l305 1434h334l-305 -1434h-334z" />
    <glyph glyph-name="uni2162" unicode="&#x2162;" horiz-adv-x="1816" 
d="M45 0l305 1434h334l-305 -1434h-334zM629 0l305 1434h334l-305 -1434h-334zM1212 0l306 1434h333l-305 -1434h-334z" />
    <glyph glyph-name="uni2163" unicode="&#x2163;" horiz-adv-x="1961" 
d="M45 0l305 1434h334l-305 -1434h-334zM1208 778q14 -114 27 -409h8q96 223 197 409l362 656h355l-828 -1434h-317l-217 1434h329z" />
    <glyph glyph-name="uni2164" unicode="&#x2164;" horiz-adv-x="1366" 
d="M608 778q14 -114 27 -409h8q96 223 197 409l362 656h354l-827 -1434h-317l-217 1434h329z" />
    <glyph glyph-name="uni2165" unicode="&#x2165;" horiz-adv-x="1959" 
d="M606 778q14 -114 27 -409h8q96 223 197 409l362 656h354l-827 -1434h-317l-217 1434h329zM1356 0l305 1434h334l-305 -1434h-334z" />
    <glyph glyph-name="uni2166" unicode="&#x2166;" horiz-adv-x="2539" 
d="M602 778q14 -114 27 -409h8q96 223 197 409l362 656h354l-827 -1434h-317l-218 1434h330zM1352 0l305 1434h334l-305 -1434h-334zM1935 0l306 1434h333l-305 -1434h-334z" />
    <glyph glyph-name="uni2167" unicode="&#x2167;" horiz-adv-x="3129" 
d="M598 778q14 -114 27 -409h8q99 232 196 409l363 656h354l-827 -1434h-318l-217 1434h330zM1348 0l305 1434h334l-306 -1434h-333zM1942 0l305 1434h333l-305 -1434h-333zM2525 0l305 1434h334l-305 -1434h-334z" />
    <glyph glyph-name="uni2168" unicode="&#x2168;" horiz-adv-x="1996" 
d="M45 0l305 1434h334l-305 -1434h-334zM1315 487l-426 -487h-400l689 770l-332 664h352l199 -414l360 414h400l-623 -697l369 -737h-353z" />
    <glyph glyph-name="uni2169" unicode="&#x2169;" horiz-adv-x="1380" 
d="M698 487l-426 -487h-399l688 770l-332 664h353l198 -414l361 414h399l-622 -697l368 -737h-352z" />
    <glyph glyph-name="uni216A" unicode="&#x216a;" horiz-adv-x="1998" 
d="M698 487l-426 -487h-399l688 770l-332 664h353l198 -414l361 414h399l-622 -697l368 -737h-352zM1395 0l305 1434h334l-305 -1434h-334z" />
    <glyph glyph-name="uni216B" unicode="&#x216b;" horiz-adv-x="2582" 
d="M698 487l-426 -487h-399l688 770l-332 664h353l198 -414l361 414h399l-622 -697l368 -737h-352zM1395 0l305 1434h334l-305 -1434h-334zM1978 0l306 1434h333l-305 -1434h-334z" />
    <glyph glyph-name="uni216C" unicode="&#x216c;" horiz-adv-x="1222" 
d="M350 1434h334l-246 -1158h715l-59 -276h-1049z" />
    <glyph glyph-name="uni216D" unicode="&#x216d;" horiz-adv-x="1486" 
d="M1200 1044q-26 75 -88 112.5t-174 37.5q-139 0 -255.5 -84t-180.5 -219t-64 -287q0 -176 79.5 -270t256.5 -94q204 0 295 180h354q-74 -203 -238.5 -327t-410.5 -124q-167 0 -295 46t-208.5 130.5t-121 200t-40.5 258.5q0 127 36 252t108 234.5t170 193t231.5 132
t283.5 48.5q501 0 602 -420h-340z" />
    <glyph glyph-name="uni216E" unicode="&#x216e;" horiz-adv-x="1538" 
d="M1503 840q0 -260 -106.5 -451t-298 -290t-445.5 -99h-608l305 1434h557q277 0 436.5 -164.5t159.5 -429.5zM1171 838q0 159 -80 239t-233 80h-233l-187 -881h234q235 0 367 149t132 413z" />
    <glyph glyph-name="uni216F" unicode="&#x216f;" horiz-adv-x="1904" 
d="M662 541q-64 202 -97 391h-8q-42 -280 -68 -410l-110 -522h-334l305 1434h350l142 -453q38 -117 100 -387q17 25 51.5 78t51 78.5t45 67.5t56 80.5t60.5 82.5l334 453h399l-305 -1434h-334l111 522q34 167 109 410h-9q-148 -236 -264 -391l-407 -541z" />
    <glyph glyph-name="uni2170" unicode="&#x2170;" horiz-adv-x="565" 
d="M238 1065h317l-227 -1065h-318zM315 1434h318l-53 -246h-318z" />
    <glyph glyph-name="uni2171" unicode="&#x2171;" horiz-adv-x="1071" 
d="M238 1065h317l-227 -1065h-318zM315 1434h318l-53 -246h-318zM743 1065h318l-227 -1065h-318zM821 1434h318l-54 -246h-317z" />
    <glyph glyph-name="uni2172" unicode="&#x2172;" horiz-adv-x="1576" 
d="M238 1065h317l-227 -1065h-318zM315 1434h318l-53 -246h-318zM743 1065h318l-227 -1065h-318zM821 1434h318l-54 -246h-317zM1249 1065h318l-228 -1065h-317zM1327 1434h318l-54 -246h-317z" />
    <glyph glyph-name="uni2173" unicode="&#x2173;" horiz-adv-x="1662" 
d="M238 1065h317l-227 -1065h-318zM315 1434h318l-53 -246h-318zM639 1065h319l48 -350q11 -81 26 -377h8q101 237 183 377l194 350h357l-637 -1065h-316z" />
    <glyph glyph-name="uni2174" unicode="&#x2174;" horiz-adv-x="1150" 
d="M123 1065h319l47 -350q12 -94 27 -377h8q101 237 183 377l194 350h356l-636 -1065h-316z" />
    <glyph glyph-name="uni2175" unicode="&#x2175;" horiz-adv-x="1660" 
d="M119 1065h319l47 -350q12 -94 27 -377h8q103 243 182 377l195 350h356l-637 -1065h-315zM1333 1065h318l-228 -1065h-317zM1411 1434h318l-54 -246h-317z" />
    <glyph glyph-name="uni2176" unicode="&#x2176;" horiz-adv-x="2164" 
d="M117 1065h319l47 -350q12 -94 27 -377h8q103 243 182 377l195 350h356l-637 -1065h-315zM1331 1065h318l-228 -1065h-317zM1409 1434h317l-53 -246h-317zM1837 1065h317l-227 -1065h-317zM1915 1434h317l-53 -246h-317z" />
    <glyph glyph-name="uni2177" unicode="&#x2177;" horiz-adv-x="2666" 
d="M113 1065h319l47 -350q12 -94 27 -377h8q103 243 182 377l195 350h356l-637 -1065h-315zM1327 1065h318l-228 -1065h-317zM1405 1434h317l-53 -246h-317zM1833 1065h317l-227 -1065h-317zM1911 1434h317l-53 -246h-317zM2339 1065h317l-227 -1065h-318zM2417 1434h317
l-53 -246h-318z" />
    <glyph glyph-name="uni2178" unicode="&#x2178;" horiz-adv-x="1638" 
d="M238 1065h317l-227 -1065h-318zM315 1434h318l-53 -246h-318zM1128 805l222 260h376l-471 -522l275 -543h-342l-144 303l-260 -303h-376l512 567l-254 498h342z" />
    <glyph glyph-name="uni2179" unicode="&#x2179;" horiz-adv-x="1114" 
d="M604 805l221 260h377l-471 -522l275 -543h-342l-144 303l-260 -303h-377l512 567l-254 498h342z" />
    <glyph glyph-name="uni217A" unicode="&#x217a;" horiz-adv-x="1638" 
d="M604 805l221 260h377l-471 -522l275 -543h-342l-144 303l-260 -303h-377l512 567l-254 498h342zM1311 1065h317l-227 -1065h-318zM1389 1434h317l-53 -246h-318z" />
    <glyph glyph-name="uni217B" unicode="&#x217b;" horiz-adv-x="2144" 
d="M604 805l221 260h377l-471 -522l275 -543h-342l-144 303l-260 -303h-377l512 567l-254 498h342zM1311 1065h317l-227 -1065h-318zM1389 1434h317l-53 -246h-318zM1817 1065h317l-227 -1065h-318zM1894 1434h318l-53 -246h-318z" />
    <glyph glyph-name="uni217C" unicode="&#x217c;" horiz-adv-x="565" 
d="M315 1434h318l-305 -1434h-318z" />
    <glyph glyph-name="uni217D" unicode="&#x217d;" horiz-adv-x="1148" 
d="M1069 317q-63 -160 -187.5 -254t-316.5 -94q-131 0 -230 37.5t-157.5 104.5t-87.5 152t-29 188q0 96 27 189.5t80.5 175.5t127.5 144.5t175.5 99t216.5 36.5q385 0 459 -328h-313q-29 88 -146 88q-91 0 -164.5 -59t-112 -151t-38.5 -195q0 -116 42.5 -178t149.5 -62
q120 0 183 106h321z" />
    <glyph glyph-name="uni217E" unicode="&#x217e;" horiz-adv-x="1339" 
d="M580 215q99 0 178.5 62.5t120.5 156.5t41 195q0 110 -59 165.5t-146 55.5q-102 0 -182 -63.5t-120 -158.5t-40 -200q0 -108 55.5 -160.5t151.5 -52.5zM805 92q-44 -56 -125 -89.5t-186 -33.5q-132 0 -233 64t-152.5 168t-51.5 227q0 95 26.5 190.5t79 181t124 152
t168 105.5t204.5 39q129 0 213.5 -46t112.5 -108l105 492h317l-305 -1434h-318z" />
    <glyph glyph-name="uni217F" unicode="&#x217f;" horiz-adv-x="2002" 
d="M870 625q11 57 11 80q0 135 -154 135q-97 0 -170.5 -61t-101.5 -185l-127 -594h-318l228 1065h317l-20 -94q58 60 142 92.5t167 32.5q118 0 200.5 -44.5t118.5 -129.5q154 174 398 174q162 0 265 -96.5t103 -258.5q0 -50 -14 -116l-133 -625h-318l133 625q11 57 11 80
q0 135 -154 135q-97 0 -170.5 -61t-101.5 -185l-127 -594h-318z" />
    <glyph glyph-name="uni2189" unicode="&#x2189;" horiz-adv-x="1939" 
d="M369 911q0 -163 112 -163q90 0 147.5 110t57.5 258q0 164 -113 164q-90 0 -147 -110.5t-57 -258.5zM152 911q0 112 25.5 204t68 154t99.5 104.5t118.5 61.5t126.5 19q148 0 230.5 -86.5t82.5 -251.5q0 -112 -25.5 -204t-68 -154t-99.5 -104.5t-118.5 -61.5t-126.5 -19
q-148 0 -230.5 86.5t-82.5 251.5zM1487 1434h248l-1104 -1434h-248zM1378 236q-4 -38 21.5 -60t75.5 -22q62 0 99.5 32t37.5 82q0 37 -23 58.5t-71 21.5h-72l35 164h71q53 0 83 30t30 74q0 32 -20 51t-56 19q-35 0 -61.5 -20.5t-34.5 -51.5h-227q31 111 121.5 178.5
t218.5 67.5q126 0 203 -66.5t77 -162.5q0 -74 -43.5 -127t-111.5 -80q96 -47 96 -164q0 -131 -104 -205.5t-265 -74.5q-127 0 -211 64.5t-84 158.5q0 17 2 33h213z" />
    <glyph glyph-name="arrowleft" unicode="&#x2190;" horiz-adv-x="1669" 
d="M532 676h1014v-287h-1014l431 -389h-349l-532 532l532 533h349z" />
    <glyph glyph-name="arrowup" unicode="&#x2191;" horiz-adv-x="1310" 
d="M123 584v348l532 532l533 -532v-348l-389 430v-1014h-287v1014z" />
    <glyph glyph-name="arrowright" unicode="&#x2192;" horiz-adv-x="1669" 
d="M707 1065h348l532 -533l-532 -532h-348l430 389h-1014v287h1014z" />
    <glyph glyph-name="arrowdown" unicode="&#x2193;" horiz-adv-x="1310" 
d="M512 420v1014h287v-1014l389 430v-348l-533 -533l-532 533v348z" />
    <glyph glyph-name="uni2196" unicode="&#x2196;" horiz-adv-x="1382" 
d="M410 434l-246 246v754h754l245 -246l-579 29l716 -717l-202 -203l-717 717z" />
    <glyph glyph-name="uni2197" unicode="&#x2197;" horiz-adv-x="1382" 
d="M1001 1014l-716 -717l-203 203l717 717l-580 -29l246 246h754v-754l-246 -246z" />
    <glyph glyph-name="uni2198" unicode="&#x2198;" horiz-adv-x="1382" 
d="M973 999l246 -245v-754h-754l-246 246l580 -29l-717 717l203 203l716 -717z" />
    <glyph glyph-name="uni2199" unicode="&#x2199;" horiz-adv-x="1382" 
d="M381 420l717 717l202 -203l-716 -717l579 29l-245 -246h-754v754l246 245z" />
    <glyph glyph-name="uni21A5" unicode="&#x21a5;" 
d="M113 164h1065v-164h-1065v164zM338 573v185l307 307l307 -307v-185l-221 236v-563h-172v563z" />
    <glyph glyph-name="uni21A9" unicode="&#x21a9;" horiz-adv-x="2355" 
d="M1741 676q98 0 166.5 68.5t68.5 166.5t-68.5 167t-166.5 69h-307v287h307q110 0 208.5 -40.5t169.5 -109.5t112.5 -166.5t41.5 -206.5q0 -146 -70.5 -266t-192.5 -188t-269 -68h-1209l431 -389h-349l-532 532l532 533h349l-431 -389h1209z" />
    <glyph glyph-name="uni21AA" unicode="&#x21aa;" horiz-adv-x="2355" 
d="M1823 676l-430 389h348l532 -533l-532 -532h-348l430 389h-1209q-147 0 -269 68t-192.5 188t-70.5 266q0 109 41.5 206.5t112.5 166.5t169.5 109.5t208.5 40.5h308v-287h-308q-98 0 -166.5 -69t-68.5 -167t68.5 -166.5t166.5 -68.5h1209z" />
    <glyph glyph-name="partialdiff" unicode="&#x2202;" horiz-adv-x="1302" 
d="M496 215q97 0 180.5 57.5t129.5 146t46 181.5q0 68 -35.5 108t-105.5 40q-98 0 -181 -57.5t-128.5 -145t-45.5 -178.5q0 -66 35 -109t105 -43zM793 1229q-161 0 -299 -66l94 246q151 55 276 55q197 0 314.5 -122t117.5 -310q0 -168 -34 -324t-103 -290.5t-166.5 -234.5
t-233 -157t-294.5 -57q-194 0 -310 110t-116 269q0 120 52 236.5t140 207t215 146t267 55.5q178 0 250 -102q22 61 22 149q0 189 -192 189z" />
    <glyph glyph-name="Delta" unicode="&#x2206;" 
d="M4 246l672 1188h319l168 -1188l-53 -246h-1159zM342 246h516l-92 782z" />
    <glyph glyph-name="product" unicode="&#x220f;" horiz-adv-x="1359" 
d="M1024 1188h-410l-252 -1188h-317l305 1434h1045l-305 -1434h-318z" />
    <glyph glyph-name="summation" unicode="&#x2211;" horiz-adv-x="1253" 
d="M997 -369h-1116l53 246l672 655l-393 656l51 246h1096l-51 -246h-740l328 -572l-49 -237l-502 -502h705z" />
    <glyph glyph-name="minus" unicode="&#x2212;" horiz-adv-x="1316" 
d="M186 840h1071l-53 -246h-1071z" />
    <glyph glyph-name="uni2215" unicode="&#x2215;" horiz-adv-x="348" 
d="M639 1434h248l-1104 -1434h-248z" />
    <glyph glyph-name="uni2219" unicode="&#x2219;" horiz-adv-x="778" 
d="M240 707h374l-71 -338h-375z" />
    <glyph glyph-name="radical" unicode="&#x221a;" horiz-adv-x="1228" 
d="M131 1065h309l13 -317q2 -47 2 -134q0 -102 -11 -256h2q85 223 162 390l326 686h483l-51 -246h-236l-571 -1188h-364z" />
    <glyph glyph-name="infinity" unicode="&#x221e;" horiz-adv-x="1599" 
d="M520 1055q148 0 277 -152l47 -55l96 84q75 65 146 94t161 29q131 0 221.5 -92t90.5 -222q0 -176 -118 -289.5t-296 -113.5q-151 0 -289 162l-39 43l-84 -72q-76 -68 -150.5 -100.5t-164.5 -32.5q-131 0 -221.5 91.5t-90.5 221.5q0 174 118.5 289t295.5 115zM985 688
l57 -63q47 -52 113 -52q62 0 107 43t45 105q0 43 -27.5 70.5t-73.5 27.5q-70 0 -133 -55zM678 702l-55 66q-46 51 -113 51q-62 0 -107 -42.5t-45 -104.5q0 -44 27.5 -71.5t73.5 -27.5q69 0 133 56z" />
    <glyph glyph-name="integral" unicode="&#x222b;" horiz-adv-x="1026" 
d="M580 1145q28 73 61.5 125t69.5 84t83.5 50t93.5 24t109 6h236l-51 -246h-185q-46 0 -71 -17.5t-39 -56.5l-457 -1194q-28 -73 -61.5 -125t-70 -84t-84 -50t-94.5 -24t-110 -6h-215l53 246h164q46 0 71.5 17.5t39.5 56.5z" />
    <glyph glyph-name="approxequal" unicode="&#x2248;" horiz-adv-x="1261" 
d="M172 799q31 164 129.5 261t243.5 97q55 0 106 -18t89 -43.5t72.5 -51t69.5 -43.5t66 -18q92 0 123 123h211q-33 -165 -130.5 -261.5t-242.5 -96.5q-55 0 -106 18t-89 43.5t-72.5 51t-69.5 43.5t-66 18q-43 0 -76.5 -29.5t-46.5 -93.5h-211zM72 328q31 164 129 261t243 97
q55 0 106 -18t89 -43.5t73 -51t70 -43.5t66 -18q92 0 123 123h211q-33 -165 -130.5 -262t-242.5 -97q-67 0 -130 27.5t-102.5 60t-86.5 60t-84 27.5q-43 0 -76.5 -29.5t-46.5 -93.5h-211z" />
    <glyph glyph-name="notequal" unicode="&#x2260;" horiz-adv-x="1234" 
d="M238 1075h538l127 174h285l-127 -174h166l-51 -246h-295l-164 -225h411l-53 -246h-538l-127 -174h-285l127 174h-166l53 246h293l164 225h-410z" />
    <glyph glyph-name="equivalence" unicode="&#x2261;" horiz-adv-x="1234" 
d="M137 840h989l-51 -246h-989zM39 369h989l-53 -246h-989zM238 1311h989l-51 -246h-990z" />
    <glyph glyph-name="lessequal" unicode="&#x2264;" horiz-adv-x="1230" 
d="M1255 1270l-57 -266l-678 -154l613 -154l-52 -245l-925 276l57 266zM94 430h983l-53 -246h-983z" />
    <glyph glyph-name="greaterequal" unicode="&#x2265;" horiz-adv-x="1224" 
d="M1214 993l-57 -266l-1040 -276l55 266l678 153l-612 154l53 246zM1042 184h-983l54 246h983z" />
    <glyph glyph-name="uni2295" unicode="&#x2295;" 
d="M686 573h438q-12 175 -137.5 301t-300.5 138v-439zM604 1012q-175 -12 -300.5 -138t-137.5 -301h438v439zM82 532q0 153 75.5 283t205 205.5t282.5 75.5t282.5 -75.5t205 -205.5t75.5 -283t-75.5 -282.5t-205 -205t-282.5 -75.5t-282.5 75.5t-205 205t-75.5 282.5z
M686 53q175 12 300.5 138t137.5 301h-438v-439zM604 492h-438q12 -175 137.5 -301t300.5 -138v439z" />
    <glyph glyph-name="uni2296" unicode="&#x2296;" 
d="M82 532q0 153 75.5 283t205 205.5t282.5 75.5t282.5 -75.5t205 -205.5t75.5 -283t-75.5 -282.5t-205 -205t-282.5 -75.5t-282.5 75.5t-205 205t-75.5 282.5zM645 1014q-189 0 -325.5 -127t-153.5 -314h958q-17 187 -153.5 314t-325.5 127zM645 51q189 0 325.5 127
t153.5 314h-958q17 -187 153.5 -314t325.5 -127z" />
    <glyph glyph-name="uni2297" unicode="&#x2297;" 
d="M645 1014q-173 0 -311 -113l311 -311l311 311q-138 113 -311 113zM1014 221q112 131 112 311q0 181 -112 312l-312 -312zM164 532q0 -180 112 -311l312 311l-312 312q-112 -131 -112 -312zM82 532q0 153 75.5 283t205 205.5t282.5 75.5t282.5 -75.5t205 -205.5t75.5 -283
t-75.5 -282.5t-205 -205t-282.5 -75.5t-282.5 75.5t-205 205t-75.5 282.5zM645 51q173 0 311 113l-311 311l-311 -311q138 -113 311 -113z" />
    <glyph glyph-name="uni2298" unicode="&#x2298;" 
d="M1208 532q0 -153 -75.5 -282.5t-205 -205t-282.5 -75.5t-282.5 75.5t-205 205t-75.5 282.5t75.5 283t205 205.5t282.5 75.5t282.5 -75.5t205 -205.5t75.5 -283zM645 1014q-131 0 -241.5 -64.5t-175 -175.5t-64.5 -242q0 -180 112 -311l680 680q-138 113 -311 113z
M1126 532q0 181 -112 312l-680 -680q132 -113 311 -113q131 0 241.5 64.5t175 175t64.5 241.5z" />
    <glyph glyph-name="uni22A0" unicode="&#x22a0;" 
d="M1178 1065v-1065h-1065v1065h1065zM588 532l-393 394v-787zM645 475l-393 -393h786zM252 983l393 -393l393 393h-786zM702 532l394 -393v787z" />
    <glyph glyph-name="uni2300" unicode="&#x2300;" 
d="M113 57l106 107q-137 153 -137 368q0 153 75.5 283t205 205.5t282.5 75.5q215 0 369 -138l106 107l58 -57l-107 -107q137 -153 137 -369q0 -153 -75.5 -282.5t-205 -205t-282.5 -75.5q-216 0 -369 137l-106 -106zM1126 532q0 181 -112 312l-680 -680q132 -113 311 -113
q131 0 241.5 64.5t175 175t64.5 241.5zM164 532q0 -180 112 -311l680 680q-132 113 -311 113q-131 0 -241.5 -64.5t-175 -175.5t-64.5 -242z" />
    <glyph glyph-name="uni23CF" unicode="&#x23cf;" 
d="M113 164h1065v-164h-1065v164zM1178 410h-1065l532 655z" />
    <glyph glyph-name="uni23E9" unicode="&#x23e9;" 
d="M643 532l-530 -532v1065zM1178 532l-531 -532v1065z" />
    <glyph glyph-name="uni23EA" unicode="&#x23ea;" 
d="M1178 1065v-1065l-531 532zM643 1065v-1065l-530 532z" />
    <glyph glyph-name="uni23EB" unicode="&#x23eb;" 
d="M1178 0h-1065l532 530zM1178 535h-1065l532 530z" />
    <glyph glyph-name="uni23EC" unicode="&#x23ec;" 
d="M645 535l-532 530h1065zM645 0l-532 530h1065z" />
    <glyph glyph-name="uni23ED" unicode="&#x23ed;" 
d="M559 532l-446 -532v1065zM1010 532l-447 -532v1065zM1014 0v1065h164v-1065h-164z" />
    <glyph glyph-name="uni23EE" unicode="&#x23ee;" 
d="M1178 1065v-1065l-447 532zM727 1065v-1065l-446 532zM113 0v1065h163v-1065h-163z" />
    <glyph glyph-name="uni23F8" unicode="&#x23f8;" 
d="M768 0v1065h328v-1065h-328zM195 0v1065h327v-1065h-327z" />
    <glyph glyph-name="uni23F9" unicode="&#x23f9;" 
d="M113 1065h1065v-1065h-1065v1065z" />
    <glyph glyph-name="uni23FA" unicode="&#x23fa;" 
d="M113 532q0 145 71 268t193.5 194t267.5 71q109 0 207.5 -42t170 -113.5t113.5 -170t42 -207.5q0 -145 -71 -267.5t-194 -193.5t-268 -71t-267.5 71t-193.5 193.5t-71 267.5z" />
    <glyph glyph-name="uni25A0" unicode="&#x25a0;" 
d="M113 1065h1065v-1065h-1065v1065z" />
    <glyph glyph-name="uni25A1" unicode="&#x25a1;" 
d="M113 0v1065h1065v-1065h-1065zM195 82h901v901h-901v-901z" />
    <glyph glyph-name="uni25AF" unicode="&#x25af;" horiz-adv-x="1392" 
d="M35 0l305 1434h1090l-306 -1434h-1089zM139 82h918l268 1270h-917z" />
    <glyph glyph-name="uni25B2" unicode="&#x25b2;" 
d="M1178 0h-1065l532 1065z" />
    <glyph glyph-name="uni25B3" unicode="&#x25b3;" 
d="M1178 0h-1065l532 1065zM645 885l-401 -803h803z" />
    <glyph glyph-name="uni25B6" unicode="&#x25b6;" 
d="M1178 532l-1065 -532v1065z" />
    <glyph glyph-name="uni25B7" unicode="&#x25b7;" 
d="M113 0v1065l1065 -533zM997 532l-802 402v-803z" />
    <glyph glyph-name="uni25BC" unicode="&#x25bc;" 
d="M645 0l-532 1065h1065z" />
    <glyph glyph-name="uni25BD" unicode="&#x25bd;" 
d="M645 0l-532 1065h1065zM1047 983h-803l401 -803z" />
    <glyph glyph-name="uni25C0" unicode="&#x25c0;" 
d="M1178 1065v-1065l-1065 532z" />
    <glyph glyph-name="uni25C1" unicode="&#x25c1;" 
d="M1178 1065v-1065l-1065 532zM293 532l803 -401v803z" />
    <glyph glyph-name="uni25C6" unicode="&#x25c6;" 
d="M1208 532l-563 -563l-563 563l563 564z" />
    <glyph glyph-name="uni25C7" unicode="&#x25c7;" 
d="M82 532l563 564l563 -564l-563 -563zM645 84l449 448l-449 449l-448 -449z" />
    <glyph glyph-name="lozenge" unicode="&#x25ca;" horiz-adv-x="1214" 
d="M131 829l528 605h279l270 -605l-47 -225l-528 -604h-279l-270 604zM760 1135l-375 -461l145 -373l375 459z" />
    <glyph glyph-name="uni25CB" unicode="&#x25cb;" 
d="M82 532q0 153 75.5 283t205 205.5t282.5 75.5t282.5 -75.5t205 -205.5t75.5 -283t-75.5 -282.5t-205 -205t-282.5 -75.5t-282.5 75.5t-205 205t-75.5 282.5zM164 532q0 -131 64.5 -241.5t175 -175t241.5 -64.5t241.5 64.5t175 175t64.5 241.5t-64.5 242t-175 175.5
t-241.5 64.5t-241.5 -64.5t-175 -175.5t-64.5 -242z" />
    <glyph glyph-name="uni25CC" unicode="&#x25cc;" 
d="M604 1055q0 17 12 29t29 12t29 -12t12 -29t-12 -29t-29 -12t-29 12t-12 29zM784 1024q0 17 12 29t29 12t29 -12t12 -29t-12 -29t-29 -12t-29 12t-12 29zM940 934q0 17 12 29t29 12t29 -12t12 -29t-12 -29t-29 -12t-29 12t-12 29zM1057 795q0 17 12 29t29 12t29 -12
t12 -29t-12 -29t-29 -12t-29 12t-12 29zM1118 625q0 17 12 29t29 12t29 -12t12 -29t-12 -29t-29 -12t-29 12t-12 29zM506 1024q0 -17 -12 -29t-29 -12t-29 12t-12 29t12 29t29 12t29 -12t12 -29zM350 934q0 -17 -12 -29t-29 -12t-29 12t-12 29t12 29t29 12t29 -12t12 -29z
M233 795q0 -17 -11.5 -29t-28.5 -12t-29 12t-12 29t12 29t29 12t28.5 -12t11.5 -29zM172 625q0 -17 -12 -29t-29 -12t-29 12t-12 29t12 29t29 12t29 -12t12 -29zM604 10q0 17 12 29t29 12t29 -12t12 -29t-12 -29t-29 -12t-29 12t-12 29zM784 41q0 17 12 29t29 12t29 -12
t12 -29t-12 -29t-29 -12t-29 12t-12 29zM940 131q0 17 12 29t29 12t29 -12t12 -29t-12 -29t-29 -12t-29 12t-12 29zM1057 270q0 17 12 29t29 12t29 -12t12 -29t-12 -29t-29 -12t-29 12t-12 29zM1118 440q0 17 12 29t29 12t29 -12t12 -29t-12 -29t-29 -12t-29 12t-12 29z
M506 41q0 -17 -12 -29t-29 -12t-29 12t-12 29t12 29t29 12t29 -12t12 -29zM350 131q0 -17 -12 -29t-29 -12t-29 12t-12 29t12 29t29 12t29 -12t12 -29zM233 270q0 -17 -11.5 -29t-28.5 -12t-29 12t-12 29t12 29t29 12t28.5 -12t11.5 -29zM172 440q0 -17 -12 -29t-29 -12
t-29 12t-12 29t12 29t29 12t29 -12t12 -29z" />
    <glyph glyph-name="uni25CF" unicode="&#x25cf;" 
d="M82 532q0 153 75.5 283t205 205.5t282.5 75.5t282.5 -75.5t205 -205.5t75.5 -283t-75.5 -282.5t-205 -205t-282.5 -75.5t-282.5 75.5t-205 205t-75.5 282.5z" />
    <glyph glyph-name="uni25D0" unicode="&#x25d0;" 
d="M82 532q0 153 75.5 283t205 205.5t282.5 75.5t282.5 -75.5t205 -205.5t75.5 -283t-75.5 -282.5t-205 -205t-282.5 -75.5t-282.5 75.5t-205 205t-75.5 282.5zM645 51q131 0 241.5 64.5t175 175t64.5 241.5t-64.5 242t-175 175.5t-241.5 64.5v-963z" />
    <glyph glyph-name="uni25D1" unicode="&#x25d1;" 
d="M1208 532q0 -153 -75.5 -282.5t-205 -205t-282.5 -75.5t-282.5 75.5t-205 205t-75.5 282.5t75.5 283t205 205.5t282.5 75.5t282.5 -75.5t205 -205.5t75.5 -283zM645 1014q-131 0 -241.5 -64.5t-175 -175.5t-64.5 -242t64.5 -241.5t175 -175t241.5 -64.5v963z" />
    <glyph glyph-name="uni25D2" unicode="&#x25d2;" 
d="M645 -31q-153 0 -282.5 75.5t-205 205t-75.5 282.5t75.5 283t205 205.5t282.5 75.5t282.5 -75.5t205 -205.5t75.5 -283t-75.5 -282.5t-205 -205t-282.5 -75.5zM1126 532q0 131 -64.5 242t-175 175.5t-241.5 64.5t-241.5 -64.5t-175 -175.5t-64.5 -242h962z" />
    <glyph glyph-name="uni25D3" unicode="&#x25d3;" 
d="M645 1096q153 0 282.5 -75.5t205 -205.5t75.5 -283t-75.5 -282.5t-205 -205t-282.5 -75.5t-282.5 75.5t-205 205t-75.5 282.5t75.5 283t205 205.5t282.5 75.5zM164 532q0 -131 64.5 -241.5t175 -175t241.5 -64.5t241.5 64.5t175 175t64.5 241.5h-962z" />
    <glyph glyph-name="uni25D4" unicode="&#x25d4;" 
d="M82 532q0 153 75.5 283t205 205.5t282.5 75.5t282.5 -75.5t205 -205.5t75.5 -283t-75.5 -282.5t-205 -205t-282.5 -75.5t-282.5 75.5t-205 205t-75.5 282.5zM164 532q0 -131 64.5 -241.5t175 -175t241.5 -64.5t241.5 64.5t175 175t64.5 241.5h-481v482
q-131 0 -241.5 -64.5t-175 -175.5t-64.5 -242z" />
    <glyph glyph-name="uni25D5" unicode="&#x25d5;" 
d="M82 532q0 153 75.5 283t205 205.5t282.5 75.5t282.5 -75.5t205 -205.5t75.5 -283t-75.5 -282.5t-205 -205t-282.5 -75.5t-282.5 75.5t-205 205t-75.5 282.5zM645 532v482q-131 0 -241.5 -64.5t-175 -175.5t-64.5 -242h481z" />
    <glyph glyph-name="uni25E7" unicode="&#x25e7;" 
d="M1178 0h-1065v1065h1065v-1065zM1096 82v901h-451v-901h451z" />
    <glyph glyph-name="uni25E8" unicode="&#x25e8;" 
d="M113 1065h1065v-1065h-1065v1065zM645 82v901h-450v-901h450z" />
    <glyph glyph-name="uni25E9" unicode="&#x25e9;" 
d="M113 0v1065h1065v-1065h-1065zM195 82h901v901z" />
    <glyph glyph-name="uni25EA" unicode="&#x25ea;" 
d="M113 0v1065h1065v-1065h-1065zM195 82l901 901h-901v-901z" />
    <glyph glyph-name="uni2610" unicode="&#x2610;" horiz-adv-x="1658" 
d="M113 0v1434h1433v-1434h-1433zM195 82h1269v1270h-1269v-1270z" />
    <glyph glyph-name="uni2611" unicode="&#x2611;" horiz-adv-x="1658" 
d="M113 0v1434h1433v-1434h-1433zM195 82h1269v1270h-1269v-1270zM358 522v174l308 -307l675 840v-195l-665 -829z" />
    <glyph glyph-name="uni2612" unicode="&#x2612;" horiz-adv-x="1658" 
d="M1546 1434v-1434h-1433v1434h1433zM276 221l496 496l-496 495l58 58l495 -496l496 496l57 -58l-495 -495l495 -496l-57 -57l-496 495l-495 -495zM195 82h1269v1270h-1269v-1270z" />
    </font>
</defs>
</svg>
