<?xml version="1.0" standalone="no"?>
<!DOCTYPE svg PUBLIC "-//W3C//DTD SVG 1.1//EN" "http://www.w3.org/Graphics/SVG/1.1/DTD/svg11.dtd" >
<svg xmlns="http://www.w3.org/2000/svg" xmlns:xlink="http://www.w3.org/1999/xlink" version="1.1">
<metadata>
Created by FontForge 20170731 at Mon Jul 25 17:59:13 2022
 By Aleksey,,,
(c) 2011-2017, Copyright by Lineto GmbH. All rights reserved.
</metadata>
<defs>
<font id="RiformaLL-Medium" horiz-adv-x="1658" >
  <font-face 
    font-family="Riforma LL Medium"
    font-weight="500"
    font-stretch="normal"
    units-per-em="2048"
    panose-1="2 11 6 4 2 1 1 2 1 2"
    ascent="1495"
    descent="-553"
    x-height="1065"
    cap-height="1434"
    bbox="-901 -532 2814 2028"
    underline-thickness="81"
    underline-position="-285"
    unicode-range="U+000D-1F310"
  />
<missing-glyph horiz-adv-x="1392" 
d="M164 0v1434h1065v-1434h-1065zM246 82h901v1270h-901v-1270z" />
    <glyph glyph-name="f_f" unicode="ff" horiz-adv-x="1521" 
d="M535 0h-254v860h-256v205h256v82q0 287 311 287h188v-199h-164q-46 0 -63.5 -20t-17.5 -68v-82h421v82q0 287 312 287h229v-199h-205q-46 0 -64 -20t-18 -68v-82h287v-205h-287v-860h-254v860h-421v-860z" />
    <glyph glyph-name="f_f_i" unicode="ffi" horiz-adv-x="2023" 
d="M1210 860v-860h-254v860h-421v-860h-254v860h-256v205h256v82q0 287 311 287h188v-199h-164q-46 0 -63.5 -20t-17.5 -68v-82h421v82q0 287 312 287h188v-199h-164q-46 0 -64 -20t-18 -68v-82h676v-1065h-254v860h-422zM1632 1434h254v-226h-254v226z" />
    <glyph glyph-name="f_f_l" unicode="ffl" horiz-adv-x="2023" 
d="M1210 860v-860h-254v860h-421v-860h-254v860h-256v205h256v82q0 287 311 287h188v-199h-164q-46 0 -63.5 -20t-17.5 -68v-82h421v82q0 287 312 287h188v-199h-164q-46 0 -64 -20t-18 -68v-82h422v369h254v-1434h-254v860h-422z" />
    <glyph glyph-name="f_i" unicode="fi" horiz-adv-x="1347" 
d="M535 860v-860h-254v860h-256v205h256v82q0 287 311 287h188v-199h-164q-46 0 -63.5 -20t-17.5 -68v-82h675v-1065h-254v860h-421zM956 1434h254v-226h-254v226z" />
    <glyph glyph-name="f_l" unicode="fl" horiz-adv-x="1347" 
d="M535 860v-860h-254v860h-256v205h256v82q0 287 311 287h188v-199h-164q-46 0 -63.5 -20t-17.5 -68v-82h421v369h254v-1434h-254v860h-421z" />
    <glyph glyph-name=".notdef" horiz-adv-x="1392" 
d="M164 0v1434h1065v-1434h-1065zM246 82h901v1270h-901v-1270z" />
    <glyph glyph-name=".null" horiz-adv-x="0" 
 />
    <glyph glyph-name="nonmarkingreturn" horiz-adv-x="682" 
 />
    <glyph glyph-name="CR" unicode="&#xd;" horiz-adv-x="475" 
 />
    <glyph glyph-name="space" unicode=" " horiz-adv-x="475" 
 />
    <glyph glyph-name="exclam" unicode="!" horiz-adv-x="573" 
d="M369 471h-164l-51 451v512h266v-512zM133 307h307v-307h-307v307z" />
    <glyph glyph-name="quotedbl" unicode="&#x22;" horiz-adv-x="874" 
d="M129 1434h256v-420l-256 -256v676zM528 1434h256v-420l-256 -256v676z" />
    <glyph glyph-name="numbersign" unicode="#" horiz-adv-x="1681" 
d="M889 369h-268l-93 -369h-254l93 369h-308l52 204h307l71 287h-307l51 205h308l92 369h254l-92 -369h268l92 369h254l-92 -369h307l-51 -205h-307l-72 -287h307l-51 -204h-307l-92 -369h-254zM672 573h268l72 287h-269z" />
    <glyph glyph-name="dollar" unicode="$" horiz-adv-x="1277" 
d="M549 -25q-114 12 -203.5 49t-145 91t-86 118t-36.5 136h258q24 -155 213 -187v445q-440 78 -440 438q0 155 112.5 263t327.5 132v178h205v-180q192 -19 299.5 -120.5t120.5 -241.5h-259q-26 125 -161 153v-397q74 -11 138 -30t127 -54.5t107 -84t71.5 -121.5t27.5 -163
q0 -82 -28.5 -153t-84.5 -128.5t-147.5 -95t-210.5 -47.5v-180h-205v180zM969 389q0 88 -49 134t-166 71v-414q215 34 215 209zM365 1075q0 -76 42.5 -119.5t141.5 -68.5v364q-96 -18 -140 -65.5t-44 -110.5z" />
    <glyph glyph-name="percent" unicode="%" horiz-adv-x="1908" 
d="M248 1014q0 -287 164 -287q163 0 163 287q0 143 -39 214.5t-124 71.5q-164 0 -164 -286zM760 1014q0 -226 -95 -333.5t-253 -107.5t-253.5 107.5t-95.5 333.5t95.5 333t253.5 107t253 -107t95 -333zM1251 1434h205l-799 -1434h-204zM1333 420q0 -287 164 -287t164 287
t-164 287t-164 -287zM1845 420q0 -226 -95 -333t-253 -107t-253 107t-95 333t95 333t253 107t253 -107t95 -333z" />
    <glyph glyph-name="ampersand" unicode="&#x26;" horiz-adv-x="1554" 
d="M1538 0h-348l-129 129q-185 -160 -445 -160q-247 0 -394.5 125.5t-147.5 315.5q0 143 71 243.5t226 165.5q-69 74 -106.5 147.5t-37.5 159.5q0 66 26 125.5t75 107.5t129 76.5t180 28.5q99 0 178 -29t126 -77t71 -104.5t24 -116.5q0 -122 -59 -209.5t-203 -163.5
l275 -275l161 228h297l-286 -400zM330 410q0 -98 73.5 -162t212.5 -64q159 0 279 111l-363 362q-106 -44 -154 -102.5t-48 -144.5zM637 1260q-74 0 -114 -38.5t-40 -95.5q0 -26 8 -49.5t30.5 -51.5t39.5 -46.5t57 -58.5q95 46 134 94t39 112q0 52 -38 93t-116 41z" />
    <glyph glyph-name="quotesingle" unicode="'" horiz-adv-x="475" 
d="M129 1434h256v-420l-256 -256v676z" />
    <glyph glyph-name="parenleft" unicode="(" horiz-adv-x="643" 
d="M338 532q0 -118 26 -221.5t117 -371.5l103 -308h-215l-103 242q-56 134 -78.5 190t-52 136t-39 123.5t-17 97.5t-7.5 112q0 135 36 250.5t158 409.5l103 242h215l-103 -308q-91 -267 -117 -371.5t-26 -222.5z" />
    <glyph glyph-name="parenright" unicode=")" horiz-adv-x="645" 
d="M305 532q0 118 -26 222.5t-117 371.5l-103 308h215l103 -242q122 -294 158 -409.5t36 -250.5q0 -58 -7.5 -112t-17 -97.5t-39 -123.5t-52 -136t-78.5 -190l-103 -242h-215l103 308q91 268 117 371.5t26 221.5z" />
    <glyph glyph-name="asterisk" unicode="*" horiz-adv-x="1003" 
d="M461 1112v322h82v-322l227 227l57 -57l-227 -227h322v-82h-322l227 -228l-57 -57l-227 227v-321h-82v321l-228 -227l-57 57l227 228h-321v82h321l-227 227l57 57z" />
    <glyph glyph-name="plus" unicode="+" horiz-adv-x="1196" 
d="M66 819h430v430h204v-430h430v-205h-430v-430h-204v430h-430v205z" />
    <glyph glyph-name="comma" unicode="," horiz-adv-x="548" 
d="M121 307h307v-307l-184 -307h-123l123 307h-123v307z" />
    <glyph glyph-name="hyphen" unicode="-" horiz-adv-x="856" 
d="M121 635h614v-205h-614v205z" />
    <glyph glyph-name="period" unicode="." horiz-adv-x="548" 
d="M121 307h307v-307h-307v307z" />
    <glyph glyph-name="slash" unicode="/" horiz-adv-x="1193" 
d="M868 1434h285l-829 -1434h-285z" />
    <glyph glyph-name="zero" unicode="0" horiz-adv-x="1335" 
d="M360 717q0 -267 81.5 -394.5t226.5 -127.5q144 0 225.5 127.5t81.5 394.5t-81.5 394.5t-225.5 127.5q-145 0 -226.5 -127.5t-81.5 -394.5zM1241 717q0 -158 -29.5 -285t-81 -212.5t-124 -142.5t-156.5 -82.5t-182 -25.5t-182 25.5t-157 82.5t-124.5 142.5t-81 212.5
t-29.5 285q0 197 44.5 344t124.5 233.5t181 128t224 41.5t224 -41.5t180.5 -128t124 -233.5t44.5 -344z" />
    <glyph glyph-name="one" unicode="1" horiz-adv-x="821" 
d="M385 0v1106l-328 -338v338l328 328h266v-1434h-266z" />
    <glyph glyph-name="two" unicode="2" horiz-adv-x="1173" 
d="M88 1065q17 184 150.5 291.5t341.5 107.5q217 0 349 -119.5t132 -300.5q0 -134 -56.5 -238.5t-185.5 -221.5l-383 -359h656v-225h-1004v225l553 533q85 81 119.5 143.5t34.5 132.5q0 91 -56.5 153t-158.5 62q-95 0 -157 -49.5t-69 -134.5h-266z" />
    <glyph glyph-name="three" unicode="3" horiz-adv-x="1198" 
d="M465 870h113q100 0 157.5 49.5t57.5 135.5q0 91 -57.5 142.5t-157.5 51.5q-93 0 -149 -46t-64 -107h-269q18 155 147 261.5t335 106.5q215 0 348 -116t133 -283q0 -185 -174 -287q225 -104 225 -358q0 -195 -145.5 -323t-386.5 -128q-122 0 -220 33t-160.5 90.5
t-98 127.5t-44.5 149h269q32 -185 254 -185q131 0 198.5 68t67.5 168q0 106 -63 170.5t-193 64.5h-123v215z" />
    <glyph glyph-name="four" unicode="4" horiz-adv-x="1263" 
d="M705 1434h286v-942h205v-226h-205v-266h-266v266h-686v226zM725 492v174q0 267 14 450h-8q-113 -196 -278 -430l-138 -194h410z" />
    <glyph glyph-name="five" unicode="5" horiz-adv-x="1220" 
d="M111 625l51 809h891v-226h-645l-21 -317q86 113 287 113q148 0 256.5 -68.5t161.5 -183.5t53 -260q0 -112 -36.5 -207t-104 -165.5t-171 -110.5t-231.5 -40q-204 0 -343 110.5t-169 289.5h266q18 -81 79.5 -127.5t166.5 -46.5q135 0 206 81t71 216q0 142 -64 219t-192 77
q-191 0 -252 -163h-260z" />
    <glyph glyph-name="six" unicode="6" horiz-adv-x="1257" 
d="M657 1464q183 0 304 -88.5t157 -238.5h-276q-23 54 -74.5 83t-120.5 29q-276 0 -287 -420q55 70 142.5 112t185.5 42q224 0 358 -139.5t134 -351.5q0 -146 -68.5 -266t-188.5 -188.5t-266 -68.5q-126 0 -224 41.5t-161 110.5t-104 167t-57.5 203t-16.5 226
q0 201 44.5 349t123.5 233t177.5 125t217.5 40zM657 184q113 0 184.5 85.5t71.5 211.5q0 127 -68 207t-188 80q-118 0 -192 -79t-74 -208q0 -126 73 -211.5t193 -85.5z" />
    <glyph glyph-name="seven" unicode="7" horiz-adv-x="1083" 
d="M412 0h-283l629 1208h-721v226h1003v-226z" />
    <glyph glyph-name="eight" unicode="8" horiz-adv-x="1261" 
d="M631 -31q-237 0 -390 124.5t-153 316.5q0 249 236 358q-90 46 -137.5 124.5t-47.5 172.5q0 176 138 287.5t354 111.5t353.5 -111t137.5 -288q0 -95 -47 -173t-137 -124q236 -109 236 -358q0 -192 -153 -316.5t-390 -124.5zM354 420q0 -108 76.5 -172t200.5 -64t200 64
t76 172q0 100 -77.5 167.5t-198.5 67.5t-199 -67.5t-78 -167.5zM395 1055q0 -90 66.5 -142.5t169.5 -52.5t169 52.5t66 142.5q0 92 -63 143t-172 51q-110 0 -173 -51t-63 -143z" />
    <glyph glyph-name="nine" unicode="9" horiz-adv-x="1257" 
d="M598 -31q-183 0 -301.5 88.5t-149.5 239.5h277q40 -113 184 -113q129 0 205 103t82 317q-55 -70 -142.5 -111.5t-185.5 -41.5q-148 0 -261.5 68t-171.5 181t-58 252q0 223 152.5 367.5t389.5 144.5q543 0 543 -747q0 -201 -44.5 -349t-123.5 -233.5t-177.5 -125.5
t-217.5 -40zM608 1249q-121 0 -193.5 -80.5t-72.5 -205.5q0 -128 68.5 -212.5t187.5 -84.5q116 0 191 83.5t75 213.5q0 127 -68 206.5t-188 79.5z" />
    <glyph glyph-name="colon" unicode=":" horiz-adv-x="552" 
d="M123 307h307v-307h-307v307zM123 1065h307v-307h-307v307z" />
    <glyph glyph-name="semicolon" unicode=";" horiz-adv-x="552" 
d="M123 1065h307v-307h-307v307zM123 307h307v-307l-184 -307h-123l123 307h-123v307z" />
    <glyph glyph-name="less" unicode="&#x3c;" horiz-adv-x="1140" 
d="M1006 1249v-225l-707 -307l707 -307v-226l-943 430v205z" />
    <glyph glyph-name="equal" unicode="=" horiz-adv-x="1200" 
d="M129 1044h942v-204h-942v204zM129 594h942v-205h-942v205z" />
    <glyph glyph-name="greater" unicode="&#x3e;" horiz-adv-x="1140" 
d="M1077 819v-205l-942 -430v226l707 307l-707 307v225z" />
    <glyph glyph-name="question" unicode="?" horiz-adv-x="1056" 
d="M334 307h307v-307h-307v307zM57 1096q8 161 135 264.5t326 103.5q214 0 337.5 -111t123.5 -278q0 -73 -21 -132t-54.5 -97.5t-73.5 -72t-80.5 -63t-74 -61.5t-54.5 -77t-21 -101h-225q0 79 18.5 142t48.5 104.5t66 76t72 63t66 58t48.5 70t18.5 90.5q0 74 -50 124
t-145 50q-87 0 -136.5 -43.5t-57.5 -109.5h-267z" />
    <glyph glyph-name="at" unicode="@" horiz-adv-x="1884" 
d="M936 266q106 0 165.5 73t59.5 193t-59.5 193.5t-165.5 73.5q-101 0 -163 -72.5t-62 -194.5t62 -194t163 -72zM926 -328q-177 0 -335 67t-271 182t-178.5 274t-65.5 337q0 238 111.5 435t309 311.5t439.5 114.5q182 0 341.5 -64t273.5 -175t179.5 -267t65.5 -334
q0 -233 -94 -347t-244 -114q-78 0 -141 35.5t-94 97.5q-110 -143 -318 -143q-180 0 -300 126t-120 324t120.5 324.5t299.5 126.5q154 0 256 -102v71h225v-553q0 -70 17.5 -96.5t64.5 -26.5q62 0 98 73.5t36 203.5q0 137 -50 258t-137 208.5t-211.5 138t-267.5 50.5
q-190 0 -343.5 -92.5t-238 -246.5t-84.5 -337q0 -184 84.5 -338.5t238 -245.5t343.5 -91q152 0 287 53v-186q-140 -52 -297 -52z" />
    <glyph glyph-name="A" unicode="A" horiz-adv-x="1437" 
d="M1034 317h-631l-124 -317h-277l584 1434h266l584 -1434h-277zM494 543h450l-94 239q-62 156 -127 375h-8q-62 -208 -127 -375z" />
    <glyph glyph-name="B" unicode="B" horiz-adv-x="1454" 
d="M170 0v1434h707q194 0 317 -107.5t123 -282.5q0 -181 -154 -286q205 -120 205 -348q0 -184 -124.5 -297t-325.5 -113h-748zM897 225q104 0 154.5 52t50.5 143q0 90 -52 147.5t-153 57.5h-461v-400h461zM856 850q92 0 143.5 49t51.5 135q0 85 -51 129.5t-144 44.5h-420
v-358h420z" />
    <glyph glyph-name="C" unicode="C" horiz-adv-x="1478" 
d="M1427 399q-65 -199 -221.5 -314.5t-402.5 -115.5q-216 0 -380 97t-250.5 266t-86.5 385q0 160 50.5 298t142.5 237t227 155.5t297 56.5q238 0 390.5 -107.5t223.5 -291.5h-293q-91 174 -321 174q-108 0 -195 -42.5t-142 -115t-84.5 -166t-29.5 -198.5t29.5 -198.5
t84.5 -166t142 -115t195 -42.5q132 0 216.5 56.5t119.5 147.5h288z" />
    <glyph glyph-name="D" unicode="D" horiz-adv-x="1497" 
d="M1409 717q0 -338 -185.5 -527.5t-510.5 -189.5h-543v1434h543q325 0 510.5 -190.5t185.5 -526.5zM436 225h256q451 0 451 492q0 491 -451 491h-256v-983z" />
    <glyph glyph-name="E" unicode="E" horiz-adv-x="1325" 
d="M170 1434h1044v-226h-778v-358h738v-225h-738v-400h778v-225h-1044v1434z" />
    <glyph glyph-name="F" unicode="F" horiz-adv-x="1288" 
d="M170 1434h1044v-226h-778v-379h738v-225h-738v-604h-266v1434z" />
    <glyph glyph-name="G" unicode="G" horiz-adv-x="1548" 
d="M803 1239q-108 0 -195 -42.5t-142 -115t-84.5 -166t-29.5 -198.5t29.5 -198.5t84.5 -166t142 -115t195 -42.5q166 0 269 92t110 266h-379v225h635v-778h-205l-21 143q-137 -174 -419 -174q-211 0 -373 97t-248 266.5t-86 384.5q0 160 50.5 298t142.5 237t227 155.5
t297 56.5q238 0 390.5 -107.5t223.5 -291.5h-293q-91 174 -321 174z" />
    <glyph glyph-name="H" unicode="H" horiz-adv-x="1568" 
d="M1399 0h-266v625h-697v-625h-266v1434h266v-584h697v584h266v-1434z" />
    <glyph glyph-name="I" unicode="I" horiz-adv-x="606" 
d="M170 0v1434h266v-1434h-266z" />
    <glyph glyph-name="J" unicode="J" horiz-adv-x="997" 
d="M338 225q126 0 180.5 64t54.5 192v953h267v-953q0 -240 -132.5 -360.5t-369.5 -120.5h-293v225h293z" />
    <glyph glyph-name="K" unicode="K" horiz-adv-x="1390" 
d="M170 0v1434h266v-605l594 605h338l-696 -697l737 -737h-358l-615 635v-635h-266z" />
    <glyph glyph-name="L" unicode="L" horiz-adv-x="1198" 
d="M170 1434h266v-1209h738v-225h-1004v1434z" />
    <glyph glyph-name="M" unicode="M" horiz-adv-x="1855" 
d="M602 625q-89 163 -176 389h-8q18 -281 18 -410v-604h-266v1434h297l278 -545q102 -198 183 -387q85 200 182 387l279 545h297v-1434h-267v604q0 114 19 410h-8q-9 -21 -40.5 -96t-44.5 -104t-39 -84t-53 -105l-325 -625z" />
    <glyph glyph-name="N" unicode="N" horiz-adv-x="1589" 
d="M1153 1434h266v-1434h-286l-431 625q-173 244 -272 430h-8q14 -183 14 -451v-604h-266v1434h287l430 -625q194 -283 272 -430h8q-14 183 -14 450v605z" />
    <glyph glyph-name="O" unicode="O" horiz-adv-x="1601" 
d="M350 717q0 -83 19 -160t57.5 -143t91.5 -115t126 -76.5t157 -27.5q139 0 243 73.5t155.5 191t51.5 257.5t-51.5 257.5t-155.5 191t-243 73.5q-84 0 -157 -27.5t-126 -76.5t-91.5 -115t-57.5 -143t-19 -160zM1518 717q0 -215 -88.5 -385t-252.5 -266.5t-376 -96.5
t-376 96.5t-252.5 266.5t-88.5 385q0 214 88.5 383.5t252.5 266.5t376 97t376 -97t252.5 -266.5t88.5 -383.5z" />
    <glyph glyph-name="P" unicode="P" horiz-adv-x="1425" 
d="M436 573v-573h-266v1434h737q213 0 342 -118.5t129 -311.5t-129 -312t-342 -119h-471zM907 799q92 0 148.5 56.5t56.5 148.5t-56.5 148t-148.5 56h-471v-409h471z" />
    <glyph glyph-name="Q" unicode="Q" horiz-adv-x="1619" 
d="M1518 717q0 -313 -175 -512l205 -205h-317l-62 61q-162 -92 -368 -92q-212 0 -376 96.5t-252.5 266.5t-88.5 385q0 214 88.5 383.5t252.5 266.5t376 97t376 -97t252.5 -266.5t88.5 -383.5zM350 717q0 -83 19 -160t57.5 -143t91.5 -115t126 -76.5t157 -27.5q107 0 192 43
l-305 305h318l153 -154q92 140 92 328q0 140 -51.5 257.5t-155.5 191t-243 73.5q-84 0 -157 -27.5t-126 -76.5t-91.5 -115t-57.5 -143t-19 -160z" />
    <glyph glyph-name="R" unicode="R" horiz-adv-x="1462" 
d="M436 0h-266v1434h737q213 0 342 -118.5t129 -311.5t-129 -312t-342 -119h-61l573 -573h-358l-563 573h-62v-573zM907 799q92 0 148.5 56.5t56.5 148.5t-56.5 148t-148.5 56h-471v-409h471z" />
    <glyph glyph-name="S" unicode="S" horiz-adv-x="1345" 
d="M342 399q5 -109 89.5 -167t244.5 -58q157 0 245.5 60t88.5 155q0 31 -8 56t-19.5 42.5t-34.5 32t-43 23.5t-55.5 17.5t-61.5 13.5t-71 12l-123 18q-492 71 -492 440q0 185 150 302.5t424 117.5q113 0 206 -23.5t156 -62.5t107.5 -91.5t66.5 -107.5t27 -114h-270
q-5 87 -76.5 141t-216.5 54q-71 0 -127 -11.5t-91.5 -30.5t-58.5 -45t-32 -52.5t-9 -55.5q0 -50 19.5 -86t60.5 -59t89 -37t118 -25l123 -18q93 -14 163 -32.5t137 -51t109 -77.5t67.5 -113t25.5 -156q0 -196 -158.5 -318.5t-435.5 -122.5q-278 0 -437 119.5t-167 310.5h270
z" />
    <glyph glyph-name="T" unicode="T" horiz-adv-x="1257" 
d="M1233 1208h-471v-1208h-266v1208h-471v226h1208v-226z" />
    <glyph glyph-name="U" unicode="U" horiz-adv-x="1499" 
d="M750 -31q-135 0 -248 43.5t-188 118t-116.5 175.5t-41.5 216v912h266v-912q0 -152 89.5 -239.5t238.5 -87.5t238 87.5t89 239.5v912h266v-912q0 -115 -41.5 -216t-116.5 -176t-187.5 -118t-247.5 -43z" />
    <glyph glyph-name="V" unicode="V" horiz-adv-x="1345" 
d="M1057 1434h276l-532 -1434h-256l-533 1434h277l258 -732q65 -184 123 -405h6q56 213 123 403z" />
    <glyph glyph-name="W" unicode="W" horiz-adv-x="1957" 
d="M975 1085q-44 -233 -86 -380l-197 -705h-266l-410 1434h267l182 -680q45 -163 90 -406h8q53 262 94 408l189 678h266l188 -678q44 -159 95 -408h8q45 243 90 406l182 680h267l-410 -1434h-266l-197 705q-42 147 -86 380h-8z" />
    <glyph glyph-name="X" unicode="X" horiz-adv-x="1339" 
d="M817 758l529 -758h-312l-368 543l-371 -543h-301l528 750l-477 684h311l318 -469l319 469h301z" />
    <glyph glyph-name="Y" unicode="Y" horiz-adv-x="1261" 
d="M498 563l-482 871h287l328 -635l327 635h287l-481 -871v-563h-266v563z" />
    <glyph glyph-name="Z" unicode="Z" horiz-adv-x="1269" 
d="M1202 0h-1126v225l768 983h-748v226h1075v-226l-768 -983h799v-225z" />
    <glyph glyph-name="bracketleft" unicode="[" horiz-adv-x="718" 
d="M158 1434h506v-205h-252v-1393h252v-205h-506v1803z" />
    <glyph glyph-name="backslash" unicode="\" horiz-adv-x="1193" 
d="M1155 0h-285l-829 1434h285z" />
    <glyph glyph-name="bracketright" unicode="]" horiz-adv-x="718" 
d="M561 -369h-506v205h252v1393h-252v205h506v-1803z" />
    <glyph glyph-name="asciicircum" unicode="^" horiz-adv-x="1110" 
d="M453 1434h204l390 -902h-226l-266 656l-266 -656h-226z" />
    <glyph glyph-name="underscore" unicode="_" horiz-adv-x="1269" 
d="M102 0h1065v-164h-1065v164z" />
    <glyph glyph-name="grave" unicode="`" horiz-adv-x="593" 
d="M532 1188h-245l-246 246h328z" />
    <glyph glyph-name="a" unicode="a" horiz-adv-x="1193" 
d="M117 778q25 149 146.5 233.5t328.5 84.5q277 0 395 -142q80 -92 80 -247v-707h-254v123q-111 -154 -354 -154q-171 0 -282 89.5t-111 258.5q0 150 106 235t297 103l344 31v21q0 96 -51 145t-170 49q-188 0 -213 -123h-262zM500 164q136 0 224.5 78t88.5 219v41l-334 -31
q-74 -6 -117 -46t-43 -108q0 -75 49 -114t132 -39z" />
    <glyph glyph-name="b" unicode="b" horiz-adv-x="1296" 
d="M381 532q0 -160 81.5 -259t211.5 -99q137 0 215 94.5t78 263.5q0 170 -78 264.5t-215 94.5q-130 0 -211.5 -99.5t-81.5 -259.5zM391 0h-254v1434h254v-502q112 164 334 164q116 0 211 -45t156.5 -122.5t95 -179.5t33.5 -217t-33.5 -216.5t-95 -179t-156.5 -122.5
t-211 -45q-222 0 -334 164v-133z" />
    <glyph glyph-name="c" unicode="c" horiz-adv-x="1157" 
d="M1108 307q-49 -159 -171.5 -248.5t-313.5 -89.5q-254 0 -400.5 158.5t-146.5 404.5q0 161 63 287.5t188.5 201.5t295.5 75q184 0 305 -85.5t170 -232.5h-273q-50 117 -202 117q-80 0 -139 -31.5t-91.5 -85.5t-47.5 -115t-15 -131t15 -131t47.5 -114.5t91.5 -85t139 -31.5
q172 0 215 137h270z" />
    <glyph glyph-name="d" unicode="d" horiz-adv-x="1296" 
d="M915 532q0 161 -81 260t-211 99q-137 0 -215 -94.5t-78 -264.5q0 -169 78 -263.5t215 -94.5q130 0 211 98.5t81 259.5zM905 133q-112 -164 -334 -164q-116 0 -210.5 45t-156 122.5t-95 179t-33.5 216.5q0 155 56.5 281.5t171 204.5t267.5 78q222 0 334 -164v502h254
v-1434h-254v133z" />
    <glyph glyph-name="e" unicode="e" horiz-adv-x="1230" 
d="M1139 307q-47 -149 -179 -243.5t-331 -94.5q-165 0 -292 74.5t-194 202t-67 286.5t67.5 287t193 202.5t286.5 74.5q197 0 322.5 -95t178.5 -262q35 -112 35 -258v-41h-819q5 -109 83 -192.5t206 -83.5q95 0 154 42.5t81 100.5h275zM623 901q-118 0 -194 -77t-89 -189h555
q-5 112 -77.5 189t-194.5 77z" />
    <glyph glyph-name="f" unicode="f" horiz-adv-x="845" 
d="M25 1065h256v82q0 287 311 287h229v-199h-205q-46 0 -63.5 -20t-17.5 -68v-82h286v-205h-286v-860h-254v860h-256v205z" />
    <glyph glyph-name="g" unicode="g" horiz-adv-x="1286" 
d="M905 563q0 147 -81 237.5t-212 90.5q-124 0 -203 -90.5t-79 -237.5t79 -237t203 -90q131 0 212 90t81 237zM571 31q-145 0 -259 71t-175 192t-61 269t61 269t175 192.5t259 71.5q197 0 324 -144v113h254v-942q0 -164 -70.5 -284t-188 -179t-267.5 -59q-194 0 -320 82.5
t-156 234.5h261q24 -67 75 -95t140 -28q131 0 201.5 84t70.5 244v51q-126 -143 -324 -143z" />
    <glyph glyph-name="h" unicode="h" horiz-adv-x="1265" 
d="M391 932q54 79 140 121.5t194 42.5q194 0 304 -111.5t110 -318.5v-666h-254v645q0 119 -53 177.5t-168 58.5q-121 0 -197 -77.5t-76 -219.5v-584h-254v1434h254v-502z" />
    <glyph glyph-name="i" unicode="i" horiz-adv-x="528" 
d="M137 1065h254v-1065h-254v1065zM137 1434h254v-226h-254v226z" />
    <glyph glyph-name="j" unicode="j" horiz-adv-x="536" 
d="M145 1434h254v-226h-254v226zM145 1065h254v-1126q0 -150 -95.5 -229t-260.5 -79h-113v199h103q60 0 86 26.5t26 82.5v1126z" />
    <glyph glyph-name="k" unicode="k" horiz-adv-x="1142" 
d="M391 0h-254v1434h254v-791l412 422h325l-512 -512l553 -553h-346l-432 453v-453z" />
    <glyph glyph-name="l" unicode="l" horiz-adv-x="528" 
d="M137 1434h254v-1434h-254v1434z" />
    <glyph glyph-name="m" unicode="m" horiz-adv-x="1931" 
d="M391 942q96 154 303 154q247 0 348 -185q101 185 359 185q85 0 157.5 -25.5t127.5 -75.5t86.5 -129t31.5 -180v-686h-254v645q0 121 -48.5 178.5t-162.5 57.5q-103 0 -172 -65.5t-69 -201.5v-614h-254v645q0 121 -48.5 178.5t-162.5 57.5q-103 0 -172.5 -65.5
t-69.5 -201.5v-614h-254v1065h254v-123z" />
    <glyph glyph-name="n" unicode="n" horiz-adv-x="1265" 
d="M391 932q54 79 140 121.5t194 42.5q194 0 304 -111.5t110 -318.5v-666h-254v645q0 119 -53 177.5t-168 58.5q-121 0 -197 -77.5t-76 -219.5v-584h-254v1065h254v-133z" />
    <glyph glyph-name="o" unicode="o" horiz-adv-x="1261" 
d="M328 532q0 -54 11 -104.5t34.5 -97t58.5 -81t86 -55t113 -20.5t113 20.5t86 55t58.5 81t34.5 97t11 104.5t-11 104.5t-34.5 97t-58.5 81.5t-86 55.5t-113 20.5t-113 -20.5t-86 -55.5t-58.5 -81.5t-34.5 -97t-11 -104.5zM1188 532q0 -243 -154.5 -403t-402.5 -160
t-402.5 160t-154.5 403t154.5 403.5t402.5 160.5t402.5 -160.5t154.5 -403.5z" />
    <glyph glyph-name="p" unicode="p" horiz-adv-x="1296" 
d="M381 532q0 -160 81.5 -259t211.5 -99q137 0 215 94.5t78 263.5q0 170 -78 264.5t-215 94.5q-130 0 -211.5 -99.5t-81.5 -259.5zM391 932q112 164 334 164q116 0 211 -45t156.5 -122.5t95 -179.5t33.5 -217t-33.5 -216.5t-95 -179t-156.5 -122.5t-211 -45q-222 0 -334 164
v-502h-254v1434h254v-133z" />
    <glyph glyph-name="q" unicode="q" horiz-adv-x="1296" 
d="M915 532q0 161 -81 260t-211 99q-137 0 -215 -94.5t-78 -264.5q0 -169 78 -263.5t215 -94.5q130 0 211 98.5t81 259.5zM905 1065h254v-1434h-254v502q-112 -164 -334 -164q-116 0 -210.5 45t-156 122.5t-95 179t-33.5 216.5q0 155 56.5 281.5t171 204.5t267.5 78
q222 0 334 -164v133z" />
    <glyph glyph-name="r" unicode="r" horiz-adv-x="784" 
d="M627 860q-236 0 -236 -256v-604h-254v1065h254v-123q40 72 109 107.5t188 35.5h64v-225h-125z" />
    <glyph glyph-name="s" unicode="s" horiz-adv-x="1089" 
d="M498 420q-88 11 -159 35t-129 65.5t-90 106t-32 147.5q0 148 123.5 235t337.5 87q106 0 192 -27.5t140 -73.5t84 -101.5t34 -115.5h-256q-5 63 -53.5 100t-144.5 37q-104 0 -153.5 -34t-49.5 -84q0 -60 49.5 -91t147.5 -42l71 -9q90 -11 156.5 -30.5t127.5 -57.5
t93.5 -103.5t32.5 -156.5q0 -154 -127.5 -246t-343.5 -92q-219 0 -347 92t-134 246h258q9 -155 223 -155q107 0 162 35.5t55 97.5q0 24 -5.5 42.5t-20.5 31.5t-28 21t-41 14.5t-46 9.5t-56 8z" />
    <glyph glyph-name="t" unicode="t" horiz-adv-x="876" 
d="M281 860h-256v205h256v246h254v-246h286v-205h-286v-573q0 -48 17.5 -68t63.5 -20h205v-199h-266q-146 0 -210 68.5t-64 218.5v573z" />
    <glyph glyph-name="u" unicode="u" horiz-adv-x="1255" 
d="M864 123q-93 -154 -323 -154q-194 0 -304 111.5t-110 318.5v666h254v-645q0 -119 53 -177.5t168 -58.5q120 0 191 76.5t71 220.5v584h254v-1065h-254v123z" />
    <glyph glyph-name="v" unicode="v" horiz-adv-x="1114" 
d="M20 1065h271l147 -410q44 -114 115 -379h8q71 265 115 379l147 410h271l-410 -1065h-254z" />
    <glyph glyph-name="w" unicode="w" horiz-adv-x="1609" 
d="M801 778q-47 -235 -92 -377l-125 -401h-244l-317 1065h260l104 -418q40 -157 74 -381h8q34 199 88 379l125 420h246l125 -420q54 -180 88 -379h8q34 224 74 381l104 418h260l-317 -1065h-244l-125 401q-45 142 -92 377h-8z" />
    <glyph glyph-name="x" unicode="x" horiz-adv-x="1085" 
d="M682 555l397 -555h-303l-235 356l-236 -356h-299l397 551l-366 514h301l207 -315l207 315h297z" />
    <glyph glyph-name="y" unicode="y" horiz-adv-x="1085" 
d="M424 0l-399 1065h268l149 -410q16 -44 33.5 -101t25 -85t25.5 -100l17 -72h8q53 211 108 358l146 410h262l-430 -1161q-27 -69 -55.5 -114.5t-74.5 -84t-114 -56.5t-162 -18h-143v199h123q85 0 129 29t74 112z" />
    <glyph glyph-name="z" unicode="z" horiz-adv-x="1085" 
d="M1016 205v-205h-942v205l596 655h-576v205h901v-205l-596 -655h617z" />
    <glyph glyph-name="braceleft" unicode="{" horiz-adv-x="768" 
d="M86 635q87 0 127 32.5t33 131.5l-21 297q-6 89 20 156t76 105.5t111.5 57.5t134.5 19h144v-205h-103q-72 0 -103.5 -29t-25.5 -104l21 -297q14 -217 -185 -267q199 -50 185 -266l-21 -297q-6 -75 25.5 -104t103.5 -29h103v-205h-144q-73 0 -134.5 19t-111.5 57.5
t-76 105.5t-20 156l21 297q7 99 -33 131.5t-127 32.5h-35v205h35z" />
    <glyph glyph-name="bar" unicode="|" horiz-adv-x="569" 
d="M158 1434h254v-1803h-254v1803z" />
    <glyph glyph-name="braceright" unicode="}" horiz-adv-x="768" 
d="M717 635v-205h-35q-87 0 -127 -32.5t-33 -131.5l21 -297q6 -89 -20 -156t-76 -105.5t-111.5 -57.5t-134.5 -19h-144v205h103q72 0 103.5 29t25.5 104l-21 297q-14 216 185 266q-199 50 -185 267l21 297q6 75 -25.5 104t-103.5 29h-103v205h144q73 0 134.5 -19
t111.5 -57.5t76 -105.5t20 -156l-21 -297q-7 -99 33 -131.5t127 -32.5h35z" />
    <glyph glyph-name="asciitilde" unicode="~" horiz-adv-x="1257" 
d="M125 573q0 150 81 239t226 89q57 0 111.5 -18t96.5 -43.5t80 -51t74.5 -43.5t67.5 -18q103 0 103 133h184q0 -150 -81 -239t-226 -89q-57 0 -112 18t-97 44t-79.5 51.5t-74 43.5t-67.5 18q-49 0 -76 -33.5t-27 -100.5h-184z" />
    <glyph glyph-name="uni00A0" unicode="&#xa0;" horiz-adv-x="475" 
 />
    <glyph glyph-name="exclamdown" unicode="&#xa1;" horiz-adv-x="552" 
d="M195 594h163l52 -451v-512h-267v512zM430 758h-307v307h307v-307z" />
    <glyph glyph-name="cent" unicode="&#xa2;" horiz-adv-x="1206" 
d="M524 -20q-204 36 -324 187.5t-120 364.5t120 365t324 188v185h205v-180q162 -23 266.5 -112.5t147.5 -229.5h-269q-39 99 -145 131v-693q109 33 145 131h269q-43 -142 -147.5 -232t-266.5 -110v-180h-205v185zM334 532q0 -113 48 -207.5t142 -129.5v675
q-94 -39 -142 -132.5t-48 -205.5z" />
    <glyph glyph-name="sterling" unicode="&#xa3;" horiz-adv-x="1228" 
d="M653 1249q-98 0 -161.5 -57.5t-63.5 -167.5q0 -30 5.5 -60.5t11.5 -52t20.5 -53t22 -45.5t27.5 -49.5t26 -46.5h471v-205h-396q7 -35 7 -72q0 -136 -107 -225h639v-215h-1065v215q127 0 207 59.5t80 165.5q0 34 -10 72h-256v205h155q-45 76 -69.5 149.5t-24.5 167.5
q0 130 65 229t173.5 150t242.5 51q205 0 330 -105.5t152 -262.5h-256q-46 153 -226 153z" />
    <glyph glyph-name="currency" unicode="&#xa4;" horiz-adv-x="1294" 
d="M182 532q0 130 72 240l-170 170l154 154l174 -174q106 61 235 61q123 0 236 -61l174 174l153 -154l-170 -170q72 -110 72 -240q0 -129 -72 -239l170 -170l-153 -154l-174 174q-113 -61 -236 -61q-129 0 -235 61l-174 -174l-154 154l170 170q-72 110 -72 239zM436 532
q0 -95 59.5 -160t151.5 -65t151.5 65t59.5 160q0 93 -59.5 159.5t-151.5 66.5t-151.5 -66.5t-59.5 -159.5z" />
    <glyph glyph-name="yen" unicode="&#xa5;" horiz-adv-x="1288" 
d="M147 840h228l-320 594h277l297 -594h30l297 594h277l-320 -594h228v-205h-336l-33 -62v-61h266v-205h-266v-307h-256v307h-266v205h266v61l-33 62h-336v205z" />
    <glyph glyph-name="brokenbar" unicode="&#xa6;" horiz-adv-x="569" 
d="M158 348h254v-717h-254v717zM158 1434h254v-717h-254v717z" />
    <glyph glyph-name="section" unicode="&#xa7;" horiz-adv-x="1300" 
d="M68 563q0 94 52 169.5t134 115.5q-104 94 -104 258q0 156 133 257t352 101q220 0 351 -97.5t155 -270.5h-254q-36 164 -252 164q-113 0 -172.5 -41.5t-59.5 -112.5q0 -25 8.5 -46.5t21 -37t36.5 -29t46.5 -22t59.5 -18t66 -15.5t76 -14q63 -11 106.5 -20.5t102.5 -26.5
t98.5 -37t82 -52t68 -71t42 -94t16.5 -121q0 -96 -52 -171t-134 -114q104 -97 104 -258q0 -157 -132 -257.5t-353 -100.5q-222 0 -352 97.5t-154 270.5h254q36 -164 252 -164q113 0 172 41.5t59 112.5q0 26 -8.5 47.5t-20.5 37t-37.5 29t-45.5 22t-59.5 18t-65.5 14.5
t-76 14q-61 10 -106.5 19t-102.5 26t-98 37.5t-82.5 52.5t-67.5 71.5t-42.5 94.5t-16.5 121zM676 371q132 -29 194 -52q40 19 74.5 62.5t34.5 99.5q0 28 -5.5 51.5t-18.5 41.5t-26 32t-37.5 25t-42.5 18t-51 14t-53.5 10.5t-59.5 10t-60 10.5q-131 27 -197 51
q-41 -22 -73.5 -63.5t-32.5 -97.5q0 -25 5.5 -46.5t13 -38t23.5 -30.5t29 -24t37.5 -19t41 -14.5t47.5 -12t49 -10t54 -9.5z" />
    <glyph glyph-name="dieresis" unicode="&#xa8;" horiz-adv-x="901" 
d="M98 1434h254v-226h-254v226zM549 1434h254v-226h-254v226z" />
    <glyph glyph-name="copyright" unicode="&#xa9;" horiz-adv-x="1654" 
d="M1018 901q-14 42 -58 72.5t-122 30.5q-116 0 -186 -81t-70 -206t70 -206t186 -81q80 0 125 32.5t59 80.5h197q-42 -129 -138 -198t-243 -69q-192 0 -316.5 124.5t-124.5 316.5t124.5 316t316.5 124q291 0 381 -256h-201zM80 717q0 151 59.5 289t160 238.5t238.5 160
t289 59.5t289.5 -59.5t239 -160t160 -238.5t59.5 -289t-59.5 -289.5t-160 -239t-239 -160t-289.5 -59.5t-289 59.5t-238.5 160t-160 239t-59.5 289.5zM233 717q0 -161 79.5 -298t216.5 -216.5t298 -79.5t298 79.5t216.5 216.5t79.5 298t-79.5 298t-216.5 216.5t-298 79.5
t-298 -79.5t-216.5 -216.5t-79.5 -298z" />
    <glyph glyph-name="ordfeminine" unicode="&#xaa;" horiz-adv-x="962" 
d="M121 1208q24 118 115 182t243 64q165 0 262 -72t97 -225v-563h-185v92q-41 -50 -109.5 -81.5t-156.5 -31.5q-132 0 -219.5 68.5t-87.5 202.5q0 240 313 266l260 23v24q0 74 -42 111t-132 37q-143 0 -168 -97h-190zM408 723q103 0 174 62.5t71 166.5v41l-252 -22
q-63 -5 -100 -36.5t-37 -90.5q0 -55 38 -88t106 -33z" />
    <glyph glyph-name="guillemotleft" unicode="&#xab;" horiz-adv-x="1341" 
d="M709 184h-308l-348 348l348 349h308l-359 -349zM1231 184h-307l-349 348l349 349h307l-359 -349z" />
    <glyph glyph-name="logicalnot" unicode="&#xac;" horiz-adv-x="1261" 
d="M920 758h-820v205h1024v-492h-204v287z" />
    <glyph glyph-name="uni00AD" unicode="&#xad;" horiz-adv-x="856" 
d="M121 635h614v-205h-614v205z" />
    <glyph glyph-name="registered" unicode="&#xae;" horiz-adv-x="1654" 
d="M80 717q0 151 59.5 289t160 238.5t238.5 160t289 59.5t289.5 -59.5t239 -160t160 -238.5t59.5 -289t-59.5 -289.5t-160 -239t-239 -160t-289.5 -59.5t-289 59.5t-238.5 160t-160 239t-59.5 289.5zM233 717q0 -161 79.5 -298t216.5 -216.5t298 -79.5t298 79.5t216.5 216.5
t79.5 298t-79.5 298t-216.5 216.5t-298 79.5t-298 -79.5t-216.5 -216.5t-79.5 -298zM684 604v-307h-184v840h440q122 0 199.5 -75.5t77.5 -191.5t-77.5 -191t-199.5 -75h-10l307 -307h-231l-301 307h-21zM920 758q52 0 82 31.5t30 80.5t-30 81t-82 32h-236v-225h236z" />
    <glyph glyph-name="macron" unicode="&#xaf;" horiz-adv-x="901" 
d="M92 1413h717v-184h-717v184z" />
    <glyph glyph-name="degree" unicode="&#xb0;" horiz-adv-x="1036" 
d="M272 1024q0 -113 72 -184.5t174 -71.5t174 71.5t72 184.5t-72 184.5t-174 71.5t-174 -71.5t-72 -184.5zM969 1024q0 -185 -130.5 -312.5t-320.5 -127.5t-320 127.5t-130 312.5t130 312.5t320 127.5t320.5 -127.5t130.5 -312.5z" />
    <glyph glyph-name="plusminus" unicode="&#xb1;" horiz-adv-x="1216" 
d="M137 1004h369v245h205v-245h368v-205h-368v-246h-205v246h-369v205zM137 389h942v-205h-942v205z" />
    <glyph glyph-name="twosuperior" unicode="&#xb2;" horiz-adv-x="733" 
d="M61 1423q8 100 83.5 168t213.5 68q141 0 219 -72t78 -184q0 -142 -153 -277l-195 -174h369v-153h-615v153l318 297q50 48 71 82t21 72q0 43 -28 72.5t-85 29.5q-100 0 -110 -82h-187z" />
    <glyph glyph-name="threesuperior" unicode="&#xb3;" horiz-adv-x="741" 
d="M231 1024q6 -38 35.5 -65t91.5 -27q66 0 102 31.5t36 80.5q0 50 -34 81.5t-100 31.5h-71v143h71q54 0 83.5 30.5t29.5 72.5t-29.5 72t-83.5 30q-53 0 -80.5 -24.5t-29.5 -57.5h-186q8 102 88 169t208 67q131 0 214 -68.5t83 -177.5q0 -59 -31 -104t-81 -70
q63 -24 98 -76.5t35 -128.5q0 -114 -91 -185t-231 -71q-134 0 -221 71.5t-92 174.5h186z" />
    <glyph glyph-name="acute" unicode="&#xb4;" horiz-adv-x="593" 
d="M225 1434h328l-246 -246h-246z" />
    <glyph glyph-name="mu" unicode="&#xb5;" horiz-adv-x="1306" 
d="M895 72q-84 -103 -242 -103q-157 0 -241 103v-441h-254v1434h254v-645q0 -113 61 -179.5t180 -66.5q115 0 178.5 67.5t63.5 178.5v645h254v-1065h-254v72z" />
    <glyph glyph-name="paragraph" unicode="&#xb6;" horiz-adv-x="1427" 
d="M479 -369v983q-185 0 -305.5 113.5t-120.5 296.5t120.5 296.5t305.5 113.5h864v-215h-159v-1588h-254v1588h-197v-1588h-254z" />
    <glyph glyph-name="periodcentered" unicode="&#xb7;" horiz-adv-x="548" 
d="M121 686h307v-307h-307v307z" />
    <glyph glyph-name="cedilla" unicode="&#xb8;" horiz-adv-x="573" 
d="M209 -287q15 -41 67 -41q32 0 52 21t20 51t-20 51t-52 21q-28 0 -51 -23l-94 94l143 144h189l-123 -123q69 -4 110.5 -49.5t41.5 -114.5q0 -80 -63.5 -137.5t-152.5 -57.5q-83 0 -142 46.5t-73 117.5h148z" />
    <glyph glyph-name="onesuperior" unicode="&#xb9;" horiz-adv-x="559" 
d="M248 799v624l-205 -215v226l205 204h184v-839h-184z" />
    <glyph glyph-name="ordmasculine" unicode="&#xba;" horiz-adv-x="1007" 
d="M258 1014q0 -75 24.5 -138t82 -106t139.5 -43t139.5 43t82 106t24.5 138t-24.5 138t-82 105.5t-139.5 42.5q-116 0 -181 -85t-65 -201zM934 1014q0 -195 -116 -318t-314 -123t-314 123t-116 318q0 193 119.5 316.5t310.5 123.5q198 0 314 -123t116 -317z" />
    <glyph glyph-name="guillemotright" unicode="&#xbb;" horiz-adv-x="1341" 
d="M469 532l-358 349h307l348 -349l-348 -348h-307zM991 532l-358 349h307l348 -349l-348 -348h-307z" />
    <glyph glyph-name="onequarter" unicode="&#xbc;" horiz-adv-x="1574" 
d="M246 594v625l-205 -215v225l205 205h184v-840h-184zM1016 1434h205l-799 -1434h-205zM1200 840h205v-533h123v-153h-123v-154h-184v154h-400v153zM1221 307v133q0 92 10 205h-8q-33 -68 -107 -174l-115 -164h220z" />
    <glyph glyph-name="onehalf" unicode="&#xbd;" horiz-adv-x="1607" 
d="M246 594v625l-205 -215v225l205 205h184v-840h-184zM1016 1434h205l-799 -1434h-205zM936 625q8 100 83.5 167.5t213.5 67.5q141 0 219 -72t78 -184q0 -140 -154 -276l-194 -174h368v-154h-614v154l317 297q51 49 72 82.5t21 70.5q0 43 -28 73t-85 30q-101 0 -111 -82
h-186z" />
    <glyph glyph-name="threequarters" unicode="&#xbe;" horiz-adv-x="1746" 
d="M229 819q6 -38 35.5 -65t91.5 -27q66 0 102 31.5t36 81.5t-34 81t-100 31h-71v144h71q54 0 83.5 30t29.5 72t-29.5 72t-83.5 30q-53 0 -80.5 -24t-29.5 -57h-187q8 102 88.5 168.5t208.5 66.5q131 0 214 -68.5t83 -177.5q0 -59 -31 -104t-81 -70q63 -24 98 -76.5
t35 -128.5q0 -114 -91 -185t-231 -71q-134 0 -221 71.5t-92 174.5h186zM1188 1434h205l-799 -1434h-205zM1372 840h205v-533h123v-153h-123v-154h-184v154h-400v153zM1393 307v133q0 92 10 205h-8q-33 -68 -107 -174l-114 -164h219z" />
    <glyph glyph-name="questiondown" unicode="&#xbf;" horiz-adv-x="1040" 
d="M713 758h-307v307h307v-307zM989 -31q-8 -161 -135 -264.5t-326 -103.5q-214 0 -337 110.5t-123 278.5q0 73 21 132t54 97.5t73.5 72t81 63t73.5 61.5t54 77t21 101h226q0 -79 -18.5 -142.5t-48.5 -104.5t-66 -75.5t-72 -63t-66 -58t-48.5 -70t-18.5 -90.5
q0 -74 49.5 -124t144.5 -50q87 0 137 43.5t58 109.5h266z" />
    <glyph glyph-name="Agrave" unicode="&#xc0;" horiz-adv-x="1437" 
d="M1034 317h-631l-124 -317h-277l584 1434h266l584 -1434h-277zM494 543h450l-94 239q-62 156 -127 375h-8q-62 -208 -127 -375zM924 1556h-246l-246 246h328z" />
    <glyph glyph-name="Aacute" unicode="&#xc1;" horiz-adv-x="1437" 
d="M1034 317h-631l-124 -317h-277l584 1434h266l584 -1434h-277zM494 543h450l-94 239q-62 156 -127 375h-8q-62 -208 -127 -375zM678 1802h328l-246 -246h-246z" />
    <glyph glyph-name="Acircumflex" unicode="&#xc2;" horiz-adv-x="1437" 
d="M1034 317h-631l-124 -317h-277l584 1434h266l584 -1434h-277zM494 543h450l-94 239q-62 156 -127 375h-8q-62 -208 -127 -375zM719 1690l-82 -134h-307l245 246h287l246 -246h-307z" />
    <glyph glyph-name="Atilde" unicode="&#xc3;" horiz-adv-x="1437" 
d="M1034 317h-631l-124 -317h-277l584 1434h266l584 -1434h-277zM494 543h450l-94 239q-62 156 -127 375h-8q-62 -208 -127 -375zM330 1567q0 122 67.5 194t177.5 72q48 0 98 -19t83 -42.5t68.5 -42.5t58.5 -19q61 0 61 82h164q0 -122 -68 -194t-178 -72q-62 0 -123 31
t-108.5 61.5t-75.5 30.5q-61 0 -61 -82h-164z" />
    <glyph glyph-name="Adieresis" unicode="&#xc4;" horiz-adv-x="1437" 
d="M1034 317h-631l-124 -317h-277l584 1434h266l584 -1434h-277zM494 543h450l-94 239q-62 156 -127 375h-8q-62 -208 -127 -375zM367 1802h254v-225h-254v225zM817 1802h254v-225h-254v225z" />
    <glyph glyph-name="Aring" unicode="&#xc5;" horiz-adv-x="1437" 
d="M442 1649q0 109 80 182.5t197 73.5t196.5 -73.5t79.5 -182.5q0 -73 -37.5 -133t-101.5 -93l580 -1423h-277l-125 317h-631l-124 -317h-277l580 1423q-64 33 -102 93t-38 133zM842 1649q0 54 -34.5 88.5t-88.5 34.5t-88.5 -34.5t-34.5 -88.5t34.5 -88.5t88.5 -34.5
t88.5 34.5t34.5 88.5zM494 543h450l-94 239q-62 156 -127 375h-8q-62 -208 -127 -375z" />
    <glyph glyph-name="AE" unicode="&#xc6;" horiz-adv-x="2185" 
d="M1071 317h-590l-209 -317h-307l963 1434h1147v-226h-738v-358h697v-225h-697v-400h738v-225h-1004v317zM631 543h440v665h-10q-13 -20 -50 -80t-80 -127t-91 -141z" />
    <glyph glyph-name="Ccedilla" unicode="&#xc7;" horiz-adv-x="1478" 
d="M745 -287q15 -41 68 -41q32 0 52 21t20 51t-20 51t-52 21q-28 0 -51 -23l-94 94l84 84q-201 11 -353.5 110.5t-232.5 264t-80 371.5q0 160 50.5 298t142.5 237t227 155.5t297 56.5q238 0 390.5 -107.5t223.5 -291.5h-293q-91 174 -321 174q-108 0 -195 -42.5t-142 -115
t-84.5 -166t-29.5 -198.5t29.5 -198.5t84.5 -166t142 -115t195 -42.5q132 0 216.5 56.5t119.5 147.5h288q-57 -168 -175.5 -277t-301.5 -140l-73 -74q69 -4 110 -49.5t41 -114.5q0 -80 -63 -137.5t-152 -57.5q-83 0 -142 46.5t-73 117.5h147z" />
    <glyph glyph-name="Egrave" unicode="&#xc8;" horiz-adv-x="1325" 
d="M170 1434h1044v-226h-778v-358h738v-225h-738v-400h778v-225h-1044v1434zM897 1556h-246l-245 246h327z" />
    <glyph glyph-name="Eacute" unicode="&#xc9;" horiz-adv-x="1325" 
d="M170 1434h1044v-226h-778v-358h738v-225h-738v-400h778v-225h-1044v1434zM651 1802h328l-246 -246h-246z" />
    <glyph glyph-name="Ecircumflex" unicode="&#xca;" horiz-adv-x="1325" 
d="M170 1434h1044v-226h-778v-358h738v-225h-738v-400h778v-225h-1044v1434zM692 1690l-82 -134h-307l246 246h287l245 -246h-307z" />
    <glyph glyph-name="Edieresis" unicode="&#xcb;" horiz-adv-x="1325" 
d="M170 1434h1044v-226h-778v-358h738v-225h-738v-400h778v-225h-1044v1434zM340 1802h254v-225h-254v225zM791 1802h253v-225h-253v225z" />
    <glyph glyph-name="Igrave" unicode="&#xcc;" horiz-adv-x="606" 
d="M170 0v1434h266v-1434h-266zM508 1556h-246l-246 246h328z" />
    <glyph glyph-name="Iacute" unicode="&#xcd;" horiz-adv-x="606" 
d="M170 0v1434h266v-1434h-266zM262 1802h328l-246 -246h-246z" />
    <glyph glyph-name="Icircumflex" unicode="&#xce;" horiz-adv-x="606" 
d="M170 0v1434h266v-1434h-266zM303 1690l-82 -134h-307l246 246h286l246 -246h-307z" />
    <glyph glyph-name="Idieresis" unicode="&#xcf;" horiz-adv-x="606" 
d="M170 0v1434h266v-1434h-266zM-49 1802h254v-225h-254v225zM401 1802h254v-225h-254v225z" />
    <glyph glyph-name="Eth" unicode="&#xd0;" horiz-adv-x="1556" 
d="M752 225q450 0 450 492q0 491 -450 491h-256v-379h409v-215h-409v-389h256zM229 0v614h-204v215h204v605h543q325 0 510.5 -190.5t185.5 -526.5q0 -338 -185.5 -527.5t-510.5 -189.5h-543z" />
    <glyph glyph-name="Ntilde" unicode="&#xd1;" horiz-adv-x="1589" 
d="M1153 1434h266v-1434h-286l-431 625q-173 244 -272 430h-8q14 -183 14 -451v-604h-266v1434h287l430 -625q194 -283 272 -430h8q-14 183 -14 450v605zM406 1567q0 122 67.5 194t177.5 72q48 0 97.5 -19t82.5 -42.5t68.5 -42.5t58.5 -19q62 0 62 82h164q0 -122 -68 -194
t-178 -72q-62 0 -123 31t-108.5 61.5t-75.5 30.5q-62 0 -62 -82h-163z" />
    <glyph glyph-name="Ograve" unicode="&#xd2;" horiz-adv-x="1601" 
d="M350 717q0 -83 19 -160t57.5 -143t91.5 -115t126 -76.5t157 -27.5q139 0 243 73.5t155.5 191t51.5 257.5t-51.5 257.5t-155.5 191t-243 73.5q-84 0 -157 -27.5t-126 -76.5t-91.5 -115t-57.5 -143t-19 -160zM1518 717q0 -215 -88.5 -385t-252.5 -266.5t-376 -96.5
t-376 96.5t-252.5 266.5t-88.5 385q0 214 88.5 383.5t252.5 266.5t376 97t376 -97t252.5 -266.5t88.5 -383.5zM1006 1556h-246l-246 246h328z" />
    <glyph glyph-name="Oacute" unicode="&#xd3;" horiz-adv-x="1601" 
d="M350 717q0 -83 19 -160t57.5 -143t91.5 -115t126 -76.5t157 -27.5q139 0 243 73.5t155.5 191t51.5 257.5t-51.5 257.5t-155.5 191t-243 73.5q-84 0 -157 -27.5t-126 -76.5t-91.5 -115t-57.5 -143t-19 -160zM1518 717q0 -215 -88.5 -385t-252.5 -266.5t-376 -96.5
t-376 96.5t-252.5 266.5t-88.5 385q0 214 88.5 383.5t252.5 266.5t376 97t376 -97t252.5 -266.5t88.5 -383.5zM760 1802h327l-245 -246h-246z" />
    <glyph glyph-name="Ocircumflex" unicode="&#xd4;" horiz-adv-x="1601" 
d="M350 717q0 -83 19 -160t57.5 -143t91.5 -115t126 -76.5t157 -27.5q139 0 243 73.5t155.5 191t51.5 257.5t-51.5 257.5t-155.5 191t-243 73.5q-84 0 -157 -27.5t-126 -76.5t-91.5 -115t-57.5 -143t-19 -160zM1518 717q0 -215 -88.5 -385t-252.5 -266.5t-376 -96.5
t-376 96.5t-252.5 266.5t-88.5 385q0 214 88.5 383.5t252.5 266.5t376 97t376 -97t252.5 -266.5t88.5 -383.5zM801 1690l-82 -134h-307l245 246h287l246 -246h-307z" />
    <glyph glyph-name="Otilde" unicode="&#xd5;" horiz-adv-x="1601" 
d="M350 717q0 -83 19 -160t57.5 -143t91.5 -115t126 -76.5t157 -27.5q139 0 243 73.5t155.5 191t51.5 257.5t-51.5 257.5t-155.5 191t-243 73.5q-84 0 -157 -27.5t-126 -76.5t-91.5 -115t-57.5 -143t-19 -160zM1518 717q0 -215 -88.5 -385t-252.5 -266.5t-376 -96.5
t-376 96.5t-252.5 266.5t-88.5 385q0 214 88.5 383.5t252.5 266.5t376 97t376 -97t252.5 -266.5t88.5 -383.5zM412 1567q0 122 67.5 194t177.5 72q48 0 98 -19t83 -42.5t68.5 -42.5t58.5 -19q61 0 61 82h164q0 -122 -68 -194t-178 -72q-62 0 -123 31t-108.5 61.5t-75.5 30.5
q-62 0 -62 -82h-163z" />
    <glyph glyph-name="Odieresis" unicode="&#xd6;" horiz-adv-x="1601" 
d="M350 717q0 -83 19 -160t57.5 -143t91.5 -115t126 -76.5t157 -27.5q139 0 243 73.5t155.5 191t51.5 257.5t-51.5 257.5t-155.5 191t-243 73.5q-84 0 -157 -27.5t-126 -76.5t-91.5 -115t-57.5 -143t-19 -160zM1518 717q0 -215 -88.5 -385t-252.5 -266.5t-376 -96.5
t-376 96.5t-252.5 266.5t-88.5 385q0 214 88.5 383.5t252.5 266.5t376 97t376 -97t252.5 -266.5t88.5 -383.5zM449 1802h253v-225h-253v225zM899 1802h254v-225h-254v225z" />
    <glyph glyph-name="multiply" unicode="&#xd7;" horiz-adv-x="1191" 
d="M1098 358l-144 -143l-358 358l-358 -358l-144 143l359 359l-359 358l144 144l358 -359l358 359l144 -144l-359 -358z" />
    <glyph glyph-name="Oslash" unicode="&#xd8;" horiz-adv-x="1609" 
d="M258 211q-170 204 -170 506q0 214 88.5 383.5t252.5 266.5t376 97q228 0 405 -114l97 114h245l-202 -241q172 -199 172 -506q0 -215 -88.5 -385t-252.5 -266.5t-376 -96.5q-230 0 -406 115l-96 -115h-246zM1255 717q0 172 -75 301l-625 -746q107 -77 250 -77
q139 0 243 73.5t155.5 191t51.5 257.5zM354 717q0 -170 74 -303l625 747q-108 78 -248 78q-84 0 -157 -27.5t-126 -76.5t-91.5 -115t-57.5 -143t-19 -160z" />
    <glyph glyph-name="Ugrave" unicode="&#xd9;" horiz-adv-x="1499" 
d="M750 -31q-135 0 -248 43.5t-188 118t-116.5 175.5t-41.5 216v912h266v-912q0 -152 89.5 -239.5t238.5 -87.5t238 87.5t89 239.5v912h266v-912q0 -115 -41.5 -216t-116.5 -176t-187.5 -118t-247.5 -43zM954 1556h-245l-246 246h328z" />
    <glyph glyph-name="Uacute" unicode="&#xda;" horiz-adv-x="1499" 
d="M750 -31q-135 0 -248 43.5t-188 118t-116.5 175.5t-41.5 216v912h266v-912q0 -152 89.5 -239.5t238.5 -87.5t238 87.5t89 239.5v912h266v-912q0 -115 -41.5 -216t-116.5 -176t-187.5 -118t-247.5 -43zM709 1802h327l-245 -246h-246z" />
    <glyph glyph-name="Ucircumflex" unicode="&#xdb;" horiz-adv-x="1499" 
d="M750 -31q-135 0 -248 43.5t-188 118t-116.5 175.5t-41.5 216v912h266v-912q0 -152 89.5 -239.5t238.5 -87.5t238 87.5t89 239.5v912h266v-912q0 -115 -41.5 -216t-116.5 -176t-187.5 -118t-247.5 -43zM750 1690l-82 -134h-308l246 246h287l246 -246h-308z" />
    <glyph glyph-name="Udieresis" unicode="&#xdc;" horiz-adv-x="1499" 
d="M750 -31q-135 0 -248 43.5t-188 118t-116.5 175.5t-41.5 216v912h266v-912q0 -152 89.5 -239.5t238.5 -87.5t238 87.5t89 239.5v912h266v-912q0 -115 -41.5 -216t-116.5 -176t-187.5 -118t-247.5 -43zM397 1802h254v-225h-254v225zM848 1802h254v-225h-254v225z" />
    <glyph glyph-name="Yacute" unicode="&#xdd;" horiz-adv-x="1261" 
d="M498 563l-482 871h287l328 -635l327 635h287l-481 -871v-563h-266v563zM590 1802h328l-246 -246h-246z" />
    <glyph glyph-name="Thorn" unicode="&#xde;" horiz-adv-x="1447" 
d="M436 307v-307h-266v1434h266v-267h471q213 0 342 -118.5t129 -311.5t-129 -311.5t-342 -118.5h-471zM907 532q92 0 148.5 56.5t56.5 148.5t-56.5 148.5t-148.5 56.5h-471v-410h471z" />
    <glyph glyph-name="germandbls" unicode="&#xdf;" horiz-adv-x="1261" 
d="M903 809q140 -35 213.5 -137t73.5 -232q0 -93 -34 -172.5t-98 -139.5t-163 -94t-221 -34h-123v205h113q132 0 202 65.5t70 169.5q0 118 -67 182t-195 64h-103v195h72q98 0 144.5 55t46.5 139q0 82 -54.5 133.5t-156.5 51.5q-232 0 -232 -246v-1014h-254v1014
q0 206 126 328t360 122q219 0 341.5 -108.5t122.5 -270.5q0 -94 -46.5 -166t-137.5 -110z" />
    <glyph glyph-name="agrave" unicode="&#xe0;" horiz-adv-x="1193" 
d="M117 778q25 149 146.5 233.5t328.5 84.5q277 0 395 -142q80 -92 80 -247v-707h-254v123q-111 -154 -354 -154q-171 0 -282 89.5t-111 258.5q0 150 106 235t297 103l344 31v21q0 96 -51 145t-170 49q-188 0 -213 -123h-262zM500 164q136 0 224.5 78t88.5 219v41l-334 -31
q-74 -6 -117 -46t-43 -108q0 -75 49 -114t132 -39zM797 1188h-246l-246 246h328z" />
    <glyph glyph-name="aacute" unicode="&#xe1;" horiz-adv-x="1193" 
d="M117 778q25 149 146.5 233.5t328.5 84.5q277 0 395 -142q80 -92 80 -247v-707h-254v123q-111 -154 -354 -154q-171 0 -282 89.5t-111 258.5q0 150 106 235t297 103l344 31v21q0 96 -51 145t-170 49q-188 0 -213 -123h-262zM500 164q136 0 224.5 78t88.5 219v41l-334 -31
q-74 -6 -117 -46t-43 -108q0 -75 49 -114t132 -39zM551 1434h328l-246 -246h-246z" />
    <glyph glyph-name="acircumflex" unicode="&#xe2;" horiz-adv-x="1193" 
d="M117 778q25 149 146.5 233.5t328.5 84.5q277 0 395 -142q80 -92 80 -247v-707h-254v123q-111 -154 -354 -154q-171 0 -282 89.5t-111 258.5q0 150 106 235t297 103l344 31v21q0 96 -51 145t-170 49q-188 0 -213 -123h-262zM500 164q136 0 224.5 78t88.5 219v41l-334 -31
q-74 -6 -117 -46t-43 -108q0 -75 49 -114t132 -39zM592 1321l-82 -133h-307l246 246h286l246 -246h-307z" />
    <glyph glyph-name="atilde" unicode="&#xe3;" horiz-adv-x="1193" 
d="M117 778q25 149 146.5 233.5t328.5 84.5q277 0 395 -142q80 -92 80 -247v-707h-254v123q-111 -154 -354 -154q-171 0 -282 89.5t-111 258.5q0 150 106 235t297 103l344 31v21q0 96 -51 145t-170 49q-188 0 -213 -123h-262zM500 164q136 0 224.5 78t88.5 219v41l-334 -31
q-74 -6 -117 -46t-43 -108q0 -75 49 -114t132 -39zM203 1198q0 122 68 194t178 72q62 0 123 -31t108.5 -61.5t75.5 -30.5q61 0 61 82h164q0 -122 -68 -194t-178 -72q-48 0 -97.5 19t-82.5 42.5t-68.5 42.5t-58.5 19q-61 0 -61 -82h-164z" />
    <glyph glyph-name="adieresis" unicode="&#xe4;" horiz-adv-x="1193" 
d="M117 778q25 149 146.5 233.5t328.5 84.5q277 0 395 -142q80 -92 80 -247v-707h-254v123q-111 -154 -354 -154q-171 0 -282 89.5t-111 258.5q0 150 106 235t297 103l344 31v21q0 96 -51 145t-170 49q-188 0 -213 -123h-262zM500 164q136 0 224.5 78t88.5 219v41l-334 -31
q-74 -6 -117 -46t-43 -108q0 -75 49 -114t132 -39zM240 1434h254v-226h-254v226zM690 1434h254v-226h-254v226z" />
    <glyph glyph-name="aring" unicode="&#xe5;" horiz-adv-x="1193" 
d="M117 778q25 149 146.5 233.5t328.5 84.5q277 0 395 -142q80 -92 80 -247v-707h-254v123q-111 -154 -354 -154q-171 0 -282 89.5t-111 258.5q0 150 106 235t297 103l344 31v21q0 96 -51 145t-170 49q-188 0 -213 -123h-262zM500 164q136 0 224.5 78t88.5 219v41l-334 -31
q-74 -6 -117 -46t-43 -108q0 -75 49 -114t132 -39zM715 1403q0 54 -34.5 88.5t-88.5 34.5t-88.5 -34.5t-34.5 -88.5t34.5 -88.5t88.5 -34.5t88.5 34.5t34.5 88.5zM315 1403q0 109 80 182.5t197 73.5t196.5 -73.5t79.5 -182.5t-79.5 -182.5t-196.5 -73.5t-197 73.5t-80 182.5
z" />
    <glyph glyph-name="ae" unicode="&#xe6;" horiz-adv-x="1955" 
d="M500 164q136 0 224.5 78t88.5 219v41l-334 -31q-74 -6 -117 -46t-43 -108q0 -75 49 -114t132 -39zM1348 901q-118 0 -194 -77t-89 -189h555q-5 112 -77.5 189t-194.5 77zM1354 -31q-268 0 -422 185q-167 -185 -463 -185q-177 0 -290 89.5t-113 258.5q0 150 106 235
t297 103l344 31v21q0 96 -51 145t-170 49q-188 0 -213 -123h-262q25 149 146.5 233.5t328.5 84.5q266 0 389 -138q144 138 367 138q197 0 322.5 -95t178.5 -262q35 -112 35 -258v-41h-819q5 -109 83 -192.5t206 -83.5q95 0 154 42.5t81 100.5h275q-47 -149 -179 -243.5
t-331 -94.5z" />
    <glyph glyph-name="ccedilla" unicode="&#xe7;" horiz-adv-x="1157" 
d="M549 -287q15 -41 67 -41q32 0 52 21t20 51t-20 51t-52 21q-28 0 -51 -23l-94 94l86 86q-225 20 -353 175t-128 384q0 161 63 287.5t188.5 201.5t295.5 75q184 0 305 -85.5t170 -232.5h-273q-50 117 -202 117q-80 0 -139 -31.5t-91.5 -85.5t-47.5 -115t-15 -131t15 -131
t47.5 -114.5t91.5 -85t139 -31.5q172 0 215 137h270q-90 -270 -354 -325l-74 -74q69 -4 110 -49.5t41 -114.5q0 -80 -63 -137.5t-152 -57.5q-83 0 -142 46.5t-73 117.5h148z" />
    <glyph glyph-name="egrave" unicode="&#xe8;" horiz-adv-x="1230" 
d="M1139 307q-47 -149 -179 -243.5t-331 -94.5q-165 0 -292 74.5t-194 202t-67 286.5t67.5 287t193 202.5t286.5 74.5q197 0 322.5 -95t178.5 -262q35 -112 35 -258v-41h-819q5 -109 83 -192.5t206 -83.5q95 0 154 42.5t81 100.5h275zM623 901q-118 0 -194 -77t-89 -189h555
q-5 112 -77.5 189t-194.5 77zM827 1188h-245l-246 246h328z" />
    <glyph glyph-name="eacute" unicode="&#xe9;" horiz-adv-x="1230" 
d="M1139 307q-47 -149 -179 -243.5t-331 -94.5q-165 0 -292 74.5t-194 202t-67 286.5t67.5 287t193 202.5t286.5 74.5q197 0 322.5 -95t178.5 -262q35 -112 35 -258v-41h-819q5 -109 83 -192.5t206 -83.5q95 0 154 42.5t81 100.5h275zM623 901q-118 0 -194 -77t-89 -189h555
q-5 112 -77.5 189t-194.5 77zM582 1434h327l-245 -246h-246z" />
    <glyph glyph-name="ecircumflex" unicode="&#xea;" horiz-adv-x="1230" 
d="M1139 307q-47 -149 -179 -243.5t-331 -94.5q-165 0 -292 74.5t-194 202t-67 286.5t67.5 287t193 202.5t286.5 74.5q197 0 322.5 -95t178.5 -262q35 -112 35 -258v-41h-819q5 -109 83 -192.5t206 -83.5q95 0 154 42.5t81 100.5h275zM623 901q-118 0 -194 -77t-89 -189h555
q-5 112 -77.5 189t-194.5 77zM623 1321l-82 -133h-308l246 246h287l246 -246h-307z" />
    <glyph glyph-name="edieresis" unicode="&#xeb;" horiz-adv-x="1230" 
d="M1139 307q-47 -149 -179 -243.5t-331 -94.5q-165 0 -292 74.5t-194 202t-67 286.5t67.5 287t193 202.5t286.5 74.5q197 0 322.5 -95t178.5 -262q35 -112 35 -258v-41h-819q5 -109 83 -192.5t206 -83.5q95 0 154 42.5t81 100.5h275zM623 901q-118 0 -194 -77t-89 -189h555
q-5 112 -77.5 189t-194.5 77zM270 1434h254v-226h-254v226zM721 1434h254v-226h-254v226z" />
    <glyph glyph-name="igrave" unicode="&#xec;" horiz-adv-x="528" 
d="M137 1065h254v-1065h-254v1065zM469 1188h-246l-246 246h328z" />
    <glyph glyph-name="iacute" unicode="&#xed;" horiz-adv-x="528" 
d="M137 1065h254v-1065h-254v1065zM223 1434h328l-246 -246h-246z" />
    <glyph glyph-name="icircumflex" unicode="&#xee;" horiz-adv-x="528" 
d="M137 1065h254v-1065h-254v1065zM264 1321l-82 -133h-307l246 246h287l245 -246h-307z" />
    <glyph glyph-name="idieresis" unicode="&#xef;" horiz-adv-x="528" 
d="M137 1065h254v-1065h-254v1065zM-88 1434h254v-226h-254v226zM362 1434h254v-226h-254v226z" />
    <glyph glyph-name="eth" unicode="&#xf0;" horiz-adv-x="1196" 
d="M201 983v195l241 86l-170 170h318l82 -86l327 116v-194l-188 -68q72 -76 120.5 -141t94 -152.5t68 -194t22.5 -233.5q0 -221 -143 -366.5t-383 -145.5q-223 0 -369.5 145t-146.5 367q0 212 133.5 352t351.5 140q135 0 225 -72q-7 13 -14 23.5t-18 24t-19 22.5t-27 28.5
t-30.5 31.5t-41 41t-48.5 48zM590 174q121 0 196.5 85.5t75.5 211.5q0 131 -75 214t-197 83q-125 0 -193.5 -84t-68.5 -213q0 -125 74 -211t188 -86z" />
    <glyph glyph-name="ntilde" unicode="&#xf1;" horiz-adv-x="1265" 
d="M391 932q54 79 140 121.5t194 42.5q194 0 304 -111.5t110 -318.5v-666h-254v645q0 119 -53 177.5t-168 58.5q-121 0 -197 -77.5t-76 -219.5v-584h-254v1065h254v-133zM244 1198q0 122 67.5 194t177.5 72q48 0 98 -19t83 -42.5t68.5 -42.5t58.5 -19q61 0 61 82h164
q0 -122 -68 -194t-178 -72q-48 0 -97.5 19t-82.5 42.5t-68.5 42.5t-58.5 19q-61 0 -61 -82h-164z" />
    <glyph glyph-name="ograve" unicode="&#xf2;" horiz-adv-x="1261" 
d="M328 532q0 -54 11 -104.5t34.5 -97t58.5 -81t86 -55t113 -20.5t113 20.5t86 55t58.5 81t34.5 97t11 104.5t-11 104.5t-34.5 97t-58.5 81.5t-86 55.5t-113 20.5t-113 -20.5t-86 -55.5t-58.5 -81.5t-34.5 -97t-11 -104.5zM1188 532q0 -243 -154.5 -403t-402.5 -160
t-402.5 160t-154.5 403t154.5 403.5t402.5 160.5t402.5 -160.5t154.5 -403.5zM836 1188h-246l-246 246h328z" />
    <glyph glyph-name="oacute" unicode="&#xf3;" horiz-adv-x="1261" 
d="M328 532q0 -54 11 -104.5t34.5 -97t58.5 -81t86 -55t113 -20.5t113 20.5t86 55t58.5 81t34.5 97t11 104.5t-11 104.5t-34.5 97t-58.5 81.5t-86 55.5t-113 20.5t-113 -20.5t-86 -55.5t-58.5 -81.5t-34.5 -97t-11 -104.5zM1188 532q0 -243 -154.5 -403t-402.5 -160
t-402.5 160t-154.5 403t154.5 403.5t402.5 160.5t402.5 -160.5t154.5 -403.5zM590 1434h328l-246 -246h-246z" />
    <glyph glyph-name="ocircumflex" unicode="&#xf4;" horiz-adv-x="1261" 
d="M328 532q0 -54 11 -104.5t34.5 -97t58.5 -81t86 -55t113 -20.5t113 20.5t86 55t58.5 81t34.5 97t11 104.5t-11 104.5t-34.5 97t-58.5 81.5t-86 55.5t-113 20.5t-113 -20.5t-86 -55.5t-58.5 -81.5t-34.5 -97t-11 -104.5zM1188 532q0 -243 -154.5 -403t-402.5 -160
t-402.5 160t-154.5 403t154.5 403.5t402.5 160.5t402.5 -160.5t154.5 -403.5zM631 1321l-82 -133h-307l245 246h287l246 -246h-307z" />
    <glyph glyph-name="otilde" unicode="&#xf5;" horiz-adv-x="1261" 
d="M328 532q0 -54 11 -104.5t34.5 -97t58.5 -81t86 -55t113 -20.5t113 20.5t86 55t58.5 81t34.5 97t11 104.5t-11 104.5t-34.5 97t-58.5 81.5t-86 55.5t-113 20.5t-113 -20.5t-86 -55.5t-58.5 -81.5t-34.5 -97t-11 -104.5zM1188 532q0 -243 -154.5 -403t-402.5 -160
t-402.5 160t-154.5 403t154.5 403.5t402.5 160.5t402.5 -160.5t154.5 -403.5zM242 1198q0 122 67.5 194t177.5 72q48 0 98 -19t83 -42.5t68.5 -42.5t58.5 -19q61 0 61 82h164q0 -122 -68 -194t-178 -72q-48 0 -97.5 19t-82.5 42.5t-68.5 42.5t-58.5 19q-61 0 -61 -82h-164z
" />
    <glyph glyph-name="odieresis" unicode="&#xf6;" horiz-adv-x="1261" 
d="M328 532q0 -54 11 -104.5t34.5 -97t58.5 -81t86 -55t113 -20.5t113 20.5t86 55t58.5 81t34.5 97t11 104.5t-11 104.5t-34.5 97t-58.5 81.5t-86 55.5t-113 20.5t-113 -20.5t-86 -55.5t-58.5 -81.5t-34.5 -97t-11 -104.5zM1188 532q0 -243 -154.5 -403t-402.5 -160
t-402.5 160t-154.5 403t154.5 403.5t402.5 160.5t402.5 -160.5t154.5 -403.5zM279 1434h253v-226h-253v226zM729 1434h254v-226h-254v226z" />
    <glyph glyph-name="divide" unicode="&#xf7;" horiz-adv-x="1183" 
d="M80 819h1024v-205h-1024v205zM438 1249h307v-286h-307v286zM438 471h307v-287h-307v287z" />
    <glyph glyph-name="oslash" unicode="&#xf8;" horiz-adv-x="1265" 
d="M1190 532q0 -243 -154.5 -403t-402.5 -160q-174 0 -303 82l-70 -82h-201l152 181q-135 150 -135 382q0 243 154.5 403.5t402.5 160.5q174 0 305 -82l68 82h200l-151 -181q135 -153 135 -383zM330 532q0 -114 41 -192l424 506q-65 45 -162 45q-62 0 -113 -20.5t-86 -55.5
t-58.5 -81.5t-34.5 -97t-11 -104.5zM936 532q0 115 -41 193l-424 -506q65 -45 162 -45q62 0 113 20.5t86 55t58.5 81t34.5 97t11 104.5z" />
    <glyph glyph-name="ugrave" unicode="&#xf9;" horiz-adv-x="1255" 
d="M864 123q-93 -154 -323 -154q-194 0 -304 111.5t-110 318.5v666h254v-645q0 -119 53 -177.5t168 -58.5q120 0 191 76.5t71 220.5v584h254v-1065h-254v123zM827 1188h-245l-246 246h328z" />
    <glyph glyph-name="uacute" unicode="&#xfa;" horiz-adv-x="1255" 
d="M864 123q-93 -154 -323 -154q-194 0 -304 111.5t-110 318.5v666h254v-645q0 -119 53 -177.5t168 -58.5q120 0 191 76.5t71 220.5v584h254v-1065h-254v123zM582 1434h327l-245 -246h-246z" />
    <glyph glyph-name="ucircumflex" unicode="&#xfb;" horiz-adv-x="1255" 
d="M864 123q-93 -154 -323 -154q-194 0 -304 111.5t-110 318.5v666h254v-645q0 -119 53 -177.5t168 -58.5q120 0 191 76.5t71 220.5v584h254v-1065h-254v123zM623 1321l-82 -133h-308l246 246h287l246 -246h-307z" />
    <glyph glyph-name="udieresis" unicode="&#xfc;" horiz-adv-x="1255" 
d="M864 123q-93 -154 -323 -154q-194 0 -304 111.5t-110 318.5v666h254v-645q0 -119 53 -177.5t168 -58.5q120 0 191 76.5t71 220.5v584h254v-1065h-254v123zM270 1434h254v-226h-254v226zM721 1434h254v-226h-254v226z" />
    <glyph glyph-name="yacute" unicode="&#xfd;" horiz-adv-x="1085" 
d="M510 1434h328l-246 -246h-246zM424 0l-399 1065h268l149 -410q16 -44 33.5 -101t25 -85t25.5 -100l17 -72h8q53 211 108 358l146 410h262l-430 -1161q-27 -69 -55.5 -114.5t-74.5 -84t-114 -56.5t-162 -18h-143v199h123q85 0 129 29t74 112z" />
    <glyph glyph-name="thorn" unicode="&#xfe;" horiz-adv-x="1296" 
d="M381 532q0 -160 81.5 -259t211.5 -99q137 0 215 94.5t78 263.5q0 170 -78 264.5t-215 94.5q-130 0 -211.5 -99.5t-81.5 -259.5zM391 -369h-254v1803h254v-502q112 164 334 164q116 0 211 -45t156.5 -122.5t95 -179.5t33.5 -217t-33.5 -216.5t-95 -179t-156.5 -122.5
t-211 -45q-222 0 -334 164v-502z" />
    <glyph glyph-name="ydieresis" unicode="&#xff;" horiz-adv-x="1085" 
d="M193 1434h253v-226h-253v226zM643 1434h254v-226h-254v226zM424 0l-399 1065h268l149 -410q16 -44 33.5 -101t25 -85t25.5 -100l17 -72h8q53 211 108 358l146 410h262l-430 -1161q-27 -69 -55.5 -114.5t-74.5 -84t-114 -56.5t-162 -18h-143v199h123q85 0 129 29t74 112z
" />
    <glyph glyph-name="Amacron" unicode="&#x100;" horiz-adv-x="1437" 
d="M1034 317h-631l-124 -317h-277l584 1434h266l584 -1434h-277zM494 543h450l-94 239q-62 156 -127 375h-8q-62 -208 -127 -375zM360 1782h717v-185h-717v185z" />
    <glyph glyph-name="amacron" unicode="&#x101;" horiz-adv-x="1193" 
d="M117 778q25 149 146.5 233.5t328.5 84.5q277 0 395 -142q80 -92 80 -247v-707h-254v123q-111 -154 -354 -154q-171 0 -282 89.5t-111 258.5q0 150 106 235t297 103l344 31v21q0 96 -51 145t-170 49q-188 0 -213 -123h-262zM500 164q136 0 224.5 78t88.5 219v41l-334 -31
q-74 -6 -117 -46t-43 -108q0 -75 49 -114t132 -39zM233 1413h717v-184h-717v184z" />
    <glyph glyph-name="Abreve" unicode="&#x102;" horiz-adv-x="1437" 
d="M1034 317h-631l-124 -317h-277l584 1434h266l584 -1434h-277zM494 543h450l-94 239q-62 156 -127 375h-8q-62 -208 -127 -375zM719 1720q69 0 114.5 33t59.5 90h178q-18 -133 -111 -220t-241 -87q-149 0 -241.5 87t-110.5 220h178q14 -57 59.5 -90t114.5 -33z" />
    <glyph glyph-name="abreve" unicode="&#x103;" horiz-adv-x="1193" 
d="M117 778q25 149 146.5 233.5t328.5 84.5q277 0 395 -142q80 -92 80 -247v-707h-254v123q-111 -154 -354 -154q-171 0 -282 89.5t-111 258.5q0 150 106 235t297 103l344 31v21q0 96 -51 145t-170 49q-188 0 -213 -123h-262zM500 164q136 0 224.5 78t88.5 219v41l-334 -31
q-74 -6 -117 -46t-43 -108q0 -75 49 -114t132 -39zM592 1352q69 0 114.5 33t59.5 90h178q-18 -133 -111 -220.5t-241 -87.5q-149 0 -241.5 87.5t-110.5 220.5h178q14 -57 59.5 -90t114.5 -33z" />
    <glyph glyph-name="Aogonek" unicode="&#x104;" horiz-adv-x="1437" 
d="M1354 -276q53 0 102 14l-67 -176q-63 -13 -117 -13q-109 0 -182.5 63.5t-73.5 162.5q0 80 40.5 139.5t98.5 95.5l-121 307h-631l-124 -317h-277l584 1434h266l584 -1434q-99 -51 -147 -95t-48 -95q0 -86 113 -86zM494 543h450l-94 239q-62 156 -127 375h-8
q-62 -208 -127 -375z" />
    <glyph glyph-name="aogonek" unicode="&#x105;" horiz-adv-x="1193" 
d="M592 901q-188 0 -213 -123h-262q25 149 146.5 233.5t328.5 84.5q277 0 395 -142q80 -92 80 -247v-707q-99 -51 -147 -95t-48 -95q0 -86 113 -86q53 0 102 14l-67 -176q-63 -13 -117 -13q-109 0 -182.5 63.5t-73.5 162.5q0 161 166 235v113q-111 -154 -354 -154
q-171 0 -282 89.5t-111 258.5q0 150 106 235t297 103l344 31v21q0 96 -51 145t-170 49zM500 164q136 0 224.5 78t88.5 219v41l-334 -31q-74 -6 -117 -46t-43 -108q0 -75 49 -114t132 -39z" />
    <glyph glyph-name="Cacute" unicode="&#x106;" horiz-adv-x="1478" 
d="M1427 399q-65 -199 -221.5 -314.5t-402.5 -115.5q-216 0 -380 97t-250.5 266t-86.5 385q0 160 50.5 298t142.5 237t227 155.5t297 56.5q238 0 390.5 -107.5t223.5 -291.5h-293q-91 174 -321 174q-108 0 -195 -42.5t-142 -115t-84.5 -166t-29.5 -198.5t29.5 -198.5
t84.5 -166t142 -115t195 -42.5q132 0 216.5 56.5t119.5 147.5h288zM752 1802h327l-245 -246h-246z" />
    <glyph glyph-name="cacute" unicode="&#x107;" horiz-adv-x="1157" 
d="M1108 307q-49 -159 -171.5 -248.5t-313.5 -89.5q-254 0 -400.5 158.5t-146.5 404.5q0 161 63 287.5t188.5 201.5t295.5 75q184 0 305 -85.5t170 -232.5h-273q-50 117 -202 117q-80 0 -139 -31.5t-91.5 -85.5t-47.5 -115t-15 -131t15 -131t47.5 -114.5t91.5 -85t139 -31.5
q172 0 215 137h270zM575 1434h328l-246 -246h-245z" />
    <glyph glyph-name="Ccircumflex" unicode="&#x108;" horiz-adv-x="1478" 
d="M1427 399q-65 -199 -221.5 -314.5t-402.5 -115.5q-216 0 -380 97t-250.5 266t-86.5 385q0 160 50.5 298t142.5 237t227 155.5t297 56.5q238 0 390.5 -107.5t223.5 -291.5h-293q-91 174 -321 174q-108 0 -195 -42.5t-142 -115t-84.5 -166t-29.5 -198.5t29.5 -198.5
t84.5 -166t142 -115t195 -42.5q132 0 216.5 56.5t119.5 147.5h288zM793 1690l-82 -134h-308l246 246h287l246 -246h-308z" />
    <glyph glyph-name="ccircumflex" unicode="&#x109;" horiz-adv-x="1157" 
d="M1108 307q-49 -159 -171.5 -248.5t-313.5 -89.5q-254 0 -400.5 158.5t-146.5 404.5q0 161 63 287.5t188.5 201.5t295.5 75q184 0 305 -85.5t170 -232.5h-273q-50 117 -202 117q-80 0 -139 -31.5t-91.5 -85.5t-47.5 -115t-15 -131t15 -131t47.5 -114.5t91.5 -85t139 -31.5
q172 0 215 137h270zM616 1321l-81 -133h-308l246 246h287l246 -246h-308z" />
    <glyph glyph-name="Cdotaccent" unicode="&#x10a;" horiz-adv-x="1478" 
d="M1427 399q-65 -199 -221.5 -314.5t-402.5 -115.5q-216 0 -380 97t-250.5 266t-86.5 385q0 160 50.5 298t142.5 237t227 155.5t297 56.5q238 0 390.5 -107.5t223.5 -291.5h-293q-91 174 -321 174q-108 0 -195 -42.5t-142 -115t-84.5 -166t-29.5 -198.5t29.5 -198.5
t84.5 -166t142 -115t195 -42.5q132 0 216.5 56.5t119.5 147.5h288zM666 1802h254v-225h-254v225z" />
    <glyph glyph-name="cdotaccent" unicode="&#x10b;" horiz-adv-x="1157" 
d="M1108 307q-49 -159 -171.5 -248.5t-313.5 -89.5q-254 0 -400.5 158.5t-146.5 404.5q0 161 63 287.5t188.5 201.5t295.5 75q184 0 305 -85.5t170 -232.5h-273q-50 117 -202 117q-80 0 -139 -31.5t-91.5 -85.5t-47.5 -115t-15 -131t15 -131t47.5 -114.5t91.5 -85t139 -31.5
q172 0 215 137h270zM479 1434h254v-226h-254v226z" />
    <glyph glyph-name="Ccaron" unicode="&#x10c;" horiz-adv-x="1478" 
d="M1427 399q-65 -199 -221.5 -314.5t-402.5 -115.5q-216 0 -380 97t-250.5 266t-86.5 385q0 160 50.5 298t142.5 237t227 155.5t297 56.5q238 0 390.5 -107.5t223.5 -291.5h-293q-91 174 -321 174q-108 0 -195 -42.5t-142 -115t-84.5 -166t-29.5 -198.5t29.5 -198.5
t84.5 -166t142 -115t195 -42.5q132 0 216.5 56.5t119.5 147.5h288zM793 1669l81 133h308l-246 -246h-287l-246 246h308z" />
    <glyph glyph-name="ccaron" unicode="&#x10d;" horiz-adv-x="1157" 
d="M1108 307q-49 -159 -171.5 -248.5t-313.5 -89.5q-254 0 -400.5 158.5t-146.5 404.5q0 161 63 287.5t188.5 201.5t295.5 75q184 0 305 -85.5t170 -232.5h-273q-50 117 -202 117q-80 0 -139 -31.5t-91.5 -85.5t-47.5 -115t-15 -131t15 -131t47.5 -114.5t91.5 -85t139 -31.5
q172 0 215 137h270zM616 1300l82 134h308l-246 -246h-287l-246 246h308z" />
    <glyph glyph-name="Dcaron" unicode="&#x10e;" horiz-adv-x="1497" 
d="M1409 717q0 -338 -185.5 -527.5t-510.5 -189.5h-543v1434h543q325 0 510.5 -190.5t185.5 -526.5zM436 225h256q451 0 451 492q0 491 -451 491h-256v-983zM723 1669l82 133h307l-246 -246h-286l-246 246h307z" />
    <glyph glyph-name="dcaron" unicode="&#x10f;" horiz-adv-x="1437" 
d="M915 532q0 161 -81 260t-211 99q-137 0 -215 -94.5t-78 -264.5q0 -169 78 -263.5t215 -94.5q130 0 211 98.5t81 259.5zM905 133q-112 -164 -334 -164q-116 0 -210.5 45t-156 122.5t-95 179t-33.5 216.5q0 155 56.5 281.5t171 204.5t267.5 78q222 0 334 -164v502h254
v-1434h-254v133zM1313 1434h256l-123 -410h-195z" />
    <glyph glyph-name="Dcroat" unicode="&#x110;" horiz-adv-x="1556" 
d="M752 225q450 0 450 492q0 491 -450 491h-256v-379h409v-215h-409v-389h256zM229 0v614h-204v215h204v605h543q325 0 510.5 -190.5t185.5 -526.5q0 -338 -185.5 -527.5t-510.5 -189.5h-543z" />
    <glyph glyph-name="dcroat" unicode="&#x111;" horiz-adv-x="1263" 
d="M840 1065h-437v195h437v174h254v-174h143v-195h-143v-1065h-254v113q-40 -64 -119 -104t-184 -40q-93 0 -170.5 28.5t-131 76.5t-91 112t-55 133.5t-17.5 141.5t18.5 142t57.5 133t93 111t130.5 76.5t165.5 28.5q105 0 184 -39.5t119 -103.5v256zM850 461q0 75 -26 138
t-87 106t-149 43q-125 0 -193.5 -82.5t-68.5 -204.5t68.5 -204.5t193.5 -82.5q88 0 149 43t87 106t26 138z" />
    <glyph glyph-name="Emacron" unicode="&#x112;" horiz-adv-x="1325" 
d="M170 1434h1044v-226h-778v-358h738v-225h-738v-400h778v-225h-1044v1434zM334 1782h717v-185h-717v185z" />
    <glyph glyph-name="emacron" unicode="&#x113;" horiz-adv-x="1230" 
d="M1139 307q-47 -149 -179 -243.5t-331 -94.5q-165 0 -292 74.5t-194 202t-67 286.5t67.5 287t193 202.5t286.5 74.5q197 0 322.5 -95t178.5 -262q35 -112 35 -258v-41h-819q5 -109 83 -192.5t206 -83.5q95 0 154 42.5t81 100.5h275zM623 901q-118 0 -194 -77t-89 -189h555
q-5 112 -77.5 189t-194.5 77zM264 1413h717v-184h-717v184z" />
    <glyph glyph-name="Ebreve" unicode="&#x114;" horiz-adv-x="1325" 
d="M170 1434h1044v-226h-778v-358h738v-225h-738v-400h778v-225h-1044v1434zM692 1720q69 0 114.5 33t59.5 90h178q-18 -133 -111 -220t-241 -87q-149 0 -241.5 87t-110.5 220h178q14 -57 59.5 -90t114.5 -33z" />
    <glyph glyph-name="ebreve" unicode="&#x115;" horiz-adv-x="1230" 
d="M1139 307q-47 -149 -179 -243.5t-331 -94.5q-165 0 -292 74.5t-194 202t-67 286.5t67.5 287t193 202.5t286.5 74.5q197 0 322.5 -95t178.5 -262q35 -112 35 -258v-41h-819q5 -109 83 -192.5t206 -83.5q95 0 154 42.5t81 100.5h275zM623 901q-118 0 -194 -77t-89 -189h555
q-5 112 -77.5 189t-194.5 77zM623 1352q69 0 114.5 33t59.5 90h178q-18 -133 -111 -220.5t-241 -87.5q-149 0 -242 87.5t-111 220.5h179q14 -57 59.5 -90t114.5 -33z" />
    <glyph glyph-name="Edotaccent" unicode="&#x116;" horiz-adv-x="1325" 
d="M170 1434h1044v-226h-778v-358h738v-225h-738v-400h778v-225h-1044v1434zM565 1802h254v-225h-254v225z" />
    <glyph glyph-name="edotaccent" unicode="&#x117;" horiz-adv-x="1230" 
d="M1139 307q-47 -149 -179 -243.5t-331 -94.5q-165 0 -292 74.5t-194 202t-67 286.5t67.5 287t193 202.5t286.5 74.5q197 0 322.5 -95t178.5 -262q35 -112 35 -258v-41h-819q5 -109 83 -192.5t206 -83.5q95 0 154 42.5t81 100.5h275zM623 901q-118 0 -194 -77t-89 -189h555
q-5 112 -77.5 189t-194.5 77zM496 1434h254v-226h-254v226z" />
    <glyph glyph-name="Eogonek" unicode="&#x118;" horiz-adv-x="1325" 
d="M170 1434h1044v-226h-778v-358h738v-225h-738v-400h778v-225q-99 -51 -146.5 -95t-47.5 -95q0 -86 113 -86q53 0 102 14l-68 -176q-63 -13 -116 -13q-109 0 -182.5 63.5t-73.5 162.5q0 141 135 225h-760v1434z" />
    <glyph glyph-name="eogonek" unicode="&#x119;" horiz-adv-x="1230" 
d="M1139 307q-24 -73 -71 -139t-95.5 -112t-93.5 -87.5t-74 -81.5t-29 -77q0 -86 113 -86q53 0 102 14l-67 -176q-63 -13 -117 -13q-109 0 -182.5 63.5t-73.5 162.5q0 115 94 194h-16q-165 0 -292 74.5t-194 202t-67 286.5t67.5 287t193 202.5t286.5 74.5q197 0 322.5 -95
t178.5 -262q35 -112 35 -258v-41h-819q5 -109 83 -192.5t206 -83.5q95 0 154 42.5t81 100.5h275zM623 901q-118 0 -194 -77t-89 -189h555q-5 112 -77.5 189t-194.5 77z" />
    <glyph glyph-name="Ecaron" unicode="&#x11a;" horiz-adv-x="1325" 
d="M170 1434h1044v-226h-778v-358h738v-225h-738v-400h778v-225h-1044v1434zM692 1669l82 133h307l-245 -246h-287l-246 246h307z" />
    <glyph glyph-name="ecaron" unicode="&#x11b;" horiz-adv-x="1230" 
d="M1139 307q-47 -149 -179 -243.5t-331 -94.5q-165 0 -292 74.5t-194 202t-67 286.5t67.5 287t193 202.5t286.5 74.5q197 0 322.5 -95t178.5 -262q35 -112 35 -258v-41h-819q5 -109 83 -192.5t206 -83.5q95 0 154 42.5t81 100.5h275zM623 901q-118 0 -194 -77t-89 -189h555
q-5 112 -77.5 189t-194.5 77zM623 1300l82 134h307l-246 -246h-287l-246 246h308z" />
    <glyph glyph-name="Gcircumflex" unicode="&#x11c;" horiz-adv-x="1548" 
d="M803 1239q-108 0 -195 -42.5t-142 -115t-84.5 -166t-29.5 -198.5t29.5 -198.5t84.5 -166t142 -115t195 -42.5q166 0 269 92t110 266h-379v225h635v-778h-205l-21 143q-137 -174 -419 -174q-211 0 -373 97t-248 266.5t-86 384.5q0 160 50.5 298t142.5 237t227 155.5
t297 56.5q238 0 390.5 -107.5t223.5 -291.5h-293q-91 174 -321 174zM793 1690l-82 -134h-308l246 246h287l246 -246h-308z" />
    <glyph glyph-name="gcircumflex" unicode="&#x11d;" horiz-adv-x="1286" 
d="M905 563q0 147 -81 237.5t-212 90.5q-124 0 -203 -90.5t-79 -237.5t79 -237t203 -90q131 0 212 90t81 237zM571 31q-145 0 -259 71t-175 192t-61 269t61 269t175 192.5t259 71.5q197 0 324 -144v113h254v-942q0 -164 -70.5 -284t-188 -179t-267.5 -59q-194 0 -320 82.5
t-156 234.5h261q24 -67 75 -95t140 -28q131 0 201.5 84t70.5 244v51q-126 -143 -324 -143zM633 1321l-82 -133h-307l245 246h287l246 -246h-307z" />
    <glyph glyph-name="Gbreve" unicode="&#x11e;" horiz-adv-x="1548" 
d="M803 1239q-108 0 -195 -42.5t-142 -115t-84.5 -166t-29.5 -198.5t29.5 -198.5t84.5 -166t142 -115t195 -42.5q166 0 269 92t110 266h-379v225h635v-778h-205l-21 143q-137 -174 -419 -174q-211 0 -373 97t-248 266.5t-86 384.5q0 160 50.5 298t142.5 237t227 155.5
t297 56.5q238 0 390.5 -107.5t223.5 -291.5h-293q-91 174 -321 174zM793 1720q69 0 114.5 33t59.5 90h178q-18 -133 -111 -220t-241 -87q-149 0 -242 87t-111 220h178q14 -57 60 -90t115 -33z" />
    <glyph glyph-name="gbreve" unicode="&#x11f;" horiz-adv-x="1286" 
d="M905 563q0 147 -81 237.5t-212 90.5q-124 0 -203 -90.5t-79 -237.5t79 -237t203 -90q131 0 212 90t81 237zM571 31q-145 0 -259 71t-175 192t-61 269t61 269t175 192.5t259 71.5q197 0 324 -144v113h254v-942q0 -164 -70.5 -284t-188 -179t-267.5 -59q-194 0 -320 82.5
t-156 234.5h261q24 -67 75 -95t140 -28q131 0 201.5 84t70.5 244v51q-126 -143 -324 -143zM633 1352q69 0 114.5 33t59.5 90h178q-18 -133 -111 -220.5t-241 -87.5q-149 0 -241.5 87.5t-110.5 220.5h178q14 -57 59.5 -90t114.5 -33z" />
    <glyph glyph-name="Gdotaccent" unicode="&#x120;" horiz-adv-x="1548" 
d="M803 1239q-108 0 -195 -42.5t-142 -115t-84.5 -166t-29.5 -198.5t29.5 -198.5t84.5 -166t142 -115t195 -42.5q166 0 269 92t110 266h-379v225h635v-778h-205l-21 143q-137 -174 -419 -174q-211 0 -373 97t-248 266.5t-86 384.5q0 160 50.5 298t142.5 237t227 155.5
t297 56.5q238 0 390.5 -107.5t223.5 -291.5h-293q-91 174 -321 174zM666 1802h254v-225h-254v225z" />
    <glyph glyph-name="gdotaccent" unicode="&#x121;" horiz-adv-x="1286" 
d="M905 563q0 147 -81 237.5t-212 90.5q-124 0 -203 -90.5t-79 -237.5t79 -237t203 -90q131 0 212 90t81 237zM571 31q-145 0 -259 71t-175 192t-61 269t61 269t175 192.5t259 71.5q197 0 324 -144v113h254v-942q0 -164 -70.5 -284t-188 -179t-267.5 -59q-194 0 -320 82.5
t-156 234.5h261q24 -67 75 -95t140 -28q131 0 201.5 84t70.5 244v51q-126 -143 -324 -143zM506 1434h254v-226h-254v226z" />
    <glyph glyph-name="uni0122" unicode="&#x122;" horiz-adv-x="1548" 
d="M803 1239q-108 0 -195 -42.5t-142 -115t-84.5 -166t-29.5 -198.5t29.5 -198.5t84.5 -166t142 -115t195 -42.5q166 0 269 92t110 266h-379v225h635v-778h-205l-21 143q-137 -174 -419 -174q-211 0 -373 97t-248 266.5t-86 384.5q0 160 50.5 298t142.5 237t227 155.5
t297 56.5q238 0 390.5 -107.5t223.5 -291.5h-293q-91 174 -321 174zM666 -102h254v-215l-144 -215h-100l92 215h-102v215z" />
    <glyph glyph-name="uni0123" unicode="&#x123;" horiz-adv-x="1286" 
d="M905 563q0 147 -81 237.5t-212 90.5q-124 0 -203 -90.5t-79 -237.5t79 -237t203 -90q131 0 212 90t81 237zM571 31q-145 0 -259 71t-175 192t-61 269t61 269t175 192.5t259 71.5q197 0 324 -144v113h254v-942q0 -164 -70.5 -284t-188 -179t-267.5 -59q-194 0 -320 82.5
t-156 234.5h261q24 -67 75 -95t140 -28q131 0 201.5 84t70.5 244v51q-126 -143 -324 -143zM760 1188h-254v215l143 215h101l-93 -215h103v-215z" />
    <glyph glyph-name="Hcircumflex" unicode="&#x124;" horiz-adv-x="1568" 
d="M1399 0h-266v625h-697v-625h-266v1434h266v-584h697v584h266v-1434zM784 1690l-82 -134h-307l246 246h287l246 -246h-308z" />
    <glyph glyph-name="hcircumflex" unicode="&#x125;" horiz-adv-x="1265" 
d="M391 932q54 79 140 121.5t194 42.5q194 0 304 -111.5t110 -318.5v-666h-254v645q0 119 -53 177.5t-168 58.5q-121 0 -197 -77.5t-76 -219.5v-584h-254v1434h254v-502zM264 1690l-82 -134h-307l246 246h287l245 -246h-307z" />
    <glyph glyph-name="Hbar" unicode="&#x126;" horiz-adv-x="1601" 
d="M43 1249h143v185h267v-185h696v185h266v-185h144v-215h-144v-1034h-266v625h-696v-625h-267v1034h-143v215zM1149 850v184h-696v-184h696z" />
    <glyph glyph-name="hbar" unicode="&#x127;" horiz-adv-x="1282" 
d="M27 1260h143v174h254v-174h436v-195h-436v-277q54 79 140 121.5t194 42.5q194 0 303.5 -111.5t109.5 -318.5v-522h-253v502q0 119 -53.5 177t-168.5 58q-121 0 -196.5 -77.5t-75.5 -219.5v-440h-254v1065h-143v195z" />
    <glyph glyph-name="Itilde" unicode="&#x128;" horiz-adv-x="606" 
d="M170 0v1434h266v-1434h-266zM-86 1567q0 122 68 194t178 72q48 0 97.5 -19t82.5 -42.5t68.5 -42.5t58.5 -19q61 0 61 82h164q0 -122 -68 -194t-178 -72q-62 0 -123 31t-108.5 61.5t-75.5 30.5q-61 0 -61 -82h-164z" />
    <glyph glyph-name="itilde" unicode="&#x129;" horiz-adv-x="528" 
d="M137 1065h254v-1065h-254v1065zM-125 1198q0 122 68 194t178 72q62 0 123 -31t108.5 -61.5t75.5 -30.5q61 0 61 82h164q0 -122 -67.5 -194t-177.5 -72q-48 0 -98 19t-83 42.5t-68.5 42.5t-58.5 19q-61 0 -61 -82h-164z" />
    <glyph glyph-name="Imacron" unicode="&#x12a;" horiz-adv-x="606" 
d="M170 0v1434h266v-1434h-266zM-55 1782h717v-185h-717v185z" />
    <glyph glyph-name="imacron" unicode="&#x12b;" horiz-adv-x="528" 
d="M137 1065h254v-1065h-254v1065zM-94 1413h717v-184h-717v184z" />
    <glyph glyph-name="Ibreve" unicode="&#x12c;" horiz-adv-x="606" 
d="M170 0v1434h266v-1434h-266zM303 1720q69 0 114.5 33t59.5 90h178q-18 -133 -111 -220t-241 -87q-149 0 -241.5 87t-110.5 220h178q14 -57 59.5 -90t114.5 -33z" />
    <glyph glyph-name="ibreve" unicode="&#x12d;" horiz-adv-x="528" 
d="M137 1065h254v-1065h-254v1065zM264 1352q69 0 114.5 33t59.5 90h178q-18 -133 -111 -220.5t-241 -87.5q-149 0 -241.5 87.5t-110.5 220.5h178q14 -57 59.5 -90t114.5 -33z" />
    <glyph glyph-name="Iogonek" unicode="&#x12e;" horiz-adv-x="606" 
d="M354 -276q54 0 103 14l-68 -176q-63 -13 -117 -13q-109 0 -182.5 63.5t-73.5 162.5q0 140 154 235v1424h266v-1434q-99 -51 -146.5 -95t-47.5 -95q0 -86 112 -86z" />
    <glyph glyph-name="iogonek" unicode="&#x12f;" horiz-adv-x="528" 
d="M137 1434h254v-226h-254v226zM137 1065h254v-1065q-99 -51 -146.5 -95t-47.5 -95q0 -86 112 -86q54 0 103 14l-68 -176q-63 -13 -117 -13q-109 0 -182.5 63.5t-73.5 162.5q0 161 166 235v1055z" />
    <glyph glyph-name="Idotaccent" unicode="&#x130;" horiz-adv-x="606" 
d="M170 0v1434h266v-1434h-266zM176 1802h254v-225h-254v225z" />
    <glyph glyph-name="dotlessi" unicode="&#x131;" horiz-adv-x="528" 
d="M137 1065h254v-1065h-254v1065z" />
    <glyph glyph-name="IJ" unicode="&#x132;" horiz-adv-x="1400" 
d="M733 0q126 0 181 64t55 192v1178h266v-1178q0 -240 -132.5 -360.5t-369.5 -120.5h-129v225h129zM170 0v1434h266v-1434h-266z" />
    <glyph glyph-name="ij" unicode="&#x133;" horiz-adv-x="1048" 
d="M137 1065h254v-1065h-254v1065zM137 1434h254v-226h-254v226zM657 1434h254v-226h-254v226zM657 1065h254v-1126q0 -150 -95.5 -229t-260.5 -79h-164v199h154q60 0 86 26.5t26 82.5v1126z" />
    <glyph glyph-name="Jcircumflex" unicode="&#x134;" horiz-adv-x="997" 
d="M707 1690l-82 -134h-308l246 246h287l246 -246h-308zM338 225q126 0 180.5 64t54.5 192v953h267v-953q0 -240 -132.5 -360.5t-369.5 -120.5h-293v225h293z" />
    <glyph glyph-name="jcircumflex" unicode="&#x135;" horiz-adv-x="536" 
d="M272 1321l-82 -133h-307l246 246h287l246 -246h-308zM145 1065h254v-1126q0 -150 -95.5 -229t-260.5 -79h-113v199h103q60 0 86 26.5t26 82.5v1126z" />
    <glyph glyph-name="uni0136" unicode="&#x136;" horiz-adv-x="1390" 
d="M170 0v1434h266v-605l594 605h338l-696 -697l737 -737h-358l-615 635v-635h-266zM565 -102h254v-215l-143 -215h-101l93 215h-103v215z" />
    <glyph glyph-name="uni0137" unicode="&#x137;" horiz-adv-x="1142" 
d="M391 0h-254v1434h254v-791l412 422h325l-512 -512l553 -553h-346l-432 453v-453zM479 -102h254v-215l-143 -215h-101l93 215h-103v215z" />
    <glyph glyph-name="kgreenlandic" unicode="&#x138;" horiz-adv-x="1142" 
d="M391 0h-254v1065h254v-422l412 422h325l-512 -512l553 -553h-346l-432 453v-453z" />
    <glyph glyph-name="Lacute" unicode="&#x139;" horiz-adv-x="1198" 
d="M170 1434h266v-1209h738v-225h-1004v1434zM262 1802h328l-246 -246h-246z" />
    <glyph glyph-name="lacute" unicode="&#x13a;" horiz-adv-x="528" 
d="M137 1434h254v-1434h-254v1434zM244 1802h327l-245 -246h-246z" />
    <glyph glyph-name="uni013B" unicode="&#x13b;" horiz-adv-x="1198" 
d="M170 1434h266v-1209h738v-225h-1004v1434zM545 -102h254v-215l-144 -215h-100l92 215h-102v215z" />
    <glyph glyph-name="uni013C" unicode="&#x13c;" horiz-adv-x="528" 
d="M137 1434h254v-1434h-254v1434zM137 -102h254v-215l-143 -215h-101l93 215h-103v215z" />
    <glyph glyph-name="Lcaron" unicode="&#x13d;" horiz-adv-x="1198" 
d="M170 1434h266v-1209h738v-225h-1004v1434zM682 1434h256l-123 -410h-194z" />
    <glyph glyph-name="lcaron" unicode="&#x13e;" horiz-adv-x="649" 
d="M137 1434h254v-1434h-254v1434zM522 1434h256l-123 -410h-194z" />
    <glyph glyph-name="Ldot" unicode="&#x13f;" horiz-adv-x="1200" 
d="M170 1434h266v-1209h738v-225h-1004v1434zM780 852h254v-225h-254v225z" />
    <glyph glyph-name="ldot" unicode="&#x140;" horiz-adv-x="765" 
d="M137 1434h254v-1434h-254v1434zM518 831h254v-225h-254v225z" />
    <glyph glyph-name="Lslash" unicode="&#x141;" horiz-adv-x="1304" 
d="M72 543l204 135v756h267v-578l358 240v-256l-358 -240v-375h737v-225h-1004v422l-204 -135v256z" />
    <glyph glyph-name="lslash" unicode="&#x142;" horiz-adv-x="825" 
d="M272 766v668h254v-500l242 162v-267l-242 -161v-668h-254v500l-211 -142v267z" />
    <glyph glyph-name="Nacute" unicode="&#x143;" horiz-adv-x="1589" 
d="M1153 1434h266v-1434h-286l-431 625q-173 244 -272 430h-8q14 -183 14 -451v-604h-266v1434h287l430 -625q194 -283 272 -430h8q-14 183 -14 450v605zM754 1802h327l-245 -246h-246z" />
    <glyph glyph-name="nacute" unicode="&#x144;" horiz-adv-x="1265" 
d="M391 932q54 79 140 121.5t194 42.5q194 0 304 -111.5t110 -318.5v-666h-254v645q0 119 -53 177.5t-168 58.5q-121 0 -197 -77.5t-76 -219.5v-584h-254v1065h254v-133zM592 1434h328l-246 -246h-246z" />
    <glyph glyph-name="uni0145" unicode="&#x145;" horiz-adv-x="1589" 
d="M1153 1434h266v-1434h-286l-431 625q-173 244 -272 430h-8q14 -183 14 -451v-604h-266v1434h287l430 -625q194 -283 272 -430h8q-14 183 -14 450v605zM668 -102h254v-215l-144 -215h-100l92 215h-102v215z" />
    <glyph glyph-name="uni0146" unicode="&#x146;" horiz-adv-x="1265" 
d="M391 932q54 79 140 121.5t194 42.5q194 0 304 -111.5t110 -318.5v-666h-254v645q0 119 -53 177.5t-168 58.5q-121 0 -197 -77.5t-76 -219.5v-584h-254v1065h254v-133zM514 -102h254v-215l-143 -215h-101l92 215h-102v215z" />
    <glyph glyph-name="Ncaron" unicode="&#x147;" horiz-adv-x="1589" 
d="M1153 1434h266v-1434h-286l-431 625q-173 244 -272 430h-8q14 -183 14 -451v-604h-266v1434h287l430 -625q194 -283 272 -430h8q-14 183 -14 450v605zM795 1669l82 133h307l-246 -246h-287l-245 246h307z" />
    <glyph glyph-name="ncaron" unicode="&#x148;" horiz-adv-x="1265" 
d="M391 932q54 79 140 121.5t194 42.5q194 0 304 -111.5t110 -318.5v-666h-254v645q0 119 -53 177.5t-168 58.5q-121 0 -197 -77.5t-76 -219.5v-584h-254v1065h254v-133zM633 1300l82 134h307l-246 -246h-287l-245 246h307z" />
    <glyph glyph-name="napostrophe" unicode="&#x149;" horiz-adv-x="1431" 
d="M557 932q54 79 140 121.5t194 42.5q194 0 304 -111.5t110 -318.5v-666h-254v645q0 119 -53.5 177.5t-168.5 58.5q-121 0 -196.5 -77.5t-75.5 -219.5v-584h-254v1065h254v-133zM49 1434h254v-215l-143 -215h-101l93 215h-103v215z" />
    <glyph glyph-name="Eng" unicode="&#x14a;" horiz-adv-x="1589" 
d="M1153 1434h266v-1444q0 -389 -430 -389h-211v225h211q92 0 128 36t36 128v10l-442 625q-225 318 -285 430h-4q3 -24 5 -49t3.5 -44t2.5 -50t2 -46.5t1 -57v-57v-71v-76.5v-604h-266v1434h287l438 -625q209 -303 266 -410h4q-12 148 -12 430v605z" />
    <glyph glyph-name="eng" unicode="&#x14b;" horiz-adv-x="1265" 
d="M885 645q0 119 -53 177.5t-168 58.5q-121 0 -197 -77.5t-76 -219.5v-584h-254v1065h254v-133q54 79 140 121.5t194 42.5q194 0 304 -111.5t110 -318.5v-727q0 -150 -96 -229t-261 -79h-112v199h102q60 0 86.5 27t26.5 82v706z" />
    <glyph glyph-name="Omacron" unicode="&#x14c;" horiz-adv-x="1601" 
d="M350 717q0 -83 19 -160t57.5 -143t91.5 -115t126 -76.5t157 -27.5q139 0 243 73.5t155.5 191t51.5 257.5t-51.5 257.5t-155.5 191t-243 73.5q-84 0 -157 -27.5t-126 -76.5t-91.5 -115t-57.5 -143t-19 -160zM1518 717q0 -215 -88.5 -385t-252.5 -266.5t-376 -96.5
t-376 96.5t-252.5 266.5t-88.5 385q0 214 88.5 383.5t252.5 266.5t376 97t376 -97t252.5 -266.5t88.5 -383.5zM442 1782h717v-185h-717v185z" />
    <glyph glyph-name="omacron" unicode="&#x14d;" horiz-adv-x="1261" 
d="M328 532q0 -54 11 -104.5t34.5 -97t58.5 -81t86 -55t113 -20.5t113 20.5t86 55t58.5 81t34.5 97t11 104.5t-11 104.5t-34.5 97t-58.5 81.5t-86 55.5t-113 20.5t-113 -20.5t-86 -55.5t-58.5 -81.5t-34.5 -97t-11 -104.5zM1188 532q0 -243 -154.5 -403t-402.5 -160
t-402.5 160t-154.5 403t154.5 403.5t402.5 160.5t402.5 -160.5t154.5 -403.5zM272 1413h717v-184h-717v184z" />
    <glyph glyph-name="Obreve" unicode="&#x14e;" horiz-adv-x="1601" 
d="M350 717q0 -83 19 -160t57.5 -143t91.5 -115t126 -76.5t157 -27.5q139 0 243 73.5t155.5 191t51.5 257.5t-51.5 257.5t-155.5 191t-243 73.5q-84 0 -157 -27.5t-126 -76.5t-91.5 -115t-57.5 -143t-19 -160zM1518 717q0 -215 -88.5 -385t-252.5 -266.5t-376 -96.5
t-376 96.5t-252.5 266.5t-88.5 385q0 214 88.5 383.5t252.5 266.5t376 97t376 -97t252.5 -266.5t88.5 -383.5zM801 1720q69 0 114.5 33t59.5 90h178q-18 -133 -111 -220t-241 -87q-149 0 -241.5 87t-110.5 220h178q14 -57 59.5 -90t114.5 -33z" />
    <glyph glyph-name="obreve" unicode="&#x14f;" horiz-adv-x="1261" 
d="M328 532q0 -54 11 -104.5t34.5 -97t58.5 -81t86 -55t113 -20.5t113 20.5t86 55t58.5 81t34.5 97t11 104.5t-11 104.5t-34.5 97t-58.5 81.5t-86 55.5t-113 20.5t-113 -20.5t-86 -55.5t-58.5 -81.5t-34.5 -97t-11 -104.5zM1188 532q0 -243 -154.5 -403t-402.5 -160
t-402.5 160t-154.5 403t154.5 403.5t402.5 160.5t402.5 -160.5t154.5 -403.5zM631 1352q69 0 114.5 33t59.5 90h178q-18 -133 -111 -220.5t-241 -87.5q-149 0 -241.5 87.5t-110.5 220.5h178q14 -57 59.5 -90t114.5 -33z" />
    <glyph glyph-name="Ohungarumlaut" unicode="&#x150;" horiz-adv-x="1601" 
d="M350 717q0 -83 19 -160t57.5 -143t91.5 -115t126 -76.5t157 -27.5q139 0 243 73.5t155.5 191t51.5 257.5t-51.5 257.5t-155.5 191t-243 73.5q-84 0 -157 -27.5t-126 -76.5t-91.5 -115t-57.5 -143t-19 -160zM1518 717q0 -215 -88.5 -385t-252.5 -266.5t-376 -96.5
t-376 96.5t-252.5 266.5t-88.5 385q0 214 88.5 383.5t252.5 266.5t376 97t376 -97t252.5 -266.5t88.5 -383.5zM586 1802h276l-184 -246h-225zM954 1802h277l-184 -246h-226z" />
    <glyph glyph-name="ohungarumlaut" unicode="&#x151;" horiz-adv-x="1261" 
d="M328 532q0 -54 11 -104.5t34.5 -97t58.5 -81t86 -55t113 -20.5t113 20.5t86 55t58.5 81t34.5 97t11 104.5t-11 104.5t-34.5 97t-58.5 81.5t-86 55.5t-113 20.5t-113 -20.5t-86 -55.5t-58.5 -81.5t-34.5 -97t-11 -104.5zM1188 532q0 -243 -154.5 -403t-402.5 -160
t-402.5 160t-154.5 403t154.5 403.5t402.5 160.5t402.5 -160.5t154.5 -403.5zM416 1434h276l-184 -246h-225zM784 1434h277l-184 -246h-226z" />
    <glyph glyph-name="OE" unicode="&#x152;" horiz-adv-x="2316" 
d="M1202 123q-175 -154 -430 -154q-206 0 -363 97t-240 266t-83 385q0 215 83 384t240 266t363 97q256 0 430 -153v123h1004v-226h-738v-358h697v-225h-697v-400h738v-225h-1004v123zM352 717q0 -105 27.5 -198t79.5 -166t135.5 -115.5t187.5 -42.5t187.5 42.5t135.5 115.5
t79.5 166t27.5 198t-27.5 198t-79.5 166t-135.5 115.5t-187.5 42.5t-187.5 -42.5t-135.5 -115.5t-79.5 -166t-27.5 -198z" />
    <glyph glyph-name="oe" unicode="&#x153;" horiz-adv-x="2088" 
d="M1997 307q-47 -149 -179 -243.5t-331 -94.5q-276 0 -428 195q-152 -195 -428 -195q-248 0 -402.5 160t-154.5 403t154.5 403.5t402.5 160.5q278 0 430 -195q152 195 420 195q197 0 322.5 -95t178.5 -262q35 -112 35 -258v-41h-819q5 -109 83 -192.5t206 -83.5
q95 0 154 42.5t81 100.5h275zM328 532q0 -54 11 -104.5t34.5 -97t58.5 -81t86 -55t113 -20.5t113 20.5t86 55t58.5 81t34.5 97t11 104.5t-11 104.5t-34.5 97t-58.5 81.5t-86 55.5t-113 20.5t-113 -20.5t-86 -55.5t-58.5 -81.5t-34.5 -97t-11 -104.5zM1481 901
q-118 0 -194 -77t-89 -189h555q-5 112 -77.5 189t-194.5 77z" />
    <glyph glyph-name="Racute" unicode="&#x154;" horiz-adv-x="1462" 
d="M436 0h-266v1434h737q213 0 342 -118.5t129 -311.5t-129 -312t-342 -119h-61l573 -573h-358l-563 573h-62v-573zM907 799q92 0 148.5 56.5t56.5 148.5t-56.5 148t-148.5 56h-471v-409h471zM692 1802h328l-246 -246h-246z" />
    <glyph glyph-name="racute" unicode="&#x155;" horiz-adv-x="784" 
d="M627 860q-236 0 -236 -256v-604h-254v1065h254v-123q40 72 109 107.5t188 35.5h64v-225h-125zM371 1434h327l-245 -246h-246z" />
    <glyph glyph-name="uni0156" unicode="&#x156;" horiz-adv-x="1462" 
d="M436 0h-266v1434h737q213 0 342 -118.5t129 -311.5t-129 -312t-342 -119h-61l573 -573h-358l-563 573h-62v-573zM907 799q92 0 148.5 56.5t56.5 148.5t-56.5 148t-148.5 56h-471v-409h471zM627 -102h254v-215l-144 -215h-100l92 215h-102v215z" />
    <glyph glyph-name="uni0157" unicode="&#x157;" horiz-adv-x="784" 
d="M627 860q-236 0 -236 -256v-604h-254v1065h254v-123q40 72 109 107.5t188 35.5h64v-225h-125zM137 -102h254v-215l-143 -215h-101l93 215h-103v215z" />
    <glyph glyph-name="Rcaron" unicode="&#x158;" horiz-adv-x="1462" 
d="M436 0h-266v1434h737q213 0 342 -118.5t129 -311.5t-129 -312t-342 -119h-61l573 -573h-358l-563 573h-62v-573zM907 799q92 0 148.5 56.5t56.5 148.5t-56.5 148t-148.5 56h-471v-409h471zM723 1669l82 133h307l-246 -246h-286l-246 246h307z" />
    <glyph glyph-name="rcaron" unicode="&#x159;" horiz-adv-x="784" 
d="M627 860q-236 0 -236 -256v-604h-254v1065h254v-123q40 72 109 107.5t188 35.5h64v-225h-125zM422 1300l82 134h307l-246 -246h-286l-246 246h307z" />
    <glyph glyph-name="Sacute" unicode="&#x15a;" horiz-adv-x="1345" 
d="M342 399q5 -109 89.5 -167t244.5 -58q157 0 245.5 60t88.5 155q0 31 -8 56t-19.5 42.5t-34.5 32t-43 23.5t-55.5 17.5t-61.5 13.5t-71 12l-123 18q-492 71 -492 440q0 185 150 302.5t424 117.5q113 0 206 -23.5t156 -62.5t107.5 -91.5t66.5 -107.5t27 -114h-270
q-5 87 -76.5 141t-216.5 54q-71 0 -127 -11.5t-91.5 -30.5t-58.5 -45t-32 -52.5t-9 -55.5q0 -50 19.5 -86t60.5 -59t89 -37t118 -25l123 -18q93 -14 163 -32.5t137 -51t109 -77.5t67.5 -113t25.5 -156q0 -196 -158.5 -318.5t-435.5 -122.5q-278 0 -437 119.5t-167 310.5h270
zM633 1802h328l-246 -246h-246z" />
    <glyph glyph-name="sacute" unicode="&#x15b;" horiz-adv-x="1089" 
d="M498 420q-88 11 -159 35t-129 65.5t-90 106t-32 147.5q0 148 123.5 235t337.5 87q106 0 192 -27.5t140 -73.5t84 -101.5t34 -115.5h-256q-5 63 -53.5 100t-144.5 37q-104 0 -153.5 -34t-49.5 -84q0 -60 49.5 -91t147.5 -42l71 -9q90 -11 156.5 -30.5t127.5 -57.5
t93.5 -103.5t32.5 -156.5q0 -154 -127.5 -246t-343.5 -92q-219 0 -347 92t-134 246h258q9 -155 223 -155q107 0 162 35.5t55 97.5q0 24 -5.5 42.5t-20.5 31.5t-28 21t-41 14.5t-46 9.5t-56 8zM510 1434h328l-246 -246h-246z" />
    <glyph glyph-name="Scircumflex" unicode="&#x15c;" horiz-adv-x="1345" 
d="M342 399q5 -109 89.5 -167t244.5 -58q157 0 245.5 60t88.5 155q0 31 -8 56t-19.5 42.5t-34.5 32t-43 23.5t-55.5 17.5t-61.5 13.5t-71 12l-123 18q-492 71 -492 440q0 185 150 302.5t424 117.5q113 0 206 -23.5t156 -62.5t107.5 -91.5t66.5 -107.5t27 -114h-270
q-5 87 -76.5 141t-216.5 54q-71 0 -127 -11.5t-91.5 -30.5t-58.5 -45t-32 -52.5t-9 -55.5q0 -50 19.5 -86t60.5 -59t89 -37t118 -25l123 -18q93 -14 163 -32.5t137 -51t109 -77.5t67.5 -113t25.5 -156q0 -196 -158.5 -318.5t-435.5 -122.5q-278 0 -437 119.5t-167 310.5h270
zM674 1690l-82 -134h-307l245 246h287l246 -246h-307z" />
    <glyph glyph-name="scircumflex" unicode="&#x15d;" horiz-adv-x="1089" 
d="M498 420q-88 11 -159 35t-129 65.5t-90 106t-32 147.5q0 148 123.5 235t337.5 87q106 0 192 -27.5t140 -73.5t84 -101.5t34 -115.5h-256q-5 63 -53.5 100t-144.5 37q-104 0 -153.5 -34t-49.5 -84q0 -60 49.5 -91t147.5 -42l71 -9q90 -11 156.5 -30.5t127.5 -57.5
t93.5 -103.5t32.5 -156.5q0 -154 -127.5 -246t-343.5 -92q-219 0 -347 92t-134 246h258q9 -155 223 -155q107 0 162 35.5t55 97.5q0 24 -5.5 42.5t-20.5 31.5t-28 21t-41 14.5t-46 9.5t-56 8zM551 1321l-82 -133h-307l246 246h286l246 -246h-307z" />
    <glyph glyph-name="Scedilla" unicode="&#x15e;" horiz-adv-x="1345" 
d="M342 399q5 -109 89.5 -167t244.5 -58q157 0 245.5 60t88.5 155q0 31 -8 56t-19.5 42.5t-34.5 32t-43 23.5t-55.5 17.5t-61.5 13.5t-71 12l-123 18q-492 71 -492 440q0 185 150 302.5t424 117.5q113 0 206 -23.5t156 -62.5t107.5 -91.5t66.5 -107.5t27 -114h-270
q-5 87 -76.5 141t-216.5 54q-71 0 -127 -11.5t-91.5 -30.5t-58.5 -45t-32 -52.5t-9 -55.5q0 -50 19.5 -86t60.5 -59t89 -37t118 -25l123 -18q93 -14 163 -32.5t137 -51t109 -77.5t67.5 -113t25.5 -156q0 -174 -123.5 -290t-349.5 -145l-68 -67q69 -4 110.5 -49.5
t41.5 -114.5q0 -80 -63 -137.5t-152 -57.5q-83 0 -142 46.5t-73 117.5h147q15 -41 68 -41q31 0 51 21t20 51t-20 51t-51 21q-29 0 -52 -23l-94 94l84 84q-245 17 -386 134.5t-146 293.5h270z" />
    <glyph glyph-name="scedilla" unicode="&#x15f;" horiz-adv-x="1089" 
d="M498 420q-88 11 -159 35t-129 65.5t-90 106t-32 147.5q0 148 123.5 235t337.5 87q106 0 192 -27.5t140 -73.5t84 -101.5t34 -115.5h-256q-5 63 -53.5 100t-144.5 37q-104 0 -153.5 -34t-49.5 -84q0 -60 49.5 -91t147.5 -42l71 -9q90 -11 156.5 -30.5t127.5 -57.5
t93.5 -103.5t32.5 -156.5q0 -130 -91 -216t-253 -111l-72 -72q69 -4 110.5 -49.5t41.5 -114.5q0 -80 -63 -137.5t-152 -57.5q-83 0 -142 46.5t-73 117.5h147q15 -41 68 -41q31 0 51 21t20 51t-20 51t-51 21q-29 0 -52 -23l-94 94l84 84q-189 17 -297.5 106.5t-113.5 229.5
h258q9 -155 223 -155q107 0 162 35.5t55 97.5q0 24 -5.5 42.5t-20.5 31.5t-28 21t-41 14.5t-46 9.5t-56 8z" />
    <glyph glyph-name="Scaron" unicode="&#x160;" horiz-adv-x="1345" 
d="M342 399q5 -109 89.5 -167t244.5 -58q157 0 245.5 60t88.5 155q0 31 -8 56t-19.5 42.5t-34.5 32t-43 23.5t-55.5 17.5t-61.5 13.5t-71 12l-123 18q-492 71 -492 440q0 185 150 302.5t424 117.5q113 0 206 -23.5t156 -62.5t107.5 -91.5t66.5 -107.5t27 -114h-270
q-5 87 -76.5 141t-216.5 54q-71 0 -127 -11.5t-91.5 -30.5t-58.5 -45t-32 -52.5t-9 -55.5q0 -50 19.5 -86t60.5 -59t89 -37t118 -25l123 -18q93 -14 163 -32.5t137 -51t109 -77.5t67.5 -113t25.5 -156q0 -196 -158.5 -318.5t-435.5 -122.5q-278 0 -437 119.5t-167 310.5h270
zM674 1669l82 133h307l-246 -246h-287l-245 246h307z" />
    <glyph glyph-name="scaron" unicode="&#x161;" horiz-adv-x="1089" 
d="M498 420q-88 11 -159 35t-129 65.5t-90 106t-32 147.5q0 148 123.5 235t337.5 87q106 0 192 -27.5t140 -73.5t84 -101.5t34 -115.5h-256q-5 63 -53.5 100t-144.5 37q-104 0 -153.5 -34t-49.5 -84q0 -60 49.5 -91t147.5 -42l71 -9q90 -11 156.5 -30.5t127.5 -57.5
t93.5 -103.5t32.5 -156.5q0 -154 -127.5 -246t-343.5 -92q-219 0 -347 92t-134 246h258q9 -155 223 -155q107 0 162 35.5t55 97.5q0 24 -5.5 42.5t-20.5 31.5t-28 21t-41 14.5t-46 9.5t-56 8zM551 1300l82 134h307l-246 -246h-286l-246 246h307z" />
    <glyph glyph-name="uni0162" unicode="&#x162;" horiz-adv-x="1257" 
d="M539 -287q15 -41 67 -41q32 0 52 21t20 51t-20 51t-52 21q-28 0 -51 -23l-94 94l112 113h-77v1208h-471v226h1208v-226h-471v-1208l-92 -92q69 -4 110 -49.5t41 -114.5q0 -80 -63 -137.5t-152 -57.5q-83 0 -142 46.5t-73 117.5h148z" />
    <glyph glyph-name="uni0163" unicode="&#x163;" horiz-adv-x="876" 
d="M412 -287q15 -41 67 -41q32 0 52 21t20 51t-20 51t-52 21q-28 0 -51 -23l-94 94l123 123q-93 23 -134.5 90t-41.5 187v573h-256v205h256v246h254v-246h286v-205h-286v-573q0 -48 17.5 -68t63.5 -20h205v-199h-186l-92 -92q69 -4 110 -49.5t41 -114.5q0 -80 -63 -137.5
t-152 -57.5q-83 0 -142 46.5t-73 117.5h148z" />
    <glyph glyph-name="Tcaron" unicode="&#x164;" horiz-adv-x="1257" 
d="M1233 1208h-471v-1208h-266v1208h-471v226h1208v-226zM629 1669l82 133h307l-246 -246h-287l-245 246h307z" />
    <glyph glyph-name="tcaron" unicode="&#x165;" horiz-adv-x="876" 
d="M684 1597h256l-123 -409h-194zM281 860h-256v205h256v246h254v-246h286v-205h-286v-573q0 -48 17.5 -68t63.5 -20h205v-199h-266q-146 0 -210 68.5t-64 218.5v573z" />
    <glyph glyph-name="Tbar" unicode="&#x166;" horiz-adv-x="1290" 
d="M205 850h307v358h-471v226h1208v-226h-471v-358h307v-215h-307v-635h-266v635h-307v215z" />
    <glyph glyph-name="tbar" unicode="&#x167;" horiz-adv-x="876" 
d="M281 707v153h-256v205h256v246h254v-246h286v-205h-286v-153h221v-185h-221v-235q0 -48 17.5 -68t63.5 -20h205v-199h-266q-146 0 -210 68.5t-64 218.5v235h-191v185h191z" />
    <glyph glyph-name="Utilde" unicode="&#x168;" horiz-adv-x="1499" 
d="M750 -31q-135 0 -248 43.5t-188 118t-116.5 175.5t-41.5 216v912h266v-912q0 -152 89.5 -239.5t238.5 -87.5t238 87.5t89 239.5v912h266v-912q0 -115 -41.5 -216t-116.5 -176t-187.5 -118t-247.5 -43zM360 1567q0 122 68 194t178 72q48 0 97.5 -19t82.5 -42.5t68.5 -42.5
t58.5 -19q62 0 62 82h164q0 -122 -68 -194t-178 -72q-62 0 -123 31t-108.5 61.5t-75.5 30.5q-62 0 -62 -82h-164z" />
    <glyph glyph-name="utilde" unicode="&#x169;" horiz-adv-x="1255" 
d="M864 123q-93 -154 -323 -154q-194 0 -304 111.5t-110 318.5v666h254v-645q0 -119 53 -177.5t168 -58.5q120 0 191 76.5t71 220.5v584h254v-1065h-254v123zM231 1198q0 122 68 194t178 72q62 0 123 -31t108.5 -61.5t75.5 -30.5q62 0 62 82h164q0 -122 -68 -194t-178 -72
q-48 0 -97.5 19t-82.5 42.5t-68.5 42.5t-58.5 19q-62 0 -62 -82h-164z" />
    <glyph glyph-name="Umacron" unicode="&#x16a;" horiz-adv-x="1499" 
d="M750 -31q-135 0 -248 43.5t-188 118t-116.5 175.5t-41.5 216v912h266v-912q0 -152 89.5 -239.5t238.5 -87.5t238 87.5t89 239.5v912h266v-912q0 -115 -41.5 -216t-116.5 -176t-187.5 -118t-247.5 -43zM391 1782h717v-185h-717v185z" />
    <glyph glyph-name="umacron" unicode="&#x16b;" horiz-adv-x="1255" 
d="M864 123q-93 -154 -323 -154q-194 0 -304 111.5t-110 318.5v666h254v-645q0 -119 53 -177.5t168 -58.5q120 0 191 76.5t71 220.5v584h254v-1065h-254v123zM264 1413h717v-184h-717v184z" />
    <glyph glyph-name="Ubreve" unicode="&#x16c;" horiz-adv-x="1499" 
d="M750 -31q-135 0 -248 43.5t-188 118t-116.5 175.5t-41.5 216v912h266v-912q0 -152 89.5 -239.5t238.5 -87.5t238 87.5t89 239.5v912h266v-912q0 -115 -41.5 -216t-116.5 -176t-187.5 -118t-247.5 -43zM750 1720q69 0 114.5 33t59.5 90h178q-18 -133 -111 -220t-241 -87
q-149 0 -242 87t-111 220h178q14 -57 60 -90t115 -33z" />
    <glyph glyph-name="ubreve" unicode="&#x16d;" horiz-adv-x="1255" 
d="M864 123q-93 -154 -323 -154q-194 0 -304 111.5t-110 318.5v666h254v-645q0 -119 53 -177.5t168 -58.5q120 0 191 76.5t71 220.5v584h254v-1065h-254v123zM623 1352q69 0 114.5 33t59.5 90h178q-18 -133 -111 -220.5t-241 -87.5q-149 0 -242 87.5t-111 220.5h179
q14 -57 59.5 -90t114.5 -33z" />
    <glyph glyph-name="Uring" unicode="&#x16e;" horiz-adv-x="1499" 
d="M750 -31q-135 0 -248 43.5t-188 118t-116.5 175.5t-41.5 216v912h266v-912q0 -152 89.5 -239.5t238.5 -87.5t238 87.5t89 239.5v912h266v-912q0 -115 -41.5 -216t-116.5 -176t-187.5 -118t-247.5 -43zM872 1651q0 54 -34 88.5t-88 34.5t-88.5 -34.5t-34.5 -88.5
t34.5 -88.5t88.5 -34.5t88 34.5t34 88.5zM473 1651q0 109 80 182.5t197 73.5t196.5 -73.5t79.5 -182.5t-79.5 -182.5t-196.5 -73.5t-197 73.5t-80 182.5z" />
    <glyph glyph-name="uring" unicode="&#x16f;" horiz-adv-x="1255" 
d="M864 123q-93 -154 -323 -154q-194 0 -304 111.5t-110 318.5v666h254v-645q0 -119 53 -177.5t168 -58.5q120 0 191 76.5t71 220.5v584h254v-1065h-254v123zM745 1403q0 54 -34 88.5t-88 34.5t-88.5 -34.5t-34.5 -88.5t34.5 -88.5t88.5 -34.5t88 34.5t34 88.5zM346 1403
q0 109 80 182.5t197 73.5t196.5 -73.5t79.5 -182.5t-79.5 -182.5t-196.5 -73.5t-197 73.5t-80 182.5z" />
    <glyph glyph-name="Uhungarumlaut" unicode="&#x170;" horiz-adv-x="1499" 
d="M750 -31q-135 0 -248 43.5t-188 118t-116.5 175.5t-41.5 216v912h266v-912q0 -152 89.5 -239.5t238.5 -87.5t238 87.5t89 239.5v912h266v-912q0 -115 -41.5 -216t-116.5 -176t-187.5 -118t-247.5 -43zM535 1802h276l-184 -246h-226zM903 1802h277l-185 -246h-225z" />
    <glyph glyph-name="uhungarumlaut" unicode="&#x171;" horiz-adv-x="1255" 
d="M864 123q-93 -154 -323 -154q-194 0 -304 111.5t-110 318.5v666h254v-645q0 -119 53 -177.5t168 -58.5q120 0 191 76.5t71 220.5v584h254v-1065h-254v123zM408 1434h276l-184 -246h-226zM776 1434h277l-185 -246h-225z" />
    <glyph glyph-name="Uogonek" unicode="&#x172;" horiz-adv-x="1499" 
d="M799 -29q-18 -2 -49 -2q-135 0 -248 43.5t-188 118t-116.5 175.5t-41.5 216v912h266v-912q0 -152 89.5 -239.5t238.5 -87.5t238 87.5t89 239.5v912h266v-912q0 -92 -23 -172t-60 -137t-81.5 -106t-89.5 -87t-82 -72t-60 -69t-23 -69q0 -86 112 -86q54 0 103 14l-68 -176
q-63 -13 -117 -13q-109 0 -182.5 63.5t-73.5 162.5q0 121 101 196z" />
    <glyph glyph-name="uogonek" unicode="&#x173;" horiz-adv-x="1255" 
d="M864 123q-93 -154 -323 -154q-194 0 -304 111.5t-110 318.5v666h254v-645q0 -119 53 -177.5t168 -58.5q120 0 191 76.5t71 220.5v584h254v-1065q-99 -51 -146.5 -95t-47.5 -95q0 -86 112 -86q54 0 103 14l-68 -176q-63 -13 -117 -13q-109 0 -182.5 63.5t-73.5 162.5
q0 161 166 235v113z" />
    <glyph glyph-name="Wcircumflex" unicode="&#x174;" horiz-adv-x="1970" 
d="M981 1085q-44 -233 -86 -380l-197 -705h-266l-409 1434h266l182 -680q45 -163 90 -406h8q51 249 95 408l188 678h266l189 -678q41 -146 94 -408h8q45 243 90 406l182 680h267l-410 -1434h-266l-197 705q-42 147 -86 380h-8zM985 1690l-82 -134h-307l246 246h286l246 -246
h-307z" />
    <glyph glyph-name="wcircumflex" unicode="&#x175;" horiz-adv-x="1609" 
d="M801 778q-47 -235 -92 -377l-125 -401h-244l-317 1065h260l104 -418q40 -157 74 -381h8q34 199 88 379l125 420h246l125 -420q54 -180 88 -379h8q34 224 74 381l104 418h260l-317 -1065h-244l-125 401q-45 142 -92 377h-8zM805 1321l-82 -133h-307l246 246h286l246 -246
h-307z" />
    <glyph glyph-name="Ycircumflex" unicode="&#x176;" horiz-adv-x="1261" 
d="M498 563l-482 871h287l328 -635l327 635h287l-481 -871v-563h-266v563zM631 1690l-82 -134h-307l245 246h287l246 -246h-307z" />
    <glyph glyph-name="ycircumflex" unicode="&#x177;" horiz-adv-x="1085" 
d="M545 1321l-82 -133h-307l245 246h287l246 -246h-307zM424 0l-399 1065h268l149 -410q16 -44 33.5 -101t25 -85t25.5 -100l17 -72h8q53 211 108 358l146 410h262l-430 -1161q-27 -69 -55.5 -114.5t-74.5 -84t-114 -56.5t-162 -18h-143v199h123q85 0 129 29t74 112z" />
    <glyph glyph-name="Ydieresis" unicode="&#x178;" horiz-adv-x="1261" 
d="M498 563l-482 871h287l328 -635l327 635h287l-481 -871v-563h-266v563zM279 1802h253v-225h-253v225zM729 1802h254v-225h-254v225z" />
    <glyph glyph-name="Zacute" unicode="&#x179;" horiz-adv-x="1269" 
d="M1202 0h-1126v225l768 983h-748v226h1075v-226l-768 -983h799v-225zM598 1802h328l-246 -246h-246z" />
    <glyph glyph-name="zacute" unicode="&#x17a;" horiz-adv-x="1085" 
d="M1016 205v-205h-942v205l596 655h-576v205h901v-205l-596 -655h617zM504 1434h327l-245 -246h-246z" />
    <glyph glyph-name="Zdotaccent" unicode="&#x17b;" horiz-adv-x="1269" 
d="M1202 0h-1126v225l768 983h-748v226h1075v-226l-768 -983h799v-225zM512 1802h254v-225h-254v225z" />
    <glyph glyph-name="zdotaccent" unicode="&#x17c;" horiz-adv-x="1085" 
d="M1016 205v-205h-942v205l596 655h-576v205h901v-205l-596 -655h617zM418 1434h254v-226h-254v226z" />
    <glyph glyph-name="Zcaron" unicode="&#x17d;" horiz-adv-x="1269" 
d="M1202 0h-1126v225l768 983h-748v226h1075v-226l-768 -983h799v-225zM639 1669l82 133h307l-246 -246h-286l-246 246h307z" />
    <glyph glyph-name="zcaron" unicode="&#x17e;" horiz-adv-x="1085" 
d="M1016 205v-205h-942v205l596 655h-576v205h901v-205l-596 -655h617zM545 1300l82 134h307l-246 -246h-287l-245 246h307z" />
    <glyph glyph-name="longs" unicode="&#x17f;" horiz-adv-x="675" 
d="M29 1065h215v82q0 287 311 287h188v-199h-163q-46 0 -64 -20t-18 -68v-1147h-254v860h-215v205z" />
    <glyph glyph-name="uni018F" unicode="&#x18f;" horiz-adv-x="1554" 
d="M117 1065q36 87 90.5 157t131.5 125.5t183.5 86t233.5 30.5q159 0 292.5 -55t225.5 -153t143 -237t51 -302q0 -215 -86 -384.5t-247.5 -266.5t-372.5 -97q-165 0 -296.5 60t-216 167.5t-129 253t-44.5 318.5v51h1120q-14 119 -67 212.5t-149.5 150.5t-223.5 57
q-133 0 -221 -48.5t-121 -125.5h-297zM762 195q177 0 293 113t137 286h-840q26 -179 130 -289t280 -110z" />
    <glyph glyph-name="uni0190" unicode="&#x190;" horiz-adv-x="1359" 
d="M858 631h-184q-320 0 -320 -223q0 -95 84 -159.5t246 -64.5q95 0 162 16t105.5 47.5t58 66.5t30.5 85h269q-7 -68 -32.5 -129t-75 -117t-119.5 -96t-172 -64t-226 -24q-276 0 -436 115.5t-160 316.5q0 111 60.5 199t177.5 145q-187 107 -187 312q0 83 36.5 156t105 129.5
t176 89t241.5 32.5q105 0 194.5 -21.5t154.5 -58.5t113 -87.5t74.5 -109t33.5 -122.5h-269q-9 76 -82 130t-219 54q-292 0 -292 -200q0 -94 72 -148.5t206 -54.5h174v-215z" />
    <glyph glyph-name="florin" unicode="&#x192;" horiz-adv-x="952" 
d="M315 860h-247v205h282l17 92q28 148 114 212.5t232 64.5h194v-195h-184q-47 0 -68 -17.5t-28 -64.5l-17 -92h297v-205h-332l-167 -952q-28 -149 -114.5 -213t-232.5 -64h-147v195h137q47 0 68 17.5t28 64.5z" />
    <glyph glyph-name="uni0194" unicode="&#x194;" horiz-adv-x="1288" 
d="M924 -121q0 -108 -76 -178t-203 -70q-126 0 -202 69.5t-76 176.5q0 74 28 153.5t115 270.5l-506 1133h277l223 -529q92 -208 137 -354h6q50 161 135 354l226 529h276l-506 -1131q90 -197 118 -274.5t28 -149.5zM645 90q-59 -133 -59 -199q0 -36 15 -57.5t44 -21.5
t44.5 21.5t15.5 57.5q0 64 -60 199z" />
    <glyph glyph-name="uni0197" unicode="&#x197;" horiz-adv-x="667" 
d="M27 864h170v570h266v-570h170v-215h-170v-649h-266v649h-170v215z" />
    <glyph glyph-name="uni019D" unicode="&#x19d;" horiz-adv-x="1589" 
d="M422 1055q14 -183 14 -451v-665q0 -150 -95.5 -229t-260.5 -79h-105v205h82q60 0 86.5 27t26.5 82v1489h287l430 -625q194 -283 272 -430h8q-14 183 -14 450v605h266v-1434h-286l-431 625q-173 244 -272 430h-8z" />
    <glyph glyph-name="uni01B5" unicode="&#x1b5;" horiz-adv-x="1290" 
d="M147 840h418l289 368h-748v226h1076v-226l-289 -368h258v-215h-426l-311 -400h798v-225h-1126v225l311 400h-250v215z" />
    <glyph glyph-name="uni01B6" unicode="&#x1b6;" horiz-adv-x="1099" 
d="M1022 205v-205h-942v205l223 246h-172v184h340l205 225h-576v205h901v-205l-204 -225h184v-184h-352l-223 -246h616z" />
    <glyph glyph-name="uni01CD" unicode="&#x1cd;" horiz-adv-x="1437" 
d="M1034 317h-631l-124 -317h-277l584 1434h266l584 -1434h-277zM494 543h450l-94 239q-62 156 -127 375h-8q-62 -208 -127 -375zM719 1669l82 133h307l-246 -246h-287l-245 246h307z" />
    <glyph glyph-name="uni01CE" unicode="&#x1ce;" horiz-adv-x="1193" 
d="M117 778q25 149 146.5 233.5t328.5 84.5q277 0 395 -142q80 -92 80 -247v-707h-254v123q-111 -154 -354 -154q-171 0 -282 89.5t-111 258.5q0 150 106 235t297 103l344 31v21q0 96 -51 145t-170 49q-188 0 -213 -123h-262zM500 164q136 0 224.5 78t88.5 219v41l-334 -31
q-74 -6 -117 -46t-43 -108q0 -75 49 -114t132 -39zM592 1300l82 134h307l-246 -246h-286l-246 246h307z" />
    <glyph glyph-name="uni01CF" unicode="&#x1cf;" horiz-adv-x="606" 
d="M170 0v1434h266v-1434h-266zM303 1669l82 133h307l-246 -246h-286l-246 246h307z" />
    <glyph glyph-name="uni01D0" unicode="&#x1d0;" horiz-adv-x="528" 
d="M137 1065h254v-1065h-254v1065zM264 1300l82 134h307l-245 -246h-287l-246 246h307z" />
    <glyph glyph-name="uni01D1" unicode="&#x1d1;" horiz-adv-x="1601" 
d="M350 717q0 -83 19 -160t57.5 -143t91.5 -115t126 -76.5t157 -27.5q139 0 243 73.5t155.5 191t51.5 257.5t-51.5 257.5t-155.5 191t-243 73.5q-84 0 -157 -27.5t-126 -76.5t-91.5 -115t-57.5 -143t-19 -160zM1518 717q0 -215 -88.5 -385t-252.5 -266.5t-376 -96.5
t-376 96.5t-252.5 266.5t-88.5 385q0 214 88.5 383.5t252.5 266.5t376 97t376 -97t252.5 -266.5t88.5 -383.5zM801 1669l82 133h307l-246 -246h-287l-245 246h307z" />
    <glyph glyph-name="uni01D2" unicode="&#x1d2;" horiz-adv-x="1261" 
d="M328 532q0 -54 11 -104.5t34.5 -97t58.5 -81t86 -55t113 -20.5t113 20.5t86 55t58.5 81t34.5 97t11 104.5t-11 104.5t-34.5 97t-58.5 81.5t-86 55.5t-113 20.5t-113 -20.5t-86 -55.5t-58.5 -81.5t-34.5 -97t-11 -104.5zM1188 532q0 -243 -154.5 -403t-402.5 -160
t-402.5 160t-154.5 403t154.5 403.5t402.5 160.5t402.5 -160.5t154.5 -403.5zM631 1300l82 134h307l-246 -246h-287l-245 246h307z" />
    <glyph glyph-name="uni01D3" unicode="&#x1d3;" horiz-adv-x="1499" 
d="M750 -31q-135 0 -248 43.5t-188 118t-116.5 175.5t-41.5 216v912h266v-912q0 -152 89.5 -239.5t238.5 -87.5t238 87.5t89 239.5v912h266v-912q0 -115 -41.5 -216t-116.5 -176t-187.5 -118t-247.5 -43zM750 1669l81 133h308l-246 -246h-287l-246 246h308z" />
    <glyph glyph-name="uni01D4" unicode="&#x1d4;" horiz-adv-x="1255" 
d="M864 123q-93 -154 -323 -154q-194 0 -304 111.5t-110 318.5v666h254v-645q0 -119 53 -177.5t168 -58.5q120 0 191 76.5t71 220.5v584h254v-1065h-254v123zM614 1300l82 134h308l-246 -246h-287l-246 246h307z" />
    <glyph glyph-name="Gcaron" unicode="&#x1e6;" horiz-adv-x="1548" 
d="M803 1239q-108 0 -195 -42.5t-142 -115t-84.5 -166t-29.5 -198.5t29.5 -198.5t84.5 -166t142 -115t195 -42.5q166 0 269 92t110 266h-379v225h635v-778h-205l-21 143q-137 -174 -419 -174q-211 0 -373 97t-248 266.5t-86 384.5q0 160 50.5 298t142.5 237t227 155.5
t297 56.5q238 0 390.5 -107.5t223.5 -291.5h-293q-91 174 -321 174zM819 1669l82 133h307l-245 -246h-287l-246 246h307z" />
    <glyph glyph-name="gcaron" unicode="&#x1e7;" horiz-adv-x="1286" 
d="M905 563q0 147 -81 237.5t-212 90.5q-124 0 -203 -90.5t-79 -237.5t79 -237t203 -90q131 0 212 90t81 237zM571 31q-145 0 -259 71t-175 192t-61 269t61 269t175 192.5t259 71.5q197 0 324 -144v113h254v-942q0 -164 -70.5 -284t-188 -179t-267.5 -59q-194 0 -320 82.5
t-156 234.5h261q24 -67 75 -95t140 -28q131 0 201.5 84t70.5 244v51q-126 -143 -324 -143zM666 1300l82 134h307l-246 -246h-287l-246 246h308z" />
    <glyph glyph-name="uni01E8" unicode="&#x1e8;" horiz-adv-x="1390" 
d="M170 0v1434h266v-605l594 605h338l-696 -697l737 -737h-358l-615 635v-635h-266zM707 1669l81 133h308l-246 -246h-287l-246 246h308z" />
    <glyph glyph-name="uni01E9" unicode="&#x1e9;" horiz-adv-x="1142" 
d="M391 0h-254v1434h254v-791l412 422h325l-512 -512l553 -553h-346l-432 453v-453zM614 1669l82 133h308l-246 -246h-287l-246 246h307z" />
    <glyph glyph-name="uni01EA" unicode="&#x1ea;" horiz-adv-x="1601" 
d="M965 -276q53 0 102 14l-68 -176q-63 -13 -116 -13q-109 0 -182.5 63.5t-73.5 162.5q0 121 98 198q-287 25 -464 231.5t-177 512.5q0 214 88.5 383.5t252.5 266.5t376 97t376 -97t252.5 -266.5t88.5 -383.5t-87.5 -381.5t-242.5 -261.5q-39 -23 -89.5 -51t-82 -44.5
t-66 -38.5t-54 -40t-32 -41t-12.5 -49q0 -86 113 -86zM350 717q0 -83 19 -160t57.5 -143t91.5 -115t126 -76.5t157 -27.5q139 0 243 73.5t155.5 191t51.5 257.5t-51.5 257.5t-155.5 191t-243 73.5q-84 0 -157 -27.5t-126 -76.5t-91.5 -115t-57.5 -143t-19 -160z" />
    <glyph glyph-name="uni01EB" unicode="&#x1eb;" horiz-adv-x="1261" 
d="M750 -276q53 0 102 14l-68 -176q-63 -13 -116 -13q-109 0 -182.5 63.5t-73.5 162.5q0 125 106 205q-203 37 -323.5 188.5t-120.5 363.5q0 243 154.5 403.5t402.5 160.5t402.5 -160.5t154.5 -403.5q0 -150 -59 -269.5t-164 -192.5q-37 -27 -102.5 -61t-110 -56.5
t-80 -60.5t-35.5 -82q0 -86 113 -86zM328 532q0 -54 11 -104.5t34.5 -97t58.5 -81t86 -55t113 -20.5t113 20.5t86 55t58.5 81t34.5 97t11 104.5t-11 104.5t-34.5 97t-58.5 81.5t-86 55.5t-113 20.5t-113 -20.5t-86 -55.5t-58.5 -81.5t-34.5 -97t-11 -104.5z" />
    <glyph glyph-name="uni01F8" unicode="&#x1f8;" horiz-adv-x="1589" 
d="M1153 1434h266v-1434h-286l-431 625q-173 244 -272 430h-8q14 -183 14 -451v-604h-266v1434h287l430 -625q194 -283 272 -430h8q-14 183 -14 450v605zM999 1556h-245l-246 246h328z" />
    <glyph glyph-name="uni01F9" unicode="&#x1f9;" horiz-adv-x="1265" 
d="M391 932q54 79 140 121.5t194 42.5q194 0 304 -111.5t110 -318.5v-666h-254v645q0 119 -53 177.5t-168 58.5q-121 0 -197 -77.5t-76 -219.5v-584h-254v1065h254v-133zM840 1188h-246l-246 246h328z" />
    <glyph glyph-name="Aringacute" unicode="&#x1fa;" horiz-adv-x="1441" 
d="M444 1352q0 109 80 182.5t197 73.5t196.5 -73.5t79.5 -182.5q0 -86 -49 -150l490 -1202h-277l-125 317h-630l-125 -317h-277l490 1202q-50 65 -50 150zM700 1096q-62 -193 -110 -314l-94 -239h450l-94 239q-46 112 -111 314h-41zM678 1905h328l-246 -246h-246zM844 1352
q0 54 -34.5 88.5t-88.5 34.5t-88.5 -34.5t-34.5 -88.5t34.5 -88.5t88.5 -34.5t88.5 34.5t34.5 88.5z" />
    <glyph glyph-name="aringacute" unicode="&#x1fb;" horiz-adv-x="1193" 
d="M305 1239q0 119 83.5 192.5t203.5 73.5t203.5 -73.5t83.5 -192.5q0 -101 -66 -174q109 -37 174 -111q80 -92 80 -247v-707h-254v123q-111 -154 -354 -154q-171 0 -282 89.5t-111 258.5q0 150 106 235t297 103l344 31v21q0 96 -51 145t-170 49q-188 0 -213 -123h-262
q36 212 254 285q-66 72 -66 176zM500 164q136 0 224.5 78t88.5 219v41l-334 -31q-74 -6 -117 -46t-43 -108q0 -75 49 -114t132 -39zM551 1802h328l-246 -246h-246zM459 1239q0 -56 38 -94.5t95 -38.5t95 38t38 95t-38 95t-95 38t-95 -38t-38 -95z" />
    <glyph glyph-name="AEacute" unicode="&#x1fc;" horiz-adv-x="2185" 
d="M1071 317h-590l-209 -317h-307l963 1434h1147v-226h-738v-358h697v-225h-697v-400h738v-225h-1004v317zM631 543h440v665h-10q-13 -20 -50 -80t-80 -127t-91 -141zM1419 1802h328l-246 -246h-246z" />
    <glyph glyph-name="aeacute" unicode="&#x1fd;" horiz-adv-x="1955" 
d="M500 164q136 0 224.5 78t88.5 219v41l-334 -31q-74 -6 -117 -46t-43 -108q0 -75 49 -114t132 -39zM1348 901q-118 0 -194 -77t-89 -189h555q-5 112 -77.5 189t-194.5 77zM1354 -31q-268 0 -422 185q-167 -185 -463 -185q-177 0 -290 89.5t-113 258.5q0 150 106 235
t297 103l344 31v21q0 96 -51 145t-170 49q-188 0 -213 -123h-262q25 149 146.5 233.5t328.5 84.5q266 0 389 -138q144 138 367 138q197 0 322.5 -95t178.5 -262q35 -112 35 -258v-41h-819q5 -109 83 -192.5t206 -83.5q95 0 154 42.5t81 100.5h275q-47 -149 -179 -243.5
t-331 -94.5zM940 1434h328l-246 -246h-246z" />
    <glyph glyph-name="Oslashacute" unicode="&#x1fe;" horiz-adv-x="1609" 
d="M764 1802h328l-246 -246h-246zM258 211q-170 204 -170 506q0 214 88.5 383.5t252.5 266.5t376 97q228 0 405 -114l97 114h245l-202 -241q172 -199 172 -506q0 -215 -88.5 -385t-252.5 -266.5t-376 -96.5q-230 0 -406 115l-96 -115h-246zM1255 717q0 172 -75 301
l-625 -746q107 -77 250 -77q139 0 243 73.5t155.5 191t51.5 257.5zM354 717q0 -170 74 -303l625 747q-108 78 -248 78q-84 0 -157 -27.5t-126 -76.5t-91.5 -115t-57.5 -143t-19 -160z" />
    <glyph glyph-name="oslashacute" unicode="&#x1ff;" horiz-adv-x="1265" 
d="M1190 532q0 -243 -154.5 -403t-402.5 -160q-174 0 -303 82l-70 -82h-201l152 181q-135 150 -135 382q0 243 154.5 403.5t402.5 160.5q174 0 305 -82l68 82h200l-151 -181q135 -153 135 -383zM330 532q0 -114 41 -192l424 506q-65 45 -162 45q-62 0 -113 -20.5t-86 -55.5
t-58.5 -81.5t-34.5 -97t-11 -104.5zM936 532q0 115 -41 193l-424 -506q65 -45 162 -45q62 0 113 20.5t86 55t58.5 81t34.5 97t11 104.5zM594 1434h328l-246 -246h-246z" />
    <glyph glyph-name="uni0218" unicode="&#x218;" horiz-adv-x="1345" 
d="M342 399q5 -109 89.5 -167t244.5 -58q157 0 245.5 60t88.5 155q0 31 -8 56t-19.5 42.5t-34.5 32t-43 23.5t-55.5 17.5t-61.5 13.5t-71 12l-123 18q-492 71 -492 440q0 185 150 302.5t424 117.5q113 0 206 -23.5t156 -62.5t107.5 -91.5t66.5 -107.5t27 -114h-270
q-5 87 -76.5 141t-216.5 54q-71 0 -127 -11.5t-91.5 -30.5t-58.5 -45t-32 -52.5t-9 -55.5q0 -50 19.5 -86t60.5 -59t89 -37t118 -25l123 -18q93 -14 163 -32.5t137 -51t109 -77.5t67.5 -113t25.5 -156q0 -196 -158.5 -318.5t-435.5 -122.5q-278 0 -437 119.5t-167 310.5h270
zM557 -102h254v-215l-143 -215h-101l92 215h-102v215z" />
    <glyph glyph-name="uni0219" unicode="&#x219;" horiz-adv-x="1089" 
d="M498 420q-88 11 -159 35t-129 65.5t-90 106t-32 147.5q0 148 123.5 235t337.5 87q106 0 192 -27.5t140 -73.5t84 -101.5t34 -115.5h-256q-5 63 -53.5 100t-144.5 37q-104 0 -153.5 -34t-49.5 -84q0 -60 49.5 -91t147.5 -42l71 -9q90 -11 156.5 -30.5t127.5 -57.5
t93.5 -103.5t32.5 -156.5q0 -154 -127.5 -246t-343.5 -92q-219 0 -347 92t-134 246h258q9 -155 223 -155q107 0 162 35.5t55 97.5q0 24 -5.5 42.5t-20.5 31.5t-28 21t-41 14.5t-46 9.5t-56 8zM434 -102h254v-215l-143 -215h-101l93 215h-103v215z" />
    <glyph glyph-name="uni021A" unicode="&#x21a;" horiz-adv-x="1257" 
d="M1233 1208h-471v-1208h-266v1208h-471v226h1208v-226zM502 -102h254v-215l-144 -215h-100l92 215h-102v215z" />
    <glyph glyph-name="uni021B" unicode="&#x21b;" horiz-adv-x="876" 
d="M383 -102h254v-215l-143 -215h-101l92 215h-102v215zM281 860h-256v205h256v246h254v-246h286v-205h-286v-573q0 -48 17.5 -68t63.5 -20h205v-199h-266q-146 0 -210 68.5t-64 218.5v573z" />
    <glyph glyph-name="uni021E" unicode="&#x21e;" horiz-adv-x="1568" 
d="M1399 0h-266v625h-697v-625h-266v1434h266v-584h697v584h266v-1434zM784 1669l82 133h308l-246 -246h-287l-246 246h307z" />
    <glyph glyph-name="uni021F" unicode="&#x21f;" horiz-adv-x="1265" 
d="M391 932q54 79 140 121.5t194 42.5q194 0 304 -111.5t110 -318.5v-666h-254v645q0 119 -53 177.5t-168 58.5q-121 0 -197 -77.5t-76 -219.5v-584h-254v1434h254v-502zM645 1669l82 133h307l-246 -246h-286l-246 246h307z" />
    <glyph glyph-name="uni022E" unicode="&#x22e;" horiz-adv-x="1601" 
d="M350 717q0 -83 19 -160t57.5 -143t91.5 -115t126 -76.5t157 -27.5q139 0 243 73.5t155.5 191t51.5 257.5t-51.5 257.5t-155.5 191t-243 73.5q-84 0 -157 -27.5t-126 -76.5t-91.5 -115t-57.5 -143t-19 -160zM1518 717q0 -215 -88.5 -385t-252.5 -266.5t-376 -96.5
t-376 96.5t-252.5 266.5t-88.5 385q0 214 88.5 383.5t252.5 266.5t376 97t376 -97t252.5 -266.5t88.5 -383.5zM674 1802h254v-225h-254v225z" />
    <glyph glyph-name="uni022F" unicode="&#x22f;" horiz-adv-x="1261" 
d="M328 532q0 -54 11 -104.5t34.5 -97t58.5 -81t86 -55t113 -20.5t113 20.5t86 55t58.5 81t34.5 97t11 104.5t-11 104.5t-34.5 97t-58.5 81.5t-86 55.5t-113 20.5t-113 -20.5t-86 -55.5t-58.5 -81.5t-34.5 -97t-11 -104.5zM1188 532q0 -243 -154.5 -403t-402.5 -160
t-402.5 160t-154.5 403t154.5 403.5t402.5 160.5t402.5 -160.5t154.5 -403.5zM504 1434h254v-226h-254v226z" />
    <glyph glyph-name="uni0232" unicode="&#x232;" horiz-adv-x="1261" 
d="M498 563l-482 871h287l328 -635l327 635h287l-481 -871v-563h-266v563zM272 1782h717v-185h-717v185z" />
    <glyph glyph-name="uni0233" unicode="&#x233;" horiz-adv-x="1085" 
d="M424 0l-399 1065h268l149 -410q16 -44 33.5 -101t25 -85t25.5 -100l17 -72h8q53 211 108 358l146 410h262l-430 -1161q-27 -69 -55.5 -114.5t-74.5 -84t-114 -56.5t-162 -18h-143v199h123q85 0 129 29t74 112zM186 1413h717v-184h-717v184z" />
    <glyph glyph-name="uni0237" unicode="&#x237;" horiz-adv-x="536" 
d="M145 1065h254v-1126q0 -150 -95.5 -229t-260.5 -79h-113v199h103q60 0 86 26.5t26 82.5v1126z" />
    <glyph glyph-name="uni0244" unicode="&#x244;" horiz-adv-x="1576" 
d="M41 864h154v570h266v-570h655v570h266v-570h154v-215h-154v-127q0 -115 -41.5 -216t-116.5 -175.5t-188 -118t-248 -43.5t-247.5 43t-187.5 118t-116.5 176t-41.5 216v127h-154v215zM788 195q149 0 238.5 87.5t89.5 239.5v127h-655v-127q0 -152 89 -239.5t238 -87.5z" />
    <glyph glyph-name="uni0259" unicode="&#x259;" horiz-adv-x="1230" 
d="M92 778q47 138 179 228t331 90q172 0 298.5 -75t190.5 -201.5t64 -287.5q0 -159 -67.5 -287t-193 -202t-286.5 -74q-197 0 -323 95t-179 262q-34 109 -34 258v41h819q-4 52 -22 99.5t-51.5 88t-89 64.5t-126.5 24q-94 0 -154.5 -37t-80.5 -86h-275zM608 164q118 0 194 77
t89 189h-555q5 -112 77.5 -189t194.5 -77z" />
    <glyph glyph-name="uni025B" unicode="&#x25b;" horiz-adv-x="1083" 
d="M1034 307q-13 -66 -47 -123.5t-91.5 -107t-147.5 -78.5t-203 -29q-220 0 -344.5 81.5t-124.5 238.5q0 185 194 250q-73 32 -120.5 94.5t-47.5 148.5q0 148 120.5 231t330.5 83q204 0 318.5 -89.5t136.5 -228.5h-256q-9 54 -57.5 92.5t-147.5 38.5q-105 0 -153 -39
t-48 -100q0 -65 53.5 -102t141.5 -37h131v-195h-131q-217 0 -217 -137q0 -67 56.5 -105t156.5 -38q200 0 237 151h260z" />
    <glyph glyph-name="uni0263" unicode="&#x263;" horiz-adv-x="1077" 
d="M274 -133q0 66 28 143t104 228l-404 827h268l150 -317q80 -173 115 -287h8q37 121 114 287l150 317h268l-405 -829q80 -165 106.5 -233.5t26.5 -133.5q0 -100 -72.5 -169t-191.5 -69t-192 68.5t-73 167.5zM539 39q-52 -121 -52 -172q0 -70 52 -70q51 0 51 70
q0 54 -51 172z" />
    <glyph glyph-name="uni0268" unicode="&#x268;" horiz-adv-x="528" 
d="M0 686h137v379h254v-379h137v-194h-137v-492h-254v492h-137v194zM137 1434h254v-226h-254v226z" />
    <glyph glyph-name="uni0272" unicode="&#x272;" horiz-adv-x="1265" 
d="M664 881q-121 0 -197 -77.5t-76 -219.5v-645q0 -150 -95.5 -229t-260.5 -79h-113v199h103q60 0 86 26.5t26 82.5v1126h254v-133q54 79 140 121.5t194 42.5q194 0 304 -111.5t110 -318.5v-666h-254v645q0 119 -53 177.5t-168 58.5z" />
    <glyph glyph-name="uni0289" unicode="&#x289;" horiz-adv-x="1306" 
d="M31 686h127v379h254v-379h483v379h254v-379h127v-194h-127v-492h-254v123q-93 -154 -324 -154q-194 0 -303.5 111.5t-109.5 318.5v93h-127v194zM633 184q120 0 191 76.5t71 220.5v11h-483v-72q0 -119 53 -177.5t168 -58.5z" />
    <glyph glyph-name="circumflex" unicode="&#x2c6;" horiz-adv-x="839" 
d="M420 1321l-82 -133h-307l245 246h287l246 -246h-307z" />
    <glyph glyph-name="caron" unicode="&#x2c7;" horiz-adv-x="839" 
d="M420 1300l82 134h307l-246 -246h-287l-245 246h307z" />
    <glyph glyph-name="breve" unicode="&#x2d8;" horiz-adv-x="798" 
d="M399 1352q69 0 114.5 33t59.5 90h179q-18 -133 -111.5 -220.5t-241.5 -87.5q-149 0 -241.5 87.5t-110.5 220.5h178q14 -57 59.5 -90t114.5 -33z" />
    <glyph glyph-name="dotaccent" unicode="&#x2d9;" horiz-adv-x="430" 
d="M88 1434h254v-226h-254v226z" />
    <glyph glyph-name="ring" unicode="&#x2da;" horiz-adv-x="655" 
d="M451 1403q0 54 -34.5 88.5t-88.5 34.5t-88.5 -34.5t-34.5 -88.5t34.5 -88.5t88.5 -34.5t88.5 34.5t34.5 88.5zM51 1403q0 109 80 182.5t197 73.5t196.5 -73.5t79.5 -182.5t-79.5 -182.5t-196.5 -73.5t-197 73.5t-80 182.5z" />
    <glyph glyph-name="ogonek" unicode="&#x2db;" horiz-adv-x="491" 
d="M369 -276q53 0 102 14l-68 -176q-63 -13 -116 -13q-109 0 -182.5 63.5t-73.5 162.5q0 141 153 235l267 -10q-99 -51 -147 -95t-48 -95q0 -86 113 -86z" />
    <glyph glyph-name="tilde" unicode="&#x2dc;" horiz-adv-x="901" 
d="M61 1198q0 122 68 194t178 72q62 0 123 -31t108.5 -61.5t75.5 -30.5q62 0 62 82h164q0 -122 -68 -194t-178 -72q-48 0 -97.5 19t-82.5 42.5t-68.5 42.5t-58.5 19q-62 0 -62 -82h-164z" />
    <glyph glyph-name="hungarumlaut" unicode="&#x2dd;" horiz-adv-x="1003" 
d="M246 1434h276l-184 -246h-225zM614 1434h277l-184 -246h-226z" />
    <glyph glyph-name="gravecomb" unicode="&#x300;" horiz-adv-x="0" 
d="M-266 1188h-246l-246 246h328z" />
    <glyph glyph-name="acutecomb" unicode="&#x301;" horiz-adv-x="0" 
d="M-594 1434h328l-246 -246h-246z" />
    <glyph glyph-name="uni0302" unicode="&#x302;" horiz-adv-x="0" 
d="M-512 1321l-82 -133h-307l246 246h286l246 -246h-307z" />
    <glyph glyph-name="tildecomb" unicode="&#x303;" horiz-adv-x="0" 
d="M-901 1198q0 122 68 194t178 72q62 0 123 -31t108.5 -61.5t75.5 -30.5q61 0 61 82h164q0 -122 -68 -194t-178 -72q-48 0 -97.5 19t-82.5 42.5t-68.5 42.5t-58.5 19q-61 0 -61 -82h-164z" />
    <glyph glyph-name="uni0304" unicode="&#x304;" horiz-adv-x="0" 
d="M-870 1413h716v-184h-716v184z" />
    <glyph glyph-name="uni0306" unicode="&#x306;" horiz-adv-x="0" 
d="M-512 1352q69 0 114.5 33t59.5 90h178q-18 -133 -111 -220.5t-241 -87.5q-149 0 -241.5 87.5t-110.5 220.5h178q14 -57 59.5 -90t114.5 -33z" />
    <glyph glyph-name="uni0307" unicode="&#x307;" horiz-adv-x="0" 
d="M-639 1434h254v-226h-254v226z" />
    <glyph glyph-name="uni0308" unicode="&#x308;" horiz-adv-x="0" 
d="M-864 1434h254v-226h-254v226zM-414 1434h254v-226h-254v226z" />
    <glyph glyph-name="uni030A" unicode="&#x30a;" horiz-adv-x="0" 
d="M-389 1403q0 54 -34.5 88.5t-88.5 34.5t-88.5 -34.5t-34.5 -88.5t34.5 -88.5t88.5 -34.5t88.5 34.5t34.5 88.5zM-788 1403q0 109 79.5 182.5t196.5 73.5t196.5 -73.5t79.5 -182.5t-79.5 -182.5t-196.5 -73.5t-196.5 73.5t-79.5 182.5z" />
    <glyph glyph-name="uni030B" unicode="&#x30b;" horiz-adv-x="0" 
d="M-768 1434h276l-184 -246h-225zM-399 1434h276l-184 -246h-225z" />
    <glyph glyph-name="uni030C" unicode="&#x30c;" horiz-adv-x="0" 
d="M-512 1300l82 134h307l-246 -246h-286l-246 246h307z" />
    <glyph glyph-name="uni0312" unicode="&#x312;" horiz-adv-x="0" 
d="M-385 1188h-254v215l143 215h101l-92 -215h102v-215z" />
    <glyph glyph-name="uni0313" unicode="&#x313;" horiz-adv-x="0" 
d="M-608 1434h256l-123 -410h-195z" />
    <glyph glyph-name="dotbelowcomb" unicode="&#x323;" horiz-adv-x="0" 
d="M-639 -123h254v-225h-254v225z" />
    <glyph glyph-name="uni0326" unicode="&#x326;" horiz-adv-x="0" 
d="M-639 -102h254v-215l-143 -215h-101l92 215h-102v215z" />
    <glyph glyph-name="uni0327" unicode="&#x327;" horiz-adv-x="0" 
d="M-580 -287q15 -41 68 -41q32 0 52 21t20 51t-20 51t-52 21q-28 0 -51 -23l-94 94l143 144h188l-123 -123q69 -4 110.5 -49.5t41.5 -114.5q0 -80 -63 -137.5t-152 -57.5q-83 0 -142 46.5t-73 117.5h147z" />
    <glyph glyph-name="uni0328" unicode="&#x328;" horiz-adv-x="0" 
d="M-393 -276q53 0 102 14l-67 -176q-63 -13 -117 -13q-109 0 -182.5 63.5t-73.5 162.5q0 141 153 235l267 -10q-99 -51 -147 -95t-48 -95q0 -86 113 -86z" />
    <glyph glyph-name="uni032E" unicode="&#x32e;" horiz-adv-x="0" 
d="M-512 -264q69 0 114.5 33t59.5 90h178q-18 -133 -111 -220.5t-241 -87.5q-149 0 -241.5 87.5t-110.5 220.5h178q14 -57 59.5 -90t114.5 -33z" />
    <glyph glyph-name="uni0331" unicode="&#x331;" horiz-adv-x="0" 
d="M-870 -143h716v-185h-716v185z" />
    <glyph glyph-name="anoteleia" unicode="&#x387;" horiz-adv-x="548" 
d="M121 686h307v-307h-307v307z" />
    <glyph glyph-name="uni0394" unicode="&#x394;" horiz-adv-x="1220" 
d="M53 205l430 1229h254l430 -1229v-205h-1114v205zM317 205h586l-293 882z" />
    <glyph glyph-name="uni03A9" unicode="&#x3a9;" horiz-adv-x="1470" 
d="M735 1260q-179 0 -282 -127t-103 -324q0 -187 85 -303t229 -148v-358h-537v205h342v10q-175 68 -274 230.5t-99 373.5q0 188 80 334.5t226 228.5t333 82t333 -82t226 -228.5t80 -334.5q0 -211 -99 -373.5t-274 -230.5v-10h342v-205h-536v358q144 32 228.5 148t84.5 303
q0 197 -103 324t-282 127z" />
    <glyph glyph-name="uni03BC" unicode="&#x3bc;" horiz-adv-x="1265" 
d="M874 72q-84 -103 -241 -103q-158 0 -242 103v-441h-254v1434h254v-645q0 -113 61.5 -179.5t180.5 -66.5q115 0 178 67.5t63 178.5v645h254v-1065h-254v72z" />
    <glyph glyph-name="pi" unicode="&#x3c0;" horiz-adv-x="1204" 
d="M752 860h-299v-860h-254v860h-133v205h1073v-205h-133v-860h-254v860z" />
    <glyph glyph-name="uni1E02" unicode="&#x1e02;" horiz-adv-x="1454" 
d="M170 0v1434h707q194 0 317 -107.5t123 -282.5q0 -181 -154 -286q205 -120 205 -348q0 -184 -124.5 -297t-325.5 -113h-748zM897 225q104 0 154.5 52t50.5 143q0 90 -52 147.5t-153 57.5h-461v-400h461zM856 850q92 0 143.5 49t51.5 135q0 85 -51 129.5t-144 44.5h-420
v-358h420zM600 1802h254v-225h-254v225z" />
    <glyph glyph-name="uni1E03" unicode="&#x1e03;" horiz-adv-x="1296" 
d="M381 532q0 -160 81.5 -259t211.5 -99q137 0 215 94.5t78 263.5q0 170 -78 264.5t-215 94.5q-130 0 -211.5 -99.5t-81.5 -259.5zM391 0h-254v1434h254v-502q112 164 334 164q116 0 211 -45t156.5 -122.5t95 -179.5t33.5 -217t-33.5 -216.5t-95 -179t-156.5 -122.5
t-211 -45q-222 0 -334 164v-133zM621 1434h253v-226h-253v226z" />
    <glyph glyph-name="uni1E0A" unicode="&#x1e0a;" horiz-adv-x="1497" 
d="M1409 717q0 -338 -185.5 -527.5t-510.5 -189.5h-543v1434h543q325 0 510.5 -190.5t185.5 -526.5zM436 225h256q451 0 451 492q0 491 -451 491h-256v-983zM610 1802h254v-225h-254v225z" />
    <glyph glyph-name="uni1E0B" unicode="&#x1e0b;" horiz-adv-x="1296" 
d="M915 532q0 161 -81 260t-211 99q-137 0 -215 -94.5t-78 -264.5q0 -169 78 -263.5t215 -94.5q130 0 211 98.5t81 259.5zM905 133q-112 -164 -334 -164q-116 0 -210.5 45t-156 122.5t-95 179t-33.5 216.5q0 155 56.5 281.5t171 204.5t267.5 78q222 0 334 -164v502h254
v-1434h-254v133zM406 1434h253v-226h-253v226z" />
    <glyph glyph-name="uni1E0C" unicode="&#x1e0c;" horiz-adv-x="1497" 
d="M1409 717q0 -338 -185.5 -527.5t-510.5 -189.5h-543v1434h543q325 0 510.5 -190.5t185.5 -526.5zM436 225h256q451 0 451 492q0 491 -451 491h-256v-983zM600 -123h254v-225h-254v225z" />
    <glyph glyph-name="uni1E0D" unicode="&#x1e0d;" horiz-adv-x="1296" 
d="M915 532q0 161 -81 260t-211 99q-137 0 -215 -94.5t-78 -264.5q0 -169 78 -263.5t215 -94.5q130 0 211 98.5t81 259.5zM905 133q-112 -164 -334 -164q-116 0 -210.5 45t-156 122.5t-95 179t-33.5 216.5q0 155 56.5 281.5t171 204.5t267.5 78q222 0 334 -164v502h254
v-1434h-254v133zM528 -123h254v-225h-254v225z" />
    <glyph glyph-name="uni1E0E" unicode="&#x1e0e;" horiz-adv-x="1497" 
d="M1409 717q0 -338 -185.5 -527.5t-510.5 -189.5h-543v1434h543q325 0 510.5 -190.5t185.5 -526.5zM436 225h256q451 0 451 492q0 491 -451 491h-256v-983zM369 -143h716v-185h-716v185z" />
    <glyph glyph-name="uni1E0F" unicode="&#x1e0f;" horiz-adv-x="1296" 
d="M915 532q0 161 -81 260t-211 99q-137 0 -215 -94.5t-78 -264.5q0 -169 78 -263.5t215 -94.5q130 0 211 98.5t81 259.5zM905 133q-112 -164 -334 -164q-116 0 -210.5 45t-156 122.5t-95 179t-33.5 216.5q0 155 56.5 281.5t171 204.5t267.5 78q222 0 334 -164v502h254
v-1434h-254v133zM297 -143h717v-185h-717v185z" />
    <glyph glyph-name="uni1E10" unicode="&#x1e10;" horiz-adv-x="1497" 
d="M1409 717q0 -338 -185.5 -527.5t-510.5 -189.5h-543v1434h543q325 0 510.5 -190.5t185.5 -526.5zM436 225h256q451 0 451 492q0 491 -451 491h-256v-983zM600 -102h254v-215l-143 -215h-101l92 215h-102v215z" />
    <glyph glyph-name="uni1E11" unicode="&#x1e11;" horiz-adv-x="1296" 
d="M915 532q0 161 -81 260t-211 99q-137 0 -215 -94.5t-78 -264.5q0 -169 78 -263.5t215 -94.5q130 0 211 98.5t81 259.5zM905 133q-112 -164 -334 -164q-116 0 -210.5 45t-156 122.5t-95 179t-33.5 216.5q0 155 56.5 281.5t171 204.5t267.5 78q222 0 334 -164v502h254
v-1434h-254v133zM528 -102h254v-215l-143 -215h-100l92 215h-103v215z" />
    <glyph glyph-name="uni1E1E" unicode="&#x1e1e;" horiz-adv-x="1288" 
d="M170 1434h1044v-226h-778v-379h738v-225h-738v-604h-266v1434zM565 1802h254v-225h-254v225z" />
    <glyph glyph-name="uni1E1F" unicode="&#x1e1f;" horiz-adv-x="845" 
d="M25 1065h256v82q0 287 311 287h229v-199h-205q-46 0 -63.5 -20t-17.5 -68v-82h286v-205h-286v-860h-254v860h-256v205zM406 1802h253v-225h-253v225z" />
    <glyph glyph-name="uni1E20" unicode="&#x1e20;" horiz-adv-x="1548" 
d="M803 1239q-108 0 -195 -42.5t-142 -115t-84.5 -166t-29.5 -198.5t29.5 -198.5t84.5 -166t142 -115t195 -42.5q166 0 269 92t110 266h-379v225h635v-778h-205l-21 143q-137 -174 -419 -174q-211 0 -373 97t-248 266.5t-86 384.5q0 160 50.5 298t142.5 237t227 155.5
t297 56.5q238 0 390.5 -107.5t223.5 -291.5h-293q-91 174 -321 174zM461 1782h717v-185h-717v185z" />
    <glyph glyph-name="uni1E21" unicode="&#x1e21;" horiz-adv-x="1286" 
d="M905 563q0 147 -81 237.5t-212 90.5q-124 0 -203 -90.5t-79 -237.5t79 -237t203 -90q131 0 212 90t81 237zM571 31q-145 0 -259 71t-175 192t-61 269t61 269t175 192.5t259 71.5q197 0 324 -144v113h254v-942q0 -164 -70.5 -284t-188 -179t-267.5 -59q-194 0 -320 82.5
t-156 234.5h261q24 -67 75 -95t140 -28q131 0 201.5 84t70.5 244v51q-126 -143 -324 -143zM307 1413h717v-184h-717v184z" />
    <glyph glyph-name="uni1E22" unicode="&#x1e22;" horiz-adv-x="1568" 
d="M1399 0h-266v625h-697v-625h-266v1434h266v-584h697v584h266v-1434zM657 1802h254v-225h-254v225z" />
    <glyph glyph-name="uni1E23" unicode="&#x1e23;" horiz-adv-x="1265" 
d="M391 932q54 79 140 121.5t194 42.5q194 0 304 -111.5t110 -318.5v-666h-254v645q0 119 -53 177.5t-168 58.5q-121 0 -197 -77.5t-76 -219.5v-584h-254v1434h254v-502zM518 1802h254v-225h-254v225z" />
    <glyph glyph-name="uni1E24" unicode="&#x1e24;" horiz-adv-x="1568" 
d="M1399 0h-266v625h-697v-625h-266v1434h266v-584h697v584h266v-1434zM657 -123h254v-225h-254v225z" />
    <glyph glyph-name="uni1E25" unicode="&#x1e25;" horiz-adv-x="1265" 
d="M391 932q54 79 140 121.5t194 42.5q194 0 304 -111.5t110 -318.5v-666h-254v645q0 119 -53 177.5t-168 58.5q-121 0 -197 -77.5t-76 -219.5v-584h-254v1434h254v-502zM510 -123h254v-225h-254v225z" />
    <glyph glyph-name="uni1E2A" unicode="&#x1e2a;" horiz-adv-x="1568" 
d="M1399 0h-266v625h-697v-625h-266v1434h266v-584h697v584h266v-1434zM784 -264q69 0 114.5 33t59.5 90h179q-18 -133 -111.5 -220.5t-241.5 -87.5q-149 0 -241.5 87.5t-110.5 220.5h178q14 -57 59.5 -90t114.5 -33z" />
    <glyph glyph-name="uni1E2B" unicode="&#x1e2b;" horiz-adv-x="1265" 
d="M391 932q54 79 140 121.5t194 42.5q194 0 304 -111.5t110 -318.5v-666h-254v645q0 119 -53 177.5t-168 58.5q-121 0 -197 -77.5t-76 -219.5v-584h-254v1434h254v-502zM637 -264q69 0 114.5 33t59.5 90h178q-18 -133 -111 -220.5t-241 -87.5q-149 0 -241.5 87.5
t-110.5 220.5h178q14 -57 59.5 -90t114.5 -33z" />
    <glyph glyph-name="uni1E36" unicode="&#x1e36;" horiz-adv-x="1198" 
d="M170 1434h266v-1209h738v-225h-1004v1434zM545 -123h254v-225h-254v225z" />
    <glyph glyph-name="uni1E37" unicode="&#x1e37;" horiz-adv-x="528" 
d="M137 1434h254v-1434h-254v1434zM137 -123h254v-225h-254v225z" />
    <glyph glyph-name="uni1E38" unicode="&#x1e38;" horiz-adv-x="1198" 
d="M170 1434h266v-1209h738v-225h-1004v1434zM545 -123h254v-225h-254v225zM309 1782h717v-185h-717v185z" />
    <glyph glyph-name="uni1E39" unicode="&#x1e39;" horiz-adv-x="528" 
d="M137 1434h254v-1434h-254v1434zM137 -123h254v-225h-254v225zM-94 1782h717v-185h-717v185z" />
    <glyph glyph-name="uni1E3A" unicode="&#x1e3a;" horiz-adv-x="1198" 
d="M170 1434h266v-1209h738v-225h-1004v1434zM313 -143h717v-185h-717v185z" />
    <glyph glyph-name="uni1E3B" unicode="&#x1e3b;" horiz-adv-x="528" 
d="M137 1434h254v-1434h-254v1434zM-94 -143h717v-185h-717v185z" />
    <glyph glyph-name="uni1E3E" unicode="&#x1e3e;" horiz-adv-x="1855" 
d="M602 625q-89 163 -176 389h-8q18 -281 18 -410v-604h-266v1434h297l278 -545q102 -198 183 -387q85 200 182 387l279 545h297v-1434h-267v604q0 114 19 410h-8q-9 -21 -40.5 -96t-44.5 -104t-39 -84t-53 -105l-325 -625zM887 1802h327l-245 -246h-246z" />
    <glyph glyph-name="uni1E3F" unicode="&#x1e3f;" horiz-adv-x="1931" 
d="M391 942q96 154 303 154q247 0 348 -185q101 185 359 185q85 0 157.5 -25.5t127.5 -75.5t86.5 -129t31.5 -180v-686h-254v645q0 121 -48.5 178.5t-162.5 57.5q-103 0 -172 -65.5t-69 -201.5v-614h-254v645q0 121 -48.5 178.5t-162.5 57.5q-103 0 -172.5 -65.5
t-69.5 -201.5v-614h-254v1065h254v-123zM1004 1434h327l-246 -246h-245z" />
    <glyph glyph-name="uni1E40" unicode="&#x1e40;" horiz-adv-x="1855" 
d="M602 625q-89 163 -176 389h-8q18 -281 18 -410v-604h-266v1434h297l278 -545q102 -198 183 -387q85 200 182 387l279 545h297v-1434h-267v604q0 114 19 410h-8q-9 -21 -40.5 -96t-44.5 -104t-39 -84t-53 -105l-325 -625zM801 1802h254v-225h-254v225z" />
    <glyph glyph-name="uni1E41" unicode="&#x1e41;" horiz-adv-x="1931" 
d="M391 942q96 154 303 154q247 0 348 -185q101 185 359 185q85 0 157.5 -25.5t127.5 -75.5t86.5 -129t31.5 -180v-686h-254v645q0 121 -48.5 178.5t-162.5 57.5q-103 0 -172 -65.5t-69 -201.5v-614h-254v645q0 121 -48.5 178.5t-162.5 57.5q-103 0 -172.5 -65.5
t-69.5 -201.5v-614h-254v1065h254v-123zM846 1434h254v-226h-254v226z" />
    <glyph glyph-name="uni1E42" unicode="&#x1e42;" horiz-adv-x="1855" 
d="M602 625q-89 163 -176 389h-8q18 -281 18 -410v-604h-266v1434h297l278 -545q102 -198 183 -387q85 200 182 387l279 545h297v-1434h-267v604q0 114 19 410h-8q-9 -21 -40.5 -96t-44.5 -104t-39 -84t-53 -105l-325 -625zM801 -123h254v-225h-254v225z" />
    <glyph glyph-name="uni1E43" unicode="&#x1e43;" horiz-adv-x="1931" 
d="M391 942q96 154 303 154q247 0 348 -185q101 185 359 185q85 0 157.5 -25.5t127.5 -75.5t86.5 -129t31.5 -180v-686h-254v645q0 121 -48.5 178.5t-162.5 57.5q-103 0 -172 -65.5t-69 -201.5v-614h-254v645q0 121 -48.5 178.5t-162.5 57.5q-103 0 -172.5 -65.5
t-69.5 -201.5v-614h-254v1065h254v-123zM844 -123h254v-225h-254v225z" />
    <glyph glyph-name="uni1E44" unicode="&#x1e44;" horiz-adv-x="1589" 
d="M1153 1434h266v-1434h-286l-431 625q-173 244 -272 430h-8q14 -183 14 -451v-604h-266v1434h287l430 -625q194 -283 272 -430h8q-14 183 -14 450v605zM668 1802h254v-225h-254v225z" />
    <glyph glyph-name="uni1E45" unicode="&#x1e45;" horiz-adv-x="1265" 
d="M391 932q54 79 140 121.5t194 42.5q194 0 304 -111.5t110 -318.5v-666h-254v645q0 119 -53 177.5t-168 58.5q-121 0 -197 -77.5t-76 -219.5v-584h-254v1065h254v-133zM528 1434h254v-226h-254v226z" />
    <glyph glyph-name="uni1E46" unicode="&#x1e46;" horiz-adv-x="1589" 
d="M1153 1434h266v-1434h-286l-431 625q-173 244 -272 430h-8q14 -183 14 -451v-604h-266v1434h287l430 -625q194 -283 272 -430h8q-14 183 -14 450v605zM668 -123h254v-225h-254v225z" />
    <glyph glyph-name="uni1E47" unicode="&#x1e47;" horiz-adv-x="1265" 
d="M391 932q54 79 140 121.5t194 42.5q194 0 304 -111.5t110 -318.5v-666h-254v645q0 119 -53 177.5t-168 58.5q-121 0 -197 -77.5t-76 -219.5v-584h-254v1065h254v-133zM510 -123h254v-225h-254v225z" />
    <glyph glyph-name="uni1E48" unicode="&#x1e48;" horiz-adv-x="1589" 
d="M1153 1434h266v-1434h-286l-431 625q-173 244 -272 430h-8q14 -183 14 -451v-604h-266v1434h287l430 -625q194 -283 272 -430h8q-14 183 -14 450v605zM436 -143h717v-185h-717v185z" />
    <glyph glyph-name="uni1E49" unicode="&#x1e49;" horiz-adv-x="1265" 
d="M391 932q54 79 140 121.5t194 42.5q194 0 304 -111.5t110 -318.5v-666h-254v645q0 119 -53 177.5t-168 58.5q-121 0 -197 -77.5t-76 -219.5v-584h-254v1065h254v-133zM279 -143h716v-185h-716v185z" />
    <glyph glyph-name="uni1E56" unicode="&#x1e56;" horiz-adv-x="1425" 
d="M436 573v-573h-266v1434h737q213 0 342 -118.5t129 -311.5t-129 -312t-342 -119h-471zM907 799q92 0 148.5 56.5t56.5 148.5t-56.5 148t-148.5 56h-471v-409h471zM631 1802h254v-225h-254v225z" />
    <glyph glyph-name="uni1E57" unicode="&#x1e57;" horiz-adv-x="1296" 
d="M381 532q0 -160 81.5 -259t211.5 -99q137 0 215 94.5t78 263.5q0 170 -78 264.5t-215 94.5q-130 0 -211.5 -99.5t-81.5 -259.5zM391 932q112 164 334 164q116 0 211 -45t156.5 -122.5t95 -179.5t33.5 -217t-33.5 -216.5t-95 -179t-156.5 -122.5t-211 -45q-222 0 -334 164
v-502h-254v1434h254v-133zM580 1434h254v-226h-254v226z" />
    <glyph glyph-name="uni1E5A" unicode="&#x1e5a;" horiz-adv-x="1462" 
d="M436 0h-266v1434h737q213 0 342 -118.5t129 -311.5t-129 -312t-342 -119h-61l573 -573h-358l-563 573h-62v-573zM907 799q92 0 148.5 56.5t56.5 148.5t-56.5 148t-148.5 56h-471v-409h471zM631 -123h254v-225h-254v225z" />
    <glyph glyph-name="uni1E5B" unicode="&#x1e5b;" horiz-adv-x="784" 
d="M627 860q-236 0 -236 -256v-604h-254v1065h254v-123q40 72 109 107.5t188 35.5h64v-225h-125zM137 -123h254v-225h-254v225z" />
    <glyph glyph-name="uni1E5C" unicode="&#x1e5c;" horiz-adv-x="1462" 
d="M436 0h-266v1434h737q213 0 342 -118.5t129 -311.5t-129 -312t-342 -119h-61l573 -573h-358l-563 573h-62v-573zM907 799q92 0 148.5 56.5t56.5 148.5t-56.5 148t-148.5 56h-471v-409h471zM631 -123h254v-225h-254v225zM399 1782h717v-185h-717v185z" />
    <glyph glyph-name="uni1E5D" unicode="&#x1e5d;" horiz-adv-x="784" 
d="M627 860q-236 0 -236 -256v-604h-254v1065h254v-123q40 72 109 107.5t188 35.5h64v-225h-125zM137 -123h254v-225h-254v225zM92 1413h717v-184h-717v184z" />
    <glyph glyph-name="uni1E5E" unicode="&#x1e5e;" horiz-adv-x="1462" 
d="M436 0h-266v1434h737q213 0 342 -118.5t129 -311.5t-129 -312t-342 -119h-61l573 -573h-358l-563 573h-62v-573zM907 799q92 0 148.5 56.5t56.5 148.5t-56.5 148t-148.5 56h-471v-409h471zM399 -143h717v-185h-717v185z" />
    <glyph glyph-name="uni1E5F" unicode="&#x1e5f;" horiz-adv-x="784" 
d="M627 860q-236 0 -236 -256v-604h-254v1065h254v-123q40 72 109 107.5t188 35.5h64v-225h-125zM-94 -143h717v-185h-717v185z" />
    <glyph glyph-name="uni1E60" unicode="&#x1e60;" horiz-adv-x="1345" 
d="M342 399q5 -109 89.5 -167t244.5 -58q157 0 245.5 60t88.5 155q0 31 -8 56t-19.5 42.5t-34.5 32t-43 23.5t-55.5 17.5t-61.5 13.5t-71 12l-123 18q-492 71 -492 440q0 185 150 302.5t424 117.5q113 0 206 -23.5t156 -62.5t107.5 -91.5t66.5 -107.5t27 -114h-270
q-5 87 -76.5 141t-216.5 54q-71 0 -127 -11.5t-91.5 -30.5t-58.5 -45t-32 -52.5t-9 -55.5q0 -50 19.5 -86t60.5 -59t89 -37t118 -25l123 -18q93 -14 163 -32.5t137 -51t109 -77.5t67.5 -113t25.5 -156q0 -196 -158.5 -318.5t-435.5 -122.5q-278 0 -437 119.5t-167 310.5h270
zM549 1802h254v-225h-254v225z" />
    <glyph glyph-name="uni1E61" unicode="&#x1e61;" horiz-adv-x="1089" 
d="M498 420q-88 11 -159 35t-129 65.5t-90 106t-32 147.5q0 148 123.5 235t337.5 87q106 0 192 -27.5t140 -73.5t84 -101.5t34 -115.5h-256q-5 63 -53.5 100t-144.5 37q-104 0 -153.5 -34t-49.5 -84q0 -60 49.5 -91t147.5 -42l71 -9q90 -11 156.5 -30.5t127.5 -57.5
t93.5 -103.5t32.5 -156.5q0 -154 -127.5 -246t-343.5 -92q-219 0 -347 92t-134 246h258q9 -155 223 -155q107 0 162 35.5t55 97.5q0 24 -5.5 42.5t-20.5 31.5t-28 21t-41 14.5t-46 9.5t-56 8zM422 1434h254v-226h-254v226z" />
    <glyph glyph-name="uni1E62" unicode="&#x1e62;" horiz-adv-x="1345" 
d="M342 399q5 -109 89.5 -167t244.5 -58q157 0 245.5 60t88.5 155q0 31 -8 56t-19.5 42.5t-34.5 32t-43 23.5t-55.5 17.5t-61.5 13.5t-71 12l-123 18q-492 71 -492 440q0 185 150 302.5t424 117.5q113 0 206 -23.5t156 -62.5t107.5 -91.5t66.5 -107.5t27 -114h-270
q-5 87 -76.5 141t-216.5 54q-71 0 -127 -11.5t-91.5 -30.5t-58.5 -45t-32 -52.5t-9 -55.5q0 -50 19.5 -86t60.5 -59t89 -37t118 -25l123 -18q93 -14 163 -32.5t137 -51t109 -77.5t67.5 -113t25.5 -156q0 -196 -158.5 -318.5t-435.5 -122.5q-278 0 -437 119.5t-167 310.5h270
zM549 -123h254v-225h-254v225z" />
    <glyph glyph-name="uni1E63" unicode="&#x1e63;" horiz-adv-x="1089" 
d="M498 420q-88 11 -159 35t-129 65.5t-90 106t-32 147.5q0 148 123.5 235t337.5 87q106 0 192 -27.5t140 -73.5t84 -101.5t34 -115.5h-256q-5 63 -53.5 100t-144.5 37q-104 0 -153.5 -34t-49.5 -84q0 -60 49.5 -91t147.5 -42l71 -9q90 -11 156.5 -30.5t127.5 -57.5
t93.5 -103.5t32.5 -156.5q0 -154 -127.5 -246t-343.5 -92q-219 0 -347 92t-134 246h258q9 -155 223 -155q107 0 162 35.5t55 97.5q0 24 -5.5 42.5t-20.5 31.5t-28 21t-41 14.5t-46 9.5t-56 8zM422 -123h254v-225h-254v225z" />
    <glyph glyph-name="uni1E6A" unicode="&#x1e6a;" horiz-adv-x="1257" 
d="M1233 1208h-471v-1208h-266v1208h-471v226h1208v-226zM502 1802h254v-225h-254v225z" />
    <glyph glyph-name="uni1E6B" unicode="&#x1e6b;" horiz-adv-x="876" 
d="M281 860h-256v205h256v246h254v-246h286v-205h-286v-573q0 -48 17.5 -68t63.5 -20h205v-199h-266q-146 0 -210 68.5t-64 218.5v573zM281 1802h254v-225h-254v225z" />
    <glyph glyph-name="uni1E6C" unicode="&#x1e6c;" horiz-adv-x="1257" 
d="M1233 1208h-471v-1208h-266v1208h-471v226h1208v-226zM502 -123h254v-225h-254v225z" />
    <glyph glyph-name="uni1E6D" unicode="&#x1e6d;" horiz-adv-x="876" 
d="M281 860h-256v205h256v246h254v-246h286v-205h-286v-573q0 -48 17.5 -68t63.5 -20h205v-199h-266q-146 0 -210 68.5t-64 218.5v573zM385 -123h254v-225h-254v225z" />
    <glyph glyph-name="uni1E6E" unicode="&#x1e6e;" horiz-adv-x="1257" 
d="M1233 1208h-471v-1208h-266v1208h-471v226h1208v-226zM270 -143h717v-185h-717v185z" />
    <glyph glyph-name="uni1E6F" unicode="&#x1e6f;" horiz-adv-x="876" 
d="M281 860h-256v205h256v246h254v-246h286v-205h-286v-573q0 -48 17.5 -68t63.5 -20h205v-199h-266q-146 0 -210 68.5t-64 218.5v573zM154 -143h716v-185h-716v185z" />
    <glyph glyph-name="uni1E7C" unicode="&#x1e7c;" horiz-adv-x="1345" 
d="M1057 1434h276l-532 -1434h-256l-533 1434h277l258 -732q65 -184 123 -405h6q56 213 123 403zM283 1567q0 122 67.5 194t177.5 72q48 0 98 -19t83 -42.5t68.5 -42.5t58.5 -19q61 0 61 82h164q0 -122 -68 -194t-178 -72q-62 0 -123 31t-108.5 61.5t-75.5 30.5
q-62 0 -62 -82h-163z" />
    <glyph glyph-name="uni1E7D" unicode="&#x1e7d;" horiz-adv-x="1114" 
d="M20 1065h271l147 -410q44 -114 115 -379h8q71 265 115 379l147 410h271l-410 -1065h-254zM168 1198q0 122 68 194t178 72q62 0 123 -31t108.5 -61.5t75.5 -30.5q61 0 61 82h164q0 -122 -68 -194t-178 -72q-48 0 -97.5 19t-82.5 42.5t-68.5 42.5t-58.5 19q-61 0 -61 -82
h-164z" />
    <glyph glyph-name="Wgrave" unicode="&#x1e80;" horiz-adv-x="1970" 
d="M981 1085q-44 -233 -86 -380l-197 -705h-266l-409 1434h266l182 -680q45 -163 90 -406h8q51 249 95 408l188 678h266l189 -678q41 -146 94 -408h8q45 243 90 406l182 680h267l-410 -1434h-266l-197 705q-42 147 -86 380h-8zM1190 1556h-246l-246 246h328z" />
    <glyph glyph-name="wgrave" unicode="&#x1e81;" horiz-adv-x="1609" 
d="M801 778q-47 -235 -92 -377l-125 -401h-244l-317 1065h260l104 -418q40 -157 74 -381h8q34 199 88 379l125 420h246l125 -420q54 -180 88 -379h8q34 224 74 381l104 418h260l-317 -1065h-244l-125 401q-45 142 -92 377h-8zM1010 1188h-246l-246 246h328z" />
    <glyph glyph-name="Wacute" unicode="&#x1e82;" horiz-adv-x="1970" 
d="M981 1085q-44 -233 -86 -380l-197 -705h-266l-409 1434h266l182 -680q45 -163 90 -406h8q51 249 95 408l188 678h266l189 -678q41 -146 94 -408h8q45 243 90 406l182 680h267l-410 -1434h-266l-197 705q-42 147 -86 380h-8zM944 1802h328l-246 -246h-246z" />
    <glyph glyph-name="wacute" unicode="&#x1e83;" horiz-adv-x="1609" 
d="M801 778q-47 -235 -92 -377l-125 -401h-244l-317 1065h260l104 -418q40 -157 74 -381h8q34 199 88 379l125 420h246l125 -420q54 -180 88 -379h8q34 224 74 381l104 418h260l-317 -1065h-244l-125 401q-45 142 -92 377h-8zM764 1434h328l-246 -246h-246z" />
    <glyph glyph-name="Wdieresis" unicode="&#x1e84;" horiz-adv-x="1970" 
d="M981 1085q-44 -233 -86 -380l-197 -705h-266l-409 1434h266l182 -680q45 -163 90 -406h8q51 249 95 408l188 678h266l189 -678q41 -146 94 -408h8q45 243 90 406l182 680h267l-410 -1434h-266l-197 705q-42 147 -86 380h-8zM633 1802h254v-225h-254v225zM1083 1802h254
v-225h-254v225z" />
    <glyph glyph-name="wdieresis" unicode="&#x1e85;" horiz-adv-x="1609" 
d="M801 778q-47 -235 -92 -377l-125 -401h-244l-317 1065h260l104 -418q40 -157 74 -381h8q34 199 88 379l125 420h246l125 -420q54 -180 88 -379h8q34 224 74 381l104 418h260l-317 -1065h-244l-125 401q-45 142 -92 377h-8zM453 1434h254v-226h-254v226zM903 1434h254
v-226h-254v226z" />
    <glyph glyph-name="uni1E8A" unicode="&#x1e8a;" horiz-adv-x="1339" 
d="M817 758l529 -758h-312l-368 543l-371 -543h-301l528 750l-477 684h311l318 -469l319 469h301zM543 1802h254v-225h-254v225z" />
    <glyph glyph-name="uni1E8B" unicode="&#x1e8b;" horiz-adv-x="1085" 
d="M682 555l397 -555h-303l-235 356l-236 -356h-299l397 551l-366 514h301l207 -315l207 315h297zM416 1434h254v-226h-254v226z" />
    <glyph glyph-name="uni1E92" unicode="&#x1e92;" horiz-adv-x="1269" 
d="M1202 0h-1126v225l768 983h-748v226h1075v-226l-768 -983h799v-225zM512 -123h254v-225h-254v225z" />
    <glyph glyph-name="uni1E93" unicode="&#x1e93;" horiz-adv-x="1085" 
d="M1016 205v-205h-942v205l596 655h-576v205h901v-205l-596 -655h617zM418 -123h254v-225h-254v225z" />
    <glyph glyph-name="uni1E97" unicode="&#x1e97;" horiz-adv-x="876" 
d="M281 860h-256v205h256v246h254v-246h286v-205h-286v-573q0 -48 17.5 -68t63.5 -20h205v-199h-266q-146 0 -210 68.5t-64 218.5v573zM55 1802h254v-225h-254v225zM506 1802h254v-225h-254v225z" />
    <glyph glyph-name="uni1E9E" unicode="&#x1e9e;" horiz-adv-x="1470" 
d="M610 0v225h287q110 0 167.5 64t57.5 162q0 99 -57 151.5t-158 52.5h-215v246l307 307h-563v-1208h-266v1434h1116v-246l-325 -318q202 4 315 -112t113 -297q0 -94 -31.5 -176t-91 -146.5t-155 -101.5t-214.5 -37h-287z" />
    <glyph glyph-name="uni1EA0" unicode="&#x1ea0;" horiz-adv-x="1437" 
d="M1034 317h-631l-124 -317h-277l584 1434h266l584 -1434h-277zM494 543h450l-94 239q-62 156 -127 375h-8q-62 -208 -127 -375zM592 -123h254v-225h-254v225z" />
    <glyph glyph-name="uni1EA1" unicode="&#x1ea1;" horiz-adv-x="1193" 
d="M117 778q25 149 146.5 233.5t328.5 84.5q277 0 395 -142q80 -92 80 -247v-707h-254v123q-111 -154 -354 -154q-171 0 -282 89.5t-111 258.5q0 150 106 235t297 103l344 31v21q0 96 -51 145t-170 49q-188 0 -213 -123h-262zM500 164q136 0 224.5 78t88.5 219v41l-334 -31
q-74 -6 -117 -46t-43 -108q0 -75 49 -114t132 -39zM457 -123h254v-225h-254v225z" />
    <glyph glyph-name="uni1EB8" unicode="&#x1eb8;" horiz-adv-x="1325" 
d="M170 1434h1044v-226h-778v-358h738v-225h-738v-400h778v-225h-1044v1434zM565 -123h254v-225h-254v225z" />
    <glyph glyph-name="uni1EB9" unicode="&#x1eb9;" horiz-adv-x="1230" 
d="M1139 307q-47 -149 -179 -243.5t-331 -94.5q-165 0 -292 74.5t-194 202t-67 286.5t67.5 287t193 202.5t286.5 74.5q197 0 322.5 -95t178.5 -262q35 -112 35 -258v-41h-819q5 -109 83 -192.5t206 -83.5q95 0 154 42.5t81 100.5h275zM623 901q-118 0 -194 -77t-89 -189h555
q-5 112 -77.5 189t-194.5 77zM502 -123h254v-225h-254v225z" />
    <glyph glyph-name="uni1EBC" unicode="&#x1ebc;" horiz-adv-x="1325" 
d="M170 1434h1044v-226h-778v-358h738v-225h-738v-400h778v-225h-1044v1434zM303 1567q0 122 68 194t178 72q48 0 97.5 -19t82.5 -42.5t68.5 -42.5t58.5 -19q62 0 62 82h163q0 -122 -67.5 -194t-177.5 -72q-48 0 -98 19t-83 42.5t-68.5 42.5t-58.5 19q-61 0 -61 -82h-164z
" />
    <glyph glyph-name="uni1EBD" unicode="&#x1ebd;" horiz-adv-x="1230" 
d="M1139 307q-47 -149 -179 -243.5t-331 -94.5q-165 0 -292 74.5t-194 202t-67 286.5t67.5 287t193 202.5t286.5 74.5q197 0 322.5 -95t178.5 -262q35 -112 35 -258v-41h-819q5 -109 83 -192.5t206 -83.5q95 0 154 42.5t81 100.5h275zM623 901q-118 0 -194 -77t-89 -189h555
q-5 112 -77.5 189t-194.5 77zM233 1198q0 122 68 194t178 72q62 0 123 -31t108.5 -61.5t75.5 -30.5q62 0 62 82h164q0 -122 -68 -194t-178 -72q-48 0 -97.5 19t-82.5 42.5t-68.5 42.5t-58.5 19q-62 0 -62 -82h-164z" />
    <glyph glyph-name="uni1ECA" unicode="&#x1eca;" horiz-adv-x="606" 
d="M170 0v1434h266v-1434h-266zM176 -123h254v-225h-254v225z" />
    <glyph glyph-name="uni1ECB" unicode="&#x1ecb;" horiz-adv-x="528" 
d="M137 1065h254v-1065h-254v1065zM137 1434h254v-226h-254v226zM137 -123h254v-225h-254v225z" />
    <glyph glyph-name="uni1ECC" unicode="&#x1ecc;" horiz-adv-x="1601" 
d="M350 717q0 -83 19 -160t57.5 -143t91.5 -115t126 -76.5t157 -27.5q139 0 243 73.5t155.5 191t51.5 257.5t-51.5 257.5t-155.5 191t-243 73.5q-84 0 -157 -27.5t-126 -76.5t-91.5 -115t-57.5 -143t-19 -160zM1518 717q0 -215 -88.5 -385t-252.5 -266.5t-376 -96.5
t-376 96.5t-252.5 266.5t-88.5 385q0 214 88.5 383.5t252.5 266.5t376 97t376 -97t252.5 -266.5t88.5 -383.5zM674 -123h254v-225h-254v225z" />
    <glyph glyph-name="uni1ECD" unicode="&#x1ecd;" horiz-adv-x="1261" 
d="M328 532q0 -54 11 -104.5t34.5 -97t58.5 -81t86 -55t113 -20.5t113 20.5t86 55t58.5 81t34.5 97t11 104.5t-11 104.5t-34.5 97t-58.5 81.5t-86 55.5t-113 20.5t-113 -20.5t-86 -55.5t-58.5 -81.5t-34.5 -97t-11 -104.5zM1188 532q0 -243 -154.5 -403t-402.5 -160
t-402.5 160t-154.5 403t154.5 403.5t402.5 160.5t402.5 -160.5t154.5 -403.5zM504 -123h254v-225h-254v225z" />
    <glyph glyph-name="uni1EE4" unicode="&#x1ee4;" horiz-adv-x="1499" 
d="M750 -31q-135 0 -248 43.5t-188 118t-116.5 175.5t-41.5 216v912h266v-912q0 -152 89.5 -239.5t238.5 -87.5t238 87.5t89 239.5v912h266v-912q0 -115 -41.5 -216t-116.5 -176t-187.5 -118t-247.5 -43zM623 -123h254v-225h-254v225z" />
    <glyph glyph-name="uni1EE5" unicode="&#x1ee5;" horiz-adv-x="1255" 
d="M864 123q-93 -154 -323 -154q-194 0 -304 111.5t-110 318.5v666h254v-645q0 -119 53 -177.5t168 -58.5q120 0 191 76.5t71 220.5v584h254v-1065h-254v123zM487 -123h254v-225h-254v225z" />
    <glyph glyph-name="Ygrave" unicode="&#x1ef2;" horiz-adv-x="1261" 
d="M498 563l-482 871h287l328 -635l327 635h287l-481 -871v-563h-266v563zM836 1556h-246l-246 246h328z" />
    <glyph glyph-name="ygrave" unicode="&#x1ef3;" horiz-adv-x="1085" 
d="M745 1188h-245l-246 246h328zM424 0l-399 1065h268l149 -410q16 -44 33.5 -101t25 -85t25.5 -100l17 -72h8q53 211 108 358l146 410h262l-430 -1161q-27 -69 -55.5 -114.5t-74.5 -84t-114 -56.5t-162 -18h-143v199h123q85 0 129 29t74 112z" />
    <glyph glyph-name="uni1EF8" unicode="&#x1ef8;" horiz-adv-x="1261" 
d="M498 563l-482 871h287l328 -635l327 635h287l-481 -871v-563h-266v563zM242 1567q0 122 67.5 194t177.5 72q48 0 98 -19t83 -42.5t68.5 -42.5t58.5 -19q61 0 61 82h164q0 -122 -68 -194t-178 -72q-62 0 -123 31t-108.5 61.5t-75.5 30.5q-61 0 -61 -82h-164z" />
    <glyph glyph-name="uni1EF9" unicode="&#x1ef9;" horiz-adv-x="1085" 
d="M424 0l-399 1065h268l149 -410q16 -44 33.5 -101t25 -85t25.5 -100l17 -72h8q53 211 108 358l146 410h262l-430 -1161q-27 -69 -55.5 -114.5t-74.5 -84t-114 -56.5t-162 -18h-143v199h123q85 0 129 29t74 112zM156 1198q0 122 67.5 194t177.5 72q48 0 98 -19t83 -42.5
t68.5 -42.5t58.5 -19q61 0 61 82h164q0 -122 -68 -194t-178 -72q-48 0 -97.5 19t-82.5 42.5t-68.5 42.5t-58.5 19q-62 0 -62 -82h-163z" />
    <glyph glyph-name="uni2000" unicode="&#x2000;" horiz-adv-x="1024" 
 />
    <glyph glyph-name="uni2001" unicode="&#x2001;" horiz-adv-x="2048" 
 />
    <glyph glyph-name="uni2002" unicode="&#x2002;" horiz-adv-x="1024" 
 />
    <glyph glyph-name="uni2003" unicode="&#x2003;" horiz-adv-x="2048" 
 />
    <glyph glyph-name="uni2004" unicode="&#x2004;" horiz-adv-x="681" 
 />
    <glyph glyph-name="uni2005" unicode="&#x2005;" horiz-adv-x="512" 
 />
    <glyph glyph-name="uni2006" unicode="&#x2006;" horiz-adv-x="342" 
 />
    <glyph glyph-name="uni2007" unicode="&#x2007;" horiz-adv-x="1335" 
 />
    <glyph glyph-name="uni2008" unicode="&#x2008;" horiz-adv-x="548" 
 />
    <glyph glyph-name="uni2009" unicode="&#x2009;" horiz-adv-x="256" 
 />
    <glyph glyph-name="uni200A" unicode="&#x200a;" horiz-adv-x="86" 
 />
    <glyph glyph-name="uni200B" unicode="&#x200b;" horiz-adv-x="0" 
 />
    <glyph glyph-name="figuredash" unicode="&#x2012;" horiz-adv-x="1306" 
d="M121 819h1065v-205h-1065v205z" />
    <glyph glyph-name="endash" unicode="&#x2013;" horiz-adv-x="1306" 
d="M121 635h1065v-205h-1065v205z" />
    <glyph glyph-name="emdash" unicode="&#x2014;" horiz-adv-x="2371" 
d="M121 635h2130v-205h-2130v205z" />
    <glyph glyph-name="uni2015" unicode="&#x2015;" horiz-adv-x="2371" 
d="M121 635h2130v-205h-2130v205z" />
    <glyph glyph-name="quoteleft" unicode="&#x2018;" horiz-adv-x="530" 
d="M412 819h-308v307l185 308h123l-123 -308h123v-307z" />
    <glyph glyph-name="quoteright" unicode="&#x2019;" horiz-adv-x="512" 
d="M121 1434h307v-308l-184 -307h-123l123 307h-123v308z" />
    <glyph glyph-name="quotesinglbase" unicode="&#x201a;" horiz-adv-x="548" 
d="M121 307h307v-307l-184 -307h-123l123 307h-123v307z" />
    <glyph glyph-name="quotereversed" unicode="&#x201b;" horiz-adv-x="430" 
d="M369 1126h-123l123 -307h-123l-185 307v308h308v-308z" />
    <glyph glyph-name="quotedblleft" unicode="&#x201c;" horiz-adv-x="980" 
d="M412 819h-308v307l185 308h123l-123 -308h123v-307zM862 819h-307v307l184 308h123l-123 -308h123v-307z" />
    <glyph glyph-name="quotedblright" unicode="&#x201d;" horiz-adv-x="962" 
d="M121 1434h307v-308l-184 -307h-123l123 307h-123v308zM571 1434h308v-308l-185 -307h-123l123 307h-123v308z" />
    <glyph glyph-name="quotedblbase" unicode="&#x201e;" horiz-adv-x="999" 
d="M121 307h307v-307l-184 -307h-123l123 307h-123v307zM571 307h308v-307l-185 -307h-123l123 307h-123v307z" />
    <glyph glyph-name="uni201F" unicode="&#x201f;" horiz-adv-x="860" 
d="M819 1126h-123l123 -307h-123l-184 307v308h307v-308zM369 1126h-123l123 -307h-123l-185 307v308h308v-308z" />
    <glyph glyph-name="dagger" unicode="&#x2020;" horiz-adv-x="1273" 
d="M510 -369v1229h-416v205h416v369h254v-369h416v-205h-416v-1229h-254z" />
    <glyph glyph-name="daggerdbl" unicode="&#x2021;" horiz-adv-x="1273" 
d="M510 -369v369h-416v205h416v655h-416v205h416v369h254v-369h416v-205h-416v-655h416v-205h-416v-369h-254z" />
    <glyph glyph-name="bullet" unicode="&#x2022;" horiz-adv-x="970" 
d="M127 532q0 149 104.5 254t253.5 105t254 -105t105 -254t-105 -253.5t-254 -104.5t-253.5 104.5t-104.5 253.5z" />
    <glyph glyph-name="ellipsis" unicode="&#x2026;" horiz-adv-x="1572" 
d="M121 307h307v-307h-307v307zM633 307h307v-307h-307v307zM1145 307h307v-307h-307v307z" />
    <glyph glyph-name="perthousand" unicode="&#x2030;" horiz-adv-x="2732" 
d="M248 1014q0 -287 164 -287q163 0 163 287q0 143 -39 214.5t-124 71.5q-164 0 -164 -286zM760 1014q0 -226 -95 -333.5t-253 -107.5t-253.5 107.5t-95.5 333.5t95.5 333t253.5 107t253 -107t95 -333zM1251 1434h205l-799 -1434h-204zM1333 420q0 -287 164 -287t164 287
t-164 287t-164 -287zM1845 420q0 -226 -95 -333t-253 -107t-253 107t-95 333t95 333t253 107t253 -107t95 -333zM2157 420q0 -287 163 -287q164 0 164 287t-164 287q-163 0 -163 -287zM2669 420q0 -226 -95.5 -333t-253.5 -107t-253 107t-95 333t95 333t253 107t253.5 -107
t95.5 -333z" />
    <glyph glyph-name="minute" unicode="&#x2032;" horiz-adv-x="475" 
d="M129 1434h256v-420l-256 -256v676z" />
    <glyph glyph-name="second" unicode="&#x2033;" horiz-adv-x="874" 
d="M129 1434h256v-420l-256 -256v676zM528 1434h256v-420l-256 -256v676z" />
    <glyph glyph-name="guilsinglleft" unicode="&#x2039;" horiz-adv-x="819" 
d="M709 184h-308l-348 348l348 349h308l-359 -349z" />
    <glyph glyph-name="guilsinglright" unicode="&#x203a;" horiz-adv-x="819" 
d="M469 532l-358 349h307l348 -349l-348 -348h-307z" />
    <glyph glyph-name="uni203D" unicode="&#x203d;" horiz-adv-x="1056" 
d="M375 1065h225v-201q8 11 32 36.5t39 44t28.5 54t13.5 76.5q0 74 -50 124t-145 50q-87 0 -136.5 -43.5t-57.5 -109.5h-267q8 161 135 264.5t326 103.5q214 0 337.5 -111t123.5 -278q0 -73 -21 -132t-54.5 -97.5t-73.5 -72t-80.5 -63t-74 -61.5t-54.5 -77t-21 -101h-225
v594zM334 307h307v-307h-307v307z" />
    <glyph glyph-name="fraction" unicode="&#x2044;" horiz-adv-x="307" 
d="M449 1434h204l-798 -1434h-205z" />
    <glyph glyph-name="uni2070" unicode="&#x2070;" horiz-adv-x="823" 
d="M248 1219q0 -287 164 -287q163 0 163 287q0 143 -39 214.5t-124 71.5q-164 0 -164 -286zM760 1219q0 -226 -95 -333.5t-253 -107.5t-253.5 107.5t-95.5 333.5t95.5 333t253.5 107t253 -107t95 -333z" />
    <glyph glyph-name="uni2074" unicode="&#x2074;" horiz-adv-x="786" 
d="M416 1638h205v-532h122v-154h-122v-153h-185v153h-399v154zM436 1106v133q0 92 10 205h-8q-36 -73 -106 -174l-115 -164h219z" />
    <glyph glyph-name="uni2075" unicode="&#x2075;" horiz-adv-x="739" 
d="M74 1167l30 471h533v-153h-358l-11 -154q60 51 144 51q127 0 201.5 -85t74.5 -212q0 -133 -88 -220t-233 -87q-71 0 -128.5 20.5t-94.5 56t-59.5 78t-31.5 91.5h191q15 -96 123 -96q62 0 99.5 42.5t37.5 114.5q0 78 -35.5 118t-97.5 40q-83 0 -117 -76h-180z" />
    <glyph glyph-name="uni2076" unicode="&#x2076;" horiz-adv-x="788" 
d="M412 1659q116 0 189 -51t97 -144h-190q-6 15 -12.5 24t-28.5 20.5t-55 11.5q-75 0 -114.5 -60t-39.5 -153q62 69 184 69q140 0 218.5 -83.5t78.5 -207.5q0 -132 -90.5 -219.5t-236.5 -87.5q-75 0 -134.5 22.5t-99 62t-66 95.5t-38 120.5t-11.5 140.5q0 119 28 206.5
t78 137t110.5 73t132.5 23.5zM412 922q65 0 104 47t39 106q0 68 -36.5 116t-106.5 48q-72 0 -108 -48t-36 -116q0 -64 39 -108.5t105 -44.5z" />
    <glyph glyph-name="uni2077" unicode="&#x2077;" horiz-adv-x="669" 
d="M276 799h-194l358 686h-399v153h594v-153z" />
    <glyph glyph-name="uni2078" unicode="&#x2078;" horiz-adv-x="778" 
d="M266 1409q0 -46 32 -77.5t91 -31.5t91 31.5t32 77.5q0 44 -32.5 75.5t-90.5 31.5t-90.5 -31.5t-32.5 -75.5zM532 1044q0 51 -37.5 87t-105.5 36t-105.5 -36t-37.5 -87t37.5 -86.5t105.5 -35.5t105.5 35.5t37.5 86.5zM584 1249q65 -30 99 -85.5t34 -125.5
q0 -117 -90 -188.5t-238 -71.5t-238 71.5t-90 188.5q0 70 34.5 125.5t99.5 85.5q-57 25 -85 71t-28 97q0 104 82 173t225 69t225 -69t82 -173q0 -52 -28 -97.5t-84 -70.5z" />
    <glyph glyph-name="uni2079" unicode="&#x2079;" horiz-adv-x="790" 
d="M369 778q-116 0 -190 51t-97 144h190q24 -55 97 -55q81 0 122 59.5t41 152.5q-62 -69 -184 -69q-140 0 -218.5 83.5t-78.5 207.5q0 132 91 219.5t237 87.5q93 0 161.5 -32t108.5 -91t59 -135t19 -172q0 -119 -28 -208t-78 -141t-113 -77t-139 -25zM379 1516
q-65 0 -104 -47.5t-39 -106.5q0 -68 36 -116t107 -48q70 0 106.5 48t36.5 116q0 65 -38.5 109.5t-104.5 44.5z" />
    <glyph glyph-name="uni2080" unicode="&#x2080;" horiz-adv-x="823" 
d="M248 217q0 -287 164 -287q163 0 163 287t-163 287q-164 0 -164 -287zM760 217q0 -226 -95 -333t-253 -107t-253.5 107t-95.5 333t95.5 333t253.5 107t253 -107t95 -333z" />
    <glyph glyph-name="uni2081" unicode="&#x2081;" horiz-adv-x="559" 
d="M248 -203v625l-205 -215v225l205 205h184v-840h-184z" />
    <glyph glyph-name="uni2082" unicode="&#x2082;" horiz-adv-x="733" 
d="M61 422q8 100 83.5 167.5t213.5 67.5q141 0 219 -72t78 -184q0 -141 -153 -276l-195 -174h369v-154h-615v154l318 297q51 48 71.5 82t20.5 71q0 43 -28 73t-85 30q-100 0 -110 -82h-187z" />
    <glyph glyph-name="uni2083" unicode="&#x2083;" horiz-adv-x="741" 
d="M231 23q6 -38 35.5 -65.5t91.5 -27.5q66 0 102 31.5t36 81.5t-34 81.5t-100 31.5h-71v143h71q54 0 83.5 30t29.5 72t-29.5 72.5t-83.5 30.5q-53 0 -80.5 -24.5t-29.5 -57.5h-186q8 102 88 168.5t208 66.5q131 0 214 -68.5t83 -176.5q0 -59 -31 -104t-81 -70
q63 -24 98 -76.5t35 -128.5q0 -114 -91 -185t-231 -71q-134 0 -221 71.5t-92 174.5h186z" />
    <glyph glyph-name="uni2084" unicode="&#x2084;" horiz-adv-x="786" 
d="M416 637h205v-533h122v-153h-122v-154h-185v154h-399v153zM436 104v134q0 91 10 204h-8q-36 -73 -106 -174l-115 -164h219z" />
    <glyph glyph-name="uni2085" unicode="&#x2085;" horiz-adv-x="739" 
d="M74 166l30 471h533v-154h-358l-11 -153q60 51 144 51q127 0 201.5 -85t74.5 -212q0 -133 -88 -220t-233 -87q-71 0 -128.5 20.5t-94.5 56t-59.5 78t-31.5 91.5h191q15 -97 123 -97q62 0 99.5 43t37.5 115q0 78 -35.5 118t-97.5 40q-83 0 -117 -76h-180z" />
    <glyph glyph-name="uni2086" unicode="&#x2086;" horiz-adv-x="788" 
d="M412 657q116 0 189.5 -50.5t96.5 -143.5h-190q-24 55 -96 55q-75 0 -114.5 -60t-39.5 -153q63 70 184 70q140 0 218.5 -83.5t78.5 -207.5q0 -132 -90.5 -219.5t-236.5 -87.5q-93 0 -162 33.5t-109 94.5t-59 138.5t-19 173.5q0 119 28 206.5t78 137t110.5 73t132.5 23.5z
M412 -80q65 0 104 47.5t39 106.5q0 68 -36.5 116t-106.5 48q-72 0 -108 -48t-36 -116q0 -65 39 -109.5t105 -44.5z" />
    <glyph glyph-name="uni2087" unicode="&#x2087;" horiz-adv-x="669" 
d="M276 -203h-194l358 686h-399v154h594v-154z" />
    <glyph glyph-name="uni2088" unicode="&#x2088;" horiz-adv-x="778" 
d="M266 408q0 -46 32 -77.5t91 -31.5t91 31.5t32 77.5q0 44 -32.5 75t-90.5 31t-90.5 -31t-32.5 -75zM532 43q0 51 -37.5 87t-105.5 36t-105.5 -36t-37.5 -87t37.5 -87t105.5 -36t105.5 36t37.5 87zM584 248q65 -30 99 -85.5t34 -125.5q0 -117 -90 -188.5t-238 -71.5
t-238 71.5t-90 188.5q0 70 34.5 125.5t99.5 85.5q-57 25 -85 71t-28 97q0 104 82 172.5t225 68.5t225 -68.5t82 -172.5q0 -52 -28 -97.5t-84 -70.5z" />
    <glyph glyph-name="uni2089" unicode="&#x2089;" horiz-adv-x="790" 
d="M369 -223q-116 0 -190 50.5t-97 143.5h190q24 -55 97 -55q81 0 122 59.5t41 153.5q-63 -70 -184 -70q-140 0 -218.5 83.5t-78.5 207.5q0 132 91 219.5t237 87.5q93 0 161.5 -32t108.5 -91t59 -135t19 -172q0 -119 -28 -208t-78.5 -140.5t-113 -76.5t-138.5 -25zM379 514
q-65 0 -104 -47.5t-39 -106.5q0 -68 36 -115.5t107 -47.5q70 0 106.5 47.5t36.5 115.5q0 65 -38.5 109.5t-104.5 44.5z" />
    <glyph glyph-name="colonmonetary" unicode="&#x20a1;" horiz-adv-x="1476" 
d="M682 -23q-76 11 -162 41l-61 -223h-197l88 320q-128 100 -196 255t-68 347q0 200 76.5 362.5t222.5 263.5t340 117l49 178h197l-51 -182q68 -7 161 -41l62 223h196l-90 -325q104 -90 168 -248h-237l-236 -850q139 49 195 184h288q-60 -182 -198 -295t-352 -131l-50 -178
h-196zM584 248q69 -40 159 -49l273 985q-62 42 -158 51zM352 717q0 -179 78 -314l227 814q-147 -48 -226 -185.5t-79 -314.5z" />
    <glyph glyph-name="uni20A6" unicode="&#x20a6;" horiz-adv-x="1732" 
d="M242 985v449h286l310 -449h387v449h266v-449h160v-205h-160v-127h160v-204h-160v-449h-287l-309 449h-387v-449h-266v449h-160v204h160v127h-160v205h160zM506 780q2 -39 2 -127h246q-30 42 -84 127h-164zM494 1055q4 -62 4 -70h43l-39 70h-8zM1239 379q-4 62 -4 70h-43
l39 -70h8zM1227 653q-2 39 -2 127h-246q30 -42 84 -127h164z" />
    <glyph glyph-name="Euro" unicode="&#x20ac;" horiz-adv-x="1404" 
d="M492 768v-51q0 -39 2 -72h417l-80 -205h-307q38 -128 113.5 -192t181.5 -64q193 0 244 144h268q-28 -119 -106.5 -201.5t-181 -120t-224.5 -37.5q-99 0 -184.5 26.5t-159.5 81.5t-128.5 147.5t-82.5 215.5h-192v205h166q-2 33 -2 72v51h-164v205h188q24 128 78 224
t129.5 153.5t163.5 85.5t188 28q122 0 224.5 -37t181 -119.5t106.5 -201.5h-268q-50 143 -244 143q-111 0 -187.5 -69t-111.5 -207h520l-79 -205h-469z" />
    <glyph glyph-name="uni20B2" unicode="&#x20b2;" horiz-adv-x="1548" 
d="M682 -23q-181 24 -316.5 125t-207.5 260t-72 355q0 295 160 496.5t436 242.5v182h205v-178q202 -19 334.5 -123.5t195.5 -271.5h-293q-74 138 -237 168v-1032q133 24 210.5 113t84.5 239h-174v225h430v-778h-205l-21 143q-118 -144 -325 -168v-180h-205v182zM352 717
q0 -186 86 -327t244 -181v1016q-158 -43 -244 -182t-86 -326z" />
    <glyph glyph-name="uni20B5" unicode="&#x20b5;" horiz-adv-x="1478" 
d="M1427 399q-60 -181 -195 -294t-345 -132v-178h-205v182q-276 41 -436 243t-160 497t160 496.5t436 242.5v182h205v-178q202 -19 334.5 -123.5t195.5 -271.5h-293q-74 138 -237 168v-1032q185 34 252 198h288zM352 717q0 -186 86 -327t244 -181v1016q-158 -43 -244 -182
t-86 -326z" />
    <glyph glyph-name="uni20BA" unicode="&#x20ba;" horiz-adv-x="1361" 
d="M113 1042l247 91v301h267v-203l391 143v-205l-391 -143v-143l391 143v-205l-391 -143v-451q122 5 213.5 74t135.5 172.5t44 222.5h260q0 -155 -59 -287t-159.5 -220.5t-235 -138.5t-285.5 -50h-181v580l-247 -91v205l247 90v144l-247 -90v204z" />
    <glyph glyph-name="uni20BF" unicode="&#x20bf;" horiz-adv-x="1454" 
d="M758 0h-113v-205h-205v205h-270v1434h270v204h205v-204h113v204h205v-211q160 -25 257 -127t97 -256q0 -181 -154 -286q205 -120 205 -348q0 -172 -112 -284t-293 -124v-207h-205v205zM897 225q104 0 154.5 52t50.5 143q0 90 -52 147.5t-153 57.5h-461v-400h461zM856 850
q92 0 143.5 49t51.5 135q0 85 -51 129.5t-144 44.5h-420v-358h420z" />
    <glyph glyph-name="uni2113" unicode="&#x2113;" horiz-adv-x="1130" 
d="M82 451q86 28 145 57q-12 114 -12 240q0 96 16 192.5t53 192t90 168.5t134 118t178 45q154 0 238 -82t84 -235q0 -211 -139.5 -390t-381.5 -313q24 -152 80 -221t150 -69q101 0 213 41l-80 -201q-73 -25 -150 -25q-334 0 -438 367q-39 -17 -180 -68v183zM467 768
q0 -92 2 -133q350 225 350 508q0 137 -129 137q-61 0 -106 -47.5t-69.5 -125.5t-36 -163t-11.5 -176z" />
    <glyph glyph-name="uni2117" unicode="&#x2117;" horiz-adv-x="1654" 
d="M80 717q0 151 59.5 289t160 238.5t238.5 160t289 59.5t289.5 -59.5t239 -160t160 -238.5t59.5 -289t-59.5 -289.5t-160 -239t-239 -160t-289.5 -59.5t-289 59.5t-238.5 160t-160 239t-59.5 289.5zM233 717q0 -161 79.5 -298t216.5 -216.5t298 -79.5t298 79.5t216.5 216.5
t79.5 298t-79.5 298t-216.5 216.5t-298 79.5t-298 -79.5t-216.5 -216.5t-79.5 -298zM950 758q53 0 83 31.5t30 80.5t-30.5 81t-82.5 32h-235v-225h235zM715 604v-307h-185v840h441q122 0 199 -75.5t77 -191.5t-77 -191t-199 -75h-256z" />
    <glyph glyph-name="trademark" unicode="&#x2122;" horiz-adv-x="2017" 
d="M797 1280h-277v-686h-184v686h-277v154h738v-154zM1200 932q-37 67 -100 215h-8q12 -138 12 -225v-328h-184v840h204l170 -320q55 -104 97 -203q47 109 96 203l170 320h205v-840h-185v328q0 76 13 225h-9q-63 -148 -100 -215l-190 -338z" />
    <glyph glyph-name="Omega" unicode="&#x2126;" horiz-adv-x="1470" 
d="M735 1260q-179 0 -282 -127t-103 -324q0 -187 85 -303t229 -148v-358h-537v205h342v10q-175 68 -274 230.5t-99 373.5q0 188 80 334.5t226 228.5t333 82t333 -82t226 -228.5t80 -334.5q0 -211 -99 -373.5t-274 -230.5v-10h342v-205h-536v358q144 32 228.5 148t84.5 303
q0 197 -103 324t-282 127z" />
    <glyph glyph-name="estimated" unicode="&#x212e;" 
d="M829 1382q-264 0 -460 -186v-438h921v438q-196 186 -461 186zM1403 238q-107 -126 -255.5 -197.5t-318.5 -71.5q-151 0 -289 59.5t-238.5 160t-160 239t-59.5 289.5t59.5 289t160 238.5t238.5 160t289 59.5t289.5 -59.5t239 -160t160 -238.5t59.5 -289v-41h-1208v-438
q193 -187 460 -187q151 0 283.5 63t226.5 175z" />
    <glyph glyph-name="uni2150" unicode="&#x2150;" horiz-adv-x="1570" 
d="M246 594v625l-205 -215v225l205 205h184v-840h-184zM1016 1434h205l-799 -1434h-205zM1180 0h-195l358 686h-399v154h594v-154z" />
    <glyph glyph-name="uni2151" unicode="&#x2151;" horiz-adv-x="1665" 
d="M246 594v625l-205 -215v225l205 205h184v-840h-184zM1016 1434h205l-799 -1434h-205zM1243 -20q-116 0 -190 50.5t-97 143.5h191q24 -55 96 -55q81 0 122.5 60t41.5 153q-63 -70 -184 -70q-140 0 -218.5 83.5t-78.5 207.5q0 132 90.5 219.5t236.5 87.5q93 0 162 -32
t109 -91t59 -135.5t19 -171.5q0 -119 -28 -208t-78.5 -140.5t-113.5 -76.5t-139 -25zM1253 717q-65 0 -104 -47.5t-39 -106.5q0 -68 36 -116t107 -48q70 0 107 48t37 116q0 65 -39 109.5t-105 44.5z" />
    <glyph glyph-name="uni2152" unicode="&#x2152;" horiz-adv-x="2265" 
d="M246 594v625l-205 -215v225l205 205h184v-840h-184zM1016 1434h205l-799 -1434h-205zM1124 0v625l-204 -215v225l204 205h185v-840h-185zM1690 420q0 -287 163 -287q164 0 164 287t-164 287q-163 0 -163 -287zM2202 420q0 -226 -95.5 -333t-253.5 -107t-253 107t-95 333
t95 333t253 107t253.5 -107t95.5 -333z" />
    <glyph glyph-name="onethird" unicode="&#x2153;" horiz-adv-x="1613" 
d="M246 594v625l-205 -215v225l205 205h184v-840h-184zM1016 1434h205l-799 -1434h-205zM1104 225q6 -38 35.5 -65t91.5 -27q66 0 101.5 31.5t35.5 81.5t-33.5 81t-99.5 31h-72v144h72q54 0 83.5 30t29.5 72t-29.5 72.5t-83.5 30.5q-53 0 -81 -24.5t-30 -57.5h-186
q8 102 88.5 168.5t208.5 66.5q131 0 214 -68.5t83 -177.5q0 -59 -31.5 -104t-81.5 -70q63 -24 98 -76t35 -128q0 -114 -90.5 -185t-230.5 -71q-135 0 -221.5 71t-91.5 174h186z" />
    <glyph glyph-name="twothirds" unicode="&#x2154;" horiz-adv-x="1779" 
d="M61 1219q8 100 83.5 167.5t213.5 67.5q141 0 219 -72t78 -184q0 -141 -153 -276l-195 -174h369v-154h-615v154l318 296q50 48 71 82t21 72q0 43 -28 72.5t-85 29.5q-100 0 -110 -81h-187zM1182 1434h204l-798 -1434h-205zM1270 225q6 -38 35.5 -65t91.5 -27
q66 0 101.5 31.5t35.5 81.5t-33.5 81t-99.5 31h-72v144h72q54 0 83 30t29 72t-29 72.5t-83 30.5q-53 0 -81 -24.5t-30 -57.5h-186q8 102 88.5 168.5t208.5 66.5q131 0 214 -68.5t83 -177.5q0 -59 -31.5 -104t-81.5 -70q63 -24 98 -76t35 -128q0 -114 -90.5 -185t-230.5 -71
q-135 0 -222 71t-92 174h187z" />
    <glyph glyph-name="uni2155" unicode="&#x2155;" horiz-adv-x="1613" 
d="M246 594v625l-205 -215v225l205 205h184v-840h-184zM1016 1434h205l-799 -1434h-205zM948 369l31 471h532v-154h-358l-10 -154q61 52 143 52q127 0 202 -85t75 -212q0 -133 -88.5 -220t-233.5 -87q-71 0 -128 20.5t-94 55.5t-59.5 77.5t-31.5 91.5h190q15 -96 123 -96
q62 0 99.5 43t37.5 115q0 77 -35.5 117t-97.5 40q-83 0 -117 -75h-180z" />
    <glyph glyph-name="uni2156" unicode="&#x2156;" horiz-adv-x="1779" 
d="M61 1219q8 100 83.5 167.5t213.5 67.5q141 0 219 -72t78 -184q0 -141 -153 -276l-195 -174h369v-154h-615v154l318 296q50 48 71 82t21 72q0 43 -28 72.5t-85 29.5q-100 0 -110 -81h-187zM1182 1434h204l-798 -1434h-205zM1114 369l31 471h532v-154h-358l-10 -154
q61 52 143 52q127 0 202 -85t75 -212q0 -133 -88.5 -220t-233.5 -87q-71 0 -128 20.5t-94 55.5t-59.5 77.5t-31.5 91.5h190q15 -96 123 -96q62 0 99.5 43t37.5 115q0 77 -35.5 117t-97.5 40q-83 0 -117 -75h-180z" />
    <glyph glyph-name="uni2157" unicode="&#x2157;" horiz-adv-x="1785" 
d="M229 819q6 -38 35.5 -65t91.5 -27q66 0 102 31.5t36 81.5t-34 81t-100 31h-71v144h71q54 0 83.5 30t29.5 72t-29.5 72t-83.5 30q-53 0 -80.5 -24t-29.5 -57h-187q8 102 88.5 168.5t208.5 66.5q131 0 214 -68.5t83 -177.5q0 -59 -31 -104t-81 -70q63 -24 98 -76.5
t35 -128.5q0 -114 -91 -185t-231 -71q-134 0 -221 71.5t-92 174.5h186zM1188 1434h205l-799 -1434h-205zM1120 369l31 471h532v-154h-358l-10 -154q61 52 143 52q127 0 202 -85t75 -212q0 -133 -88.5 -220t-233.5 -87q-71 0 -128 20.5t-94 55.5t-59.5 77.5t-31.5 91.5h190
q15 -96 123 -96q62 0 99.5 43t37.5 115q0 77 -35.5 117t-97.5 40q-83 0 -117 -75h-180z" />
    <glyph glyph-name="uni2158" unicode="&#x2158;" horiz-adv-x="1832" 
d="M416 1434h205v-533h122v-153h-122v-154h-185v154h-399v153zM436 901v133q0 92 10 205h-8q-36 -73 -106 -174l-115 -164h219zM1235 1434h205l-799 -1434h-205zM1167 369l31 471h533v-154h-359l-10 -154q61 52 143 52q127 0 202 -85t75 -212q0 -133 -88.5 -220t-233.5 -87
q-71 0 -128 20.5t-94 55.5t-59.5 77.5t-31.5 91.5h190q15 -96 123 -96q62 0 99.5 43t37.5 115q0 77 -35.5 117t-97.5 40q-82 0 -116 -75h-181z" />
    <glyph glyph-name="uni2159" unicode="&#x2159;" horiz-adv-x="1638" 
d="M246 594v625l-205 -215v225l205 205h184v-840h-184zM1016 1434h205l-799 -1434h-205zM1262 860q116 0 189.5 -50.5t96.5 -143.5h-190q-24 55 -96 55q-75 0 -114.5 -60t-39.5 -153q63 70 184 70q140 0 218.5 -83.5t78.5 -207.5q0 -132 -90.5 -219.5t-236.5 -87.5
q-93 0 -162 33.5t-109 94.5t-59 138.5t-19 173.5q0 119 28 206.5t78 137t110.5 73t132.5 23.5zM1262 123q65 0 104 47t39 106q0 68 -36.5 116t-106.5 48q-72 0 -108 -48t-36 -116q0 -64 39 -108.5t105 -44.5z" />
    <glyph glyph-name="uni215A" unicode="&#x215a;" horiz-adv-x="1810" 
d="M74 963l30 471h533v-154h-358l-11 -154q61 52 144 52q127 0 201.5 -85t74.5 -212q0 -133 -88 -220.5t-233 -87.5q-71 0 -128.5 20.5t-94.5 56t-59.5 78t-31.5 91.5h191q15 -96 123 -96q62 0 99.5 43t37.5 115q0 77 -35.5 117t-97.5 40q-83 0 -117 -75h-180zM1188 1434
h205l-799 -1434h-205zM1434 860q116 0 189.5 -50.5t96.5 -143.5h-190q-24 55 -96 55q-75 0 -114.5 -60t-39.5 -153q63 70 184 70q140 0 218.5 -83.5t78.5 -207.5q0 -132 -90.5 -219.5t-236.5 -87.5q-93 0 -162 33.5t-109 94.5t-59 138.5t-19 173.5q0 119 28 206.5t78 137
t110.5 73t132.5 23.5zM1434 123q65 0 104 47t39 106q0 68 -36.5 116t-106.5 48q-72 0 -108 -48t-36 -116q0 -64 39 -108.5t105 -44.5z" />
    <glyph glyph-name="oneeighth" unicode="&#x215b;" horiz-adv-x="1652" 
d="M246 594v625l-205 -215v225l205 205h184v-840h-184zM1016 1434h205l-799 -1434h-205zM1141 610q0 -46 32 -77t91 -31t90.5 31t31.5 77q0 44 -32 75.5t-90 31.5t-90.5 -31.5t-32.5 -75.5zM1407 246q0 51 -37.5 87t-105.5 36t-106 -36t-38 -87t38 -87t106 -36t105.5 36
t37.5 87zM1458 451q65 -30 99 -85.5t34 -125.5q0 -117 -89.5 -188.5t-237.5 -71.5t-238 71.5t-90 188.5q0 70 34 125.5t99 85.5q-57 25 -85 70.5t-28 96.5q0 104 82.5 173t225.5 69t225 -69t82 -173q0 -51 -28 -96.5t-85 -70.5z" />
    <glyph glyph-name="threeeighths" unicode="&#x215c;" horiz-adv-x="1824" 
d="M229 819q6 -38 35.5 -65t91.5 -27q66 0 102 31.5t36 81.5t-34 81t-100 31h-71v144h71q54 0 83.5 30t29.5 72t-29.5 72t-83.5 30q-53 0 -80.5 -24t-29.5 -57h-187q8 102 88.5 168.5t208.5 66.5q131 0 214 -68.5t83 -177.5q0 -59 -31 -104t-81 -70q63 -24 98 -76.5
t35 -128.5q0 -114 -91 -185t-231 -71q-134 0 -221 71.5t-92 174.5h186zM1188 1434h205l-799 -1434h-205zM1313 610q0 -46 32 -77t91 -31t91 31t32 77q0 44 -32.5 75.5t-90.5 31.5t-90.5 -31.5t-32.5 -75.5zM1579 246q0 51 -37.5 87t-105.5 36t-106 -36t-38 -87t38 -87
t106 -36t105.5 36t37.5 87zM1630 451q65 -30 99 -85.5t34 -125.5q0 -117 -89.5 -188.5t-237.5 -71.5t-238 71.5t-90 188.5q0 70 34 125.5t99 85.5q-57 25 -85 70.5t-28 96.5q0 104 82.5 173t225.5 69t225 -69t82 -173q0 -51 -28 -96.5t-85 -70.5z" />
    <glyph glyph-name="fiveeighths" unicode="&#x215d;" horiz-adv-x="1824" 
d="M74 963l30 471h533v-154h-358l-11 -154q61 52 144 52q127 0 201.5 -85t74.5 -212q0 -133 -88 -220.5t-233 -87.5q-71 0 -128.5 20.5t-94.5 56t-59.5 78t-31.5 91.5h191q15 -96 123 -96q62 0 99.5 43t37.5 115q0 77 -35.5 117t-97.5 40q-83 0 -117 -75h-180zM1188 1434
h205l-799 -1434h-205zM1313 610q0 -46 32 -77t91 -31t91 31t32 77q0 44 -32.5 75.5t-90.5 31.5t-90.5 -31.5t-32.5 -75.5zM1579 246q0 51 -37.5 87t-105.5 36t-106 -36t-38 -87t38 -87t106 -36t105.5 36t37.5 87zM1630 451q65 -30 99 -85.5t34 -125.5q0 -117 -89.5 -188.5
t-237.5 -71.5t-238 71.5t-90 188.5q0 70 34 125.5t99 85.5q-57 25 -85 70.5t-28 96.5q0 104 82.5 173t225.5 69t225 -69t82 -173q0 -51 -28 -96.5t-85 -70.5z" />
    <glyph glyph-name="seveneighths" unicode="&#x215e;" horiz-adv-x="1642" 
d="M276 594h-194l358 686h-399v154h594v-154zM1006 1434h204l-798 -1434h-205zM1130 610q0 -46 32 -77t91 -31t91 31t32 77q0 44 -32.5 75.5t-90.5 31.5t-90.5 -31.5t-32.5 -75.5zM1397 246q0 51 -38 87t-106 36t-105.5 -36t-37.5 -87t37.5 -87t105.5 -36t106 36t38 87z
M1448 451q65 -30 99 -85.5t34 -125.5q0 -117 -90 -188.5t-238 -71.5t-237.5 71.5t-89.5 188.5q0 70 34 125.5t99 85.5q-57 25 -85 70.5t-28 96.5q0 104 82 173t225 69t225.5 -69t82.5 -173q0 -51 -28 -96.5t-85 -70.5z" />
    <glyph glyph-name="uni215F" unicode="&#x215f;" horiz-adv-x="874" 
d="M246 594v625l-205 -215v225l205 205h184v-840h-184zM1016 1434h205l-799 -1434h-205z" />
    <glyph glyph-name="uni2160" unicode="&#x2160;" horiz-adv-x="606" 
d="M170 0v1434h266v-1434h-266z" />
    <glyph glyph-name="uni2161" unicode="&#x2161;" horiz-adv-x="1153" 
d="M170 0v1434h266v-1434h-266zM717 0v1434h266v-1434h-266z" />
    <glyph glyph-name="uni2162" unicode="&#x2162;" horiz-adv-x="1699" 
d="M170 0v1434h266v-1434h-266zM717 0v1434h266v-1434h-266zM1264 0v1434h266v-1434h-266z" />
    <glyph glyph-name="uni2163" unicode="&#x2163;" horiz-adv-x="1894" 
d="M170 0v1434h266v-1434h-266zM1610 1434h276l-532 -1434h-256l-533 1434h277l258 -732q65 -184 123 -405h6q56 213 123 403z" />
    <glyph glyph-name="uni2164" unicode="&#x2164;" horiz-adv-x="1345" 
d="M1057 1434h276l-532 -1434h-256l-533 1434h277l258 -732q65 -184 123 -405h6q56 213 123 403z" />
    <glyph glyph-name="uni2165" unicode="&#x2165;" horiz-adv-x="1894" 
d="M1055 1434h276l-532 -1434h-256l-533 1434h277l258 -732q65 -184 123 -405h6q56 213 123 403zM1458 0v1434h266v-1434h-266z" />
    <glyph glyph-name="uni2166" unicode="&#x2166;" horiz-adv-x="2439" 
d="M1053 1434h276l-532 -1434h-256l-533 1434h277l258 -732q65 -184 123 -405h6q56 213 123 403zM1456 0v1434h266v-1434h-266zM2003 0v1434h266v-1434h-266z" />
    <glyph glyph-name="uni2167" unicode="&#x2167;" horiz-adv-x="2983" 
d="M1051 1434h276l-532 -1434h-256l-533 1434h277l258 -732q65 -184 123 -405h6q56 213 123 403zM1454 0v1434h266v-1434h-266zM2001 0v1434h266v-1434h-266zM2548 0v1434h266v-1434h-266z" />
    <glyph glyph-name="uni2168" unicode="&#x2168;" horiz-adv-x="1886" 
d="M170 0v1434h266v-1434h-266zM1364 758l528 -758h-311l-369 543l-370 -543h-301l528 750l-477 684h311l318 -469l319 469h301z" />
    <glyph glyph-name="uni2169" unicode="&#x2169;" horiz-adv-x="1339" 
d="M817 758l529 -758h-312l-368 543l-371 -543h-301l528 750l-477 684h311l318 -469l319 469h301z" />
    <glyph glyph-name="uni216A" unicode="&#x216a;" horiz-adv-x="1886" 
d="M817 758l529 -758h-312l-368 543l-371 -543h-301l528 750l-477 684h311l318 -469l319 469h301zM1450 0v1434h266v-1434h-266z" />
    <glyph glyph-name="uni216B" unicode="&#x216b;" horiz-adv-x="2433" 
d="M817 758l529 -758h-312l-368 543l-371 -543h-301l528 750l-477 684h311l318 -469l319 469h301zM1450 0v1434h266v-1434h-266zM1997 0v1434h266v-1434h-266z" />
    <glyph glyph-name="uni216C" unicode="&#x216c;" horiz-adv-x="1198" 
d="M170 1434h266v-1209h738v-225h-1004v1434z" />
    <glyph glyph-name="uni216D" unicode="&#x216d;" horiz-adv-x="1478" 
d="M1427 399q-65 -199 -221.5 -314.5t-402.5 -115.5q-216 0 -380 97t-250.5 266t-86.5 385q0 160 50.5 298t142.5 237t227 155.5t297 56.5q238 0 390.5 -107.5t223.5 -291.5h-293q-91 174 -321 174q-108 0 -195 -42.5t-142 -115t-84.5 -166t-29.5 -198.5t29.5 -198.5
t84.5 -166t142 -115t195 -42.5q132 0 216.5 56.5t119.5 147.5h288z" />
    <glyph glyph-name="uni216E" unicode="&#x216e;" horiz-adv-x="1497" 
d="M1409 717q0 -338 -185.5 -527.5t-510.5 -189.5h-543v1434h543q325 0 510.5 -190.5t185.5 -526.5zM436 225h256q451 0 451 492q0 491 -451 491h-256v-983z" />
    <glyph glyph-name="uni216F" unicode="&#x216f;" horiz-adv-x="1855" 
d="M602 625q-89 163 -176 389h-8q18 -281 18 -410v-604h-266v1434h297l278 -545q102 -198 183 -387q85 200 182 387l279 545h297v-1434h-267v604q0 114 19 410h-8q-9 -21 -40.5 -96t-44.5 -104t-39 -84t-53 -105l-325 -625z" />
    <glyph glyph-name="uni2170" unicode="&#x2170;" horiz-adv-x="528" 
d="M137 1065h254v-1065h-254v1065zM137 1434h254v-226h-254v226z" />
    <glyph glyph-name="uni2171" unicode="&#x2171;" horiz-adv-x="1009" 
d="M137 1065h254v-1065h-254v1065zM137 1434h254v-226h-254v226zM618 1065h254v-1065h-254v1065zM618 1434h254v-226h-254v226z" />
    <glyph glyph-name="uni2172" unicode="&#x2172;" horiz-adv-x="1490" 
d="M137 1065h254v-1065h-254v1065zM137 1434h254v-226h-254v226zM618 1065h254v-1065h-254v1065zM618 1434h254v-226h-254v226zM1100 1065h254v-1065h-254v1065zM1100 1434h254v-226h-254v226z" />
    <glyph glyph-name="uni2173" unicode="&#x2173;" horiz-adv-x="1595" 
d="M137 1065h254v-1065h-254v1065zM137 1434h254v-226h-254v226zM506 1065h270l148 -410q40 -105 114 -379h9q74 274 114 379l148 410h270l-410 -1065h-254z" />
    <glyph glyph-name="uni2174" unicode="&#x2174;" horiz-adv-x="1114" 
d="M20 1065h271l147 -410q44 -114 115 -379h8q71 265 115 379l147 410h271l-410 -1065h-254z" />
    <glyph glyph-name="uni2175" unicode="&#x2175;" horiz-adv-x="1595" 
d="M18 1065h271l147 -410q44 -114 115 -379h8q71 265 115 379l147 410h271l-410 -1065h-254zM1204 1065h254v-1065h-254v1065zM1204 1434h254v-226h-254v226z" />
    <glyph glyph-name="uni2176" unicode="&#x2176;" horiz-adv-x="2072" 
d="M14 1065h271l147 -410q44 -114 115 -379h8q71 265 115 379l147 410h270l-409 -1065h-254zM1200 1065h254v-1065h-254v1065zM1200 1434h254v-226h-254v226zM1681 1065h254v-1065h-254v1065zM1681 1434h254v-226h-254v226z" />
    <glyph glyph-name="uni2177" unicode="&#x2177;" horiz-adv-x="2551" 
d="M12 1065h271l147 -410q44 -114 115 -379h8q71 265 115 379l147 410h270l-409 -1065h-254zM1198 1065h254v-1065h-254v1065zM1198 1434h254v-226h-254v226zM1679 1065h254v-1065h-254v1065zM1679 1434h254v-226h-254v226zM2161 1065h254v-1065h-254v1065zM2161 1434h254
v-226h-254v226z" />
    <glyph glyph-name="uni2178" unicode="&#x2178;" horiz-adv-x="1568" 
d="M137 1065h254v-1065h-254v1065zM137 1434h254v-226h-254v226zM1165 555l398 -555h-303l-236 356l-236 -356h-299l398 551l-367 514h301l207 -315l207 315h297z" />
    <glyph glyph-name="uni2179" unicode="&#x2179;" horiz-adv-x="1085" 
d="M682 555l397 -555h-303l-235 356l-236 -356h-299l397 551l-366 514h301l207 -315l207 315h297z" />
    <glyph glyph-name="uni217A" unicode="&#x217a;" horiz-adv-x="1568" 
d="M682 555l397 -555h-303l-235 356l-236 -356h-299l397 551l-366 514h301l207 -315l207 315h297zM1178 1065h254v-1065h-254v1065zM1178 1434h254v-226h-254v226z" />
    <glyph glyph-name="uni217B" unicode="&#x217b;" horiz-adv-x="2050" 
d="M682 555l397 -555h-303l-235 356l-236 -356h-299l397 551l-366 514h301l207 -315l207 315h297zM1178 1065h254v-1065h-254v1065zM1178 1434h254v-226h-254v226zM1659 1065h254v-1065h-254v1065zM1659 1434h254v-226h-254v226z" />
    <glyph glyph-name="uni217C" unicode="&#x217c;" horiz-adv-x="528" 
d="M137 1434h254v-1434h-254v1434z" />
    <glyph glyph-name="uni217D" unicode="&#x217d;" horiz-adv-x="1157" 
d="M1108 307q-49 -159 -171.5 -248.5t-313.5 -89.5q-254 0 -400.5 158.5t-146.5 404.5q0 161 63 287.5t188.5 201.5t295.5 75q184 0 305 -85.5t170 -232.5h-273q-50 117 -202 117q-80 0 -139 -31.5t-91.5 -85.5t-47.5 -115t-15 -131t15 -131t47.5 -114.5t91.5 -85t139 -31.5
q172 0 215 137h270z" />
    <glyph glyph-name="uni217E" unicode="&#x217e;" horiz-adv-x="1296" 
d="M915 532q0 161 -81 260t-211 99q-137 0 -215 -94.5t-78 -264.5q0 -169 78 -263.5t215 -94.5q130 0 211 98.5t81 259.5zM905 133q-112 -164 -334 -164q-116 0 -210.5 45t-156 122.5t-95 179t-33.5 216.5q0 155 56.5 281.5t171 204.5t267.5 78q222 0 334 -164v502h254
v-1434h-254v133z" />
    <glyph glyph-name="uni217F" unicode="&#x217f;" horiz-adv-x="1931" 
d="M391 942q96 154 303 154q247 0 348 -185q101 185 359 185q85 0 157.5 -25.5t127.5 -75.5t86.5 -129t31.5 -180v-686h-254v645q0 121 -48.5 178.5t-162.5 57.5q-103 0 -172 -65.5t-69 -201.5v-614h-254v645q0 121 -48.5 178.5t-162.5 57.5q-103 0 -172.5 -65.5
t-69.5 -201.5v-614h-254v1065h254v-123z" />
    <glyph glyph-name="uni2189" unicode="&#x2189;" horiz-adv-x="1849" 
d="M248 1014q0 -287 164 -287q163 0 163 287q0 143 -39 214.5t-124 71.5q-164 0 -164 -286zM760 1014q0 -226 -95 -333.5t-253 -107.5t-253.5 107.5t-95.5 333.5t95.5 333t253.5 107t253 -107t95 -333zM1251 1434h205l-799 -1434h-204zM1339 225q6 -38 35.5 -65t91.5 -27
q66 0 102 31.5t36 81.5t-34 81t-100 31h-71v144h71q54 0 83.5 30t29.5 72t-29.5 72.5t-83.5 30.5q-53 0 -80.5 -24.5t-29.5 -57.5h-186q8 102 88 168.5t208 66.5q131 0 214 -68.5t83 -177.5q0 -59 -31 -104t-81 -70q63 -24 98 -76t35 -128q0 -114 -91 -185t-231 -71
q-135 0 -221.5 71t-91.5 174h186z" />
    <glyph glyph-name="arrowleft" unicode="&#x2190;" horiz-adv-x="1669" 
d="M471 655h1075v-245h-1075l440 -410h-297l-532 532l532 533h297z" />
    <glyph glyph-name="arrowup" unicode="&#x2191;" horiz-adv-x="1310" 
d="M123 635v297l532 532l533 -532v-297l-410 440v-1075h-246v1075z" />
    <glyph glyph-name="arrowright" unicode="&#x2192;" horiz-adv-x="1669" 
d="M758 1065h297l532 -533l-532 -532h-297l440 410h-1075v245h1075z" />
    <glyph glyph-name="arrowdown" unicode="&#x2193;" horiz-adv-x="1310" 
d="M532 358v1076h246v-1076l410 441v-297l-533 -533l-532 533v297z" />
    <glyph glyph-name="uni2196" unicode="&#x2196;" horiz-adv-x="1368" 
d="M373 471l-209 209v754h754l208 -209l-600 20l760 -760l-174 -174l-760 760z" />
    <glyph glyph-name="uni2197" unicode="&#x2197;" horiz-adv-x="1368" 
d="M1016 1071l-760 -760l-174 174l760 760l-600 -20l209 209h753v-754l-209 -209z" />
    <glyph glyph-name="uni2198" unicode="&#x2198;" horiz-adv-x="1368" 
d="M995 963l209 -209v-754h-753l-209 209l600 -21l-760 760l174 174l760 -760z" />
    <glyph glyph-name="uni2199" unicode="&#x2199;" horiz-adv-x="1368" 
d="M352 362l760 760l174 -174l-760 -760l600 21l-208 -209h-754v754l209 209z" />
    <glyph glyph-name="uni21A5" unicode="&#x21a5;" horiz-adv-x="1290" 
d="M113 164h1065v-164h-1065v164zM338 573v185l307 307l307 -307v-185l-221 236v-563h-172v563z" />
    <glyph glyph-name="uni21A9" unicode="&#x21a9;" horiz-adv-x="2355" 
d="M1751 655q117 0 191.5 75t74.5 192t-74.5 191.5t-191.5 74.5h-317v246h317q106 0 202.5 -40t166.5 -108t111.5 -163t41.5 -201t-41.5 -201t-111.5 -163t-166.5 -108t-202.5 -40h-1280l440 -410h-297l-532 532l532 533h297l-440 -410h1280z" />
    <glyph glyph-name="uni21AA" unicode="&#x21aa;" horiz-adv-x="2355" 
d="M1884 655l-440 410h297l532 -533l-532 -532h-297l440 410h-1280q-106 0 -202.5 40t-166.5 108t-111.5 163t-41.5 201t41.5 201t111.5 163t166.5 108t202.5 40h318v-246h-318q-117 0 -191.5 -74.5t-74.5 -191.5t74.5 -192t191.5 -75h1280z" />
    <glyph glyph-name="partialdiff" unicode="&#x2202;" horiz-adv-x="1232" 
d="M530 174q74 0 136.5 34.5t102.5 90.5t62.5 124.5t22.5 139.5q0 93 -51 159t-150 66q-98 0 -173.5 -59t-112.5 -146.5t-37 -183.5q0 -94 50.5 -159.5t149.5 -65.5zM623 1270q-113 0 -267 -62l31 205q158 51 277 51q126 0 220.5 -41.5t151.5 -117.5t85 -177t28 -227
q0 -375 -100 -600q-67 -145 -200.5 -238.5t-318.5 -93.5q-210 0 -332 120.5t-122 309.5q0 115 40 222t110.5 190t176.5 132.5t230 49.5q169 0 258 -102q4 28 4 72q0 69 -12.5 122t-42.5 96t-84.5 66t-132.5 23z" />
    <glyph glyph-name="Delta" unicode="&#x2206;" horiz-adv-x="1236" 
d="M61 205l431 1229h253l431 -1229v-205h-1115v205zM326 205h585l-293 882z" />
    <glyph glyph-name="product" unicode="&#x220f;" horiz-adv-x="1323" 
d="M899 1229h-475v-1229h-254v1434h983v-1434h-254v1229z" />
    <glyph glyph-name="summation" unicode="&#x2211;" horiz-adv-x="1210" 
d="M1147 -369h-1075v215l522 686l-522 687v215h1054v-215h-739l440 -584v-215l-440 -574h760v-215z" />
    <glyph glyph-name="minus" unicode="&#x2212;" horiz-adv-x="1282" 
d="M129 819h1024v-205h-1024v205z" />
    <glyph glyph-name="uni2215" unicode="&#x2215;" horiz-adv-x="307" 
d="M449 1434h204l-798 -1434h-205z" />
    <glyph glyph-name="uni2219" unicode="&#x2219;" horiz-adv-x="724" 
d="M209 686h307v-307h-307v307z" />
    <glyph glyph-name="radical" unicode="&#x221a;" horiz-adv-x="1179" 
d="M764 1434h414v-205h-222l-338 -1229h-294l-297 1065h264l90 -348q57 -211 90 -389h2q33 162 94 389z" />
    <glyph glyph-name="infinity" unicode="&#x221e;" horiz-adv-x="1564" 
d="M782 563l-82 -82q-123 -123 -276 -123q-141 0 -239.5 96.5t-98.5 241.5t98.5 241.5t239.5 96.5q153 0 276 -123l82 -82l82 82q123 123 277 123q141 0 239.5 -96.5t98.5 -241.5t-98.5 -241.5t-239.5 -96.5q-154 0 -277 123zM291 696q0 -58 38.5 -100.5t104.5 -42.5
q72 0 133 61l82 82l-82 82q-62 62 -133 62q-66 0 -104.5 -43t-38.5 -101zM1274 696q0 58 -39 101t-105 43q-71 0 -133 -62l-82 -82l82 -82q61 -61 133 -61q66 0 105 42.5t39 100.5z" />
    <glyph glyph-name="integral" unicode="&#x222b;" horiz-adv-x="933" 
d="M479 -92q-25 -149 -109 -213t-231 -64h-153v205h139q47 0 68.5 16.5t27.5 55.5l213 1249q25 149 109 213t231 64h174v-205h-160q-47 0 -68.5 -16.5t-27.5 -55.5z" />
    <glyph glyph-name="approxequal" unicode="&#x2248;" horiz-adv-x="1261" 
d="M127 799q0 150 80.5 238.5t226.5 88.5q57 0 111.5 -18t96.5 -43.5t80 -51t74.5 -43.5t67.5 -18q103 0 103 133h184q0 -150 -80.5 -238.5t-226.5 -88.5q-57 0 -112 18t-97 43.5t-79.5 51t-74 43.5t-67.5 18q-103 0 -103 -133h-184zM127 348q0 150 81 239t226 89
q57 0 111.5 -18t96.5 -43.5t80 -51t74.5 -43.5t67.5 -18q103 0 103 133h184q0 -150 -81 -239t-226 -89q-57 0 -112 18t-97 43.5t-79.5 51t-74 43.5t-67.5 18q-103 0 -103 -133h-184z" />
    <glyph glyph-name="notequal" unicode="&#x2260;" horiz-adv-x="1200" 
d="M129 1044h528l107 205h225l-106 -205h188v-204h-295l-127 -246h422v-205h-528l-107 -205h-225l106 205h-188v205h295l127 246h-422v204z" />
    <glyph glyph-name="equivalence" unicode="&#x2261;" horiz-adv-x="1200" 
d="M129 819h942v-205h-942v205zM129 369h942v-205h-942v205zM129 1270h942v-205h-942v205z" />
    <glyph glyph-name="lessequal" unicode="&#x2264;" horiz-adv-x="1216" 
d="M127 389h942v-205h-942v205zM1069 1249v-215l-666 -174l666 -174v-215l-942 277v225z" />
    <glyph glyph-name="greaterequal" unicode="&#x2265;" horiz-adv-x="1216" 
d="M1090 184h-943v205h943v-205zM1090 973v-225l-943 -277v215l666 174l-666 174v215z" />
    <glyph glyph-name="uni2295" unicode="&#x2295;" horiz-adv-x="1290" 
d="M686 573h438q-12 175 -137.5 301t-300.5 138v-439zM604 1012q-175 -12 -300.5 -138t-137.5 -301h438v439zM82 532q0 153 75.5 283t205 205.5t282.5 75.5t282.5 -75.5t205 -205.5t75.5 -283t-75.5 -282.5t-205 -205t-282.5 -75.5t-282.5 75.5t-205 205t-75.5 282.5z
M686 53q175 12 300.5 138t137.5 301h-438v-439zM604 492h-438q12 -175 137.5 -301t300.5 -138v439z" />
    <glyph glyph-name="uni2296" unicode="&#x2296;" horiz-adv-x="1290" 
d="M82 532q0 153 75.5 283t205 205.5t282.5 75.5t282.5 -75.5t205 -205.5t75.5 -283t-75.5 -282.5t-205 -205t-282.5 -75.5t-282.5 75.5t-205 205t-75.5 282.5zM645 1014q-189 0 -325.5 -127t-153.5 -314h958q-17 187 -153.5 314t-325.5 127zM645 51q189 0 325.5 127
t153.5 314h-958q17 -187 153.5 -314t325.5 -127z" />
    <glyph glyph-name="uni2297" unicode="&#x2297;" horiz-adv-x="1290" 
d="M645 1014q-173 0 -311 -113l311 -311l311 311q-138 113 -311 113zM1014 221q112 131 112 311q0 181 -112 312l-312 -312zM164 532q0 -180 112 -311l312 311l-312 312q-112 -131 -112 -312zM82 532q0 153 75.5 283t205 205.5t282.5 75.5t282.5 -75.5t205 -205.5t75.5 -283
t-75.5 -282.5t-205 -205t-282.5 -75.5t-282.5 75.5t-205 205t-75.5 282.5zM645 51q173 0 311 113l-311 311l-311 -311q138 -113 311 -113z" />
    <glyph glyph-name="uni2298" unicode="&#x2298;" horiz-adv-x="1290" 
d="M1208 532q0 -153 -75.5 -282.5t-205 -205t-282.5 -75.5t-282.5 75.5t-205 205t-75.5 282.5t75.5 283t205 205.5t282.5 75.5t282.5 -75.5t205 -205.5t75.5 -283zM645 1014q-131 0 -241.5 -64.5t-175 -175.5t-64.5 -242q0 -180 112 -311l680 680q-138 113 -311 113z
M1126 532q0 181 -112 312l-680 -680q132 -113 311 -113q131 0 241.5 64.5t175 175t64.5 241.5z" />
    <glyph glyph-name="uni22A0" unicode="&#x22a0;" horiz-adv-x="1290" 
d="M1178 1065v-1065h-1065v1065h1065zM588 532l-393 394v-787zM645 475l-393 -393h786zM252 983l393 -393l393 393h-786zM702 532l394 -393v787z" />
    <glyph glyph-name="uni2300" unicode="&#x2300;" horiz-adv-x="1290" 
d="M113 57l106 107q-137 153 -137 368q0 153 75.5 283t205 205.5t282.5 75.5q215 0 369 -138l106 107l58 -57l-107 -107q137 -153 137 -369q0 -153 -75.5 -282.5t-205 -205t-282.5 -75.5q-216 0 -369 137l-106 -106zM1126 532q0 181 -112 312l-680 -680q132 -113 311 -113
q131 0 241.5 64.5t175 175t64.5 241.5zM164 532q0 -180 112 -311l680 680q-132 113 -311 113q-131 0 -241.5 -64.5t-175 -175.5t-64.5 -242z" />
    <glyph glyph-name="uni23CF" unicode="&#x23cf;" horiz-adv-x="1290" 
d="M113 164h1065v-164h-1065v164zM1178 410h-1065l532 655z" />
    <glyph glyph-name="uni23E9" unicode="&#x23e9;" horiz-adv-x="1290" 
d="M643 532l-530 -532v1065zM1178 532l-531 -532v1065z" />
    <glyph glyph-name="uni23EA" unicode="&#x23ea;" horiz-adv-x="1290" 
d="M1178 1065v-1065l-531 532zM643 1065v-1065l-530 532z" />
    <glyph glyph-name="uni23EB" unicode="&#x23eb;" horiz-adv-x="1290" 
d="M1178 0h-1065l532 530zM1178 535h-1065l532 530z" />
    <glyph glyph-name="uni23EC" unicode="&#x23ec;" horiz-adv-x="1290" 
d="M645 535l-532 530h1065zM645 0l-532 530h1065z" />
    <glyph glyph-name="uni23ED" unicode="&#x23ed;" horiz-adv-x="1290" 
d="M559 532l-446 -532v1065zM1010 532l-447 -532v1065zM1014 0v1065h164v-1065h-164z" />
    <glyph glyph-name="uni23EE" unicode="&#x23ee;" horiz-adv-x="1290" 
d="M1178 1065v-1065l-447 532zM727 1065v-1065l-446 532zM113 0v1065h163v-1065h-163z" />
    <glyph glyph-name="uni23F8" unicode="&#x23f8;" horiz-adv-x="1290" 
d="M768 0v1065h328v-1065h-328zM195 0v1065h327v-1065h-327z" />
    <glyph glyph-name="uni23F9" unicode="&#x23f9;" horiz-adv-x="1290" 
d="M113 1065h1065v-1065h-1065v1065z" />
    <glyph glyph-name="uni23FA" unicode="&#x23fa;" horiz-adv-x="1290" 
d="M113 532q0 145 71 268t193.5 194t267.5 71q109 0 207.5 -42t170 -113.5t113.5 -170t42 -207.5q0 -145 -71 -267.5t-194 -193.5t-268 -71t-267.5 71t-193.5 193.5t-71 267.5z" />
    <glyph glyph-name="uni25A0" unicode="&#x25a0;" horiz-adv-x="1290" 
d="M113 1065h1065v-1065h-1065v1065z" />
    <glyph glyph-name="uni25A1" unicode="&#x25a1;" horiz-adv-x="1290" 
d="M113 0v1065h1065v-1065h-1065zM195 82h901v901h-901v-901z" />
    <glyph glyph-name="uni25AF" unicode="&#x25af;" horiz-adv-x="1392" 
d="M164 0v1434h1065v-1434h-1065zM246 82h901v1270h-901v-1270z" />
    <glyph glyph-name="uni25B2" unicode="&#x25b2;" horiz-adv-x="1290" 
d="M1178 0h-1065l532 1065z" />
    <glyph glyph-name="uni25B3" unicode="&#x25b3;" horiz-adv-x="1290" 
d="M1178 0h-1065l532 1065zM645 885l-401 -803h803z" />
    <glyph glyph-name="uni25B6" unicode="&#x25b6;" horiz-adv-x="1290" 
d="M1178 532l-1065 -532v1065z" />
    <glyph glyph-name="uni25B7" unicode="&#x25b7;" horiz-adv-x="1290" 
d="M113 0v1065l1065 -533zM997 532l-802 402v-803z" />
    <glyph glyph-name="uni25BC" unicode="&#x25bc;" horiz-adv-x="1290" 
d="M645 0l-532 1065h1065z" />
    <glyph glyph-name="uni25BD" unicode="&#x25bd;" horiz-adv-x="1290" 
d="M645 0l-532 1065h1065zM1047 983h-803l401 -803z" />
    <glyph glyph-name="uni25C0" unicode="&#x25c0;" horiz-adv-x="1290" 
d="M1178 1065v-1065l-1065 532z" />
    <glyph glyph-name="uni25C1" unicode="&#x25c1;" horiz-adv-x="1290" 
d="M1178 1065v-1065l-1065 532zM293 532l803 -401v803z" />
    <glyph glyph-name="uni25C6" unicode="&#x25c6;" horiz-adv-x="1290" 
d="M1208 532l-563 -563l-563 563l563 564z" />
    <glyph glyph-name="uni25C7" unicode="&#x25c7;" horiz-adv-x="1290" 
d="M82 532l563 564l563 -564l-563 -563zM645 84l449 448l-449 449l-448 -449z" />
    <glyph glyph-name="lozenge" unicode="&#x25ca;" horiz-adv-x="1179" 
d="M74 815l397 619h238l397 -619v-197l-397 -618h-238l-397 618v197zM590 1169l-283 -452l283 -453l282 453z" />
    <glyph glyph-name="uni25CB" unicode="&#x25cb;" horiz-adv-x="1290" 
d="M82 532q0 153 75.5 283t205 205.5t282.5 75.5t282.5 -75.5t205 -205.5t75.5 -283t-75.5 -282.5t-205 -205t-282.5 -75.5t-282.5 75.5t-205 205t-75.5 282.5zM164 532q0 -131 64.5 -241.5t175 -175t241.5 -64.5t241.5 64.5t175 175t64.5 241.5t-64.5 242t-175 175.5
t-241.5 64.5t-241.5 -64.5t-175 -175.5t-64.5 -242z" />
    <glyph glyph-name="uni25CC" unicode="&#x25cc;" horiz-adv-x="1290" 
d="M604 1055q0 17 12 29t29 12t29 -12t12 -29t-12 -29t-29 -12t-29 12t-12 29zM784 1024q0 17 12 29t29 12t29 -12t12 -29t-12 -29t-29 -12t-29 12t-12 29zM940 934q0 17 12 29t29 12t29 -12t12 -29t-12 -29t-29 -12t-29 12t-12 29zM1057 795q0 17 12 29t29 12t29 -12
t12 -29t-12 -29t-29 -12t-29 12t-12 29zM1118 625q0 17 12 29t29 12t29 -12t12 -29t-12 -29t-29 -12t-29 12t-12 29zM506 1024q0 -17 -12 -29t-29 -12t-29 12t-12 29t12 29t29 12t29 -12t12 -29zM350 934q0 -17 -12 -29t-29 -12t-29 12t-12 29t12 29t29 12t29 -12t12 -29z
M233 795q0 -17 -11.5 -29t-28.5 -12t-29 12t-12 29t12 29t29 12t28.5 -12t11.5 -29zM172 625q0 -17 -12 -29t-29 -12t-29 12t-12 29t12 29t29 12t29 -12t12 -29zM604 10q0 17 12 29t29 12t29 -12t12 -29t-12 -29t-29 -12t-29 12t-12 29zM784 41q0 17 12 29t29 12t29 -12
t12 -29t-12 -29t-29 -12t-29 12t-12 29zM940 131q0 17 12 29t29 12t29 -12t12 -29t-12 -29t-29 -12t-29 12t-12 29zM1057 270q0 17 12 29t29 12t29 -12t12 -29t-12 -29t-29 -12t-29 12t-12 29zM1118 440q0 17 12 29t29 12t29 -12t12 -29t-12 -29t-29 -12t-29 12t-12 29z
M506 41q0 -17 -12 -29t-29 -12t-29 12t-12 29t12 29t29 12t29 -12t12 -29zM350 131q0 -17 -12 -29t-29 -12t-29 12t-12 29t12 29t29 12t29 -12t12 -29zM233 270q0 -17 -11.5 -29t-28.5 -12t-29 12t-12 29t12 29t29 12t28.5 -12t11.5 -29zM172 440q0 -17 -12 -29t-29 -12
t-29 12t-12 29t12 29t29 12t29 -12t12 -29z" />
    <glyph glyph-name="uni25CF" unicode="&#x25cf;" horiz-adv-x="1290" 
d="M82 532q0 153 75.5 283t205 205.5t282.5 75.5t282.5 -75.5t205 -205.5t75.5 -283t-75.5 -282.5t-205 -205t-282.5 -75.5t-282.5 75.5t-205 205t-75.5 282.5z" />
    <glyph glyph-name="uni25D0" unicode="&#x25d0;" horiz-adv-x="1290" 
d="M82 532q0 153 75.5 283t205 205.5t282.5 75.5t282.5 -75.5t205 -205.5t75.5 -283t-75.5 -282.5t-205 -205t-282.5 -75.5t-282.5 75.5t-205 205t-75.5 282.5zM645 51q131 0 241.5 64.5t175 175t64.5 241.5t-64.5 242t-175 175.5t-241.5 64.5v-963z" />
    <glyph glyph-name="uni25D1" unicode="&#x25d1;" horiz-adv-x="1290" 
d="M1208 532q0 -153 -75.5 -282.5t-205 -205t-282.5 -75.5t-282.5 75.5t-205 205t-75.5 282.5t75.5 283t205 205.5t282.5 75.5t282.5 -75.5t205 -205.5t75.5 -283zM645 1014q-131 0 -241.5 -64.5t-175 -175.5t-64.5 -242t64.5 -241.5t175 -175t241.5 -64.5v963z" />
    <glyph glyph-name="uni25D2" unicode="&#x25d2;" horiz-adv-x="1290" 
d="M645 -31q-153 0 -282.5 75.5t-205 205t-75.5 282.5t75.5 283t205 205.5t282.5 75.5t282.5 -75.5t205 -205.5t75.5 -283t-75.5 -282.5t-205 -205t-282.5 -75.5zM1126 532q0 131 -64.5 242t-175 175.5t-241.5 64.5t-241.5 -64.5t-175 -175.5t-64.5 -242h962z" />
    <glyph glyph-name="uni25D3" unicode="&#x25d3;" horiz-adv-x="1290" 
d="M645 1096q153 0 282.5 -75.5t205 -205.5t75.5 -283t-75.5 -282.5t-205 -205t-282.5 -75.5t-282.5 75.5t-205 205t-75.5 282.5t75.5 283t205 205.5t282.5 75.5zM164 532q0 -131 64.5 -241.5t175 -175t241.5 -64.5t241.5 64.5t175 175t64.5 241.5h-962z" />
    <glyph glyph-name="uni25D4" unicode="&#x25d4;" horiz-adv-x="1290" 
d="M82 532q0 153 75.5 283t205 205.5t282.5 75.5t282.5 -75.5t205 -205.5t75.5 -283t-75.5 -282.5t-205 -205t-282.5 -75.5t-282.5 75.5t-205 205t-75.5 282.5zM164 532q0 -131 64.5 -241.5t175 -175t241.5 -64.5t241.5 64.5t175 175t64.5 241.5h-481v482
q-131 0 -241.5 -64.5t-175 -175.5t-64.5 -242z" />
    <glyph glyph-name="uni25D5" unicode="&#x25d5;" horiz-adv-x="1290" 
d="M82 532q0 153 75.5 283t205 205.5t282.5 75.5t282.5 -75.5t205 -205.5t75.5 -283t-75.5 -282.5t-205 -205t-282.5 -75.5t-282.5 75.5t-205 205t-75.5 282.5zM645 532v482q-131 0 -241.5 -64.5t-175 -175.5t-64.5 -242h481z" />
    <glyph glyph-name="uni25E7" unicode="&#x25e7;" horiz-adv-x="1290" 
d="M1178 0h-1065v1065h1065v-1065zM1096 82v901h-451v-901h451z" />
    <glyph glyph-name="uni25E8" unicode="&#x25e8;" horiz-adv-x="1290" 
d="M113 1065h1065v-1065h-1065v1065zM645 82v901h-450v-901h450z" />
    <glyph glyph-name="uni25E9" unicode="&#x25e9;" horiz-adv-x="1290" 
d="M113 0v1065h1065v-1065h-1065zM195 82h901v901z" />
    <glyph glyph-name="uni25EA" unicode="&#x25ea;" horiz-adv-x="1290" 
d="M113 0v1065h1065v-1065h-1065zM195 82l901 901h-901v-901z" />
    <glyph glyph-name="uni2610" unicode="&#x2610;" 
d="M113 0v1434h1433v-1434h-1433zM195 82h1269v1270h-1269v-1270z" />
    <glyph glyph-name="uni2611" unicode="&#x2611;" 
d="M113 0v1434h1433v-1434h-1433zM195 82h1269v1270h-1269v-1270zM358 522v174l308 -307l675 840v-195l-665 -829z" />
    <glyph glyph-name="uni2612" unicode="&#x2612;" 
d="M1546 1434v-1434h-1433v1434h1433zM276 221l496 496l-496 495l58 58l495 -496l496 496l57 -58l-495 -495l495 -496l-57 -57l-496 495l-495 -495zM195 82h1269v1270h-1269v-1270z" />
    <glyph glyph-name="uni2630" unicode="&#x2630;" horiz-adv-x="1290" 
d="M113 1065h1065v-164h-1065v164zM113 164h1065v-164h-1065v164zM113 614h1065v-163h-1065v163z" />
    <glyph glyph-name="uni2631" unicode="&#x2631;" horiz-adv-x="1290" 
d="M113 614h1065v-163h-1065v163zM113 164h1065v-164h-1065v164zM758 1065h420v-164h-420v164zM113 1065h419v-164h-419v164z" />
    <glyph glyph-name="uni2632" unicode="&#x2632;" horiz-adv-x="1290" 
d="M113 614h1065v-163h-1065v163zM113 1065h419v-164h-419v164zM113 164h419v-164h-419v164zM758 1065h420v-164h-420v164zM758 164h420v-164h-420v164z" />
    <glyph glyph-name="uni2633" unicode="&#x2633;" horiz-adv-x="1290" 
d="M113 164h1065v-164h-1065v164zM113 1065h419v-164h-419v164zM113 614h419v-163h-419v163zM758 614h420v-163h-420v163zM758 1065h420v-164h-420v164z" />
    <glyph glyph-name="uni2634" unicode="&#x2634;" horiz-adv-x="1290" 
d="M113 1065h1065v-164h-1065v164zM113 614h1065v-163h-1065v163zM113 164h419v-164h-419v164zM758 164h420v-164h-420v164z" />
    <glyph glyph-name="uni2635" unicode="&#x2635;" horiz-adv-x="1290" 
d="M113 614h1065v-163h-1065v163zM113 1065h419v-164h-419v164zM113 164h419v-164h-419v164zM758 1065h420v-164h-420v164zM758 164h420v-164h-420v164z" />
    <glyph glyph-name="uni2636" unicode="&#x2636;" horiz-adv-x="1290" 
d="M113 1065h1065v-164h-1065v164zM758 164h420v-164h-420v164zM113 164h419v-164h-419v164zM758 614h420v-163h-420v163zM113 614h419v-163h-419v163z" />
    <glyph glyph-name="uni2637" unicode="&#x2637;" horiz-adv-x="1290" 
d="M113 1065h419v-164h-419v164zM113 614h419v-163h-419v163zM758 1065h420v-164h-420v164zM758 614h420v-163h-420v163zM113 164h419v-164h-419v164zM758 164h420v-164h-420v164z" />
    <glyph glyph-name="uni2690" unicode="&#x2690;" horiz-adv-x="1290" 
d="M195 0h-82v1065h1065v-573h-983v-492zM195 573h901v410h-901v-410z" />
    <glyph glyph-name="uni2691" unicode="&#x2691;" horiz-adv-x="1290" 
d="M195 0h-82v1065h1065v-573h-983v-492z" />
    <glyph glyph-name="uni2713" unicode="&#x2713;" 
d="M174 465v369l440 -486l871 1280v-379l-860 -1280z" />
    <glyph glyph-name="uni2733" unicode="&#x2733;" horiz-adv-x="1290" 
d="M604 631v434h82v-434l307 307l58 -57l-308 -308h435v-81h-435l308 -308l-58 -57l-307 307v-434h-82v434l-307 -307l-57 57l307 308h-434v81h434l-307 308l57 57z" />
    <glyph glyph-name="uni2780" unicode="&#x2780;" 
d="M82 717q0 151 59.5 289t160 238.5t238.5 160t289 59.5t289.5 -59.5t239 -160t160 -238.5t59.5 -289t-59.5 -289.5t-160 -239t-239 -160t-289.5 -59.5t-289 59.5t-238.5 160t-160 239t-59.5 289.5zM164 717q0 -181 89 -334t242.5 -242.5t333.5 -89.5t333.5 89.5t243 243
t89.5 333.5t-89.5 333.5t-242.5 242.5t-334 89q-135 0 -258 -52.5t-212.5 -142t-142 -212.5t-52.5 -258zM778 297v625l-205 -215v225l205 205h185v-840h-185z" />
    <glyph glyph-name="uni2781" unicode="&#x2781;" 
d="M82 717q0 151 59.5 289t160 238.5t238.5 160t289 59.5t289.5 -59.5t239 -160t160 -238.5t59.5 -289t-59.5 -289.5t-160 -239t-239 -160t-289.5 -59.5t-289 59.5t-238.5 160t-160 239t-59.5 289.5zM164 717q0 -181 89 -334t242.5 -242.5t333.5 -89.5t333.5 89.5t243 243
t89.5 333.5t-89.5 333.5t-242.5 242.5t-334 89q-135 0 -258 -52.5t-212.5 -142t-142 -212.5t-52.5 -258zM532 922q8 100 83.5 167.5t213.5 67.5q141 0 219 -72t78 -184q0 -141 -153 -276l-195 -174h369v-154h-615v154l318 297q51 48 71.5 82t20.5 71q0 43 -28 73t-85 30
q-100 0 -110 -82h-187z" />
    <glyph glyph-name="uni2782" unicode="&#x2782;" 
d="M82 717q0 151 59.5 289t160 238.5t238.5 160t289 59.5t289.5 -59.5t239 -160t160 -238.5t59.5 -289t-59.5 -289.5t-160 -239t-239 -160t-289.5 -59.5t-289 59.5t-238.5 160t-160 239t-59.5 289.5zM164 717q0 -181 89 -334t242.5 -242.5t333.5 -89.5t333.5 89.5t243 243
t89.5 333.5t-89.5 333.5t-242.5 242.5t-334 89q-135 0 -258 -52.5t-212.5 -142t-142 -212.5t-52.5 -258zM698 522q6 -38 35.5 -65t91.5 -27q66 0 102 31.5t36 81.5t-34 81t-100 31h-71v144h71q54 0 83.5 30t29.5 72t-29.5 72.5t-83.5 30.5q-53 0 -80.5 -24.5t-29.5 -57.5
h-187q8 102 88.5 168.5t208.5 66.5q131 0 214 -68.5t83 -177.5q0 -59 -31 -104t-81 -70q63 -24 98 -76.5t35 -128.5q0 -114 -91 -185t-231 -71q-134 0 -221 71.5t-92 174.5h186z" />
    <glyph glyph-name="uni2783" unicode="&#x2783;" 
d="M82 717q0 151 59.5 289t160 238.5t238.5 160t289 59.5t289.5 -59.5t239 -160t160 -238.5t59.5 -289t-59.5 -289.5t-160 -239t-239 -160t-289.5 -59.5t-289 59.5t-238.5 160t-160 239t-59.5 289.5zM164 717q0 -181 89 -334t242.5 -242.5t333.5 -89.5t333.5 89.5t243 243
t89.5 333.5t-89.5 333.5t-242.5 242.5t-334 89q-135 0 -258 -52.5t-212.5 -142t-142 -212.5t-52.5 -258zM809 1137h205v-533h123v-153h-123v-154h-185v154h-399v153zM829 604v133q0 80 11 205h-9q-36 -73 -106 -174l-115 -164h219z" />
    <glyph glyph-name="uni2784" unicode="&#x2784;" 
d="M82 717q0 151 59.5 289t160 238.5t238.5 160t289 59.5t289.5 -59.5t239 -160t160 -238.5t59.5 -289t-59.5 -289.5t-160 -239t-239 -160t-289.5 -59.5t-289 59.5t-238.5 160t-160 239t-59.5 289.5zM164 717q0 -181 89 -334t242.5 -242.5t333.5 -89.5t333.5 89.5t243 243
t89.5 333.5t-89.5 333.5t-242.5 242.5t-334 89q-135 0 -258 -52.5t-212.5 -142t-142 -212.5t-52.5 -258zM532 666l31 471h533v-154h-359l-10 -154q61 52 143 52q127 0 202 -85t75 -212q0 -133 -88.5 -220.5t-233.5 -87.5q-71 0 -128 20.5t-94 56t-59.5 78t-31.5 91.5h190
q15 -96 123 -96q62 0 100 43t38 115q0 77 -36 117t-98 40q-82 0 -116 -75h-181z" />
    <glyph glyph-name="uni2785" unicode="&#x2785;" 
d="M82 717q0 151 59.5 289t160 238.5t238.5 160t289 59.5t289.5 -59.5t239 -160t160 -238.5t59.5 -289t-59.5 -289.5t-160 -239t-239 -160t-289.5 -59.5t-289 59.5t-238.5 160t-160 239t-59.5 289.5zM164 717q0 -181 89 -334t242.5 -242.5t333.5 -89.5t333.5 89.5t243 243
t89.5 333.5t-89.5 333.5t-242.5 242.5t-334 89q-135 0 -258 -52.5t-212.5 -142t-142 -212.5t-52.5 -258zM840 1157q116 0 189.5 -50.5t96.5 -143.5h-190q-24 55 -96 55q-75 0 -114.5 -60t-39.5 -153q62 69 184 69q140 0 218.5 -83.5t78.5 -206.5q0 -133 -90.5 -220.5
t-236.5 -87.5q-75 0 -134.5 22.5t-99 61.5t-65.5 95.5t-37.5 121t-11.5 140.5q0 119 28 206.5t77.5 137t110 73t132.5 23.5zM840 420q65 0 104 47t39 106q0 68 -36.5 116t-106.5 48q-72 0 -108 -48t-36 -116q0 -64 39 -108.5t105 -44.5z" />
    <glyph glyph-name="uni2786" unicode="&#x2786;" 
d="M82 717q0 151 59.5 289t160 238.5t238.5 160t289 59.5t289.5 -59.5t239 -160t160 -238.5t59.5 -289t-59.5 -289.5t-160 -239t-239 -160t-289.5 -59.5t-289 59.5t-238.5 160t-160 239t-59.5 289.5zM164 717q0 -181 89 -334t242.5 -242.5t333.5 -89.5t333.5 89.5t243 243
t89.5 333.5t-89.5 333.5t-242.5 242.5t-334 89q-135 0 -258 -52.5t-212.5 -142t-142 -212.5t-52.5 -258zM799 297h-195l359 686h-400v154h594v-154z" />
    <glyph glyph-name="uni2787" unicode="&#x2787;" 
d="M82 717q0 151 59.5 289t160 238.5t238.5 160t289 59.5t289.5 -59.5t239 -160t160 -238.5t59.5 -289t-59.5 -289.5t-160 -239t-239 -160t-289.5 -59.5t-289 59.5t-238.5 160t-160 239t-59.5 289.5zM164 717q0 -181 89 -334t242.5 -242.5t333.5 -89.5t333.5 89.5t243 243
t89.5 333.5t-89.5 333.5t-242.5 242.5t-334 89q-135 0 -258 -52.5t-212.5 -142t-142 -212.5t-52.5 -258zM707 907q0 -46 31.5 -77t90.5 -31t91 31t32 77q0 44 -32.5 75.5t-90.5 31.5t-90 -31.5t-32 -75.5zM973 543q0 51 -38 87t-106 36t-105.5 -36t-37.5 -87t37.5 -87
t105.5 -36t106 36t38 87zM1024 748q65 -30 99 -85.5t34 -125.5q0 -117 -90 -189t-238 -72q-147 0 -237 72t-90 189q0 70 34 125.5t99 85.5q-57 25 -85 70.5t-28 96.5q0 104 82 173t225 69t225.5 -69t82.5 -173q0 -51 -28 -96.5t-85 -70.5z" />
    <glyph glyph-name="uni2788" unicode="&#x2788;" 
d="M82 717q0 151 59.5 289t160 238.5t238.5 160t289 59.5t289.5 -59.5t239 -160t160 -238.5t59.5 -289t-59.5 -289.5t-160 -239t-239 -160t-289.5 -59.5t-289 59.5t-238.5 160t-160 239t-59.5 289.5zM164 717q0 -181 89 -334t242.5 -242.5t333.5 -89.5t333.5 89.5t243 243
t89.5 333.5t-89.5 333.5t-242.5 242.5t-334 89q-135 0 -258 -52.5t-212.5 -142t-142 -212.5t-52.5 -258zM809 276q-116 0 -190 51t-97 144h191q24 -55 96 -55q81 0 122.5 60t41.5 153q-63 -70 -185 -70q-140 0 -218 83.5t-78 207.5q0 132 90.5 219.5t236.5 87.5
q93 0 161.5 -32t108.5 -91t59 -135t19 -172q0 -119 -28 -208t-78 -141t-113 -77t-139 -25zM819 1014q-65 0 -104 -47.5t-39 -106.5q0 -68 36 -116t107 -48q70 0 107 48t37 116q0 65 -39 109.5t-105 44.5z" />
    <glyph glyph-name="uni278A" unicode="&#x278a;" 
d="M82 717q0 151 59.5 289t160 238.5t238.5 160t289 59.5t289.5 -59.5t239 -160t160 -238.5t59.5 -289t-59.5 -289.5t-160 -239t-239 -160t-289.5 -59.5t-289 59.5t-238.5 160t-160 239t-59.5 289.5zM963 297v840h-185l-205 -205v-225l205 215v-625h185z" />
    <glyph glyph-name="uni278B" unicode="&#x278b;" 
d="M82 717q0 151 59.5 289t160 238.5t238.5 160t289 59.5t289.5 -59.5t239 -160t160 -238.5t59.5 -289t-59.5 -289.5t-160 -239t-239 -160t-289.5 -59.5t-289 59.5t-238.5 160t-160 239t-59.5 289.5zM719 922q10 82 110 82q57 0 85 -30t28 -73q0 -37 -20.5 -71t-71.5 -82
l-318 -297v-154h615v154h-369l195 174q153 135 153 276q0 112 -78 184t-219 72q-138 0 -213.5 -67.5t-83.5 -167.5h187z" />
    <glyph glyph-name="uni278C" unicode="&#x278c;" 
d="M82 717q0 151 59.5 289t160 238.5t238.5 160t289 59.5t289.5 -59.5t239 -160t160 -238.5t59.5 -289t-59.5 -289.5t-160 -239t-239 -160t-289.5 -59.5t-289 59.5t-238.5 160t-160 239t-59.5 289.5zM512 522q5 -103 92 -174.5t221 -71.5q140 0 231 71t91 185
q0 76 -35 128.5t-98 76.5q50 25 81 70t31 104q0 109 -83 177.5t-214 68.5q-128 0 -208.5 -66.5t-88.5 -168.5h187q2 33 29.5 57.5t80.5 24.5q54 0 83.5 -30.5t29.5 -72.5t-29.5 -72t-83.5 -30h-71v-144h71q66 0 100 -31t34 -81t-36 -81.5t-102 -31.5q-62 0 -91.5 27
t-35.5 65h-186z" />
    <glyph glyph-name="uni278D" unicode="&#x278d;" 
d="M82 717q0 151 59.5 289t160 238.5t238.5 160t289 59.5t289.5 -59.5t239 -160t160 -238.5t59.5 -289t-59.5 -289.5t-160 -239t-239 -160t-289.5 -59.5t-289 59.5t-238.5 160t-160 239t-59.5 289.5zM430 604v-153h399v-154h185v154h123v153h-123v533h-205zM610 604l115 164
q70 101 106 174h9q-11 -125 -11 -205v-133h-219z" />
    </font>
</defs>
</svg>
