<?xml version="1.0" standalone="no"?>
<!DOCTYPE svg PUBLIC "-//W3C//DTD SVG 1.1//EN" "http://www.w3.org/Graphics/SVG/1.1/DTD/svg11.dtd" >
<svg xmlns="http://www.w3.org/2000/svg" xmlns:xlink="http://www.w3.org/1999/xlink" version="1.1">
<metadata>
Created by FontForge 20170731 at Mon Jul 25 17:59:16 2022
 By Aleksey,,,
(c) 2011-2017, Copyright by Lineto GmbH. All rights reserved.
</metadata>
<defs>
<font id="RiformaLL-MediumItalic" horiz-adv-x="1658" >
  <font-face 
    font-family="Riforma LL Medium"
    font-weight="500"
    font-style="italic"
    font-stretch="normal"
    units-per-em="2048"
    panose-1="2 11 6 4 2 1 1 2 1 2"
    ascent="1495"
    descent="-553"
    x-height="1065"
    cap-height="1434"
    bbox="-938 -532 3025 2028"
    underline-thickness="81"
    underline-position="-285"
    slope="-12"
    unicode-range="U+000D-1F310"
  />
<missing-glyph horiz-adv-x="1392" 
d="M25 0l305 1434h1069l-305 -1434h-1069zM129 82h897l268 1270h-897z" />
    <glyph glyph-name="f_f" unicode="ff" horiz-adv-x="1509" 
d="M135 1065h254l23 102q32 145 115.5 206t236.5 61h201l-43 -199h-154q-46 0 -67.5 -20t-32.5 -68l-19 -82h414l22 102q32 145 116 206t237 61h241l-43 -199h-194q-46 0 -68 -20t-33 -68l-18 -82h279l-43 -205h-279l-182 -860h-260l182 860h-414l-182 -860h-260l182 860
h-254z" />
    <glyph glyph-name="f_f_i" unicode="ffi" horiz-adv-x="2021" 
d="M1280 860l-182 -860h-260l182 860h-414l-182 -860h-260l182 860h-254l43 205h254l23 102q32 145 115.5 206t236.5 61h201l-43 -199h-154q-46 0 -67.5 -20t-32.5 -68l-19 -82h414l22 102q32 145 116 206t237 61h200l-43 -199h-153q-46 0 -68 -20t-33 -68l-18 -82h676
l-227 -1065h-261l185 860h-416zM1817 1434h260l-47 -226h-261z" />
    <glyph glyph-name="f_f_l" unicode="ffl" horiz-adv-x="2021" 
d="M1280 860l-182 -860h-260l182 860h-414l-182 -860h-260l182 860h-254l43 205h254l23 102q32 145 115.5 206t236.5 61h201l-43 -199h-154q-46 0 -67.5 -20t-32.5 -68l-19 -82h414l22 102q32 145 116 206t237 61h200l-43 -199h-153q-46 0 -68 -20t-33 -68l-18 -82h416
l78 369h260l-305 -1434h-261l185 860h-416z" />
    <glyph glyph-name="f_i" unicode="fi" horiz-adv-x="1347" 
d="M606 860l-182 -860h-260l182 860h-254l43 205h254l23 102q32 145 115.5 206t236.5 61h201l-43 -199h-154q-46 0 -67.5 -20t-32.5 -68l-19 -82h676l-227 -1065h-260l184 860h-416zM1143 1434h260l-47 -226h-260z" />
    <glyph glyph-name="f_l" unicode="fl" horiz-adv-x="1347" 
d="M1143 1434h260l-305 -1434h-260l184 860h-416l-182 -860h-260l182 860h-254l43 205h254l23 102q32 145 115.5 206t236.5 61h201l-43 -199h-154q-46 0 -67.5 -20t-32.5 -68l-19 -82h416z" />
    <glyph glyph-name=".notdef" horiz-adv-x="1392" 
d="M25 0l305 1434h1069l-305 -1434h-1069zM129 82h897l268 1270h-897z" />
    <glyph glyph-name=".null" horiz-adv-x="0" 
 />
    <glyph glyph-name="nonmarkingreturn" horiz-adv-x="682" 
 />
    <glyph glyph-name="CR" unicode="&#xd;" horiz-adv-x="479" 
 />
    <glyph glyph-name="space" unicode=" " horiz-adv-x="479" 
 />
    <glyph glyph-name="exclam" unicode="!" horiz-adv-x="581" 
d="M362 471h-169l45 451l108 512h272l-108 -512zM86 307h313l-65 -307h-314z" />
    <glyph glyph-name="quotedbl" unicode="&#x22;" horiz-adv-x="880" 
d="M317 1434h263l-86 -414l-320 -262zM717 1434h262l-86 -414l-320 -262z" />
    <glyph glyph-name="numbersign" unicode="#" horiz-adv-x="1697" 
d="M860 369h-264l-170 -369h-264l170 369h-299l94 204h299l133 287h-299l94 205h299l172 369h265l-172 -369h264l172 369h264l-172 -369h299l-94 -205h-299l-133 -287h299l-95 -204h-299l-170 -369h-264zM690 573h264l133 287h-264z" />
    <glyph glyph-name="dollar" unicode="$" horiz-adv-x="1288" 
d="M420 -23q-192 28 -290.5 121.5t-98.5 227.5q0 25 2 43h258v-13q0 -142 172 -174l96 453q-70 20 -129.5 50t-112 75.5t-82.5 111.5t-30 146q0 186 133 306.5t397 137.5l37 176h211l-39 -184q167 -28 253.5 -116.5t86.5 -209.5q0 -18 -2 -32h-256v8q0 116 -125 145
l-86 -401q78 -17 142 -46t119.5 -74t86.5 -114.5t31 -156.5q0 -211 -140 -340t-425 -146l-37 -176h-211zM938 432q0 68 -39 105.5t-137 60.5l-88 -418q264 38 264 252zM461 1036q0 -57 33.5 -94t117.5 -59l78 368q-117 -22 -173 -81.5t-56 -133.5z" />
    <glyph glyph-name="percent" unicode="%" horiz-adv-x="2015" 
d="M473 727q61 0 108 39.5t73 102.5t38.5 131.5t12.5 136.5q0 163 -130 163q-61 0 -108 -39t-72.5 -102.5t-38 -131t-12.5 -136.5q0 -164 129 -164zM463 573q-135 0 -220 81.5t-85 236.5q0 272 120.5 417.5t307.5 145.5q136 0 220.5 -81t84.5 -236q0 -138 -33.5 -247
t-92 -177.5t-135.5 -104t-167 -35.5zM1481 1434h217l-1092 -1434h-217zM1520 133q61 0 108 39.5t72.5 102.5t38 131t12.5 137q0 164 -129 164q-61 0 -108 -39.5t-72.5 -102.5t-38 -131t-12.5 -137q0 -164 129 -164zM1509 -20q-136 0 -220.5 81t-84.5 236q0 272 120.5 417.5
t307.5 145.5q136 0 220.5 -81t84.5 -236q0 -272 -120.5 -417.5t-307.5 -145.5z" />
    <glyph glyph-name="ampersand" unicode="&#x26;" horiz-adv-x="1542" 
d="M1417 0h-317l-107 135q-207 -166 -463 -166q-215 0 -350 118.5t-135 281.5q0 91 29.5 165t86.5 129t124 95.5t157 75.5q-90 125 -90 251q0 164 120.5 271.5t334.5 107.5q90 0 162.5 -27t115.5 -71t66 -95.5t23 -103.5q0 -62 -19 -116.5t-50.5 -96t-78.5 -78.5t-95.5 -64
t-109.5 -54l205 -260l203 219h321l-379 -406zM301 371q0 -83 61 -135t183 -52q161 0 307 131l-268 338q-72 -30 -118 -54.5t-86.5 -58t-59.5 -75t-19 -94.5zM795 1260q-86 0 -136.5 -47t-50.5 -111q0 -43 18.5 -83t61.5 -93q120 47 178 96t58 129q0 46 -31 77.5t-98 31.5z
" />
    <glyph glyph-name="quotesingle" unicode="'" horiz-adv-x="481" 
d="M317 1434h263l-86 -414l-320 -262z" />
    <glyph glyph-name="parenleft" unicode="(" horiz-adv-x="649" 
d="M330 379q0 -124 7.5 -213t29.5 -258l34 -277h-206l-60 277q-72 317 -72 471q0 91 12 167t30.5 138t64.5 146t89 152.5t128 195.5l172 256h225l-186 -322q-68 -117 -103.5 -182t-73 -144t-54 -136t-27 -125.5t-10.5 -145.5z" />
    <glyph glyph-name="parenright" unicode=")" horiz-adv-x="647" 
d="M319 686q0 125 -7 214.5t-29 256.5l-35 277h207l59 -277q72 -317 72 -471q0 -77 -6 -138.5t-25.5 -125.5t-39 -112.5t-63 -124t-81 -133.5t-109.5 -165l-172 -256h-225l186 322q70 122 102.5 182.5t72 142.5t55.5 137.5t27 124.5t11 146z" />
    <glyph glyph-name="asterisk" unicode="*" horiz-adv-x="1013" 
d="M559 1112v322h82v-322l227 227l58 -57l-228 -227h322v-82h-322l228 -228l-58 -57l-227 227v-321h-82v321l-227 -227l-58 57l228 228h-322v82h322l-228 227l58 57z" />
    <glyph glyph-name="plus" unicode="+" horiz-adv-x="1193" 
d="M125 819h426l92 430h213l-92 -430h426l-43 -205h-426l-92 -430h-213l92 430h-426z" />
    <glyph glyph-name="comma" unicode="," horiz-adv-x="552" 
d="M84 307h313l-65 -307l-250 -307h-129l188 307h-123z" />
    <glyph glyph-name="hyphen" unicode="-" horiz-adv-x="856" 
d="M143 635h615l-43 -205h-615z" />
    <glyph glyph-name="period" unicode="." horiz-adv-x="552" 
d="M84 307h313l-65 -307h-314z" />
    <glyph glyph-name="slash" unicode="/" horiz-adv-x="1224" 
d="M1061 1434h299l-1120 -1434h-299z" />
    <glyph glyph-name="zero" unicode="0" horiz-adv-x="1339" 
d="M592 195q94 0 172 52.5t128.5 135t85 186.5t49.5 203.5t15 190.5q0 276 -215 276q-94 0 -172 -52.5t-128.5 -135t-85 -186.5t-49.5 -203.5t-15 -190.5q0 -276 215 -276zM838 1464q103 0 187 -28t148.5 -85.5t100 -153.5t35.5 -224q0 -93 -12 -188t-39 -194.5t-67 -189
t-99.5 -169.5t-132.5 -138t-169.5 -91.5t-207.5 -33.5q-103 0 -187 28t-148.5 86t-100 154t-35.5 224q0 93 12 188t39 194.5t67 189t99.5 169t132.5 137.5t169.5 91.5t207.5 33.5z" />
    <glyph glyph-name="one" unicode="1" horiz-adv-x="827" 
d="M270 0l170 803q27 123 80 307h-8q-129 -132 -242 -229l-164 -140l78 365l391 328h273l-305 -1434h-273z" />
    <glyph glyph-name="two" unicode="2" horiz-adv-x="1175" 
d="M203 1065q55 188 195 293.5t347 105.5q214 0 322.5 -104.5t108.5 -274.5q0 -134 -72.5 -248.5t-261.5 -263.5l-439 -348h625l-47 -225h-1004l48 225l657 533q132 105 179.5 174t47.5 153q0 74 -43 119t-131 45q-94 0 -163 -49.5t-87 -134.5h-282z" />
    <glyph glyph-name="three" unicode="3" horiz-adv-x="1204" 
d="M532 870h113q117 0 191.5 63t74.5 163q0 73 -44.5 113t-129.5 40q-90 0 -154 -46.5t-83 -106.5h-287q23 75 69 140t112.5 116.5t158 81.5t195.5 30q191 0 310.5 -97.5t119.5 -238.5q0 -234 -244 -350q79 -41 120.5 -121.5t41.5 -175.5q0 -227 -162.5 -369.5
t-441.5 -142.5q-226 0 -352 105.5t-126 257.5q0 21 2 37h265q0 -185 221 -185q153 0 240 85t87 202q0 83 -54 133.5t-165 50.5h-123z" />
    <glyph glyph-name="four" unicode="4" horiz-adv-x="1263" 
d="M897 1434h287l-201 -942h205l-47 -226h-205l-57 -266h-273l58 266h-680l47 226zM711 492l37 174q62 282 112 450h-8q-54 -79 -79 -114t-98.5 -125.5t-166.5 -190.5l-178 -194h381z" />
    <glyph glyph-name="five" unicode="5" horiz-adv-x="1228" 
d="M127 625l225 809h891l-47 -226h-639l-88 -317q113 113 285 113q124 0 216 -58.5t137.5 -153t45.5 -208.5q0 -130 -45 -243t-126 -195t-201 -129.5t-263 -47.5q-210 0 -337.5 106.5t-127.5 278.5v15h266q0 -81 52 -127.5t157 -46.5q163 0 261 108.5t98 269.5
q0 101 -53 158t-152 57q-188 0 -287 -163h-268z" />
    <glyph glyph-name="six" unicode="6" horiz-adv-x="1277" 
d="M821 1464q188 0 311.5 -90.5t127.5 -236.5h-277q-19 112 -172 112q-130 0 -225 -100t-142 -293q130 127 326 127q134 0 233.5 -58.5t147 -150t47.5 -201.5q0 -122 -45 -232.5t-123 -192.5t-191 -130.5t-243 -48.5q-119 0 -212 39t-151 107t-88 156t-30 190
q0 98 11.5 195.5t37 197.5t63.5 188.5t95.5 166.5t128.5 134t165.5 88.5t204.5 32.5zM596 184q91 0 167.5 56t118.5 143t42 180q0 95 -51.5 150t-151.5 55q-138 0 -237 -109.5t-99 -255.5q0 -100 54.5 -159.5t156.5 -59.5z" />
    <glyph glyph-name="seven" unicode="7" horiz-adv-x="1087" 
d="M299 0h-303l885 1208h-701l49 226h1004l-49 -226z" />
    <glyph glyph-name="eight" unicode="8" horiz-adv-x="1267" 
d="M553 -31q-138 0 -251 51.5t-177 141t-64 196.5q0 151 80 259t238 161q-133 74 -133 236q0 193 155 321.5t398 128.5q200 0 325 -97t125 -251q0 -112 -65.5 -201.5t-190.5 -146.5q164 -83 164 -287q0 -221 -169.5 -366.5t-434.5 -145.5zM328 379q0 -88 63.5 -141.5
t171.5 -53.5q142 0 235 78t93 199q0 87 -64 140.5t-172 53.5q-138 0 -232.5 -79.5t-94.5 -196.5zM502 1020q0 -74 56.5 -117t146.5 -43q119 0 203.5 66t84.5 170q0 73 -55 113t-150 40q-126 0 -206 -63t-80 -166z" />
    <glyph glyph-name="nine" unicode="9" horiz-adv-x="1275" 
d="M535 -31q-188 0 -311.5 91t-127.5 237h277q19 -113 172 -113q129 0 224 100t142 294q-130 -127 -325 -127q-101 0 -184 33.5t-135.5 90.5t-80.5 130t-28 155q0 122 46.5 232.5t126.5 192.5t194.5 130.5t244.5 48.5q119 0 210.5 -38.5t147.5 -106.5t84.5 -155.5
t28.5 -190.5q0 -116 -16 -230t-49.5 -228.5t-90.5 -211.5t-132.5 -172.5t-183 -118.5t-234.5 -43zM760 1249q-91 0 -167.5 -56t-118.5 -143t-42 -180q0 -95 51.5 -149.5t151.5 -54.5q138 0 237 109t99 255q0 100 -54.5 159.5t-156.5 59.5z" />
    <glyph glyph-name="colon" unicode=":" horiz-adv-x="559" 
d="M78 307h313l-65 -307h-314zM238 1065h313l-66 -307h-313z" />
    <glyph glyph-name="semicolon" unicode=";" horiz-adv-x="565" 
d="M238 1065h313l-66 -307h-313zM82 307h313l-65 -307l-250 -307h-129l188 307h-123z" />
    <glyph glyph-name="less" unicode="&#x3c;" horiz-adv-x="1144" 
d="M1161 1249l-49 -237l-772 -307l641 -308l-47 -213l-850 430l43 205z" />
    <glyph glyph-name="equal" unicode="=" horiz-adv-x="1204" 
d="M240 1044h942l-43 -204h-942zM143 594h942l-43 -205h-942z" />
    <glyph glyph-name="greater" unicode="&#x3e;" horiz-adv-x="1144" 
d="M63 184l52 242l772 307l-641 307l45 209l850 -430l-43 -205z" />
    <glyph glyph-name="question" unicode="?" horiz-adv-x="1069" 
d="M287 307h313l-65 -307h-314zM180 1096q42 164 177.5 266t330.5 102q95 0 175 -29.5t132 -79t80.5 -112.5t28.5 -131q0 -85 -24.5 -150.5t-65 -106t-90 -73t-102 -61.5t-98.5 -60.5t-81.5 -79.5t-48.5 -110h-232q18 85 54.5 152t79.5 109t91 76.5t92 63t80 59.5t57.5 75.5
t21.5 101.5q0 61 -41 101t-123 40q-87 0 -145 -43t-83 -110h-266z" />
    <glyph glyph-name="at" unicode="@" horiz-adv-x="1908" 
d="M766 -328q-196 0 -356.5 101t-250 270t-89.5 367q0 203 82.5 385.5t221.5 313t330 207.5t400 77q165 0 303 -56.5t230 -154t143 -228t51 -278.5q0 -151 -34.5 -266.5t-94.5 -183t-134 -101t-161 -33.5q-79 0 -133 34t-72 99q-140 -143 -348 -143q-158 0 -261.5 110
t-103.5 279q0 151 69 269.5t183 180.5t250 62q95 0 161 -38t93 -81l21 88h229l-117 -553q-8 -31 -8 -59q0 -35 16 -49.5t52 -14.5q58 0 103.5 56t70 147t24.5 197q0 232 -147.5 382t-394.5 150q-167 0 -321 -66t-265 -175t-177.5 -255.5t-66.5 -301.5q0 -153 64.5 -278
t189.5 -200t289 -75q151 0 301 53l-39 -189q-145 -49 -303 -49zM893 266q127 0 209 97.5t82 234.5q0 91 -45.5 146t-130.5 55q-124 0 -208.5 -93.5t-84.5 -234.5q0 -94 48 -149.5t130 -55.5z" />
    <glyph glyph-name="A" unicode="A" horiz-adv-x="1429" 
d="M-115 0l889 1434h266l279 -1434h-264l-58 317h-624l-193 -317h-295zM954 543l-43 239q-25 138 -43 375h-8q-81 -172 -205 -375l-145 -239h444z" />
    <glyph glyph-name="B" unicode="B" horiz-adv-x="1460" 
d="M362 1434h699q168 0 270.5 -86.5t102.5 -231.5q0 -234 -222 -358q67 -42 103.5 -113t36.5 -162q0 -211 -154.5 -347t-392.5 -136h-748zM825 225q124 0 192 69.5t68 172.5q0 71 -40.5 114.5t-126.5 43.5h-455l-86 -400h448zM924 850q109 0 176 62t67 161q0 135 -168 135
h-413l-76 -358h414z" />
    <glyph glyph-name="C" unicode="C" horiz-adv-x="1476" 
d="M1405 399q-78 -196 -238 -313t-395 -117q-163 0 -289 46t-205.5 130.5t-120 200t-40.5 258.5q0 127 36 252t107 234t168.5 193t229 132.5t278.5 48.5q248 0 392.5 -104.5t193.5 -294.5h-281q-60 174 -305 174q-120 0 -224 -53t-175 -141.5t-111.5 -203t-40.5 -237.5
q0 -192 94 -300.5t293 -108.5q233 0 342 204h291z" />
    <glyph glyph-name="D" unicode="D" horiz-adv-x="1501" 
d="M362 1434h537q271 0 422.5 -140t151.5 -393q0 -181 -60.5 -344.5t-169.5 -287t-273 -196.5t-358 -73h-553zM623 225q108 0 202 36t163 99t118.5 148t74.5 185t25 208q0 157 -84.5 232t-273.5 75h-260l-209 -983h244z" />
    <glyph glyph-name="E" unicode="E" horiz-adv-x="1325" 
d="M362 1434h1045l-47 -226h-772l-76 -358h731l-49 -225h-731l-84 -400h772l-47 -225h-1045z" />
    <glyph glyph-name="F" unicode="F" horiz-adv-x="1290" 
d="M362 1434h1045l-47 -226h-772l-80 -379h731l-49 -225h-731l-127 -604h-273z" />
    <glyph glyph-name="G" unicode="G" horiz-adv-x="1552" 
d="M741 -31q-297 0 -460.5 171t-163.5 464q0 127 36 252t107 234t168.5 193t229 132.5t278.5 48.5q248 0 392.5 -104.5t193.5 -294.5h-277q-37 85 -111 129.5t-198 44.5q-120 0 -224 -53t-175 -141.5t-111.5 -203t-40.5 -237.5q0 -192 92.5 -300.5t284.5 -108.5
q158 0 271.5 91.5t156.5 266.5h-371l47 225h635l-166 -778h-211l11 133q-55 -71 -164.5 -117.5t-229.5 -46.5z" />
    <glyph glyph-name="H" unicode="H" horiz-adv-x="1570" 
d="M362 1434h273l-123 -584h684l123 584h272l-303 -1434h-272l131 625h-684l-131 -625h-273z" />
    <glyph glyph-name="I" unicode="I" horiz-adv-x="614" 
d="M362 1434h273l-303 -1434h-273z" />
    <glyph glyph-name="J" unicode="J" horiz-adv-x="999" 
d="M-16 225h272q246 0 301 256l203 953h272l-209 -983q-52 -237 -204.5 -344t-393.5 -107h-288z" />
    <glyph glyph-name="K" unicode="K" horiz-adv-x="1384" 
d="M362 1434h273l-119 -564l676 564h369l-844 -697l581 -737h-327l-500 659l-139 -659h-273z" />
    <glyph glyph-name="L" unicode="L" horiz-adv-x="1191" 
d="M362 1434h273l-256 -1209h731l-47 -225h-1004z" />
    <glyph glyph-name="M" unicode="M" horiz-adv-x="1857" 
d="M362 1434h283l164 -545q51 -173 100 -387q107 174 265 387l393 545h311l-303 -1434h-272l127 604q42 197 110 410h-8q-122 -213 -252 -389l-457 -625l-194 625q-54 177 -94 389h-9q-45 -308 -67 -410l-127 -604h-273z" />
    <glyph glyph-name="N" unicode="N" horiz-adv-x="1591" 
d="M362 1434h277l295 -625q120 -262 184 -430h8q43 251 86 450l127 605h273l-303 -1434h-275l-299 625q-134 274 -186 430h-8q-21 -175 -82 -451l-127 -604h-273z" />
    <glyph glyph-name="O" unicode="O" horiz-adv-x="1624" 
d="M770 195q116 0 220 53t175.5 140.5t113.5 203t42 237.5q0 190 -97 300t-290 110q-116 0 -220 -53.5t-175.5 -141t-113.5 -203t-42 -237.5q0 -191 96.5 -300t290.5 -109zM770 -31q-317 0 -486 172t-169 463q0 127 37 252t109 234t170 193t228 132.5t275 48.5
q317 0 486 -172t169 -463q0 -127 -37 -252t-109 -234t-170 -193t-228 -132.5t-275 -48.5z" />
    <glyph glyph-name="P" unicode="P" horiz-adv-x="1435" 
d="M362 1434h719q187 0 298.5 -104.5t111.5 -264.5q0 -220 -153 -356t-400 -136h-485l-123 -573h-273zM969 799q108 0 182 70t74 175q0 74 -45 119t-129 45h-465l-86 -409h469z" />
    <glyph glyph-name="Q" unicode="Q" horiz-adv-x="1642" 
d="M115 604q0 127 37 252t109 234t170 193t228 132.5t275 48.5q317 0 486 -172t169 -463q0 -185 -76 -357.5t-215 -299.5l138 -172h-291l-37 45q-162 -76 -338 -76q-317 0 -486 172t-169 463zM1145 367q85 92 130.5 212t45.5 250q0 190 -97 300t-290 110q-116 0 -220 -53.5
t-175.5 -141t-113.5 -203t-42 -237.5q0 -191 96.5 -300t290.5 -109q111 0 191 38l-244 310h291z" />
    <glyph glyph-name="R" unicode="R" horiz-adv-x="1468" 
d="M362 1434h719q187 0 298.5 -104.5t111.5 -264.5q0 -220 -153 -356t-400 -136h-82l451 -573h-324l-440 573h-90l-123 -573h-273zM969 799q108 0 182 70t74 175q0 74 -45 119t-129 45h-465l-86 -409h469z" />
    <glyph glyph-name="S" unicode="S" horiz-adv-x="1351" 
d="M1122 1065q0 103 -82 149t-217 46q-89 0 -163 -18t-127.5 -66t-53.5 -121q0 -86 57 -133t181 -68l119 -20q407 -70 407 -398q0 -119 -49.5 -210t-137.5 -146.5t-201 -83t-247 -27.5q-85 0 -164 13t-156.5 44.5t-134.5 79t-92.5 123t-35.5 170.5h256q0 -84 45 -135.5
t116.5 -70.5t175.5 -19q65 0 125.5 11.5t115 35.5t87.5 69t33 105q0 90 -58 133t-186 64l-119 20q-187 32 -292 140.5t-105 271.5q0 110 51 196.5t138 138.5t195.5 78.5t230.5 26.5q88 0 166.5 -14t148 -45t119.5 -76.5t79 -113t29 -150.5h-254z" />
    <glyph glyph-name="T" unicode="T" horiz-adv-x="1251" 
d="M635 1208h-469l47 226h1208l-47 -226h-467l-256 -1208h-272z" />
    <glyph glyph-name="U" unicode="U" horiz-adv-x="1503" 
d="M621 1434l-195 -922q-12 -52 -12 -96q0 -108 63 -164.5t182 -56.5q156 0 270 92t146 245l191 902h272l-195 -922q-25 -115 -85 -213.5t-148 -172t-207 -115.5t-254 -42q-239 0 -372.5 123.5t-133.5 317.5q0 45 15 122l190 902h273z" />
    <glyph glyph-name="V" unicode="V" horiz-adv-x="1341" 
d="M203 1434h264l102 -732q26 -156 37 -405h8q135 284 203 403l414 734h293l-838 -1434h-256z" />
    <glyph glyph-name="W" unicode="W" horiz-adv-x="1968" 
d="M213 1434h256l39 -680q4 -42 4 -181q0 -81 -4 -225h8q89 224 180 408l332 678h270l45 -678q9 -123 9 -230q0 -64 -4 -178h8q112 280 172 406l327 680h283l-715 -1434h-266l-47 705q-6 102 -6 217q0 108 2 163h-8q-102 -248 -168 -380l-346 -705h-267z" />
    <glyph glyph-name="X" unicode="X" horiz-adv-x="1337" 
d="M571 768l-333 666h288l226 -465l407 465h328l-623 -693l371 -741h-289l-262 539l-473 -539h-328z" />
    <glyph glyph-name="Y" unicode="Y" horiz-adv-x="1257" 
d="M502 571l-297 863h268l193 -635l462 635h306l-660 -863l-121 -571h-272z" />
    <glyph glyph-name="Z" unicode="Z" horiz-adv-x="1265" 
d="M10 225l951 983h-721l47 226h1075l-47 -226l-950 -983h772l-47 -225h-1127z" />
    <glyph glyph-name="bracketleft" unicode="[" horiz-adv-x="718" 
d="M350 1434h506l-43 -205h-246l-297 -1393h246l-43 -205h-506z" />
    <glyph glyph-name="backslash" unicode="\" horiz-adv-x="1177" 
d="M1034 0h-268l-541 1434h269z" />
    <glyph glyph-name="bracketright" unicode="]" horiz-adv-x="716" 
d="M369 -369h-506l43 205h246l297 1393h-246l43 205h506z" />
    <glyph glyph-name="asciicircum" unicode="^" horiz-adv-x="1116" 
d="M651 1434h205l197 -902h-213l-127 656l-406 -656h-237z" />
    <glyph glyph-name="underscore" unicode="_" horiz-adv-x="1265" 
d="M-6 0h1065l-35 -164h-1065z" />
    <glyph glyph-name="grave" unicode="`" horiz-adv-x="593" 
d="M662 1188h-226l-192 246h307z" />
    <glyph glyph-name="a" unicode="a" horiz-adv-x="1198" 
d="M174 778q112 318 512 318q92 0 168 -18.5t135.5 -55.5t93 -99t33.5 -143q0 -51 -14 -112l-141 -668h-259l25 113q-116 -144 -350 -144q-148 0 -252.5 85t-104.5 222q0 180 110.5 270t336.5 109l381 33l4 19q8 31 8 63q0 65 -43.5 98t-140.5 33q-185 0 -232 -123h-270z
M428 164q135 0 240 78t133 219l8 39l-342 -31q-93 -8 -143 -54.5t-50 -127.5q0 -61 40.5 -92t113.5 -31z" />
    <glyph glyph-name="b" unicode="b" horiz-adv-x="1306" 
d="M758 891q-66 0 -126.5 -27t-106 -73t-79.5 -105t-51.5 -125t-17.5 -131q0 -117 62 -186.5t167 -69.5q115 0 204 72t133 178.5t44 224.5q0 117 -59.5 179.5t-169.5 62.5zM285 0h-260l305 1434h260l-103 -482q126 144 334 144q99 0 180 -36.5t133.5 -98.5t80.5 -142.5
t28 -169.5q0 -100 -26.5 -198.5t-78.5 -185t-123.5 -153t-167 -105t-202.5 -38.5q-130 0 -213 49.5t-117 126.5z" />
    <glyph glyph-name="c" unicode="c" horiz-adv-x="1140" 
d="M1053 307q-63 -155 -184.5 -246.5t-305.5 -91.5q-127 0 -224 37.5t-154.5 104.5t-86 152t-28.5 188q0 121 43 235.5t120 206t195.5 147.5t257.5 56q370 0 444 -318h-256q-21 57 -65.5 87t-122.5 30q-106 0 -190.5 -65t-128 -165.5t-43.5 -213.5q0 -281 239 -281
q151 0 228 137h262z" />
    <glyph glyph-name="d" unicode="d" horiz-adv-x="1300" 
d="M551 174q109 0 198.5 70t137 175t47.5 216q0 117 -62 186.5t-167 69.5q-87 0 -160.5 -42t-120.5 -110t-73.5 -151t-26.5 -168q0 -118 58.5 -182t168.5 -64zM811 96q-137 -127 -322 -127q-128 0 -226 63.5t-147.5 165.5t-49.5 222q0 100 26 197t78 183.5t123.5 152.5
t170 104.5t210.5 38.5q116 0 199 -45t118 -111l105 494h260l-305 -1434h-260z" />
    <glyph glyph-name="e" unicode="e" horiz-adv-x="1232" 
d="M1106 307q-89 -163 -231 -250.5t-328 -87.5q-148 0 -258.5 65.5t-165.5 171t-55 234.5q0 177 80.5 326.5t230 239.5t336.5 90q133 0 235.5 -45.5t163 -140t60.5 -226.5q0 -104 -31 -244h-819q-2 -14 -2 -43q0 -100 58.5 -166.5t178.5 -66.5q86 0 144.5 34t101.5 109h301z
M705 901q-116 0 -208.5 -77t-131.5 -189h553q4 32 4 47q0 96 -56.5 157.5t-160.5 61.5z" />
    <glyph glyph-name="f" unicode="f" horiz-adv-x="835" 
d="M135 1065h254l23 102q32 145 115.5 206t236.5 61h242l-43 -199h-195q-46 0 -67.5 -20t-32.5 -68l-19 -82h279l-43 -205h-279l-182 -860h-260l182 860h-254z" />
    <glyph glyph-name="g" unicode="g" horiz-adv-x="1290" 
d="M559 236q103 0 189 61t133 156.5t47 201.5q0 107 -63.5 171.5t-172.5 64.5q-101 0 -185 -62.5t-129.5 -158.5t-45.5 -199q0 -110 60.5 -172.5t166.5 -62.5zM508 31q-101 0 -185 36t-137.5 97.5t-82.5 140.5t-29 166q0 160 78 303.5t217 232.5t303 89q113 0 198 -47.5
t113 -96.5l23 113h262l-201 -942q-54 -254 -210 -388t-390 -134q-211 0 -330 82t-123 235h256q10 -70 56 -96.5t141 -26.5q129 0 216 83.5t122 244.5l6 27q-33 -33 -64 -55t-95.5 -43t-143.5 -21z" />
    <glyph glyph-name="h" unicode="h" horiz-adv-x="1261" 
d="M483 932q58 74 143.5 119t190.5 45q170 0 264.5 -89.5t94.5 -246.5q0 -53 -17 -133l-133 -627h-260l135 637q10 52 10 82q0 164 -178 164q-119 0 -207 -81.5t-118 -226.5l-123 -575h-260l305 1434h260z" />
    <glyph glyph-name="i" unicode="i" horiz-adv-x="532" 
d="M250 1065h260l-227 -1065h-260zM328 1434h260l-47 -226h-260z" />
    <glyph glyph-name="j" unicode="j" horiz-adv-x="540" 
d="M336 1434h260l-47 -226h-260zM258 1065h260l-248 -1167q-31 -147 -127.5 -207t-265.5 -60h-133l43 199h104q106 0 127 109z" />
    <glyph glyph-name="k" unicode="k" horiz-adv-x="1136" 
d="M1057 0h-314l-356 481l-102 -481h-260l305 1434h260l-160 -754l459 385h354l-622 -512z" />
    <glyph glyph-name="l" unicode="l" horiz-adv-x="534" 
d="M330 1434h260l-305 -1434h-260z" />
    <glyph glyph-name="m" unicode="m" horiz-adv-x="1925" 
d="M707 881q-103 0 -185 -65.5t-108 -201.5l-131 -614h-260l227 1065h260l-25 -115q52 70 135.5 108t172.5 38q235 0 315 -185q134 185 391 185q148 0 245 -88t97 -244q0 -47 -16 -129l-135 -635h-260l135 637q14 61 14 100q0 74 -39.5 109t-128.5 35q-103 0 -186 -65.5
t-109 -201.5l-131 -614h-260l135 637q14 61 14 100q0 74 -39 109t-128 35z" />
    <glyph glyph-name="n" unicode="n" horiz-adv-x="1259" 
d="M481 932q58 74 144 119t190 45q170 0 264.5 -89.5t94.5 -246.5q0 -51 -17 -131l-133 -629h-260l133 629q12 62 12 92q0 162 -178 162q-119 0 -207 -81.5t-118 -226.5l-123 -575h-260l227 1065h260z" />
    <glyph glyph-name="o" unicode="o" horiz-adv-x="1265" 
d="M322 451q0 -130 60.5 -203.5t188.5 -73.5q106 0 193 64t133.5 164.5t46.5 211.5q0 129 -61 203t-189 74q-107 0 -194 -64t-132.5 -164t-45.5 -212zM68 451q0 120 44.5 235.5t123.5 206.5t198.5 147t259.5 56q128 0 226 -37.5t158 -104t90 -152.5t30 -188
q0 -96 -28 -189.5t-82.5 -175.5t-129 -144.5t-175 -99t-212.5 -36.5q-128 0 -226 37.5t-157.5 104t-89.5 152.5t-30 188z" />
    <glyph glyph-name="p" unicode="p" horiz-adv-x="1298" 
d="M750 891q-82 0 -155 -41.5t-122 -107.5t-77.5 -148t-28.5 -164q0 -117 62 -186.5t167 -69.5q87 0 160.5 42t120.5 110t73.5 151t26.5 168q0 118 -58.5 182t-168.5 64zM489 969q137 127 322 127q128 0 226 -63.5t148 -165.5t50 -222q0 -100 -26 -197t-78 -183.5
t-123.5 -152.5t-170 -104.5t-210.5 -38.5q-116 0 -199.5 45t-118.5 111l-104 -494h-260l305 1434h260z" />
    <glyph glyph-name="q" unicode="q" horiz-adv-x="1306" 
d="M551 174q109 0 198 70t136 175t47 216q0 117 -62 186.5t-168 69.5q-87 0 -160 -42t-120.5 -110t-73.5 -152t-26 -171q0 -117 59.5 -179.5t169.5 -62.5zM1024 1065h260l-305 -1434h-260l102 482q-126 -144 -334 -144q-131 0 -228.5 63t-145 163.5t-47.5 220.5
q0 100 26.5 198.5t78.5 185t123.5 153t167 105t202.5 38.5q130 0 212.5 -49.5t116.5 -126.5z" />
    <glyph glyph-name="r" unicode="r" horiz-adv-x="788" 
d="M694 860q-113 0 -183.5 -60.5t-98.5 -195.5l-129 -604h-260l227 1065h260l-27 -123q48 71 116.5 107t184.5 36h90l-49 -225h-131z" />
    <glyph glyph-name="s" unicode="s" horiz-adv-x="1099" 
d="M256 307q0 -80 50.5 -118.5t164.5 -38.5q65 0 118.5 14.5t91.5 49.5t38 87q0 55 -38 77t-124 36l-70 10q-150 21 -241.5 105t-91.5 219q0 91 41.5 160t111.5 109t152.5 59.5t175.5 19.5q126 0 226 -34t162 -107t62 -177h-256q0 137 -204 137q-38 0 -72 -5.5t-69 -19.5
t-55.5 -42.5t-20.5 -69.5q0 -51 35.5 -77.5t115.5 -38.5l70 -11q77 -11 136.5 -32t108 -57t74 -92.5t25.5 -131.5q0 -96 -42 -169t-114 -115.5t-159 -63.5t-187 -21q-94 0 -174 17.5t-149 55t-108.5 105.5t-39.5 160h256z" />
    <glyph glyph-name="t" unicode="t" horiz-adv-x="858" 
d="M479 287q-6 -24 -6 -39q0 -28 16 -38.5t54 -10.5h194l-43 -199h-223q-262 0 -262 205q0 30 12 92l121 563h-256l43 205h256l53 246h260l-53 -246h277l-43 -205h-277z" />
    <glyph glyph-name="u" unicode="u" horiz-adv-x="1251" 
d="M764 106q-105 -137 -315 -137q-170 0 -265.5 91.5t-95.5 248.5q0 56 16 131l134 625h260l-138 -645q-12 -50 -12 -92q0 -144 176 -144q120 0 205 76t115 221l125 584h260l-228 -1065h-260z" />
    <glyph glyph-name="v" unicode="v" horiz-adv-x="1107" 
d="M131 1065h256l62 -410q19 -130 32 -379h8q120 251 195 379l236 410h284l-637 -1065h-254z" />
    <glyph glyph-name="w" unicode="w" horiz-adv-x="1613" 
d="M856 778q-83 -204 -172 -377l-209 -401h-246l-90 1065h250l17 -418q2 -39 2 -110q0 -160 -9 -271h9q93 237 165 379l215 420h246l37 -420q8 -101 8 -235q0 -29 -1 -77t-1 -67h8q97 260 152 381l193 418h274l-545 -1065h-244l-38 401q-13 114 -13 377h-8z" />
    <glyph glyph-name="x" unicode="x" horiz-adv-x="1083" 
d="M518 354l-313 -354h-311l516 565l-258 500h272l154 -313l276 313h309l-479 -524l283 -541h-275z" />
    <glyph glyph-name="y" unicode="y" horiz-adv-x="1081" 
d="M307 0l-172 1065h256l60 -410q19 -133 24 -358h8q117 251 179 358l233 410h285l-693 -1186q-52 -91 -102 -141t-134 -78.5t-210 -28.5h-125l43 199h102q84 0 133 28.5t97 112.5z" />
    <glyph glyph-name="z" unicode="z" horiz-adv-x="1083" 
d="M946 205l-43 -205h-942l43 205l711 655h-551l45 205h901l-45 -205l-711 -655h592z" />
    <glyph glyph-name="braceleft" unicode="{" horiz-adv-x="770" 
d="M104 635q88 0 135.5 32.5t63.5 131.5l47 325q12 89 46 151.5t87 96t112.5 48t133.5 14.5h176l-43 -205h-100q-73 0 -111.5 -29t-48.5 -104l-49 -338q-8 -56 -27.5 -96t-51.5 -65.5t-68.5 -40t-88.5 -24.5q66 -17 102 -68t36 -126q0 -50 -15 -102l-75 -267
q-11 -46 -11 -57q0 -41 27.5 -58.5t83.5 -17.5h100l-43 -205h-114q-128 0 -219 69.5t-91 193.5q0 38 17 104l75 268q13 47 13 74q0 55 -35.5 72.5t-106.5 17.5h-30l43 205h30z" />
    <glyph glyph-name="bar" unicode="|" horiz-adv-x="575" 
d="M350 1434h260l-383 -1803h-260z" />
    <glyph glyph-name="braceright" unicode="}" horiz-adv-x="770" 
d="M666 430q-88 0 -135.5 -32.5t-63.5 -131.5l-47 -325q-12 -89 -46 -151.5t-87 -96t-112.5 -48t-133.5 -14.5h-174l43 205h98q73 0 111.5 29t48.5 104l49 338q8 56 27.5 96t51.5 65t68.5 39.5t88.5 24.5q-66 17 -102 68.5t-36 126.5q0 49 15 102l76 267q10 42 10 57
q0 41 -27.5 58.5t-83.5 17.5h-100l43 205h114q128 0 219 -69.5t91 -193.5q0 -38 -17 -104l-75 -268q-13 -47 -13 -74q0 -55 35.5 -72.5t106.5 -17.5h30l-43 -205h-30z" />
    <glyph glyph-name="asciitilde" unicode="~" horiz-adv-x="1267" 
d="M135 573q31 151 126.5 239.5t240.5 88.5q56 0 107 -18t87.5 -43.5t69 -51t65.5 -43.5t64 -18q49 0 86.5 33.5t54.5 99.5h185q-31 -151 -126.5 -239.5t-240.5 -88.5q-57 0 -107.5 18t-87 44t-68.5 51.5t-65.5 43.5t-64.5 18q-49 0 -87 -33.5t-55 -100.5h-184z" />
    <glyph glyph-name="uni00A0" unicode="&#xa0;" horiz-adv-x="479" 
 />
    <glyph glyph-name="exclamdown" unicode="&#xa1;" horiz-adv-x="559" 
d="M209 594h170l-45 -451l-109 -512h-272l108 512zM485 758h-313l66 307h313z" />
    <glyph glyph-name="cent" unicode="&#xa2;" horiz-adv-x="1216" 
d="M420 -12q-161 40 -251.5 164.5t-90.5 289.5q0 257 158 439t417 211l37 178h209l-39 -185q148 -29 237 -118t101 -219h-258q-17 98 -123 131l-147 -691q90 33 149 129h287q-159 -315 -481 -346l-37 -176h-209zM332 449q0 -83 32.5 -150.5t98.5 -101.5l143 673
q-87 -29 -151 -100t-93.5 -154t-29.5 -167z" />
    <glyph glyph-name="sterling" unicode="&#xa3;" horiz-adv-x="1226" 
d="M152 717h159q-43 127 -43 233q0 120 46 219t123.5 162.5t177 98t208.5 34.5q201 0 316.5 -102t115.5 -250v-16h-258q0 76 -50.5 114.5t-139.5 38.5q-117 0 -199 -74.5t-82 -213.5q0 -21 2.5 -44t5.5 -40t10 -42l10.5 -37.5t13 -41.5t12.5 -39h473l-43 -205h-394
q0 -190 -165 -297h639l-46 -215h-1064l45 215q145 0 244.5 81t95.5 216h-256z" />
    <glyph glyph-name="currency" unicode="&#xa4;" horiz-adv-x="1269" 
d="M582 82q-136 0 -240 72l-184 -154l-138 170l179 147q-39 79 -39 170q0 177 125 312l-127 159l170 138l131 -166q106 53 225 53q136 0 240 -72l186 154l137 -170l-180 -150q39 -79 39 -167q0 -172 -123 -312l127 -160l-170 -137l-131 166q-112 -53 -227 -53zM584 307
q113 0 191.5 81.5t78.5 189.5q0 78 -46.5 129t-125.5 51q-113 0 -191.5 -81.5t-78.5 -189.5q0 -78 46.5 -129t125.5 -51z" />
    <glyph glyph-name="yen" unicode="&#xa5;" horiz-adv-x="1298" 
d="M731 307l-65 -307h-263l66 307h-264l43 205h264l14 63l-20 60h-334l43 205h227l-192 594h260l170 -594h31l424 594h292l-444 -594h225l-43 -205h-336l-38 -53l-17 -70h262l-43 -205h-262z" />
    <glyph glyph-name="brokenbar" unicode="&#xa6;" horiz-adv-x="575" 
d="M119 348h260l-152 -717h-260zM350 1434h260l-151 -717h-260z" />
    <glyph glyph-name="section" unicode="&#xa7;" horiz-adv-x="1310" 
d="M504 -399q-212 0 -337.5 91.5t-125.5 246.5q0 12 2 30h256q-5 -81 46.5 -122.5t170.5 -41.5q127 0 199.5 49.5t72.5 129.5q0 37 -15.5 63t-50.5 43.5t-76.5 28.5t-108.5 22q-71 13 -130 29.5t-123.5 46.5t-108 68.5t-72.5 97.5t-29 131q0 129 71 221.5t181 143.5
q-58 76 -58 186q0 186 141.5 292.5t391.5 106.5q214 0 340.5 -91.5t126.5 -246.5q0 -12 -2 -30h-256q5 81 -47 122.5t-172 41.5q-126 0 -197.5 -49.5t-71.5 -129.5q0 -70 57.5 -102.5t190.5 -54.5q469 -82 469 -373q0 -130 -71.5 -223t-182.5 -144q57 -80 57 -184
q0 -186 -142.5 -292.5t-395.5 -106.5zM647 371q113 -29 164 -52q67 21 120.5 73t53.5 126q0 29 -8.5 52t-28 39t-38.5 27t-52.5 19.5t-58 13.5t-66.5 12.5t-67 12.5q-98 17 -168 51q-69 -25 -119.5 -74t-50.5 -124q0 -29 8.5 -51t28 -38t38.5 -27t53 -20t57.5 -14t67 -13
t66.5 -13z" />
    <glyph glyph-name="dieresis" unicode="&#xa8;" horiz-adv-x="901" 
d="M291 1434h260l-47 -226h-260zM739 1434h260l-47 -226h-260z" />
    <glyph glyph-name="copyright" unicode="&#xa9;" horiz-adv-x="1681" 
d="M1071 901q-14 42 -58 72.5t-122 30.5q-116 0 -186 -81t-70 -206t70 -206t186 -81q80 0 125 32.5t59 80.5h197q-42 -129 -138 -198t-243 -69q-192 0 -316 124.5t-124 316.5t124 316t316 124q291 0 381 -256h-201zM133 717q0 151 59.5 289t160 238.5t239 160t289.5 59.5
t289 -59.5t238.5 -160t160 -238.5t59.5 -289t-59.5 -289.5t-160 -239t-238.5 -160t-289 -59.5t-289.5 59.5t-239 160t-160 239t-59.5 289.5zM287 717q0 -161 79.5 -298t216.5 -216.5t298 -79.5t298 79.5t216.5 216.5t79.5 298t-79.5 298t-216.5 216.5t-298 79.5t-298 -79.5
t-216.5 -216.5t-79.5 -298z" />
    <glyph glyph-name="ordfeminine" unicode="&#xaa;" horiz-adv-x="960" 
d="M262 1208q93 246 391 246q142 0 232 -62.5t90 -181.5q0 -40 -10 -82l-113 -534h-190l16 82q-103 -103 -262 -103q-120 0 -199.5 64t-79.5 172q0 268 357 303l282 25l4 16q8 21 8 53q0 50 -35 74.5t-112 24.5q-143 0 -184 -97h-195zM446 723q103 0 187 61.5t104 163.5
l8 41l-251 -22q-77 -6 -122.5 -42t-45.5 -104q0 -45 30.5 -71.5t89.5 -26.5z" />
    <glyph glyph-name="guillemotleft" unicode="&#xab;" horiz-adv-x="1337" 
d="M463 881h317l-442 -359l295 -338h-287l-295 348zM985 881h318l-443 -359l295 -338h-287l-295 348z" />
    <glyph glyph-name="logicalnot" unicode="&#xac;" horiz-adv-x="1249" 
d="M950 758h-813l43 205h1024l-104 -492h-211z" />
    <glyph glyph-name="uni00AD" unicode="&#xad;" horiz-adv-x="856" 
d="M143 635h615l-43 -205h-615z" />
    <glyph glyph-name="registered" unicode="&#xae;" horiz-adv-x="1681" 
d="M133 717q0 151 59.5 289t160 238.5t239 160t289.5 59.5t289 -59.5t238.5 -160t160 -238.5t59.5 -289t-59.5 -289.5t-160 -239t-238.5 -160t-289 -59.5t-289.5 59.5t-239 160t-160 239t-59.5 289.5zM287 717q0 -161 79.5 -298t216.5 -216.5t298 -79.5t298 79.5
t216.5 216.5t79.5 298t-79.5 298t-216.5 216.5t-298 79.5t-298 -79.5t-216.5 -216.5t-79.5 -298zM737 604v-307h-184v840h440q122 0 199.5 -75.5t77.5 -191.5t-77.5 -191t-199.5 -75h-10l307 -307h-231l-301 307h-21zM973 758q52 0 82 31.5t30 80.5t-30 81t-82 32h-236v-225
h236z" />
    <glyph glyph-name="macron" unicode="&#xaf;" horiz-adv-x="901" 
d="M283 1413h716l-38 -184h-717z" />
    <glyph glyph-name="degree" unicode="&#xb0;" horiz-adv-x="1060" 
d="M586 768q120 0 213.5 88t93.5 219q0 93 -60 149t-155 56q-120 0 -213.5 -88t-93.5 -219q0 -93 60 -149t155 -56zM575 584q-97 0 -176 32t-129 86t-77 123.5t-27 147.5q0 137 71.5 250.5t191.5 177t259 63.5q128 0 223 -55t141 -142t46 -192q0 -137 -72 -250.5t-192 -177
t-259 -63.5z" />
    <glyph glyph-name="plusminus" unicode="&#xb1;" horiz-adv-x="1212" 
d="M240 1004h366l53 245h211l-53 -245h365l-43 -205h-365l-53 -246h-211l53 246h-366zM109 389h942l-43 -205h-942z" />
    <glyph glyph-name="twosuperior" unicode="&#xb2;" horiz-adv-x="729" 
d="M250 1423q16 50 38.5 89.5t58.5 74t91 53.5t125 19q135 0 209 -64.5t74 -160.5q0 -95 -49.5 -164t-149.5 -144l-233 -174h350l-33 -153h-614l33 153l380 297q73 57 100 94t27 80q0 82 -94 82t-121 -82h-192z" />
    <glyph glyph-name="threesuperior" unicode="&#xb3;" horiz-adv-x="741" 
d="M330 1024q0 -37 25.5 -64.5t86.5 -27.5q78 0 119 38.5t41 96.5q0 40 -26.5 65t-83.5 25h-72l31 143h71q62 0 98.5 37t36.5 84q0 35 -23.5 59.5t-68.5 24.5q-52 0 -81 -24t-38 -58h-196q24 105 109 170.5t219 65.5q126 0 198 -65t72 -160q0 -75 -46 -129t-112 -76
q47 -19 72.5 -63t25.5 -105q0 -131 -99.5 -207t-258.5 -76q-131 0 -208 66t-77 166v14h185z" />
    <glyph glyph-name="acute" unicode="&#xb4;" horiz-adv-x="593" 
d="M408 1434h348l-299 -246h-267z" />
    <glyph glyph-name="mu" unicode="&#xb5;" horiz-adv-x="1316" 
d="M801 68q-53 -53 -113 -76t-139 -23q-158 0 -225 113l-97 -451h-260l305 1434h260l-135 -635q-10 -42 -10 -82q0 -82 48 -128t147 -46q114 0 191 67t101 179l138 645h260l-228 -1065h-260z" />
    <glyph glyph-name="paragraph" unicode="&#xb6;" horiz-adv-x="1445" 
d="M299 -369l209 983q-159 0 -255.5 98.5t-96.5 248.5q0 140 72 249t191.5 166.5t262.5 57.5h868l-47 -215h-155l-336 -1588h-260l335 1588h-192l-336 -1588h-260z" />
    <glyph glyph-name="periodcentered" unicode="&#xb7;" horiz-adv-x="559" 
d="M156 686h313l-66 -307h-313z" />
    <glyph glyph-name="cedilla" unicode="&#xb8;" horiz-adv-x="573" 
d="M35 -287q1 -20 18 -30.5t43 -10.5q40 0 66 25t26 59q0 26 -15.5 43t-43.5 17q-32 0 -55 -23l-78 98l168 140h198l-149 -123q55 -4 87 -45t32 -99q0 -91 -69.5 -153t-168.5 -62q-85 0 -142.5 47.5t-57.5 116.5h141z" />
    <glyph glyph-name="onesuperior" unicode="&#xb9;" horiz-adv-x="557" 
d="M297 799l100 469q8 38 37 145h-8q-10 -11 -113 -108l-133 -117l51 246l246 204h191l-181 -839h-190z" />
    <glyph glyph-name="ordmasculine" unicode="&#xba;" horiz-adv-x="1013" 
d="M352 944q0 -95 49 -156t154 -61q73 0 133 33t97 85.5t57 114t20 123.5q0 94 -50.5 155.5t-154.5 61.5q-86 0 -157.5 -54t-109.5 -135t-38 -167zM1049 1085q0 -220 -144.5 -366t-359.5 -146q-184 0 -282.5 103.5t-98.5 265.5q0 146 70 264.5t185 183t249 64.5
q184 0 282.5 -103.5t98.5 -265.5z" />
    <glyph glyph-name="guillemotright" unicode="&#xbb;" horiz-adv-x="1337" 
d="M352 184h-317l442 359l-295 338h287l295 -349zM874 184h-317l442 359l-294 338h286l295 -349z" />
    <glyph glyph-name="onequarter" unicode="&#xbc;" horiz-adv-x="1607" 
d="M254 594l100 469q8 38 37 145h-8q-11 -11 -113 -108l-133 -117l51 246l246 205h191l-181 -840h-190zM1204 1434h217l-1091 -1434h-217zM1300 840h209l-112 -533h119l-33 -153h-119l-33 -154h-190l33 154h-398l33 153zM1206 307l29 133q15 70 61 205h-8q-33 -51 -58 -82.5
t-81 -91.5l-150 -164h207z" />
    <glyph glyph-name="onehalf" unicode="&#xbd;" horiz-adv-x="1624" 
d="M254 594l100 469q8 38 37 145h-8q-11 -11 -113 -108l-133 -117l51 246l246 205h191l-181 -840h-190zM1204 1434h217l-1091 -1434h-217zM975 625q34 107 106.5 171t206.5 64q135 0 209 -64.5t74 -160.5q0 -95 -49.5 -163.5t-149.5 -143.5l-233 -174h350l-33 -154h-614
l32 154l381 297q73 57 100 94t27 80q0 82 -94 82t-121 -82h-192z" />
    <glyph glyph-name="threequarters" unicode="&#xbe;" horiz-adv-x="1779" 
d="M285 819q0 -37 25.5 -64.5t86.5 -27.5q78 0 119 38.5t41 96.5q0 40 -27 65t-84 25h-71l31 144h71q62 0 98.5 37t36.5 84q0 35 -23.5 59t-68.5 24q-52 0 -81 -23.5t-38 -57.5h-196q24 105 108.5 170t218.5 65q126 0 198.5 -65t72.5 -160q0 -75 -46 -129t-112 -76
q47 -19 72.5 -63t25.5 -105q0 -131 -99.5 -207t-258.5 -76q-131 0 -208 66t-77 166v14h185zM1376 1434h217l-1091 -1434h-217zM1473 840h208l-112 -533h119l-33 -153h-119l-33 -154h-190l33 154h-398l33 153zM1378 307l29 133q15 70 61 205h-8q-33 -51 -58 -82.5t-81 -91.5
l-150 -164h207z" />
    <glyph glyph-name="questiondown" unicode="&#xbf;" horiz-adv-x="1052" 
d="M774 758h-313l65 307h314zM881 -31q-42 -164 -177.5 -266t-330.5 -102q-95 0 -175 29.5t-132 79t-80.5 112.5t-28.5 131q0 85 24.5 150.5t65 106t90 73t102 61.5t98.5 60.5t81.5 79.5t48.5 110h231q-18 -85 -54.5 -152.5t-79.5 -109t-90.5 -76t-92 -62.5t-80 -59
t-57 -75.5t-21.5 -102.5q0 -61 41 -101t123 -40q87 0 144.5 43t82.5 110h267z" />
    <glyph glyph-name="Agrave" unicode="&#xc0;" horiz-adv-x="1429" 
d="M-115 0l889 1434h266l279 -1434h-264l-58 317h-624l-193 -317h-295zM954 543l-43 239q-25 138 -43 375h-8q-81 -172 -205 -375l-145 -239h444zM1126 1556h-225l-192 246h307z" />
    <glyph glyph-name="Aacute" unicode="&#xc1;" horiz-adv-x="1429" 
d="M-115 0l889 1434h266l279 -1434h-264l-58 317h-624l-193 -317h-295zM954 543l-43 239q-25 138 -43 375h-8q-81 -172 -205 -375l-145 -239h444zM936 1802h348l-299 -246h-266z" />
    <glyph glyph-name="Acircumflex" unicode="&#xc2;" horiz-adv-x="1429" 
d="M-115 0l889 1434h266l279 -1434h-264l-58 317h-624l-193 -317h-295zM954 543l-43 239q-25 138 -43 375h-8q-81 -172 -205 -375l-145 -239h444zM975 1690l-109 -134h-321l299 246h286l193 -246h-293z" />
    <glyph glyph-name="Atilde" unicode="&#xc3;" horiz-adv-x="1429" 
d="M-115 0l889 1434h266l279 -1434h-264l-58 317h-624l-193 -317h-295zM954 543l-43 239q-25 138 -43 375h-8q-81 -172 -205 -375l-145 -239h444zM559 1567q27 124 101 195t182 71q48 0 95 -19t77.5 -42.5t63 -42.5t55.5 -19q62 0 77 82h174q-27 -125 -100 -195.5
t-180 -70.5q-48 0 -95 19t-77.5 42.5t-63 42.5t-55.5 19q-65 0 -80 -82h-174z" />
    <glyph glyph-name="Adieresis" unicode="&#xc4;" horiz-adv-x="1429" 
d="M-115 0l889 1434h266l279 -1434h-264l-58 317h-624l-193 -317h-295zM954 543l-43 239q-25 138 -43 375h-8q-81 -172 -205 -375l-145 -239h444zM631 1802h260l-47 -225h-260zM1079 1802h260l-47 -225h-260z" />
    <glyph glyph-name="Aring" unicode="&#xc5;" horiz-adv-x="1429" 
d="M-115 0l889 1434q-106 60 -106 194q0 115 91.5 196t209.5 81q119 0 189.5 -68t70.5 -168q0 -83 -51.5 -150t-133.5 -104l275 -1415h-264l-58 317h-624l-193 -317h-295zM823 1628q0 -45 29 -73.5t76 -28.5q57 0 101 41t44 102q0 45 -28.5 74t-75.5 29q-57 0 -101.5 -41.5
t-44.5 -102.5zM954 543l-43 239q-25 138 -43 375h-8q-81 -172 -205 -375l-145 -239h444z" />
    <glyph glyph-name="AE" unicode="&#xc6;" horiz-adv-x="2193" 
d="M969 0l67 317h-579l-267 -317h-327l1227 1434h1187l-49 -226h-731l-76 -358h690l-47 -225h-690l-86 -400h731l-47 -225h-1003zM647 543h436l142 665h-19z" />
    <glyph glyph-name="Ccedilla" unicode="&#xc7;" horiz-adv-x="1476" 
d="M567 -287q1 -20 18.5 -30.5t43.5 -10.5q40 0 66 25t26 59q0 26 -15.5 43t-43.5 17q-33 0 -56 -23l-78 98l107 89q-256 36 -387 201t-131 423q0 127 36 252t107 234t168.5 193t229 132.5t278.5 48.5q248 0 392.5 -104.5t193.5 -294.5h-281q-60 174 -305 174
q-120 0 -224 -53t-175 -141.5t-111.5 -203t-40.5 -237.5q0 -192 94 -300.5t293 -108.5q233 0 342 204h291q-73 -187 -220.5 -301.5t-363.5 -126.5l-76 -63q55 -4 87 -45t32 -99q0 -92 -69 -153.5t-168 -61.5q-85 0 -143 47.5t-58 116.5h141z" />
    <glyph glyph-name="Egrave" unicode="&#xc8;" horiz-adv-x="1325" 
d="M362 1434h1045l-47 -226h-772l-76 -358h731l-49 -225h-731l-84 -400h772l-47 -225h-1045zM1106 1556h-225l-193 246h307z" />
    <glyph glyph-name="Eacute" unicode="&#xc9;" horiz-adv-x="1325" 
d="M362 1434h1045l-47 -226h-772l-76 -358h731l-49 -225h-731l-84 -400h772l-47 -225h-1045zM913 1802h349l-299 -246h-267z" />
    <glyph glyph-name="Ecircumflex" unicode="&#xca;" horiz-adv-x="1325" 
d="M362 1434h1045l-47 -226h-772l-76 -358h731l-49 -225h-731l-84 -400h772l-47 -225h-1045zM952 1690l-108 -134h-322l299 246h287l192 -246h-292z" />
    <glyph glyph-name="Edieresis" unicode="&#xcb;" horiz-adv-x="1325" 
d="M362 1434h1045l-47 -226h-772l-76 -358h731l-49 -225h-731l-84 -400h772l-47 -225h-1045zM608 1802h260l-47 -225h-260zM1057 1802h260l-47 -225h-260z" />
    <glyph glyph-name="Igrave" unicode="&#xcc;" horiz-adv-x="614" 
d="M362 1434h273l-303 -1434h-273zM717 1556h-225l-193 246h307z" />
    <glyph glyph-name="Iacute" unicode="&#xcd;" horiz-adv-x="614" 
d="M362 1434h273l-303 -1434h-273zM524 1802h348l-299 -246h-266z" />
    <glyph glyph-name="Icircumflex" unicode="&#xce;" horiz-adv-x="614" 
d="M362 1434h273l-303 -1434h-273zM563 1690l-108 -134h-322l299 246h287l192 -246h-293z" />
    <glyph glyph-name="Idieresis" unicode="&#xcf;" horiz-adv-x="614" 
d="M362 1434h273l-303 -1434h-273zM219 1802h260l-47 -225h-260zM668 1802h260l-47 -225h-260z" />
    <glyph glyph-name="Eth" unicode="&#xd0;" horiz-adv-x="1560" 
d="M119 0l129 614h-203l45 215h203l129 605h536q271 0 422.5 -140t151.5 -393q0 -181 -60.5 -344.5t-169 -287t-272.5 -196.5t-358 -73h-553zM682 225q134 0 246 55t185 148.5t113 215.5t40 257q0 156 -85 231.5t-274 75.5h-260l-80 -379h404l-45 -215h-406l-82 -389h244z
" />
    <glyph glyph-name="Ntilde" unicode="&#xd1;" horiz-adv-x="1591" 
d="M362 1434h277l295 -625q120 -262 184 -430h8q43 251 86 450l127 605h273l-303 -1434h-275l-299 625q-134 274 -186 430h-8q-21 -175 -82 -451l-127 -604h-273zM629 1567q27 124 100.5 195t181.5 71q48 0 95 -19t77.5 -42.5t63 -42.5t55.5 -19q63 0 78 82h174
q-27 -125 -100 -195.5t-180 -70.5q-48 0 -95 19t-77.5 42.5t-63 42.5t-55.5 19q-65 0 -80 -82h-174z" />
    <glyph glyph-name="Ograve" unicode="&#xd2;" horiz-adv-x="1624" 
d="M770 195q116 0 220 53t175.5 140.5t113.5 203t42 237.5q0 190 -97 300t-290 110q-116 0 -220 -53.5t-175.5 -141t-113.5 -203t-42 -237.5q0 -191 96.5 -300t290.5 -109zM770 -31q-317 0 -486 172t-169 463q0 127 37 252t109 234t170 193t228 132.5t275 48.5
q317 0 486 -172t169 -463q0 -127 -37 -252t-109 -234t-170 -193t-228 -132.5t-275 -48.5zM1223 1556h-226l-192 246h307z" />
    <glyph glyph-name="Oacute" unicode="&#xd3;" horiz-adv-x="1624" 
d="M770 195q116 0 220 53t175.5 140.5t113.5 203t42 237.5q0 190 -97 300t-290 110q-116 0 -220 -53.5t-175.5 -141t-113.5 -203t-42 -237.5q0 -191 96.5 -300t290.5 -109zM770 -31q-317 0 -486 172t-169 463q0 127 37 252t109 234t170 193t228 132.5t275 48.5
q317 0 486 -172t169 -463q0 -127 -37 -252t-109 -234t-170 -193t-228 -132.5t-275 -48.5zM1030 1802h348l-299 -246h-266z" />
    <glyph glyph-name="Ocircumflex" unicode="&#xd4;" horiz-adv-x="1624" 
d="M770 195q116 0 220 53t175.5 140.5t113.5 203t42 237.5q0 190 -97 300t-290 110q-116 0 -220 -53.5t-175.5 -141t-113.5 -203t-42 -237.5q0 -191 96.5 -300t290.5 -109zM770 -31q-317 0 -486 172t-169 463q0 127 37 252t109 234t170 193t228 132.5t275 48.5
q317 0 486 -172t169 -463q0 -127 -37 -252t-109 -234t-170 -193t-228 -132.5t-275 -48.5zM1069 1690l-108 -134h-322l299 246h287l192 -246h-293z" />
    <glyph glyph-name="Otilde" unicode="&#xd5;" horiz-adv-x="1624" 
d="M770 195q116 0 220 53t175.5 140.5t113.5 203t42 237.5q0 190 -97 300t-290 110q-116 0 -220 -53.5t-175.5 -141t-113.5 -203t-42 -237.5q0 -191 96.5 -300t290.5 -109zM770 -31q-317 0 -486 172t-169 463q0 127 37 252t109 234t170 193t228 132.5t275 48.5
q317 0 486 -172t169 -463q0 -127 -37 -252t-109 -234t-170 -193t-228 -132.5t-275 -48.5zM641 1567q27 124 101 195t182 71q48 0 95 -19t77 -42.5t62.5 -42.5t55.5 -19q63 0 78 82h174q-27 -125 -100 -195.5t-180 -70.5q-48 0 -95 19t-77.5 42.5t-63 42.5t-55.5 19
q-65 0 -80 -82h-174z" />
    <glyph glyph-name="Odieresis" unicode="&#xd6;" horiz-adv-x="1624" 
d="M770 195q116 0 220 53t175.5 140.5t113.5 203t42 237.5q0 190 -97 300t-290 110q-116 0 -220 -53.5t-175.5 -141t-113.5 -203t-42 -237.5q0 -191 96.5 -300t290.5 -109zM770 -31q-317 0 -486 172t-169 463q0 127 37 252t109 234t170 193t228 132.5t275 48.5
q317 0 486 -172t169 -463q0 -127 -37 -252t-109 -234t-170 -193t-228 -132.5t-275 -48.5zM727 1802h260l-47 -225h-260zM1176 1802h260l-47 -225h-261z" />
    <glyph glyph-name="multiply" unicode="&#xd7;" horiz-adv-x="1191" 
d="M621 571l-435 -356l-127 158l435 358l-283 359l160 129l282 -359l434 359l127 -158l-436 -359l285 -358l-160 -129z" />
    <glyph glyph-name="Oslash" unicode="&#xd8;" horiz-adv-x="1626" 
d="M209 233q-94 149 -94 371q0 127 37 252t109 234t170 193t228 132.5t275 48.5q266 0 432 -125l131 125h275l-279 -266q96 -152 96 -369q0 -127 -37 -252t-109 -234t-170 -193t-228 -132.5t-275 -48.5q-268 0 -432 127l-133 -127h-273zM1321 829q0 105 -27 181l-776 -742
q91 -73 252 -73q116 0 220 53t175.5 140.5t113.5 203t42 237.5zM383 604q0 -102 27 -178l774 739q-92 74 -250 74q-116 0 -220 -53.5t-175.5 -141t-113.5 -203t-42 -237.5z" />
    <glyph glyph-name="Ugrave" unicode="&#xd9;" horiz-adv-x="1503" 
d="M621 1434l-195 -922q-12 -52 -12 -96q0 -108 63 -164.5t182 -56.5q156 0 270 92t146 245l191 902h272l-195 -922q-25 -115 -85 -213.5t-148 -172t-207 -115.5t-254 -42q-239 0 -372.5 123.5t-133.5 317.5q0 45 15 122l190 902h273zM1163 1556h-225l-193 246h308z" />
    <glyph glyph-name="Uacute" unicode="&#xda;" horiz-adv-x="1503" 
d="M621 1434l-195 -922q-12 -52 -12 -96q0 -108 63 -164.5t182 -56.5q156 0 270 92t146 245l191 902h272l-195 -922q-25 -115 -85 -213.5t-148 -172t-207 -115.5t-254 -42q-239 0 -372.5 123.5t-133.5 317.5q0 45 15 122l190 902h273zM971 1802h348l-299 -246h-266z" />
    <glyph glyph-name="Ucircumflex" unicode="&#xdb;" horiz-adv-x="1503" 
d="M621 1434l-195 -922q-12 -52 -12 -96q0 -108 63 -164.5t182 -56.5q156 0 270 92t146 245l191 902h272l-195 -922q-25 -115 -85 -213.5t-148 -172t-207 -115.5t-254 -42q-239 0 -372.5 123.5t-133.5 317.5q0 45 15 122l190 902h273zM1010 1690l-109 -134h-321l299 246h286
l193 -246h-293z" />
    <glyph glyph-name="Udieresis" unicode="&#xdc;" horiz-adv-x="1503" 
d="M621 1434l-195 -922q-12 -52 -12 -96q0 -108 63 -164.5t182 -56.5q156 0 270 92t146 245l191 902h272l-195 -922q-25 -115 -85 -213.5t-148 -172t-207 -115.5t-254 -42q-239 0 -372.5 123.5t-133.5 317.5q0 45 15 122l190 902h273zM666 1802h260l-47 -225h-261z
M1114 1802h260l-47 -225h-260z" />
    <glyph glyph-name="Yacute" unicode="&#xdd;" horiz-adv-x="1257" 
d="M502 571l-297 863h268l193 -635l462 635h306l-660 -863l-121 -571h-272zM850 1802h348l-299 -246h-266z" />
    <glyph glyph-name="Thorn" unicode="&#xde;" horiz-adv-x="1458" 
d="M397 307l-65 -307h-273l303 1434h275l-59 -267h448q188 0 299 -104.5t111 -263.5q0 -220 -153 -356t-400 -136h-486zM913 532q108 0 182 70.5t74 175.5q0 74 -45 119t-129 45h-465l-86 -410h469z" />
    <glyph glyph-name="germandbls" unicode="&#xdf;" horiz-adv-x="1267" 
d="M963 799q74 -21 124 -70t71.5 -108.5t21.5 -128.5q0 -102 -39.5 -191t-112.5 -156t-185.5 -106t-250.5 -39h-154l43 205h113q156 0 244 82.5t88 208.5q0 92 -55 141t-164 49h-103l41 195h72q64 0 112 21.5t74.5 56t39.5 73t13 78.5q0 67 -45 108.5t-133 41.5
q-226 0 -278 -246l-215 -1014h-260l219 1032q43 207 178.5 319.5t368.5 112.5q191 0 305 -99t114 -235q0 -237 -247 -331z" />
    <glyph glyph-name="agrave" unicode="&#xe0;" horiz-adv-x="1198" 
d="M174 778q112 318 512 318q92 0 168 -18.5t135.5 -55.5t93 -99t33.5 -143q0 -51 -14 -112l-141 -668h-259l25 113q-116 -144 -350 -144q-148 0 -252.5 85t-104.5 222q0 180 110.5 270t336.5 109l381 33l4 19q8 31 8 63q0 65 -43.5 98t-140.5 33q-185 0 -232 -123h-270z
M428 164q135 0 240 78t133 219l8 39l-342 -31q-93 -8 -143 -54.5t-50 -127.5q0 -61 40.5 -92t113.5 -31zM940 1188h-225l-193 246h307z" />
    <glyph glyph-name="aacute" unicode="&#xe1;" horiz-adv-x="1198" 
d="M174 778q112 318 512 318q92 0 168 -18.5t135.5 -55.5t93 -99t33.5 -143q0 -51 -14 -112l-141 -668h-259l25 113q-116 -144 -350 -144q-148 0 -252.5 85t-104.5 222q0 180 110.5 270t336.5 109l381 33l4 19q8 31 8 63q0 65 -43.5 98t-140.5 33q-185 0 -232 -123h-270z
M428 164q135 0 240 78t133 219l8 39l-342 -31q-93 -8 -143 -54.5t-50 -127.5q0 -61 40.5 -92t113.5 -31zM748 1434h348l-299 -246h-267z" />
    <glyph glyph-name="acircumflex" unicode="&#xe2;" horiz-adv-x="1198" 
d="M174 778q112 318 512 318q92 0 168 -18.5t135.5 -55.5t93 -99t33.5 -143q0 -51 -14 -112l-141 -668h-259l25 113q-116 -144 -350 -144q-148 0 -252.5 85t-104.5 222q0 180 110.5 270t336.5 109l381 33l4 19q8 31 8 63q0 65 -43.5 98t-140.5 33q-185 0 -232 -123h-270z
M428 164q135 0 240 78t133 219l8 39l-342 -31q-93 -8 -143 -54.5t-50 -127.5q0 -61 40.5 -92t113.5 -31zM786 1321l-108 -133h-322l299 246h287l193 -246h-293z" />
    <glyph glyph-name="atilde" unicode="&#xe3;" horiz-adv-x="1198" 
d="M174 778q112 318 512 318q92 0 168 -18.5t135.5 -55.5t93 -99t33.5 -143q0 -51 -14 -112l-141 -668h-259l25 113q-116 -144 -350 -144q-148 0 -252.5 85t-104.5 222q0 180 110.5 270t336.5 109l381 33l4 19q8 31 8 63q0 65 -43.5 98t-140.5 33q-185 0 -232 -123h-270z
M428 164q135 0 240 78t133 219l8 39l-342 -31q-93 -8 -143 -54.5t-50 -127.5q0 -61 40.5 -92t113.5 -31zM358 1198q27 124 101 195t182 71q48 0 95 -19t77.5 -42.5t63 -42.5t55.5 -19q63 0 78 82h174q-27 -124 -100 -195t-181 -71q-48 0 -95 19t-77.5 42.5t-63 42.5
t-55.5 19q-65 0 -80 -82h-174z" />
    <glyph glyph-name="adieresis" unicode="&#xe4;" horiz-adv-x="1198" 
d="M174 778q112 318 512 318q92 0 168 -18.5t135.5 -55.5t93 -99t33.5 -143q0 -51 -14 -112l-141 -668h-259l25 113q-116 -144 -350 -144q-148 0 -252.5 85t-104.5 222q0 180 110.5 270t336.5 109l381 33l4 19q8 31 8 63q0 65 -43.5 98t-140.5 33q-185 0 -232 -123h-270z
M428 164q135 0 240 78t133 219l8 39l-342 -31q-93 -8 -143 -54.5t-50 -127.5q0 -61 40.5 -92t113.5 -31zM442 1434h260l-47 -226h-260zM891 1434h260l-47 -226h-260z" />
    <glyph glyph-name="aring" unicode="&#xe5;" horiz-adv-x="1198" 
d="M174 778q112 318 512 318q92 0 168 -18.5t135.5 -55.5t93 -99t33.5 -143q0 -51 -14 -112l-141 -668h-259l25 113q-116 -144 -350 -144q-148 0 -252.5 85t-104.5 222q0 180 110.5 270t336.5 109l381 33l4 19q8 31 8 63q0 65 -43.5 98t-140.5 33q-185 0 -232 -123h-270z
M428 164q135 0 240 78t133 219l8 39l-342 -31q-93 -8 -143 -54.5t-50 -127.5q0 -61 40.5 -92t113.5 -31zM668 1382q0 -45 28.5 -73.5t75.5 -28.5q58 0 102 41t44 102q0 45 -29 74t-76 29q-57 0 -101 -41.5t-44 -102.5zM1073 1423q0 -115 -91.5 -195.5t-209.5 -80.5
q-119 0 -189.5 67.5t-70.5 167.5q0 115 91.5 196t209.5 81q119 0 189.5 -68t70.5 -168z" />
    <glyph glyph-name="ae" unicode="&#xe6;" horiz-adv-x="1961" 
d="M1053 440q-2 -14 -2 -43q0 -100 58.5 -166.5t178.5 -66.5q86 0 144.5 34t101.5 109h301q-89 -163 -231 -250.5t-328 -87.5q-133 0 -233 52.5t-162 146.5q-47 -49 -109.5 -90.5t-164.5 -75t-212 -33.5q-160 0 -268.5 84.5t-108.5 222.5q0 180 112.5 270t338.5 109l381 33
l4 19q8 31 8 63q0 131 -188 131q-186 0 -232 -123h-270q112 318 512 318q114 0 212.5 -33.5t156.5 -97.5q166 131 391 131q133 0 235.5 -45.5t163 -140t60.5 -226.5q0 -104 -31 -244h-819zM424 164q136 0 243.5 78.5t135.5 218.5l8 39l-342 -31q-93 -8 -145 -54.5
t-52 -127.5q0 -61 39.5 -92t112.5 -31zM1434 901q-116 0 -208.5 -77t-131.5 -189h553q4 32 4 51q0 96 -56 155.5t-161 59.5z" />
    <glyph glyph-name="ccedilla" unicode="&#xe7;" horiz-adv-x="1140" 
d="M360 -287q1 -20 18.5 -30.5t43.5 -10.5q40 0 66 25t26 59q0 26 -15.5 43t-43.5 17q-33 0 -56 -23l-77 98l108 91q-182 35 -271 160.5t-89 308.5q0 121 43 235.5t120 206t195.5 147.5t257.5 56q370 0 444 -318h-256q-21 57 -65.5 87t-122.5 30q-106 0 -190.5 -65
t-128 -165.5t-43.5 -213.5q0 -281 239 -281q151 0 228 137h262q-58 -144 -167 -233.5t-272 -102.5l-75 -63q55 -4 86.5 -45t31.5 -99q0 -92 -69 -153.5t-168 -61.5q-85 0 -143 47.5t-58 116.5h141z" />
    <glyph glyph-name="egrave" unicode="&#xe8;" horiz-adv-x="1232" 
d="M1106 307q-89 -163 -231 -250.5t-328 -87.5q-148 0 -258.5 65.5t-165.5 171t-55 234.5q0 177 80.5 326.5t230 239.5t336.5 90q133 0 235.5 -45.5t163 -140t60.5 -226.5q0 -104 -31 -244h-819q-2 -14 -2 -43q0 -100 58.5 -166.5t178.5 -66.5q86 0 144.5 34t101.5 109h301z
M705 901q-116 0 -208.5 -77t-131.5 -189h553q4 32 4 47q0 96 -56.5 157.5t-160.5 61.5zM958 1188h-225l-192 246h307z" />
    <glyph glyph-name="eacute" unicode="&#xe9;" horiz-adv-x="1232" 
d="M1106 307q-89 -163 -231 -250.5t-328 -87.5q-148 0 -258.5 65.5t-165.5 171t-55 234.5q0 177 80.5 326.5t230 239.5t336.5 90q133 0 235.5 -45.5t163 -140t60.5 -226.5q0 -104 -31 -244h-819q-2 -14 -2 -43q0 -100 58.5 -166.5t178.5 -66.5q86 0 144.5 34t101.5 109h301z
M705 901q-116 0 -208.5 -77t-131.5 -189h553q4 32 4 47q0 96 -56.5 157.5t-160.5 61.5zM766 1434h348l-299 -246h-266z" />
    <glyph glyph-name="ecircumflex" unicode="&#xea;" horiz-adv-x="1232" 
d="M1106 307q-89 -163 -231 -250.5t-328 -87.5q-148 0 -258.5 65.5t-165.5 171t-55 234.5q0 177 80.5 326.5t230 239.5t336.5 90q133 0 235.5 -45.5t163 -140t60.5 -226.5q0 -104 -31 -244h-819q-2 -14 -2 -43q0 -100 58.5 -166.5t178.5 -66.5q86 0 144.5 34t101.5 109h301z
M705 901q-116 0 -208.5 -77t-131.5 -189h553q4 32 4 47q0 96 -56.5 157.5t-160.5 61.5zM805 1321l-109 -133h-321l299 246h287l192 -246h-293z" />
    <glyph glyph-name="edieresis" unicode="&#xeb;" horiz-adv-x="1232" 
d="M1106 307q-89 -163 -231 -250.5t-328 -87.5q-148 0 -258.5 65.5t-165.5 171t-55 234.5q0 177 80.5 326.5t230 239.5t336.5 90q133 0 235.5 -45.5t163 -140t60.5 -226.5q0 -104 -31 -244h-819q-2 -14 -2 -43q0 -100 58.5 -166.5t178.5 -66.5q86 0 144.5 34t101.5 109h301z
M705 901q-116 0 -208.5 -77t-131.5 -189h553q4 32 4 47q0 96 -56.5 157.5t-160.5 61.5zM461 1434h260l-47 -226h-260zM909 1434h260l-47 -226h-260z" />
    <glyph glyph-name="igrave" unicode="&#xec;" horiz-adv-x="532" 
d="M250 1065h260l-227 -1065h-260zM598 1188h-225l-193 246h307z" />
    <glyph glyph-name="iacute" unicode="&#xed;" horiz-adv-x="532" 
d="M250 1065h260l-227 -1065h-260zM406 1434h348l-299 -246h-267z" />
    <glyph glyph-name="icircumflex" unicode="&#xee;" horiz-adv-x="532" 
d="M250 1065h260l-227 -1065h-260zM444 1321l-108 -133h-322l299 246h287l193 -246h-293z" />
    <glyph glyph-name="idieresis" unicode="&#xef;" horiz-adv-x="532" 
d="M250 1065h260l-227 -1065h-260zM100 1434h260l-47 -226h-260zM549 1434h260l-47 -226h-260z" />
    <glyph glyph-name="eth" unicode="&#xf0;" horiz-adv-x="1210" 
d="M616 1274l-124 160h292l64 -86l358 116l-43 -204l-202 -66q84 -112 131 -241t47 -308q0 -197 -75 -349.5t-218.5 -239.5t-335.5 -87q-191 0 -321 126.5t-130 314.5q0 241 160 402t408 161q79 0 147 -28t105 -75q-28 104 -144 252l-430 -139l45 205zM524 174
q138 0 240 107t102 254q0 106 -57 169.5t-160 63.5q-100 0 -177 -52t-116 -132t-39 -172q0 -103 55.5 -170.5t151.5 -67.5z" />
    <glyph glyph-name="ntilde" unicode="&#xf1;" horiz-adv-x="1259" 
d="M481 932q58 74 144 119t190 45q170 0 264.5 -89.5t94.5 -246.5q0 -51 -17 -131l-133 -629h-260l133 629q12 62 12 92q0 162 -178 162q-119 0 -207 -81.5t-118 -226.5l-123 -575h-260l227 1065h260zM383 1198q27 124 101 195t182 71q48 0 95 -19t77 -42.5t62.5 -42.5
t55.5 -19q63 0 78 82h174q-27 -125 -100 -195.5t-180 -70.5q-48 0 -95 19t-77.5 42.5t-63 42.5t-55.5 19q-65 0 -80 -82h-174z" />
    <glyph glyph-name="ograve" unicode="&#xf2;" horiz-adv-x="1265" 
d="M322 451q0 -130 60.5 -203.5t188.5 -73.5q106 0 193 64t133.5 164.5t46.5 211.5q0 129 -61 203t-189 74q-107 0 -194 -64t-132.5 -164t-45.5 -212zM68 451q0 120 44.5 235.5t123.5 206.5t198.5 147t259.5 56q128 0 226 -37.5t158 -104t90 -152.5t30 -188
q0 -96 -28 -189.5t-82.5 -175.5t-129 -144.5t-175 -99t-212.5 -36.5q-128 0 -226 37.5t-157.5 104t-89.5 152.5t-30 188zM969 1188h-226l-192 246h307z" />
    <glyph glyph-name="oacute" unicode="&#xf3;" horiz-adv-x="1265" 
d="M322 451q0 -130 60.5 -203.5t188.5 -73.5q106 0 193 64t133.5 164.5t46.5 211.5q0 129 -61 203t-189 74q-107 0 -194 -64t-132.5 -164t-45.5 -212zM68 451q0 120 44.5 235.5t123.5 206.5t198.5 147t259.5 56q128 0 226 -37.5t158 -104t90 -152.5t30 -188
q0 -96 -28 -189.5t-82.5 -175.5t-129 -144.5t-175 -99t-212.5 -36.5q-128 0 -226 37.5t-157.5 104t-89.5 152.5t-30 188zM776 1434h348l-299 -246h-266z" />
    <glyph glyph-name="ocircumflex" unicode="&#xf4;" horiz-adv-x="1265" 
d="M322 451q0 -130 60.5 -203.5t188.5 -73.5q106 0 193 64t133.5 164.5t46.5 211.5q0 129 -61 203t-189 74q-107 0 -194 -64t-132.5 -164t-45.5 -212zM68 451q0 120 44.5 235.5t123.5 206.5t198.5 147t259.5 56q128 0 226 -37.5t158 -104t90 -152.5t30 -188
q0 -96 -28 -189.5t-82.5 -175.5t-129 -144.5t-175 -99t-212.5 -36.5q-128 0 -226 37.5t-157.5 104t-89.5 152.5t-30 188zM815 1321l-108 -133h-322l299 246h287l192 -246h-293z" />
    <glyph glyph-name="otilde" unicode="&#xf5;" horiz-adv-x="1265" 
d="M322 451q0 -130 60.5 -203.5t188.5 -73.5q106 0 193 64t133.5 164.5t46.5 211.5q0 129 -61 203t-189 74q-107 0 -194 -64t-132.5 -164t-45.5 -212zM68 451q0 120 44.5 235.5t123.5 206.5t198.5 147t259.5 56q128 0 226 -37.5t158 -104t90 -152.5t30 -188
q0 -96 -28 -189.5t-82.5 -175.5t-129 -144.5t-175 -99t-212.5 -36.5q-128 0 -226 37.5t-157.5 104t-89.5 152.5t-30 188zM387 1198q27 124 101 195t182 71q48 0 95 -19t77.5 -42.5t63 -42.5t55.5 -19q62 0 77 82h174q-27 -125 -100 -195.5t-180 -70.5q-48 0 -95 19
t-77.5 42.5t-63 42.5t-55.5 19q-65 0 -80 -82h-174z" />
    <glyph glyph-name="odieresis" unicode="&#xf6;" horiz-adv-x="1265" 
d="M322 451q0 -130 60.5 -203.5t188.5 -73.5q106 0 193 64t133.5 164.5t46.5 211.5q0 129 -61 203t-189 74q-107 0 -194 -64t-132.5 -164t-45.5 -212zM68 451q0 120 44.5 235.5t123.5 206.5t198.5 147t259.5 56q128 0 226 -37.5t158 -104t90 -152.5t30 -188
q0 -96 -28 -189.5t-82.5 -175.5t-129 -144.5t-175 -99t-212.5 -36.5q-128 0 -226 37.5t-157.5 104t-89.5 152.5t-30 188zM471 1434h260l-47 -226h-260zM920 1434h260l-47 -226h-261z" />
    <glyph glyph-name="divide" unicode="&#xf7;" horiz-adv-x="1177" 
d="M137 819h1026l-43 -205h-1026zM586 1249h313l-61 -286h-314zM420 471h313l-61 -287h-314z" />
    <glyph glyph-name="oslash" unicode="&#xf8;" horiz-adv-x="1267" 
d="M143 170q-73 115 -73 281q0 120 44.5 235.5t123.5 206.5t198.5 147t259.5 56q198 0 324 -90l96 90h225l-215 -203q74 -116 74 -279q0 -96 -28 -189.5t-82.5 -175.5t-129 -144.5t-175 -99t-212.5 -36.5q-195 0 -323 88l-94 -88h-224zM324 451q0 -62 10 -101l520 496
q-57 45 -158 45q-107 0 -194 -64t-132.5 -164t-45.5 -212zM946 614q0 45 -10 97l-520 -494q58 -43 157 -43q106 0 193 64t133.5 164.5t46.5 211.5z" />
    <glyph glyph-name="ugrave" unicode="&#xf9;" horiz-adv-x="1251" 
d="M764 106q-105 -137 -315 -137q-170 0 -265.5 91.5t-95.5 248.5q0 56 16 131l134 625h260l-138 -645q-12 -50 -12 -92q0 -144 176 -144q120 0 205 76t115 221l125 584h260l-228 -1065h-260zM952 1188h-225l-192 246h307z" />
    <glyph glyph-name="uacute" unicode="&#xfa;" horiz-adv-x="1251" 
d="M764 106q-105 -137 -315 -137q-170 0 -265.5 91.5t-95.5 248.5q0 56 16 131l134 625h260l-138 -645q-12 -50 -12 -92q0 -144 176 -144q120 0 205 76t115 221l125 584h260l-228 -1065h-260zM760 1434h348l-299 -246h-266z" />
    <glyph glyph-name="ucircumflex" unicode="&#xfb;" horiz-adv-x="1251" 
d="M764 106q-105 -137 -315 -137q-170 0 -265.5 91.5t-95.5 248.5q0 56 16 131l134 625h260l-138 -645q-12 -50 -12 -92q0 -144 176 -144q120 0 205 76t115 221l125 584h260l-228 -1065h-260zM799 1321l-109 -133h-321l299 246h286l193 -246h-293z" />
    <glyph glyph-name="udieresis" unicode="&#xfc;" horiz-adv-x="1251" 
d="M764 106q-105 -137 -315 -137q-170 0 -265.5 91.5t-95.5 248.5q0 56 16 131l134 625h260l-138 -645q-12 -50 -12 -92q0 -144 176 -144q120 0 205 76t115 221l125 584h260l-228 -1065h-260zM455 1434h260l-47 -226h-260zM903 1434h260l-47 -226h-260z" />
    <glyph glyph-name="yacute" unicode="&#xfd;" horiz-adv-x="1081" 
d="M690 1434h348l-299 -246h-266zM307 0l-172 1065h256l60 -410q19 -133 24 -358h8q117 251 179 358l233 410h285l-693 -1186q-52 -91 -102 -141t-134 -78.5t-210 -28.5h-125l43 199h102q84 0 133 28.5t97 112.5z" />
    <glyph glyph-name="thorn" unicode="&#xfe;" horiz-adv-x="1306" 
d="M758 891q-66 0 -126.5 -27t-106 -73t-79.5 -105t-51.5 -125t-17.5 -131q0 -117 62 -186.5t167 -69.5q115 0 204 72t133 178.5t44 224.5q0 117 -59.5 179.5t-169.5 62.5zM207 -369h-260l383 1803h260l-103 -482q126 144 334 144q99 0 180 -36.5t133.5 -98.5t80.5 -142.5
t28 -169.5q0 -100 -26.5 -198.5t-78.5 -185t-123.5 -153t-167 -105t-202.5 -38.5q-130 0 -213 49.5t-117 126.5z" />
    <glyph glyph-name="ydieresis" unicode="&#xff;" horiz-adv-x="1081" 
d="M379 1434h260l-47 -226h-260zM827 1434h260l-47 -226h-260zM307 0l-172 1065h256l60 -410q19 -133 24 -358h8q117 251 179 358l233 410h285l-693 -1186q-52 -91 -102 -141t-134 -78.5t-210 -28.5h-125l43 199h102q84 0 133 28.5t97 112.5z" />
    <glyph glyph-name="Amacron" unicode="&#x100;" horiz-adv-x="1429" 
d="M-115 0l889 1434h266l279 -1434h-264l-58 317h-624l-193 -317h-295zM954 543l-43 239q-25 138 -43 375h-8q-81 -172 -205 -375l-145 -239h444zM623 1782h716l-39 -185h-716z" />
    <glyph glyph-name="amacron" unicode="&#x101;" horiz-adv-x="1198" 
d="M174 778q112 318 512 318q92 0 168 -18.5t135.5 -55.5t93 -99t33.5 -143q0 -51 -14 -112l-141 -668h-259l25 113q-116 -144 -350 -144q-148 0 -252.5 85t-104.5 222q0 180 110.5 270t336.5 109l381 33l4 19q8 31 8 63q0 65 -43.5 98t-140.5 33q-185 0 -232 -123h-270z
M428 164q135 0 240 78t133 219l8 39l-342 -31q-93 -8 -143 -54.5t-50 -127.5q0 -61 40.5 -92t113.5 -31zM436 1413h717l-39 -184h-717z" />
    <glyph glyph-name="Abreve" unicode="&#x102;" horiz-adv-x="1429" 
d="M-115 0l889 1434h266l279 -1434h-264l-58 317h-624l-193 -317h-295zM954 543l-43 239q-25 138 -43 375h-8q-81 -172 -205 -375l-145 -239h444zM967 1720q68 0 116 32.5t72 90.5h188q-39 -134 -140.5 -220.5t-246.5 -86.5q-149 0 -237 89t-80 218h172q5 -57 46 -90
t110 -33z" />
    <glyph glyph-name="abreve" unicode="&#x103;" horiz-adv-x="1198" 
d="M174 778q112 318 512 318q92 0 168 -18.5t135.5 -55.5t93 -99t33.5 -143q0 -51 -14 -112l-141 -668h-259l25 113q-116 -144 -350 -144q-148 0 -252.5 85t-104.5 222q0 180 110.5 270t336.5 109l381 33l4 19q8 31 8 63q0 65 -43.5 98t-140.5 33q-185 0 -232 -123h-270z
M428 164q135 0 240 78t133 219l8 39l-342 -31q-93 -8 -143 -54.5t-50 -127.5q0 -61 40.5 -92t113.5 -31zM782 1352q68 0 116.5 32.5t72.5 90.5h188q-39 -134 -140.5 -221t-246.5 -87q-149 0 -237 89.5t-80 218.5h172q5 -57 45.5 -90t109.5 -33z" />
    <glyph glyph-name="Aogonek" unicode="&#x104;" horiz-adv-x="1429" 
d="M1171 -276q52 0 107 14l-107 -176q-66 -13 -118 -13q-92 0 -152.5 61t-60.5 146q0 171 213 256l-56 305h-624l-193 -317h-295l889 1434h266l279 -1434q-125 -54 -184.5 -102t-59.5 -105q0 -69 96 -69zM954 543l-43 239q-25 138 -43 375h-8q-81 -172 -205 -375l-145 -239
h444z" />
    <glyph glyph-name="aogonek" unicode="&#x105;" horiz-adv-x="1198" 
d="M676 901q-185 0 -232 -123h-270q112 318 512 318q92 0 168 -18.5t135.5 -55.5t93 -99t33.5 -143q0 -51 -14 -112l-141 -668q-125 -54 -184.5 -102t-59.5 -105q0 -69 96 -69q52 0 107 14l-107 -176q-66 -13 -119 -13q-92 0 -152.5 61t-60.5 146q0 98 64.5 162t161.5 98
l20 97q-116 -144 -350 -144q-148 0 -252.5 85t-104.5 222q0 180 110.5 270t336.5 109l383 33l4 19q8 31 8 63q0 131 -186 131zM428 164q135 0 240 78t133 219l8 39l-342 -31q-93 -8 -143 -54.5t-50 -127.5q0 -61 40.5 -92t113.5 -31z" />
    <glyph glyph-name="Cacute" unicode="&#x106;" horiz-adv-x="1476" 
d="M1405 399q-78 -196 -238 -313t-395 -117q-163 0 -289 46t-205.5 130.5t-120 200t-40.5 258.5q0 127 36 252t107 234t168.5 193t229 132.5t278.5 48.5q248 0 392.5 -104.5t193.5 -294.5h-281q-60 174 -305 174q-120 0 -224 -53t-175 -141.5t-111.5 -203t-40.5 -237.5
q0 -192 94 -300.5t293 -108.5q233 0 342 204h291zM1022 1802h348l-299 -246h-266z" />
    <glyph glyph-name="cacute" unicode="&#x107;" horiz-adv-x="1140" 
d="M1053 307q-63 -155 -184.5 -246.5t-305.5 -91.5q-127 0 -224 37.5t-154.5 104.5t-86 152t-28.5 188q0 121 43 235.5t120 206t195.5 147.5t257.5 56q370 0 444 -318h-256q-21 57 -65.5 87t-122.5 30q-106 0 -190.5 -65t-128 -165.5t-43.5 -213.5q0 -281 239 -281
q151 0 228 137h262zM750 1434h348l-299 -246h-267z" />
    <glyph glyph-name="Ccircumflex" unicode="&#x108;" horiz-adv-x="1476" 
d="M1405 399q-78 -196 -238 -313t-395 -117q-163 0 -289 46t-205.5 130.5t-120 200t-40.5 258.5q0 127 36 252t107 234t168.5 193t229 132.5t278.5 48.5q248 0 392.5 -104.5t193.5 -294.5h-281q-60 174 -305 174q-120 0 -224 -53t-175 -141.5t-111.5 -203t-40.5 -237.5
q0 -192 94 -300.5t293 -108.5q233 0 342 204h291zM1061 1690l-109 -134h-321l299 246h287l192 -246h-293z" />
    <glyph glyph-name="ccircumflex" unicode="&#x109;" horiz-adv-x="1140" 
d="M1053 307q-63 -155 -184.5 -246.5t-305.5 -91.5q-127 0 -224 37.5t-154.5 104.5t-86 152t-28.5 188q0 121 43 235.5t120 206t195.5 147.5t257.5 56q370 0 444 -318h-256q-21 57 -65.5 87t-122.5 30q-106 0 -190.5 -65t-128 -165.5t-43.5 -213.5q0 -281 239 -281
q151 0 228 137h262zM786 1321l-108 -133h-322l299 246h287l193 -246h-293z" />
    <glyph glyph-name="Cdotaccent" unicode="&#x10a;" horiz-adv-x="1476" 
d="M1405 399q-78 -196 -238 -313t-395 -117q-163 0 -289 46t-205.5 130.5t-120 200t-40.5 258.5q0 127 36 252t107 234t168.5 193t229 132.5t278.5 48.5q248 0 392.5 -104.5t193.5 -294.5h-281q-60 174 -305 174q-120 0 -224 -53t-175 -141.5t-111.5 -203t-40.5 -237.5
q0 -192 94 -300.5t293 -108.5q233 0 342 204h291zM942 1802h260l-47 -225h-260z" />
    <glyph glyph-name="cdotaccent" unicode="&#x10b;" horiz-adv-x="1140" 
d="M1053 307q-63 -155 -184.5 -246.5t-305.5 -91.5q-127 0 -224 37.5t-154.5 104.5t-86 152t-28.5 188q0 121 43 235.5t120 206t195.5 147.5t257.5 56q370 0 444 -318h-256q-21 57 -65.5 87t-122.5 30q-106 0 -190.5 -65t-128 -165.5t-43.5 -213.5q0 -281 239 -281
q151 0 228 137h262zM657 1434h261l-48 -226h-260z" />
    <glyph glyph-name="Ccaron" unicode="&#x10c;" horiz-adv-x="1476" 
d="M1405 399q-78 -196 -238 -313t-395 -117q-163 0 -289 46t-205.5 130.5t-120 200t-40.5 258.5q0 127 36 252t107 234t168.5 193t229 132.5t278.5 48.5q248 0 392.5 -104.5t193.5 -294.5h-281q-60 174 -305 174q-120 0 -224 -53t-175 -141.5t-111.5 -203t-40.5 -237.5
q0 -192 94 -300.5t293 -108.5q233 0 342 204h291zM1032 1669l109 133h321l-299 -246h-286l-193 246h293z" />
    <glyph glyph-name="ccaron" unicode="&#x10d;" horiz-adv-x="1140" 
d="M1053 307q-63 -155 -184.5 -246.5t-305.5 -91.5q-127 0 -224 37.5t-154.5 104.5t-86 152t-28.5 188q0 121 43 235.5t120 206t195.5 147.5t257.5 56q370 0 444 -318h-256q-21 57 -65.5 87t-122.5 30q-106 0 -190.5 -65t-128 -165.5t-43.5 -213.5q0 -281 239 -281
q151 0 228 137h262zM758 1300l108 134h322l-299 -246h-287l-192 246h292z" />
    <glyph glyph-name="Dcaron" unicode="&#x10e;" horiz-adv-x="1501" 
d="M362 1434h537q271 0 422.5 -140t151.5 -393q0 -181 -60.5 -344.5t-169.5 -287t-273 -196.5t-358 -73h-553zM623 225q108 0 202 36t163 99t118.5 148t74.5 185t25 208q0 157 -84.5 232t-273.5 75h-260l-209 -983h244zM956 1669l109 133h321l-299 -246h-286l-193 246h293z
" />
    <glyph glyph-name="dcaron" unicode="&#x10f;" horiz-adv-x="1447" 
d="M551 174q109 0 198.5 70t137 175t47.5 216q0 117 -62 186.5t-167 69.5q-87 0 -160.5 -42t-120.5 -110t-73.5 -151t-26.5 -168q0 -118 58.5 -182t168.5 -64zM811 96q-137 -127 -322 -127q-128 0 -226 63.5t-147.5 165.5t-49.5 222q0 100 26 197t78 183.5t123.5 152.5
t170 104.5t210.5 38.5q116 0 199 -45t118 -111l105 494h260l-305 -1434h-260zM1497 1434h270l-211 -410h-208z" />
    <glyph glyph-name="Dcroat" unicode="&#x110;" horiz-adv-x="1560" 
d="M119 0l129 614h-203l45 215h203l129 605h536q271 0 422.5 -140t151.5 -393q0 -181 -60.5 -344.5t-169 -287t-272.5 -196.5t-358 -73h-553zM682 225q134 0 246 55t185 148.5t113 215.5t40 257q0 156 -85 231.5t-274 75.5h-260l-80 -379h404l-45 -215h-406l-82 -389h244z
" />
    <glyph glyph-name="dcroat" unicode="&#x111;" horiz-adv-x="1271" 
d="M733 0l17 84q-56 -53 -135.5 -84t-170.5 -31q-94 0 -171 36.5t-124.5 97t-72.5 132.5t-25 148q0 148 69.5 277.5t199.5 210.5t292 81q103 0 180 -38.5t115 -98.5l51 250h-430l41 195h430l37 174h260l-36 -174h143l-41 -195h-143l-226 -1065h-260zM518 174
q138 0 235 109.5t97 253.5q0 93 -52.5 152t-158.5 59q-138 0 -234 -109.5t-96 -255.5q0 -95 52 -152t157 -57z" />
    <glyph glyph-name="Emacron" unicode="&#x112;" horiz-adv-x="1325" 
d="M362 1434h1045l-47 -226h-772l-76 -358h731l-49 -225h-731l-84 -400h772l-47 -225h-1045zM602 1782h717l-39 -185h-717z" />
    <glyph glyph-name="emacron" unicode="&#x113;" horiz-adv-x="1232" 
d="M1106 307q-89 -163 -231 -250.5t-328 -87.5q-148 0 -258.5 65.5t-165.5 171t-55 234.5q0 177 80.5 326.5t230 239.5t336.5 90q133 0 235.5 -45.5t163 -140t60.5 -226.5q0 -104 -31 -244h-819q-2 -14 -2 -43q0 -100 58.5 -166.5t178.5 -66.5q86 0 144.5 34t101.5 109h301z
M705 901q-116 0 -208.5 -77t-131.5 -189h553q4 32 4 47q0 96 -56.5 157.5t-160.5 61.5zM455 1413h716l-38 -184h-717z" />
    <glyph glyph-name="Ebreve" unicode="&#x114;" horiz-adv-x="1325" 
d="M362 1434h1045l-47 -226h-772l-76 -358h731l-49 -225h-731l-84 -400h772l-47 -225h-1045zM948 1720q68 0 116.5 32.5t72.5 90.5h188q-39 -134 -140.5 -220.5t-246.5 -86.5q-149 0 -237 89t-80 218h172q5 -57 45.5 -90t109.5 -33z" />
    <glyph glyph-name="ebreve" unicode="&#x115;" horiz-adv-x="1232" 
d="M1106 307q-89 -163 -231 -250.5t-328 -87.5q-148 0 -258.5 65.5t-165.5 171t-55 234.5q0 177 80.5 326.5t230 239.5t336.5 90q133 0 235.5 -45.5t163 -140t60.5 -226.5q0 -104 -31 -244h-819q-2 -14 -2 -43q0 -100 58.5 -166.5t178.5 -66.5q86 0 144.5 34t101.5 109h301z
M705 901q-116 0 -208.5 -77t-131.5 -189h553q4 32 4 47q0 96 -56.5 157.5t-160.5 61.5zM801 1352q68 0 116 32.5t72 90.5h189q-39 -134 -140.5 -221t-246.5 -87q-149 0 -237.5 89.5t-80.5 218.5h172q5 -57 46 -90t110 -33z" />
    <glyph glyph-name="Edotaccent" unicode="&#x116;" horiz-adv-x="1325" 
d="M362 1434h1045l-47 -226h-772l-76 -358h731l-49 -225h-731l-84 -400h772l-47 -225h-1045zM834 1802h260l-47 -225h-261z" />
    <glyph glyph-name="edotaccent" unicode="&#x117;" horiz-adv-x="1232" 
d="M1106 307q-89 -163 -231 -250.5t-328 -87.5q-148 0 -258.5 65.5t-165.5 171t-55 234.5q0 177 80.5 326.5t230 239.5t336.5 90q133 0 235.5 -45.5t163 -140t60.5 -226.5q0 -104 -31 -244h-819q-2 -14 -2 -43q0 -100 58.5 -166.5t178.5 -66.5q86 0 144.5 34t101.5 109h301z
M705 901q-116 0 -208.5 -77t-131.5 -189h553q4 32 4 47q0 96 -56.5 157.5t-160.5 61.5zM686 1434h260l-47 -226h-260z" />
    <glyph glyph-name="Eogonek" unicode="&#x118;" horiz-adv-x="1325" 
d="M362 1434h1045l-47 -226h-772l-76 -358h731l-49 -225h-731l-84 -400h772l-47 -225q-125 -54 -184.5 -102t-59.5 -105q0 -69 96 -69q52 0 107 14l-107 -176q-66 -13 -118 -13q-92 0 -152.5 61t-60.5 146q0 162 184 244h-750z" />
    <glyph glyph-name="eogonek" unicode="&#x119;" horiz-adv-x="1232" 
d="M387 -244q0 135 127 215q-208 12 -327 144t-119 325q0 177 80.5 326.5t230 239.5t336.5 90q133 0 235.5 -45.5t163 -140t60.5 -226.5q0 -104 -31 -244h-819q-2 -14 -2 -43q0 -100 58.5 -166.5t178.5 -66.5q86 0 144.5 34t101.5 109h301q-43 -83 -110 -154t-129 -116
t-118.5 -84.5t-91 -79t-34.5 -80.5q0 -69 96 -69q51 0 106 14l-106 -176q-66 -13 -119 -13q-92 0 -152.5 61t-60.5 146zM705 901q-116 0 -208.5 -77t-131.5 -189h553q4 32 4 47q0 96 -56.5 157.5t-160.5 61.5z" />
    <glyph glyph-name="Ecaron" unicode="&#x11a;" horiz-adv-x="1325" 
d="M362 1434h1045l-47 -226h-772l-76 -358h731l-49 -225h-731l-84 -400h772l-47 -225h-1045zM924 1669l108 133h322l-299 -246h-287l-193 246h293z" />
    <glyph glyph-name="ecaron" unicode="&#x11b;" horiz-adv-x="1232" 
d="M1106 307q-89 -163 -231 -250.5t-328 -87.5q-148 0 -258.5 65.5t-165.5 171t-55 234.5q0 177 80.5 326.5t230 239.5t336.5 90q133 0 235.5 -45.5t163 -140t60.5 -226.5q0 -104 -31 -244h-819q-2 -14 -2 -43q0 -100 58.5 -166.5t178.5 -66.5q86 0 144.5 34t101.5 109h301z
M705 901q-116 0 -208.5 -77t-131.5 -189h553q4 32 4 47q0 96 -56.5 157.5t-160.5 61.5zM776 1300l109 134h321l-299 -246h-286l-193 246h293z" />
    <glyph glyph-name="Gcircumflex" unicode="&#x11c;" horiz-adv-x="1552" 
d="M1040 1690l-108 -134h-322l299 246h287l193 -246h-293zM741 -31q-297 0 -460.5 171t-163.5 464q0 127 36 252t107 234t168.5 193t229 132.5t278.5 48.5q248 0 392.5 -104.5t193.5 -294.5h-277q-37 85 -111 129.5t-198 44.5q-120 0 -224 -53t-175 -141.5t-111.5 -203
t-40.5 -237.5q0 -192 92.5 -300.5t284.5 -108.5q158 0 271.5 91.5t156.5 266.5h-371l47 225h635l-166 -778h-211l11 133q-55 -71 -164.5 -117.5t-229.5 -46.5z" />
    <glyph glyph-name="gcircumflex" unicode="&#x11d;" horiz-adv-x="1290" 
d="M559 236q103 0 189 61t133 156.5t47 201.5q0 107 -63.5 171.5t-172.5 64.5q-101 0 -185 -62.5t-129.5 -158.5t-45.5 -199q0 -110 60.5 -172.5t166.5 -62.5zM508 31q-101 0 -185 36t-137.5 97.5t-82.5 140.5t-29 166q0 160 78 303.5t217 232.5t303 89q113 0 198 -47.5
t113 -96.5l23 113h262l-201 -942q-54 -254 -210 -388t-390 -134q-211 0 -330 82t-123 235h256q10 -70 56 -96.5t141 -26.5q129 0 216 83.5t122 244.5l6 27q-33 -33 -64 -55t-95.5 -43t-143.5 -21zM817 1321l-108 -133h-322l299 246h287l192 -246h-293z" />
    <glyph glyph-name="Gbreve" unicode="&#x11e;" horiz-adv-x="1552" 
d="M1036 1720q68 0 116.5 32.5t72.5 90.5h188q-39 -134 -140.5 -220.5t-246.5 -86.5q-149 0 -237 89t-80 218h172q5 -57 45.5 -90t109.5 -33zM741 -31q-297 0 -460.5 171t-163.5 464q0 127 36 252t107 234t168.5 193t229 132.5t278.5 48.5q248 0 392.5 -104.5t193.5 -294.5
h-277q-37 85 -111 129.5t-198 44.5q-120 0 -224 -53t-175 -141.5t-111.5 -203t-40.5 -237.5q0 -192 92.5 -300.5t284.5 -108.5q158 0 271.5 91.5t156.5 266.5h-371l47 225h635l-166 -778h-211l11 133q-55 -71 -164.5 -117.5t-229.5 -46.5z" />
    <glyph glyph-name="gbreve" unicode="&#x11f;" horiz-adv-x="1290" 
d="M559 236q103 0 189 61t133 156.5t47 201.5q0 107 -63.5 171.5t-172.5 64.5q-101 0 -185 -62.5t-129.5 -158.5t-45.5 -199q0 -110 60.5 -172.5t166.5 -62.5zM508 31q-101 0 -185 36t-137.5 97.5t-82.5 140.5t-29 166q0 160 78 303.5t217 232.5t303 89q113 0 198 -47.5
t113 -96.5l23 113h262l-201 -942q-54 -254 -210 -388t-390 -134q-211 0 -330 82t-123 235h256q10 -70 56 -96.5t141 -26.5q129 0 216 83.5t122 244.5l6 27q-33 -33 -64 -55t-95.5 -43t-143.5 -21zM813 1352q68 0 116 32.5t72 90.5h189q-39 -134 -140.5 -221t-246.5 -87
q-149 0 -237.5 89.5t-80.5 218.5h172q5 -57 46 -90t110 -33z" />
    <glyph glyph-name="Gdotaccent" unicode="&#x120;" horiz-adv-x="1552" 
d="M922 1802h260l-47 -225h-261zM741 -31q-297 0 -460.5 171t-163.5 464q0 127 36 252t107 234t168.5 193t229 132.5t278.5 48.5q248 0 392.5 -104.5t193.5 -294.5h-277q-37 85 -111 129.5t-198 44.5q-120 0 -224 -53t-175 -141.5t-111.5 -203t-40.5 -237.5
q0 -192 92.5 -300.5t284.5 -108.5q158 0 271.5 91.5t156.5 266.5h-371l47 225h635l-166 -778h-211l11 133q-55 -71 -164.5 -117.5t-229.5 -46.5z" />
    <glyph glyph-name="gdotaccent" unicode="&#x121;" horiz-adv-x="1290" 
d="M559 236q103 0 189 61t133 156.5t47 201.5q0 107 -63.5 171.5t-172.5 64.5q-101 0 -185 -62.5t-129.5 -158.5t-45.5 -199q0 -110 60.5 -172.5t166.5 -62.5zM508 31q-101 0 -185 36t-137.5 97.5t-82.5 140.5t-29 166q0 160 78 303.5t217 232.5t303 89q113 0 198 -47.5
t113 -96.5l23 113h262l-201 -942q-54 -254 -210 -388t-390 -134q-211 0 -330 82t-123 235h256q10 -70 56 -96.5t141 -26.5q129 0 216 83.5t122 244.5l6 27q-33 -33 -64 -55t-95.5 -43t-143.5 -21zM698 1434h260l-47 -226h-260z" />
    <glyph glyph-name="uni0122" unicode="&#x122;" horiz-adv-x="1552" 
d="M539 -102h260l-47 -215l-189 -215h-106l137 215h-102zM741 -31q-297 0 -460.5 171t-163.5 464q0 127 36 252t107 234t168.5 193t229 132.5t278.5 48.5q248 0 392.5 -104.5t193.5 -294.5h-277q-37 85 -111 129.5t-198 44.5q-120 0 -224 -53t-175 -141.5t-111.5 -203
t-40.5 -237.5q0 -192 92.5 -300.5t284.5 -108.5q158 0 271.5 91.5t156.5 266.5h-371l47 225h635l-166 -778h-211l11 133q-55 -71 -164.5 -117.5t-229.5 -46.5z" />
    <glyph glyph-name="uni0123" unicode="&#x123;" horiz-adv-x="1290" 
d="M559 236q103 0 189 61t133 156.5t47 201.5q0 107 -63.5 171.5t-172.5 64.5q-101 0 -185 -62.5t-129.5 -158.5t-45.5 -199q0 -110 60.5 -172.5t166.5 -62.5zM508 31q-101 0 -185 36t-137.5 97.5t-82.5 140.5t-29 166q0 160 78 303.5t217 232.5t303 89q113 0 198 -47.5
t113 -96.5l23 113h262l-201 -942q-54 -254 -210 -388t-390 -134q-211 0 -330 82t-123 235h256q10 -70 56 -96.5t141 -26.5q129 0 216 83.5t122 244.5l6 27q-33 -33 -64 -55t-95.5 -43t-143.5 -21zM905 1188h-260l47 215l189 215h106l-137 -215h102z" />
    <glyph glyph-name="Hcircumflex" unicode="&#x124;" horiz-adv-x="1570" 
d="M362 1434h273l-123 -584h684l123 584h272l-303 -1434h-272l131 625h-684l-131 -625h-273zM1044 1690l-108 -134h-322l299 246h287l193 -246h-293z" />
    <glyph glyph-name="hcircumflex" unicode="&#x125;" horiz-adv-x="1261" 
d="M483 932q58 74 143.5 119t190.5 45q170 0 264.5 -89.5t94.5 -246.5q0 -53 -17 -133l-133 -627h-260l135 637q10 52 10 82q0 164 -178 164q-119 0 -207 -81.5t-118 -226.5l-123 -575h-260l305 1434h260zM522 1690l-108 -134h-322l299 246h287l192 -246h-292z" />
    <glyph glyph-name="Hbar" unicode="&#x126;" horiz-adv-x="1599" 
d="M1567 1249h143l-45 -215h-143l-219 -1034h-273l131 625h-684l-131 -625h-272l219 1034h-143l45 215h143l39 185h272l-39 -185h684l39 185h273zM1210 850l39 184h-684l-39 -184h684z" />
    <glyph glyph-name="hbar" unicode="&#x127;" horiz-adv-x="1271" 
d="M582 1260h430l-41 -195h-430l-60 -277q58 74 143.5 119t190.5 45q170 0 264.5 -89.5t94.5 -246.5q0 -53 -17 -133l-102 -483h-260l104 494q10 52 10 81q0 164 -178 164q-119 0 -207 -81t-118 -226l-93 -432h-260l228 1065h-144l41 195h144l36 174h260z" />
    <glyph glyph-name="Itilde" unicode="&#x128;" horiz-adv-x="614" 
d="M362 1434h273l-303 -1434h-273zM135 1567q27 124 101 195t182 71q48 0 95 -19t77.5 -42.5t63 -42.5t55.5 -19q62 0 77 82h175q-27 -124 -100 -195t-181 -71q-48 0 -95 19t-77.5 42.5t-63 42.5t-55.5 19q-65 0 -80 -82h-174z" />
    <glyph glyph-name="itilde" unicode="&#x129;" horiz-adv-x="532" 
d="M250 1065h260l-227 -1065h-260zM16 1198q27 124 101 195t182 71q48 0 95 -19t77.5 -42.5t63 -42.5t55.5 -19q63 0 78 82h174q-27 -124 -100 -195t-181 -71q-48 0 -95 19t-77.5 42.5t-63 42.5t-55.5 19q-65 0 -80 -82h-174z" />
    <glyph glyph-name="Imacron" unicode="&#x12a;" horiz-adv-x="614" 
d="M362 1434h273l-303 -1434h-273zM213 1782h717l-39 -185h-717z" />
    <glyph glyph-name="imacron" unicode="&#x12b;" horiz-adv-x="532" 
d="M250 1065h260l-227 -1065h-260zM94 1413h717l-39 -184h-717z" />
    <glyph glyph-name="Ibreve" unicode="&#x12c;" horiz-adv-x="614" 
d="M362 1434h273l-303 -1434h-273zM559 1720q68 0 116.5 32.5t72.5 90.5h188q-39 -134 -140.5 -220.5t-246.5 -86.5q-149 0 -237.5 89t-80.5 218h172q5 -57 46 -90t110 -33z" />
    <glyph glyph-name="ibreve" unicode="&#x12d;" horiz-adv-x="532" 
d="M250 1065h260l-227 -1065h-260zM440 1352q68 0 116.5 32.5t72.5 90.5h188q-39 -134 -140.5 -221t-246.5 -87q-149 0 -237 89.5t-80 218.5h172q5 -57 45.5 -90t109.5 -33z" />
    <glyph glyph-name="Iogonek" unicode="&#x12e;" horiz-adv-x="614" 
d="M184 -276q52 0 107 14l-107 -176q-66 -13 -118 -13q-92 0 -152.5 61t-60.5 146q0 166 208 254l301 1424h273l-303 -1434q-125 -54 -184.5 -102t-59.5 -105q0 -69 96 -69z" />
    <glyph glyph-name="iogonek" unicode="&#x12f;" horiz-adv-x="534" 
d="M137 -276q52 0 107 14l-107 -176q-66 -13 -119 -13q-92 0 -152.5 61t-60.5 146q0 174 224 262l223 1047h260l-227 -1065q-125 -54 -184.5 -102t-59.5 -105q0 -69 96 -69zM330 1434h260l-47 -226h-260z" />
    <glyph glyph-name="Idotaccent" unicode="&#x130;" horiz-adv-x="614" 
d="M362 1434h273l-303 -1434h-273zM444 1802h261l-48 -225h-260z" />
    <glyph glyph-name="dotlessi" unicode="&#x131;" horiz-adv-x="532" 
d="M250 1065h260l-227 -1065h-260z" />
    <glyph glyph-name="IJ" unicode="&#x132;" horiz-adv-x="1404" 
d="M59 0l303 1434h273l-303 -1434h-273zM606 0q246 0 301 256l250 1178h273l-256 -1209q-27 -121 -80.5 -208.5t-131.5 -140t-173.5 -77t-213.5 -24.5h-124l47 225h108z" />
    <glyph glyph-name="ij" unicode="&#x133;" horiz-adv-x="1048" 
d="M250 1065h260l-227 -1065h-260zM328 1434h260l-47 -226h-260zM844 1434h260l-47 -226h-260zM766 1065h260l-248 -1167q-31 -147 -127.5 -207t-265.5 -60h-180l43 199h151q106 0 127 109z" />
    <glyph glyph-name="Jcircumflex" unicode="&#x134;" horiz-adv-x="999" 
d="M965 1690l-109 -134h-321l299 246h286l193 -246h-293zM-16 225h272q246 0 301 256l203 953h272l-209 -983q-52 -237 -204.5 -344t-393.5 -107h-288z" />
    <glyph glyph-name="jcircumflex" unicode="&#x135;" horiz-adv-x="540" 
d="M453 1321l-109 -133h-321l299 246h286l193 -246h-293zM258 1065h260l-248 -1167q-31 -147 -127.5 -207t-265.5 -60h-133l43 199h104q106 0 127 109z" />
    <glyph glyph-name="uni0136" unicode="&#x136;" horiz-adv-x="1384" 
d="M362 1434h273l-119 -564l676 564h369l-844 -697l581 -737h-327l-500 659l-139 -659h-273zM481 -102h260l-47 -215l-188 -215h-107l138 215h-103z" />
    <glyph glyph-name="uni0137" unicode="&#x137;" horiz-adv-x="1136" 
d="M1057 0h-314l-356 481l-102 -481h-260l305 1434h260l-160 -754l459 385h354l-622 -512zM344 -102h260l-47 -215l-188 -215h-107l137 215h-102z" />
    <glyph glyph-name="kgreenlandic" unicode="&#x138;" horiz-adv-x="1134" 
d="M1055 0h-314l-356 481l-102 -481h-260l227 1065h260l-82 -385l459 385h354l-623 -512z" />
    <glyph glyph-name="Lacute" unicode="&#x139;" horiz-adv-x="1191" 
d="M362 1434h273l-256 -1209h731l-47 -225h-1004zM524 1802h348l-299 -246h-266z" />
    <glyph glyph-name="lacute" unicode="&#x13a;" horiz-adv-x="534" 
d="M330 1434h260l-305 -1434h-260zM502 1802h348l-299 -246h-266z" />
    <glyph glyph-name="uni013B" unicode="&#x13b;" horiz-adv-x="1191" 
d="M362 1434h273l-256 -1209h731l-47 -225h-1004zM410 -102h260l-47 -215l-189 -215h-106l137 215h-103z" />
    <glyph glyph-name="uni013C" unicode="&#x13c;" horiz-adv-x="534" 
d="M330 1434h260l-305 -1434h-260zM0 -102h260l-47 -215l-188 -215h-107l137 215h-102z" />
    <glyph glyph-name="Lcaron" unicode="&#x13d;" horiz-adv-x="1193" 
d="M362 1434h273l-256 -1209h731l-47 -225h-1004zM862 1434h271l-211 -410h-209z" />
    <glyph glyph-name="lcaron" unicode="&#x13e;" horiz-adv-x="675" 
d="M330 1434h260l-305 -1434h-260zM725 1434h270l-211 -410h-209z" />
    <glyph glyph-name="Ldot" unicode="&#x13f;" horiz-adv-x="1196" 
d="M362 1434h273l-256 -1209h731l-47 -225h-1004zM846 852h260l-47 -225h-260z" />
    <glyph glyph-name="ldot" unicode="&#x140;" horiz-adv-x="806" 
d="M330 1434h260l-305 -1434h-260zM604 831h260l-47 -225h-260z" />
    <glyph glyph-name="Lslash" unicode="&#x141;" horiz-adv-x="1296" 
d="M250 420l-232 -133l58 266l231 133l158 748h272l-121 -570l404 232l-57 -267l-404 -231l-78 -373h731l-47 -225h-1003z" />
    <glyph glyph-name="lslash" unicode="&#x142;" horiz-adv-x="831" 
d="M266 494l-237 -136l61 285l238 133l139 658h260l-104 -492l270 154l-62 -285l-270 -154l-139 -657h-260z" />
    <glyph glyph-name="Nacute" unicode="&#x143;" horiz-adv-x="1591" 
d="M362 1434h277l295 -625q120 -262 184 -430h8q43 251 86 450l127 605h273l-303 -1434h-275l-299 625q-134 274 -186 430h-8q-21 -175 -82 -451l-127 -604h-273zM1016 1802h348l-299 -246h-266z" />
    <glyph glyph-name="nacute" unicode="&#x144;" horiz-adv-x="1259" 
d="M481 932q58 74 144 119t190 45q170 0 264.5 -89.5t94.5 -246.5q0 -51 -17 -131l-133 -629h-260l133 629q12 62 12 92q0 162 -178 162q-119 0 -207 -81.5t-118 -226.5l-123 -575h-260l227 1065h260zM774 1434h348l-299 -246h-266z" />
    <glyph glyph-name="uni0145" unicode="&#x145;" horiz-adv-x="1591" 
d="M362 1434h277l295 -625q120 -262 184 -430h8q43 251 86 450l127 605h273l-303 -1434h-275l-299 625q-134 274 -186 430h-8q-21 -175 -82 -451l-127 -604h-273zM532 -102h261l-48 -215l-188 -215h-106l137 215h-103z" />
    <glyph glyph-name="uni0146" unicode="&#x146;" horiz-adv-x="1259" 
d="M481 932q58 74 144 119t190 45q170 0 264.5 -89.5t94.5 -246.5q0 -51 -17 -131l-133 -629h-260l133 629q12 62 12 92q0 162 -178 162q-119 0 -207 -81.5t-118 -226.5l-123 -575h-260l227 1065h260zM375 -102h260l-47 -215l-189 -215h-106l137 215h-102z" />
    <glyph glyph-name="Ncaron" unicode="&#x147;" horiz-adv-x="1591" 
d="M362 1434h277l295 -625q120 -262 184 -430h8q43 251 86 450l127 605h273l-303 -1434h-275l-299 625q-134 274 -186 430h-8q-21 -175 -82 -451l-127 -604h-273zM1026 1669l109 133h321l-299 -246h-287l-192 246h293z" />
    <glyph glyph-name="ncaron" unicode="&#x148;" horiz-adv-x="1259" 
d="M481 932q58 74 144 119t190 45q170 0 264.5 -89.5t94.5 -246.5q0 -51 -17 -131l-133 -629h-260l133 629q12 62 12 92q0 162 -178 162q-119 0 -207 -81.5t-118 -226.5l-123 -575h-260l227 1065h260zM782 1300l109 134h321l-299 -246h-286l-193 246h293z" />
    <glyph glyph-name="napostrophe" unicode="&#x149;" horiz-adv-x="1427" 
d="M649 932q58 74 144 119t190 45q170 0 264 -89.5t94 -246.5q0 -56 -16 -131l-133 -629h-260l133 629q12 62 12 92q0 162 -178 162q-119 0 -207.5 -81.5t-118.5 -226.5l-122 -575h-261l228 1065h260zM236 1434h260l-47 -215l-189 -215h-106l137 215h-103z" />
    <glyph glyph-name="Eng" unicode="&#x14a;" horiz-adv-x="1591" 
d="M1339 1434h273l-309 -1465q-22 -106 -64.5 -178.5t-106.5 -113.5t-140 -58.5t-177 -17.5h-227l47 225h201q91 0 134.5 38t63.5 136l-299 625q-51 105 -88.5 189t-53.5 124.5t-44 116.5h-8q-21 -175 -82 -451l-127 -604h-273l303 1434h277l295 -625q120 -262 184 -430h8
q51 292 86 450z" />
    <glyph glyph-name="eng" unicode="&#x14b;" horiz-adv-x="1259" 
d="M897 629q12 62 12 92q0 162 -178 162q-119 0 -207 -81.5t-118 -226.5l-123 -575h-260l227 1065h260l-29 -133q58 74 144 119t190 45q170 0 264.5 -89.5t94.5 -246.5q0 -40 -17 -131l-156 -731q-31 -147 -127.5 -207t-265.5 -60h-133l43 199h105q106 0 127 109z" />
    <glyph glyph-name="Omacron" unicode="&#x14c;" horiz-adv-x="1624" 
d="M770 195q116 0 220 53t175.5 140.5t113.5 203t42 237.5q0 190 -97 300t-290 110q-116 0 -220 -53.5t-175.5 -141t-113.5 -203t-42 -237.5q0 -191 96.5 -300t290.5 -109zM770 -31q-317 0 -486 172t-169 463q0 127 37 252t109 234t170 193t228 132.5t275 48.5
q317 0 486 -172t169 -463q0 -127 -37 -252t-109 -234t-170 -193t-228 -132.5t-275 -48.5zM719 1782h717l-39 -185h-717z" />
    <glyph glyph-name="omacron" unicode="&#x14d;" horiz-adv-x="1265" 
d="M322 451q0 -130 60.5 -203.5t188.5 -73.5q106 0 193 64t133.5 164.5t46.5 211.5q0 129 -61 203t-189 74q-107 0 -194 -64t-132.5 -164t-45.5 -212zM68 451q0 120 44.5 235.5t123.5 206.5t198.5 147t259.5 56q128 0 226 -37.5t158 -104t90 -152.5t30 -188
q0 -96 -28 -189.5t-82.5 -175.5t-129 -144.5t-175 -99t-212.5 -36.5q-128 0 -226 37.5t-157.5 104t-89.5 152.5t-30 188zM465 1413h717l-39 -184h-717z" />
    <glyph glyph-name="Obreve" unicode="&#x14e;" horiz-adv-x="1624" 
d="M770 195q116 0 220 53t175.5 140.5t113.5 203t42 237.5q0 190 -97 300t-290 110q-116 0 -220 -53.5t-175.5 -141t-113.5 -203t-42 -237.5q0 -191 96.5 -300t290.5 -109zM770 -31q-317 0 -486 172t-169 463q0 127 37 252t109 234t170 193t228 132.5t275 48.5
q317 0 486 -172t169 -463q0 -127 -37 -252t-109 -234t-170 -193t-228 -132.5t-275 -48.5zM1065 1720q68 0 116 32.5t72 90.5h189q-39 -134 -140.5 -220.5t-246.5 -86.5q-149 0 -237.5 89t-80.5 218h172q5 -57 46 -90t110 -33z" />
    <glyph glyph-name="obreve" unicode="&#x14f;" horiz-adv-x="1265" 
d="M322 451q0 -130 60.5 -203.5t188.5 -73.5q106 0 193 64t133.5 164.5t46.5 211.5q0 129 -61 203t-189 74q-107 0 -194 -64t-132.5 -164t-45.5 -212zM68 451q0 120 44.5 235.5t123.5 206.5t198.5 147t259.5 56q128 0 226 -37.5t158 -104t90 -152.5t30 -188
q0 -96 -28 -189.5t-82.5 -175.5t-129 -144.5t-175 -99t-212.5 -36.5q-128 0 -226 37.5t-157.5 104t-89.5 152.5t-30 188zM811 1352q68 0 116 32.5t72 90.5h189q-39 -134 -140.5 -221t-246.5 -87q-149 0 -237.5 89.5t-80.5 218.5h172q5 -57 46 -90t110 -33z" />
    <glyph glyph-name="Ohungarumlaut" unicode="&#x150;" horiz-adv-x="1624" 
d="M770 195q116 0 220 53t175.5 140.5t113.5 203t42 237.5q0 190 -97 300t-290 110q-116 0 -220 -53.5t-175.5 -141t-113.5 -203t-42 -237.5q0 -191 96.5 -300t290.5 -109zM770 -31q-317 0 -486 172t-169 463q0 127 37 252t109 234t170 193t228 132.5t275 48.5
q317 0 486 -172t169 -463q0 -127 -37 -252t-109 -234t-170 -193t-228 -132.5t-275 -48.5zM856 1802h297l-238 -246h-245zM1225 1802h297l-238 -246h-246z" />
    <glyph glyph-name="ohungarumlaut" unicode="&#x151;" horiz-adv-x="1265" 
d="M322 451q0 -130 60.5 -203.5t188.5 -73.5q106 0 193 64t133.5 164.5t46.5 211.5q0 129 -61 203t-189 74q-107 0 -194 -64t-132.5 -164t-45.5 -212zM68 451q0 120 44.5 235.5t123.5 206.5t198.5 147t259.5 56q128 0 226 -37.5t158 -104t90 -152.5t30 -188
q0 -96 -28 -189.5t-82.5 -175.5t-129 -144.5t-175 -99t-212.5 -36.5q-128 0 -226 37.5t-157.5 104t-89.5 152.5t-30 188zM602 1434h297l-237 -246h-246zM971 1434h297l-238 -246h-246z" />
    <glyph glyph-name="OE" unicode="&#x152;" horiz-adv-x="2330" 
d="M119 604q0 127 35.5 252t106 234t167 193t226 132.5t274.5 48.5q299 0 452 -164l29 134h1004l-48 -226h-731l-78 -358h691l-47 -225h-691l-84 -400h732l-50 -225h-1003l16 78q-145 -109 -366 -109q-156 0 -277.5 46t-199.5 130.5t-118 200t-40 258.5zM387 604
q0 -192 92.5 -300.5t284.5 -108.5q115 0 214 53t165 141t103.5 202.5t37.5 237.5q0 195 -83 302.5t-273 107.5q-154 0 -279.5 -90.5t-193.5 -235.5t-68 -309z" />
    <glyph glyph-name="oe" unicode="&#x153;" horiz-adv-x="2099" 
d="M68 451q0 120 44.5 235.5t123.5 206.5t198.5 147t259.5 56q289 0 422 -191q188 191 465 191q133 0 235.5 -45.5t163 -140t60.5 -226.5q0 -104 -31 -244h-819q-2 -14 -2 -43q0 -100 58.5 -166.5t178.5 -66.5q86 0 144.5 34t101.5 109h301q-89 -163 -231 -250.5t-328 -87.5
q-131 0 -232 51t-163 140q-181 -191 -447 -191q-128 0 -226 37.5t-157.5 104t-89.5 152.5t-30 188zM322 451q0 -130 60.5 -203.5t188.5 -73.5q106 0 193 64t133.5 164.5t46.5 211.5q0 129 -61 203t-189 74q-107 0 -194 -64t-132.5 -164t-45.5 -212zM1571 901
q-116 0 -208.5 -77t-131.5 -189h553q4 32 4 47q0 96 -56.5 157.5t-160.5 61.5z" />
    <glyph glyph-name="Racute" unicode="&#x154;" horiz-adv-x="1468" 
d="M362 1434h719q187 0 298.5 -104.5t111.5 -264.5q0 -220 -153 -356t-400 -136h-82l451 -573h-324l-440 573h-90l-123 -573h-273zM969 799q108 0 182 70t74 175q0 74 -45 119t-129 45h-465l-86 -409h469zM952 1802h348l-299 -246h-266z" />
    <glyph glyph-name="racute" unicode="&#x155;" horiz-adv-x="788" 
d="M551 1434h348l-299 -246h-266zM694 860q-113 0 -183.5 -60.5t-98.5 -195.5l-129 -604h-260l227 1065h260l-27 -123q48 71 116.5 107t184.5 36h90l-49 -225h-131z" />
    <glyph glyph-name="uni0156" unicode="&#x156;" horiz-adv-x="1468" 
d="M362 1434h719q187 0 298.5 -104.5t111.5 -264.5q0 -220 -153 -356t-400 -136h-82l451 -573h-324l-440 573h-90l-123 -573h-273zM969 799q108 0 182 70t74 175q0 74 -45 119t-129 45h-465l-86 -409h469zM492 -102h260l-47 -215l-189 -215h-106l137 215h-103z" />
    <glyph glyph-name="uni0157" unicode="&#x157;" horiz-adv-x="788" 
d="M4 -102h260l-47 -215l-188 -215h-107l137 215h-102zM694 860q-113 0 -183.5 -60.5t-98.5 -195.5l-129 -604h-260l227 1065h260l-27 -123q48 71 116.5 107t184.5 36h90l-49 -225h-131z" />
    <glyph glyph-name="Rcaron" unicode="&#x158;" horiz-adv-x="1468" 
d="M362 1434h719q187 0 298.5 -104.5t111.5 -264.5q0 -220 -153 -356t-400 -136h-82l451 -573h-324l-440 573h-90l-123 -573h-273zM969 799q108 0 182 70t74 175q0 74 -45 119t-129 45h-465l-86 -409h469zM952 1669l109 133h321l-299 -246h-286l-193 246h293z" />
    <glyph glyph-name="rcaron" unicode="&#x159;" horiz-adv-x="788" 
d="M571 1300l109 134h321l-299 -246h-286l-193 246h293zM694 860q-113 0 -183.5 -60.5t-98.5 -195.5l-129 -604h-260l227 1065h260l-27 -123q48 71 116.5 107t184.5 36h90l-49 -225h-131z" />
    <glyph glyph-name="Sacute" unicode="&#x15a;" horiz-adv-x="1351" 
d="M1122 1065q0 103 -82 149t-217 46q-89 0 -163 -18t-127.5 -66t-53.5 -121q0 -86 57 -133t181 -68l119 -20q407 -70 407 -398q0 -119 -49.5 -210t-137.5 -146.5t-201 -83t-247 -27.5q-85 0 -164 13t-156.5 44.5t-134.5 79t-92.5 123t-35.5 170.5h256q0 -84 45 -135.5
t116.5 -70.5t175.5 -19q65 0 125.5 11.5t115 35.5t87.5 69t33 105q0 90 -58 133t-186 64l-119 20q-187 32 -292 140.5t-105 271.5q0 110 51 196.5t138 138.5t195.5 78.5t230.5 26.5q88 0 166.5 -14t148 -45t119.5 -76.5t79 -113t29 -150.5h-254zM877 1802h348l-299 -246
h-267z" />
    <glyph glyph-name="sacute" unicode="&#x15b;" horiz-adv-x="1099" 
d="M256 307q0 -80 50.5 -118.5t164.5 -38.5q65 0 118.5 14.5t91.5 49.5t38 87q0 55 -38 77t-124 36l-70 10q-150 21 -241.5 105t-91.5 219q0 91 41.5 160t111.5 109t152.5 59.5t175.5 19.5q126 0 226 -34t162 -107t62 -177h-256q0 137 -204 137q-38 0 -72 -5.5t-69 -19.5
t-55.5 -42.5t-20.5 -69.5q0 -51 35.5 -77.5t115.5 -38.5l70 -11q77 -11 136.5 -32t108 -57t74 -92.5t25.5 -131.5q0 -96 -42 -169t-114 -115.5t-159 -63.5t-187 -21q-94 0 -174 17.5t-149 55t-108.5 105.5t-39.5 160h256zM666 1434h348l-299 -246h-266z" />
    <glyph glyph-name="Scircumflex" unicode="&#x15c;" horiz-adv-x="1351" 
d="M1122 1065q0 103 -82 149t-217 46q-89 0 -163 -18t-127.5 -66t-53.5 -121q0 -86 57 -133t181 -68l119 -20q407 -70 407 -398q0 -119 -49.5 -210t-137.5 -146.5t-201 -83t-247 -27.5q-85 0 -164 13t-156.5 44.5t-134.5 79t-92.5 123t-35.5 170.5h256q0 -84 45 -135.5
t116.5 -70.5t175.5 -19q65 0 125.5 11.5t115 35.5t87.5 69t33 105q0 90 -58 133t-186 64l-119 20q-187 32 -292 140.5t-105 271.5q0 110 51 196.5t138 138.5t195.5 78.5t230.5 26.5q88 0 166.5 -14t148 -45t119.5 -76.5t79 -113t29 -150.5h-254zM913 1690l-108 -134h-322
l299 246h287l193 -246h-293z" />
    <glyph glyph-name="scircumflex" unicode="&#x15d;" horiz-adv-x="1099" 
d="M256 307q0 -80 50.5 -118.5t164.5 -38.5q65 0 118.5 14.5t91.5 49.5t38 87q0 55 -38 77t-124 36l-70 10q-150 21 -241.5 105t-91.5 219q0 91 41.5 160t111.5 109t152.5 59.5t175.5 19.5q126 0 226 -34t162 -107t62 -177h-256q0 137 -204 137q-38 0 -72 -5.5t-69 -19.5
t-55.5 -42.5t-20.5 -69.5q0 -51 35.5 -77.5t115.5 -38.5l70 -11q77 -11 136.5 -32t108 -57t74 -92.5t25.5 -131.5q0 -96 -42 -169t-114 -115.5t-159 -63.5t-187 -21q-94 0 -174 17.5t-149 55t-108.5 105.5t-39.5 160h256zM705 1321l-109 -133h-322l299 246h287l193 -246
h-293z" />
    <glyph glyph-name="Scedilla" unicode="&#x15e;" horiz-adv-x="1351" 
d="M1122 1065q0 103 -82 149t-217 46q-89 0 -163 -18t-127.5 -66t-53.5 -121q0 -86 57 -133t181 -68l119 -20q407 -70 407 -398q0 -108 -42.5 -194t-118 -141t-172 -87t-212.5 -41l-80 -65q55 -4 87 -45t32 -99q0 -92 -69 -153.5t-168 -61.5q-85 0 -143 47.5t-58 116.5h141
q1 -20 18.5 -30.5t43.5 -10.5q40 0 66 25t26 59q0 26 -15.5 43t-43.5 17q-33 0 -56 -23l-78 98l101 84q-75 7 -141.5 25t-129 52t-107.5 81t-72 115t-27 151h256q0 -84 45 -135.5t116.5 -70.5t175.5 -19q65 0 125.5 11.5t115 35.5t87.5 69t33 105q0 90 -58 133t-186 64
l-119 20q-187 32 -292 140.5t-105 271.5q0 110 51 196.5t138 138.5t195.5 78.5t230.5 26.5q88 0 166.5 -14t148 -45t119.5 -76.5t79 -113t29 -150.5h-254z" />
    <glyph glyph-name="scedilla" unicode="&#x15f;" horiz-adv-x="1099" 
d="M307 -287q1 -20 18.5 -30.5t43.5 -10.5q40 0 66 25t26 59q0 26 -16 43t-44 17q-32 0 -55 -23l-78 98l103 84q-76 6 -141 28.5t-117.5 61.5t-82.5 101t-30 141h256q0 -80 50.5 -118.5t164.5 -38.5q65 0 118.5 14.5t91.5 49.5t38 87q0 55 -38 77t-124 36l-70 10
q-150 21 -241.5 105t-91.5 219q0 91 41.5 160t111.5 109t152.5 59.5t175.5 19.5q126 0 226 -34t162 -107t62 -177h-256q0 137 -204 137q-38 0 -72 -5.5t-69 -19.5t-55.5 -42.5t-20.5 -69.5q0 -51 35.5 -77.5t115.5 -38.5l70 -11q77 -11 136.5 -32t108 -57t74 -92.5
t25.5 -131.5q0 -85 -32.5 -152t-90 -110t-129 -68.5t-156.5 -34.5l-80 -65q55 -4 87 -45t32 -99q0 -92 -69 -153.5t-168 -61.5q-85 0 -143 47.5t-58 116.5h141z" />
    <glyph glyph-name="Scaron" unicode="&#x160;" horiz-adv-x="1351" 
d="M1122 1065q0 103 -82 149t-217 46q-89 0 -163 -18t-127.5 -66t-53.5 -121q0 -86 57 -133t181 -68l119 -20q407 -70 407 -398q0 -119 -49.5 -210t-137.5 -146.5t-201 -83t-247 -27.5q-85 0 -164 13t-156.5 44.5t-134.5 79t-92.5 123t-35.5 170.5h256q0 -84 45 -135.5
t116.5 -70.5t175.5 -19q65 0 125.5 11.5t115 35.5t87.5 69t33 105q0 90 -58 133t-186 64l-119 20q-187 32 -292 140.5t-105 271.5q0 110 51 196.5t138 138.5t195.5 78.5t230.5 26.5q88 0 166.5 -14t148 -45t119.5 -76.5t79 -113t29 -150.5h-254zM885 1669l108 133h322
l-299 -246h-287l-192 246h292z" />
    <glyph glyph-name="scaron" unicode="&#x161;" horiz-adv-x="1099" 
d="M256 307q0 -80 50.5 -118.5t164.5 -38.5q65 0 118.5 14.5t91.5 49.5t38 87q0 55 -38 77t-124 36l-70 10q-150 21 -241.5 105t-91.5 219q0 91 41.5 160t111.5 109t152.5 59.5t175.5 19.5q126 0 226 -34t162 -107t62 -177h-256q0 137 -204 137q-38 0 -72 -5.5t-69 -19.5
t-55.5 -42.5t-20.5 -69.5q0 -51 35.5 -77.5t115.5 -38.5l70 -11q77 -11 136.5 -32t108 -57t74 -92.5t25.5 -131.5q0 -96 -42 -169t-114 -115.5t-159 -63.5t-187 -21q-94 0 -174 17.5t-149 55t-108.5 105.5t-39.5 160h256zM676 1300l108 134h322l-299 -246h-287l-192 246h293
z" />
    <glyph glyph-name="uni0162" unicode="&#x162;" horiz-adv-x="1251" 
d="M360 -287q1 -20 18.5 -30.5t43.5 -10.5q40 0 66 25t26 59q0 26 -15.5 43t-43.5 17q-33 0 -56 -23l-77 98l131 109h-74l256 1208h-469l47 226h1208l-47 -226h-467l-256 -1208l-112 -92q55 -4 86.5 -45t31.5 -99q0 -92 -69 -153.5t-168 -61.5q-85 0 -143 47.5t-58 116.5
h141z" />
    <glyph glyph-name="uni0163" unicode="&#x163;" horiz-adv-x="858" 
d="M229 -287q1 -20 18.5 -30.5t43.5 -10.5q40 0 66 25t26 59q0 26 -15.5 43t-43.5 17q-33 0 -56 -23l-78 98l152 125q-133 47 -133 189q0 30 12 92l121 563h-256l43 205h256l53 246h260l-53 -246h277l-43 -205h-277l-123 -573q-6 -24 -6 -39q0 -28 16 -38.5t54 -10.5h194
l-43 -199h-174l-112 -92q55 -4 86.5 -45t31.5 -99q0 -92 -69 -153.5t-168 -61.5q-85 0 -143 47.5t-58 116.5h141z" />
    <glyph glyph-name="Tcaron" unicode="&#x164;" horiz-adv-x="1251" 
d="M635 1208h-469l47 226h1208l-47 -226h-467l-256 -1208h-272zM856 1669l109 133h321l-299 -246h-287l-192 246h293z" />
    <glyph glyph-name="tcaron" unicode="&#x165;" horiz-adv-x="858" 
d="M903 1597h271l-211 -409h-209zM479 287q-6 -24 -6 -39q0 -28 16 -38.5t54 -10.5h194l-43 -199h-223q-262 0 -262 205q0 30 12 92l121 563h-256l43 205h256l53 246h260l-53 -246h277l-43 -205h-277z" />
    <glyph glyph-name="Tbar" unicode="&#x166;" horiz-adv-x="1288" 
d="M801 635l-133 -635h-273l133 635h-305l47 215h305l76 358h-469l47 226h1209l-47 -226h-467l-76 -358h305l-47 -215h-305z" />
    <glyph glyph-name="tbar" unicode="&#x167;" horiz-adv-x="862" 
d="M532 522l-51 -235q-6 -24 -6 -39q0 -28 16 -38.5t54 -10.5h194l-43 -199h-223q-262 0 -262 205q0 30 12 92l49 225h-182l39 185h182l33 153h-256l43 205h256l53 246h260l-53 -246h277l-43 -205h-277l-33 -153h224l-39 -185h-224z" />
    <glyph glyph-name="Utilde" unicode="&#x168;" horiz-adv-x="1503" 
d="M621 1434l-195 -922q-12 -52 -12 -96q0 -108 63 -164.5t182 -56.5q156 0 270 92t146 245l191 902h272l-195 -922q-25 -115 -85 -213.5t-148 -172t-207 -115.5t-254 -42q-239 0 -372.5 123.5t-133.5 317.5q0 45 15 122l190 902h273zM582 1567q27 124 100.5 195t181.5 71
q48 0 95 -19t77.5 -42.5t63 -42.5t55.5 -19q63 0 78 82h174q-27 -124 -100 -195t-181 -71q-48 0 -95 19t-77 42.5t-62.5 42.5t-55.5 19q-65 0 -80 -82h-174z" />
    <glyph glyph-name="utilde" unicode="&#x169;" horiz-adv-x="1251" 
d="M764 106q-105 -137 -315 -137q-170 0 -265.5 91.5t-95.5 248.5q0 56 16 131l134 625h260l-138 -645q-12 -50 -12 -92q0 -144 176 -144q120 0 205 76t115 221l125 584h260l-228 -1065h-260zM371 1198q27 124 100.5 195t181.5 71q48 0 95 -19t77.5 -42.5t63 -42.5t55.5 -19
q63 0 78 82h174q-27 -124 -100 -195t-181 -71q-48 0 -95 19t-77 42.5t-62.5 42.5t-55.5 19q-65 0 -80 -82h-174z" />
    <glyph glyph-name="Umacron" unicode="&#x16a;" horiz-adv-x="1503" 
d="M621 1434l-195 -922q-12 -52 -12 -96q0 -108 63 -164.5t182 -56.5q156 0 270 92t146 245l191 902h272l-195 -922q-25 -115 -85 -213.5t-148 -172t-207 -115.5t-254 -42q-239 0 -372.5 123.5t-133.5 317.5q0 45 15 122l190 902h273zM659 1782h717l-39 -185h-716z" />
    <glyph glyph-name="umacron" unicode="&#x16b;" horiz-adv-x="1251" 
d="M764 106q-105 -137 -315 -137q-170 0 -265.5 91.5t-95.5 248.5q0 56 16 131l134 625h260l-138 -645q-12 -50 -12 -92q0 -144 176 -144q120 0 205 76t115 221l125 584h260l-228 -1065h-260zM449 1413h716l-39 -184h-716z" />
    <glyph glyph-name="Ubreve" unicode="&#x16c;" horiz-adv-x="1503" 
d="M621 1434l-195 -922q-12 -52 -12 -96q0 -108 63 -164.5t182 -56.5q156 0 270 92t146 245l191 902h272l-195 -922q-25 -115 -85 -213.5t-148 -172t-207 -115.5t-254 -42q-239 0 -372.5 123.5t-133.5 317.5q0 45 15 122l190 902h273zM1006 1720q68 0 116 32.5t72 90.5h188
q-39 -134 -140.5 -220.5t-246.5 -86.5q-149 0 -237 89t-80 218h172q5 -57 46 -90t110 -33z" />
    <glyph glyph-name="ubreve" unicode="&#x16d;" horiz-adv-x="1251" 
d="M764 106q-105 -137 -315 -137q-170 0 -265.5 91.5t-95.5 248.5q0 56 16 131l134 625h260l-138 -645q-12 -50 -12 -92q0 -144 176 -144q120 0 205 76t115 221l125 584h260l-228 -1065h-260zM795 1352q68 0 116 32.5t72 90.5h188q-39 -134 -140.5 -221t-246.5 -87
q-149 0 -237 89.5t-80 218.5h172q5 -57 46 -90t110 -33z" />
    <glyph glyph-name="Uring" unicode="&#x16e;" horiz-adv-x="1503" 
d="M621 1434l-195 -922q-12 -52 -12 -96q0 -108 63 -164.5t182 -56.5q156 0 270 92t146 245l191 902h272l-195 -922q-25 -115 -85 -213.5t-148 -172t-207 -115.5t-254 -42q-239 0 -372.5 123.5t-133.5 317.5q0 45 15 122l190 902h273zM852 1630q0 -45 28.5 -73.5t75.5 -28.5
q58 0 102 41t44 102q0 45 -29 74t-76 29q-57 0 -101 -41.5t-44 -102.5zM1257 1671q0 -115 -91.5 -195.5t-209.5 -80.5q-119 0 -189.5 67.5t-70.5 167.5q0 115 91.5 196t209.5 81q119 0 189.5 -68t70.5 -168z" />
    <glyph glyph-name="uring" unicode="&#x16f;" horiz-adv-x="1251" 
d="M764 106q-105 -137 -315 -137q-170 0 -265.5 91.5t-95.5 248.5q0 56 16 131l134 625h260l-138 -645q-12 -50 -12 -92q0 -144 176 -144q120 0 205 76t115 221l125 584h260l-228 -1065h-260zM670 1382q0 -45 28.5 -73.5t75.5 -28.5q58 0 102 41t44 102q0 45 -29 74t-76 29
q-57 0 -101 -41.5t-44 -102.5zM1075 1423q0 -115 -91.5 -195.5t-209.5 -80.5q-119 0 -189.5 67.5t-70.5 167.5q0 115 91.5 196t209.5 81q119 0 189.5 -68t70.5 -168z" />
    <glyph glyph-name="Uhungarumlaut" unicode="&#x170;" horiz-adv-x="1503" 
d="M621 1434l-195 -922q-12 -52 -12 -96q0 -108 63 -164.5t182 -56.5q156 0 270 92t146 245l191 902h272l-195 -922q-25 -115 -85 -213.5t-148 -172t-207 -115.5t-254 -42q-239 0 -372.5 123.5t-133.5 317.5q0 45 15 122l190 902h273zM797 1802h297l-238 -246h-246z
M1165 1802h297l-237 -246h-246z" />
    <glyph glyph-name="uhungarumlaut" unicode="&#x171;" horiz-adv-x="1251" 
d="M764 106q-105 -137 -315 -137q-170 0 -265.5 91.5t-95.5 248.5q0 56 16 131l134 625h260l-138 -645q-12 -50 -12 -92q0 -144 176 -144q120 0 205 76t115 221l125 584h260l-228 -1065h-260zM586 1434h297l-238 -246h-246zM954 1434h297l-237 -246h-246z" />
    <glyph glyph-name="Uogonek" unicode="&#x172;" horiz-adv-x="1503" 
d="M864 -276q52 0 107 14l-107 -176q-66 -13 -119 -13q-92 0 -152.5 61t-60.5 146q0 137 127 213h-10q-239 0 -372.5 123.5t-133.5 317.5q0 45 15 122l190 902h273l-195 -922q-12 -52 -12 -96q0 -108 63 -164.5t182 -56.5q156 0 270 92t146 245l191 902h272l-195 -922
q-20 -95 -62.5 -177t-94.5 -138.5t-110.5 -104.5t-112.5 -85t-98 -70.5t-70.5 -69.5t-26.5 -74q0 -69 96 -69z" />
    <glyph glyph-name="uogonek" unicode="&#x173;" horiz-adv-x="1251" 
d="M764 106q-105 -137 -315 -137q-170 0 -265.5 91.5t-95.5 248.5q0 56 16 131l134 625h260l-138 -645q-12 -50 -12 -92q0 -144 176 -144q120 0 205 76t115 221l125 584h260l-228 -1065q-125 -54 -184 -101.5t-59 -105.5q0 -69 96 -69q52 0 107 14l-107 -176
q-66 -13 -119 -13q-92 0 -152.5 61t-60.5 146q0 98 64 162t157 92z" />
    <glyph glyph-name="Wcircumflex" unicode="&#x174;" horiz-adv-x="1968" 
d="M213 1434h256l39 -680q4 -42 4 -181q0 -81 -4 -225h8q89 224 180 408l332 678h270l45 -678q9 -123 9 -230q0 -64 -4 -178h8q112 280 172 406l327 680h283l-715 -1434h-266l-47 705q-6 102 -6 217q0 108 2 163h-8q-102 -248 -168 -380l-346 -705h-267zM1241 1690
l-108 -134h-322l299 246h287l192 -246h-293z" />
    <glyph glyph-name="wcircumflex" unicode="&#x175;" horiz-adv-x="1613" 
d="M856 778q-83 -204 -172 -377l-209 -401h-246l-90 1065h250l17 -418q2 -39 2 -110q0 -160 -9 -271h9q93 237 165 379l215 420h246l37 -420q8 -101 8 -235q0 -29 -1 -77t-1 -67h8q97 260 152 381l193 418h274l-545 -1065h-244l-38 401q-13 114 -13 377h-8zM987 1321
l-108 -133h-322l299 246h287l192 -246h-293z" />
    <glyph glyph-name="Ycircumflex" unicode="&#x176;" horiz-adv-x="1257" 
d="M502 571l-297 863h268l193 -635l462 635h306l-660 -863l-121 -571h-272zM887 1690l-109 -134h-321l299 246h286l193 -246h-293z" />
    <glyph glyph-name="ycircumflex" unicode="&#x177;" horiz-adv-x="1081" 
d="M723 1321l-109 -133h-321l299 246h287l192 -246h-293zM307 0l-172 1065h256l60 -410q19 -133 24 -358h8q117 251 179 358l233 410h285l-693 -1186q-52 -91 -102 -141t-134 -78.5t-210 -28.5h-125l43 199h102q84 0 133 28.5t97 112.5z" />
    <glyph glyph-name="Ydieresis" unicode="&#x178;" horiz-adv-x="1257" 
d="M502 571l-297 863h268l193 -635l462 635h306l-660 -863l-121 -571h-272zM545 1802h260l-47 -225h-260zM993 1802h260l-47 -225h-260z" />
    <glyph glyph-name="Zacute" unicode="&#x179;" horiz-adv-x="1265" 
d="M10 225l951 983h-721l47 226h1075l-47 -226l-950 -983h772l-47 -225h-1127zM858 1802h348l-299 -246h-266z" />
    <glyph glyph-name="zacute" unicode="&#x17a;" horiz-adv-x="1083" 
d="M946 205l-43 -205h-942l43 205l711 655h-551l45 205h901l-45 -205l-711 -655h592zM686 1434h348l-299 -246h-266z" />
    <glyph glyph-name="Zdotaccent" unicode="&#x17b;" horiz-adv-x="1265" 
d="M10 225l951 983h-721l47 226h1075l-47 -226l-950 -983h772l-47 -225h-1127zM778 1802h260l-47 -225h-260z" />
    <glyph glyph-name="zdotaccent" unicode="&#x17c;" horiz-adv-x="1083" 
d="M946 205l-43 -205h-942l43 205l711 655h-551l45 205h901l-45 -205l-711 -655h592zM606 1434h260l-47 -226h-260z" />
    <glyph glyph-name="Zcaron" unicode="&#x17d;" horiz-adv-x="1265" 
d="M10 225l951 983h-721l47 226h1075l-47 -226l-950 -983h772l-47 -225h-1127zM868 1669l109 133h321l-299 -246h-286l-193 246h293z" />
    <glyph glyph-name="zcaron" unicode="&#x17e;" horiz-adv-x="1083" 
d="M946 205l-43 -205h-942l43 205l711 655h-551l45 205h901l-45 -205l-711 -655h592zM696 1300l109 134h321l-299 -246h-286l-193 246h293z" />
    <glyph glyph-name="longs" unicode="&#x17f;" horiz-adv-x="677" 
d="M139 1065h213l23 102q32 145 115.5 206t236.5 61h201l-43 -199h-154q-46 0 -67.5 -20t-32.5 -68l-244 -1147h-260l182 860h-213z" />
    <glyph glyph-name="uni018F" unicode="&#x18f;" horiz-adv-x="1560" 
d="M229 1065q226 399 684 399q281 0 448 -162.5t167 -427.5q0 -185 -63 -351t-173 -288.5t-270 -194t-344 -71.5q-185 0 -317.5 77t-197.5 207.5t-65 299.5q0 104 33 266h1124q9 89 -8.5 164.5t-59.5 133t-115 90t-169 32.5q-122 0 -218 -50t-144 -124h-312zM688 195
q178 0 317.5 113t198.5 286h-839q-12 -114 18 -202.5t108.5 -142.5t196.5 -54z" />
    <glyph glyph-name="uni0190" unicode="&#x190;" horiz-adv-x="1359" 
d="M877 631h-203q-74 0 -134 -12t-109 -38.5t-76 -73t-27 -110.5q0 -106 85.5 -161.5t235.5 -55.5q301 0 361 219h266q-23 -89 -73 -164.5t-128 -136t-192 -95t-252 -34.5q-162 0 -289.5 46t-204 139.5t-76.5 220.5q0 139 79.5 243.5t234.5 147.5q-135 96 -135 264
q0 88 38.5 165.5t110.5 138t185.5 95.5t254.5 35q256 0 401 -111t150 -288h-266q-2 79 -77 131.5t-214 52.5q-83 0 -146 -20t-98.5 -53t-53 -71.5t-17.5 -80.5q0 -77 57 -127.5t168 -50.5h191z" />
    <glyph glyph-name="florin" unicode="&#x192;" horiz-adv-x="966" 
d="M387 860h-242l43 205h275l47 117q59 148 141.5 200t229.5 52h225l-41 -195h-178q-48 0 -73 -17.5t-42 -64.5l-35 -92h291l-43 -205h-328l-383 -983q-31 -77 -65 -125.5t-80 -75t-96 -36t-125 -9.5h-182l41 195h135q48 0 72.5 17.5t41.5 64.5z" />
    <glyph glyph-name="uni0194" unicode="&#x194;" horiz-adv-x="1288" 
d="M788 -68q0 -135 -83.5 -218t-219.5 -83q-113 0 -189.5 61t-76.5 161q0 74 46.5 160t193.5 292l-264 1129h262l110 -529q51 -235 62 -354h6q67 128 211 354l338 529h291l-754 -1139q3 -12 8 -34q52 -224 58 -294q1 -18 1 -35zM549 90q-107 -146 -107 -221q0 -57 54 -57
q34 0 53.5 33t19.5 85q0 70 -20 160z" />
    <glyph glyph-name="uni0197" unicode="&#x197;" horiz-adv-x="667" 
d="M115 864h166l120 570h273l-121 -570h168l-45 -215h-168l-137 -649h-273l138 649h-166z" />
    <glyph glyph-name="uni019D" unicode="&#x19d;" horiz-adv-x="1591" 
d="M311 -102q-31 -147 -128.5 -207t-266.5 -60h-125l49 226h84q52 0 80.5 26t46.5 82l311 1469h277l295 -625q120 -262 184 -430h8q43 251 86 450l127 605h273l-303 -1434h-275l-299 625q-134 274 -186 430h-8q-21 -175 -82 -451z" />
    <glyph glyph-name="uni01B5" unicode="&#x1b5;" horiz-adv-x="1288" 
d="M213 840h401l357 368h-721l47 226h1075l-47 -226l-356 -368h248l-46 -215h-411l-385 -400h772l-47 -225h-1127l47 225l386 400h-238z" />
    <glyph glyph-name="uni01B6" unicode="&#x1b6;" horiz-adv-x="1093" 
d="M950 205l-43 -205h-942l43 205l266 246h-161l39 184h323l244 225h-551l45 205h901l-45 -205l-246 -225h178l-38 -184h-338l-267 -246h592z" />
    <glyph glyph-name="uni01CD" unicode="&#x1cd;" horiz-adv-x="1429" 
d="M-115 0l889 1434h266l279 -1434h-264l-58 317h-624l-193 -317h-295zM954 543l-43 239q-25 138 -43 375h-8q-81 -172 -205 -375l-145 -239h444zM948 1669l109 133h321l-299 -246h-286l-193 246h293z" />
    <glyph glyph-name="uni01CE" unicode="&#x1ce;" horiz-adv-x="1198" 
d="M174 778q112 318 512 318q92 0 168 -18.5t135.5 -55.5t93 -99t33.5 -143q0 -51 -14 -112l-141 -668h-259l25 113q-116 -144 -350 -144q-148 0 -252.5 85t-104.5 222q0 180 110.5 270t336.5 109l381 33l4 19q8 31 8 63q0 65 -43.5 98t-140.5 33q-185 0 -232 -123h-270z
M428 164q135 0 240 78t133 219l8 39l-342 -31q-93 -8 -143 -54.5t-50 -127.5q0 -61 40.5 -92t113.5 -31zM748 1300l108 134h322l-299 -246h-287l-193 246h293z" />
    <glyph glyph-name="uni01CF" unicode="&#x1cf;" horiz-adv-x="614" 
d="M362 1434h273l-303 -1434h-273zM539 1669l108 133h322l-299 -246h-287l-193 246h293z" />
    <glyph glyph-name="uni01D0" unicode="&#x1d0;" horiz-adv-x="532" 
d="M250 1065h260l-227 -1065h-260zM420 1300l108 134h322l-299 -246h-287l-192 246h293z" />
    <glyph glyph-name="uni01D1" unicode="&#x1d1;" horiz-adv-x="1624" 
d="M770 195q116 0 220 53t175.5 140.5t113.5 203t42 237.5q0 190 -97 300t-290 110q-116 0 -220 -53.5t-175.5 -141t-113.5 -203t-42 -237.5q0 -191 96.5 -300t290.5 -109zM770 -31q-317 0 -486 172t-169 463q0 127 37 252t109 234t170 193t228 132.5t275 48.5
q317 0 486 -172t169 -463q0 -127 -37 -252t-109 -234t-170 -193t-228 -132.5t-275 -48.5zM963 1669l108 133h322l-299 -246h-287l-193 246h293z" />
    <glyph glyph-name="uni01D2" unicode="&#x1d2;" horiz-adv-x="1265" 
d="M322 451q0 -130 60.5 -203.5t188.5 -73.5q106 0 193 64t133.5 164.5t46.5 211.5q0 129 -61 203t-189 74q-107 0 -194 -64t-132.5 -164t-45.5 -212zM68 451q0 120 44.5 235.5t123.5 206.5t198.5 147t259.5 56q128 0 226 -37.5t158 -104t90 -152.5t30 -188
q0 -96 -28 -189.5t-82.5 -175.5t-129 -144.5t-175 -99t-212.5 -36.5q-128 0 -226 37.5t-157.5 104t-89.5 152.5t-30 188zM735 1300l109 134h321l-299 -246h-286l-193 246h293z" />
    <glyph glyph-name="uni01D3" unicode="&#x1d3;" horiz-adv-x="1503" 
d="M621 1434l-195 -922q-12 -52 -12 -96q0 -108 63 -164.5t182 -56.5q156 0 270 92t146 245l191 902h272l-195 -922q-25 -115 -85 -213.5t-148 -172t-207 -115.5t-254 -42q-239 0 -372.5 123.5t-133.5 317.5q0 45 15 122l190 902h273zM963 1669l108 133h322l-299 -246h-287
l-193 246h293z" />
    <glyph glyph-name="uni01D4" unicode="&#x1d4;" horiz-adv-x="1251" 
d="M764 106q-105 -137 -315 -137q-170 0 -265.5 91.5t-95.5 248.5q0 56 16 131l134 625h260l-138 -645q-12 -50 -12 -92q0 -144 176 -144q120 0 205 76t115 221l125 584h260l-228 -1065h-260zM748 1300l108 134h322l-299 -246h-287l-193 246h293z" />
    <glyph glyph-name="Gcaron" unicode="&#x1e6;" horiz-adv-x="1552" 
d="M741 -31q-297 0 -460.5 171t-163.5 464q0 127 36 252t107 234t168.5 193t229 132.5t278.5 48.5q248 0 392.5 -104.5t193.5 -294.5h-277q-37 85 -111 129.5t-198 44.5q-120 0 -224 -53t-175 -141.5t-111.5 -203t-40.5 -237.5q0 -192 92.5 -300.5t284.5 -108.5
q158 0 271.5 91.5t156.5 266.5h-371l47 225h635l-166 -778h-211l11 133q-55 -71 -164.5 -117.5t-229.5 -46.5zM1004 1669l108 133h322l-299 -246h-287l-193 246h293z" />
    <glyph glyph-name="gcaron" unicode="&#x1e7;" horiz-adv-x="1290" 
d="M559 236q103 0 189 61t133 156.5t47 201.5q0 107 -63.5 171.5t-172.5 64.5q-101 0 -185 -62.5t-129.5 -158.5t-45.5 -199q0 -110 60.5 -172.5t166.5 -62.5zM508 31q-101 0 -185 36t-137.5 97.5t-82.5 140.5t-29 166q0 160 78 303.5t217 232.5t303 89q113 0 198 -47.5
t113 -96.5l23 113h262l-201 -942q-54 -254 -210 -388t-390 -134q-211 0 -330 82t-123 235h256q10 -70 56 -96.5t141 -26.5q129 0 216 83.5t122 244.5l6 27q-33 -33 -64 -55t-95.5 -43t-143.5 -21zM778 1300l109 134h321l-299 -246h-286l-193 246h293z" />
    <glyph glyph-name="uni01E8" unicode="&#x1e8;" horiz-adv-x="1384" 
d="M362 1434h273l-119 -564l676 564h369l-844 -697l581 -737h-327l-500 659l-139 -659h-273zM911 1669l109 133h321l-299 -246h-286l-193 246h293z" />
    <glyph glyph-name="uni01E9" unicode="&#x1e9;" horiz-adv-x="1136" 
d="M1057 0h-314l-356 481l-102 -481h-260l305 1434h260l-160 -754l459 385h354l-622 -512zM819 1669l109 133h321l-299 -246h-286l-193 246h293z" />
    <glyph glyph-name="uni01EA" unicode="&#x1ea;" horiz-adv-x="1624" 
d="M840 -276q51 0 106 14l-106 -176q-66 -13 -119 -13q-92 0 -152.5 61t-60.5 146q0 138 139 221q-258 32 -395 199.5t-137 427.5q0 127 37 252t109 234t170 193t228 132.5t275 48.5q317 0 486 -172t169 -463q0 -257 -142 -479.5t-374 -320.5q-16 -6 -55.5 -21.5
t-58.5 -23.5t-54 -23.5t-53 -26.5t-42.5 -28.5t-36.5 -33.5t-21 -36.5t-9 -42.5q0 -35 26.5 -52t70.5 -17zM770 195q116 0 220 53t175.5 140.5t113.5 203t42 237.5q0 190 -97 300t-290 110q-116 0 -220 -53.5t-175.5 -141t-113.5 -203t-42 -237.5q0 -191 96.5 -300
t290.5 -109z" />
    <glyph glyph-name="uni01EB" unicode="&#x1eb;" horiz-adv-x="1265" 
d="M629 -276q51 0 106 14l-106 -176q-66 -13 -119 -13q-92 0 -152.5 61t-60.5 146q0 145 147 224q-187 35 -281.5 162t-94.5 309q0 120 44.5 235.5t123.5 206.5t198.5 147t259.5 56q128 0 226 -37.5t158 -104t90 -152.5t30 -188q0 -193 -107.5 -360.5t-279.5 -237.5
q-133 -52 -206 -105t-73 -118q0 -35 26.5 -52t70.5 -17zM322 451q0 -130 60.5 -203.5t188.5 -73.5q106 0 193 64t133.5 164.5t46.5 211.5q0 129 -61 203t-189 74q-107 0 -194 -64t-132.5 -164t-45.5 -212z" />
    <glyph glyph-name="uni01F8" unicode="&#x1f8;" horiz-adv-x="1591" 
d="M362 1434h277l295 -625q120 -262 184 -430h8q43 251 86 450l127 605h273l-303 -1434h-275l-299 625q-134 274 -186 430h-8q-21 -175 -82 -451l-127 -604h-273zM1130 1556h-225l-192 246h307z" />
    <glyph glyph-name="uni01F9" unicode="&#x1f9;" horiz-adv-x="1259" 
d="M481 932q58 74 144 119t190 45q170 0 264.5 -89.5t94.5 -246.5q0 -51 -17 -131l-133 -629h-260l133 629q12 62 12 92q0 162 -178 162q-119 0 -207 -81.5t-118 -226.5l-123 -575h-260l227 1065h260zM936 1188h-225l-193 246h307z" />
    <glyph glyph-name="Aringacute" unicode="&#x1fa;" horiz-adv-x="1435" 
d="M-113 0l752 1212q-31 54 -31 119q0 115 91.5 196t209.5 81q119 0 189.5 -68t70.5 -168q0 -102 -79 -184l231 -1188h-264l-58 317h-624l-193 -317h-295zM956 543l-43 239q-33 194 -41 314q-30 0 -36 2q-66 -130 -179 -316l-145 -239h444zM764 1331q0 -45 28.5 -73.5
t75.5 -28.5q58 0 102 41t44 102q0 45 -29 74t-76 29q-57 0 -101 -41.5t-44 -102.5zM952 1905h348l-299 -246h-266z" />
    <glyph glyph-name="aringacute" unicode="&#x1fb;" horiz-adv-x="1198" 
d="M1036 1270q0 -64 -30.5 -119.5t-83.5 -93.5q194 -78 194 -277q0 -51 -14 -112l-141 -668h-259l25 113q-116 -144 -350 -144q-148 0 -252.5 85t-104.5 222q0 180 110.5 270t336.5 109l381 33l4 19q8 31 8 63q0 65 -43.5 98t-140.5 33q-185 0 -232 -123h-270
q82 245 352 303q-51 63 -51 148q0 115 91.5 195.5t209.5 80.5q119 0 189.5 -67.5t70.5 -167.5zM428 164q135 0 240 78t133 219l8 39l-342 -31q-93 -8 -143 -54.5t-50 -127.5q0 -61 40.5 -92t113.5 -31zM825 1802h349l-300 -246h-266zM631 1229q0 -45 28.5 -74t75.5 -29
q57 0 101.5 41.5t44.5 102.5q0 45 -29 73.5t-76 28.5q-57 0 -101 -41t-44 -102z" />
    <glyph glyph-name="AEacute" unicode="&#x1fc;" horiz-adv-x="2193" 
d="M969 0l67 317h-579l-267 -317h-327l1227 1434h1187l-49 -226h-731l-76 -358h690l-47 -225h-690l-86 -400h731l-47 -225h-1003zM647 543h436l142 665h-19zM1690 1802h348l-299 -246h-266z" />
    <glyph glyph-name="aeacute" unicode="&#x1fd;" horiz-adv-x="1961" 
d="M1053 440q-2 -14 -2 -43q0 -100 58.5 -166.5t178.5 -66.5q86 0 144.5 34t101.5 109h301q-89 -163 -231 -250.5t-328 -87.5q-133 0 -233 52.5t-162 146.5q-47 -49 -109.5 -90.5t-164.5 -75t-212 -33.5q-160 0 -268.5 84.5t-108.5 222.5q0 180 112.5 270t338.5 109l381 33
l4 19q8 31 8 63q0 131 -188 131q-186 0 -232 -123h-270q112 318 512 318q114 0 212.5 -33.5t156.5 -97.5q166 131 391 131q133 0 235.5 -45.5t163 -140t60.5 -226.5q0 -104 -31 -244h-819zM424 164q136 0 243.5 78.5t135.5 218.5l8 39l-342 -31q-93 -8 -145 -54.5
t-52 -127.5q0 -61 39.5 -92t112.5 -31zM1434 901q-116 0 -208.5 -77t-131.5 -189h553q4 32 4 51q0 96 -56 155.5t-161 59.5zM1126 1434h349l-299 -246h-267z" />
    <glyph glyph-name="Oslashacute" unicode="&#x1fe;" horiz-adv-x="1626" 
d="M209 233q-94 149 -94 371q0 127 37 252t109 234t170 193t228 132.5t275 48.5q266 0 432 -125l131 125h275l-279 -266q96 -152 96 -369q0 -127 -37 -252t-109 -234t-170 -193t-228 -132.5t-275 -48.5q-268 0 -432 127l-133 -127h-273zM1321 829q0 105 -27 181l-776 -742
q91 -73 252 -73q116 0 220 53t175.5 140.5t113.5 203t42 237.5zM383 604q0 -102 27 -178l774 739q-92 74 -250 74q-116 0 -220 -53.5t-175.5 -141t-113.5 -203t-42 -237.5zM1030 1802h348l-299 -246h-266z" />
    <glyph glyph-name="oslashacute" unicode="&#x1ff;" horiz-adv-x="1267" 
d="M143 170q-73 115 -73 281q0 120 44.5 235.5t123.5 206.5t198.5 147t259.5 56q198 0 324 -90l96 90h225l-215 -203q74 -116 74 -279q0 -96 -28 -189.5t-82.5 -175.5t-129 -144.5t-175 -99t-212.5 -36.5q-195 0 -323 88l-94 -88h-224zM324 451q0 -62 10 -101l520 496
q-57 45 -158 45q-107 0 -194 -64t-132.5 -164t-45.5 -212zM946 614q0 45 -10 97l-520 -494q58 -43 157 -43q106 0 193 64t133.5 164.5t46.5 211.5zM778 1434h348l-299 -246h-266z" />
    <glyph glyph-name="uni0218" unicode="&#x218;" horiz-adv-x="1351" 
d="M1122 1065q0 103 -82 149t-217 46q-89 0 -163 -18t-127.5 -66t-53.5 -121q0 -86 57 -133t181 -68l119 -20q407 -70 407 -398q0 -119 -49.5 -210t-137.5 -146.5t-201 -83t-247 -27.5q-85 0 -164 13t-156.5 44.5t-134.5 79t-92.5 123t-35.5 170.5h256q0 -84 45 -135.5
t116.5 -70.5t175.5 -19q65 0 125.5 11.5t115 35.5t87.5 69t33 105q0 90 -58 133t-186 64l-119 20q-187 32 -292 140.5t-105 271.5q0 110 51 196.5t138 138.5t195.5 78.5t230.5 26.5q88 0 166.5 -14t148 -45t119.5 -76.5t79 -113t29 -150.5h-254zM463 -102h260l-47 -215
l-189 -215h-106l137 215h-102z" />
    <glyph glyph-name="uni0219" unicode="&#x219;" horiz-adv-x="1099" 
d="M256 307q0 -80 50.5 -118.5t164.5 -38.5q65 0 118.5 14.5t91.5 49.5t38 87q0 55 -38 77t-124 36l-70 10q-150 21 -241.5 105t-91.5 219q0 91 41.5 160t111.5 109t152.5 59.5t175.5 19.5q126 0 226 -34t162 -107t62 -177h-256q0 137 -204 137q-38 0 -72 -5.5t-69 -19.5
t-55.5 -42.5t-20.5 -69.5q0 -51 35.5 -77.5t115.5 -38.5l70 -11q77 -11 136.5 -32t108 -57t74 -92.5t25.5 -131.5q0 -96 -42 -169t-114 -115.5t-159 -63.5t-187 -21q-94 0 -174 17.5t-149 55t-108.5 105.5t-39.5 160h256zM293 -102h260l-47 -215l-189 -215h-106l137 215
h-102z" />
    <glyph glyph-name="uni021A" unicode="&#x21a;" horiz-adv-x="1251" 
d="M635 1208h-469l47 226h1208l-47 -226h-467l-256 -1208h-272zM365 -102h260l-47 -215l-189 -215h-106l137 215h-103z" />
    <glyph glyph-name="uni021B" unicode="&#x21b;" horiz-adv-x="858" 
d="M240 -102h260l-47 -215l-189 -215h-106l137 215h-102zM479 287q-6 -24 -6 -39q0 -28 16 -38.5t54 -10.5h194l-43 -199h-223q-262 0 -262 205q0 30 12 92l121 563h-256l43 205h256l53 246h260l-53 -246h277l-43 -205h-277z" />
    <glyph glyph-name="uni021E" unicode="&#x21e;" horiz-adv-x="1570" 
d="M362 1434h273l-123 -584h684l123 584h272l-303 -1434h-272l131 625h-684l-131 -625h-273zM1004 1669l108 133h322l-299 -246h-287l-193 246h293z" />
    <glyph glyph-name="uni021F" unicode="&#x21f;" horiz-adv-x="1261" 
d="M483 932q58 74 143.5 119t190.5 45q170 0 264.5 -89.5t94.5 -246.5q0 -53 -17 -133l-133 -627h-260l135 637q10 52 10 82q0 164 -178 164q-119 0 -207 -81.5t-118 -226.5l-123 -575h-260l305 1434h260zM860 1669l109 133h321l-299 -246h-286l-193 246h293z" />
    <glyph glyph-name="uni022E" unicode="&#x22e;" horiz-adv-x="1624" 
d="M770 195q116 0 220 53t175.5 140.5t113.5 203t42 237.5q0 190 -97 300t-290 110q-116 0 -220 -53.5t-175.5 -141t-113.5 -203t-42 -237.5q0 -191 96.5 -300t290.5 -109zM770 -31q-317 0 -486 172t-169 463q0 127 37 252t109 234t170 193t228 132.5t275 48.5
q317 0 486 -172t169 -463q0 -127 -37 -252t-109 -234t-170 -193t-228 -132.5t-275 -48.5zM870 1802h260l-47 -225h-260z" />
    <glyph glyph-name="uni022F" unicode="&#x22f;" horiz-adv-x="1265" 
d="M322 451q0 -130 60.5 -203.5t188.5 -73.5q106 0 193 64t133.5 164.5t46.5 211.5q0 129 -61 203t-189 74q-107 0 -194 -64t-132.5 -164t-45.5 -212zM68 451q0 120 44.5 235.5t123.5 206.5t198.5 147t259.5 56q128 0 226 -37.5t158 -104t90 -152.5t30 -188
q0 -96 -28 -189.5t-82.5 -175.5t-129 -144.5t-175 -99t-212.5 -36.5q-128 0 -226 37.5t-157.5 104t-89.5 152.5t-30 188zM647 1434h260l-47 -226h-260z" />
    <glyph glyph-name="uni0232" unicode="&#x232;" horiz-adv-x="1257" 
d="M502 571l-297 863h268l193 -635l462 635h306l-660 -863l-121 -571h-272zM522 1782h717l-39 -185h-717z" />
    <glyph glyph-name="uni0233" unicode="&#x233;" horiz-adv-x="1081" 
d="M307 0l-172 1065h256l60 -410q19 -133 24 -358h8q117 251 179 358l233 410h285l-693 -1186q-52 -91 -102 -141t-134 -78.5t-210 -28.5h-125l43 199h102q84 0 133 28.5t97 112.5zM375 1413h717l-39 -184h-717z" />
    <glyph glyph-name="uni0237" unicode="&#x237;" horiz-adv-x="540" 
d="M258 1065h260l-248 -1167q-31 -147 -127.5 -207t-265.5 -60h-133l43 199h104q106 0 127 109z" />
    <glyph glyph-name="uni0244" unicode="&#x244;" horiz-adv-x="1576" 
d="M659 1434l-120 -570h645l121 570h272l-121 -570h154l-45 -215h-154l-29 -137q-25 -115 -85 -213.5t-148 -172t-207 -115.5t-254 -42q-239 0 -372.5 123.5t-133.5 317.5q0 45 15 122l24 117h-151l45 215h151l121 570h272zM698 195q156 0 270 92t146 245l25 117h-645
l-29 -137q-12 -52 -12 -96q0 -108 63 -164.5t182 -56.5z" />
    <glyph glyph-name="uni0259" unicode="&#x259;" horiz-adv-x="1228" 
d="M137 778q88 151 225.5 234.5t321.5 83.5q146 0 256.5 -65t166.5 -171.5t56 -234.5q0 -177 -80.5 -326.5t-230 -239.5t-336.5 -90q-133 0 -235.5 45.5t-163 140t-60.5 226.5q0 104 31 244h819q2 14 2 43q0 100 -58.5 166.5t-178.5 66.5q-84 0 -139 -30.5t-95 -92.5h-301z
M526 164q116 0 208.5 77t131.5 189h-553q-4 -32 -4 -47q0 -96 56.5 -157.5t160.5 -61.5z" />
    <glyph glyph-name="uni025B" unicode="&#x25b;" horiz-adv-x="1083" 
d="M991 307q-36 -140 -172.5 -239t-353.5 -99q-204 0 -321 79t-117 226q0 113 68 187t177 98q-53 31 -84.5 83.5t-31.5 121.5q0 144 122 237t332 93q129 0 227 -35t157.5 -107t64.5 -174h-246q-5 60 -55.5 96.5t-155.5 36.5q-104 0 -155.5 -43.5t-51.5 -109.5
q0 -58 42.5 -92.5t125.5 -34.5h139l-40 -195h-146q-244 0 -244 -149q0 -65 55.5 -98t151.5 -33q109 0 172.5 43.5t83.5 107.5h256z" />
    <glyph glyph-name="uni0263" unicode="&#x263;" horiz-adv-x="1097" 
d="M137 -160q0 71 42.5 152t170.5 248l-227 825h250l82 -317q42 -153 55 -287h8q27 59 77 141.5t97 145.5l217 317h287l-586 -836q11 -49 26 -112.5t22 -93t12.5 -63.5t5.5 -58q0 -113 -80.5 -192t-206.5 -79q-111 0 -181.5 58t-70.5 151zM442 39q-90 -134 -90 -189
q0 -53 45 -53q29 0 46.5 27.5t17.5 69.5q0 40 -19 145z" />
    <glyph glyph-name="uni0268" unicode="&#x268;" horiz-adv-x="532" 
d="M63 686h134l82 379h260l-82 -379h135l-41 -194h-135l-105 -492h-260l105 492h-133zM356 1434h260l-47 -226h-260z" />
    <glyph glyph-name="uni0272" unicode="&#x272;" horiz-adv-x="1259" 
d="M262 -102q-31 -147 -127.5 -207t-265.5 -60h-133l43 199h104q106 0 127 109l240 1126h260l-29 -133q58 74 144 119t190 45q170 0 264.5 -89.5t94.5 -246.5q0 -51 -17 -131l-133 -629h-260l133 629q12 62 12 92q0 162 -178 162q-119 0 -207 -81.5t-118 -226.5z" />
    <glyph glyph-name="uni0289" unicode="&#x289;" horiz-adv-x="1306" 
d="M72 686h125l82 379h260l-82 -379h471l82 379h260l-82 -379h129l-41 -194h-129l-105 -492h-260l23 106q-105 -137 -316 -137q-170 0 -265 91.5t-95 248.5q0 56 16 131l11 52h-125zM565 184q120 0 205 76t115 221l2 11h-471l-15 -72q-12 -50 -12 -92q0 -144 176 -144z" />
    <glyph glyph-name="circumflex" unicode="&#x2c6;" horiz-adv-x="839" 
d="M600 1321l-108 -133h-322l299 246h287l192 -246h-293z" />
    <glyph glyph-name="caron" unicode="&#x2c7;" horiz-adv-x="839" 
d="M571 1300l109 134h321l-299 -246h-286l-193 246h293z" />
    <glyph glyph-name="breve" unicode="&#x2d8;" horiz-adv-x="798" 
d="M575 1352q68 0 116.5 32.5t72.5 90.5h188q-39 -134 -140.5 -221t-246.5 -87q-149 0 -237 89.5t-80 218.5h172q5 -57 45.5 -90t109.5 -33z" />
    <glyph glyph-name="dotaccent" unicode="&#x2d9;" horiz-adv-x="430" 
d="M276 1434h261l-48 -226h-260z" />
    <glyph glyph-name="ring" unicode="&#x2da;" horiz-adv-x="655" 
d="M387 1382q0 -45 29 -73.5t76 -28.5q57 0 101 41t44 102q0 45 -29 74t-76 29q-57 0 -101 -41.5t-44 -102.5zM793 1423q0 -115 -91.5 -195.5t-209.5 -80.5q-119 0 -190 67.5t-71 167.5q0 115 91.5 196t209.5 81q119 0 190 -68t71 -168z" />
    <glyph glyph-name="ogonek" unicode="&#x2db;" horiz-adv-x="491" 
d="M190 -276q52 0 107 14l-107 -176q-66 -13 -118 -13q-92 0 -152.5 61t-60.5 146q0 165 209 254l270 -10q-125 -54 -184.5 -102t-59.5 -105q0 -69 96 -69z" />
    <glyph glyph-name="tilde" unicode="&#x2dc;" horiz-adv-x="901" 
d="M203 1198q27 124 100.5 195t181.5 71q48 0 95 -19t77.5 -42.5t63 -42.5t55.5 -19q63 0 78 82h174q-27 -125 -100 -195.5t-180 -70.5q-48 0 -95 19t-77.5 42.5t-63 42.5t-55.5 19q-65 0 -80 -82h-174z" />
    <glyph glyph-name="hungarumlaut" unicode="&#x2dd;" horiz-adv-x="1003" 
d="M432 1434h297l-237 -246h-246zM801 1434h297l-238 -246h-246z" />
    <glyph glyph-name="gravecomb" unicode="&#x300;" horiz-adv-x="0" 
d="M-303 1188h-225l-193 246h307z" />
    <glyph glyph-name="acutecomb" unicode="&#x301;" horiz-adv-x="0" 
d="M-578 1434h349l-299 -246h-267z" />
    <glyph glyph-name="uni0302" unicode="&#x302;" horiz-adv-x="0" 
d="M-471 1321l-109 -133h-321l299 246h287l192 -246h-293z" />
    <glyph glyph-name="tildecomb" unicode="&#x303;" horiz-adv-x="0" 
d="M-924 1198q27 124 101 195t182 71q48 0 95 -19t77.5 -42.5t63 -42.5t55.5 -19q63 0 78 82h174q-27 -124 -100 -195t-181 -71q-48 0 -95 19t-77.5 42.5t-63 42.5t-55.5 19q-65 0 -80 -82h-174z" />
    <glyph glyph-name="uni0304" unicode="&#x304;" horiz-adv-x="0" 
d="M-850 1413h717l-39 -184h-717z" />
    <glyph glyph-name="uni0306" unicode="&#x306;" horiz-adv-x="0" 
d="M-535 1352q68 0 116.5 32.5t72.5 90.5h188q-39 -134 -140.5 -221t-246.5 -87q-149 0 -237 89.5t-80 218.5h172q5 -57 45.5 -90t109.5 -33z" />
    <glyph glyph-name="uni0307" unicode="&#x307;" horiz-adv-x="0" 
d="M-618 1434h260l-48 -226h-260z" />
    <glyph glyph-name="uni0308" unicode="&#x308;" horiz-adv-x="0" 
d="M-842 1434h260l-47 -226h-260zM-393 1434h260l-47 -226h-260z" />
    <glyph glyph-name="uni030A" unicode="&#x30a;" horiz-adv-x="0" 
d="M-637 1382q0 -45 29 -73.5t76 -28.5q57 0 101 41t44 102q0 45 -29 74t-76 29q-57 0 -101 -41.5t-44 -102.5zM-231 1423q0 -115 -91.5 -195.5t-209.5 -80.5q-119 0 -190 67.5t-71 167.5q0 115 91.5 196t209.5 81q119 0 190 -68t71 -168z" />
    <glyph glyph-name="uni030B" unicode="&#x30b;" horiz-adv-x="0" 
d="M-752 1434h297l-237 -246h-246zM-383 1434h297l-238 -246h-245z" />
    <glyph glyph-name="uni030C" unicode="&#x30c;" horiz-adv-x="0" 
d="M-553 1300l109 134h321l-299 -246h-287l-192 246h293z" />
    <glyph glyph-name="uni0312" unicode="&#x312;" horiz-adv-x="0" 
d="M-422 1188h-260l47 215l189 215h106l-137 -215h102z" />
    <glyph glyph-name="uni0313" unicode="&#x313;" horiz-adv-x="0" 
d="M-571 1434h270l-211 -410h-209z" />
    <glyph glyph-name="dotbelowcomb" unicode="&#x323;" horiz-adv-x="0" 
d="M-618 -123h260l-48 -225h-260z" />
    <glyph glyph-name="uni0326" unicode="&#x326;" horiz-adv-x="0" 
d="M-600 -102h260l-47 -215l-188 -215h-107l137 215h-102z" />
    <glyph glyph-name="uni0327" unicode="&#x327;" horiz-adv-x="0" 
d="M-604 -287q1 -20 18 -30.5t43 -10.5q40 0 66 25t26 59q0 26 -15.5 43t-43.5 17q-32 0 -55 -23l-78 98l168 140h199l-150 -123q55 -4 87 -45t32 -99q0 -91 -69.5 -153t-168.5 -62q-85 0 -142.5 47.5t-57.5 116.5h141z" />
    <glyph glyph-name="uni0328" unicode="&#x328;" horiz-adv-x="0" 
d="M-420 -276q52 0 107 14l-107 -176q-66 -13 -119 -13q-92 0 -152.5 61t-60.5 146q0 165 209 254l271 -10q-125 -54 -184.5 -102t-59.5 -105q0 -69 96 -69z" />
    <glyph glyph-name="uni032E" unicode="&#x32e;" horiz-adv-x="0" 
d="M-535 -268q68 0 116.5 32.5t72.5 90.5h188q-39 -134 -140.5 -221t-246.5 -87q-149 0 -237 89.5t-80 218.5h172q5 -57 45.5 -90t109.5 -33z" />
    <glyph glyph-name="uni0331" unicode="&#x331;" horiz-adv-x="0" 
d="M-850 -145h717l-39 -185h-717z" />
    <glyph glyph-name="anoteleia" unicode="&#x387;" horiz-adv-x="559" 
d="M156 686h313l-66 -307h-313z" />
    <glyph glyph-name="uni0394" unicode="&#x394;" horiz-adv-x="1220" 
d="M-12 205l692 1229h254l168 -1229l-43 -205h-1114zM262 205h586l-105 882z" />
    <glyph glyph-name="uni03A9" unicode="&#x3a9;" horiz-adv-x="1486" 
d="M889 1260q-108 0 -200 -46t-153.5 -124t-95.5 -180t-34 -214q0 -138 61.5 -225.5t169.5 -112.5l-76 -358h-536l43 205h362l2 10q-132 61 -206 200t-74 302q0 212 98.5 383.5t269.5 267.5t379 96q127 0 233 -41t178 -112.5t112 -170t40 -212.5q0 -241 -141 -438t-367 -275
l-2 -10h332l-43 -205h-536l75 358q187 38 305.5 187.5t118.5 369.5q0 153 -84 249t-231 96z" />
    <glyph glyph-name="uni03BC" unicode="&#x3bc;" horiz-adv-x="1271" 
d="M778 68q-53 -53 -113 -76t-139 -23q-158 0 -225 113l-96 -451h-260l305 1434h260l-135 -635q-10 -42 -10 -82q0 -82 47.5 -128t146.5 -46q114 0 191.5 67.5t101.5 178.5l137 645h260l-227 -1065h-260z" />
    <glyph glyph-name="pi" unicode="&#x3c0;" horiz-adv-x="1206" 
d="M819 860h-291l-182 -860h-260l182 860h-133l45 205h1077l-45 -205h-133l-182 -860h-260z" />
    <glyph glyph-name="uni1E02" unicode="&#x1e02;" horiz-adv-x="1460" 
d="M362 1434h699q168 0 270.5 -86.5t102.5 -231.5q0 -234 -222 -358q67 -42 103.5 -113t36.5 -162q0 -211 -154.5 -347t-392.5 -136h-748zM825 225q124 0 192 69.5t68 172.5q0 71 -40.5 114.5t-126.5 43.5h-455l-86 -400h448zM924 850q109 0 176 62t67 161q0 135 -168 135
h-413l-76 -358h414zM829 1802h261l-48 -225h-260z" />
    <glyph glyph-name="uni1E03" unicode="&#x1e03;" horiz-adv-x="1306" 
d="M758 891q-66 0 -126.5 -27t-106 -73t-79.5 -105t-51.5 -125t-17.5 -131q0 -117 62 -186.5t167 -69.5q115 0 204 72t133 178.5t44 224.5q0 117 -59.5 179.5t-169.5 62.5zM285 0h-260l305 1434h260l-103 -482q126 144 334 144q99 0 180 -36.5t133.5 -98.5t80.5 -142.5
t28 -169.5q0 -100 -26.5 -198.5t-78.5 -185t-123.5 -153t-167 -105t-202.5 -38.5q-130 0 -213 49.5t-117 126.5zM793 1434h260l-47 -226h-261z" />
    <glyph glyph-name="uni1E0A" unicode="&#x1e0a;" horiz-adv-x="1501" 
d="M362 1434h537q271 0 422.5 -140t151.5 -393q0 -181 -60.5 -344.5t-169.5 -287t-273 -196.5t-358 -73h-553zM623 225q108 0 202 36t163 99t118.5 148t74.5 185t25 208q0 157 -84.5 232t-273.5 75h-260l-209 -983h244zM829 1802h261l-48 -225h-260z" />
    <glyph glyph-name="uni1E0B" unicode="&#x1e0b;" horiz-adv-x="1300" 
d="M551 174q109 0 198.5 70t137 175t47.5 216q0 117 -62 186.5t-167 69.5q-87 0 -160.5 -42t-120.5 -110t-73.5 -151t-26.5 -168q0 -118 58.5 -182t168.5 -64zM811 96q-137 -127 -322 -127q-128 0 -226 63.5t-147.5 165.5t-49.5 222q0 100 26 197t78 183.5t123.5 152.5
t170 104.5t210.5 38.5q116 0 199 -45t118 -111l105 494h260l-305 -1434h-260zM588 1434h260l-47 -226h-260z" />
    <glyph glyph-name="uni1E0C" unicode="&#x1e0c;" horiz-adv-x="1501" 
d="M362 1434h537q271 0 422.5 -140t151.5 -393q0 -181 -60.5 -344.5t-169.5 -287t-273 -196.5t-358 -73h-553zM623 225q108 0 202 36t163 99t118.5 148t74.5 185t25 208q0 157 -84.5 232t-273.5 75h-260l-209 -983h244zM504 -123h260l-47 -225h-260z" />
    <glyph glyph-name="uni1E0D" unicode="&#x1e0d;" horiz-adv-x="1300" 
d="M551 174q109 0 198.5 70t137 175t47.5 216q0 117 -62 186.5t-167 69.5q-87 0 -160.5 -42t-120.5 -110t-73.5 -151t-26.5 -168q0 -118 58.5 -182t168.5 -64zM811 96q-137 -127 -322 -127q-128 0 -226 63.5t-147.5 165.5t-49.5 222q0 100 26 197t78 183.5t123.5 152.5
t170 104.5t210.5 38.5q116 0 199 -45t118 -111l105 494h260l-305 -1434h-260zM463 -123h260l-47 -225h-260z" />
    <glyph glyph-name="uni1E0E" unicode="&#x1e0e;" horiz-adv-x="1501" 
d="M362 1434h537q271 0 422.5 -140t151.5 -393q0 -181 -60.5 -344.5t-169.5 -287t-273 -196.5t-358 -73h-553zM623 225q108 0 202 36t163 99t118.5 148t74.5 185t25 208q0 157 -84.5 232t-273.5 75h-260l-209 -983h244zM283 -145h716l-38 -185h-717z" />
    <glyph glyph-name="uni1E0F" unicode="&#x1e0f;" horiz-adv-x="1300" 
d="M551 174q109 0 198.5 70t137 175t47.5 216q0 117 -62 186.5t-167 69.5q-87 0 -160.5 -42t-120.5 -110t-73.5 -151t-26.5 -168q0 -118 58.5 -182t168.5 -64zM811 96q-137 -127 -322 -127q-128 0 -226 63.5t-147.5 165.5t-49.5 222q0 100 26 197t78 183.5t123.5 152.5
t170 104.5t210.5 38.5q116 0 199 -45t118 -111l105 494h260l-305 -1434h-260zM242 -145h716l-38 -185h-717z" />
    <glyph glyph-name="uni1E10" unicode="&#x1e10;" horiz-adv-x="1501" 
d="M362 1434h537q271 0 422.5 -140t151.5 -393q0 -181 -60.5 -344.5t-169.5 -287t-273 -196.5t-358 -73h-553zM623 225q108 0 202 36t163 99t118.5 148t74.5 185t25 208q0 157 -84.5 232t-273.5 75h-260l-209 -983h244zM508 -102h260l-47 -215l-189 -215h-106l137 215h-102z
" />
    <glyph glyph-name="uni1E11" unicode="&#x1e11;" horiz-adv-x="1300" 
d="M551 174q109 0 198.5 70t137 175t47.5 216q0 117 -62 186.5t-167 69.5q-87 0 -160.5 -42t-120.5 -110t-73.5 -151t-26.5 -168q0 -118 58.5 -182t168.5 -64zM811 96q-137 -127 -322 -127q-128 0 -226 63.5t-147.5 165.5t-49.5 222q0 100 26 197t78 183.5t123.5 152.5
t170 104.5t210.5 38.5q116 0 199 -45t118 -111l105 494h260l-305 -1434h-260zM467 -102h260l-47 -215l-188 -215h-107l137 215h-102z" />
    <glyph glyph-name="uni1E1E" unicode="&#x1e1e;" horiz-adv-x="1290" 
d="M362 1434h1045l-47 -226h-772l-80 -379h731l-49 -225h-731l-127 -604h-273zM834 1802h260l-47 -225h-261z" />
    <glyph glyph-name="uni1E1F" unicode="&#x1e1f;" horiz-adv-x="835" 
d="M135 1065h254l23 102q32 145 115.5 206t236.5 61h242l-43 -199h-195q-46 0 -67.5 -20t-32.5 -68l-19 -82h279l-43 -205h-279l-182 -860h-260l182 860h-254zM629 1802h260l-47 -225h-260z" />
    <glyph glyph-name="uni1E20" unicode="&#x1e20;" horiz-adv-x="1552" 
d="M741 -31q-297 0 -460.5 171t-163.5 464q0 127 36 252t107 234t168.5 193t229 132.5t278.5 48.5q248 0 392.5 -104.5t193.5 -294.5h-277q-37 85 -111 129.5t-198 44.5q-120 0 -224 -53t-175 -141.5t-111.5 -203t-40.5 -237.5q0 -192 92.5 -300.5t284.5 -108.5
q158 0 271.5 91.5t156.5 266.5h-371l47 225h635l-166 -778h-211l11 133q-55 -71 -164.5 -117.5t-229.5 -46.5zM666 1782h716l-39 -185h-716z" />
    <glyph glyph-name="uni1E21" unicode="&#x1e21;" horiz-adv-x="1290" 
d="M559 236q103 0 189 61t133 156.5t47 201.5q0 107 -63.5 171.5t-172.5 64.5q-101 0 -185 -62.5t-129.5 -158.5t-45.5 -199q0 -110 60.5 -172.5t166.5 -62.5zM508 31q-101 0 -185 36t-137.5 97.5t-82.5 140.5t-29 166q0 160 78 303.5t217 232.5t303 89q113 0 198 -47.5
t113 -96.5l23 113h262l-201 -942q-54 -254 -210 -388t-390 -134q-211 0 -330 82t-123 235h256q10 -70 56 -96.5t141 -26.5q129 0 216 83.5t122 244.5l6 27q-33 -33 -64 -55t-95.5 -43t-143.5 -21zM455 1413h716l-38 -184h-717z" />
    <glyph glyph-name="uni1E22" unicode="&#x1e22;" horiz-adv-x="1570" 
d="M362 1434h273l-123 -584h684l123 584h272l-303 -1434h-272l131 625h-684l-131 -625h-273zM911 1802h260l-47 -225h-260z" />
    <glyph glyph-name="uni1E23" unicode="&#x1e23;" horiz-adv-x="1261" 
d="M483 932q58 74 143.5 119t190.5 45q170 0 264.5 -89.5t94.5 -246.5q0 -53 -17 -133l-133 -627h-260l135 637q10 52 10 82q0 164 -178 164q-119 0 -207 -81.5t-118 -226.5l-123 -575h-260l305 1434h260zM772 1802h260l-47 -225h-260z" />
    <glyph glyph-name="uni1E24" unicode="&#x1e24;" horiz-adv-x="1570" 
d="M362 1434h273l-123 -584h684l123 584h272l-303 -1434h-272l131 625h-684l-131 -625h-273zM522 -123h260l-47 -225h-260z" />
    <glyph glyph-name="uni1E25" unicode="&#x1e25;" horiz-adv-x="1261" 
d="M483 932q58 74 143.5 119t190.5 45q170 0 264.5 -89.5t94.5 -246.5q0 -53 -17 -133l-133 -627h-260l135 637q10 52 10 82q0 164 -178 164q-119 0 -207 -81.5t-118 -226.5l-123 -575h-260l305 1434h260zM373 -123h260l-47 -225h-260z" />
    <glyph glyph-name="uni1E2A" unicode="&#x1e2a;" horiz-adv-x="1570" 
d="M362 1434h273l-123 -584h684l123 584h272l-303 -1434h-272l131 625h-684l-131 -625h-273zM616 -268q68 0 116.5 32.5t72.5 90.5h188q-39 -134 -140.5 -221t-246.5 -87q-149 0 -237 89.5t-80 218.5h172q5 -57 45.5 -90t109.5 -33z" />
    <glyph glyph-name="uni1E2B" unicode="&#x1e2b;" horiz-adv-x="1261" 
d="M483 932q58 74 143.5 119t190.5 45q170 0 264.5 -89.5t94.5 -246.5q0 -53 -17 -133l-133 -627h-260l135 637q10 52 10 82q0 164 -178 164q-119 0 -207 -81.5t-118 -226.5l-123 -575h-260l305 1434h260zM467 -268q68 0 116 32.5t72 90.5h189q-39 -134 -140.5 -221
t-246.5 -87q-149 0 -237.5 89.5t-80.5 218.5h172q5 -57 46 -90t110 -33z" />
    <glyph glyph-name="uni1E36" unicode="&#x1e36;" horiz-adv-x="1191" 
d="M362 1434h273l-256 -1209h731l-47 -225h-1004zM410 -123h260l-47 -225h-261z" />
    <glyph glyph-name="uni1E37" unicode="&#x1e37;" horiz-adv-x="534" 
d="M330 1434h260l-305 -1434h-260zM2 -123h260l-47 -225h-260z" />
    <glyph glyph-name="uni1E38" unicode="&#x1e38;" horiz-adv-x="1191" 
d="M362 1434h273l-256 -1209h731l-47 -225h-1004zM410 -123h260l-47 -225h-261zM528 1782h717l-39 -185h-717z" />
    <glyph glyph-name="uni1E39" unicode="&#x1e39;" horiz-adv-x="534" 
d="M330 1434h260l-305 -1434h-260zM2 -123h260l-47 -225h-260zM176 1782h717l-39 -185h-717z" />
    <glyph glyph-name="uni1E3A" unicode="&#x1e3a;" horiz-adv-x="1191" 
d="M362 1434h273l-256 -1209h731l-47 -225h-1004zM188 -145h717l-39 -185h-716z" />
    <glyph glyph-name="uni1E3B" unicode="&#x1e3b;" horiz-adv-x="534" 
d="M330 1434h260l-305 -1434h-260zM-219 -145h717l-39 -185h-717z" />
    <glyph glyph-name="uni1E3E" unicode="&#x1e3e;" horiz-adv-x="1857" 
d="M362 1434h283l164 -545q51 -173 100 -387q107 174 265 387l393 545h311l-303 -1434h-272l127 604q42 197 110 410h-8q-122 -213 -252 -389l-457 -625l-194 625q-54 177 -94 389h-9q-45 -308 -67 -410l-127 -604h-273zM1112 1802h348l-299 -246h-266z" />
    <glyph glyph-name="uni1E3F" unicode="&#x1e3f;" horiz-adv-x="1925" 
d="M707 881q-103 0 -185 -65.5t-108 -201.5l-131 -614h-260l227 1065h260l-25 -115q52 70 135.5 108t172.5 38q235 0 315 -185q134 185 391 185q148 0 245 -88t97 -244q0 -47 -16 -129l-135 -635h-260l135 637q14 61 14 100q0 74 -39.5 109t-128.5 35q-103 0 -186 -65.5
t-109 -201.5l-131 -614h-260l135 637q14 61 14 100q0 74 -39 109t-128 35zM1169 1434h349l-299 -246h-267z" />
    <glyph glyph-name="uni1E40" unicode="&#x1e40;" horiz-adv-x="1857" 
d="M362 1434h283l164 -545q51 -173 100 -387q107 174 265 387l393 545h311l-303 -1434h-272l127 604q42 197 110 410h-8q-122 -213 -252 -389l-457 -625l-194 625q-54 177 -94 389h-9q-45 -308 -67 -410l-127 -604h-273zM1014 1802h260l-47 -225h-260z" />
    <glyph glyph-name="uni1E41" unicode="&#x1e41;" horiz-adv-x="1925" 
d="M707 881q-103 0 -185 -65.5t-108 -201.5l-131 -614h-260l227 1065h260l-25 -115q52 70 135.5 108t172.5 38q235 0 315 -185q134 185 391 185q148 0 245 -88t97 -244q0 -47 -16 -129l-135 -635h-260l135 637q14 61 14 100q0 74 -39.5 109t-128.5 35q-103 0 -186 -65.5
t-109 -201.5l-131 -614h-260l135 637q14 61 14 100q0 74 -39 109t-128 35zM1018 1434h260l-47 -226h-260z" />
    <glyph glyph-name="uni1E42" unicode="&#x1e42;" horiz-adv-x="1857" 
d="M362 1434h283l164 -545q51 -173 100 -387q107 174 265 387l393 545h311l-303 -1434h-272l127 604q42 197 110 410h-8q-122 -213 -252 -389l-457 -625l-194 625q-54 177 -94 389h-9q-45 -308 -67 -410l-127 -604h-273zM666 -123h260l-47 -225h-261z" />
    <glyph glyph-name="uni1E43" unicode="&#x1e43;" horiz-adv-x="1925" 
d="M707 881q-103 0 -185 -65.5t-108 -201.5l-131 -614h-260l227 1065h260l-25 -115q52 70 135.5 108t172.5 38q235 0 315 -185q134 185 391 185q148 0 245 -88t97 -244q0 -47 -16 -129l-135 -635h-260l135 637q14 61 14 100q0 74 -39.5 109t-128.5 35q-103 0 -186 -65.5
t-109 -201.5l-131 -614h-260l135 637q14 61 14 100q0 74 -39 109t-128 35zM705 -123h260l-47 -225h-261z" />
    <glyph glyph-name="uni1E44" unicode="&#x1e44;" horiz-adv-x="1591" 
d="M362 1434h277l295 -625q120 -262 184 -430h8q43 251 86 450l127 605h273l-303 -1434h-275l-299 625q-134 274 -186 430h-8q-21 -175 -82 -451l-127 -604h-273zM932 1802h260l-47 -225h-260z" />
    <glyph glyph-name="uni1E45" unicode="&#x1e45;" horiz-adv-x="1259" 
d="M481 932q58 74 144 119t190 45q170 0 264.5 -89.5t94.5 -246.5q0 -51 -17 -131l-133 -629h-260l133 629q12 62 12 92q0 162 -178 162q-119 0 -207 -81.5t-118 -226.5l-123 -575h-260l227 1065h260zM700 1434h261l-48 -226h-260z" />
    <glyph glyph-name="uni1E46" unicode="&#x1e46;" horiz-adv-x="1591" 
d="M362 1434h277l295 -625q120 -262 184 -430h8q43 251 86 450l127 605h273l-303 -1434h-275l-299 625q-134 274 -186 430h-8q-21 -175 -82 -451l-127 -604h-273zM555 -123h260l-47 -225h-260z" />
    <glyph glyph-name="uni1E47" unicode="&#x1e47;" horiz-adv-x="1259" 
d="M481 932q58 74 144 119t190 45q170 0 264.5 -89.5t94.5 -246.5q0 -51 -17 -131l-133 -629h-260l133 629q12 62 12 92q0 162 -178 162q-119 0 -207 -81.5t-118 -226.5l-123 -575h-260l227 1065h260zM371 -123h260l-47 -225h-260z" />
    <glyph glyph-name="uni1E48" unicode="&#x1e48;" horiz-adv-x="1591" 
d="M362 1434h277l295 -625q120 -262 184 -430h8q43 251 86 450l127 605h273l-303 -1434h-275l-299 625q-134 274 -186 430h-8q-21 -175 -82 -451l-127 -604h-273zM334 -145h717l-39 -185h-717z" />
    <glyph glyph-name="uni1E49" unicode="&#x1e49;" horiz-adv-x="1259" 
d="M481 932q58 74 144 119t190 45q170 0 264.5 -89.5t94.5 -246.5q0 -51 -17 -131l-133 -629h-260l133 629q12 62 12 92q0 162 -178 162q-119 0 -207 -81.5t-118 -226.5l-123 -575h-260l227 1065h260zM150 -145h716l-39 -185h-716z" />
    <glyph glyph-name="uni1E56" unicode="&#x1e56;" horiz-adv-x="1435" 
d="M362 1434h719q187 0 298.5 -104.5t111.5 -264.5q0 -220 -153 -356t-400 -136h-485l-123 -573h-273zM969 799q108 0 182 70t74 175q0 74 -45 119t-129 45h-465l-86 -409h469zM860 1802h260l-47 -225h-260z" />
    <glyph glyph-name="uni1E57" unicode="&#x1e57;" horiz-adv-x="1298" 
d="M750 891q-82 0 -155 -41.5t-122 -107.5t-77.5 -148t-28.5 -164q0 -117 62 -186.5t167 -69.5q87 0 160.5 42t120.5 110t73.5 151t26.5 168q0 118 -58.5 182t-168.5 64zM489 969q137 127 322 127q128 0 226 -63.5t148 -165.5t50 -222q0 -100 -26 -197t-78 -183.5
t-123.5 -152.5t-170 -104.5t-210.5 -38.5q-116 0 -199.5 45t-118.5 111l-104 -494h-260l305 1434h260zM731 1434h260l-47 -226h-260z" />
    <glyph glyph-name="uni1E5A" unicode="&#x1e5a;" horiz-adv-x="1468" 
d="M362 1434h719q187 0 298.5 -104.5t111.5 -264.5q0 -220 -153 -356t-400 -136h-82l451 -573h-324l-440 573h-90l-123 -573h-273zM969 799q108 0 182 70t74 175q0 74 -45 119t-129 45h-465l-86 -409h469zM530 -123h261l-48 -225h-260z" />
    <glyph glyph-name="uni1E5B" unicode="&#x1e5b;" horiz-adv-x="788" 
d="M694 860q-113 0 -183.5 -60.5t-98.5 -195.5l-129 -604h-260l227 1065h260l-27 -123q48 71 116.5 107t184.5 36h90l-49 -225h-131zM0 -123h260l-47 -225h-260z" />
    <glyph glyph-name="uni1E5C" unicode="&#x1e5c;" horiz-adv-x="1468" 
d="M362 1434h719q187 0 298.5 -104.5t111.5 -264.5q0 -220 -153 -356t-400 -136h-82l451 -573h-324l-440 573h-90l-123 -573h-273zM969 799q108 0 182 70t74 175q0 74 -45 119t-129 45h-465l-86 -409h469zM530 -123h261l-48 -225h-260zM625 1782h716l-38 -185h-717z" />
    <glyph glyph-name="uni1E5D" unicode="&#x1e5d;" horiz-adv-x="788" 
d="M694 860q-113 0 -183.5 -60.5t-98.5 -195.5l-129 -604h-260l227 1065h260l-27 -123q48 71 116.5 107t184.5 36h90l-49 -225h-131zM0 -123h260l-47 -225h-260zM270 1413h717l-39 -184h-717z" />
    <glyph glyph-name="uni1E5E" unicode="&#x1e5e;" horiz-adv-x="1468" 
d="M362 1434h719q187 0 298.5 -104.5t111.5 -264.5q0 -220 -153 -356t-400 -136h-82l451 -573h-324l-440 573h-90l-123 -573h-273zM969 799q108 0 182 70t74 175q0 74 -45 119t-129 45h-465l-86 -409h469zM309 -145h717l-39 -185h-717z" />
    <glyph glyph-name="uni1E5F" unicode="&#x1e5f;" horiz-adv-x="788" 
d="M694 860q-113 0 -183.5 -60.5t-98.5 -195.5l-129 -604h-260l227 1065h260l-27 -123q48 71 116.5 107t184.5 36h90l-49 -225h-131zM-221 -145h717l-39 -185h-717z" />
    <glyph glyph-name="uni1E60" unicode="&#x1e60;" horiz-adv-x="1351" 
d="M1122 1065q0 103 -82 149t-217 46q-89 0 -163 -18t-127.5 -66t-53.5 -121q0 -86 57 -133t181 -68l119 -20q407 -70 407 -398q0 -119 -49.5 -210t-137.5 -146.5t-201 -83t-247 -27.5q-85 0 -164 13t-156.5 44.5t-134.5 79t-92.5 123t-35.5 170.5h256q0 -84 45 -135.5
t116.5 -70.5t175.5 -19q65 0 125.5 11.5t115 35.5t87.5 69t33 105q0 90 -58 133t-186 64l-119 20q-187 32 -292 140.5t-105 271.5q0 110 51 196.5t138 138.5t195.5 78.5t230.5 26.5q88 0 166.5 -14t148 -45t119.5 -76.5t79 -113t29 -150.5h-254zM768 1802h260l-47 -225h-260
z" />
    <glyph glyph-name="uni1E61" unicode="&#x1e61;" horiz-adv-x="1099" 
d="M256 307q0 -80 50.5 -118.5t164.5 -38.5q65 0 118.5 14.5t91.5 49.5t38 87q0 55 -38 77t-124 36l-70 10q-150 21 -241.5 105t-91.5 219q0 91 41.5 160t111.5 109t152.5 59.5t175.5 19.5q126 0 226 -34t162 -107t62 -177h-256q0 137 -204 137q-38 0 -72 -5.5t-69 -19.5
t-55.5 -42.5t-20.5 -69.5q0 -51 35.5 -77.5t115.5 -38.5l70 -11q77 -11 136.5 -32t108 -57t74 -92.5t25.5 -131.5q0 -96 -42 -169t-114 -115.5t-159 -63.5t-187 -21q-94 0 -174 17.5t-149 55t-108.5 105.5t-39.5 160h256zM567 1434h260l-47 -226h-260z" />
    <glyph glyph-name="uni1E62" unicode="&#x1e62;" horiz-adv-x="1351" 
d="M1122 1065q0 103 -82 149t-217 46q-89 0 -163 -18t-127.5 -66t-53.5 -121q0 -86 57 -133t181 -68l119 -20q407 -70 407 -398q0 -119 -49.5 -210t-137.5 -146.5t-201 -83t-247 -27.5q-85 0 -164 13t-156.5 44.5t-134.5 79t-92.5 123t-35.5 170.5h256q0 -84 45 -135.5
t116.5 -70.5t175.5 -19q65 0 125.5 11.5t115 35.5t87.5 69t33 105q0 90 -58 133t-186 64l-119 20q-187 32 -292 140.5t-105 271.5q0 110 51 196.5t138 138.5t195.5 78.5t230.5 26.5q88 0 166.5 -14t148 -45t119.5 -76.5t79 -113t29 -150.5h-254zM457 -123h260l-47 -225h-260
z" />
    <glyph glyph-name="uni1E63" unicode="&#x1e63;" horiz-adv-x="1099" 
d="M256 307q0 -80 50.5 -118.5t164.5 -38.5q65 0 118.5 14.5t91.5 49.5t38 87q0 55 -38 77t-124 36l-70 10q-150 21 -241.5 105t-91.5 219q0 91 41.5 160t111.5 109t152.5 59.5t175.5 19.5q126 0 226 -34t162 -107t62 -177h-256q0 137 -204 137q-38 0 -72 -5.5t-69 -19.5
t-55.5 -42.5t-20.5 -69.5q0 -51 35.5 -77.5t115.5 -38.5l70 -11q77 -11 136.5 -32t108 -57t74 -92.5t25.5 -131.5q0 -96 -42 -169t-114 -115.5t-159 -63.5t-187 -21q-94 0 -174 17.5t-149 55t-108.5 105.5t-39.5 160h256zM319 -123h261l-48 -225h-260z" />
    <glyph glyph-name="uni1E6A" unicode="&#x1e6a;" horiz-adv-x="1251" 
d="M635 1208h-469l47 226h1208l-47 -226h-467l-256 -1208h-272zM768 1802h260l-47 -225h-260z" />
    <glyph glyph-name="uni1E6B" unicode="&#x1e6b;" horiz-adv-x="858" 
d="M479 287q-6 -24 -6 -39q0 -28 16 -38.5t54 -10.5h194l-43 -199h-223q-262 0 -262 205q0 30 12 92l121 563h-256l43 205h256l53 246h260l-53 -246h277l-43 -205h-277zM520 1802h260l-47 -225h-260z" />
    <glyph glyph-name="uni1E6C" unicode="&#x1e6c;" horiz-adv-x="1251" 
d="M635 1208h-469l47 226h1208l-47 -226h-467l-256 -1208h-272zM360 -123h261l-48 -225h-260z" />
    <glyph glyph-name="uni1E6D" unicode="&#x1e6d;" horiz-adv-x="858" 
d="M479 287q-6 -24 -6 -39q0 -28 16 -38.5t54 -10.5h194l-43 -199h-223q-262 0 -262 205q0 30 12 92l121 563h-256l43 205h256l53 246h260l-53 -246h277l-43 -205h-277zM248 -123h260l-47 -225h-260z" />
    <glyph glyph-name="uni1E6E" unicode="&#x1e6e;" horiz-adv-x="1251" 
d="M635 1208h-469l47 226h1208l-47 -226h-467l-256 -1208h-272zM139 -145h717l-39 -185h-717z" />
    <glyph glyph-name="uni1E6F" unicode="&#x1e6f;" horiz-adv-x="858" 
d="M479 287q-6 -24 -6 -39q0 -28 16 -38.5t54 -10.5h194l-43 -199h-223q-262 0 -262 205q0 30 12 92l121 563h-256l43 205h256l53 246h260l-53 -246h277l-43 -205h-277zM27 -145h716l-38 -185h-717z" />
    <glyph glyph-name="uni1E7C" unicode="&#x1e7c;" horiz-adv-x="1341" 
d="M203 1434h264l102 -732q26 -156 37 -405h8q135 284 203 403l414 734h293l-838 -1434h-256zM479 1567q27 124 101 195t182 71q48 0 95 -19t77.5 -42.5t63 -42.5t55.5 -19q62 0 77 82h175q-27 -124 -100 -195t-181 -71q-48 0 -95 19t-77.5 42.5t-63 42.5t-55.5 19
q-65 0 -80 -82h-174z" />
    <glyph glyph-name="uni1E7D" unicode="&#x1e7d;" horiz-adv-x="1107" 
d="M131 1065h256l62 -410q19 -130 32 -379h8q120 251 195 379l236 410h284l-637 -1065h-254zM276 1198q27 124 101 195t182 71q48 0 95 -19t77.5 -42.5t63 -42.5t55.5 -19q63 0 78 82h174q-27 -124 -100 -195t-181 -71q-48 0 -95 19t-77.5 42.5t-63 42.5t-55.5 19
q-64 0 -79 -82h-175z" />
    <glyph glyph-name="Wgrave" unicode="&#x1e80;" horiz-adv-x="1968" 
d="M213 1434h256l39 -680q4 -42 4 -181q0 -81 -4 -225h8q89 224 180 408l332 678h270l45 -678q9 -123 9 -230q0 -64 -4 -178h8q112 280 172 406l327 680h283l-715 -1434h-266l-47 705q-6 102 -6 217q0 108 2 163h-8q-102 -248 -168 -380l-346 -705h-267zM1395 1556h-226
l-192 246h307z" />
    <glyph glyph-name="wgrave" unicode="&#x1e81;" horiz-adv-x="1613" 
d="M856 778q-83 -204 -172 -377l-209 -401h-246l-90 1065h250l17 -418q2 -39 2 -110q0 -160 -9 -271h9q93 237 165 379l215 420h246l37 -420q8 -101 8 -235q0 -29 -1 -77t-1 -67h8q97 260 152 381l193 418h274l-545 -1065h-244l-38 401q-13 114 -13 377h-8zM1141 1188h-226
l-192 246h307z" />
    <glyph glyph-name="Wacute" unicode="&#x1e82;" horiz-adv-x="1968" 
d="M213 1434h256l39 -680q4 -42 4 -181q0 -81 -4 -225h8q89 224 180 408l332 678h270l45 -678q9 -123 9 -230q0 -64 -4 -178h8q112 280 172 406l327 680h283l-715 -1434h-266l-47 705q-6 102 -6 217q0 108 2 163h-8q-102 -248 -168 -380l-346 -705h-267zM1202 1802h348
l-299 -246h-266z" />
    <glyph glyph-name="wacute" unicode="&#x1e83;" horiz-adv-x="1613" 
d="M856 778q-83 -204 -172 -377l-209 -401h-246l-90 1065h250l17 -418q2 -39 2 -110q0 -160 -9 -271h9q93 237 165 379l215 420h246l37 -420q8 -101 8 -235q0 -29 -1 -77t-1 -67h8q97 260 152 381l193 418h274l-545 -1065h-244l-38 401q-13 114 -13 377h-8zM948 1434h348
l-299 -246h-266z" />
    <glyph glyph-name="Wdieresis" unicode="&#x1e84;" horiz-adv-x="1968" 
d="M213 1434h256l39 -680q4 -42 4 -181q0 -81 -4 -225h8q89 224 180 408l332 678h270l45 -678q9 -123 9 -230q0 -64 -4 -178h8q112 280 172 406l327 680h283l-715 -1434h-266l-47 705q-6 102 -6 217q0 108 2 163h-8q-102 -248 -168 -380l-346 -705h-267zM897 1802h260
l-47 -225h-260zM1346 1802h260l-47 -225h-261z" />
    <glyph glyph-name="wdieresis" unicode="&#x1e85;" horiz-adv-x="1613" 
d="M856 778q-83 -204 -172 -377l-209 -401h-246l-90 1065h250l17 -418q2 -39 2 -110q0 -160 -9 -271h9q93 237 165 379l215 420h246l37 -420q8 -101 8 -235q0 -29 -1 -77t-1 -67h8q97 260 152 381l193 418h274l-545 -1065h-244l-38 401q-13 114 -13 377h-8zM643 1434h260
l-47 -226h-260zM1092 1434h260l-47 -226h-261z" />
    <glyph glyph-name="uni1E8A" unicode="&#x1e8a;" horiz-adv-x="1337" 
d="M571 768l-333 666h288l226 -465l407 465h328l-623 -693l371 -741h-289l-262 539l-473 -539h-328zM811 1802h260l-47 -225h-260z" />
    <glyph glyph-name="uni1E8B" unicode="&#x1e8b;" horiz-adv-x="1083" 
d="M518 354l-313 -354h-311l516 565l-258 500h272l154 -313l276 313h309l-479 -524l283 -541h-275zM604 1434h260l-47 -226h-260z" />
    <glyph glyph-name="uni1E92" unicode="&#x1e92;" horiz-adv-x="1265" 
d="M10 225l951 983h-721l47 226h1075l-47 -226l-950 -983h772l-47 -225h-1127zM381 -123h260l-47 -225h-260z" />
    <glyph glyph-name="uni1E93" unicode="&#x1e93;" horiz-adv-x="1083" 
d="M946 205l-43 -205h-942l43 205l711 655h-551l45 205h901l-45 -205l-711 -655h592zM281 -123h260l-47 -225h-261z" />
    <glyph glyph-name="uni1E97" unicode="&#x1e97;" horiz-adv-x="858" 
d="M479 287q-6 -24 -6 -39q0 -28 16 -38.5t54 -10.5h194l-43 -199h-223q-262 0 -262 205q0 30 12 92l121 563h-256l43 205h256l53 246h260l-53 -246h277l-43 -205h-277zM297 1802h260l-47 -225h-260zM745 1802h261l-48 -225h-260z" />
    <glyph glyph-name="uni1E9E" unicode="&#x1e9e;" horiz-adv-x="1468" 
d="M500 0l47 225h287q130 0 207 78t77 191q0 76 -48.5 120.5t-133.5 44.5h-238l52 242l372 307h-542l-254 -1208h-267l303 1434h1117l-52 -246l-393 -318q171 -4 261.5 -101t90.5 -247q0 -108 -38.5 -202t-111.5 -165.5t-187 -113t-256 -41.5h-293z" />
    <glyph glyph-name="uni1EA0" unicode="&#x1ea0;" horiz-adv-x="1429" 
d="M-115 0l889 1434h266l279 -1434h-264l-58 317h-624l-193 -317h-295zM954 543l-43 239q-25 138 -43 375h-8q-81 -172 -205 -375l-145 -239h444zM451 -123h260l-47 -225h-261z" />
    <glyph glyph-name="uni1EA1" unicode="&#x1ea1;" horiz-adv-x="1198" 
d="M174 778q112 318 512 318q92 0 168 -18.5t135.5 -55.5t93 -99t33.5 -143q0 -51 -14 -112l-141 -668h-259l25 113q-116 -144 -350 -144q-148 0 -252.5 85t-104.5 222q0 180 110.5 270t336.5 109l381 33l4 19q8 31 8 63q0 65 -43.5 98t-140.5 33q-185 0 -232 -123h-270z
M428 164q135 0 240 78t133 219l8 39l-342 -31q-93 -8 -143 -54.5t-50 -127.5q0 -61 40.5 -92t113.5 -31zM381 -123h260l-47 -225h-260z" />
    <glyph glyph-name="uni1EB8" unicode="&#x1eb8;" horiz-adv-x="1325" 
d="M362 1434h1045l-47 -226h-772l-76 -358h731l-49 -225h-731l-84 -400h772l-47 -225h-1045zM430 -123h260l-47 -225h-260z" />
    <glyph glyph-name="uni1EB9" unicode="&#x1eb9;" horiz-adv-x="1232" 
d="M1106 307q-89 -163 -231 -250.5t-328 -87.5q-148 0 -258.5 65.5t-165.5 171t-55 234.5q0 177 80.5 326.5t230 239.5t336.5 90q133 0 235.5 -45.5t163 -140t60.5 -226.5q0 -104 -31 -244h-819q-2 -14 -2 -43q0 -100 58.5 -166.5t178.5 -66.5q86 0 144.5 34t101.5 109h301z
M705 901q-116 0 -208.5 -77t-131.5 -189h553q4 32 4 47q0 96 -56.5 157.5t-160.5 61.5zM401 -123h261l-48 -225h-260z" />
    <glyph glyph-name="uni1EBC" unicode="&#x1ebc;" horiz-adv-x="1325" 
d="M362 1434h1045l-47 -226h-772l-76 -358h731l-49 -225h-731l-84 -400h772l-47 -225h-1045zM500 1567q27 124 100.5 195t181.5 71q48 0 95 -19t77.5 -42.5t63 -42.5t55.5 -19q63 0 78 82h174q-27 -124 -100 -195t-181 -71q-48 0 -95 19t-77 42.5t-62.5 42.5t-55.5 19
q-65 0 -80 -82h-174z" />
    <glyph glyph-name="uni1EBD" unicode="&#x1ebd;" horiz-adv-x="1232" 
d="M1106 307q-89 -163 -231 -250.5t-328 -87.5q-148 0 -258.5 65.5t-165.5 171t-55 234.5q0 177 80.5 326.5t230 239.5t336.5 90q133 0 235.5 -45.5t163 -140t60.5 -226.5q0 -104 -31 -244h-819q-2 -14 -2 -43q0 -100 58.5 -166.5t178.5 -66.5q86 0 144.5 34t101.5 109h301z
M705 901q-116 0 -208.5 -77t-131.5 -189h553q4 32 4 47q0 96 -56.5 157.5t-160.5 61.5zM324 1198q27 124 100.5 195t181.5 71q48 0 95 -19t77.5 -42.5t63 -42.5t55.5 -19q63 0 78 82h174q-27 -124 -100 -195t-181 -71q-48 0 -95 19t-77 42.5t-62.5 42.5t-55.5 19
q-65 0 -80 -82h-174z" />
    <glyph glyph-name="uni1ECA" unicode="&#x1eca;" horiz-adv-x="614" 
d="M362 1434h273l-303 -1434h-273zM43 -123h260l-47 -225h-260z" />
    <glyph glyph-name="uni1ECB" unicode="&#x1ecb;" horiz-adv-x="532" 
d="M250 1065h260l-227 -1065h-260zM328 1434h260l-47 -226h-260zM0 -123h260l-47 -225h-260z" />
    <glyph glyph-name="uni1ECC" unicode="&#x1ecc;" horiz-adv-x="1624" 
d="M770 195q116 0 220 53t175.5 140.5t113.5 203t42 237.5q0 190 -97 300t-290 110q-116 0 -220 -53.5t-175.5 -141t-113.5 -203t-42 -237.5q0 -191 96.5 -300t290.5 -109zM770 -31q-317 0 -486 172t-169 463q0 127 37 252t109 234t170 193t228 132.5t275 48.5
q317 0 486 -172t169 -463q0 -127 -37 -252t-109 -234t-170 -193t-228 -132.5t-275 -48.5zM631 -123h260l-47 -225h-260z" />
    <glyph glyph-name="uni1ECD" unicode="&#x1ecd;" horiz-adv-x="1265" 
d="M322 451q0 -130 60.5 -203.5t188.5 -73.5q106 0 193 64t133.5 164.5t46.5 211.5q0 129 -61 203t-189 74q-107 0 -194 -64t-132.5 -164t-45.5 -212zM68 451q0 120 44.5 235.5t123.5 206.5t198.5 147t259.5 56q128 0 226 -37.5t158 -104t90 -152.5t30 -188
q0 -96 -28 -189.5t-82.5 -175.5t-129 -144.5t-175 -99t-212.5 -36.5q-128 0 -226 37.5t-157.5 104t-89.5 152.5t-30 188zM420 -123h260l-47 -225h-260z" />
    <glyph glyph-name="uni1EE4" unicode="&#x1ee4;" horiz-adv-x="1503" 
d="M621 1434l-195 -922q-12 -52 -12 -96q0 -108 63 -164.5t182 -56.5q156 0 270 92t146 245l191 902h272l-195 -922q-25 -115 -85 -213.5t-148 -172t-207 -115.5t-254 -42q-239 0 -372.5 123.5t-133.5 317.5q0 45 15 122l190 902h273zM504 -123h260l-47 -225h-260z" />
    <glyph glyph-name="uni1EE5" unicode="&#x1ee5;" horiz-adv-x="1251" 
d="M764 106q-105 -137 -315 -137q-170 0 -265.5 91.5t-95.5 248.5q0 56 16 131l134 625h260l-138 -645q-12 -50 -12 -92q0 -144 176 -144q120 0 205 76t115 221l125 584h260l-228 -1065h-260zM391 -123h260l-47 -225h-260z" />
    <glyph glyph-name="Ygrave" unicode="&#x1ef2;" horiz-adv-x="1257" 
d="M502 571l-297 863h268l193 -635l462 635h306l-660 -863l-121 -571h-272zM1040 1556h-225l-192 246h307z" />
    <glyph glyph-name="ygrave" unicode="&#x1ef3;" horiz-adv-x="1081" 
d="M872 1188h-225l-192 246h307zM307 0l-172 1065h256l60 -410q19 -133 24 -358h8q117 251 179 358l233 410h285l-693 -1186q-52 -91 -102 -141t-134 -78.5t-210 -28.5h-125l43 199h102q84 0 133 28.5t97 112.5z" />
    <glyph glyph-name="uni1EF8" unicode="&#x1ef8;" horiz-adv-x="1257" 
d="M502 571l-297 863h268l193 -635l462 635h306l-660 -863l-121 -571h-272zM438 1567q27 124 101 195t182 71q48 0 95 -19t77.5 -42.5t63 -42.5t55.5 -19q63 0 78 82h174q-27 -124 -100 -195t-181 -71q-48 0 -95 19t-77.5 42.5t-63 42.5t-55.5 19q-65 0 -80 -82h-174z" />
    <glyph glyph-name="uni1EF9" unicode="&#x1ef9;" horiz-adv-x="1081" 
d="M307 0l-172 1065h256l60 -410q19 -133 24 -358h8q117 251 179 358l233 410h285l-693 -1186q-52 -91 -102 -141t-134 -78.5t-210 -28.5h-125l43 199h102q84 0 133 28.5t97 112.5zM266 1198q27 124 101 195t182 71q48 0 95 -19t77.5 -42.5t63 -42.5t55.5 -19q63 0 78 82
h174q-27 -124 -100 -195t-181 -71q-48 0 -95 19t-77.5 42.5t-63 42.5t-55.5 19q-65 0 -80 -82h-174z" />
    <glyph glyph-name="uni2000" unicode="&#x2000;" horiz-adv-x="1024" 
 />
    <glyph glyph-name="uni2001" unicode="&#x2001;" horiz-adv-x="2048" 
 />
    <glyph glyph-name="uni2002" unicode="&#x2002;" horiz-adv-x="1024" 
 />
    <glyph glyph-name="uni2003" unicode="&#x2003;" horiz-adv-x="2048" 
 />
    <glyph glyph-name="uni2004" unicode="&#x2004;" horiz-adv-x="681" 
 />
    <glyph glyph-name="uni2005" unicode="&#x2005;" horiz-adv-x="512" 
 />
    <glyph glyph-name="uni2006" unicode="&#x2006;" horiz-adv-x="342" 
 />
    <glyph glyph-name="uni2007" unicode="&#x2007;" horiz-adv-x="1339" 
 />
    <glyph glyph-name="uni2008" unicode="&#x2008;" horiz-adv-x="552" 
 />
    <glyph glyph-name="uni2009" unicode="&#x2009;" horiz-adv-x="256" 
 />
    <glyph glyph-name="uni200A" unicode="&#x200a;" horiz-adv-x="86" 
 />
    <glyph glyph-name="uni200B" unicode="&#x200b;" horiz-adv-x="0" 
 />
    <glyph glyph-name="figuredash" unicode="&#x2012;" horiz-adv-x="1306" 
d="M143 821h1065l-43 -205h-1065z" />
    <glyph glyph-name="endash" unicode="&#x2013;" horiz-adv-x="1306" 
d="M143 635h1065l-43 -205h-1065z" />
    <glyph glyph-name="emdash" unicode="&#x2014;" horiz-adv-x="2371" 
d="M143 635h2130l-43 -205h-2130z" />
    <glyph glyph-name="uni2015" unicode="&#x2015;" horiz-adv-x="2371" 
d="M143 635h2130l-43 -205h-2130z" />
    <glyph glyph-name="quoteleft" unicode="&#x2018;" horiz-adv-x="538" 
d="M479 819h-313l65 307l250 308h129l-188 -308h123z" />
    <glyph glyph-name="quoteright" unicode="&#x2019;" horiz-adv-x="518" 
d="M309 1434h314l-66 -308l-250 -307h-129l189 307h-123z" />
    <glyph glyph-name="quotesinglbase" unicode="&#x201a;" horiz-adv-x="552" 
d="M84 307h313l-65 -307l-250 -307h-129l188 307h-123z" />
    <glyph glyph-name="quotereversed" unicode="&#x201b;" horiz-adv-x="518" 
d="M475 1126h-123l189 -307h-129l-250 307l-66 308h314z" />
    <glyph glyph-name="quotedblleft" unicode="&#x201c;" horiz-adv-x="989" 
d="M479 819h-313l65 307l250 308h129l-188 -308h123zM930 819h-314l66 307l250 308h129l-189 -308h123z" />
    <glyph glyph-name="quotedblright" unicode="&#x201d;" horiz-adv-x="968" 
d="M309 1434h314l-66 -308l-250 -307h-129l189 307h-123zM760 1434h313l-65 -308l-250 -307h-129l188 307h-123z" />
    <glyph glyph-name="quotedblbase" unicode="&#x201e;" horiz-adv-x="1003" 
d="M84 307h313l-65 -307l-250 -307h-129l188 307h-123zM535 307h313l-66 -307l-250 -307h-129l189 307h-123z" />
    <glyph glyph-name="uni201F" unicode="&#x201f;" horiz-adv-x="968" 
d="M967 1126h-123l188 -307h-129l-250 307l-65 308h313zM516 1126h-123l189 -307h-129l-250 307l-66 308h314z" />
    <glyph glyph-name="dagger" unicode="&#x2020;" horiz-adv-x="1269" 
d="M313 -369l262 1229h-413l43 205h413l80 369h260l-79 -369h411l-43 -205h-411l-263 -1229h-260z" />
    <glyph glyph-name="daggerdbl" unicode="&#x2021;" horiz-adv-x="1269" 
d="M315 -369l78 369h-413l43 205h413l139 655h-413l45 205h414l77 369h260l-77 -369h411l-45 -205h-411l-140 -655h412l-43 -205h-412l-82 -369h-256z" />
    <glyph glyph-name="bullet" unicode="&#x2022;" horiz-adv-x="974" 
d="M129 532q0 149 104.5 254t253.5 105t254 -105t105 -254t-105 -253.5t-254 -104.5t-253.5 104.5t-104.5 253.5z" />
    <glyph glyph-name="ellipsis" unicode="&#x2026;" horiz-adv-x="1572" 
d="M84 307h313l-65 -307h-314zM594 307h313l-65 -307h-314zM1104 307h313l-65 -307h-314z" />
    <glyph glyph-name="perthousand" unicode="&#x2030;" horiz-adv-x="2859" 
d="M473 727q61 0 108 39.5t73 102.5t38.5 131.5t12.5 136.5q0 163 -130 163q-61 0 -108 -39t-72.5 -102.5t-38 -131t-12.5 -136.5q0 -164 129 -164zM463 573q-135 0 -220 81.5t-85 236.5q0 272 120.5 417.5t307.5 145.5q136 0 220.5 -81t84.5 -236q0 -138 -33.5 -247
t-92 -177.5t-135.5 -104t-167 -35.5zM1481 1434h217l-1092 -1434h-217zM1520 133q61 0 108 39.5t72.5 102.5t38 131t12.5 137q0 164 -129 164q-61 0 -108 -39.5t-72.5 -102.5t-38 -131t-12.5 -137q0 -164 129 -164zM1509 -20q-136 0 -220.5 81t-84.5 236q0 272 120.5 417.5
t307.5 145.5q136 0 220.5 -81t84.5 -236q0 -272 -120.5 -417.5t-307.5 -145.5zM2363 133q61 0 108 39.5t73 102.5t38.5 131.5t12.5 136.5q0 164 -129 164q-61 0 -108 -39.5t-73 -102.5t-38.5 -131.5t-12.5 -136.5q0 -164 129 -164zM2353 -20q-136 0 -220.5 81t-84.5 236
q0 272 120.5 417.5t307.5 145.5q136 0 220.5 -81t84.5 -236q0 -272 -120.5 -417.5t-307.5 -145.5z" />
    <glyph glyph-name="minute" unicode="&#x2032;" horiz-adv-x="481" 
d="M317 1434h263l-86 -414l-320 -262z" />
    <glyph glyph-name="second" unicode="&#x2033;" horiz-adv-x="880" 
d="M317 1434h263l-86 -414l-320 -262zM717 1434h262l-86 -414l-320 -262z" />
    <glyph glyph-name="guilsinglleft" unicode="&#x2039;" horiz-adv-x="815" 
d="M463 881h317l-442 -359l295 -338h-287l-295 348z" />
    <glyph glyph-name="guilsinglright" unicode="&#x203a;" horiz-adv-x="815" 
d="M352 184h-317l442 359l-295 338h287l295 -349z" />
    <glyph glyph-name="uni203D" unicode="&#x203d;" horiz-adv-x="1073" 
d="M182 1096q42 164 177.5 266t330.5 102q95 0 175 -29.5t132 -79t80.5 -112.5t28.5 -131q0 -85 -24.5 -150.5t-65 -106t-90 -73t-102 -61.5t-98.5 -60.5t-81.5 -79.5t-48.5 -110h-231q0 2 4 18l123 576h231l-43 -201q8 7 34.5 27t44 36.5t38.5 42.5t32 61t11 77
q0 61 -41 101t-123 40q-87 0 -144.5 -43t-82.5 -110h-267zM289 307h313l-65 -307h-314z" />
    <glyph glyph-name="fraction" unicode="&#x2044;" horiz-adv-x="327" 
d="M637 1434h217l-1092 -1434h-217z" />
    <glyph glyph-name="uni2070" unicode="&#x2070;" horiz-adv-x="841" 
d="M516 932q61 0 108 39t73 102.5t38.5 131.5t12.5 136q0 78 -32 121t-98 43q-61 0 -108 -39t-72.5 -102.5t-38 -131t-12.5 -136.5q0 -164 129 -164zM506 778q-135 0 -220 81.5t-85 236.5q0 272 120.5 417.5t307.5 145.5q135 0 220 -81.5t85 -236.5q0 -272 -120.5 -417.5
t-307.5 -145.5z" />
    <glyph glyph-name="uni2074" unicode="&#x2074;" horiz-adv-x="782" 
d="M651 1638h209l-112 -532h118l-32 -154h-119l-33 -153h-190l32 153h-397l33 154zM557 1106l29 133q15 70 61 205h-8q-33 -51 -58 -82.5t-81 -91.5l-150 -164h207z" />
    <glyph glyph-name="uni2075" unicode="&#x2075;" horiz-adv-x="743" 
d="M203 1167l133 471h536l-32 -153h-357l-41 -146q56 43 129 43q118 0 180 -71.5t62 -177.5q0 -158 -98 -256.5t-271 -98.5q-141 0 -213.5 67.5t-72.5 166.5v12h186v-10q0 -38 27 -62t84 -24q75 0 123.5 56t48.5 144q0 56 -28.5 85.5t-78.5 29.5q-83 0 -129 -76h-188z" />
    <glyph glyph-name="uni2076" unicode="&#x2076;" horiz-adv-x="800" 
d="M643 1659q122 0 190 -51t76 -144h-188q-4 11 -7 17t-12 17t-26.5 16.5t-42.5 5.5q-75 0 -126 -55.5t-71 -147.5q65 59 176 59q124 0 194.5 -76.5t70.5 -177.5q0 -149 -110 -246.5t-271 -97.5q-144 0 -218.5 89.5t-74.5 242.5q0 115 25.5 208.5t68 156t100 105t119 61
t127.5 18.5zM506 922q76 0 129 60.5t53 131.5q0 54 -28.5 89.5t-86.5 35.5t-101 -31.5t-62 -75t-19 -90.5q0 -53 29 -86.5t86 -33.5z" />
    <glyph glyph-name="uni2077" unicode="&#x2077;" horiz-adv-x="665" 
d="M340 799h-205l494 686h-389l32 153h594l-32 -153z" />
    <glyph glyph-name="uni2078" unicode="&#x2078;" horiz-adv-x="782" 
d="M453 1389q0 -38 25.5 -63.5t76.5 -25.5q68 0 107.5 38t39.5 89q0 38 -25.5 63.5t-76.5 25.5q-66 0 -106.5 -38.5t-40.5 -88.5zM647 1065q0 44 -30.5 73t-90.5 29q-77 0 -124.5 -44t-47.5 -99q0 -44 30.5 -73t90.5 -29q77 0 124.5 44t47.5 99zM735 1239q99 -45 99 -170
q0 -130 -105.5 -210.5t-263.5 -80.5q-132 0 -215.5 69.5t-83.5 168.5q0 80 48 142t140 97q-39 19 -62.5 63t-23.5 85q0 108 92 182t250 74q132 0 207.5 -63t75.5 -158q0 -60 -43 -115t-115 -84z" />
    <glyph glyph-name="uni2079" unicode="&#x2079;" horiz-adv-x="800" 
d="M451 778q-118 0 -190.5 52t-76.5 143h187q5 -55 88 -55q75 0 125.5 55t70.5 147q-62 -59 -176 -59q-118 0 -190 77.5t-72 176.5q0 149 109.5 246.5t269.5 97.5q146 0 220.5 -86t74.5 -238q0 -145 -35.5 -255t-98 -174.5t-139.5 -96t-167 -31.5zM586 1516
q-75 0 -127.5 -61t-52.5 -132q0 -55 27 -90t85 -35t101 31.5t62 75t19 90.5q0 53 -28.5 87t-85.5 34z" />
    <glyph glyph-name="uni2080" unicode="&#x2080;" horiz-adv-x="841" 
d="M305 -70q61 0 108 39.5t73 102.5t38.5 131.5t12.5 136.5q0 164 -129 164q-61 0 -108 -39.5t-73 -102.5t-38.5 -131.5t-12.5 -136.5q0 -164 129 -164zM295 -223q-136 0 -220.5 81t-84.5 236q0 272 120.5 417.5t307.5 145.5q136 0 220.5 -81t84.5 -236
q0 -272 -120.5 -417.5t-307.5 -145.5z" />
    <glyph glyph-name="uni2081" unicode="&#x2081;" horiz-adv-x="557" 
d="M86 -203l100 469q9 42 37 146h-8q-31 -31 -113 -109l-133 -117l51 246l246 205h191l-181 -840h-190z" />
    <glyph glyph-name="uni2082" unicode="&#x2082;" horiz-adv-x="729" 
d="M39 422q34 107 106.5 171t206.5 64q135 0 209 -64.5t74 -160.5q0 -95 -49.5 -163.5t-149.5 -143.5l-233 -174h350l-33 -154h-614l33 154l380 297q73 57 100 94t27 80q0 82 -94 82t-121 -82h-192z" />
    <glyph glyph-name="uni2083" unicode="&#x2083;" horiz-adv-x="741" 
d="M119 23q0 -37 25.5 -65t86.5 -28q78 0 119 39t41 97q0 40 -26.5 65t-83.5 25h-72l31 143h71q62 0 98.5 37t36.5 84q0 35 -23.5 59.5t-68.5 24.5q-52 0 -80.5 -24t-37.5 -58h-197q24 105 109 170t219 65q126 0 198 -65t72 -160q0 -75 -46 -129t-112 -76q47 -19 73 -63.5
t26 -104.5q0 -131 -100 -206.5t-259 -75.5q-131 0 -208 65.5t-77 165.5v15h185z" />
    <glyph glyph-name="uni2084" unicode="&#x2084;" horiz-adv-x="782" 
d="M440 637h209l-112 -533h118l-32 -153h-119l-33 -154h-190l32 154h-397l33 153zM346 104l29 134q15 67 61 204h-8q-33 -51 -58 -82.5t-81 -91.5l-150 -164h207z" />
    <glyph glyph-name="uni2085" unicode="&#x2085;" horiz-adv-x="743" 
d="M-8 166l133 471h537l-33 -154h-357l-41 -145q56 43 129 43q118 0 180 -72t62 -178q0 -158 -98 -256t-271 -98q-141 0 -213.5 67t-72.5 166v13h186v-11q0 -38 27 -62t84 -24q75 0 123.5 56.5t48.5 144.5q0 56 -28.5 85.5t-78.5 29.5q-83 0 -129 -76h-188z" />
    <glyph glyph-name="uni2086" unicode="&#x2086;" horiz-adv-x="800" 
d="M432 657q122 0 190 -50.5t76 -143.5h-188q-5 15 -9.5 23.5t-25 20t-53.5 11.5q-75 0 -126 -55.5t-71 -147.5q66 60 176 60q124 0 194.5 -76.5t70.5 -177.5q0 -149 -110 -246.5t-271 -97.5q-144 0 -218.5 89.5t-74.5 242.5q0 115 25.5 208.5t68 155.5t100 104.5t119 61
t127.5 18.5zM295 -80q76 0 129 61t53 132q0 54 -28.5 89.5t-86.5 35.5t-101 -31.5t-62 -75t-19 -90.5q0 -53 29 -87t86 -34z" />
    <glyph glyph-name="uni2087" unicode="&#x2087;" horiz-adv-x="665" 
d="M127 -203h-205l494 686h-389l32 154h594l-32 -154z" />
    <glyph glyph-name="uni2088" unicode="&#x2088;" horiz-adv-x="782" 
d="M242 387q0 -38 25.5 -63t76.5 -25q68 0 108 38t40 89q0 38 -26 63t-77 25q-66 0 -106.5 -38.5t-40.5 -88.5zM436 63q0 44 -30.5 73.5t-90.5 29.5q-77 0 -124.5 -44t-47.5 -99q0 -44 30.5 -73.5t90.5 -29.5q77 0 124.5 44t47.5 99zM524 238q99 -45 99 -170
q0 -130 -105.5 -210.5t-263.5 -80.5q-132 0 -215.5 69t-83.5 168q0 80 48.5 142.5t139.5 97.5q-39 19 -62.5 62.5t-23.5 84.5q0 108 92 182t250 74q132 0 207.5 -63t75.5 -158q0 -60 -43 -114.5t-115 -83.5z" />
    <glyph glyph-name="uni2089" unicode="&#x2089;" horiz-adv-x="800" 
d="M240 -223q-118 0 -190.5 51.5t-76.5 142.5h187q5 -55 88 -55q75 0 125.5 55.5t70.5 147.5q-63 -60 -176 -60q-118 0 -190 77.5t-72 176.5q0 149 109.5 246.5t269.5 97.5q146 0 220.5 -85.5t74.5 -237.5q0 -145 -35.5 -255t-98 -174.5t-139.5 -96t-167 -31.5zM375 514
q-75 0 -127.5 -60.5t-52.5 -131.5q0 -55 27 -90t85 -35q86 0 134 61t48 135q0 53 -28.5 87t-85.5 34z" />
    <glyph glyph-name="colonmonetary" unicode="&#x20a1;" horiz-adv-x="1476" 
d="M578 -10q-88 17 -146 47l-100 -242h-203l147 352q-159 165 -159 457q0 117 30.5 232.5t91 219.5t144.5 187t197.5 139.5t242.5 73.5l76 182h203l-76 -178q87 -10 156 -30l86 208h202l-122 -292q126 -103 174 -281h-281l-4 14l-367 -874q161 35 244 194h291
q-78 -196 -238 -313t-395 -117l-72 -174h-202zM526 260q61 -42 142 -57l424 1011q-67 25 -158 25zM385 604q0 -86 18 -153l306 733q-148 -78 -236 -236t-88 -344z" />
    <glyph glyph-name="uni20A6" unicode="&#x20a6;" horiz-adv-x="1732" 
d="M338 985l96 449h277l211 -449h395l94 449h272l-96 -449h162l-43 -205h-162l-26 -127h159l-43 -204h-159l-95 -449h-274l-215 449h-393l-95 -449h-272l94 449h-159l43 204h159l27 127h-158l43 205h158zM1247 653q3 22 13.5 66.5t13.5 60.5h-254l57 -127h170zM565 780
q-9 -62 -24 -127h252l-60 127h-168zM1208 449h-45q10 -30 27 -70h8zM602 985h43l-24 70h-9z" />
    <glyph glyph-name="Euro" unicode="&#x20ac;" horiz-adv-x="1400" 
d="M506 440q17 -128 78 -192t159 -64q179 0 256 144h287q-79 -181 -223.5 -270t-333.5 -89q-199 0 -328 120.5t-153 350.5h-197l43 205h154q3 65 12 123h-139l43 205h147q44 126 115.5 222t160.5 154t189 86.5t209 28.5q91 0 172 -22t146.5 -64.5t105 -112.5t43.5 -159h-260
q-8 67 -65.5 105t-155.5 38q-122 0 -220.5 -72t-162.5 -204h545l-123 -205h-488q-12 -52 -18 -123h430l-123 -205h-305z" />
    <glyph glyph-name="uni20B2" unicode="&#x20b2;" horiz-adv-x="1552" 
d="M729 -31l-37 -174h-211l43 203q-197 57 -302 214.5t-105 391.5q0 119 31 235t93 220.5t147.5 187.5t201 139t246.5 72l38 180h211l-38 -180q382 -44 475 -393h-277q-61 150 -246 170l-223 -1040q152 5 261.5 96.5t152.5 261.5h-217l47 225h481l-166 -778h-211l11 133
q-55 -71 -164.5 -117.5t-229.5 -46.5h-12zM385 604q0 -283 188 -373l211 983q-120 -37 -212 -130.5t-139.5 -218.5t-47.5 -261z" />
    <glyph glyph-name="uni20B5" unicode="&#x20b5;" horiz-adv-x="1476" 
d="M1405 399q-78 -196 -238 -313t-395 -117h-22l-37 -174h-211l43 201q-212 56 -320 215t-108 393q0 121 32.5 239.5t96 224t151.5 188.5t206.5 137t252.5 67l39 178h211l-39 -182q368 -55 455 -391h-281q-52 143 -221 168l-223 -1038q213 11 317 204h291zM385 604
q0 -298 209 -379l211 996q-187 -49 -303.5 -225.5t-116.5 -391.5z" />
    <glyph glyph-name="uni20BA" unicode="&#x20ba;" horiz-adv-x="1361" 
d="M217 1042l264 88l64 304h266l-43 -205l426 145l-43 -205l-428 -145l-29 -143l426 145l-43 -205l-428 -145l-94 -449q188 17 319.5 147t172.5 322h260q-29 -139 -91 -254.5t-146.5 -196.5t-190 -136.5t-220 -82t-237.5 -26.5h-180l123 578l-265 -89l43 205l265 90l28 142
l-262 -88z" />
    <glyph glyph-name="uni20BF" unicode="&#x20bf;" horiz-adv-x="1460" 
d="M645 0h-113l-43 -205h-204l43 205h-271l305 1434h271l45 204h205l-45 -204h112l45 204h205l-45 -213q130 -23 204.5 -105t74.5 -204q0 -234 -222 -358q67 -42 103.5 -113t36.5 -162q0 -201 -140.5 -336t-361.5 -147l-43 -205h-205zM825 225q124 0 192 69.5t68 172.5
q0 71 -40.5 114.5t-126.5 43.5h-455l-86 -400h448zM924 850q109 0 176 62t67 161q0 135 -168 135h-413l-76 -358h414z" />
    <glyph glyph-name="uni2113" unicode="&#x2113;" horiz-adv-x="1130" 
d="M82 451q86 28 145 57q-12 114 -12 240q0 96 16 192.5t53 192t90 168.5t134 118t178 45q154 0 238 -82t84 -235q0 -211 -139.5 -390t-381.5 -313q24 -152 80 -221t150 -69q101 0 213 41l-80 -201q-73 -25 -150 -25q-334 0 -438 367q-39 -17 -180 -68v183zM467 768
q0 -92 2 -133q350 225 350 508q0 137 -129 137q-61 0 -106 -47.5t-69.5 -125.5t-36 -163t-11.5 -176z" />
    <glyph glyph-name="uni2117" unicode="&#x2117;" horiz-adv-x="1681" 
d="M133 717q0 151 59.5 289t160 238.5t239 160t289.5 59.5t289 -59.5t238.5 -160t160 -238.5t59.5 -289t-59.5 -289.5t-160 -239t-238.5 -160t-289 -59.5t-289.5 59.5t-239 160t-160 239t-59.5 289.5zM287 717q0 -161 79.5 -298t216.5 -216.5t298 -79.5t298 79.5
t216.5 216.5t79.5 298t-79.5 298t-216.5 216.5t-298 79.5t-298 -79.5t-216.5 -216.5t-79.5 -298zM1004 758q52 0 82 31.5t30 80.5t-30 81t-82 32h-236v-225h236zM768 604v-307h-184v840h440q122 0 199 -75.5t77 -191.5t-77 -191t-199 -75h-256z" />
    <glyph glyph-name="trademark" unicode="&#x2122;" horiz-adv-x="2021" 
d="M958 1280h-276l-145 -686h-191l146 686h-275l33 154h741zM1284 932q-26 71 -51 215h-8q-16 -150 -33 -225l-70 -328h-190l178 840h190l103 -320q40 -122 53 -203q44 80 139 203l238 320h219l-178 -840h-191l70 328q28 127 62 225h-9q-78 -131 -141 -215l-262 -338z" />
    <glyph glyph-name="Omega" unicode="&#x2126;" horiz-adv-x="1486" 
d="M889 1260q-108 0 -200 -46t-153.5 -124t-95.5 -180t-34 -214q0 -138 61.5 -225.5t169.5 -112.5l-76 -358h-536l43 205h362l2 10q-132 61 -206 200t-74 302q0 212 98.5 383.5t269.5 267.5t379 96q127 0 233 -41t178 -112.5t112 -170t40 -212.5q0 -241 -141 -438t-367 -275
l-2 -10h332l-43 -205h-536l75 358q187 38 305.5 187.5t118.5 369.5q0 153 -84 249t-231 96z" />
    <glyph glyph-name="estimated" unicode="&#x212e;" 
d="M829 1382q-264 0 -460 -186v-438h921v438q-196 186 -461 186zM1403 238q-107 -126 -255.5 -197.5t-318.5 -71.5q-151 0 -289 59.5t-238.5 160t-160 239t-59.5 289.5t59.5 289t160 238.5t238.5 160t289 59.5t289.5 -59.5t239 -160t160 -238.5t59.5 -289v-41h-1208v-438
q193 -187 460 -187q151 0 283.5 63t226.5 175z" />
    <glyph glyph-name="uni2150" unicode="&#x2150;" horiz-adv-x="1595" 
d="M254 594l100 469q8 38 37 145h-8q-11 -11 -113 -108l-133 -117l51 246l246 205h191l-181 -840h-190zM1204 1434h217l-1091 -1434h-217zM1106 0h-205l494 686h-389l32 154h594l-33 -154z" />
    <glyph glyph-name="uni2151" unicode="&#x2151;" horiz-adv-x="1697" 
d="M254 594l100 469q8 38 37 145h-8q-11 -11 -113 -108l-133 -117l51 246l246 205h191l-181 -840h-190zM1204 1434h217l-1091 -1434h-217zM1178 -20q-118 0 -190.5 51.5t-76.5 142.5h187q5 -55 88 -55q75 0 125.5 55.5t70.5 147.5q-63 -60 -176 -60q-118 0 -190 77.5
t-72 176.5q0 149 109.5 246.5t269.5 97.5q146 0 220.5 -85.5t74.5 -237.5q0 -145 -35.5 -255t-98 -174.5t-139.5 -96t-167 -31.5zM1313 717q-75 0 -127.5 -61t-52.5 -132q0 -55 27 -90t85 -35t101 31.5t62 75t19 90.5q0 53 -28.5 87t-85.5 34z" />
    <glyph glyph-name="uni2152" unicode="&#x2152;" horiz-adv-x="2306" 
d="M254 594l100 469q8 38 37 145h-8q-11 -11 -113 -108l-133 -117l51 246l246 205h191l-181 -840h-190zM1204 1434h217l-1091 -1434h-217zM1028 0l100 469q8 38 37 145h-8q-10 -10 -113 -108l-133 -117l52 246l245 205h191l-180 -840h-191zM1810 133q61 0 108 39.5t73 102.5
t38.5 131.5t12.5 136.5q0 164 -129 164q-61 0 -108 -39.5t-73 -102.5t-38.5 -131.5t-12.5 -136.5q0 -164 129 -164zM1800 -20q-136 0 -220.5 81t-84.5 236q0 272 120.5 417.5t307.5 145.5q136 0 220.5 -81t84.5 -236q0 -272 -120.5 -417.5t-307.5 -145.5z" />
    <glyph glyph-name="onethird" unicode="&#x2153;" horiz-adv-x="1634" 
d="M254 594l100 469q8 38 37 145h-8q-11 -11 -113 -108l-133 -117l51 246l246 205h191l-181 -840h-190zM1204 1434h217l-1091 -1434h-217zM1053 225q0 -37 25.5 -64.5t86.5 -27.5q78 0 119 38.5t41 96.5q0 40 -27 65t-84 25h-71l31 144h71q62 0 98.5 37t36.5 84
q0 35 -23.5 59.5t-68.5 24.5q-52 0 -81 -24t-38 -58h-196q24 105 108.5 170t218.5 65q126 0 198.5 -65t72.5 -160q0 -75 -46 -129t-112 -76q47 -19 72.5 -63t25.5 -105q0 -131 -99.5 -206.5t-258.5 -75.5q-131 0 -208 65.5t-77 165.5v14h185z" />
    <glyph glyph-name="twothirds" unicode="&#x2154;" horiz-adv-x="1812" 
d="M207 1219q34 107 106.5 171t206.5 64q135 0 209 -64.5t74 -160.5q0 -95 -49.5 -163.5t-149.5 -143.5l-233 -174h350l-33 -154h-614l32 154l381 296q73 56 100 94t27 81q0 81 -94 81q-95 0 -121 -81h-192zM1382 1434h217l-1091 -1434h-217zM1231 225q0 -37 25.5 -64.5
t86.5 -27.5q78 0 119 38.5t41 96.5q0 40 -26.5 65t-83.5 25h-72l31 144h71q62 0 99 37t37 84q0 35 -24 59.5t-69 24.5q-52 0 -80.5 -24t-37.5 -58h-197q24 105 109 170t219 65q126 0 198 -65t72 -160q0 -75 -46 -129t-112 -76q47 -19 73 -63.5t26 -104.5q0 -131 -100 -206.5
t-259 -75.5q-131 0 -207.5 65.5t-76.5 165.5v14h184z" />
    <glyph glyph-name="uni2155" unicode="&#x2155;" horiz-adv-x="1638" 
d="M254 594l100 469q8 38 37 145h-8q-11 -11 -113 -108l-133 -117l51 246l246 205h191l-181 -840h-190zM1204 1434h217l-1091 -1434h-217zM928 369l133 471h536l-32 -154h-357l-41 -145q56 43 129 43q118 0 180 -72t62 -178q0 -158 -98 -256t-271 -98q-141 0 -213.5 67
t-72.5 166v12h186v-10q0 -38 27 -62t84 -24q75 0 123.5 56.5t48.5 144.5q0 56 -28 85t-79 29q-83 0 -129 -75h-188z" />
    <glyph glyph-name="uni2156" unicode="&#x2156;" horiz-adv-x="1816" 
d="M207 1219q34 107 106.5 171t206.5 64q135 0 209 -64.5t74 -160.5q0 -95 -49.5 -163.5t-149.5 -143.5l-233 -174h350l-33 -154h-614l32 154l381 296q73 56 100 94t27 81q0 81 -94 81q-95 0 -121 -81h-192zM1382 1434h217l-1091 -1434h-217zM1106 369l133 471h537l-33 -154
h-357l-40 -145q56 43 129 43q118 0 179.5 -72t61.5 -178q0 -158 -97.5 -256t-270.5 -98q-141 0 -214 67t-73 166v12h186v-10q0 -38 27 -62t84 -24q75 0 123.5 56.5t48.5 144.5q0 56 -28 85t-79 29q-83 0 -129 -75h-188z" />
    <glyph glyph-name="uni2157" unicode="&#x2157;" horiz-adv-x="1810" 
d="M285 819q0 -37 25.5 -64.5t86.5 -27.5q78 0 119 38.5t41 96.5q0 40 -27 65t-84 25h-71l31 144h71q62 0 98.5 37t36.5 84q0 35 -23.5 59t-68.5 24q-52 0 -81 -23.5t-38 -57.5h-196q24 105 108.5 170t218.5 65q126 0 198.5 -65t72.5 -160q0 -75 -46 -129t-112 -76
q47 -19 72.5 -63t25.5 -105q0 -131 -99.5 -207t-258.5 -76q-131 0 -208 66t-77 166v14h185zM1376 1434h217l-1091 -1434h-217zM1100 369l133 471h536l-32 -154h-357l-41 -145q56 43 129 43q118 0 180 -72t62 -178q0 -158 -98 -256t-271 -98q-141 0 -213.5 67t-72.5 166v12
h186v-10q0 -38 27 -62t84 -24q75 0 123.5 56.5t48.5 144.5q0 56 -28 85t-79 29q-83 0 -129 -75h-188z" />
    <glyph glyph-name="uni2158" unicode="&#x2158;" horiz-adv-x="1853" 
d="M606 1434h209l-113 -533h119l-33 -153h-118l-33 -154h-191l33 154h-397l33 153zM512 901l29 133q15 70 61 205h-8q-33 -51 -58 -82.5t-81 -91.5l-150 -164h207zM1419 1434h217l-1091 -1434h-217zM1143 369l133 471h536l-32 -154h-357l-41 -145q56 43 129 43
q118 0 180 -72t62 -178q0 -158 -98 -256t-271 -98q-141 0 -213.5 67t-72.5 166v12h186v-10q0 -38 27 -62t84 -24q75 0 123.5 56.5t48.5 144.5q0 56 -28.5 85t-78.5 29q-83 0 -129 -75h-188z" />
    <glyph glyph-name="uni2159" unicode="&#x2159;" horiz-adv-x="1679" 
d="M254 594l100 469q8 38 37 145h-8q-11 -11 -113 -108l-133 -117l51 246l246 205h191l-181 -840h-190zM1204 1434h217l-1091 -1434h-217zM1352 860q122 0 190 -50.5t76 -143.5h-188q-4 11 -7 17t-12 16.5t-27 16t-43 5.5q-75 0 -125.5 -55.5t-70.5 -147.5q66 60 176 60
q124 0 194 -76.5t70 -177.5q0 -149 -110 -246.5t-271 -97.5q-144 0 -218.5 89t-74.5 242q0 142 38.5 251.5t103 172.5t140.5 94t159 31zM1214 123q76 0 129.5 60.5t53.5 131.5q0 54 -28.5 89.5t-86.5 35.5q-86 0 -134 -61t-48 -135q0 -53 28.5 -87t85.5 -34z" />
    <glyph glyph-name="uni215A" unicode="&#x215a;" horiz-adv-x="1855" 
d="M160 963l133 471h536l-32 -154h-357l-41 -145q56 43 129 43q118 0 180 -72t62 -178q0 -158 -98 -256.5t-271 -98.5q-141 0 -213.5 67.5t-72.5 166.5v12h186v-10q0 -38 27 -62t84 -24q75 0 123.5 56.5t48.5 144.5q0 56 -28 85t-79 29q-83 0 -129 -75h-188zM1380 1434h217
l-1091 -1434h-217zM1528 860q122 0 190 -50.5t76 -143.5h-188q-5 15 -9.5 23.5t-25 20t-53.5 11.5q-75 0 -126 -55.5t-71 -147.5q66 60 176 60q124 0 194 -76.5t70 -177.5q0 -149 -110 -246.5t-271 -97.5q-144 0 -218.5 89t-74.5 242q0 142 38.5 251.5t103 172.5t140.5 94
t159 31zM1391 123q76 0 129 60.5t53 131.5q0 54 -28.5 89.5t-86.5 35.5q-86 0 -134 -61t-48 -135q0 -53 29 -87t86 -34z" />
    <glyph glyph-name="oneeighth" unicode="&#x215b;" horiz-adv-x="1679" 
d="M254 594l100 469q8 38 37 145h-8q-11 -11 -113 -108l-133 -117l51 246l246 205h191l-181 -840h-190zM1204 1434h217l-1091 -1434h-217zM1180 590q0 -38 25.5 -63t76.5 -25q68 0 108 38t40 89q0 38 -26 63t-77 25q-66 0 -106.5 -38.5t-40.5 -88.5zM1374 266
q0 44 -30.5 73.5t-90.5 29.5q-77 0 -124.5 -44.5t-47.5 -99.5q0 -44 30.5 -73t90.5 -29q77 0 124.5 44t47.5 99zM1462 440q99 -45 99 -170q0 -130 -105.5 -210t-263.5 -80q-132 0 -215.5 69t-83.5 168q0 80 48.5 142.5t139.5 97.5q-39 19 -62.5 62.5t-23.5 84.5
q0 108 92 182t250 74q132 0 207.5 -63t75.5 -158q0 -60 -43 -115t-115 -84z" />
    <glyph glyph-name="threeeighths" unicode="&#x215c;" horiz-adv-x="1851" 
d="M285 819q0 -37 25.5 -64.5t86.5 -27.5q78 0 119 38.5t41 96.5q0 40 -27 65t-84 25h-71l31 144h71q62 0 98.5 37t36.5 84q0 35 -23.5 59t-68.5 24q-52 0 -81 -23.5t-38 -57.5h-196q24 105 108.5 170t218.5 65q126 0 198.5 -65t72.5 -160q0 -75 -46 -129t-112 -76
q47 -19 72.5 -63t25.5 -105q0 -131 -99.5 -207t-258.5 -76q-131 0 -208 66t-77 166v14h185zM1376 1434h217l-1091 -1434h-217zM1352 590q0 -38 25.5 -63t76.5 -25q68 0 108 38t40 89q0 38 -26 63t-77 25q-66 0 -106.5 -38.5t-40.5 -88.5zM1546 266q0 44 -30.5 73.5
t-90.5 29.5q-77 0 -124.5 -44.5t-47.5 -99.5q0 -44 30.5 -73t90.5 -29q77 0 124.5 44t47.5 99zM1634 440q99 -45 99 -170q0 -130 -105.5 -210t-263.5 -80q-132 0 -215.5 69t-83.5 168q0 80 48.5 142.5t139.5 97.5q-39 19 -62.5 62.5t-23.5 84.5q0 108 92 182t250 74
q132 0 207.5 -63t75.5 -158q0 -60 -43 -115t-115 -84z" />
    <glyph glyph-name="fiveeighths" unicode="&#x215d;" horiz-adv-x="1855" 
d="M160 963l133 471h536l-32 -154h-357l-41 -145q56 43 129 43q118 0 180 -72t62 -178q0 -158 -98 -256.5t-271 -98.5q-141 0 -213.5 67.5t-72.5 166.5v12h186v-10q0 -38 27 -62t84 -24q75 0 123.5 56.5t48.5 144.5q0 56 -28 85t-79 29q-83 0 -129 -75h-188zM1380 1434h217
l-1091 -1434h-217zM1356 590q0 -38 25.5 -63t76.5 -25q68 0 108 38t40 89q0 38 -26 63t-77 25q-66 0 -106.5 -38.5t-40.5 -88.5zM1550 266q0 45 -30 74t-90 29q-77 0 -125 -44.5t-48 -99.5q0 -44 30.5 -73t90.5 -29q77 0 124.5 44t47.5 99zM1638 440q99 -45 99 -170
q0 -130 -105.5 -210t-263.5 -80q-132 0 -215.5 69t-83.5 168q0 80 48.5 142.5t139.5 97.5q-39 19 -62.5 62.5t-23.5 84.5q0 108 92 182t250 74q132 0 207.5 -63t75.5 -158q0 -60 -43 -115t-115 -84z" />
    <glyph glyph-name="seveneighths" unicode="&#x215e;" horiz-adv-x="1662" 
d="M295 594h-205l494 686h-389l32 154h594l-33 -154zM1188 1434h217l-1092 -1434h-217zM1163 590q0 -38 26 -63t77 -25q68 0 107.5 38t39.5 89q0 38 -25.5 63t-76.5 25q-66 0 -107 -38.5t-41 -88.5zM1358 266q0 44 -30.5 73.5t-90.5 29.5q-77 0 -124.5 -44.5t-47.5 -99.5
q0 -44 30.5 -73t90.5 -29q77 0 124.5 44t47.5 99zM1446 440q98 -45 98 -170q0 -130 -105 -210t-263 -80q-132 0 -215.5 69t-83.5 168q0 80 48.5 142.5t139.5 97.5q-39 19 -62.5 62.5t-23.5 84.5q0 108 92 182t250 74q132 0 207.5 -63t75.5 -158q0 -60 -43 -115t-115 -84z
" />
    <glyph glyph-name="uni215F" unicode="&#x215f;" horiz-adv-x="894" 
d="M254 594l100 469q8 38 37 145h-8q-11 -11 -113 -108l-133 -117l51 246l246 205h191l-181 -840h-190zM1204 1434h217l-1091 -1434h-217z" />
    <glyph glyph-name="uni2160" unicode="&#x2160;" horiz-adv-x="614" 
d="M362 1434h273l-303 -1434h-273z" />
    <glyph glyph-name="uni2161" unicode="&#x2161;" horiz-adv-x="1169" 
d="M362 1434h273l-303 -1434h-273zM918 1434h272l-303 -1434h-273z" />
    <glyph glyph-name="uni2162" unicode="&#x2162;" horiz-adv-x="1724" 
d="M362 1434h273l-303 -1434h-273zM918 1434h272l-303 -1434h-273zM1473 1434h272l-303 -1434h-273z" />
    <glyph glyph-name="uni2163" unicode="&#x2163;" horiz-adv-x="1898" 
d="M362 1434h273l-303 -1434h-273zM764 1434h264l102 -732q26 -156 37 -405h9q139 294 202 403l414 734h293l-838 -1434h-256z" />
    <glyph glyph-name="uni2164" unicode="&#x2164;" horiz-adv-x="1341" 
d="M203 1434h264l102 -732q26 -156 37 -405h8q135 284 203 403l414 734h293l-838 -1434h-256z" />
    <glyph glyph-name="uni2165" unicode="&#x2165;" horiz-adv-x="1900" 
d="M201 1434h264l102 -732q26 -156 37 -405h8q135 284 203 403l414 734h293l-838 -1434h-256zM1649 1434h272l-303 -1434h-272z" />
    <glyph glyph-name="uni2166" unicode="&#x2166;" horiz-adv-x="2453" 
d="M199 1434h264l102 -732q26 -156 37 -405h8q135 284 203 403l414 734h293l-838 -1434h-256zM1647 1434h272l-303 -1434h-273zM2202 1434h272l-303 -1434h-273z" />
    <glyph glyph-name="uni2167" unicode="&#x2167;" horiz-adv-x="3004" 
d="M195 1434h264l102 -732q26 -156 37 -405h8q135 284 203 403l414 734h293l-838 -1434h-256zM1642 1434h273l-303 -1434h-273zM2198 1434h272l-303 -1434h-273zM2753 1434h272l-303 -1434h-273z" />
    <glyph glyph-name="uni2168" unicode="&#x2168;" horiz-adv-x="1892" 
d="M362 1434h273l-303 -1434h-273zM1126 768l-333 666h288l226 -465l407 465h328l-623 -693l371 -741h-289l-262 539l-473 -539h-328z" />
    <glyph glyph-name="uni2169" unicode="&#x2169;" horiz-adv-x="1337" 
d="M571 768l-333 666h288l226 -465l407 465h328l-623 -693l371 -741h-289l-262 539l-473 -539h-328z" />
    <glyph glyph-name="uni216A" unicode="&#x216a;" horiz-adv-x="1892" 
d="M571 768l-333 666h288l226 -465l407 465h328l-623 -693l371 -741h-289l-262 539l-473 -539h-328zM1640 1434h273l-303 -1434h-273z" />
    <glyph glyph-name="uni216B" unicode="&#x216b;" horiz-adv-x="2447" 
d="M571 768l-333 666h288l226 -465l407 465h328l-623 -693l371 -741h-289l-262 539l-473 -539h-328zM1640 1434h273l-303 -1434h-273zM2195 1434h273l-303 -1434h-273z" />
    <glyph glyph-name="uni216C" unicode="&#x216c;" horiz-adv-x="1191" 
d="M362 1434h273l-256 -1209h731l-47 -225h-1004z" />
    <glyph glyph-name="uni216D" unicode="&#x216d;" horiz-adv-x="1476" 
d="M1405 399q-78 -196 -238 -313t-395 -117q-163 0 -289 46t-205.5 130.5t-120 200t-40.5 258.5q0 127 36 252t107 234t168.5 193t229 132.5t278.5 48.5q248 0 392.5 -104.5t193.5 -294.5h-281q-60 174 -305 174q-120 0 -224 -53t-175 -141.5t-111.5 -203t-40.5 -237.5
q0 -192 94 -300.5t293 -108.5q233 0 342 204h291z" />
    <glyph glyph-name="uni216E" unicode="&#x216e;" horiz-adv-x="1501" 
d="M362 1434h537q271 0 422.5 -140t151.5 -393q0 -181 -60.5 -344.5t-169.5 -287t-273 -196.5t-358 -73h-553zM623 225q108 0 202 36t163 99t118.5 148t74.5 185t25 208q0 157 -84.5 232t-273.5 75h-260l-209 -983h244z" />
    <glyph glyph-name="uni216F" unicode="&#x216f;" horiz-adv-x="1857" 
d="M362 1434h283l164 -545q51 -173 100 -387q107 174 265 387l393 545h311l-303 -1434h-272l127 604q42 197 110 410h-8q-122 -213 -252 -389l-457 -625l-194 625q-54 177 -94 389h-9q-45 -308 -67 -410l-127 -604h-273z" />
    <glyph glyph-name="uni2170" unicode="&#x2170;" horiz-adv-x="532" 
d="M250 1065h260l-227 -1065h-260zM328 1434h260l-47 -226h-260z" />
    <glyph glyph-name="uni2171" unicode="&#x2171;" horiz-adv-x="1017" 
d="M250 1065h260l-227 -1065h-260zM328 1434h260l-47 -226h-260zM735 1065h260l-227 -1065h-260zM813 1434h260l-47 -226h-260z" />
    <glyph glyph-name="uni2172" unicode="&#x2172;" horiz-adv-x="1503" 
d="M250 1065h260l-227 -1065h-260zM328 1434h260l-47 -226h-260zM735 1065h260l-227 -1065h-260zM813 1434h260l-47 -226h-260zM1221 1065h260l-228 -1065h-260zM1298 1434h261l-48 -226h-260z" />
    <glyph glyph-name="uni2173" unicode="&#x2173;" horiz-adv-x="1593" 
d="M250 1065h260l-227 -1065h-260zM328 1434h260l-47 -226h-260zM621 1065h256l61 -410q21 -140 33 -379h8q120 251 195 379l235 410h285l-637 -1065h-254z" />
    <glyph glyph-name="uni2174" unicode="&#x2174;" horiz-adv-x="1107" 
d="M131 1065h256l62 -410q19 -130 32 -379h8q120 251 195 379l236 410h284l-637 -1065h-254z" />
    <glyph glyph-name="uni2175" unicode="&#x2175;" horiz-adv-x="1595" 
d="M129 1065h256l61 -410q21 -140 33 -379h8q120 251 195 379l236 410h284l-637 -1065h-254zM1313 1065h260l-227 -1065h-261zM1391 1434h260l-47 -226h-261z" />
    <glyph glyph-name="uni2176" unicode="&#x2176;" horiz-adv-x="2078" 
d="M127 1065h256l61 -410q21 -140 33 -379h8q120 251 195 379l235 410h285l-637 -1065h-254zM1311 1065h260l-228 -1065h-260zM1389 1434h260l-47 -226h-261zM1796 1065h260l-227 -1065h-260zM1874 1434h260l-47 -226h-260z" />
    <glyph glyph-name="uni2177" unicode="&#x2177;" horiz-adv-x="2560" 
d="M123 1065h256l61 -410q21 -140 33 -379h8q120 251 195 379l235 410h285l-637 -1065h-254zM1307 1065h260l-228 -1065h-260zM1384 1434h261l-48 -226h-260zM1792 1065h260l-227 -1065h-260zM1870 1434h260l-47 -226h-260zM2277 1065h260l-227 -1065h-260zM2355 1434h260
l-47 -226h-260z" />
    <glyph glyph-name="uni2178" unicode="&#x2178;" horiz-adv-x="1568" 
d="M250 1065h260l-227 -1065h-260zM328 1434h260l-47 -226h-260zM1004 354l-314 -354h-311l516 565l-258 500h272l154 -313l276 313h310l-480 -524l283 -541h-274z" />
    <glyph glyph-name="uni2179" unicode="&#x2179;" horiz-adv-x="1083" 
d="M518 354l-313 -354h-311l516 565l-258 500h272l154 -313l276 313h309l-479 -524l283 -541h-275z" />
    <glyph glyph-name="uni217A" unicode="&#x217a;" horiz-adv-x="1568" 
d="M518 354l-313 -354h-311l516 565l-258 500h272l154 -313l276 313h309l-479 -524l283 -541h-275zM1286 1065h260l-227 -1065h-260zM1364 1434h260l-47 -226h-260z" />
    <glyph glyph-name="uni217B" unicode="&#x217b;" horiz-adv-x="2054" 
d="M518 354l-313 -354h-311l516 565l-258 500h272l154 -313l276 313h309l-479 -524l283 -541h-275zM1286 1065h260l-227 -1065h-260zM1364 1434h260l-47 -226h-260zM1772 1065h260l-228 -1065h-260zM1849 1434h260l-47 -226h-260z" />
    <glyph glyph-name="uni217C" unicode="&#x217c;" horiz-adv-x="534" 
d="M330 1434h260l-305 -1434h-260z" />
    <glyph glyph-name="uni217D" unicode="&#x217d;" horiz-adv-x="1140" 
d="M1053 307q-63 -155 -184.5 -246.5t-305.5 -91.5q-127 0 -224 37.5t-154.5 104.5t-86 152t-28.5 188q0 121 43 235.5t120 206t195.5 147.5t257.5 56q370 0 444 -318h-256q-21 57 -65.5 87t-122.5 30q-106 0 -190.5 -65t-128 -165.5t-43.5 -213.5q0 -281 239 -281
q151 0 228 137h262z" />
    <glyph glyph-name="uni217E" unicode="&#x217e;" horiz-adv-x="1300" 
d="M551 174q109 0 198.5 70t137 175t47.5 216q0 117 -62 186.5t-167 69.5q-87 0 -160.5 -42t-120.5 -110t-73.5 -151t-26.5 -168q0 -118 58.5 -182t168.5 -64zM811 96q-137 -127 -322 -127q-128 0 -226 63.5t-147.5 165.5t-49.5 222q0 100 26 197t78 183.5t123.5 152.5
t170 104.5t210.5 38.5q116 0 199 -45t118 -111l105 494h260l-305 -1434h-260z" />
    <glyph glyph-name="uni217F" unicode="&#x217f;" horiz-adv-x="1925" 
d="M707 881q-103 0 -185 -65.5t-108 -201.5l-131 -614h-260l227 1065h260l-25 -115q52 70 135.5 108t172.5 38q235 0 315 -185q134 185 391 185q148 0 245 -88t97 -244q0 -47 -16 -129l-135 -635h-260l135 637q14 61 14 100q0 74 -39.5 109t-128.5 35q-103 0 -186 -65.5
t-109 -201.5l-131 -614h-260l135 637q14 61 14 100q0 74 -39 109t-128 35z" />
    <glyph glyph-name="uni2189" unicode="&#x2189;" horiz-adv-x="1910" 
d="M473 727q61 0 108 39.5t73 102.5t38.5 131.5t12.5 136.5q0 163 -130 163q-61 0 -108 -39t-72.5 -102.5t-38 -131t-12.5 -136.5q0 -164 129 -164zM463 573q-135 0 -220 81.5t-85 236.5q0 272 120.5 417.5t307.5 145.5q136 0 220.5 -81t84.5 -236q0 -138 -33.5 -247
t-92 -177.5t-135.5 -104t-167 -35.5zM1481 1434h217l-1092 -1434h-217zM1329 225q0 -36 26 -64t87 -28q78 0 119 38.5t41 96.5q0 40 -27 65t-84 25h-72l31 144h72q62 0 98.5 37t36.5 84q0 35 -23.5 59.5t-68.5 24.5q-52 0 -81 -24t-38 -58h-197q24 105 109 170t219 65
q126 0 198 -65t72 -160q0 -75 -45.5 -129t-111.5 -76q47 -19 72.5 -63t25.5 -105q0 -131 -99.5 -206.5t-258.5 -75.5q-131 0 -208 65.5t-77 165.5v14h184z" />
    <glyph glyph-name="arrowleft" unicode="&#x2190;" horiz-adv-x="1669" 
d="M471 655h1075v-245h-1075l440 -410h-297l-532 532l532 533h297z" />
    <glyph glyph-name="arrowup" unicode="&#x2191;" horiz-adv-x="1310" 
d="M123 635v297l532 532l533 -532v-297l-410 440v-1075h-246v1075z" />
    <glyph glyph-name="arrowright" unicode="&#x2192;" horiz-adv-x="1669" 
d="M758 1065h297l532 -533l-532 -532h-297l440 410h-1075v245h1075z" />
    <glyph glyph-name="arrowdown" unicode="&#x2193;" horiz-adv-x="1310" 
d="M532 358v1076h246v-1076l410 441v-297l-533 -533l-532 533v297z" />
    <glyph glyph-name="uni2196" unicode="&#x2196;" horiz-adv-x="1368" 
d="M373 471l-209 209v754h754l208 -209l-600 20l760 -760l-174 -174l-760 760z" />
    <glyph glyph-name="uni2197" unicode="&#x2197;" horiz-adv-x="1368" 
d="M1016 1071l-760 -760l-174 174l760 760l-600 -20l209 209h753v-754l-209 -209z" />
    <glyph glyph-name="uni2198" unicode="&#x2198;" horiz-adv-x="1368" 
d="M995 963l209 -209v-754h-753l-209 209l600 -21l-760 760l174 174l760 -760z" />
    <glyph glyph-name="uni2199" unicode="&#x2199;" horiz-adv-x="1368" 
d="M352 362l760 760l174 -174l-760 -760l600 21l-208 -209h-754v754l209 209z" />
    <glyph glyph-name="uni21A5" unicode="&#x21a5;" horiz-adv-x="1290" 
d="M113 164h1065v-164h-1065v164zM338 573v185l307 307l307 -307v-185l-221 236v-563h-172v563z" />
    <glyph glyph-name="uni21A9" unicode="&#x21a9;" horiz-adv-x="2355" 
d="M1751 655q117 0 191.5 75t74.5 192t-74.5 191.5t-191.5 74.5h-317v246h317q106 0 202.5 -40t166.5 -108t111.5 -163t41.5 -201t-41.5 -201t-111.5 -163t-166.5 -108t-202.5 -40h-1280l440 -410h-297l-532 532l532 533h297l-440 -410h1280z" />
    <glyph glyph-name="uni21AA" unicode="&#x21aa;" horiz-adv-x="2355" 
d="M1884 655l-440 410h297l532 -533l-532 -532h-297l440 410h-1280q-106 0 -202.5 40t-166.5 108t-111.5 163t-41.5 201t41.5 201t111.5 163t166.5 108t202.5 40h318v-246h-318q-117 0 -191.5 -74.5t-74.5 -191.5t74.5 -192t191.5 -75h1280z" />
    <glyph glyph-name="partialdiff" unicode="&#x2202;" horiz-adv-x="1257" 
d="M463 174q85 0 165 43t134 108.5t86.5 143t32.5 147.5q0 74 -41 123t-123 49q-85 0 -165 -43t-134 -108.5t-86.5 -143t-32.5 -147.5q0 -73 41.5 -122.5t122.5 -49.5zM788 1270q-110 0 -278 -62l74 205q128 51 256 51q200 0 308.5 -112.5t108.5 -296.5q0 -94 -15.5 -196
t-48.5 -208t-80 -205t-114.5 -186t-147.5 -151.5t-183 -102t-217 -37.5q-184 0 -295 109.5t-111 265.5q0 122 52.5 240t140.5 208t212 145.5t259 55.5q190 0 270 -119q31 89 31 181q0 215 -222 215z" />
    <glyph glyph-name="Delta" unicode="&#x2206;" horiz-adv-x="1245" 
d="M-4 205l692 1229h254l168 -1229l-43 -205h-1114zM270 205h586l-104 882z" />
    <glyph glyph-name="product" unicode="&#x220f;" horiz-adv-x="1331" 
d="M1049 1229h-467l-263 -1229h-260l306 1434h987l-305 -1434h-261z" />
    <glyph glyph-name="summation" unicode="&#x2211;" horiz-adv-x="1214" 
d="M958 -369h-1075l45 215l670 686l-377 687l45 215h1055l-45 -215h-766l342 -619l-45 -215l-528 -539h725z" />
    <glyph glyph-name="minus" unicode="&#x2212;" horiz-adv-x="1284" 
d="M188 819h1024l-43 -205h-1024z" />
    <glyph glyph-name="uni2215" unicode="&#x2215;" horiz-adv-x="327" 
d="M637 1434h217l-1092 -1434h-217z" />
    <glyph glyph-name="uni2219" unicode="&#x2219;" horiz-adv-x="733" 
d="M244 686h313l-65 -307h-314z" />
    <glyph glyph-name="radical" unicode="&#x221a;" horiz-adv-x="1177" 
d="M1364 1434l-43 -205h-217l-600 -1229h-299l-70 1065h254l17 -348q8 -139 8 -287q0 -67 -2 -102h2q77 185 178 389l348 717h424z" />
    <glyph glyph-name="infinity" unicode="&#x221e;" horiz-adv-x="1574" 
d="M115 657q0 108 56 195.5t146.5 134.5t194.5 47q155 0 252 -123l67 -86l115 97q70 57 135.5 84.5t147.5 27.5q120 0 207.5 -88t87.5 -211q0 -108 -56.5 -195.5t-147 -134.5t-194.5 -47q-84 0 -156 33.5t-114 89.5l-59 76l-105 -86q-71 -58 -135.5 -85.5t-146.5 -27.5
q-120 0 -207.5 88t-87.5 211zM944 680l53 -66q47 -61 140 -61q76 0 127 52.5t51 117.5q0 48 -30.5 82.5t-86.5 34.5q-59 0 -147 -72zM324 670q0 -48 30 -82.5t86 -34.5q60 0 148 72l94 77l-59 76q-50 62 -121 62q-75 0 -126.5 -52.5t-51.5 -117.5z" />
    <glyph glyph-name="integral" unicode="&#x222b;" horiz-adv-x="940" 
d="M356 -92q-58 -150 -155.5 -213.5t-249.5 -63.5h-154l43 205h133q46 0 70.5 16.5t42.5 55.5l477 1249q58 150 155 213.5t249 63.5h176l-43 -205h-154q-46 0 -70 -16.5t-42 -55.5z" />
    <glyph glyph-name="approxequal" unicode="&#x2248;" horiz-adv-x="1265" 
d="M184 799q31 151 126.5 239t240.5 88q56 0 107 -18t87.5 -43.5t69 -51t65.5 -43.5t64 -18q49 0 86.5 33.5t54.5 99.5h185q-31 -151 -126.5 -239t-240.5 -88q-57 0 -107.5 18t-87 43.5t-68.5 51t-65.5 43.5t-64.5 18q-49 0 -86.5 -33.5t-54.5 -99.5h-185zM88 348
q31 151 126.5 239.5t240.5 88.5q56 0 107 -18t87.5 -43.5t69 -51t65.5 -43.5t64 -18q49 0 86.5 33.5t54.5 99.5h185q-31 -151 -126.5 -239.5t-240.5 -88.5q-57 0 -107.5 18t-87 43.5t-68.5 51t-65.5 43.5t-64.5 18q-50 0 -87.5 -33.5t-54.5 -99.5h-184z" />
    <glyph glyph-name="notequal" unicode="&#x2260;" horiz-adv-x="1204" 
d="M240 1044h524l149 205h234l-150 -205h185l-43 -204h-291l-180 -246h417l-43 -205h-524l-149 -205h-234l150 205h-185l43 205h291l180 246h-417z" />
    <glyph glyph-name="equivalence" unicode="&#x2261;" horiz-adv-x="1204" 
d="M143 821h942l-43 -205h-942zM47 371h942l-43 -205h-942zM240 1272h942l-43 -205h-942z" />
    <glyph glyph-name="lessequal" unicode="&#x2264;" horiz-adv-x="1216" 
d="M98 389h942l-43 -205h-942zM1225 1249l-49 -223l-703 -174l629 -174l-43 -207l-885 277l49 225z" />
    <glyph glyph-name="greaterequal" unicode="&#x2265;" horiz-adv-x="1210" 
d="M133 471l49 223l703 174l-629 174l43 207l885 -276l-49 -225zM1016 184h-942l43 205h942z" />
    <glyph glyph-name="uni2295" unicode="&#x2295;" horiz-adv-x="1290" 
d="M686 573h438q-12 175 -137.5 301t-300.5 138v-439zM604 1012q-175 -12 -300.5 -138t-137.5 -301h438v439zM82 532q0 153 75.5 283t205 205.5t282.5 75.5t282.5 -75.5t205 -205.5t75.5 -283t-75.5 -282.5t-205 -205t-282.5 -75.5t-282.5 75.5t-205 205t-75.5 282.5z
M686 53q175 12 300.5 138t137.5 301h-438v-439zM604 492h-438q12 -175 137.5 -301t300.5 -138v439z" />
    <glyph glyph-name="uni2296" unicode="&#x2296;" horiz-adv-x="1290" 
d="M82 532q0 153 75.5 283t205 205.5t282.5 75.5t282.5 -75.5t205 -205.5t75.5 -283t-75.5 -282.5t-205 -205t-282.5 -75.5t-282.5 75.5t-205 205t-75.5 282.5zM645 1014q-189 0 -325.5 -127t-153.5 -314h958q-17 187 -153.5 314t-325.5 127zM645 51q189 0 325.5 127
t153.5 314h-958q17 -187 153.5 -314t325.5 -127z" />
    <glyph glyph-name="uni2297" unicode="&#x2297;" horiz-adv-x="1290" 
d="M645 1014q-173 0 -311 -113l311 -311l311 311q-138 113 -311 113zM1014 221q112 131 112 311q0 181 -112 312l-312 -312zM164 532q0 -180 112 -311l312 311l-312 312q-112 -131 -112 -312zM82 532q0 153 75.5 283t205 205.5t282.5 75.5t282.5 -75.5t205 -205.5t75.5 -283
t-75.5 -282.5t-205 -205t-282.5 -75.5t-282.5 75.5t-205 205t-75.5 282.5zM645 51q173 0 311 113l-311 311l-311 -311q138 -113 311 -113z" />
    <glyph glyph-name="uni2298" unicode="&#x2298;" horiz-adv-x="1290" 
d="M1208 532q0 -153 -75.5 -282.5t-205 -205t-282.5 -75.5t-282.5 75.5t-205 205t-75.5 282.5t75.5 283t205 205.5t282.5 75.5t282.5 -75.5t205 -205.5t75.5 -283zM645 1014q-131 0 -241.5 -64.5t-175 -175.5t-64.5 -242q0 -180 112 -311l680 680q-138 113 -311 113z
M1126 532q0 181 -112 312l-680 -680q132 -113 311 -113q131 0 241.5 64.5t175 175t64.5 241.5z" />
    <glyph glyph-name="uni22A0" unicode="&#x22a0;" horiz-adv-x="1290" 
d="M1178 1065v-1065h-1065v1065h1065zM588 532l-393 394v-787zM645 475l-393 -393h786zM252 983l393 -393l393 393h-786zM702 532l394 -393v787z" />
    <glyph glyph-name="uni2300" unicode="&#x2300;" horiz-adv-x="1290" 
d="M113 57l106 107q-137 153 -137 368q0 153 75.5 283t205 205.5t282.5 75.5q215 0 369 -138l106 107l58 -57l-107 -107q137 -153 137 -369q0 -153 -75.5 -282.5t-205 -205t-282.5 -75.5q-216 0 -369 137l-106 -106zM1126 532q0 181 -112 312l-680 -680q132 -113 311 -113
q131 0 241.5 64.5t175 175t64.5 241.5zM164 532q0 -180 112 -311l680 680q-132 113 -311 113q-131 0 -241.5 -64.5t-175 -175.5t-64.5 -242z" />
    <glyph glyph-name="uni23CF" unicode="&#x23cf;" horiz-adv-x="1290" 
d="M113 164h1065v-164h-1065v164zM1178 410h-1065l532 655z" />
    <glyph glyph-name="uni23E9" unicode="&#x23e9;" horiz-adv-x="1290" 
d="M643 532l-530 -532v1065zM1178 532l-531 -532v1065z" />
    <glyph glyph-name="uni23EA" unicode="&#x23ea;" horiz-adv-x="1290" 
d="M1178 1065v-1065l-531 532zM643 1065v-1065l-530 532z" />
    <glyph glyph-name="uni23EB" unicode="&#x23eb;" horiz-adv-x="1290" 
d="M1178 0h-1065l532 530zM1178 535h-1065l532 530z" />
    <glyph glyph-name="uni23EC" unicode="&#x23ec;" horiz-adv-x="1290" 
d="M645 535l-532 530h1065zM645 0l-532 530h1065z" />
    <glyph glyph-name="uni23ED" unicode="&#x23ed;" horiz-adv-x="1290" 
d="M559 532l-446 -532v1065zM1010 532l-447 -532v1065zM1014 0v1065h164v-1065h-164z" />
    <glyph glyph-name="uni23EE" unicode="&#x23ee;" horiz-adv-x="1290" 
d="M1178 1065v-1065l-447 532zM727 1065v-1065l-446 532zM113 0v1065h163v-1065h-163z" />
    <glyph glyph-name="uni23F8" unicode="&#x23f8;" horiz-adv-x="1290" 
d="M768 0v1065h328v-1065h-328zM195 0v1065h327v-1065h-327z" />
    <glyph glyph-name="uni23F9" unicode="&#x23f9;" horiz-adv-x="1290" 
d="M113 1065h1065v-1065h-1065v1065z" />
    <glyph glyph-name="uni23FA" unicode="&#x23fa;" horiz-adv-x="1290" 
d="M113 532q0 145 71 268t193.5 194t267.5 71q109 0 207.5 -42t170 -113.5t113.5 -170t42 -207.5q0 -145 -71 -267.5t-194 -193.5t-268 -71t-267.5 71t-193.5 193.5t-71 267.5z" />
    <glyph glyph-name="uni25A0" unicode="&#x25a0;" horiz-adv-x="1290" 
d="M113 1065h1065v-1065h-1065v1065z" />
    <glyph glyph-name="uni25A1" unicode="&#x25a1;" horiz-adv-x="1290" 
d="M113 0v1065h1065v-1065h-1065zM195 82h901v901h-901v-901z" />
    <glyph glyph-name="uni25AF" unicode="&#x25af;" horiz-adv-x="1392" 
d="M25 0l305 1434h1069l-305 -1434h-1069zM129 82h897l268 1270h-897z" />
    <glyph glyph-name="uni25B2" unicode="&#x25b2;" horiz-adv-x="1290" 
d="M1178 0h-1065l532 1065z" />
    <glyph glyph-name="uni25B3" unicode="&#x25b3;" horiz-adv-x="1290" 
d="M1178 0h-1065l532 1065zM645 885l-401 -803h803z" />
    <glyph glyph-name="uni25B6" unicode="&#x25b6;" horiz-adv-x="1290" 
d="M1178 532l-1065 -532v1065z" />
    <glyph glyph-name="uni25B7" unicode="&#x25b7;" horiz-adv-x="1290" 
d="M113 0v1065l1065 -533zM997 532l-802 402v-803z" />
    <glyph glyph-name="uni25BC" unicode="&#x25bc;" horiz-adv-x="1290" 
d="M645 0l-532 1065h1065z" />
    <glyph glyph-name="uni25BD" unicode="&#x25bd;" horiz-adv-x="1290" 
d="M645 0l-532 1065h1065zM1047 983h-803l401 -803z" />
    <glyph glyph-name="uni25C0" unicode="&#x25c0;" horiz-adv-x="1290" 
d="M1178 1065v-1065l-1065 532z" />
    <glyph glyph-name="uni25C1" unicode="&#x25c1;" horiz-adv-x="1290" 
d="M1178 1065v-1065l-1065 532zM293 532l803 -401v803z" />
    <glyph glyph-name="uni25C6" unicode="&#x25c6;" horiz-adv-x="1290" 
d="M1208 532l-563 -563l-563 563l563 564z" />
    <glyph glyph-name="uni25C7" unicode="&#x25c7;" horiz-adv-x="1290" 
d="M82 532l563 564l563 -564l-563 -563zM645 84l449 448l-449 449l-448 -449z" />
    <glyph glyph-name="lozenge" unicode="&#x25ca;" horiz-adv-x="1177" 
d="M133 815l531 619h237l264 -619l-41 -197l-528 -618h-238l-266 618zM745 1169l-407 -485l174 -420l406 486z" />
    <glyph glyph-name="uni25CB" unicode="&#x25cb;" horiz-adv-x="1290" 
d="M82 532q0 153 75.5 283t205 205.5t282.5 75.5t282.5 -75.5t205 -205.5t75.5 -283t-75.5 -282.5t-205 -205t-282.5 -75.5t-282.5 75.5t-205 205t-75.5 282.5zM164 532q0 -131 64.5 -241.5t175 -175t241.5 -64.5t241.5 64.5t175 175t64.5 241.5t-64.5 242t-175 175.5
t-241.5 64.5t-241.5 -64.5t-175 -175.5t-64.5 -242z" />
    <glyph glyph-name="uni25CC" unicode="&#x25cc;" horiz-adv-x="1290" 
d="M604 1055q0 17 12 29t29 12t29 -12t12 -29t-12 -29t-29 -12t-29 12t-12 29zM784 1024q0 17 12 29t29 12t29 -12t12 -29t-12 -29t-29 -12t-29 12t-12 29zM940 934q0 17 12 29t29 12t29 -12t12 -29t-12 -29t-29 -12t-29 12t-12 29zM1057 795q0 17 12 29t29 12t29 -12
t12 -29t-12 -29t-29 -12t-29 12t-12 29zM1118 625q0 17 12 29t29 12t29 -12t12 -29t-12 -29t-29 -12t-29 12t-12 29zM506 1024q0 -17 -12 -29t-29 -12t-29 12t-12 29t12 29t29 12t29 -12t12 -29zM350 934q0 -17 -12 -29t-29 -12t-29 12t-12 29t12 29t29 12t29 -12t12 -29z
M233 795q0 -17 -11.5 -29t-28.5 -12t-29 12t-12 29t12 29t29 12t28.5 -12t11.5 -29zM172 625q0 -17 -12 -29t-29 -12t-29 12t-12 29t12 29t29 12t29 -12t12 -29zM604 10q0 17 12 29t29 12t29 -12t12 -29t-12 -29t-29 -12t-29 12t-12 29zM784 41q0 17 12 29t29 12t29 -12
t12 -29t-12 -29t-29 -12t-29 12t-12 29zM940 131q0 17 12 29t29 12t29 -12t12 -29t-12 -29t-29 -12t-29 12t-12 29zM1057 270q0 17 12 29t29 12t29 -12t12 -29t-12 -29t-29 -12t-29 12t-12 29zM1118 440q0 17 12 29t29 12t29 -12t12 -29t-12 -29t-29 -12t-29 12t-12 29z
M506 41q0 -17 -12 -29t-29 -12t-29 12t-12 29t12 29t29 12t29 -12t12 -29zM350 131q0 -17 -12 -29t-29 -12t-29 12t-12 29t12 29t29 12t29 -12t12 -29zM233 270q0 -17 -11.5 -29t-28.5 -12t-29 12t-12 29t12 29t29 12t28.5 -12t11.5 -29zM172 440q0 -17 -12 -29t-29 -12
t-29 12t-12 29t12 29t29 12t29 -12t12 -29z" />
    <glyph glyph-name="uni25CF" unicode="&#x25cf;" horiz-adv-x="1290" 
d="M82 532q0 153 75.5 283t205 205.5t282.5 75.5t282.5 -75.5t205 -205.5t75.5 -283t-75.5 -282.5t-205 -205t-282.5 -75.5t-282.5 75.5t-205 205t-75.5 282.5z" />
    <glyph glyph-name="uni25D0" unicode="&#x25d0;" horiz-adv-x="1290" 
d="M82 532q0 153 75.5 283t205 205.5t282.5 75.5t282.5 -75.5t205 -205.5t75.5 -283t-75.5 -282.5t-205 -205t-282.5 -75.5t-282.5 75.5t-205 205t-75.5 282.5zM645 51q131 0 241.5 64.5t175 175t64.5 241.5t-64.5 242t-175 175.5t-241.5 64.5v-963z" />
    <glyph glyph-name="uni25D1" unicode="&#x25d1;" horiz-adv-x="1290" 
d="M1208 532q0 -153 -75.5 -282.5t-205 -205t-282.5 -75.5t-282.5 75.5t-205 205t-75.5 282.5t75.5 283t205 205.5t282.5 75.5t282.5 -75.5t205 -205.5t75.5 -283zM645 1014q-131 0 -241.5 -64.5t-175 -175.5t-64.5 -242t64.5 -241.5t175 -175t241.5 -64.5v963z" />
    </font>
</defs>
</svg>
